MidiFile(type=1, ticks_per_beat=96, tracks=[
  MidiTrack([
    MetaMessage('track_name', name='Berlin City Tour\x00\x00\x00\x00\x00\x00\x00\x00', time=0),
    MetaMessage('time_signature', numerator=4, denominator=4, clocks_per_click=24, notated_32nd_notes_per_beat=8, time=0),
    MetaMessage('set_tempo', tempo=740740, time=0),
    MetaMessage('end_of_track', time=163200)]),
  MidiTrack([
    MetaMessage('track_name', name='R&B Kit', time=0),
    MetaMessage('channel_prefix', channel=0, time=0),
    Message('program_change', channel=0, program=12, time=0),
    Message('control_change', channel=0, control=0, value=0, time=0),
    Message('control_change', channel=0, control=32, value=16, time=0),
    Message('control_change', channel=0, control=7, value=127, time=0),
    Message('control_change', channel=0, control=10, value=64, time=0),
    Message('control_change', channel=0, control=91, value=0, time=0),
    Message('control_change', channel=0, control=93, value=0, time=0),
    Message('note_on', channel=0, note=34, velocity=50, time=1800),
    Message('note_off', channel=0, note=34, velocity=64, time=157),
    Message('note_on', channel=0, note=84, velocity=53, time=0),
    Message('note_on', channel=0, note=35, velocity=94, time=0),
    Message('note_on', channel=0, note=37, velocity=110, time=0),
    Message('note_on', channel=0, note=22, velocity=58, time=0),
    Message('note_off', channel=0, note=22, velocity=64, time=11),
    Message('note_off', channel=0, note=84, velocity=64, time=0),
    Message('note_off', channel=0, note=35, velocity=64, time=1),
    Message('note_off', channel=0, note=37, velocity=64, time=0),
    Message('note_on', channel=0, note=90, velocity=53, time=36),
    Message('note_on', channel=0, note=23, velocity=110, time=1),
    Message('note_off', channel=0, note=90, velocity=64, time=11),
    Message('note_off', channel=0, note=23, velocity=64, time=0),
    Message('note_on', channel=0, note=22, velocity=65, time=12),
    Message('note_off', channel=0, note=22, velocity=64, time=13),
    Message('note_on', channel=0, note=23, velocity=58, time=12),
    Message('note_off', channel=0, note=23, velocity=64, time=11),
    Message('note_on', channel=0, note=84, velocity=53, time=11),
    Message('note_off', channel=0, note=84, velocity=64, time=12),
    Message('note_on', channel=0, note=23, velocity=110, time=12),
    Message('note_off', channel=0, note=23, velocity=64, time=12),
    Message('note_on', channel=0, note=90, velocity=53, time=12),
    Message('note_off', channel=0, note=90, velocity=64, time=12),
    Message('note_on', channel=0, note=84, velocity=53, time=12),
    Message('note_on', channel=0, note=35, velocity=84, time=1),
    Message('note_on', channel=0, note=22, velocity=58, time=0),
    Message('note_off', channel=0, note=22, velocity=64, time=11),
    Message('note_off', channel=0, note=35, velocity=64, time=1),
    Message('note_off', channel=0, note=84, velocity=64, time=0),
    Message('note_on', channel=0, note=90, velocity=53, time=35),
    Message('note_on', channel=0, note=23, velocity=110, time=1),
    Message('note_off', channel=0, note=90, velocity=64, time=11),
    Message('note_off', channel=0, note=23, velocity=64, time=1),
    Message('note_on', channel=0, note=22, velocity=65, time=12),
    Message('note_off', channel=0, note=22, velocity=64, time=11),
    Message('note_on', channel=0, note=23, velocity=58, time=12),
    Message('note_off', channel=0, note=23, velocity=64, time=12),
    Message('note_on', channel=0, note=84, velocity=53, time=13),
    Message('note_off', channel=0, note=84, velocity=64, time=11),
    Message('note_on', channel=0, note=23, velocity=110, time=12),
    Message('note_off', channel=0, note=23, velocity=64, time=12),
    Message('note_on', channel=0, note=90, velocity=53, time=12),
    Message('note_off', channel=0, note=90, velocity=64, time=13),
    Message('note_on', channel=0, note=84, velocity=53, time=11),
    Message('note_on', channel=0, note=35, velocity=84, time=1),
    Message('note_on', channel=0, note=22, velocity=58, time=0),
    Message('note_off', channel=0, note=22, velocity=64, time=11),
    Message('note_off', channel=0, note=84, velocity=64, time=0),
    Message('note_off', channel=0, note=35, velocity=64, time=1),
    Message('note_on', channel=0, note=90, velocity=53, time=36),
    Message('note_on', channel=0, note=23, velocity=110, time=0),
    Message('note_off', channel=0, note=23, velocity=64, time=12),
    Message('note_off', channel=0, note=90, velocity=64, time=0),
    Message('note_on', channel=0, note=22, velocity=65, time=12),
    Message('note_off', channel=0, note=22, velocity=64, time=12),
    Message('note_on', channel=0, note=23, velocity=58, time=12),
    Message('note_off', channel=0, note=23, velocity=64, time=12),
    Message('note_on', channel=0, note=84, velocity=53, time=12),
    Message('note_off', channel=0, note=84, velocity=64, time=12),
    Message('note_on', channel=0, note=23, velocity=110, time=12),
    Message('note_off', channel=0, note=23, velocity=64, time=12),
    Message('note_on', channel=0, note=37, velocity=22, time=0),
    Message('note_off', channel=0, note=37, velocity=64, time=11),
    Message('note_on', channel=0, note=37, velocity=22, time=1),
    Message('note_on', channel=0, note=90, velocity=53, time=0),
    Message('note_on', channel=0, note=0, velocity=3, time=0),
    Message('note_off', channel=0, note=90, velocity=64, time=11),
    Message('note_off', channel=0, note=37, velocity=64, time=1),
    Message('note_off', channel=0, note=0, velocity=64, time=0),
    Message('note_on', channel=0, note=1, velocity=26, time=0),
    Message('note_on', channel=0, note=37, velocity=23, time=0),
    Message('note_off', channel=0, note=37, velocity=64, time=12),
    Message('note_off', channel=0, note=1, velocity=64, time=0),
    Message('note_on', channel=0, note=2, velocity=15, time=1),
    Message('note_on', channel=0, note=22, velocity=58, time=0),
    Message('note_on', channel=0, note=37, velocity=24, time=0),
    Message('note_off', channel=0, note=22, velocity=64, time=10),
    Message('note_off', channel=0, note=37, velocity=64, time=1),
    Message('note_off', channel=0, note=2, velocity=64, time=0),
    Message('note_on', channel=0, note=37, velocity=24, time=0),
    Message('note_on', channel=0, note=3, velocity=15, time=0),
    Message('note_off', channel=0, note=3, velocity=64, time=11),
    Message('note_off', channel=0, note=37, velocity=64, time=0),
    Message('note_on', channel=0, note=34, velocity=22, time=1),
    Message('note_on', channel=0, note=84, velocity=53, time=0),
    Message('note_on', channel=0, note=4, velocity=21, time=0),
    Message('note_on', channel=0, note=37, velocity=25, time=0),
    Message('note_off', channel=0, note=37, velocity=64, time=11),
    Message('note_off', channel=0, note=4, velocity=64, time=1),
    Message('note_off', channel=0, note=34, velocity=64, time=0),
    Message('note_on', channel=0, note=37, velocity=25, time=0),
    Message('note_off', channel=0, note=84, velocity=64, time=0),
    Message('note_on', channel=0, note=5, velocity=21, time=0),
    Message('note_off', channel=0, note=37, velocity=64, time=12),
    Message('note_off', channel=0, note=5, velocity=64, time=0),
    Message('note_on', channel=0, note=23, velocity=110, time=0),
    Message('note_on', channel=0, note=37, velocity=27, time=0),
    Message('note_on', channel=0, note=6, velocity=26, time=0),
    Message('note_on', channel=0, note=90, velocity=53, time=0),
    Message('note_off', channel=0, note=6, velocity=64, time=12),
    Message('note_off', channel=0, note=37, velocity=64, time=0),
    Message('note_off', channel=0, note=90, velocity=64, time=0),
    Message('note_on', channel=0, note=37, velocity=31, time=0),
    Message('note_on', channel=0, note=7, velocity=30, time=0),
    Message('note_off', channel=0, note=23, velocity=64, time=5),
    Message('note_off', channel=0, note=37, velocity=64, time=6),
    Message('note_off', channel=0, note=7, velocity=64, time=1),
    Message('note_on', channel=0, note=22, velocity=58, time=0),
    Message('note_on', channel=0, note=37, velocity=36, time=0),
    Message('note_on', channel=0, note=8, velocity=30, time=0),
    Message('note_off', channel=0, note=22, velocity=64, time=12),
    Message('note_off', channel=0, note=37, velocity=64, time=0),
    Message('note_off', channel=0, note=8, velocity=64, time=0),
    Message('note_on', channel=0, note=37, velocity=40, time=0),
    Message('note_on', channel=0, note=9, velocity=36, time=0),
    Message('note_off', channel=0, note=37, velocity=64, time=11),
    Message('note_off', channel=0, note=9, velocity=64, time=1),
    Message('note_on', channel=0, note=23, velocity=58, time=0),
    Message('note_on', channel=0, note=37, velocity=44, time=0),
    Message('note_on', channel=0, note=10, velocity=36, time=0),
    Message('note_off', channel=0, note=23, velocity=64, time=11),
    Message('note_off', channel=0, note=37, velocity=64, time=0),
    Message('note_off', channel=0, note=10, velocity=64, time=1),
    Message('note_on', channel=0, note=37, velocity=49, time=0),
    Message('note_on', channel=0, note=11, velocity=42, time=0),
    Message('note_off', channel=0, note=37, velocity=64, time=12),
    Message('note_off', channel=0, note=11, velocity=64, time=0),
    Message('note_on', channel=0, note=12, velocity=48, time=0),
    Message('note_on', channel=0, note=37, velocity=53, time=0),
    Message('note_off', channel=0, note=37, velocity=64, time=11),
    Message('note_off', channel=0, note=12, velocity=64, time=1),
    Message('note_on', channel=0, note=13, velocity=48, time=0),
    Message('note_on', channel=0, note=37, velocity=57, time=0),
    Message('note_off', channel=0, note=13, velocity=64, time=11),
    Message('note_off', channel=0, note=37, velocity=64, time=0),
    Message('note_on', channel=0, note=21, velocity=58, time=1),
    Message('note_on', channel=0, note=37, velocity=62, time=0),
    Message('note_on', channel=0, note=14, velocity=53, time=0),
    Message('note_off', channel=0, note=21, velocity=64, time=11),
    Message('note_off', channel=0, note=37, velocity=64, time=0),
    Message('note_off', channel=0, note=14, velocity=64, time=1),
    Message('note_on', channel=0, note=37, velocity=66, time=0),
    Message('note_on', channel=0, note=15, velocity=59, time=0),
    Message('note_off', channel=0, note=15, velocity=64, time=12),
    Message('note_off', channel=0, note=37, velocity=64, time=0),
    Message('note_on', channel=0, note=37, velocity=98, time=0),
    Message('note_on', channel=0, note=16, velocity=59, time=0),
    Message('note_off', channel=0, note=37, velocity=64, time=12),
    Message('note_off', channel=0, note=16, velocity=64, time=0),
    Message('note_on', channel=0, note=37, velocity=90, time=0),
    Message('note_off', channel=0, note=37, velocity=64, time=12),
    Message('note_on', channel=0, note=28, velocity=124, time=0),
    Message('note_off', channel=0, note=28, velocity=64, time=15),
    Message('note_on', channel=0, note=50, velocity=127, time=33),
    Message('note_off', channel=0, note=50, velocity=64, time=27),
    Message('note_on', channel=0, note=50, velocity=127, time=68),
    Message('note_off', channel=0, note=50, velocity=64, time=11),
    Message('note_on', channel=0, note=50, velocity=127, time=86),
    Message('note_off', channel=0, note=50, velocity=64, time=11),
    Message('note_on', channel=0, note=50, velocity=127, time=85),
    Message('note_off', channel=0, note=50, velocity=64, time=12),
    Message('note_on', channel=0, note=28, velocity=124, time=11),
    Message('note_off', channel=0, note=28, velocity=64, time=12),
    Message('note_on', channel=0, note=50, velocity=127, time=60),
    Message('note_off', channel=0, note=50, velocity=64, time=29),
    Message('note_on', channel=0, note=50, velocity=127, time=67),
    Message('note_off', channel=0, note=50, velocity=64, time=12),
    Message('note_on', channel=0, note=50, velocity=127, time=85),
    Message('note_off', channel=0, note=50, velocity=64, time=11),
    Message('note_on', channel=0, note=28, velocity=124, time=61),
    Message('note_off', channel=0, note=28, velocity=64, time=12),
    Message('note_on', channel=0, note=50, velocity=127, time=11),
    Message('note_off', channel=0, note=50, velocity=64, time=12),
    Message('note_on', channel=0, note=28, velocity=127, time=36),
    Message('note_off', channel=0, note=28, velocity=64, time=12),
    Message('note_on', channel=0, note=50, velocity=127, time=37),
    Message('note_off', channel=0, note=50, velocity=64, time=11),
    Message('note_on', channel=0, note=50, velocity=127, time=85),
    Message('note_off', channel=0, note=50, velocity=64, time=13),
    Message('note_on', channel=0, note=50, velocity=127, time=82),
    Message('note_off', channel=0, note=50, velocity=64, time=12),
    Message('note_on', channel=0, note=50, velocity=127, time=85),
    Message('note_off', channel=0, note=50, velocity=64, time=11),
    Message('note_on', channel=0, note=50, velocity=127, time=86),
    Message('note_off', channel=0, note=50, velocity=64, time=9),
    Message('note_on', channel=0, note=28, velocity=113, time=14),
    Message('note_off', channel=0, note=28, velocity=64, time=11),
    Message('note_on', channel=0, note=28, velocity=113, time=38),
    Message('note_on', channel=0, note=50, velocity=127, time=22),
    Message('note_off', channel=0, note=28, velocity=64, time=1),
    Message('note_off', channel=0, note=50, velocity=64, time=10),
    Message('note_on', channel=0, note=28, velocity=113, time=109),
    Message('note_on', channel=0, note=50, velocity=124, time=25),
    Message('note_off', channel=0, note=28, velocity=64, time=0),
    Message('note_off', channel=0, note=50, velocity=64, time=10),
    Message('note_on', channel=0, note=50, velocity=119, time=14),
    Message('note_off', channel=0, note=50, velocity=64, time=11),
    Message('note_on', channel=0, note=28, velocity=127, time=60),
    Message('note_off', channel=0, note=28, velocity=64, time=12),
    Message('note_on', channel=0, note=50, velocity=127, time=37),
    Message('note_off', channel=0, note=50, velocity=64, time=11),
    Message('note_on', channel=0, note=50, velocity=127, time=85),
    Message('note_off', channel=0, note=50, velocity=64, time=11),
    Message('note_on', channel=0, note=50, velocity=127, time=84),
    Message('note_off', channel=0, note=50, velocity=64, time=12),
    Message('note_on', channel=0, note=28, velocity=124, time=60),
    Message('note_off', channel=0, note=28, velocity=64, time=11),
    Message('note_on', channel=0, note=50, velocity=127, time=14),
    Message('note_off', channel=0, note=50, velocity=64, time=10),
    Message('note_on', channel=0, note=28, velocity=124, time=13),
    Message('note_off', channel=0, note=28, velocity=64, time=12),
    Message('note_on', channel=0, note=50, velocity=127, time=61),
    Message('note_off', channel=0, note=50, velocity=64, time=11),
    Message('note_on', channel=0, note=28, velocity=124, time=37),
    Message('note_off', channel=0, note=28, velocity=64, time=11),
    Message('note_on', channel=0, note=28, velocity=113, time=13),
    Message('note_off', channel=0, note=28, velocity=64, time=19),
    Message('note_on', channel=0, note=50, velocity=127, time=4),
    Message('note_off', channel=0, note=50, velocity=64, time=11),
    Message('note_on', channel=0, note=50, velocity=127, time=86),
    Message('note_off', channel=0, note=50, velocity=64, time=11),
    Message('note_on', channel=0, note=28, velocity=124, time=61),
    Message('note_off', channel=0, note=28, velocity=64, time=11),
    Message('note_on', channel=0, note=50, velocity=127, time=13),
    Message('note_off', channel=0, note=50, velocity=64, time=11),
    Message('note_on', channel=0, note=28, velocity=124, time=37),
    Message('note_off', channel=0, note=28, velocity=64, time=12),
    Message('note_on', channel=0, note=50, velocity=127, time=36),
    Message('note_off', channel=0, note=50, velocity=64, time=10),
    Message('note_on', channel=0, note=28, velocity=113, time=38),
    Message('note_off', channel=0, note=28, velocity=64, time=11),
    Message('note_on', channel=0, note=28, velocity=113, time=12),
    Message('note_off', channel=0, note=28, velocity=64, time=13),
    Message('note_on', channel=0, note=50, velocity=127, time=12),
    Message('note_off', channel=0, note=50, velocity=64, time=11),
    Message('note_on', channel=0, note=50, velocity=127, time=85),
    Message('note_off', channel=0, note=50, velocity=64, time=11),
    Message('note_on', channel=0, note=28, velocity=124, time=36),
    Message('note_off', channel=0, note=28, velocity=64, time=12),
    Message('note_on', channel=0, note=50, velocity=127, time=37),
    Message('note_off', channel=0, note=50, velocity=64, time=11),
    Message('note_on', channel=0, note=28, velocity=124, time=13),
    Message('note_off', channel=0, note=28, velocity=64, time=12),
    Message('note_on', channel=0, note=50, velocity=127, time=60),
    Message('note_off', channel=0, note=50, velocity=64, time=11),
    Message('note_on', channel=0, note=28, velocity=113, time=13),
    Message('note_off', channel=0, note=28, velocity=64, time=11),
    Message('note_on', channel=0, note=28, velocity=119, time=37),
    Message('note_off', channel=0, note=28, velocity=64, time=10),
    Message('note_on', channel=0, note=50, velocity=127, time=14),
    Message('note_off', channel=0, note=50, velocity=64, time=13),
    Message('note_on', channel=0, note=28, velocity=127, time=1571),
    Message('note_off', channel=0, note=28, velocity=64, time=12),
    Message('note_on', channel=0, note=50, velocity=127, time=12),
    Message('note_off', channel=0, note=50, velocity=64, time=11),
    Message('note_on', channel=0, note=50, velocity=127, time=13),
    Message('note_off', channel=0, note=50, velocity=64, time=12),
    Message('note_on', channel=0, note=50, velocity=127, time=12),
    Message('note_off', channel=0, note=50, velocity=64, time=11),
    Message('note_on', channel=0, note=50, velocity=127, time=13),
    Message('note_off', channel=0, note=50, velocity=64, time=11),
    Message('note_on', channel=0, note=50, velocity=127, time=13),
    Message('note_off', channel=0, note=50, velocity=64, time=11),
    Message('note_on', channel=0, note=50, velocity=127, time=13),
    Message('note_off', channel=0, note=50, velocity=64, time=11),
    Message('note_on', channel=0, note=28, velocity=127, time=13),
    Message('note_off', channel=0, note=28, velocity=64, time=12),
    Message('note_on', channel=0, note=50, velocity=127, time=60),
    Message('note_off', channel=0, note=50, velocity=64, time=11),
    Message('note_on', channel=0, note=50, velocity=127, time=86),
    Message('note_off', channel=0, note=50, velocity=64, time=10),
    Message('note_on', channel=0, note=50, velocity=127, time=85),
    Message('note_off', channel=0, note=50, velocity=64, time=12),
    Message('note_on', channel=0, note=28, velocity=124, time=61),
    Message('note_off', channel=0, note=28, velocity=64, time=10),
    Message('note_on', channel=0, note=50, velocity=127, time=13),
    Message('note_off', channel=0, note=50, velocity=64, time=11),
    Message('note_on', channel=0, note=28, velocity=124, time=14),
    Message('note_off', channel=0, note=28, velocity=64, time=10),
    Message('note_on', channel=0, note=50, velocity=127, time=62),
    Message('note_off', channel=0, note=50, velocity=64, time=9),
    Message('note_on', channel=0, note=28, velocity=124, time=40),
    Message('note_off', channel=0, note=28, velocity=64, time=9),
    Message('note_on', channel=0, note=28, velocity=113, time=13),
    Message('note_off', channel=0, note=28, velocity=64, time=20),
    Message('note_on', channel=0, note=50, velocity=127, time=4),
    Message('note_off', channel=0, note=50, velocity=64, time=11),
    Message('note_on', channel=0, note=50, velocity=127, time=85),
    Message('note_off', channel=0, note=50, velocity=64, time=11),
    Message('note_on', channel=0, note=50, velocity=127, time=37),
    Message('note_off', channel=0, note=50, velocity=64, time=10),
    Message('note_on', channel=0, note=28, velocity=124, time=14),
    Message('note_off', channel=0, note=28, velocity=64, time=11),
    Message('note_on', channel=0, note=28, velocity=58, time=1),
    Message('note_off', channel=0, note=28, velocity=64, time=7),
    Message('note_on', channel=0, note=28, velocity=70, time=5),
    Message('note_off', channel=0, note=28, velocity=64, time=8),
    Message('note_on', channel=0, note=28, velocity=82, time=4),
    Message('note_off', channel=0, note=28, velocity=64, time=8),
    Message('note_on', channel=0, note=28, velocity=94, time=4),
    Message('note_off', channel=0, note=28, velocity=64, time=8),
    Message('note_on', channel=0, note=28, velocity=106, time=4),
    Message('note_off', channel=0, note=28, velocity=64, time=9),
    Message('note_on', channel=0, note=28, velocity=127, time=3),
    Message('note_off', channel=0, note=28, velocity=64, time=8),
    Message('note_on', channel=0, note=50, velocity=127, time=39),
    Message('note_off', channel=0, note=50, velocity=64, time=12),
    Message('note_on', channel=0, note=28, velocity=113, time=61),
    Message('note_off', channel=0, note=28, velocity=64, time=11),
    Message('note_on', channel=0, note=50, velocity=127, time=13),
    Message('note_off', channel=0, note=50, velocity=64, time=11),
    Message('note_on', channel=0, note=50, velocity=127, time=85),
    Message('note_off', channel=0, note=50, velocity=64, time=11),
    Message('note_on', channel=0, note=28, velocity=124, time=36),
    Message('note_off', channel=0, note=28, velocity=64, time=12),
    Message('note_on', channel=0, note=50, velocity=127, time=37),
    Message('note_off', channel=0, note=50, velocity=64, time=11),
    Message('note_on', channel=0, note=28, velocity=124, time=13),
    Message('note_off', channel=0, note=28, velocity=64, time=11),
    Message('note_on', channel=0, note=50, velocity=127, time=61),
    Message('note_off', channel=0, note=50, velocity=64, time=11),
    Message('note_on', channel=0, note=28, velocity=113, time=13),
    Message('note_off', channel=0, note=28, velocity=64, time=11),
    Message('note_on', channel=0, note=28, velocity=119, time=37),
    Message('note_off', channel=0, note=28, velocity=64, time=11),
    Message('note_on', channel=0, note=40, velocity=127, time=90),
    Message('note_on', channel=0, note=49, velocity=119, time=19),
    Message('note_off', channel=0, note=40, velocity=64, time=22),
    Message('note_on', channel=0, note=40, velocity=127, time=74),
    Message('note_off', channel=0, note=40, velocity=64, time=40),
    Message('note_off', channel=0, note=49, velocity=64, time=1),
    Message('note_on', channel=0, note=40, velocity=127, time=36),
    Message('note_on', channel=0, note=49, velocity=127, time=19),
    Message('note_off', channel=0, note=40, velocity=64, time=35),
    Message('note_on', channel=0, note=40, velocity=127, time=61),
    Message('note_off', channel=0, note=49, velocity=64, time=38),
    Message('note_off', channel=0, note=40, velocity=64, time=4),
    Message('note_on', channel=0, note=40, velocity=121, time=1494),
    Message('note_off', channel=0, note=40, velocity=64, time=51),
    Message('note_on', channel=0, note=40, velocity=110, time=45),
    Message('note_off', channel=0, note=40, velocity=64, time=55),
    Message('note_on', channel=0, note=40, velocity=109, time=41),
    Message('note_off', channel=0, note=40, velocity=64, time=38),
    Message('note_on', channel=0, note=40, velocity=104, time=58),
    Message('note_on', channel=0, note=49, velocity=103, time=0),
    Message('note_off', channel=0, note=49, velocity=64, time=49),
    Message('note_off', channel=0, note=40, velocity=64, time=2),
    Message('note_on', channel=0, note=40, velocity=104, time=45),
    Message('note_off', channel=0, note=40, velocity=64, time=42),
    Message('note_on', channel=0, note=49, velocity=103, time=54),
    Message('note_off', channel=0, note=49, velocity=64, time=50),
    Message('note_on', channel=0, note=40, velocity=100, time=46),
    Message('note_off', channel=0, note=40, velocity=64, time=48),
    Message('note_on', channel=0, note=49, velocity=99, time=48),
    Message('note_off', channel=0, note=49, velocity=64, time=43),
    Message('note_on', channel=0, note=38, velocity=63, time=5),
    Message('note_off', channel=0, note=38, velocity=64, time=26),
    Message('note_on', channel=0, note=40, velocity=107, time=22),
    Message('note_off', channel=0, note=40, velocity=64, time=54),
    Message('note_on', channel=0, note=49, velocity=109, time=43),
    Message('note_off', channel=0, note=49, velocity=64, time=50),
    Message('note_on', channel=0, note=40, velocity=106, time=46),
    Message('note_off', channel=0, note=40, velocity=64, time=42),
    Message('note_on', channel=0, note=49, velocity=113, time=53),
    Message('note_off', channel=0, note=49, velocity=64, time=51),
    Message('note_on', channel=0, note=40, velocity=106, time=47),
    Message('note_off', channel=0, note=40, velocity=64, time=24),
    Message('note_on', channel=0, note=40, velocity=106, time=23),
    Message('note_off', channel=0, note=40, velocity=64, time=25),
    Message('note_on', channel=0, note=49, velocity=115, time=22),
    Message('note_off', channel=0, note=49, velocity=64, time=45),
    Message('note_on', channel=0, note=40, velocity=104, time=3),
    Message('note_on', channel=0, note=38, velocity=42, time=28),
    Message('note_off', channel=0, note=40, velocity=64, time=20),
    Message('note_on', channel=0, note=40, velocity=104, time=0),
    Message('note_off', channel=0, note=40, velocity=64, time=4),
    Message('note_off', channel=0, note=38, velocity=64, time=9),
    Message('note_on', channel=0, note=38, velocity=27, time=35),
    Message('note_on', channel=0, note=49, velocity=120, time=48),
    Message('note_off', channel=0, note=38, velocity=64, time=8),
    Message('note_on', channel=0, note=38, velocity=57, time=21),
    Message('note_off', channel=0, note=49, velocity=64, time=24),
    Message('note_off', channel=0, note=38, velocity=64, time=41),
    Message('note_on', channel=0, note=40, velocity=121, time=2),
    Message('note_off', channel=0, note=40, velocity=64, time=51),
    Message('note_on', channel=0, note=40, velocity=110, time=45),
    Message('note_off', channel=0, note=40, velocity=64, time=56),
    Message('note_on', channel=0, note=38, velocity=47, time=23),
    Message('note_on', channel=0, note=40, velocity=109, time=17),
    Message('note_off', channel=0, note=40, velocity=64, time=39),
    Message('note_on', channel=0, note=49, velocity=96, time=9),
    Message('note_off', channel=0, note=38, velocity=64, time=11),
    Message('note_off', channel=0, note=49, velocity=64, time=37),
    Message('note_on', channel=0, note=49, velocity=110, time=0),
    Message('note_off', channel=0, note=49, velocity=64, time=3),
    Message('note_on', channel=0, note=38, velocity=81, time=31),
    Message('note_off', channel=0, note=38, velocity=64, time=42),
    Message('note_on', channel=0, note=38, velocity=53, time=97),
    Message('note_on', channel=0, note=40, velocity=94, time=19),
    Message('note_off', channel=0, note=40, velocity=64, time=49),
    Message('note_off', channel=0, note=38, velocity=64, time=22),
    Message('note_on', channel=0, note=40, velocity=100, time=25),
    Message('note_off', channel=0, note=40, velocity=64, time=48),
    Message('note_on', channel=0, note=38, velocity=34, time=29),
    Message('note_on', channel=0, note=49, velocity=96, time=19),
    Message('note_off', channel=0, note=38, velocity=64, time=28),
    Message('note_on', channel=0, note=40, velocity=112, time=5),
    Message('note_off', channel=0, note=49, velocity=64, time=10),
    Message('note_off', channel=0, note=40, velocity=64, time=15),
    Message('note_on', channel=0, note=40, velocity=121, time=38),
    Message('note_off', channel=0, note=40, velocity=64, time=54),
    Message('note_on', channel=0, note=49, velocity=107, time=42),
    Message('note_off', channel=0, note=49, velocity=64, time=51),
    Message('note_on', channel=0, note=40, velocity=106, time=45),
    Message('note_off', channel=0, note=40, velocity=64, time=43),
    Message('note_on', channel=0, note=38, velocity=48, time=35),
    Message('note_on', channel=0, note=49, velocity=111, time=18),
    Message('note_off', channel=0, note=49, velocity=64, time=52),
    Message('note_off', channel=0, note=38, velocity=64, time=16),
    Message('note_on', channel=0, note=40, velocity=85, time=28),
    Message('note_off', channel=0, note=40, velocity=64, time=31),
    Message('note_on', channel=0, note=40, velocity=85, time=17),
    Message('note_off', channel=0, note=40, velocity=64, time=31),
    Message('note_on', channel=0, note=49, velocity=113, time=17),
    Message('note_off', channel=0, note=49, velocity=64, time=45),
    Message('note_on', channel=0, note=40, velocity=90, time=4),
    Message('note_off', channel=0, note=40, velocity=64, time=47),
    Message('note_on', channel=0, note=38, velocity=27, time=48),
    Message('note_on', channel=0, note=40, velocity=55, time=49),
    Message('note_off', channel=0, note=38, velocity=64, time=7),
    Message('note_off', channel=0, note=40, velocity=64, time=46),
    Message('note_on', channel=0, note=87, velocity=60, time=2345),
    Message('note_off', channel=0, note=87, velocity=64, time=9),
    Message('note_on', channel=0, note=87, velocity=60, time=16),
    Message('note_off', channel=0, note=87, velocity=64, time=10),
    Message('note_on', channel=0, note=87, velocity=60, time=14),
    Message('note_off', channel=0, note=87, velocity=64, time=10),
    Message('note_on', channel=0, note=87, velocity=60, time=14),
    Message('note_off', channel=0, note=87, velocity=64, time=10),
    Message('note_on', channel=0, note=87, velocity=60, time=14),
    Message('note_off', channel=0, note=87, velocity=64, time=11),
    Message('note_on', channel=0, note=87, velocity=60, time=13),
    Message('note_off', channel=0, note=87, velocity=64, time=9),
    Message('note_on', channel=0, note=87, velocity=60, time=15),
    Message('note_off', channel=0, note=87, velocity=64, time=9),
    Message('note_on', channel=0, note=87, velocity=60, time=15),
    Message('note_off', channel=0, note=87, velocity=64, time=10),
    Message('note_on', channel=0, note=87, velocity=60, time=14),
    Message('note_off', channel=0, note=87, velocity=64, time=10),
    Message('note_on', channel=0, note=87, velocity=60, time=14),
    Message('note_off', channel=0, note=87, velocity=64, time=10),
    Message('note_on', channel=0, note=87, velocity=60, time=14),
    Message('note_off', channel=0, note=87, velocity=64, time=9),
    Message('note_on', channel=0, note=87, velocity=60, time=15),
    Message('note_off', channel=0, note=87, velocity=64, time=10),
    Message('note_on', channel=0, note=87, velocity=60, time=14),
    Message('note_off', channel=0, note=87, velocity=64, time=10),
    Message('note_on', channel=0, note=87, velocity=61, time=14),
    Message('note_off', channel=0, note=87, velocity=64, time=9),
    Message('note_on', channel=0, note=49, velocity=104, time=15),
    Message('note_on', channel=0, note=87, velocity=61, time=0),
    Message('note_off', channel=0, note=87, velocity=64, time=10),
    Message('note_on', channel=0, note=87, velocity=61, time=14),
    Message('note_off', channel=0, note=87, velocity=64, time=10),
    Message('note_on', channel=0, note=87, velocity=61, time=14),
    Message('note_off', channel=0, note=49, velocity=64, time=3),
    Message('note_off', channel=0, note=87, velocity=64, time=7),
    Message('note_on', channel=0, note=87, velocity=61, time=14),
    Message('note_off', channel=0, note=87, velocity=64, time=10),
    Message('note_on', channel=0, note=87, velocity=61, time=14),
    Message('note_off', channel=0, note=87, velocity=64, time=10),
    Message('note_on', channel=0, note=87, velocity=61, time=14),
    Message('note_off', channel=0, note=87, velocity=64, time=10),
    Message('note_on', channel=0, note=87, velocity=61, time=14),
    Message('note_off', channel=0, note=87, velocity=64, time=9),
    Message('note_on', channel=0, note=87, velocity=61, time=15),
    Message('note_off', channel=0, note=87, velocity=64, time=8),
    Message('note_on', channel=0, note=87, velocity=61, time=16),
    Message('note_off', channel=0, note=87, velocity=64, time=10),
    Message('note_on', channel=0, note=87, velocity=61, time=14),
    Message('note_off', channel=0, note=87, velocity=64, time=8),
    Message('note_on', channel=0, note=87, velocity=61, time=16),
    Message('note_off', channel=0, note=87, velocity=64, time=10),
    Message('note_on', channel=0, note=87, velocity=61, time=14),
    Message('note_off', channel=0, note=87, velocity=64, time=8),
    Message('note_on', channel=0, note=87, velocity=61, time=16),
    Message('note_off', channel=0, note=87, velocity=64, time=10),
    Message('note_on', channel=0, note=87, velocity=61, time=14),
    Message('note_off', channel=0, note=87, velocity=64, time=8),
    Message('note_on', channel=0, note=87, velocity=61, time=16),
    Message('note_off', channel=0, note=87, velocity=64, time=10),
    Message('note_on', channel=0, note=87, velocity=61, time=14),
    Message('note_off', channel=0, note=87, velocity=64, time=8),
    Message('note_on', channel=0, note=87, velocity=61, time=16),
    Message('note_off', channel=0, note=87, velocity=64, time=8),
    Message('note_on', channel=0, note=87, velocity=61, time=16),
    Message('note_off', channel=0, note=87, velocity=64, time=10),
    Message('note_on', channel=0, note=87, velocity=61, time=14),
    Message('note_off', channel=0, note=87, velocity=64, time=9),
    Message('note_on', channel=0, note=87, velocity=61, time=15),
    Message('note_off', channel=0, note=87, velocity=64, time=9),
    Message('note_on', channel=0, note=87, velocity=61, time=15),
    Message('note_off', channel=0, note=87, velocity=64, time=9),
    Message('note_on', channel=0, note=87, velocity=62, time=15),
    Message('note_off', channel=0, note=87, velocity=64, time=8),
    Message('note_on', channel=0, note=87, velocity=62, time=16),
    Message('note_off', channel=0, note=87, velocity=64, time=10),
    Message('note_on', channel=0, note=87, velocity=62, time=14),
    Message('note_off', channel=0, note=87, velocity=64, time=9),
    Message('note_on', channel=0, note=87, velocity=62, time=15),
    Message('note_off', channel=0, note=87, velocity=64, time=9),
    Message('note_on', channel=0, note=87, velocity=62, time=15),
    Message('note_off', channel=0, note=87, velocity=64, time=8),
    Message('note_on', channel=0, note=87, velocity=62, time=16),
    Message('note_off', channel=0, note=87, velocity=64, time=9),
    Message('note_on', channel=0, note=87, velocity=62, time=15),
    Message('note_on', channel=0, note=38, velocity=27, time=5),
    Message('note_off', channel=0, note=87, velocity=64, time=3),
    Message('note_on', channel=0, note=40, velocity=80, time=16),
    Message('note_on', channel=0, note=87, velocity=62, time=0),
    Message('note_off', channel=0, note=87, velocity=64, time=9),
    Message('note_on', channel=0, note=87, velocity=62, time=15),
    Message('note_off', channel=0, note=40, velocity=64, time=2),
    Message('note_off', channel=0, note=38, velocity=64, time=2),
    Message('note_off', channel=0, note=87, velocity=64, time=4),
    Message('note_on', channel=0, note=87, velocity=62, time=16),
    Message('note_off', channel=0, note=87, velocity=64, time=12),
    Message('note_on', channel=0, note=87, velocity=62, time=12),
    Message('note_off', channel=0, note=87, velocity=64, time=9),
    Message('note_on', channel=0, note=87, velocity=62, time=15),
    Message('note_off', channel=0, note=87, velocity=64, time=12),
    Message('note_on', channel=0, note=87, velocity=62, time=12),
    Message('note_off', channel=0, note=87, velocity=64, time=9),
    Message('note_on', channel=0, note=87, velocity=62, time=15),
    Message('note_off', channel=0, note=87, velocity=64, time=10),
    Message('note_on', channel=0, note=87, velocity=62, time=14),
    Message('note_off', channel=0, note=87, velocity=64, time=9),
    Message('note_on', channel=0, note=87, velocity=62, time=15),
    Message('note_off', channel=0, note=87, velocity=64, time=9),
    Message('note_on', channel=0, note=87, velocity=62, time=15),
    Message('note_off', channel=0, note=87, velocity=64, time=9),
    Message('note_on', channel=0, note=87, velocity=62, time=15),
    Message('note_off', channel=0, note=87, velocity=64, time=10),
    Message('note_on', channel=0, note=87, velocity=62, time=14),
    Message('note_off', channel=0, note=87, velocity=64, time=8),
    Message('note_on', channel=0, note=87, velocity=62, time=16),
    Message('note_off', channel=0, note=87, velocity=64, time=9),
    Message('note_on', channel=0, note=87, velocity=62, time=15),
    Message('note_off', channel=0, note=87, velocity=64, time=10),
    Message('note_on', channel=0, note=87, velocity=62, time=14),
    Message('note_off', channel=0, note=87, velocity=64, time=9),
    Message('note_on', channel=0, note=87, velocity=63, time=15),
    Message('note_off', channel=0, note=87, velocity=64, time=9),
    Message('note_on', channel=0, note=87, velocity=63, time=15),
    Message('note_off', channel=0, note=87, velocity=64, time=8),
    Message('note_on', channel=0, note=87, velocity=63, time=16),
    Message('note_off', channel=0, note=87, velocity=64, time=9),
    Message('note_on', channel=0, note=87, velocity=63, time=16),
    Message('note_off', channel=0, note=87, velocity=64, time=8),
    Message('note_on', channel=0, note=87, velocity=63, time=15),
    Message('note_off', channel=0, note=87, velocity=64, time=8),
    Message('note_on', channel=0, note=87, velocity=63, time=16),
    Message('note_off', channel=0, note=87, velocity=64, time=8),
    Message('note_on', channel=0, note=87, velocity=63, time=16),
    Message('note_off', channel=0, note=87, velocity=64, time=8),
    Message('note_on', channel=0, note=87, velocity=63, time=16),
    Message('note_off', channel=0, note=87, velocity=64, time=9),
    Message('note_on', channel=0, note=87, velocity=63, time=16),
    Message('note_off', channel=0, note=87, velocity=64, time=7),
    Message('note_on', channel=0, note=87, velocity=63, time=16),
    Message('note_off', channel=0, note=87, velocity=64, time=9),
    Message('note_on', channel=0, note=87, velocity=63, time=17),
    Message('note_off', channel=0, note=87, velocity=64, time=6),
    Message('note_on', channel=0, note=87, velocity=63, time=17),
    Message('note_off', channel=0, note=87, velocity=64, time=8),
    Message('note_on', channel=0, note=87, velocity=63, time=15),
    Message('note_off', channel=0, note=87, velocity=64, time=8),
    Message('note_on', channel=0, note=87, velocity=63, time=16),
    Message('note_off', channel=0, note=87, velocity=64, time=8),
    Message('note_on', channel=0, note=87, velocity=63, time=16),
    Message('note_off', channel=0, note=87, velocity=64, time=9),
    Message('note_on', channel=0, note=87, velocity=63, time=15),
    Message('note_off', channel=0, note=87, velocity=64, time=9),
    Message('note_on', channel=0, note=87, velocity=63, time=15),
    Message('note_off', channel=0, note=87, velocity=64, time=9),
    Message('note_on', channel=0, note=87, velocity=63, time=15),
    Message('note_off', channel=0, note=87, velocity=64, time=8),
    Message('note_on', channel=0, note=87, velocity=63, time=16),
    Message('note_off', channel=0, note=87, velocity=64, time=9),
    Message('note_on', channel=0, note=87, velocity=63, time=15),
    Message('note_off', channel=0, note=87, velocity=64, time=9),
    Message('note_on', channel=0, note=87, velocity=63, time=15),
    Message('note_off', channel=0, note=87, velocity=64, time=8),
    Message('note_on', channel=0, note=87, velocity=63, time=16),
    Message('note_off', channel=0, note=87, velocity=64, time=8),
    Message('note_on', channel=0, note=87, velocity=64, time=16),
    Message('note_off', channel=0, note=87, velocity=64, time=8),
    Message('note_on', channel=0, note=87, velocity=64, time=16),
    Message('note_off', channel=0, note=87, velocity=64, time=9),
    Message('note_on', channel=0, note=87, velocity=64, time=15),
    Message('note_off', channel=0, note=87, velocity=64, time=9),
    Message('note_on', channel=0, note=87, velocity=64, time=15),
    Message('note_off', channel=0, note=87, velocity=64, time=7),
    Message('note_on', channel=0, note=87, velocity=64, time=17),
    Message('note_off', channel=0, note=87, velocity=64, time=8),
    Message('note_on', channel=0, note=87, velocity=64, time=16),
    Message('note_off', channel=0, note=87, velocity=64, time=9),
    Message('note_on', channel=0, note=87, velocity=64, time=15),
    Message('note_off', channel=0, note=87, velocity=64, time=8),
    Message('note_on', channel=0, note=87, velocity=64, time=16),
    Message('note_off', channel=0, note=87, velocity=64, time=9),
    Message('note_on', channel=0, note=87, velocity=64, time=15),
    Message('note_off', channel=0, note=87, velocity=64, time=9),
    Message('note_on', channel=0, note=87, velocity=64, time=15),
    Message('note_off', channel=0, note=87, velocity=64, time=9),
    Message('note_on', channel=0, note=87, velocity=64, time=15),
    Message('note_off', channel=0, note=87, velocity=64, time=7),
    Message('note_on', channel=0, note=87, velocity=64, time=17),
    Message('note_off', channel=0, note=87, velocity=64, time=9),
    Message('note_on', channel=0, note=87, velocity=64, time=15),
    Message('note_off', channel=0, note=87, velocity=64, time=7),
    Message('note_on', channel=0, note=87, velocity=64, time=17),
    Message('note_off', channel=0, note=87, velocity=64, time=8),
    Message('note_on', channel=0, note=87, velocity=64, time=16),
    Message('note_off', channel=0, note=87, velocity=64, time=6),
    Message('note_on', channel=0, note=87, velocity=64, time=18),
    Message('note_off', channel=0, note=87, velocity=64, time=8),
    Message('note_on', channel=0, note=87, velocity=64, time=16),
    Message('note_off', channel=0, note=87, velocity=64, time=6),
    Message('note_on', channel=0, note=87, velocity=64, time=18),
    Message('note_off', channel=0, note=87, velocity=64, time=6),
    Message('note_on', channel=0, note=87, velocity=64, time=18),
    Message('note_off', channel=0, note=87, velocity=64, time=6),
    Message('note_on', channel=0, note=87, velocity=64, time=18),
    Message('note_off', channel=0, note=87, velocity=64, time=10),
    Message('note_on', channel=0, note=87, velocity=64, time=14),
    Message('note_off', channel=0, note=87, velocity=64, time=8),
    Message('note_on', channel=0, note=87, velocity=64, time=16),
    Message('note_off', channel=0, note=87, velocity=64, time=10),
    Message('note_on', channel=0, note=87, velocity=64, time=14),
    Message('note_off', channel=0, note=87, velocity=64, time=8),
    Message('note_on', channel=0, note=87, velocity=65, time=16),
    Message('note_off', channel=0, note=87, velocity=64, time=8),
    Message('note_on', channel=0, note=87, velocity=65, time=16),
    Message('note_off', channel=0, note=87, velocity=64, time=7),
    Message('note_on', channel=0, note=87, velocity=65, time=17),
    Message('note_off', channel=0, note=87, velocity=64, time=9),
    Message('note_on', channel=0, note=87, velocity=65, time=15),
    Message('note_off', channel=0, note=87, velocity=64, time=8),
    Message('note_on', channel=0, note=87, velocity=65, time=16),
    Message('note_off', channel=0, note=87, velocity=64, time=7),
    Message('note_on', channel=0, note=87, velocity=65, time=17),
    Message('note_on', channel=0, note=38, velocity=35, time=5),
    Message('note_off', channel=0, note=87, velocity=64, time=2),
    Message('note_on', channel=0, note=40, velocity=89, time=17),
    Message('note_on', channel=0, note=87, velocity=65, time=0),
    Message('note_off', channel=0, note=87, velocity=64, time=7),
    Message('note_off', channel=0, note=38, velocity=64, time=6),
    Message('note_on', channel=0, note=87, velocity=65, time=11),
    Message('note_off', channel=0, note=87, velocity=64, time=7),
    Message('note_off', channel=0, note=40, velocity=64, time=15),
    Message('note_on', channel=0, note=38, velocity=20, time=2),
    Message('note_on', channel=0, note=87, velocity=65, time=0),
    Message('note_off', channel=0, note=87, velocity=64, time=7),
    Message('note_on', channel=0, note=87, velocity=65, time=17),
    Message('note_off', channel=0, note=87, velocity=64, time=6),
    Message('note_on', channel=0, note=40, velocity=98, time=18),
    Message('note_on', channel=0, note=87, velocity=65, time=0),
    Message('note_off', channel=0, note=87, velocity=64, time=7),
    Message('note_off', channel=0, note=38, velocity=64, time=1),
    Message('note_on', channel=0, note=87, velocity=65, time=16),
    Message('note_on', channel=0, note=38, velocity=50, time=5),
    Message('note_off', channel=0, note=87, velocity=64, time=3),
    Message('note_on', channel=0, note=87, velocity=65, time=16),
    Message('note_off', channel=0, note=40, velocity=64, time=6),
    Message('note_off', channel=0, note=87, velocity=64, time=1),
    Message('note_on', channel=0, note=87, velocity=62, time=17),
    Message('note_off', channel=0, note=87, velocity=64, time=6),
    Message('note_off', channel=0, note=38, velocity=64, time=16),
    Message('note_on', channel=0, note=87, velocity=61, time=2),
    Message('note_off', channel=0, note=87, velocity=64, time=7),
    Message('note_on', channel=0, note=87, velocity=61, time=17),
    Message('note_off', channel=0, note=87, velocity=64, time=7),
    Message('note_on', channel=0, note=87, velocity=60, time=17),
    Message('note_off', channel=0, note=87, velocity=64, time=7),
    Message('note_on', channel=0, note=87, velocity=60, time=17),
    Message('note_off', channel=0, note=87, velocity=64, time=7),
    Message('note_on', channel=0, note=87, velocity=59, time=17),
    Message('note_off', channel=0, note=87, velocity=64, time=8),
    Message('note_on', channel=0, note=87, velocity=59, time=16),
    Message('note_off', channel=0, note=87, velocity=64, time=8),
    Message('note_on', channel=0, note=87, velocity=58, time=16),
    Message('note_off', channel=0, note=87, velocity=64, time=8),
    Message('note_on', channel=0, note=87, velocity=58, time=16),
    Message('note_off', channel=0, note=87, velocity=64, time=7),
    Message('note_on', channel=0, note=87, velocity=57, time=17),
    Message('note_off', channel=0, note=87, velocity=64, time=6),
    Message('note_on', channel=0, note=87, velocity=57, time=18),
    Message('note_off', channel=0, note=87, velocity=64, time=7),
    Message('note_on', channel=0, note=87, velocity=56, time=17),
    Message('note_off', channel=0, note=87, velocity=64, time=8),
    Message('note_on', channel=0, note=87, velocity=56, time=16),
    Message('note_off', channel=0, note=87, velocity=64, time=7),
    Message('note_on', channel=0, note=87, velocity=55, time=17),
    Message('note_off', channel=0, note=87, velocity=64, time=7),
    Message('note_on', channel=0, note=87, velocity=55, time=17),
    Message('note_off', channel=0, note=87, velocity=64, time=6),
    Message('note_on', channel=0, note=87, velocity=54, time=18),
    Message('note_off', channel=0, note=87, velocity=64, time=8),
    Message('note_on', channel=0, note=87, velocity=54, time=16),
    Message('note_off', channel=0, note=87, velocity=64, time=7),
    Message('note_on', channel=0, note=87, velocity=53, time=17),
    Message('note_off', channel=0, note=87, velocity=64, time=8),
    Message('note_on', channel=0, note=87, velocity=53, time=16),
    Message('note_off', channel=0, note=87, velocity=64, time=7),
    Message('note_on', channel=0, note=87, velocity=52, time=17),
    Message('note_off', channel=0, note=87, velocity=64, time=7),
    Message('note_on', channel=0, note=87, velocity=52, time=18),
    Message('note_off', channel=0, note=87, velocity=64, time=6),
    Message('note_on', channel=0, note=87, velocity=51, time=17),
    Message('note_off', channel=0, note=87, velocity=64, time=7),
    Message('note_on', channel=0, note=87, velocity=51, time=17),
    Message('note_off', channel=0, note=87, velocity=64, time=7),
    Message('note_on', channel=0, note=87, velocity=50, time=17),
    Message('note_off', channel=0, note=87, velocity=64, time=8),
    Message('note_on', channel=0, note=87, velocity=50, time=16),
    Message('note_off', channel=0, note=87, velocity=64, time=7),
    Message('note_on', channel=0, note=87, velocity=49, time=17),
    Message('note_off', channel=0, note=87, velocity=64, time=8),
    Message('note_on', channel=0, note=87, velocity=49, time=16),
    Message('note_off', channel=0, note=87, velocity=64, time=7),
    Message('note_on', channel=0, note=87, velocity=49, time=18),
    Message('note_off', channel=0, note=87, velocity=64, time=7),
    Message('note_on', channel=0, note=87, velocity=48, time=16),
    Message('note_off', channel=0, note=87, velocity=64, time=8),
    Message('note_on', channel=0, note=87, velocity=48, time=17),
    Message('note_off', channel=0, note=87, velocity=64, time=7),
    Message('note_on', channel=0, note=87, velocity=47, time=16),
    Message('note_off', channel=0, note=87, velocity=64, time=7),
    Message('note_on', channel=0, note=87, velocity=47, time=17),
    Message('note_off', channel=0, note=87, velocity=64, time=8),
    Message('note_on', channel=0, note=87, velocity=46, time=17),
    Message('note_off', channel=0, note=87, velocity=64, time=6),
    Message('note_on', channel=0, note=87, velocity=46, time=19),
    Message('note_off', channel=0, note=87, velocity=64, time=8),
    Message('note_on', channel=0, note=87, velocity=45, time=15),
    Message('note_off', channel=0, note=87, velocity=64, time=8),
    Message('note_on', channel=0, note=87, velocity=45, time=16),
    Message('note_off', channel=0, note=87, velocity=64, time=9),
    Message('note_on', channel=0, note=87, velocity=45, time=16),
    Message('note_off', channel=0, note=87, velocity=64, time=8),
    Message('note_on', channel=0, note=87, velocity=44, time=16),
    Message('note_off', channel=0, note=87, velocity=64, time=8),
    Message('note_on', channel=0, note=87, velocity=44, time=17),
    Message('note_off', channel=0, note=87, velocity=64, time=8),
    Message('note_on', channel=0, note=87, velocity=44, time=16),
    Message('note_off', channel=0, note=87, velocity=64, time=8),
    Message('note_on', channel=0, note=87, velocity=44, time=16),
    Message('note_off', channel=0, note=87, velocity=64, time=9),
    Message('note_on', channel=0, note=87, velocity=43, time=16),
    Message('note_off', channel=0, note=87, velocity=64, time=9),
    Message('note_on', channel=0, note=87, velocity=43, time=15),
    Message('note_off', channel=0, note=87, velocity=64, time=8),
    Message('note_on', channel=0, note=87, velocity=43, time=17),
    Message('note_off', channel=0, note=87, velocity=64, time=8),
    Message('note_on', channel=0, note=87, velocity=42, time=17),
    Message('note_off', channel=0, note=87, velocity=64, time=8),
    Message('note_on', channel=0, note=87, velocity=42, time=19),
    Message('note_off', channel=0, note=87, velocity=64, time=6),
    Message('note_on', channel=0, note=87, velocity=42, time=17),
    Message('note_off', channel=0, note=87, velocity=64, time=8),
    Message('note_on', channel=0, note=87, velocity=41, time=17),
    Message('note_off', channel=0, note=87, velocity=64, time=8),
    Message('note_on', channel=0, note=87, velocity=41, time=18),
    Message('note_off', channel=0, note=87, velocity=64, time=8),
    Message('note_on', channel=0, note=87, velocity=41, time=16),
    Message('note_off', channel=0, note=87, velocity=64, time=9),
    Message('note_on', channel=0, note=87, velocity=40, time=16),
    Message('note_off', channel=0, note=87, velocity=64, time=10),
    Message('note_on', channel=0, note=87, velocity=40, time=15),
    Message('note_off', channel=0, note=87, velocity=64, time=10),
    Message('note_on', channel=0, note=87, velocity=40, time=14),
    Message('note_off', channel=0, note=87, velocity=64, time=11),
    Message('note_on', channel=0, note=87, velocity=40, time=16),
    Message('note_off', channel=0, note=87, velocity=64, time=8),
    Message('note_on', channel=0, note=87, velocity=39, time=16),
    Message('note_off', channel=0, note=87, velocity=64, time=8),
    Message('note_on', channel=0, note=87, velocity=39, time=16),
    Message('note_off', channel=0, note=87, velocity=64, time=9),
    Message('note_on', channel=0, note=87, velocity=39, time=15),
    Message('note_off', channel=0, note=87, velocity=64, time=9),
    Message('note_on', channel=0, note=87, velocity=38, time=15),
    Message('note_off', channel=0, note=87, velocity=64, time=9),
    Message('note_on', channel=0, note=87, velocity=38, time=16),
    Message('note_off', channel=0, note=87, velocity=64, time=10),
    Message('note_on', channel=0, note=87, velocity=38, time=13),
    Message('note_off', channel=0, note=87, velocity=64, time=11),
    Message('note_on', channel=0, note=87, velocity=38, time=14),
    Message('note_off', channel=0, note=87, velocity=64, time=11),
    Message('note_on', channel=0, note=87, velocity=37, time=13),
    Message('note_off', channel=0, note=87, velocity=64, time=13),
    Message('note_on', channel=0, note=87, velocity=37, time=11),
    Message('note_off', channel=0, note=87, velocity=64, time=14),
    Message('note_on', channel=0, note=87, velocity=37, time=12),
    Message('note_off', channel=0, note=87, velocity=64, time=12),
    Message('note_on', channel=0, note=87, velocity=36, time=15),
    Message('note_off', channel=0, note=87, velocity=64, time=12),
    Message('note_on', channel=0, note=87, velocity=36, time=11),
    Message('note_off', channel=0, note=87, velocity=64, time=12),
    Message('note_on', channel=0, note=87, velocity=36, time=14),
    Message('note_off', channel=0, note=87, velocity=64, time=13),
    Message('note_on', channel=0, note=87, velocity=35, time=13),
    Message('note_off', channel=0, note=87, velocity=64, time=12),
    Message('note_on', channel=0, note=87, velocity=34, time=12),
    Message('note_off', channel=0, note=87, velocity=64, time=13),
    Message('note_on', channel=0, note=87, velocity=33, time=13),
    Message('note_off', channel=0, note=87, velocity=64, time=13),
    Message('note_on', channel=0, note=87, velocity=33, time=13),
    Message('note_off', channel=0, note=87, velocity=64, time=11),
    Message('note_on', channel=0, note=87, velocity=32, time=14),
    Message('note_off', channel=0, note=87, velocity=64, time=12),
    Message('note_on', channel=0, note=87, velocity=32, time=14),
    Message('note_off', channel=0, note=87, velocity=64, time=11),
    Message('note_on', channel=0, note=87, velocity=31, time=15),
    Message('note_off', channel=0, note=87, velocity=64, time=11),
    Message('note_on', channel=0, note=87, velocity=31, time=13),
    Message('note_off', channel=0, note=87, velocity=64, time=13),
    Message('note_on', channel=0, note=87, velocity=31, time=12),
    Message('note_off', channel=0, note=87, velocity=64, time=13),
    Message('note_on', channel=0, note=87, velocity=30, time=13),
    Message('note_off', channel=0, note=87, velocity=64, time=11),
    Message('note_on', channel=0, note=87, velocity=30, time=13),
    Message('note_off', channel=0, note=87, velocity=64, time=12),
    Message('note_on', channel=0, note=87, velocity=29, time=15),
    Message('note_off', channel=0, note=87, velocity=64, time=13),
    Message('note_on', channel=0, note=87, velocity=29, time=12),
    Message('note_off', channel=0, note=87, velocity=64, time=11),
    Message('note_on', channel=0, note=87, velocity=28, time=13),
    Message('note_off', channel=0, note=87, velocity=64, time=14),
    Message('note_on', channel=0, note=87, velocity=27, time=12),
    Message('note_off', channel=0, note=87, velocity=64, time=14),
    Message('note_on', channel=0, note=87, velocity=27, time=12),
    Message('note_off', channel=0, note=87, velocity=64, time=13),
    Message('note_on', channel=0, note=87, velocity=26, time=13),
    Message('note_off', channel=0, note=87, velocity=64, time=13),
    Message('note_on', channel=0, note=87, velocity=26, time=12),
    Message('note_off', channel=0, note=87, velocity=64, time=11),
    Message('note_on', channel=0, note=87, velocity=25, time=13),
    Message('note_off', channel=0, note=87, velocity=64, time=13),
    Message('note_on', channel=0, note=87, velocity=24, time=12),
    Message('note_off', channel=0, note=87, velocity=64, time=13),
    Message('note_on', channel=0, note=87, velocity=23, time=15),
    Message('note_off', channel=0, note=87, velocity=64, time=12),
    Message('note_on', channel=0, note=87, velocity=23, time=12),
    Message('note_off', channel=0, note=87, velocity=64, time=12),
    Message('note_on', channel=0, note=87, velocity=22, time=13),
    Message('note_off', channel=0, note=87, velocity=64, time=13),
    Message('note_on', channel=0, note=87, velocity=21, time=13),
    Message('note_off', channel=0, note=87, velocity=64, time=12),
    Message('note_on', channel=0, note=87, velocity=20, time=14),
    Message('note_off', channel=0, note=87, velocity=64, time=12),
    Message('note_on', channel=0, note=87, velocity=20, time=14),
    Message('note_off', channel=0, note=87, velocity=64, time=12),
    Message('note_on', channel=0, note=87, velocity=19, time=13),
    Message('note_off', channel=0, note=87, velocity=64, time=13),
    Message('note_on', channel=0, note=87, velocity=18, time=13),
    Message('note_off', channel=0, note=87, velocity=64, time=12),
    Message('note_on', channel=0, note=87, velocity=17, time=14),
    Message('note_off', channel=0, note=87, velocity=64, time=14),
    Message('note_on', channel=0, note=87, velocity=16, time=12),
    Message('note_off', channel=0, note=87, velocity=64, time=12),
    Message('note_on', channel=0, note=87, velocity=16, time=12),
    Message('note_off', channel=0, note=87, velocity=64, time=14),
    Message('note_on', channel=0, note=87, velocity=15, time=11),
    Message('note_off', channel=0, note=87, velocity=64, time=15),
    Message('note_on', channel=0, note=87, velocity=15, time=11),
    Message('note_off', channel=0, note=87, velocity=64, time=14),
    Message('note_on', channel=0, note=87, velocity=14, time=13),
    Message('note_off', channel=0, note=87, velocity=64, time=11),
    Message('note_on', channel=0, note=87, velocity=14, time=12),
    Message('note_off', channel=0, note=87, velocity=64, time=14),
    Message('note_on', channel=0, note=87, velocity=13, time=11),
    Message('note_off', channel=0, note=87, velocity=64, time=14),
    Message('note_on', channel=0, note=87, velocity=12, time=11),
    Message('note_off', channel=0, note=87, velocity=64, time=14),
    Message('note_on', channel=0, note=87, velocity=11, time=12),
    Message('note_off', channel=0, note=87, velocity=64, time=12),
    Message('note_on', channel=0, note=87, velocity=11, time=11),
    Message('note_off', channel=0, note=87, velocity=64, time=14),
    Message('note_on', channel=0, note=87, velocity=10, time=12),
    Message('note_off', channel=0, note=87, velocity=64, time=14),
    Message('note_on', channel=0, note=87, velocity=9, time=10),
    Message('note_off', channel=0, note=87, velocity=64, time=14),
    Message('note_on', channel=0, note=87, velocity=8, time=12),
    Message('note_off', channel=0, note=87, velocity=64, time=14),
    Message('note_on', channel=0, note=87, velocity=7, time=10),
    Message('note_off', channel=0, note=87, velocity=64, time=13),
    Message('note_on', channel=0, note=87, velocity=7, time=12),
    Message('note_off', channel=0, note=87, velocity=64, time=15),
    Message('note_on', channel=0, note=87, velocity=7, time=9),
    Message('note_off', channel=0, note=87, velocity=64, time=14),
    Message('note_on', channel=0, note=87, velocity=6, time=12),
    Message('note_off', channel=0, note=87, velocity=64, time=12),
    Message('note_on', channel=0, note=40, velocity=110, time=3417),
    Message('note_off', channel=0, note=40, velocity=64, time=38),
    Message('note_on', channel=0, note=40, velocity=104, time=57),
    Message('note_off', channel=0, note=40, velocity=64, time=61),
    Message('note_on', channel=0, note=40, velocity=100, time=36),
    Message('note_off', channel=0, note=40, velocity=64, time=50),
    Message('note_on', channel=0, note=40, velocity=102, time=46),
    Message('note_off', channel=0, note=40, velocity=64, time=45),
    Message('note_on', channel=0, note=38, velocity=38, time=31),
    Message('note_on', channel=0, note=40, velocity=100, time=20),
    Message('note_off', channel=0, note=38, velocity=64, time=30),
    Message('note_off', channel=0, note=40, velocity=64, time=19),
    Message('note_on', channel=0, note=40, velocity=102, time=46),
    Message('note_off', channel=0, note=40, velocity=64, time=58),
    Message('note_on', channel=0, note=40, velocity=102, time=38),
    Message('note_off', channel=0, note=40, velocity=64, time=52),
    Message('note_on', channel=0, note=40, velocity=104, time=44),
    Message('note_on', channel=0, note=38, velocity=43, time=29),
    Message('note_off', channel=0, note=40, velocity=64, time=19),
    Message('note_off', channel=0, note=38, velocity=64, time=16),
    Message('note_on', channel=0, note=40, velocity=96, time=32),
    Message('note_on', channel=0, note=38, velocity=6, time=48),
    Message('note_off', channel=0, note=40, velocity=64, time=3),
    Message('note_on', channel=0, note=40, velocity=104, time=45),
    Message('note_off', channel=0, note=38, velocity=64, time=17),
    Message('note_off', channel=0, note=40, velocity=64, time=31),
    Message('note_on', channel=0, note=40, velocity=100, time=48),
    Message('note_off', channel=0, note=40, velocity=64, time=47),
    Message('note_on', channel=0, note=38, velocity=36, time=30),
    Message('note_on', channel=0, note=40, velocity=100, time=19),
    Message('note_off', channel=0, note=38, velocity=64, time=37),
    Message('note_off', channel=0, note=40, velocity=64, time=9),
    Message('note_on', channel=0, note=38, velocity=34, time=31),
    Message('note_on', channel=0, note=40, velocity=104, time=19),
    Message('note_off', channel=0, note=38, velocity=64, time=28),
    Message('note_off', channel=0, note=40, velocity=64, time=38),
    Message('note_on', channel=0, note=40, velocity=98, time=30),
    Message('note_off', channel=0, note=40, velocity=64, time=49),
    Message('note_on', channel=0, note=38, velocity=36, time=28),
    Message('note_on', channel=0, note=40, velocity=98, time=19),
    Message('note_off', channel=0, note=38, velocity=64, time=5),
    Message('note_on', channel=0, note=38, velocity=52, time=43),
    Message('note_off', channel=0, note=40, velocity=64, time=1),
    Message('note_on', channel=0, note=40, velocity=107, time=47),
    Message('note_off', channel=0, note=38, velocity=64, time=13),
    Message('note_on', channel=0, note=38, velocity=55, time=16),
    Message('note_off', channel=0, note=40, velocity=64, time=10),
    Message('note_off', channel=0, note=38, velocity=64, time=35),
    Message('note_on', channel=0, note=36, velocity=123, time=1945),
    Message('note_off', channel=0, note=36, velocity=64, time=45),
    Message('note_on', channel=0, note=36, velocity=110, time=146),
    Message('note_off', channel=0, note=36, velocity=64, time=48),
    Message('note_on', channel=0, note=36, velocity=106, time=145),
    Message('note_off', channel=0, note=36, velocity=64, time=52),
    Message('note_on', channel=0, note=36, velocity=114, time=141),
    Message('note_off', channel=0, note=36, velocity=64, time=46),
    Message('note_on', channel=0, note=36, velocity=120, time=145),
    Message('note_off', channel=0, note=36, velocity=64, time=44),
    Message('note_on', channel=0, note=36, velocity=114, time=148),
    Message('note_off', channel=0, note=36, velocity=64, time=47),
    Message('note_on', channel=0, note=36, velocity=108, time=144),
    Message('note_off', channel=0, note=36, velocity=64, time=52),
    Message('note_on', channel=0, note=36, velocity=117, time=141),
    Message('note_off', channel=0, note=36, velocity=64, time=49),
    Message('note_on', channel=0, note=36, velocity=114, time=336),
    Message('note_off', channel=0, note=36, velocity=64, time=48),
    Message('note_on', channel=0, note=36, velocity=120, time=145),
    Message('note_off', channel=0, note=36, velocity=64, time=52),
    Message('note_on', channel=0, note=36, velocity=117, time=138),
    Message('note_off', channel=0, note=36, velocity=64, time=45),
    Message('note_on', channel=0, note=36, velocity=120, time=148),
    Message('note_off', channel=0, note=36, velocity=64, time=44),
    Message('note_on', channel=0, note=36, velocity=117, time=147),
    Message('note_off', channel=0, note=36, velocity=64, time=46),
    Message('note_on', channel=0, note=36, velocity=110, time=145),
    Message('note_off', channel=0, note=36, velocity=64, time=54),
    Message('note_on', channel=0, note=36, velocity=114, time=139),
    Message('note_off', channel=0, note=36, velocity=64, time=47),
    MetaMessage('end_of_track', time=0)]),
  MidiTrack([
    MetaMessage('track_name', name='Jazz Dry/Amb1 Kit SL1,2', time=0),
    MetaMessage('channel_prefix', channel=1, time=0),
    Message('program_change', channel=1, program=126, time=0),
    Message('control_change', channel=1, control=0, value=0, time=0),
    Message('control_change', channel=1, control=32, value=15, time=0),
    Message('control_change', channel=1, control=7, value=127, time=0),
    Message('control_change', channel=1, control=10, value=64, time=0),
    Message('control_change', channel=1, control=91, value=0, time=0),
    Message('control_change', channel=1, control=93, value=0, time=0),
    Message('control_change', channel=1, control=11, value=127, time=619),
    Message('control_change', channel=1, control=11, value=127, time=0),
    Message('note_on', channel=1, note=69, velocity=9, time=313),
    Message('note_off', channel=1, note=69, velocity=64, time=8),
    Message('note_on', channel=1, note=69, velocity=10, time=7),
    Message('note_off', channel=1, note=69, velocity=64, time=9),
    Message('note_on', channel=1, note=69, velocity=10, time=6),
    Message('note_off', channel=1, note=69, velocity=64, time=9),
    Message('note_on', channel=1, note=69, velocity=11, time=9),
    Message('note_off', channel=1, note=69, velocity=64, time=9),
    Message('note_on', channel=1, note=69, velocity=12, time=9),
    Message('note_off', channel=1, note=69, velocity=64, time=9),
    Message('note_on', channel=1, note=69, velocity=12, time=8),
    Message('note_off', channel=1, note=69, velocity=64, time=8),
    Message('note_on', channel=1, note=69, velocity=13, time=9),
    Message('note_off', channel=1, note=69, velocity=64, time=7),
    Message('note_on', channel=1, note=69, velocity=14, time=9),
    Message('note_off', channel=1, note=69, velocity=64, time=8),
    Message('note_on', channel=1, note=69, velocity=14, time=8),
    Message('note_off', channel=1, note=69, velocity=64, time=7),
    Message('note_on', channel=1, note=69, velocity=15, time=8),
    Message('note_off', channel=1, note=69, velocity=64, time=7),
    Message('note_on', channel=1, note=69, velocity=16, time=8),
    Message('note_off', channel=1, note=69, velocity=64, time=5),
    Message('note_on', channel=1, note=69, velocity=16, time=10),
    Message('note_off', channel=1, note=69, velocity=64, time=6),
    Message('note_on', channel=1, note=69, velocity=17, time=9),
    Message('note_off', channel=1, note=69, velocity=64, time=6),
    Message('note_on', channel=1, note=69, velocity=17, time=6),
    Message('note_off', channel=1, note=69, velocity=64, time=9),
    Message('note_on', channel=1, note=69, velocity=18, time=7),
    Message('note_off', channel=1, note=69, velocity=64, time=8),
    Message('note_on', channel=1, note=69, velocity=19, time=6),
    Message('note_off', channel=1, note=69, velocity=64, time=9),
    Message('note_on', channel=1, note=69, velocity=19, time=6),
    Message('note_off', channel=1, note=69, velocity=64, time=10),
    Message('note_on', channel=1, note=69, velocity=20, time=6),
    Message('note_off', channel=1, note=69, velocity=64, time=8),
    Message('note_on', channel=1, note=69, velocity=20, time=6),
    Message('note_off', channel=1, note=69, velocity=64, time=9),
    Message('note_on', channel=1, note=69, velocity=21, time=10),
    Message('note_off', channel=1, note=69, velocity=64, time=9),
    Message('note_on', channel=1, note=69, velocity=22, time=8),
    Message('note_off', channel=1, note=69, velocity=64, time=9),
    Message('note_on', channel=1, note=69, velocity=23, time=8),
    Message('note_off', channel=1, note=69, velocity=64, time=9),
    Message('note_on', channel=1, note=69, velocity=23, time=8),
    Message('note_off', channel=1, note=69, velocity=64, time=9),
    Message('note_on', channel=1, note=69, velocity=24, time=8),
    Message('note_off', channel=1, note=69, velocity=64, time=8),
    Message('note_on', channel=1, note=69, velocity=25, time=7),
    Message('note_off', channel=1, note=69, velocity=64, time=7),
    Message('note_on', channel=1, note=69, velocity=25, time=8),
    Message('note_off', channel=1, note=69, velocity=64, time=7),
    Message('note_on', channel=1, note=69, velocity=26, time=9),
    Message('note_off', channel=1, note=69, velocity=64, time=6),
    Message('note_on', channel=1, note=69, velocity=26, time=8),
    Message('note_off', channel=1, note=69, velocity=64, time=7),
    Message('note_on', channel=1, note=69, velocity=27, time=9),
    Message('note_off', channel=1, note=69, velocity=64, time=6),
    Message('note_on', channel=1, note=69, velocity=28, time=6),
    Message('note_off', channel=1, note=69, velocity=64, time=8),
    Message('note_on', channel=1, note=69, velocity=28, time=7),
    Message('note_off', channel=1, note=69, velocity=64, time=9),
    Message('note_on', channel=1, note=69, velocity=29, time=6),
    Message('note_off', channel=1, note=69, velocity=64, time=9),
    Message('note_on', channel=1, note=69, velocity=30, time=9),
    Message('note_off', channel=1, note=69, velocity=64, time=9),
    Message('note_on', channel=1, note=69, velocity=31, time=9),
    Message('note_off', channel=1, note=69, velocity=64, time=9),
    Message('note_on', channel=1, note=69, velocity=31, time=8),
    Message('note_off', channel=1, note=69, velocity=64, time=8),
    Message('note_on', channel=1, note=69, velocity=32, time=9),
    Message('note_off', channel=1, note=69, velocity=64, time=7),
    Message('note_on', channel=1, note=69, velocity=32, time=10),
    Message('note_off', channel=1, note=69, velocity=64, time=7),
    Message('note_on', channel=1, note=69, velocity=33, time=8),
    Message('note_off', channel=1, note=69, velocity=64, time=8),
    Message('note_on', channel=1, note=69, velocity=33, time=7),
    Message('note_off', channel=1, note=69, velocity=64, time=7),
    Message('note_on', channel=1, note=69, velocity=34, time=8),
    Message('note_off', channel=1, note=69, velocity=64, time=6),
    Message('note_on', channel=1, note=69, velocity=34, time=9),
    Message('note_off', channel=1, note=69, velocity=64, time=6),
    Message('note_on', channel=1, note=69, velocity=35, time=10),
    Message('note_off', channel=1, note=69, velocity=64, time=5),
    Message('note_on', channel=1, note=69, velocity=36, time=10),
    Message('note_off', channel=1, note=69, velocity=64, time=6),
    Message('note_on', channel=1, note=69, velocity=36, time=10),
    Message('note_off', channel=1, note=69, velocity=64, time=7),
    Message('note_on', channel=1, note=69, velocity=37, time=10),
    Message('note_off', channel=1, note=69, velocity=64, time=6),
    Message('note_on', channel=1, note=69, velocity=37, time=10),
    Message('note_off', channel=1, note=69, velocity=64, time=6),
    Message('note_on', channel=1, note=69, velocity=38, time=11),
    Message('note_off', channel=1, note=69, velocity=64, time=5),
    Message('note_on', channel=1, note=69, velocity=39, time=11),
    Message('note_off', channel=1, note=69, velocity=64, time=6),
    Message('note_on', channel=1, note=69, velocity=39, time=10),
    Message('note_off', channel=1, note=69, velocity=64, time=6),
    Message('note_on', channel=1, note=69, velocity=40, time=11),
    Message('note_off', channel=1, note=69, velocity=64, time=5),
    Message('note_on', channel=1, note=69, velocity=40, time=11),
    Message('note_off', channel=1, note=69, velocity=64, time=5),
    Message('note_on', channel=1, note=69, velocity=41, time=10),
    Message('note_off', channel=1, note=69, velocity=64, time=6),
    Message('note_on', channel=1, note=69, velocity=41, time=10),
    Message('note_off', channel=1, note=69, velocity=64, time=6),
    Message('note_on', channel=1, note=69, velocity=42, time=10),
    Message('note_off', channel=1, note=69, velocity=64, time=5),
    Message('note_on', channel=1, note=69, velocity=43, time=13),
    Message('note_off', channel=1, note=69, velocity=64, time=5),
    Message('note_on', channel=1, note=69, velocity=46, time=12),
    Message('note_off', channel=1, note=69, velocity=64, time=4),
    Message('note_on', channel=1, note=69, velocity=50, time=15),
    Message('note_off', channel=1, note=69, velocity=64, time=2),
    Message('note_on', channel=1, note=69, velocity=55, time=12),
    Message('note_off', channel=1, note=69, velocity=64, time=5),
    Message('note_on', channel=1, note=69, velocity=59, time=11),
    Message('note_off', channel=1, note=69, velocity=64, time=4),
    Message('note_on', channel=1, note=69, velocity=62, time=11),
    Message('note_off', channel=1, note=69, velocity=64, time=6),
    Message('note_on', channel=1, note=69, velocity=67, time=10),
    Message('note_off', channel=1, note=69, velocity=64, time=5),
    Message('note_on', channel=1, note=69, velocity=70, time=10),
    Message('note_off', channel=1, note=69, velocity=64, time=5),
    Message('note_on', channel=1, note=44, velocity=114, time=1),
    Message('note_on', channel=1, note=69, velocity=74, time=9),
    Message('note_off', channel=1, note=69, velocity=64, time=4),
    Message('note_on', channel=1, note=69, velocity=78, time=13),
    Message('note_off', channel=1, note=44, velocity=64, time=1),
    Message('note_on', channel=1, note=44, velocity=114, time=0),
    Message('note_off', channel=1, note=69, velocity=64, time=3),
    Message('note_on', channel=1, note=69, velocity=88, time=10),
    Message('note_off', channel=1, note=69, velocity=64, time=5),
    Message('note_on', channel=1, note=36, velocity=110, time=4),
    Message('note_off', channel=1, note=44, velocity=64, time=0),
    Message('note_on', channel=1, note=56, velocity=92, time=24),
    Message('note_off', channel=1, note=36, velocity=64, time=19),
    Message('note_off', channel=1, note=56, velocity=64, time=1),
    Message('note_on', channel=1, note=44, velocity=114, time=5),
    Message('note_on', channel=1, note=56, velocity=96, time=23),
    Message('note_off', channel=1, note=44, velocity=64, time=19),
    Message('note_off', channel=1, note=56, velocity=64, time=26),
    Message('note_on', channel=1, note=54, velocity=119, time=3),
    Message('note_on', channel=1, note=44, velocity=106, time=23),
    Message('note_off', channel=1, note=54, velocity=64, time=21),
    Message('note_on', channel=1, note=56, velocity=99, time=4),
    Message('note_on', channel=1, note=36, velocity=107, time=24),
    Message('note_off', channel=1, note=44, velocity=64, time=0),
    Message('note_off', channel=1, note=56, velocity=64, time=4),
    Message('note_on', channel=1, note=56, velocity=68, time=19),
    Message('note_off', channel=1, note=36, velocity=64, time=22),
    Message('note_off', channel=1, note=56, velocity=64, time=2),
    Message('note_on', channel=1, note=44, velocity=114, time=1),
    Message('note_on', channel=1, note=56, velocity=90, time=24),
    Message('note_off', channel=1, note=44, velocity=64, time=15),
    Message('note_on', channel=1, note=54, velocity=119, time=33),
    Message('note_off', channel=1, note=56, velocity=64, time=2),
    Message('note_on', channel=1, note=44, velocity=106, time=22),
    Message('note_on', channel=1, note=56, velocity=88, time=24),
    Message('note_off', channel=1, note=54, velocity=64, time=8),
    Message('note_on', channel=1, note=36, velocity=100, time=16),
    Message('note_off', channel=1, note=44, velocity=64, time=3),
    Message('note_off', channel=1, note=56, velocity=64, time=0),
    Message('note_on', channel=1, note=56, velocity=64, time=21),
    Message('note_on', channel=1, note=44, velocity=106, time=24),
    Message('note_off', channel=1, note=56, velocity=64, time=0),
    Message('note_off', channel=1, note=36, velocity=64, time=6),
    Message('note_on', channel=1, note=56, velocity=92, time=18),
    Message('note_off', channel=1, note=44, velocity=64, time=21),
    Message('note_on', channel=1, note=54, velocity=127, time=27),
    Message('note_off', channel=1, note=56, velocity=64, time=4),
    Message('note_on', channel=1, note=44, velocity=106, time=20),
    Message('note_on', channel=1, note=56, velocity=92, time=24),
    Message('note_off', channel=1, note=54, velocity=64, time=4),
    Message('note_on', channel=1, note=36, velocity=104, time=20),
    Message('note_off', channel=1, note=44, velocity=64, time=1),
    Message('note_off', channel=1, note=56, velocity=64, time=1),
    Message('note_on', channel=1, note=56, velocity=69, time=22),
    Message('note_off', channel=1, note=36, velocity=64, time=23),
    Message('note_on', channel=1, note=44, velocity=106, time=1),
    Message('note_off', channel=1, note=56, velocity=64, time=23),
    Message('note_on', channel=1, note=54, velocity=107, time=1),
    Message('note_off', channel=1, note=44, velocity=64, time=21),
    Message('note_on', channel=1, note=56, velocity=64, time=3),
    Message('note_off', channel=1, note=54, velocity=64, time=10),
    Message('note_off', channel=1, note=56, velocity=64, time=8),
    Message('note_on', channel=1, note=58, velocity=107, time=6),
    Message('note_on', channel=1, note=44, velocity=106, time=24),
    Message('note_off', channel=1, note=58, velocity=64, time=7),
    Message('note_on', channel=1, note=56, velocity=107, time=17),
    Message('note_off', channel=1, note=44, velocity=64, time=23),
    Message('note_off', channel=1, note=56, velocity=64, time=1),
    Message('note_on', channel=1, note=56, velocity=87, time=0),
    Message('note_off', channel=1, note=56, velocity=64, time=16),
    Message('note_on', channel=1, note=54, velocity=88, time=8),
    Message('note_off', channel=1, note=54, velocity=64, time=18),
    Message('note_on', channel=1, note=56, velocity=87, time=6),
    Message('note_off', channel=1, note=56, velocity=64, time=20),
    Message('note_on', channel=1, note=54, velocity=121, time=3),
    Message('note_off', channel=1, note=54, velocity=64, time=22),
    Message('note_on', channel=1, note=56, velocity=87, time=3),
    Message('note_off', channel=1, note=56, velocity=64, time=19),
    Message('note_on', channel=1, note=54, velocity=79, time=5),
    Message('note_off', channel=1, note=54, velocity=64, time=16),
    Message('note_on', channel=1, note=56, velocity=87, time=8),
    Message('note_off', channel=1, note=56, velocity=64, time=19),
    Message('note_on', channel=1, note=58, velocity=100, time=5),
    Message('note_off', channel=1, note=58, velocity=64, time=18),
    Message('note_on', channel=1, note=56, velocity=87, time=6),
    Message('note_off', channel=1, note=56, velocity=64, time=17),
    Message('note_on', channel=1, note=54, velocity=117, time=7),
    Message('note_off', channel=1, note=54, velocity=64, time=20),
    Message('note_on', channel=1, note=56, velocity=87, time=4),
    Message('note_off', channel=1, note=56, velocity=64, time=18),
    Message('note_on', channel=1, note=54, velocity=68, time=6),
    Message('note_off', channel=1, note=54, velocity=64, time=19),
    Message('note_on', channel=1, note=56, velocity=82, time=5),
    Message('note_off', channel=1, note=56, velocity=64, time=17),
    Message('note_on', channel=1, note=54, velocity=41, time=7),
    Message('note_off', channel=1, note=54, velocity=64, time=12),
    Message('note_on', channel=1, note=56, velocity=82, time=12),
    Message('note_off', channel=1, note=56, velocity=64, time=17),
    Message('note_on', channel=1, note=54, velocity=88, time=7),
    Message('note_off', channel=1, note=54, velocity=64, time=20),
    Message('note_on', channel=1, note=56, velocity=87, time=4),
    Message('note_off', channel=1, note=56, velocity=64, time=17),
    Message('note_on', channel=1, note=54, velocity=55, time=7),
    Message('note_off', channel=1, note=54, velocity=64, time=15),
    Message('note_on', channel=1, note=56, velocity=82, time=9),
    Message('note_off', channel=1, note=56, velocity=64, time=18),
    Message('note_on', channel=1, note=54, velocity=71, time=6),
    Message('note_off', channel=1, note=54, velocity=64, time=13),
    Message('note_on', channel=1, note=56, velocity=87, time=11),
    Message('note_off', channel=1, note=56, velocity=64, time=17),
    Message('note_on', channel=1, note=54, velocity=62, time=6),
    Message('note_off', channel=1, note=54, velocity=64, time=13),
    Message('note_on', channel=1, note=56, velocity=87, time=12),
    Message('note_off', channel=1, note=56, velocity=64, time=18),
    Message('note_on', channel=1, note=54, velocity=102, time=6),
    Message('note_off', channel=1, note=54, velocity=64, time=16),
    Message('note_on', channel=1, note=56, velocity=87, time=8),
    Message('note_off', channel=1, note=56, velocity=64, time=17),
    Message('note_on', channel=1, note=54, velocity=107, time=7),
    Message('note_off', channel=1, note=54, velocity=64, time=19),
    Message('note_on', channel=1, note=56, velocity=82, time=5),
    Message('note_off', channel=1, note=56, velocity=64, time=18),
    Message('note_on', channel=1, note=54, velocity=73, time=6),
    Message('note_off', channel=1, note=54, velocity=64, time=18),
    Message('note_on', channel=1, note=56, velocity=87, time=6),
    Message('note_off', channel=1, note=56, velocity=64, time=17),
    Message('note_on', channel=1, note=58, velocity=107, time=7),
    Message('note_on', channel=1, note=56, velocity=82, time=24),
    Message('note_off', channel=1, note=58, velocity=64, time=0),
    Message('note_off', channel=1, note=56, velocity=64, time=18),
    Message('note_on', channel=1, note=54, velocity=99, time=6),
    Message('note_off', channel=1, note=54, velocity=64, time=23),
    Message('note_on', channel=1, note=56, velocity=82, time=1),
    Message('note_off', channel=1, note=56, velocity=64, time=16),
    Message('note_on', channel=1, note=54, velocity=45, time=8),
    Message('note_off', channel=1, note=54, velocity=64, time=9),
    Message('note_on', channel=1, note=56, velocity=78, time=15),
    Message('note_off', channel=1, note=56, velocity=64, time=18),
    Message('note_on', channel=1, note=54, velocity=88, time=6),
    Message('note_off', channel=1, note=54, velocity=64, time=18),
    Message('note_on', channel=1, note=56, velocity=82, time=6),
    Message('note_off', channel=1, note=56, velocity=64, time=18),
    Message('note_on', channel=1, note=54, velocity=96, time=5),
    Message('note_off', channel=1, note=54, velocity=64, time=19),
    Message('note_on', channel=1, note=56, velocity=82, time=6),
    Message('note_off', channel=1, note=56, velocity=64, time=18),
    Message('note_on', channel=1, note=54, velocity=99, time=6),
    Message('note_off', channel=1, note=54, velocity=64, time=19),
    Message('note_on', channel=1, note=56, velocity=82, time=5),
    Message('note_off', channel=1, note=56, velocity=64, time=19),
    Message('note_on', channel=1, note=54, velocity=102, time=6),
    Message('note_off', channel=1, note=54, velocity=64, time=19),
    Message('note_on', channel=1, note=56, velocity=78, time=4),
    Message('note_off', channel=1, note=56, velocity=64, time=19),
    Message('note_on', channel=1, note=54, velocity=44, time=6),
    Message('note_off', channel=1, note=54, velocity=64, time=11),
    Message('note_on', channel=1, note=56, velocity=82, time=12),
    Message('note_off', channel=1, note=56, velocity=64, time=18),
    Message('note_on', channel=1, note=54, velocity=99, time=6),
    Message('note_off', channel=1, note=54, velocity=64, time=19),
    Message('note_on', channel=1, note=56, velocity=82, time=5),
    Message('note_off', channel=1, note=56, velocity=64, time=17),
    Message('note_on', channel=1, note=54, velocity=71, time=7),
    Message('note_off', channel=1, note=54, velocity=64, time=17),
    Message('note_on', channel=1, note=56, velocity=82, time=8),
    Message('note_off', channel=1, note=56, velocity=64, time=16),
    Message('note_on', channel=1, note=54, velocity=66, time=7),
    Message('note_off', channel=1, note=54, velocity=64, time=13),
    Message('note_on', channel=1, note=56, velocity=82, time=13),
    Message('note_off', channel=1, note=56, velocity=64, time=15),
    Message('note_on', channel=1, note=54, velocity=96, time=7),
    Message('note_off', channel=1, note=54, velocity=64, time=18),
    Message('note_on', channel=1, note=56, velocity=78, time=7),
    Message('note_off', channel=1, note=56, velocity=64, time=16),
    Message('note_on', channel=1, note=54, velocity=73, time=8),
    Message('note_off', channel=1, note=54, velocity=64, time=13),
    Message('note_on', channel=1, note=56, velocity=82, time=10),
    Message('note_off', channel=1, note=56, velocity=64, time=16),
    Message('note_on', channel=1, note=54, velocity=107, time=8),
    Message('note_off', channel=1, note=54, velocity=64, time=17),
    Message('note_on', channel=1, note=56, velocity=82, time=6),
    Message('note_off', channel=1, note=56, velocity=64, time=18),
    Message('note_on', channel=1, note=58, velocity=113, time=6),
    Message('note_off', channel=1, note=58, velocity=64, time=22),
    Message('note_on', channel=1, note=56, velocity=98, time=3),
    Message('note_off', channel=1, note=56, velocity=64, time=16),
    Message('note_on', channel=1, note=54, velocity=58, time=9),
    Message('note_off', channel=1, note=54, velocity=64, time=14),
    Message('note_on', channel=1, note=56, velocity=82, time=9),
    Message('note_off', channel=1, note=56, velocity=64, time=16),
    Message('note_on', channel=1, note=54, velocity=81, time=8),
    Message('note_off', channel=1, note=54, velocity=64, time=19),
    Message('note_on', channel=1, note=56, velocity=82, time=5),
    Message('note_off', channel=1, note=56, velocity=64, time=16),
    Message('note_on', channel=1, note=58, velocity=113, time=7),
    Message('note_off', channel=1, note=58, velocity=64, time=21),
    Message('note_on', channel=1, note=56, velocity=87, time=4),
    Message('note_off', channel=1, note=56, velocity=64, time=16),
    Message('note_on', channel=1, note=54, velocity=102, time=8),
    Message('note_on', channel=1, note=56, velocity=87, time=24),
    Message('note_off', channel=1, note=54, velocity=64, time=0),
    Message('note_off', channel=1, note=56, velocity=64, time=20),
    Message('note_on', channel=1, note=46, velocity=122, time=4),
    Message('note_on', channel=1, note=69, velocity=89, time=0),
    Message('note_on', channel=1, note=61, velocity=89, time=0),
    Message('note_off', channel=1, note=46, velocity=64, time=15),
    Message('note_off', channel=1, note=69, velocity=64, time=0),
    Message('note_off', channel=1, note=61, velocity=64, time=1),
    Message('note_on', channel=1, note=56, velocity=87, time=8),
    Message('note_off', channel=1, note=56, velocity=64, time=19),
    Message('note_on', channel=1, note=54, velocity=107, time=5),
    Message('note_off', channel=1, note=54, velocity=64, time=19),
    Message('note_on', channel=1, note=56, velocity=87, time=5),
    Message('note_off', channel=1, note=56, velocity=64, time=20),
    Message('note_on', channel=1, note=54, velocity=119, time=4),
    Message('note_off', channel=1, note=54, velocity=64, time=18),
    Message('note_on', channel=1, note=56, velocity=87, time=6),
    Message('note_off', channel=1, note=56, velocity=64, time=17),
    Message('note_on', channel=1, note=54, velocity=119, time=7),
    Message('note_off', channel=1, note=54, velocity=64, time=21),
    Message('note_on', channel=1, note=56, velocity=87, time=3),
    Message('note_off', channel=1, note=56, velocity=64, time=18),
    Message('note_on', channel=1, note=54, velocity=62, time=6),
    Message('note_off', channel=1, note=54, velocity=64, time=19),
    Message('note_on', channel=1, note=56, velocity=82, time=5),
    Message('note_off', channel=1, note=56, velocity=64, time=17),
    Message('note_on', channel=1, note=54, velocity=71, time=7),
    Message('note_off', channel=1, note=54, velocity=64, time=16),
    Message('note_on', channel=1, note=56, velocity=82, time=8),
    Message('note_off', channel=1, note=56, velocity=64, time=17),
    Message('note_on', channel=1, note=54, velocity=102, time=6),
    Message('note_off', channel=1, note=54, velocity=64, time=22),
    Message('note_on', channel=1, note=56, velocity=87, time=3),
    Message('note_off', channel=1, note=56, velocity=64, time=17),
    Message('note_on', channel=1, note=54, velocity=75, time=7),
    Message('note_off', channel=1, note=54, velocity=64, time=18),
    Message('note_on', channel=1, note=56, velocity=82, time=6),
    Message('note_off', channel=1, note=56, velocity=64, time=18),
    Message('note_on', channel=1, note=54, velocity=73, time=6),
    Message('note_off', channel=1, note=54, velocity=64, time=16),
    Message('note_on', channel=1, note=56, velocity=87, time=8),
    Message('note_off', channel=1, note=56, velocity=64, time=17),
    Message('note_on', channel=1, note=54, velocity=119, time=7),
    Message('note_off', channel=1, note=54, velocity=64, time=18),
    Message('note_on', channel=1, note=56, velocity=87, time=6),
    Message('note_off', channel=1, note=56, velocity=64, time=18),
    Message('note_on', channel=1, note=54, velocity=127, time=5),
    Message('note_off', channel=1, note=54, velocity=64, time=22),
    Message('note_on', channel=1, note=56, velocity=87, time=3),
    Message('note_off', channel=1, note=56, velocity=64, time=17),
    Message('note_on', channel=1, note=54, velocity=119, time=6),
    Message('note_off', channel=1, note=54, velocity=64, time=24),
    Message('note_on', channel=1, note=58, velocity=113, time=1),
    Message('note_off', channel=1, note=58, velocity=64, time=18),
    Message('note_on', channel=1, note=54, velocity=73, time=5),
    Message('note_off', channel=1, note=54, velocity=64, time=20),
    Message('note_on', channel=1, note=56, velocity=87, time=4),
    Message('note_off', channel=1, note=56, velocity=64, time=18),
    Message('note_on', channel=1, note=58, velocity=120, time=7),
    Message('note_off', channel=1, note=58, velocity=64, time=21),
    Message('note_on', channel=1, note=56, velocity=82, time=3),
    Message('note_off', channel=1, note=56, velocity=64, time=19),
    Message('note_on', channel=1, note=54, velocity=99, time=5),
    Message('note_off', channel=1, note=54, velocity=64, time=22),
    Message('note_on', channel=1, note=56, velocity=82, time=2),
    Message('note_off', channel=1, note=56, velocity=64, time=16),
    Message('note_on', channel=1, note=54, velocity=66, time=8),
    Message('note_off', channel=1, note=54, velocity=64, time=18),
    Message('note_on', channel=1, note=56, velocity=78, time=6),
    Message('note_off', channel=1, note=56, velocity=64, time=18),
    Message('note_on', channel=1, note=54, velocity=90, time=6),
    Message('note_off', channel=1, note=54, velocity=64, time=17),
    Message('note_on', channel=1, note=56, velocity=82, time=7),
    Message('note_off', channel=1, note=56, velocity=64, time=18),
    Message('note_on', channel=1, note=54, velocity=107, time=6),
    Message('note_off', channel=1, note=54, velocity=64, time=19),
    Message('note_on', channel=1, note=56, velocity=82, time=5),
    Message('note_off', channel=1, note=56, velocity=64, time=18),
    Message('note_on', channel=1, note=54, velocity=119, time=6),
    Message('note_off', channel=1, note=54, velocity=64, time=19),
    Message('note_on', channel=1, note=56, velocity=82, time=5),
    Message('note_off', channel=1, note=56, velocity=64, time=18),
    Message('note_on', channel=1, note=54, velocity=113, time=6),
    Message('note_off', channel=1, note=54, velocity=64, time=23),
    Message('note_on', channel=1, note=56, velocity=78, time=1),
    Message('note_off', channel=1, note=56, velocity=64, time=17),
    Message('note_on', channel=1, note=54, velocity=88, time=7),
    Message('note_off', channel=1, note=54, velocity=64, time=19),
    Message('note_on', channel=1, note=56, velocity=82, time=5),
    Message('note_off', channel=1, note=56, velocity=64, time=18),
    Message('note_on', channel=1, note=54, velocity=88, time=6),
    Message('note_off', channel=1, note=54, velocity=64, time=17),
    Message('note_on', channel=1, note=56, velocity=82, time=7),
    Message('note_off', channel=1, note=56, velocity=64, time=17),
    Message('note_on', channel=1, note=54, velocity=99, time=7),
    Message('note_off', channel=1, note=54, velocity=64, time=22),
    Message('note_on', channel=1, note=56, velocity=82, time=2),
    Message('note_off', channel=1, note=56, velocity=64, time=17),
    Message('note_on', channel=1, note=54, velocity=71, time=7),
    Message('note_off', channel=1, note=54, velocity=64, time=18),
    Message('note_on', channel=1, note=56, velocity=82, time=6),
    Message('note_off', channel=1, note=56, velocity=64, time=17),
    Message('note_on', channel=1, note=54, velocity=102, time=7),
    Message('note_off', channel=1, note=54, velocity=64, time=24),
    Message('note_on', channel=1, note=56, velocity=78, time=1),
    Message('note_off', channel=1, note=56, velocity=64, time=16),
    Message('note_on', channel=1, note=54, velocity=102, time=7),
    Message('note_off', channel=1, note=54, velocity=64, time=19),
    Message('note_on', channel=1, note=56, velocity=82, time=5),
    Message('note_off', channel=1, note=56, velocity=64, time=16),
    Message('note_on', channel=1, note=54, velocity=82, time=8),
    Message('note_off', channel=1, note=54, velocity=64, time=16),
    Message('note_on', channel=1, note=56, velocity=82, time=8),
    Message('note_off', channel=1, note=56, velocity=64, time=16),
    Message('note_on', channel=1, note=58, velocity=86, time=8),
    Message('note_off', channel=1, note=58, velocity=64, time=7),
    Message('note_on', channel=1, note=56, velocity=108, time=17),
    Message('note_off', channel=1, note=56, velocity=64, time=8),
    Message('note_on', channel=1, note=58, velocity=111, time=16),
    Message('note_off', channel=1, note=58, velocity=64, time=23),
    Message('note_on', channel=1, note=58, velocity=109, time=73),
    Message('note_off', channel=1, note=58, velocity=64, time=16),
    Message('note_on', channel=1, note=48, velocity=119, time=9),
    Message('note_on', channel=1, note=61, velocity=88, time=0),
    Message('note_off', channel=1, note=61, velocity=64, time=9),
    Message('note_on', channel=1, note=56, velocity=82, time=14),
    Message('note_off', channel=1, note=56, velocity=64, time=16),
    Message('note_off', channel=1, note=48, velocity=64, time=6),
    Message('note_on', channel=1, note=52, velocity=127, time=3),
    Message('note_on', channel=1, note=69, velocity=113, time=1),
    Message('note_off', channel=1, note=69, velocity=64, time=12),
    Message('note_on', channel=1, note=60, velocity=127, time=36),
    Message('note_off', channel=1, note=52, velocity=64, time=14),
    Message('note_off', channel=1, note=60, velocity=64, time=5),
    Message('note_on', channel=1, note=59, velocity=92, time=2),
    Message('note_off', channel=1, note=59, velocity=64, time=21),
    Message('note_on', channel=1, note=57, velocity=85, time=4),
    Message('note_off', channel=1, note=57, velocity=64, time=22),
    Message('note_on', channel=1, note=61, velocity=113, time=3),
    Message('note_on', channel=1, note=48, velocity=124, time=0),
    Message('note_off', channel=1, note=48, velocity=64, time=20),
    Message('note_off', channel=1, note=61, velocity=64, time=0),
    Message('note_on', channel=1, note=50, velocity=92, time=3),
    Message('note_off', channel=1, note=50, velocity=64, time=21),
    Message('note_on', channel=1, note=48, velocity=124, time=4),
    Message('note_off', channel=1, note=48, velocity=64, time=20),
    Message('note_on', channel=1, note=50, velocity=127, time=2),
    Message('note_on', channel=1, note=60, velocity=127, time=49),
    Message('note_off', channel=1, note=50, velocity=64, time=8),
    Message('note_off', channel=1, note=60, velocity=64, time=27),
    Message('note_on', channel=1, note=48, velocity=115, time=0),
    Message('note_on', channel=1, note=59, velocity=113, time=37),
    Message('note_on', channel=1, note=57, velocity=127, time=5),
    Message('note_off', channel=1, note=48, velocity=64, time=3),
    Message('note_off', channel=1, note=59, velocity=64, time=4),
    Message('note_off', channel=1, note=57, velocity=64, time=15),
    Message('note_on', channel=1, note=48, velocity=104, time=10),
    Message('note_on', channel=1, note=52, velocity=127, time=35),
    Message('note_on', channel=1, note=69, velocity=119, time=0),
    Message('note_off', channel=1, note=48, velocity=64, time=2),
    Message('note_on', channel=1, note=58, velocity=59, time=46),
    Message('note_off', channel=1, note=58, velocity=64, time=12),
    Message('note_on', channel=1, note=58, velocity=67, time=36),
    Message('note_off', channel=1, note=69, velocity=64, time=4),
    Message('note_off', channel=1, note=58, velocity=64, time=7),
    Message('note_on', channel=1, note=58, velocity=75, time=41),
    Message('note_off', channel=1, note=58, velocity=64, time=4),
    Message('note_off', channel=1, note=52, velocity=64, time=29),
    Message('note_on', channel=1, note=58, velocity=83, time=11),
    Message('note_off', channel=1, note=58, velocity=64, time=15),
    Message('note_on', channel=1, note=58, velocity=99, time=34),
    Message('note_off', channel=1, note=58, velocity=64, time=12),
    Message('note_on', channel=1, note=58, velocity=107, time=36),
    Message('note_off', channel=1, note=58, velocity=64, time=15),
    Message('note_on', channel=1, note=56, velocity=88, time=32),
    Message('note_off', channel=1, note=56, velocity=64, time=18),
    Message('control_change', channel=1, control=11, value=127, time=28),
    Message('control_change', channel=1, control=11, value=93, time=0),
    Message('note_on', channel=1, note=56, velocity=88, time=2),
    Message('note_on', channel=1, note=74, velocity=126, time=0),
    Message('note_on', channel=1, note=90, velocity=103, time=4),
    Message('note_off', channel=1, note=56, velocity=64, time=14),
    Message('note_off', channel=1, note=90, velocity=64, time=5),
    Message('note_off', channel=1, note=74, velocity=64, time=17),
    Message('note_on', channel=1, note=56, velocity=87, time=8),
    Message('note_on', channel=1, note=91, velocity=71, time=5),
    Message('note_off', channel=1, note=91, velocity=64, time=11),
    Message('note_off', channel=1, note=56, velocity=64, time=2),
    Message('note_on', channel=1, note=91, velocity=92, time=16),
    Message('note_on', channel=1, note=56, velocity=87, time=14),
    Message('note_off', channel=1, note=56, velocity=64, time=0),
    Message('note_on', channel=1, note=56, velocity=87, time=0),
    Message('note_off', channel=1, note=91, velocity=64, time=5),
    Message('note_on', channel=1, note=75, velocity=101, time=1),
    Message('note_off', channel=1, note=56, velocity=64, time=12),
    Message('note_off', channel=1, note=75, velocity=64, time=2),
    Message('note_on', channel=1, note=91, velocity=102, time=13),
    Message('note_on', channel=1, note=75, velocity=108, time=7),
    Message('note_on', channel=1, note=56, velocity=86, time=8),
    Message('note_off', channel=1, note=91, velocity=64, time=5),
    Message('note_off', channel=1, note=75, velocity=64, time=5),
    Message('note_off', channel=1, note=56, velocity=64, time=9),
    Message('note_on', channel=1, note=90, velocity=102, time=15),
    Message('note_on', channel=1, note=56, velocity=86, time=14),
    Message('note_on', channel=1, note=74, velocity=123, time=0),
    Message('note_off', channel=1, note=90, velocity=64, time=4),
    Message('note_off', channel=1, note=56, velocity=64, time=15),
    Message('note_off', channel=1, note=74, velocity=64, time=1),
    Message('note_on', channel=1, note=56, velocity=85, time=27),
    Message('note_off', channel=1, note=56, velocity=64, time=20),
    Message('note_on', channel=1, note=91, velocity=85, time=15),
    Message('note_on', channel=1, note=56, velocity=84, time=14),
    Message('note_off', channel=1, note=91, velocity=64, time=3),
    Message('note_on', channel=1, note=76, velocity=98, time=1),
    Message('note_off', channel=1, note=76, velocity=64, time=14),
    Message('note_off', channel=1, note=56, velocity=64, time=2),
    Message('note_on', channel=1, note=91, velocity=104, time=15),
    Message('note_on', channel=1, note=76, velocity=109, time=1),
    Message('note_on', channel=1, note=56, velocity=84, time=12),
    Message('note_off', channel=1, note=91, velocity=64, time=2),
    Message('note_off', channel=1, note=76, velocity=64, time=3),
    Message('note_off', channel=1, note=56, velocity=64, time=16),
    Message('note_on', channel=1, note=90, velocity=119, time=14),
    Message('note_on', channel=1, note=56, velocity=83, time=13),
    Message('note_on', channel=1, note=74, velocity=127, time=0),
    Message('note_off', channel=1, note=90, velocity=64, time=6),
    Message('note_off', channel=1, note=56, velocity=64, time=15),
    Message('note_off', channel=1, note=74, velocity=64, time=1),
    Message('note_on', channel=1, note=90, velocity=85, time=13),
    Message('note_off', channel=1, note=90, velocity=64, time=3),
    Message('note_on', channel=1, note=56, velocity=83, time=9),
    Message('note_off', channel=1, note=56, velocity=64, time=21),
    Message('note_on', channel=1, note=91, velocity=100, time=15),
    Message('note_on', channel=1, note=56, velocity=82, time=13),
    Message('note_off', channel=1, note=91, velocity=64, time=0),
    Message('note_on', channel=1, note=75, velocity=101, time=7),
    Message('note_off', channel=1, note=56, velocity=64, time=13),
    Message('note_off', channel=1, note=75, velocity=64, time=1),
    Message('note_on', channel=1, note=75, velocity=118, time=20),
    Message('note_on', channel=1, note=56, velocity=85, time=7),
    Message('note_off', channel=1, note=75, velocity=64, time=7),
    Message('note_off', channel=1, note=56, velocity=64, time=12),
    Message('control_change', channel=1, control=11, value=93, time=24),
    Message('control_change', channel=1, control=11, value=127, time=0),
    Message('note_on', channel=1, note=56, velocity=92, time=5),
    Message('note_off', channel=1, note=56, velocity=64, time=23),
    Message('note_on', channel=1, note=56, velocity=88, time=25),
    Message('note_off', channel=1, note=56, velocity=64, time=24),
    Message('note_on', channel=1, note=58, velocity=90, time=0),
    Message('note_off', channel=1, note=58, velocity=64, time=24),
    Message('note_on', channel=1, note=58, velocity=96, time=25),
    Message('note_off', channel=1, note=58, velocity=64, time=19),
    Message('note_on', channel=1, note=56, velocity=87, time=28),
    Message('note_off', channel=1, note=56, velocity=64, time=17),
    Message('note_on', channel=1, note=56, velocity=87, time=7),
    Message('note_off', channel=1, note=56, velocity=64, time=16),
    Message('note_on', channel=1, note=54, velocity=88, time=8),
    Message('note_off', channel=1, note=54, velocity=64, time=18),
    Message('note_on', channel=1, note=56, velocity=87, time=6),
    Message('note_off', channel=1, note=56, velocity=64, time=20),
    Message('note_on', channel=1, note=54, velocity=79, time=4),
    Message('note_off', channel=1, note=54, velocity=64, time=21),
    Message('note_on', channel=1, note=56, velocity=87, time=4),
    Message('note_off', channel=1, note=56, velocity=64, time=18),
    Message('note_on', channel=1, note=54, velocity=79, time=5),
    Message('note_off', channel=1, note=54, velocity=64, time=17),
    Message('note_on', channel=1, note=56, velocity=87, time=7),
    Message('note_off', channel=1, note=56, velocity=64, time=20),
    Message('note_on', channel=1, note=54, velocity=102, time=4),
    Message('note_off', channel=1, note=54, velocity=64, time=19),
    Message('note_on', channel=1, note=56, velocity=87, time=5),
    Message('note_off', channel=1, note=56, velocity=64, time=18),
    Message('note_on', channel=1, note=54, velocity=99, time=6),
    Message('note_off', channel=1, note=54, velocity=64, time=20),
    Message('note_on', channel=1, note=56, velocity=87, time=5),
    Message('note_off', channel=1, note=56, velocity=64, time=17),
    Message('note_on', channel=1, note=54, velocity=68, time=7),
    Message('note_off', channel=1, note=54, velocity=64, time=17),
    Message('note_on', channel=1, note=56, velocity=82, time=6),
    Message('note_off', channel=1, note=56, velocity=64, time=18),
    Message('note_on', channel=1, note=54, velocity=41, time=8),
    Message('note_off', channel=1, note=54, velocity=64, time=10),
    Message('note_on', channel=1, note=56, velocity=82, time=12),
    Message('note_off', channel=1, note=56, velocity=64, time=18),
    Message('note_on', channel=1, note=54, velocity=88, time=7),
    Message('note_off', channel=1, note=54, velocity=64, time=19),
    Message('note_on', channel=1, note=56, velocity=87, time=5),
    Message('note_off', channel=1, note=56, velocity=64, time=16),
    Message('note_on', channel=1, note=54, velocity=55, time=7),
    Message('note_off', channel=1, note=54, velocity=64, time=15),
    Message('note_on', channel=1, note=56, velocity=82, time=11),
    Message('note_off', channel=1, note=56, velocity=64, time=16),
    Message('note_on', channel=1, note=54, velocity=71, time=6),
    Message('note_off', channel=1, note=54, velocity=64, time=13),
    Message('note_on', channel=1, note=56, velocity=87, time=11),
    Message('note_off', channel=1, note=56, velocity=64, time=17),
    Message('note_on', channel=1, note=54, velocity=62, time=7),
    Message('note_off', channel=1, note=54, velocity=64, time=12),
    Message('note_on', channel=1, note=56, velocity=87, time=12),
    Message('note_off', channel=1, note=56, velocity=64, time=20),
    Message('note_on', channel=1, note=54, velocity=102, time=5),
    Message('note_off', channel=1, note=54, velocity=64, time=15),
    Message('note_on', channel=1, note=56, velocity=87, time=8),
    Message('note_off', channel=1, note=56, velocity=64, time=17),
    Message('note_on', channel=1, note=54, velocity=107, time=6),
    Message('note_off', channel=1, note=54, velocity=64, time=21),
    Message('note_on', channel=1, note=56, velocity=82, time=4),
    Message('note_off', channel=1, note=56, velocity=64, time=18),
    Message('note_on', channel=1, note=54, velocity=73, time=6),
    Message('note_off', channel=1, note=54, velocity=64, time=18),
    Message('note_on', channel=1, note=56, velocity=87, time=6),
    Message('note_off', channel=1, note=56, velocity=64, time=18),
    Message('note_on', channel=1, note=58, velocity=107, time=6),
    Message('note_on', channel=1, note=56, velocity=82, time=24),
    Message('note_off', channel=1, note=58, velocity=64, time=1),
    Message('note_off', channel=1, note=56, velocity=64, time=18),
    Message('note_on', channel=1, note=54, velocity=99, time=5),
    Message('note_off', channel=1, note=54, velocity=64, time=22),
    Message('note_on', channel=1, note=56, velocity=82, time=2),
    Message('note_off', channel=1, note=56, velocity=64, time=16),
    Message('note_on', channel=1, note=54, velocity=82, time=8),
    Message('note_off', channel=1, note=54, velocity=64, time=9),
    Message('note_on', channel=1, note=56, velocity=78, time=15),
    Message('note_off', channel=1, note=56, velocity=64, time=18),
    Message('note_on', channel=1, note=54, velocity=88, time=6),
    Message('note_off', channel=1, note=54, velocity=64, time=18),
    Message('note_on', channel=1, note=56, velocity=82, time=6),
    Message('note_off', channel=1, note=56, velocity=64, time=18),
    Message('note_on', channel=1, note=54, velocity=96, time=5),
    Message('note_off', channel=1, note=54, velocity=64, time=19),
    Message('note_on', channel=1, note=56, velocity=82, time=6),
    Message('note_off', channel=1, note=56, velocity=64, time=18),
    Message('note_on', channel=1, note=54, velocity=99, time=6),
    Message('note_off', channel=1, note=54, velocity=64, time=18),
    Message('note_on', channel=1, note=56, velocity=82, time=6),
    Message('note_off', channel=1, note=56, velocity=64, time=16),
    Message('note_on', channel=1, note=54, velocity=102, time=8),
    Message('note_off', channel=1, note=54, velocity=64, time=21),
    Message('note_on', channel=1, note=56, velocity=78, time=3),
    Message('note_off', channel=1, note=56, velocity=64, time=17),
    Message('note_on', channel=1, note=54, velocity=44, time=7),
    Message('note_off', channel=1, note=54, velocity=64, time=11),
    Message('note_on', channel=1, note=56, velocity=82, time=13),
    Message('note_off', channel=1, note=56, velocity=64, time=18),
    Message('note_on', channel=1, note=61, velocity=87, time=6),
    Message('note_on', channel=1, note=48, velocity=82, time=0),
    Message('note_off', channel=1, note=61, velocity=64, time=17),
    Message('note_off', channel=1, note=48, velocity=64, time=0),
    Message('note_on', channel=1, note=56, velocity=82, time=7),
    Message('note_off', channel=1, note=56, velocity=64, time=17),
    Message('note_on', channel=1, note=60, velocity=121, time=6),
    Message('note_off', channel=1, note=60, velocity=64, time=19),
    Message('note_on', channel=1, note=56, velocity=82, time=6),
    Message('note_off', channel=1, note=56, velocity=64, time=17),
    Message('note_on', channel=1, note=59, velocity=119, time=7),
    Message('note_off', channel=1, note=59, velocity=64, time=14),
    Message('note_on', channel=1, note=56, velocity=82, time=10),
    Message('note_off', channel=1, note=56, velocity=64, time=17),
    Message('note_on', channel=1, note=69, velocity=96, time=7),
    Message('note_on', channel=1, note=47, velocity=96, time=0),
    Message('note_off', channel=1, note=69, velocity=64, time=18),
    Message('note_off', channel=1, note=47, velocity=64, time=0),
    Message('note_on', channel=1, note=58, velocity=123, time=6),
    Message('note_off', channel=1, note=58, velocity=64, time=25),
    Message('note_on', channel=1, note=58, velocity=101, time=52),
    Message('note_off', channel=1, note=58, velocity=64, time=6),
    Message('note_on', channel=1, note=49, velocity=127, time=13),
    Message('note_on', channel=1, note=63, velocity=127, time=0),
    Message('note_off', channel=1, note=63, velocity=64, time=17),
    Message('note_off', channel=1, note=49, velocity=64, time=5),
    Message('note_on', channel=1, note=58, velocity=127, time=55),
    Message('note_off', channel=1, note=58, velocity=64, time=9),
    Message('note_on', channel=1, note=56, velocity=120, time=10),
    Message('note_off', channel=1, note=56, velocity=64, time=19),
    Message('note_on', channel=1, note=58, velocity=112, time=58),
    Message('note_off', channel=1, note=58, velocity=64, time=5),
    Message('note_on', channel=1, note=64, velocity=108, time=14),
    Message('note_on', channel=1, note=49, velocity=127, time=0),
    Message('note_off', channel=1, note=64, velocity=64, time=17),
    Message('note_off', channel=1, note=49, velocity=64, time=0),
    Message('note_on', channel=1, note=48, velocity=127, time=61),
    Message('note_on', channel=1, note=67, velocity=127, time=0),
    Message('note_off', channel=1, note=67, velocity=64, time=6),
    Message('note_off', channel=1, note=48, velocity=64, time=12),
    Message('note_on', channel=1, note=63, velocity=123, time=48),
    Message('note_off', channel=1, note=63, velocity=64, time=5),
    Message('note_on', channel=1, note=50, velocity=127, time=43),
    Message('note_on', channel=1, note=61, velocity=101, time=0),
    Message('note_off', channel=1, note=61, velocity=64, time=0),
    Message('note_on', channel=1, note=64, velocity=112, time=0),
    Message('note_off', channel=1, note=64, velocity=64, time=0),
    Message('note_off', channel=1, note=50, velocity=64, time=1),
    Message('note_on', channel=1, note=50, velocity=65, time=29),
    Message('note_on', channel=1, note=63, velocity=127, time=0),
    Message('note_off', channel=1, note=50, velocity=64, time=10),
    Message('note_on', channel=1, note=56, velocity=127, time=7),
    Message('note_off', channel=1, note=56, velocity=64, time=1),
    Message('note_off', channel=1, note=63, velocity=64, time=1),
    Message('note_on', channel=1, note=63, velocity=127, time=47),
    Message('note_off', channel=1, note=63, velocity=64, time=19),
    Message('note_on', channel=1, note=56, velocity=94, time=29),
    Message('note_off', channel=1, note=56, velocity=64, time=0),
    Message('note_on', channel=1, note=50, velocity=127, time=30),
    Message('note_on', channel=1, note=56, velocity=109, time=0),
    Message('note_on', channel=1, note=63, velocity=127, time=0),
    Message('note_off', channel=1, note=63, velocity=64, time=11),
    Message('note_off', channel=1, note=50, velocity=64, time=1),
    Message('note_off', channel=1, note=56, velocity=64, time=2),
    Message('note_on', channel=1, note=50, velocity=74, time=35),
    Message('note_off', channel=1, note=50, velocity=64, time=0),
    Message('note_on', channel=1, note=63, velocity=127, time=17),
    Message('note_on', channel=1, note=56, velocity=127, time=0),
    Message('note_off', channel=1, note=63, velocity=64, time=1),
    Message('note_off', channel=1, note=56, velocity=64, time=1),
    Message('note_on', channel=1, note=63, velocity=127, time=29),
    Message('note_on', channel=1, note=50, velocity=120, time=0),
    Message('note_off', channel=1, note=63, velocity=64, time=0),
    Message('note_off', channel=1, note=50, velocity=64, time=12),
    Message('note_on', channel=1, note=63, velocity=106, time=5),
    Message('note_off', channel=1, note=63, velocity=64, time=15),
    Message('note_on', channel=1, note=50, velocity=57, time=15),
    Message('note_off', channel=1, note=50, velocity=64, time=0),
    Message('note_on', channel=1, note=56, velocity=127, time=18),
    Message('note_on', channel=1, note=63, velocity=127, time=0),
    Message('note_off', channel=1, note=63, velocity=64, time=3),
    Message('note_off', channel=1, note=56, velocity=64, time=16),
    Message('note_on', channel=1, note=63, velocity=123, time=11),
    Message('note_on', channel=1, note=50, velocity=97, time=0),
    Message('note_off', channel=1, note=63, velocity=64, time=0),
    Message('note_off', channel=1, note=50, velocity=64, time=1),
    Message('note_on', channel=1, note=63, velocity=112, time=18),
    Message('note_off', channel=1, note=63, velocity=64, time=9),
    Message('note_on', channel=1, note=50, velocity=53, time=20),
    Message('note_off', channel=1, note=50, velocity=64, time=1),
    Message('note_on', channel=1, note=56, velocity=127, time=17),
    Message('note_on', channel=1, note=63, velocity=127, time=1),
    Message('note_off', channel=1, note=63, velocity=64, time=2),
    Message('note_off', channel=1, note=56, velocity=64, time=13),
    Message('note_on', channel=1, note=50, velocity=83, time=14),
    Message('note_on', channel=1, note=63, velocity=117, time=0),
    Message('note_off', channel=1, note=50, velocity=64, time=1),
    Message('note_off', channel=1, note=63, velocity=64, time=0),
    Message('note_on', channel=1, note=63, velocity=117, time=17),
    Message('note_off', channel=1, note=63, velocity=64, time=3),
    Message('note_on', channel=1, note=50, velocity=73, time=28),
    Message('note_on', channel=1, note=52, velocity=69, time=0),
    Message('note_off', channel=1, note=52, velocity=64, time=6),
    Message('note_off', channel=1, note=50, velocity=64, time=2),
    Message('note_on', channel=1, note=56, velocity=127, time=9),
    Message('note_on', channel=1, note=63, velocity=127, time=0),
    Message('note_off', channel=1, note=63, velocity=64, time=2),
    Message('note_off', channel=1, note=56, velocity=64, time=11),
    Message('note_on', channel=1, note=50, velocity=96, time=17),
    Message('note_on', channel=1, note=63, velocity=117, time=0),
    Message('note_off', channel=1, note=50, velocity=64, time=0),
    Message('note_off', channel=1, note=63, velocity=64, time=0),
    Message('note_on', channel=1, note=63, velocity=117, time=18),
    Message('note_off', channel=1, note=63, velocity=64, time=4),
    Message('note_on', channel=1, note=50, velocity=91, time=21),
    Message('note_off', channel=1, note=50, velocity=64, time=10),
    Message('note_on', channel=1, note=52, velocity=81, time=1),
    Message('note_off', channel=1, note=52, velocity=64, time=2),
    Message('note_on', channel=1, note=56, velocity=127, time=10),
    Message('note_on', channel=1, note=63, velocity=123, time=1),
    Message('note_off', channel=1, note=56, velocity=64, time=0),
    Message('note_off', channel=1, note=63, velocity=64, time=3),
    Message('note_on', channel=1, note=69, velocity=112, time=27),
    Message('note_on', channel=1, note=48, velocity=108, time=1),
    Message('note_on', channel=1, note=67, velocity=110, time=0),
    Message('note_off', channel=1, note=67, velocity=64, time=0),
    Message('note_off', channel=1, note=69, velocity=64, time=0),
    Message('note_off', channel=1, note=48, velocity=64, time=7),
    Message('note_on', channel=1, note=61, velocity=89, time=9),
    Message('note_on', channel=1, note=50, velocity=94, time=0),
    Message('note_off', channel=1, note=50, velocity=64, time=0),
    Message('note_off', channel=1, note=61, velocity=64, time=1),
    Message('note_on', channel=1, note=50, velocity=101, time=15),
    Message('note_off', channel=1, note=50, velocity=64, time=3),
    Message('note_on', channel=1, note=40, velocity=108, time=31),
    Message('note_on', channel=1, note=61, velocity=65, time=0),
    Message('note_off', channel=1, note=61, velocity=64, time=0),
    Message('note_off', channel=1, note=40, velocity=64, time=2),
    Message('note_on', channel=1, note=50, velocity=123, time=26),
    Message('note_on', channel=1, note=61, velocity=117, time=0),
    Message('note_on', channel=1, note=67, velocity=117, time=0),
    Message('note_on', channel=1, note=69, velocity=117, time=0),
    Message('note_off', channel=1, note=67, velocity=64, time=1),
    Message('note_off', channel=1, note=69, velocity=64, time=1),
    Message('note_off', channel=1, note=50, velocity=64, time=1),
    Message('note_off', channel=1, note=61, velocity=64, time=8),
    Message('note_on', channel=1, note=56, velocity=120, time=55),
    Message('note_off', channel=1, note=56, velocity=64, time=1),
    Message('note_on', channel=1, note=63, velocity=127, time=29),
    Message('note_on', channel=1, note=62, velocity=120, time=1),
    Message('note_off', channel=1, note=62, velocity=64, time=0),
    Message('note_on', channel=1, note=56, velocity=89, time=17),
    Message('note_on', channel=1, note=50, velocity=108, time=0),
    Message('note_off', channel=1, note=50, velocity=64, time=1),
    Message('note_off', channel=1, note=63, velocity=64, time=1),
    Message('note_off', channel=1, note=56, velocity=64, time=7),
    Message('note_on', channel=1, note=50, velocity=68, time=1),
    Message('note_off', channel=1, note=50, velocity=64, time=0),
    Message('note_on', channel=1, note=50, velocity=52, time=10),
    Message('note_off', channel=1, note=50, velocity=64, time=0),
    Message('note_on', channel=1, note=59, velocity=109, time=10),
    Message('note_off', channel=1, note=59, velocity=64, time=1),
    Message('note_on', channel=1, note=56, velocity=126, time=16),
    Message('note_on', channel=1, note=63, velocity=98, time=1),
    Message('note_off', channel=1, note=63, velocity=64, time=4),
    Message('note_off', channel=1, note=56, velocity=64, time=2),
    Message('note_on', channel=1, note=48, velocity=94, time=8),
    Message('note_off', channel=1, note=48, velocity=64, time=4),
    Message('note_on', channel=1, note=52, velocity=122, time=12),
    Message('note_on', channel=1, note=64, velocity=117, time=1),
    Message('note_off', channel=1, note=64, velocity=64, time=0),
    Message('note_off', channel=1, note=52, velocity=64, time=10),
    Message('note_on', channel=1, note=63, velocity=79, time=7),
    Message('note_off', channel=1, note=63, velocity=64, time=13),
    Message('note_on', channel=1, note=50, velocity=74, time=17),
    Message('note_off', channel=1, note=50, velocity=64, time=0),
    Message('note_on', channel=1, note=56, velocity=127, time=18),
    Message('note_on', channel=1, note=63, velocity=123, time=0),
    Message('note_off', channel=1, note=63, velocity=64, time=10),
    Message('note_off', channel=1, note=56, velocity=64, time=2),
    Message('note_on', channel=1, note=55, velocity=127, time=18),
    Message('note_on', channel=1, note=65, velocity=117, time=0),
    Message('note_off', channel=1, note=65, velocity=64, time=13),
    Message('note_off', channel=1, note=55, velocity=64, time=26),
    Message('note_on', channel=1, note=53, velocity=106, time=9),
    Message('note_on', channel=1, note=58, velocity=106, time=0),
    Message('note_off', channel=1, note=58, velocity=64, time=0),
    Message('note_off', channel=1, note=53, velocity=64, time=1),
    Message('note_on', channel=1, note=56, velocity=92, time=16),
    Message('note_off', channel=1, note=56, velocity=64, time=1),
    Message('note_on', channel=1, note=67, velocity=127, time=30),
    Message('note_on', channel=1, note=50, velocity=122, time=0),
    Message('note_off', channel=1, note=50, velocity=64, time=5),
    Message('note_on', channel=1, note=56, velocity=89, time=13),
    Message('note_off', channel=1, note=67, velocity=64, time=10),
    Message('note_off', channel=1, note=56, velocity=64, time=3),
    Message('note_on', channel=1, note=59, velocity=102, time=17),
    Message('note_off', channel=1, note=59, velocity=64, time=1),
    Message('note_on', channel=1, note=56, velocity=127, time=17),
    Message('note_on', channel=1, note=63, velocity=127, time=0),
    Message('note_off', channel=1, note=63, velocity=64, time=9),
    Message('note_off', channel=1, note=56, velocity=64, time=0),
    Message('note_on', channel=1, note=50, velocity=70, time=6),
    Message('note_off', channel=1, note=50, velocity=64, time=5),
    Message('note_on', channel=1, note=63, velocity=103, time=13),
    Message('note_off', channel=1, note=63, velocity=64, time=2),
    Message('note_on', channel=1, note=63, velocity=124, time=13),
    Message('note_off', channel=1, note=63, velocity=64, time=2),
    Message('note_on', channel=1, note=60, velocity=127, time=28),
    Message('note_off', channel=1, note=60, velocity=64, time=6),
    Message('note_on', channel=1, note=50, velocity=71, time=12),
    Message('note_off', channel=1, note=50, velocity=64, time=0),
    Message('note_on', channel=1, note=50, velocity=57, time=10),
    Message('note_off', channel=1, note=50, velocity=64, time=1),
    Message('note_on', channel=1, note=50, velocity=46, time=10),
    Message('note_off', channel=1, note=50, velocity=64, time=1),
    Message('note_on', channel=1, note=52, velocity=77, time=8),
    Message('note_off', channel=1, note=52, velocity=64, time=1),
    Message('note_on', channel=1, note=57, velocity=127, time=0),
    Message('note_off', channel=1, note=57, velocity=64, time=5),
    Message('note_on', channel=1, note=50, velocity=88, time=12),
    Message('note_on', channel=1, note=52, velocity=102, time=0),
    Message('note_off', channel=1, note=52, velocity=64, time=0),
    Message('note_off', channel=1, note=50, velocity=64, time=3),
    Message('note_on', channel=1, note=48, velocity=112, time=31),
    Message('note_on', channel=1, note=71, velocity=127, time=0),
    Message('note_off', channel=1, note=71, velocity=64, time=1),
    Message('note_off', channel=1, note=48, velocity=64, time=8),
    Message('note_on', channel=1, note=58, velocity=72, time=389),
    Message('note_off', channel=1, note=58, velocity=64, time=59),
    Message('note_on', channel=1, note=56, velocity=65, time=37),
    Message('note_on', channel=1, note=54, velocity=76, time=48),
    Message('note_off', channel=1, note=56, velocity=64, time=5),
    Message('note_off', channel=1, note=54, velocity=64, time=24),
    Message('note_on', channel=1, note=54, velocity=60, time=67),
    Message('note_off', channel=1, note=54, velocity=64, time=35),
    Message('note_on', channel=1, note=54, velocity=78, time=61),
    Message('note_off', channel=1, note=54, velocity=64, time=60),
    Message('note_on', channel=1, note=56, velocity=10, time=18),
    Message('note_on', channel=1, note=54, velocity=78, time=18),
    Message('note_off', channel=1, note=56, velocity=64, time=23),
    Message('note_off', channel=1, note=54, velocity=64, time=32),
    Message('note_on', channel=1, note=54, velocity=66, time=42),
    Message('note_on', channel=1, note=56, velocity=87, time=76),
    Message('note_off', channel=1, note=54, velocity=64, time=6),
    Message('note_on', channel=1, note=54, velocity=58, time=14),
    Message('note_off', channel=1, note=56, velocity=64, time=6),
    Message('note_off', channel=1, note=54, velocity=64, time=27),
    Message('note_on', channel=1, note=54, velocity=35, time=14),
    Message('note_off', channel=1, note=54, velocity=64, time=25),
    Message('note_on', channel=1, note=54, velocity=22, time=23),
    Message('note_on', channel=1, note=56, velocity=87, time=28),
    Message('note_off', channel=1, note=54, velocity=64, time=3),
    Message('note_on', channel=1, note=54, velocity=49, time=19),
    Message('note_off', channel=1, note=56, velocity=64, time=20),
    Message('note_off', channel=1, note=54, velocity=64, time=11),
    Message('note_on', channel=1, note=54, velocity=10, time=17),
    Message('note_off', channel=1, note=54, velocity=64, time=8),
    Message('note_on', channel=1, note=54, velocity=1, time=39),
    Message('note_off', channel=1, note=54, velocity=64, time=19),
    Message('note_on', channel=1, note=56, velocity=87, time=9),
    Message('note_on', channel=1, note=54, velocity=61, time=19),
    Message('note_off', channel=1, note=56, velocity=64, time=17),
    Message('note_off', channel=1, note=54, velocity=64, time=14),
    Message('note_on', channel=1, note=58, velocity=76, time=17),
    Message('note_off', channel=1, note=58, velocity=64, time=54),
    Message('note_on', channel=1, note=56, velocity=92, time=90),
    Message('note_off', channel=1, note=56, velocity=64, time=41),
    Message('note_on', channel=1, note=54, velocity=1, time=7),
    Message('note_on', channel=1, note=56, velocity=75, time=28),
    Message('note_off', channel=1, note=54, velocity=64, time=4),
    Message('note_on', channel=1, note=54, velocity=45, time=16),
    Message('note_off', channel=1, note=56, velocity=64, time=10),
    Message('note_off', channel=1, note=54, velocity=64, time=23),
    Message('note_on', channel=1, note=56, velocity=78, time=15),
    Message('note_on', channel=1, note=54, velocity=68, time=48),
    Message('note_off', channel=1, note=56, velocity=64, time=6),
    Message('note_off', channel=1, note=54, velocity=64, time=42),
    Message('note_on', channel=1, note=56, velocity=76, time=48),
    Message('note_off', channel=1, note=56, velocity=64, time=24),
    Message('note_on', channel=1, note=54, velocity=54, time=5),
    Message('note_on', channel=1, note=56, velocity=61, time=19),
    Message('note_off', channel=1, note=54, velocity=64, time=2),
    Message('note_off', channel=1, note=56, velocity=64, time=16),
    Message('note_on', channel=1, note=54, velocity=73, time=10),
    Message('note_on', channel=1, note=56, velocity=91, time=20),
    Message('note_off', channel=1, note=54, velocity=64, time=8),
    Message('note_off', channel=1, note=56, velocity=64, time=103),
    Message('note_on', channel=1, note=58, velocity=48, time=62),
    Message('note_on', channel=1, note=56, velocity=102, time=19),
    Message('note_off', channel=1, note=58, velocity=64, time=5),
    Message('note_on', channel=1, note=54, velocity=106, time=43),
    Message('note_off', channel=1, note=56, velocity=64, time=4),
    Message('note_off', channel=1, note=54, velocity=64, time=44),
    Message('note_on', channel=1, note=54, velocity=106, time=48),
    Message('note_on', channel=1, note=56, velocity=76, time=29),
    Message('note_off', channel=1, note=54, velocity=64, time=19),
    Message('note_on', channel=1, note=50, velocity=119, time=0),
    Message('note_off', channel=1, note=56, velocity=64, time=18),
    Message('note_on', channel=1, note=48, velocity=64, time=13),
    Message('note_off', channel=1, note=50, velocity=64, time=4),
    Message('note_on', channel=1, note=54, velocity=106, time=13),
    Message('note_off', channel=1, note=48, velocity=64, time=18),
    Message('note_off', channel=1, note=54, velocity=64, time=30),
    Message('note_on', channel=1, note=54, velocity=78, time=48),
    Message('note_off', channel=1, note=54, velocity=64, time=13),
    Message('note_on', channel=1, note=54, velocity=105, time=64),
    Message('note_off', channel=1, note=54, velocity=64, time=39),
    Message('note_on', channel=1, note=54, velocity=85, time=28),
    Message('note_off', channel=1, note=54, velocity=64, time=17),
    Message('note_on', channel=1, note=50, velocity=98, time=31),
    Message('note_on', channel=1, note=54, velocity=105, time=30),
    Message('note_off', channel=1, note=50, velocity=64, time=6),
    Message('note_on', channel=1, note=50, velocity=117, time=12),
    Message('note_on', channel=1, note=64, velocity=96, time=0),
    Message('note_off', channel=1, note=50, velocity=64, time=10),
    Message('note_off', channel=1, note=64, velocity=64, time=0),
    Message('note_off', channel=1, note=54, velocity=64, time=6),
    Message('note_on', channel=1, note=50, velocity=117, time=14),
    Message('note_off', channel=1, note=50, velocity=64, time=9),
    Message('note_on', channel=1, note=48, velocity=117, time=9),
    Message('note_off', channel=1, note=48, velocity=64, time=10),
    Message('note_on', channel=1, note=56, velocity=105, time=19),
    Message('note_off', channel=1, note=56, velocity=64, time=19),
    Message('note_on', channel=1, note=67, velocity=104, time=0),
    Message('note_off', channel=1, note=67, velocity=64, time=43),
    Message('note_on', channel=1, note=58, velocity=117, time=5),
    Message('note_off', channel=1, note=58, velocity=64, time=16),
    Message('note_on', channel=1, note=61, velocity=97, time=81),
    Message('note_off', channel=1, note=61, velocity=64, time=29),
    Message('note_on', channel=1, note=56, velocity=14, time=18),
    Message('note_off', channel=1, note=56, velocity=64, time=5),
    Message('note_on', channel=1, note=58, velocity=65, time=24),
    Message('note_off', channel=1, note=58, velocity=64, time=11),
    Message('note_on', channel=1, note=69, velocity=12, time=1055),
    Message('note_off', channel=1, note=69, velocity=64, time=8),
    Message('note_on', channel=1, note=69, velocity=14, time=5),
    Message('note_off', channel=1, note=69, velocity=64, time=8),
    Message('note_on', channel=1, note=69, velocity=15, time=6),
    Message('note_off', channel=1, note=69, velocity=64, time=8),
    Message('note_on', channel=1, note=69, velocity=17, time=5),
    Message('note_off', channel=1, note=69, velocity=64, time=9),
    Message('note_on', channel=1, note=69, velocity=18, time=4),
    Message('note_off', channel=1, note=69, velocity=64, time=8),
    Message('note_on', channel=1, note=69, velocity=20, time=7),
    Message('note_off', channel=1, note=69, velocity=64, time=6),
    Message('note_on', channel=1, note=69, velocity=21, time=6),
    Message('note_off', channel=1, note=69, velocity=64, time=8),
    Message('note_on', channel=1, note=69, velocity=22, time=5),
    Message('note_off', channel=1, note=69, velocity=64, time=8),
    Message('note_on', channel=1, note=69, velocity=24, time=6),
    Message('note_off', channel=1, note=69, velocity=64, time=5),
    Message('note_on', channel=1, note=69, velocity=25, time=9),
    Message('note_off', channel=1, note=69, velocity=64, time=7),
    Message('note_on', channel=1, note=69, velocity=27, time=5),
    Message('note_off', channel=1, note=69, velocity=64, time=8),
    Message('note_on', channel=1, note=69, velocity=28, time=4),
    Message('note_off', channel=1, note=69, velocity=64, time=9),
    Message('note_on', channel=1, note=69, velocity=30, time=5),
    Message('note_off', channel=1, note=69, velocity=64, time=8),
    Message('note_on', channel=1, note=69, velocity=31, time=5),
    Message('note_off', channel=1, note=69, velocity=64, time=10),
    Message('note_on', channel=1, note=69, velocity=33, time=6),
    Message('note_off', channel=1, note=69, velocity=64, time=6),
    Message('note_on', channel=1, note=69, velocity=34, time=5),
    Message('note_off', channel=1, note=69, velocity=64, time=6),
    Message('note_on', channel=1, note=69, velocity=36, time=6),
    Message('note_off', channel=1, note=69, velocity=64, time=8),
    Message('note_on', channel=1, note=69, velocity=43, time=5),
    Message('note_off', channel=1, note=69, velocity=64, time=8),
    Message('note_on', channel=1, note=69, velocity=44, time=4),
    Message('note_off', channel=1, note=69, velocity=64, time=9),
    Message('note_on', channel=1, note=69, velocity=51, time=5),
    Message('note_off', channel=1, note=69, velocity=64, time=13),
    Message('note_on', channel=1, note=69, velocity=59, time=0),
    Message('note_off', channel=1, note=69, velocity=64, time=14),
    Message('note_on', channel=1, note=69, velocity=66, time=0),
    Message('note_off', channel=1, note=69, velocity=64, time=13),
    Message('note_on', channel=1, note=69, velocity=75, time=0),
    Message('note_off', channel=1, note=69, velocity=64, time=12),
    Message('note_on', channel=1, note=69, velocity=80, time=0),
    Message('note_off', channel=1, note=69, velocity=64, time=1),
    Message('note_on', channel=1, note=69, velocity=102, time=4),
    Message('note_off', channel=1, note=69, velocity=64, time=9),
    Message('note_on', channel=1, note=69, velocity=73, time=25),
    Message('note_off', channel=1, note=69, velocity=64, time=0),
    Message('note_on', channel=1, note=69, velocity=59, time=27),
    Message('note_off', channel=1, note=69, velocity=64, time=2),
    Message('note_on', channel=1, note=69, velocity=52, time=23),
    Message('note_off', channel=1, note=69, velocity=64, time=15),
    Message('note_on', channel=1, note=69, velocity=48, time=14),
    Message('note_off', channel=1, note=69, velocity=64, time=17),
    Message('note_on', channel=1, note=69, velocity=44, time=11),
    Message('note_off', channel=1, note=69, velocity=64, time=15),
    Message('note_on', channel=1, note=69, velocity=41, time=10),
    Message('note_off', channel=1, note=69, velocity=64, time=15),
    Message('note_on', channel=1, note=69, velocity=37, time=14),
    Message('note_off', channel=1, note=69, velocity=64, time=17),
    Message('note_on', channel=1, note=69, velocity=24, time=46),
    Message('note_off', channel=1, note=69, velocity=64, time=9),
    Message('note_on', channel=1, note=69, velocity=24, time=5),
    Message('note_off', channel=1, note=69, velocity=64, time=8),
    Message('note_on', channel=1, note=69, velocity=25, time=6),
    Message('note_off', channel=1, note=69, velocity=64, time=8),
    Message('note_on', channel=1, note=69, velocity=25, time=5),
    Message('note_off', channel=1, note=69, velocity=64, time=8),
    Message('note_on', channel=1, note=69, velocity=26, time=5),
    Message('note_off', channel=1, note=69, velocity=64, time=8),
    Message('note_on', channel=1, note=69, velocity=26, time=5),
    Message('note_off', channel=1, note=69, velocity=64, time=8),
    Message('note_on', channel=1, note=69, velocity=27, time=6),
    Message('note_off', channel=1, note=69, velocity=64, time=7),
    Message('note_on', channel=1, note=69, velocity=27, time=6),
    Message('note_off', channel=1, note=69, velocity=64, time=9),
    Message('note_on', channel=1, note=69, velocity=28, time=5),
    Message('note_off', channel=1, note=69, velocity=64, time=6),
    Message('note_on', channel=1, note=69, velocity=28, time=7),
    Message('note_off', channel=1, note=69, velocity=64, time=8),
    Message('note_on', channel=1, note=69, velocity=29, time=5),
    Message('note_off', channel=1, note=69, velocity=64, time=9),
    Message('note_on', channel=1, note=69, velocity=29, time=3),
    Message('note_off', channel=1, note=69, velocity=64, time=10),
    Message('note_on', channel=1, note=69, velocity=30, time=4),
    Message('note_off', channel=1, note=69, velocity=64, time=9),
    Message('note_on', channel=1, note=69, velocity=30, time=4),
    Message('note_off', channel=1, note=69, velocity=64, time=8),
    Message('note_on', channel=1, note=69, velocity=34, time=6),
    Message('note_off', channel=1, note=69, velocity=64, time=8),
    Message('note_on', channel=1, note=69, velocity=37, time=5),
    Message('note_off', channel=1, note=69, velocity=64, time=6),
    Message('note_on', channel=1, note=69, velocity=39, time=5),
    Message('note_off', channel=1, note=69, velocity=64, time=9),
    Message('note_on', channel=1, note=69, velocity=42, time=5),
    Message('note_off', channel=1, note=69, velocity=64, time=9),
    Message('note_on', channel=1, note=69, velocity=45, time=3),
    Message('note_off', channel=1, note=69, velocity=64, time=8),
    Message('note_on', channel=1, note=69, velocity=48, time=6),
    Message('note_off', channel=1, note=69, velocity=64, time=8),
    Message('note_on', channel=1, note=69, velocity=61, time=6),
    Message('note_off', channel=1, note=69, velocity=64, time=7),
    Message('note_on', channel=1, note=69, velocity=77, time=6),
    Message('note_off', channel=1, note=69, velocity=64, time=8),
    Message('note_on', channel=1, note=69, velocity=92, time=5),
    Message('note_off', channel=1, note=69, velocity=64, time=6),
    Message('note_on', channel=1, note=69, velocity=104, time=4),
    Message('note_off', channel=1, note=69, velocity=64, time=6),
    Message('note_on', channel=1, note=69, velocity=111, time=1),
    Message('note_off', channel=1, note=69, velocity=64, time=4),
    Message('note_on', channel=1, note=69, velocity=32, time=99),
    Message('note_off', channel=1, note=69, velocity=64, time=8),
    Message('note_on', channel=1, note=69, velocity=31, time=5),
    Message('note_off', channel=1, note=69, velocity=64, time=9),
    Message('note_on', channel=1, note=69, velocity=30, time=6),
    Message('note_off', channel=1, note=69, velocity=64, time=7),
    Message('note_on', channel=1, note=69, velocity=28, time=6),
    Message('note_off', channel=1, note=69, velocity=64, time=8),
    Message('note_on', channel=1, note=69, velocity=27, time=4),
    Message('note_off', channel=1, note=69, velocity=64, time=8),
    Message('note_on', channel=1, note=69, velocity=26, time=5),
    Message('note_off', channel=1, note=69, velocity=64, time=11),
    Message('note_on', channel=1, note=69, velocity=24, time=3),
    Message('note_off', channel=1, note=69, velocity=64, time=8),
    Message('note_on', channel=1, note=69, velocity=23, time=6),
    Message('note_off', channel=1, note=69, velocity=64, time=7),
    Message('note_on', channel=1, note=69, velocity=22, time=8),
    Message('note_off', channel=1, note=69, velocity=64, time=8),
    Message('note_on', channel=1, note=69, velocity=20, time=6),
    Message('note_off', channel=1, note=69, velocity=64, time=8),
    Message('note_on', channel=1, note=69, velocity=19, time=6),
    Message('note_off', channel=1, note=69, velocity=64, time=7),
    Message('note_on', channel=1, note=69, velocity=18, time=6),
    Message('note_off', channel=1, note=69, velocity=64, time=8),
    Message('note_on', channel=1, note=69, velocity=17, time=4),
    Message('note_off', channel=1, note=69, velocity=64, time=8),
    Message('note_on', channel=1, note=69, velocity=16, time=6),
    Message('note_off', channel=1, note=69, velocity=64, time=9),
    Message('note_on', channel=1, note=69, velocity=17, time=6),
    Message('note_off', channel=1, note=69, velocity=64, time=6),
    Message('note_on', channel=1, note=69, velocity=18, time=6),
    Message('note_off', channel=1, note=69, velocity=64, time=8),
    Message('note_on', channel=1, note=69, velocity=19, time=5),
    Message('note_off', channel=1, note=69, velocity=64, time=6),
    Message('note_on', channel=1, note=69, velocity=20, time=7),
    Message('note_off', channel=1, note=69, velocity=64, time=10),
    Message('note_on', channel=1, note=69, velocity=21, time=6),
    Message('note_off', channel=1, note=69, velocity=64, time=6),
    Message('note_on', channel=1, note=69, velocity=22, time=4),
    Message('note_off', channel=1, note=69, velocity=64, time=9),
    Message('note_on', channel=1, note=69, velocity=23, time=5),
    Message('note_off', channel=1, note=69, velocity=64, time=8),
    Message('note_on', channel=1, note=69, velocity=24, time=5),
    Message('note_off', channel=1, note=69, velocity=64, time=8),
    Message('note_on', channel=1, note=69, velocity=31, time=6),
    Message('note_off', channel=1, note=69, velocity=64, time=9),
    Message('note_on', channel=1, note=69, velocity=34, time=4),
    Message('note_off', channel=1, note=69, velocity=64, time=6),
    Message('note_on', channel=1, note=69, velocity=36, time=5),
    Message('note_off', channel=1, note=69, velocity=64, time=8),
    Message('note_on', channel=1, note=69, velocity=38, time=6),
    Message('note_off', channel=1, note=69, velocity=64, time=8),
    Message('note_on', channel=1, note=69, velocity=40, time=6),
    Message('note_off', channel=1, note=69, velocity=64, time=6),
    Message('note_on', channel=1, note=69, velocity=43, time=6),
    Message('note_off', channel=1, note=69, velocity=64, time=8),
    Message('note_on', channel=1, note=69, velocity=45, time=5),
    Message('note_off', channel=1, note=69, velocity=64, time=8),
    Message('note_on', channel=1, note=69, velocity=48, time=5),
    Message('note_off', channel=1, note=69, velocity=64, time=8),
    Message('note_on', channel=1, note=69, velocity=50, time=8),
    Message('note_off', channel=1, note=69, velocity=64, time=5),
    Message('note_on', channel=1, note=69, velocity=52, time=3),
    Message('note_off', channel=1, note=69, velocity=64, time=6),
    Message('note_on', channel=1, note=69, velocity=53, time=2),
    Message('note_off', channel=1, note=69, velocity=64, time=4),
    Message('note_on', channel=1, note=54, velocity=75, time=1),
    Message('note_on', channel=1, note=74, velocity=104, time=0),
    Message('control_change', channel=1, control=11, value=127, time=2),
    Message('control_change', channel=1, control=11, value=95, time=0),
    Message('pitchwheel', channel=1, pitch=0, time=0),
    Message('pitchwheel', channel=1, pitch=6488, time=0),
    Message('control_change', channel=1, control=11, value=95, time=1),
    Message('note_off', channel=1, note=54, velocity=64, time=5),
    Message('pitchwheel', channel=1, pitch=6488, time=7),
    Message('pitchwheel', channel=1, pitch=6527, time=0),
    Message('pitchwheel', channel=1, pitch=6525, time=2),
    Message('pitchwheel', channel=1, pitch=6522, time=1),
    Message('pitchwheel', channel=1, pitch=6520, time=3),
    Message('pitchwheel', channel=1, pitch=6517, time=1),
    Message('pitchwheel', channel=1, pitch=6516, time=1),
    Message('pitchwheel', channel=1, pitch=6515, time=1),
    Message('pitchwheel', channel=1, pitch=6512, time=3),
    Message('pitchwheel', channel=1, pitch=6510, time=1),
    Message('pitchwheel', channel=1, pitch=6507, time=2),
    Message('pitchwheel', channel=1, pitch=6505, time=2),
    Message('pitchwheel', channel=1, pitch=6502, time=2),
    Message('pitchwheel', channel=1, pitch=6501, time=1),
    Message('pitchwheel', channel=1, pitch=6500, time=1),
    Message('pitchwheel', channel=1, pitch=6497, time=2),
    Message('pitchwheel', channel=1, pitch=6495, time=1),
    Message('pitchwheel', channel=1, pitch=6492, time=2),
    Message('pitchwheel', channel=1, pitch=6490, time=4),
    Message('pitchwheel', channel=1, pitch=6488, time=0),
    Message('pitchwheel', channel=1, pitch=6486, time=2),
    Message('pitchwheel', channel=1, pitch=6485, time=0),
    Message('note_on', channel=1, note=42, velocity=96, time=1),
    Message('note_on', channel=1, note=56, velocity=73, time=0),
    Message('pitchwheel', channel=1, pitch=6483, time=1),
    Message('note_off', channel=1, note=74, velocity=64, time=2),
    Message('pitchwheel', channel=1, pitch=6480, time=0),
    Message('pitchwheel', channel=1, pitch=6478, time=2),
    Message('pitchwheel', channel=1, pitch=6475, time=2),
    Message('note_off', channel=1, note=56, velocity=64, time=0),
    Message('pitchwheel', channel=1, pitch=6473, time=2),
    Message('pitchwheel', channel=1, pitch=6470, time=2),
    Message('pitchwheel', channel=1, pitch=6468, time=1),
    Message('pitchwheel', channel=1, pitch=6465, time=3),
    Message('pitchwheel', channel=1, pitch=6463, time=1),
    Message('pitchwheel', channel=1, pitch=6460, time=2),
    Message('pitchwheel', channel=1, pitch=6458, time=3),
    Message('pitchwheel', channel=1, pitch=6456, time=1),
    Message('pitchwheel', channel=1, pitch=6455, time=1),
    Message('pitchwheel', channel=1, pitch=6453, time=1),
    Message('pitchwheel', channel=1, pitch=6451, time=2),
    Message('pitchwheel', channel=1, pitch=6448, time=2),
    Message('pitchwheel', channel=1, pitch=6446, time=2),
    Message('pitchwheel', channel=1, pitch=6443, time=2),
    Message('pitchwheel', channel=1, pitch=6441, time=2),
    Message('pitchwheel', channel=1, pitch=6439, time=1),
    Message('pitchwheel', channel=1, pitch=6438, time=1),
    Message('pitchwheel', channel=1, pitch=6436, time=3),
    Message('pitchwheel', channel=1, pitch=6433, time=1),
    Message('note_off', channel=1, note=42, velocity=64, time=0),
    Message('pitchwheel', channel=1, pitch=6431, time=1),
    Message('pitchwheel', channel=1, pitch=6428, time=4),
    Message('pitchwheel', channel=1, pitch=6426, time=0),
    Message('pitchwheel', channel=1, pitch=6424, time=2),
    Message('pitchwheel', channel=1, pitch=6424, time=0),
    Message('note_on', channel=1, note=54, velocity=75, time=1),
    Message('pitchwheel', channel=1, pitch=6421, time=2),
    Message('pitchwheel', channel=1, pitch=6419, time=2),
    Message('pitchwheel', channel=1, pitch=6416, time=1),
    Message('pitchwheel', channel=1, pitch=6414, time=2),
    Message('note_off', channel=1, note=54, velocity=64, time=0),
    Message('pitchwheel', channel=1, pitch=6411, time=2),
    Message('pitchwheel', channel=1, pitch=6409, time=2),
    Message('pitchwheel', channel=1, pitch=6409, time=0),
    Message('pitchwheel', channel=1, pitch=6406, time=2),
    Message('pitchwheel', channel=1, pitch=6404, time=1),
    Message('pitchwheel', channel=1, pitch=6401, time=2),
    Message('pitchwheel', channel=1, pitch=6399, time=2),
    Message('pitchwheel', channel=1, pitch=6396, time=2),
    Message('pitchwheel', channel=1, pitch=6394, time=2),
    Message('pitchwheel', channel=1, pitch=6393, time=1),
    Message('note_on', channel=1, note=74, velocity=93, time=1),
    Message('pitchwheel', channel=1, pitch=6391, time=1),
    Message('pitchwheel', channel=1, pitch=6389, time=1),
    Message('pitchwheel', channel=1, pitch=6387, time=2),
    Message('pitchwheel', channel=1, pitch=6384, time=2),
    Message('pitchwheel', channel=1, pitch=6382, time=2),
    Message('pitchwheel', channel=1, pitch=6379, time=2),
    Message('pitchwheel', channel=1, pitch=6378, time=1),
    Message('pitchwheel', channel=1, pitch=6377, time=1),
    Message('pitchwheel', channel=1, pitch=6374, time=1),
    Message('pitchwheel', channel=1, pitch=6372, time=3),
    Message('pitchwheel', channel=1, pitch=6369, time=1),
    Message('pitchwheel', channel=1, pitch=6367, time=4),
    Message('pitchwheel', channel=1, pitch=6364, time=0),
    Message('pitchwheel', channel=1, pitch=6362, time=2),
    Message('pitchwheel', channel=1, pitch=6362, time=0),
    Message('note_on', channel=1, note=56, velocity=73, time=1),
    Message('pitchwheel', channel=1, pitch=6359, time=3),
    Message('pitchwheel', channel=1, pitch=6357, time=0),
    Message('pitchwheel', channel=1, pitch=6355, time=2),
    Message('pitchwheel', channel=1, pitch=6352, time=4),
    Message('note_off', channel=1, note=56, velocity=64, time=0),
    Message('pitchwheel', channel=1, pitch=6350, time=0),
    Message('pitchwheel', channel=1, pitch=6347, time=2),
    Message('pitchwheel', channel=1, pitch=6347, time=0),
    Message('pitchwheel', channel=1, pitch=6345, time=2),
    Message('pitchwheel', channel=1, pitch=6342, time=2),
    Message('pitchwheel', channel=1, pitch=6340, time=1),
    Message('pitchwheel', channel=1, pitch=6337, time=2),
    Message('pitchwheel', channel=1, pitch=6335, time=2),
    Message('pitchwheel', channel=1, pitch=6332, time=2),
    Message('pitchwheel', channel=1, pitch=6331, time=1),
    Message('pitchwheel', channel=1, pitch=6330, time=1),
    Message('note_on', channel=1, note=96, velocity=96, time=0),
    Message('pitchwheel', channel=1, pitch=6327, time=2),
    Message('note_off', channel=1, note=74, velocity=64, time=6),
    Message('note_on', channel=1, note=54, velocity=75, time=16),
    Message('note_off', channel=1, note=54, velocity=64, time=9),
    Message('note_off', channel=1, note=96, velocity=64, time=7),
    Message('note_on', channel=1, note=74, velocity=92, time=8),
    Message('note_on', channel=1, note=56, velocity=73, time=24),
    Message('note_on', channel=1, note=96, velocity=96, time=0),
    Message('note_off', channel=1, note=56, velocity=64, time=9),
    Message('note_off', channel=1, note=74, velocity=64, time=6),
    Message('note_on', channel=1, note=38, velocity=40, time=14),
    Message('pitchwheel', channel=1, pitch=6327, time=9),
    Message('pitchwheel', channel=1, pitch=6678, time=0),
    Message('note_off', channel=1, note=96, velocity=64, time=1),
    Message('note_on', channel=1, note=54, velocity=48, time=9),
    Message('note_on', channel=1, note=74, velocity=48, time=0),
    Message('note_off', channel=1, note=74, velocity=64, time=6),
    Message('note_on', channel=1, note=74, velocity=50, time=0),
    Message('note_off', channel=1, note=54, velocity=64, time=5),
    Message('note_off', channel=1, note=74, velocity=64, time=1),
    Message('note_on', channel=1, note=74, velocity=61, time=0),
    Message('note_off', channel=1, note=74, velocity=64, time=6),
    Message('note_on', channel=1, note=74, velocity=72, time=0),
    Message('note_off', channel=1, note=74, velocity=64, time=6),
    Message('note_on', channel=1, note=74, velocity=83, time=0),
    Message('note_off', channel=1, note=74, velocity=64, time=6),
    Message('note_on', channel=1, note=74, velocity=94, time=0),
    Message('note_off', channel=1, note=74, velocity=64, time=6),
    Message('note_on', channel=1, note=74, velocity=105, time=0),
    Message('note_off', channel=1, note=74, velocity=64, time=6),
    Message('note_on', channel=1, note=74, velocity=116, time=0),
    Message('note_off', channel=1, note=74, velocity=64, time=6),
    Message('note_on', channel=1, note=61, velocity=95, time=0),
    Message('note_on', channel=1, note=46, velocity=82, time=0),
    Message('note_on', channel=1, note=58, velocity=95, time=0),
    Message('note_off', channel=1, note=38, velocity=64, time=9),
    Message('pitchwheel', channel=1, pitch=6678, time=9),
    Message('pitchwheel', channel=1, pitch=6829, time=0),
    Message('note_off', channel=1, note=61, velocity=64, time=4),
    Message('note_off', channel=1, note=58, velocity=64, time=0),
    Message('note_off', channel=1, note=46, velocity=64, time=8),
    Message('note_on', channel=1, note=54, velocity=56, time=18),
    Message('note_off', channel=1, note=54, velocity=64, time=19),
    Message('note_on', channel=1, note=43, velocity=73, time=5),
    Message('pitchwheel', channel=1, pitch=6829, time=10),
    Message('pitchwheel', channel=1, pitch=6729, time=0),
    Message('note_off', channel=1, note=43, velocity=64, time=11),
    Message('note_on', channel=1, note=42, velocity=88, time=3),
    Message('note_on', channel=1, note=54, velocity=60, time=0),
    Message('note_off', channel=1, note=54, velocity=64, time=19),
    Message('note_off', channel=1, note=42, velocity=64, time=21),
    Message('note_on', channel=1, note=54, velocity=56, time=8),
    Message('note_on', channel=1, note=41, velocity=87, time=12),
    Message('note_off', channel=1, note=54, velocity=64, time=0),
    Message('note_off', channel=1, note=41, velocity=64, time=6),
    Message('note_on', channel=1, note=41, velocity=81, time=0),
    Message('note_off', channel=1, note=41, velocity=64, time=6),
    Message('note_on', channel=1, note=41, velocity=75, time=0),
    Message('note_off', channel=1, note=41, velocity=64, time=6),
    Message('note_on', channel=1, note=41, velocity=69, time=0),
    Message('note_off', channel=1, note=41, velocity=64, time=6),
    Message('note_on', channel=1, note=41, velocity=61, time=0),
    Message('note_off', channel=1, note=41, velocity=64, time=6),
    Message('note_on', channel=1, note=41, velocity=55, time=0),
    Message('note_off', channel=1, note=41, velocity=64, time=6),
    Message('note_on', channel=1, note=41, velocity=49, time=0),
    Message('note_on', channel=1, note=57, velocity=86, time=0),
    Message('note_off', channel=1, note=41, velocity=64, time=6),
    Message('note_on', channel=1, note=41, velocity=43, time=0),
    Message('note_off', channel=1, note=41, velocity=64, time=6),
    Message('note_off', channel=1, note=57, velocity=64, time=1),
    Message('note_on', channel=1, note=41, velocity=40, time=11),
    Message('note_on', channel=1, note=55, velocity=86, time=0),
    Message('pitchwheel', channel=1, pitch=6729, time=4),
    Message('pitchwheel', channel=1, pitch=6880, time=0),
    Message('note_off', channel=1, note=41, velocity=64, time=2),
    Message('note_on', channel=1, note=41, velocity=48, time=0),
    Message('note_off', channel=1, note=41, velocity=64, time=6),
    Message('note_on', channel=1, note=41, velocity=57, time=0),
    Message('note_off', channel=1, note=55, velocity=64, time=1),
    Message('note_off', channel=1, note=41, velocity=64, time=5),
    Message('note_on', channel=1, note=41, velocity=66, time=0),
    Message('note_on', channel=1, note=40, velocity=78, time=6),
    Message('note_off', channel=1, note=41, velocity=64, time=0),
    Message('note_on', channel=1, note=54, velocity=59, time=0),
    Message('note_on', channel=1, note=56, velocity=59, time=24),
    Message('note_off', channel=1, note=54, velocity=64, time=1),
    Message('note_off', channel=1, note=40, velocity=64, time=0),
    Message('pitchwheel', channel=1, pitch=6880, time=2),
    Message('pitchwheel', channel=1, pitch=6426, time=0),
    Message('note_off', channel=1, note=56, velocity=64, time=33),
    Message('pitchwheel', channel=1, pitch=6426, time=25),
    Message('pitchwheel', channel=1, pitch=6628, time=0),
    Message('note_on', channel=1, note=56, velocity=55, time=11),
    Message('note_off', channel=1, note=56, velocity=64, time=38),
    Message('note_on', channel=1, note=44, velocity=53, time=4),
    Message('note_off', channel=1, note=44, velocity=64, time=13),
    Message('note_on', channel=1, note=57, velocity=87, time=11),
    Message('note_off', channel=1, note=57, velocity=64, time=6),
    Message('note_on', channel=1, note=54, velocity=71, time=0),
    Message('note_on', channel=1, note=42, velocity=71, time=18),
    Message('note_off', channel=1, note=54, velocity=64, time=11),
    Message('note_on', channel=1, note=54, velocity=40, time=7),
    Message('note_off', channel=1, note=42, velocity=64, time=11),
    Message('pitchwheel', channel=1, pitch=6628, time=7),
    Message('pitchwheel', channel=1, pitch=6880, time=0),
    Message('note_off', channel=1, note=54, velocity=64, time=9),
    Message('note_on', channel=1, note=48, velocity=82, time=9),
    Message('note_on', channel=1, note=54, velocity=55, time=0),
    Message('note_off', channel=1, note=54, velocity=64, time=26),
    Message('note_off', channel=1, note=48, velocity=64, time=9),
    Message('note_on', channel=1, note=50, velocity=94, time=1),
    Message('note_on', channel=1, note=58, velocity=77, time=0),
    Message('note_on', channel=1, note=56, velocity=62, time=12),
    Message('note_off', channel=1, note=50, velocity=64, time=3),
    Message('note_off', channel=1, note=56, velocity=64, time=8),
    Message('note_off', channel=1, note=58, velocity=64, time=6),
    Message('note_on', channel=1, note=45, velocity=90, time=7),
    Message('note_off', channel=1, note=45, velocity=64, time=6),
    Message('note_on', channel=1, note=54, velocity=62, time=18),
    Message('note_off', channel=1, note=54, velocity=64, time=11),
    Message('pitchwheel', channel=1, pitch=6880, time=16),
    Message('pitchwheel', channel=1, pitch=7233, time=0),
    Message('note_on', channel=1, note=45, velocity=79, time=9),
    Message('note_off', channel=1, note=45, velocity=64, time=12),
    Message('note_on', channel=1, note=54, velocity=71, time=1),
    Message('note_on', channel=1, note=45, velocity=79, time=23),
    Message('note_off', channel=1, note=54, velocity=64, time=1),
    Message('note_off', channel=1, note=45, velocity=64, time=9),
    Message('note_on', channel=1, note=40, velocity=79, time=2),
    Message('note_off', channel=1, note=40, velocity=64, time=11),
    Message('note_on', channel=1, note=54, velocity=69, time=1),
    Message('pitchwheel', channel=1, pitch=7233, time=1),
    Message('pitchwheel', channel=1, pitch=6981, time=0),
    Message('pitchwheel', channel=1, pitch=6967, time=1),
    Message('pitchwheel', channel=1, pitch=6954, time=4),
    Message('pitchwheel', channel=1, pitch=6941, time=0),
    Message('note_off', channel=1, note=54, velocity=64, time=13),
    Message('note_on', channel=1, note=56, velocity=88, time=29),
    Message('note_on', channel=1, note=42, velocity=99, time=0),
    Message('note_on', channel=1, note=43, velocity=63, time=24),
    Message('note_off', channel=1, note=43, velocity=64, time=7),
    Message('note_on', channel=1, note=43, velocity=75, time=5),
    Message('note_off', channel=1, note=42, velocity=64, time=1),
    Message('note_off', channel=1, note=43, velocity=64, time=8),
    Message('note_off', channel=1, note=56, velocity=64, time=1),
    Message('note_on', channel=1, note=54, velocity=88, time=2),
    Message('note_on', channel=1, note=42, velocity=99, time=24),
    Message('note_off', channel=1, note=54, velocity=64, time=6),
    Message('note_on', channel=1, note=54, velocity=54, time=18),
    Message('note_off', channel=1, note=42, velocity=64, time=13),
    Message('pitchwheel', channel=1, pitch=6941, time=0),
    Message('pitchwheel', channel=1, pitch=7283, time=0),
    Message('note_off', channel=1, note=54, velocity=64, time=12),
    Message('note_on', channel=1, note=44, velocity=81, time=6),
    Message('note_off', channel=1, note=44, velocity=64, time=5),
    Message('note_on', channel=1, note=44, velocity=75, time=0),
    Message('note_off', channel=1, note=44, velocity=64, time=6),
    Message('note_on', channel=1, note=44, velocity=69, time=0),
    Message('note_off', channel=1, note=44, velocity=64, time=6),
    Message('note_on', channel=1, note=44, velocity=61, time=0),
    Message('note_on', channel=1, note=54, velocity=71, time=0),
    Message('note_off', channel=1, note=44, velocity=64, time=6),
    Message('note_on', channel=1, note=44, velocity=55, time=0),
    Message('note_off', channel=1, note=44, velocity=64, time=7),
    Message('note_on', channel=1, note=44, velocity=49, time=0),
    Message('note_off', channel=1, note=44, velocity=64, time=5),
    Message('note_on', channel=1, note=44, velocity=43, time=0),
    Message('note_off', channel=1, note=44, velocity=64, time=6),
    Message('note_on', channel=1, note=57, velocity=87, time=0),
    Message('note_off', channel=1, note=54, velocity=64, time=4),
    Message('note_off', channel=1, note=57, velocity=64, time=3),
    Message('pitchwheel', channel=1, pitch=7283, time=8),
    Message('pitchwheel', channel=1, pitch=6678, time=0),
    Message('note_on', channel=1, note=43, velocity=90, time=9),
    Message('note_on', channel=1, note=54, velocity=43, time=0),
    Message('note_off', channel=1, note=43, velocity=64, time=10),
    Message('note_off', channel=1, note=54, velocity=64, time=14),
    Message('note_on', channel=1, note=60, velocity=83, time=12),
    Message('note_on', channel=1, note=54, velocity=58, time=12),
    Message('note_off', channel=1, note=54, velocity=64, time=7),
    Message('note_on', channel=1, note=59, velocity=83, time=5),
    Message('note_off', channel=1, note=60, velocity=64, time=0),
    Message('note_on', channel=1, note=57, velocity=83, time=18),
    Message('note_off', channel=1, note=59, velocity=64, time=7),
    Message('note_on', channel=1, note=56, velocity=69, time=11),
    Message('note_off', channel=1, note=57, velocity=64, time=6),
    Message('pitchwheel', channel=1, pitch=6678, time=13),
    Message('pitchwheel', channel=1, pitch=6930, time=0),
    Message('note_off', channel=1, note=56, velocity=64, time=3),
    Message('note_on', channel=1, note=53, velocity=85, time=2),
    Message('note_on', channel=1, note=44, velocity=65, time=0),
    Message('note_off', channel=1, note=53, velocity=64, time=6),
    Message('note_off', channel=1, note=44, velocity=64, time=0),
    Message('note_on', channel=1, note=44, velocity=59, time=0),
    Message('note_off', channel=1, note=44, velocity=64, time=6),
    Message('note_on', channel=1, note=44, velocity=51, time=0),
    Message('note_off', channel=1, note=44, velocity=64, time=6),
    Message('note_on', channel=1, note=44, velocity=45, time=1),
    Message('note_off', channel=1, note=44, velocity=64, time=6),
    Message('note_on', channel=1, note=56, velocity=88, time=0),
    Message('note_on', channel=1, note=42, velocity=77, time=0),
    Message('note_off', channel=1, note=42, velocity=64, time=6),
    Message('note_on', channel=1, note=42, velocity=71, time=0),
    Message('note_off', channel=1, note=42, velocity=64, time=5),
    Message('note_on', channel=1, note=42, velocity=65, time=0),
    Message('note_off', channel=1, note=42, velocity=64, time=7),
    Message('note_on', channel=1, note=42, velocity=59, time=0),
    Message('note_off', channel=1, note=56, velocity=64, time=3),
    Message('note_off', channel=1, note=42, velocity=64, time=2),
    Message('note_on', channel=1, note=42, velocity=51, time=0),
    Message('note_off', channel=1, note=42, velocity=64, time=6),
    Message('note_on', channel=1, note=42, velocity=45, time=1),
    Message('note_off', channel=1, note=42, velocity=64, time=5),
    Message('note_on', channel=1, note=44, velocity=77, time=0),
    Message('note_off', channel=1, note=44, velocity=64, time=7),
    Message('note_on', channel=1, note=44, velocity=71, time=0),
    Message('note_off', channel=1, note=44, velocity=64, time=6),
    Message('note_on', channel=1, note=44, velocity=65, time=0),
    Message('note_on', channel=1, note=56, velocity=79, time=0),
    Message('note_off', channel=1, note=44, velocity=64, time=6),
    Message('note_on', channel=1, note=44, velocity=59, time=0),
    Message('note_off', channel=1, note=44, velocity=64, time=6),
    Message('note_on', channel=1, note=44, velocity=51, time=0),
    Message('pitchwheel', channel=1, pitch=6930, time=5),
    Message('pitchwheel', channel=1, pitch=7132, time=0),
    Message('note_off', channel=1, note=44, velocity=64, time=0),
    Message('note_on', channel=1, note=44, velocity=45, time=0),
    Message('note_off', channel=1, note=44, velocity=64, time=6),
    Message('note_on', channel=1, note=48, velocity=82, time=0),
    Message('note_off', channel=1, note=56, velocity=64, time=4),
    Message('note_off', channel=1, note=48, velocity=64, time=13),
    Message('note_on', channel=1, note=54, velocity=69, time=7),
    Message('note_on', channel=1, note=42, velocity=96, time=24),
    Message('note_on', channel=1, note=58, velocity=96, time=0),
    Message('note_off', channel=1, note=54, velocity=64, time=13),
    Message('note_on', channel=1, note=54, velocity=60, time=11),
    Message('note_off', channel=1, note=42, velocity=64, time=9),
    Message('note_off', channel=1, note=58, velocity=64, time=16),
    Message('note_on', channel=1, note=43, velocity=8, time=1),
    Message('note_off', channel=1, note=54, velocity=64, time=2),
    Message('note_off', channel=1, note=43, velocity=64, time=8),
    Message('note_on', channel=1, note=44, velocity=64, time=12),
    Message('note_on', channel=1, note=54, velocity=66, time=0),
    Message('note_on', channel=1, note=62, velocity=81, time=26),
    Message('note_off', channel=1, note=44, velocity=64, time=3),
    Message('note_off', channel=1, note=54, velocity=64, time=0),
    Message('note_on', channel=1, note=43, velocity=59, time=20),
    Message('note_on', channel=1, note=58, velocity=59, time=1),
    Message('pitchwheel', channel=1, pitch=7132, time=0),
    Message('pitchwheel', channel=1, pitch=7031, time=0),
    Message('note_off', channel=1, note=62, velocity=64, time=2),
    Message('note_on', channel=1, note=57, velocity=81, time=2),
    Message('note_off', channel=1, note=43, velocity=64, time=7),
    Message('note_on', channel=1, note=43, velocity=49, time=11),
    Message('note_off', channel=1, note=57, velocity=64, time=10),
    Message('note_off', channel=1, note=43, velocity=64, time=2),
    Message('note_off', channel=1, note=58, velocity=64, time=8),
    Message('note_on', channel=1, note=56, velocity=66, time=4),
    Message('note_off', channel=1, note=56, velocity=64, time=20),
    Message('note_on', channel=1, note=57, velocity=82, time=4),
    Message('note_on', channel=1, note=55, velocity=92, time=24),
    Message('note_on', channel=1, note=54, velocity=59, time=0),
    Message('note_off', channel=1, note=57, velocity=64, time=2),
    Message('note_off', channel=1, note=54, velocity=64, time=20),
    Message('note_on', channel=1, note=40, velocity=75, time=2),
    Message('note_on', channel=1, note=43, velocity=51, time=0),
    Message('note_on', channel=1, note=61, velocity=58, time=1),
    Message('note_off', channel=1, note=55, velocity=64, time=1),
    Message('pitchwheel', channel=1, pitch=7031, time=3),
    Message('pitchwheel', channel=1, pitch=7636, time=0),
    Message('note_off', channel=1, note=43, velocity=64, time=4),
    Message('note_off', channel=1, note=61, velocity=64, time=11),
    Message('note_off', channel=1, note=40, velocity=64, time=1),
    Message('note_on', channel=1, note=54, velocity=85, time=51),
    Message('note_off', channel=1, note=54, velocity=64, time=21),
    Message('note_on', channel=1, note=53, velocity=104, time=3),
    Message('note_off', channel=1, note=53, velocity=64, time=8),
    Message('note_on', channel=1, note=48, velocity=83, time=4),
    Message('note_on', channel=1, note=54, velocity=88, time=12),
    Message('note_off', channel=1, note=48, velocity=64, time=0),
    Message('pitchwheel', channel=1, pitch=7636, time=21),
    Message('pitchwheel', channel=1, pitch=7031, time=0),
    Message('note_off', channel=1, note=54, velocity=64, time=6),
    Message('note_on', channel=1, note=54, velocity=82, time=21),
    Message('note_on', channel=1, note=57, velocity=100, time=0),
    Message('note_off', channel=1, note=54, velocity=64, time=19),
    Message('note_off', channel=1, note=57, velocity=64, time=4),
    Message('note_on', channel=1, note=44, velocity=103, time=25),
    Message('note_on', channel=1, note=54, velocity=88, time=0),
    Message('note_off', channel=1, note=54, velocity=64, time=21),
    Message('note_off', channel=1, note=44, velocity=64, time=3),
    Message('note_on', channel=1, note=52, velocity=77, time=6),
    Message('note_off', channel=1, note=52, velocity=64, time=17),
    Message('note_on', channel=1, note=55, velocity=77, time=1),
    Message('note_on', channel=1, note=56, velocity=85, time=0),
    Message('pitchwheel', channel=1, pitch=7031, time=12),
    Message('pitchwheel', channel=1, pitch=7081, time=0),
    Message('note_off', channel=1, note=55, velocity=64, time=5),
    Message('note_on', channel=1, note=47, velocity=85, time=7),
    Message('note_off', channel=1, note=47, velocity=64, time=8),
    Message('note_off', channel=1, note=56, velocity=64, time=13),
    Message('note_on', channel=1, note=42, velocity=104, time=3),
    Message('note_on', channel=1, note=58, velocity=95, time=0),
    Message('note_off', channel=1, note=42, velocity=64, time=9),
    Message('pitchwheel', channel=1, pitch=7081, time=2),
    Message('pitchwheel', channel=1, pitch=7535, time=0),
    Message('note_off', channel=1, note=58, velocity=64, time=0),
    Message('note_on', channel=1, note=42, velocity=75, time=25),
    Message('note_off', channel=1, note=42, velocity=64, time=11),
    Message('note_on', channel=1, note=54, velocity=92, time=1),
    Message('note_on', channel=1, note=60, velocity=87, time=12),
    Message('note_off', channel=1, note=60, velocity=64, time=6),
    Message('note_on', channel=1, note=60, velocity=81, time=0),
    Message('note_off', channel=1, note=60, velocity=64, time=6),
    Message('note_on', channel=1, note=60, velocity=75, time=0),
    Message('note_off', channel=1, note=54, velocity=64, time=1),
    Message('note_off', channel=1, note=60, velocity=64, time=5),
    Message('note_on', channel=1, note=60, velocity=69, time=0),
    Message('note_off', channel=1, note=60, velocity=64, time=6),
    Message('note_on', channel=1, note=60, velocity=61, time=0),
    Message('note_off', channel=1, note=60, velocity=64, time=6),
    Message('note_on', channel=1, note=60, velocity=55, time=0),
    Message('note_off', channel=1, note=60, velocity=64, time=6),
    Message('note_on', channel=1, note=57, velocity=87, time=0),
    Message('note_on', channel=1, note=42, velocity=99, time=0),
    Message('note_on', channel=1, note=54, velocity=88, time=0),
    Message('note_off', channel=1, note=57, velocity=64, time=6),
    Message('note_on', channel=1, note=57, velocity=79, time=0),
    Message('note_off', channel=1, note=57, velocity=64, time=6),
    Message('note_on', channel=1, note=57, velocity=72, time=0),
    Message('note_off', channel=1, note=57, velocity=64, time=6),
    Message('note_on', channel=1, note=57, velocity=64, time=0),
    Message('note_off', channel=1, note=54, velocity=64, time=0),
    Message('note_off', channel=1, note=57, velocity=64, time=6),
    Message('note_on', channel=1, note=57, velocity=57, time=0),
    Message('note_off', channel=1, note=42, velocity=64, time=2),
    Message('note_off', channel=1, note=57, velocity=64, time=4),
    Message('note_on', channel=1, note=57, velocity=49, time=0),
    Message('note_off', channel=1, note=57, velocity=64, time=6),
    Message('note_on', channel=1, note=57, velocity=42, time=0),
    Message('note_off', channel=1, note=57, velocity=64, time=6),
    Message('note_on', channel=1, note=57, velocity=35, time=0),
    Message('note_off', channel=1, note=57, velocity=64, time=6),
    Message('note_on', channel=1, note=56, velocity=99, time=0),
    Message('note_on', channel=1, note=91, velocity=95, time=0),
    Message('note_on', channel=1, note=68, velocity=95, time=1),
    Message('note_off', channel=1, note=91, velocity=64, time=8),
    Message('note_off', channel=1, note=68, velocity=64, time=0),
    Message('note_on', channel=1, note=91, velocity=95, time=15),
    Message('note_on', channel=1, note=43, velocity=80, time=0),
    Message('note_on', channel=1, note=68, velocity=95, time=0),
    Message('note_off', channel=1, note=43, velocity=64, time=5),
    Message('note_off', channel=1, note=68, velocity=64, time=5),
    Message('note_off', channel=1, note=91, velocity=64, time=0),
    Message('note_off', channel=1, note=56, velocity=64, time=1),
    Message('note_on', channel=1, note=43, velocity=95, time=1),
    Message('note_off', channel=1, note=43, velocity=64, time=9),
    Message('pitchwheel', channel=1, pitch=7535, time=1),
    Message('pitchwheel', channel=1, pitch=7031, time=0),
    Message('note_on', channel=1, note=54, velocity=99, time=2),
    Message('note_on', channel=1, note=42, velocity=102, time=24),
    Message('note_off', channel=1, note=54, velocity=64, time=10),
    Message('note_on', channel=1, note=39, velocity=102, time=2),
    Message('note_on', channel=1, note=54, velocity=62, time=12),
    Message('note_off', channel=1, note=42, velocity=64, time=5),
    Message('note_off', channel=1, note=39, velocity=64, time=12),
    Message('note_off', channel=1, note=54, velocity=64, time=5),
    Message('pitchwheel', channel=1, pitch=7031, time=1),
    Message('pitchwheel', channel=1, pitch=7535, time=0),
    Message('note_on', channel=1, note=43, velocity=108, time=1),
    Message('note_off', channel=1, note=43, velocity=64, time=13),
    Message('note_on', channel=1, note=54, velocity=88, time=11),
    Message('note_on', channel=1, note=42, velocity=47, time=0),
    Message('note_off', channel=1, note=54, velocity=64, time=25),
    Message('note_off', channel=1, note=42, velocity=64, time=5),
    Message('note_on', channel=1, note=61, velocity=96, time=18),
    Message('note_on', channel=1, note=55, velocity=87, time=0),
    Message('note_on', channel=1, note=56, velocity=96, time=0),
    Message('note_off', channel=1, note=55, velocity=64, time=7),
    Message('note_on', channel=1, note=43, velocity=67, time=17),
    Message('note_off', channel=1, note=56, velocity=64, time=5),
    Message('note_off', channel=1, note=61, velocity=64, time=0),
    Message('note_off', channel=1, note=43, velocity=64, time=1),
    Message('note_on', channel=1, note=42, velocity=88, time=18),
    Message('note_on', channel=1, note=54, velocity=85, time=0),
    Message('note_off', channel=1, note=42, velocity=64, time=6),
    Message('note_off', channel=1, note=54, velocity=64, time=4),
    Message('note_on', channel=1, note=46, velocity=79, time=14),
    Message('pitchwheel', channel=1, pitch=7535, time=5),
    Message('pitchwheel', channel=1, pitch=7787, time=0),
    Message('note_on', channel=1, note=54, velocity=102, time=19),
    Message('note_on', channel=1, note=59, velocity=79, time=0),
    Message('note_off', channel=1, note=46, velocity=64, time=8),
    Message('note_on', channel=1, note=57, velocity=79, time=5),
    Message('note_on', channel=1, note=53, velocity=101, time=11),
    Message('note_off', channel=1, note=54, velocity=64, time=4),
    Message('note_off', channel=1, note=59, velocity=64, time=6),
    Message('note_off', channel=1, note=57, velocity=64, time=11),
    Message('note_off', channel=1, note=53, velocity=64, time=12),
    Message('note_on', channel=1, note=74, velocity=41, time=3),
    Message('note_off', channel=1, note=74, velocity=64, time=6),
    Message('note_on', channel=1, note=74, velocity=50, time=0),
    Message('note_off', channel=1, note=74, velocity=64, time=6),
    Message('note_on', channel=1, note=74, velocity=59, time=0),
    Message('pitchwheel', channel=1, pitch=7787, time=0),
    Message('pitchwheel', channel=1, pitch=7485, time=0),
    Message('note_off', channel=1, note=74, velocity=64, time=6),
    Message('note_on', channel=1, note=74, velocity=67, time=0),
    Message('note_off', channel=1, note=74, velocity=64, time=6),
    Message('note_on', channel=1, note=74, velocity=76, time=0),
    Message('note_off', channel=1, note=74, velocity=64, time=6),
    Message('note_on', channel=1, note=74, velocity=85, time=0),
    Message('note_off', channel=1, note=74, velocity=64, time=6),
    Message('note_on', channel=1, note=56, velocity=113, time=0),
    Message('note_on', channel=1, note=61, velocity=113, time=0),
    Message('note_on', channel=1, note=69, velocity=113, time=0),
    Message('note_on', channel=1, note=43, velocity=67, time=24),
    Message('note_off', channel=1, note=43, velocity=64, time=7),
    Message('note_off', channel=1, note=69, velocity=64, time=4),
    Message('note_off', channel=1, note=56, velocity=64, time=0),
    Message('note_off', channel=1, note=61, velocity=64, time=0),
    Message('note_on', channel=1, note=43, velocity=70, time=13),
    Message('note_on', channel=1, note=58, velocity=62, time=0),
    Message('note_off', channel=1, note=43, velocity=64, time=12),
    Message('note_off', channel=1, note=58, velocity=64, time=10),
    Message('note_on', channel=1, note=43, velocity=70, time=14),
    Message('note_off', channel=1, note=43, velocity=64, time=21),
    Message('note_on', channel=1, note=43, velocity=46, time=15),
    Message('note_off', channel=1, note=43, velocity=64, time=18),
    Message('note_on', channel=1, note=58, velocity=79, time=6),
    Message('note_off', channel=1, note=58, velocity=64, time=29),
    Message('note_on', channel=1, note=43, velocity=43, time=7),
    Message('note_off', channel=1, note=43, velocity=64, time=23),
    Message('note_on', channel=1, note=58, velocity=42, time=1),
    Message('note_off', channel=1, note=58, velocity=64, time=8),
    Message('note_on', channel=1, note=43, velocity=39, time=4),
    Message('pitchwheel', channel=1, pitch=7485, time=24),
    Message('pitchwheel', channel=1, pitch=7384, time=0),
    Message('note_on', channel=1, note=58, velocity=79, time=0),
    Message('note_off', channel=1, note=43, velocity=64, time=10),
    Message('note_on', channel=1, note=43, velocity=35, time=14),
    Message('note_off', channel=1, note=58, velocity=64, time=5),
    Message('note_off', channel=1, note=43, velocity=64, time=25),
    Message('note_on', channel=1, note=43, velocity=27, time=18),
    Message('note_on', channel=1, note=58, velocity=66, time=24),
    Message('note_off', channel=1, note=43, velocity=64, time=9),
    Message('note_on', channel=1, note=43, velocity=33, time=15),
    Message('note_off', channel=1, note=58, velocity=64, time=3),
    Message('note_on', channel=1, note=58, velocity=29, time=21),
    Message('note_off', channel=1, note=43, velocity=64, time=6),
    Message('note_off', channel=1, note=58, velocity=64, time=9),
    Message('note_on', channel=1, note=43, velocity=36, time=9),
    Message('note_on', channel=1, note=58, velocity=52, time=24),
    Message('note_off', channel=1, note=43, velocity=64, time=1),
    Message('note_on', channel=1, note=43, velocity=30, time=23),
    Message('note_off', channel=1, note=58, velocity=64, time=3),
    Message('note_on', channel=1, note=58, velocity=18, time=21),
    Message('note_off', channel=1, note=58, velocity=64, time=22),
    Message('note_on', channel=1, note=58, velocity=42, time=26),
    Message('note_off', channel=1, note=58, velocity=64, time=24),
    Message('note_on', channel=1, note=58, velocity=25, time=24),
    Message('note_off', channel=1, note=58, velocity=64, time=19),
    Message('note_on', channel=1, note=58, velocity=39, time=29),
    Message('note_off', channel=1, note=58, velocity=64, time=26),
    Message('note_on', channel=1, note=58, velocity=25, time=22),
    Message('note_off', channel=1, note=58, velocity=64, time=21),
    Message('note_off', channel=1, note=43, velocity=64, time=23),
    Message('note_on', channel=1, note=58, velocity=46, time=4),
    Message('note_off', channel=1, note=58, velocity=64, time=23),
    Message('note_on', channel=1, note=58, velocity=1, time=26),
    Message('note_off', channel=1, note=58, velocity=64, time=19),
    Message('note_on', channel=1, note=58, velocity=42, time=29),
    Message('note_off', channel=1, note=58, velocity=64, time=36),
    Message('control_change', channel=1, control=11, value=95, time=6352),
    Message('control_change', channel=1, control=11, value=127, time=0),
    Message('note_on', channel=1, note=58, velocity=75, time=27),
    Message('note_off', channel=1, note=58, velocity=64, time=105),
    Message('note_on', channel=1, note=58, velocity=79, time=88),
    Message('note_off', channel=1, note=58, velocity=64, time=93),
    Message('note_on', channel=1, note=58, velocity=82, time=98),
    Message('note_off', channel=1, note=58, velocity=64, time=44),
    Message('note_on', channel=1, note=58, velocity=82, time=148),
    Message('note_off', channel=1, note=58, velocity=64, time=99),
    Message('note_on', channel=1, note=58, velocity=79, time=93),
    Message('note_off', channel=1, note=58, velocity=64, time=93),
    Message('note_on', channel=1, note=58, velocity=88, time=99),
    Message('note_off', channel=1, note=58, velocity=64, time=102),
    Message('note_on', channel=1, note=58, velocity=88, time=90),
    Message('note_off', channel=1, note=58, velocity=64, time=107),
    Message('note_on', channel=1, note=58, velocity=92, time=85),
    Message('note_off', channel=1, note=58, velocity=64, time=105),
    Message('note_on', channel=1, note=61, velocity=52, time=87),
    Message('note_on', channel=1, note=69, velocity=68, time=0),
    Message('note_off', channel=1, note=61, velocity=64, time=62),
    Message('note_off', channel=1, note=69, velocity=64, time=16),
    Message('note_on', channel=1, note=61, velocity=75, time=114),
    Message('note_on', channel=1, note=69, velocity=87, time=1),
    Message('control_change', channel=1, control=11, value=127, time=95),
    Message('control_change', channel=1, control=11, value=60, time=0),
    Message('note_on', channel=1, note=54, velocity=88, time=0),
    Message('control_change', channel=1, control=11, value=60, time=3),
    Message('control_change', channel=1, control=11, value=61, time=1),
    Message('pitchwheel', channel=1, pitch=7384, time=5),
    Message('pitchwheel', channel=1, pitch=0, time=0),
    Message('note_off', channel=1, note=54, velocity=64, time=4),
    Message('control_change', channel=1, control=11, value=62, time=1),
    Message('control_change', channel=1, control=11, value=62, time=1),
    Message('control_change', channel=1, control=11, value=63, time=9),
    Message('note_on', channel=1, note=54, velocity=68, time=0),
    Message('control_change', channel=1, control=11, value=63, time=3),
    Message('control_change', channel=1, control=11, value=64, time=6),
    Message('note_off', channel=1, note=54, velocity=64, time=4),
    Message('control_change', channel=1, control=11, value=64, time=2),
    Message('control_change', channel=1, control=11, value=65, time=4),
    Message('note_on', channel=1, note=54, velocity=113, time=6),
    Message('control_change', channel=1, control=11, value=65, time=2),
    Message('control_change', channel=1, control=11, value=66, time=1),
    Message('control_change', channel=1, control=11, value=67, time=9),
    Message('control_change', channel=1, control=11, value=67, time=2),
    Message('control_change', channel=1, control=11, value=68, time=8),
    Message('note_on', channel=1, note=56, velocity=66, time=2),
    Message('control_change', channel=1, control=11, value=68, time=2),
    Message('control_change', channel=1, control=11, value=69, time=6),
    Message('note_off', channel=1, note=54, velocity=64, time=5),
    Message('control_change', channel=1, control=11, value=69, time=1),
    Message('control_change', channel=1, control=11, value=70, time=4),
    Message('note_off', channel=1, note=56, velocity=64, time=0),
    Message('control_change', channel=1, control=11, value=70, time=8),
    Message('control_change', channel=1, control=11, value=71, time=1),
    Message('note_off', channel=1, note=61, velocity=64, time=7),
    Message('note_off', channel=1, note=69, velocity=64, time=0),
    Message('control_change', channel=1, control=11, value=72, time=3),
    Message('control_change', channel=1, control=11, value=72, time=1),
    Message('control_change', channel=1, control=11, value=73, time=9),
    Message('note_on', channel=1, note=56, velocity=90, time=1),
    Message('control_change', channel=1, control=11, value=73, time=2),
    Message('control_change', channel=1, control=11, value=74, time=6),
    Message('control_change', channel=1, control=11, value=74, time=6),
    Message('note_off', channel=1, note=56, velocity=64, time=4),
    Message('control_change', channel=1, control=11, value=75, time=0),
    Message('note_on', channel=1, note=54, velocity=99, time=6),
    Message('control_change', channel=1, control=11, value=75, time=2),
    Message('control_change', channel=1, control=11, value=76, time=1),
    Message('control_change', channel=1, control=11, value=77, time=10),
    Message('control_change', channel=1, control=11, value=77, time=1),
    Message('control_change', channel=1, control=11, value=78, time=8),
    Message('note_on', channel=1, note=56, velocity=75, time=1),
    Message('control_change', channel=1, control=11, value=78, time=3),
    Message('control_change', channel=1, control=11, value=79, time=6),
    Message('control_change', channel=1, control=11, value=79, time=6),
    Message('note_off', channel=1, note=54, velocity=64, time=0),
    Message('note_off', channel=1, note=56, velocity=64, time=3),
    Message('control_change', channel=1, control=11, value=80, time=0),
    Message('control_change', channel=1, control=11, value=80, time=9),
    Message('control_change', channel=1, control=11, value=81, time=1),
    Message('control_change', channel=1, control=11, value=82, time=10),
    Message('control_change', channel=1, control=11, value=82, time=1),
    Message('control_change', channel=1, control=11, value=83, time=8),
    Message('control_change', channel=1, control=11, value=83, time=4),
    Message('control_change', channel=1, control=11, value=84, time=6),
    Message('control_change', channel=1, control=11, value=84, time=6),
    Message('control_change', channel=1, control=11, value=85, time=5),
    Message('note_on', channel=1, note=54, velocity=107, time=5),
    Message('control_change', channel=1, control=11, value=85, time=2),
    Message('control_change', channel=1, control=11, value=86, time=4),
    Message('control_change', channel=1, control=11, value=86, time=8),
    Message('control_change', channel=1, control=11, value=87, time=1),
    Message('note_on', channel=1, note=56, velocity=85, time=8),
    Message('control_change', channel=1, control=11, value=88, time=1),
    Message('control_change', channel=1, control=11, value=88, time=2),
    Message('control_change', channel=1, control=11, value=89, time=8),
    Message('note_off', channel=1, note=54, velocity=64, time=3),
    Message('control_change', channel=1, control=11, value=89, time=1),
    Message('note_off', channel=1, note=56, velocity=64, time=5),
    Message('control_change', channel=1, control=11, value=90, time=0),
    Message('control_change', channel=1, control=11, value=90, time=7),
    Message('control_change', channel=1, control=11, value=91, time=3),
    Message('control_change', channel=1, control=11, value=91, time=9),
    Message('control_change', channel=1, control=11, value=92, time=1),
    Message('control_change', channel=1, control=11, value=93, time=9),
    Message('note_on', channel=1, note=56, velocity=88, time=1),
    Message('control_change', channel=1, control=11, value=93, time=1),
    Message('control_change', channel=1, control=11, value=94, time=8),
    Message('control_change', channel=1, control=11, value=94, time=4),
    Message('control_change', channel=1, control=11, value=95, time=5),
    Message('note_off', channel=1, note=56, velocity=64, time=1),
    Message('note_on', channel=1, note=54, velocity=102, time=4),
    Message('control_change', channel=1, control=11, value=95, time=2),
    Message('control_change', channel=1, control=11, value=96, time=3),
    Message('control_change', channel=1, control=11, value=96, time=9),
    Message('control_change', channel=1, control=11, value=97, time=1),
    Message('control_change', channel=1, control=11, value=98, time=10),
    Message('note_on', channel=1, note=56, velocity=92, time=0),
    Message('control_change', channel=1, control=11, value=98, time=1),
    Message('note_off', channel=1, note=54, velocity=64, time=5),
    Message('control_change', channel=1, control=11, value=99, time=3),
    Message('control_change', channel=1, control=11, value=99, time=4),
    Message('control_change', channel=1, control=11, value=100, time=5),
    Message('note_off', channel=1, note=56, velocity=64, time=0),
    Message('control_change', channel=1, control=11, value=100, time=7),
    Message('control_change', channel=1, control=11, value=101, time=3),
    Message('pitchwheel', channel=1, pitch=0, time=3),
    Message('pitchwheel', channel=1, pitch=0, time=0),
    Message('control_change', channel=1, control=11, value=101, time=6),
    Message('control_change', channel=1, control=11, value=102, time=1),
    Message('control_change', channel=1, control=11, value=103, time=9),
    Message('control_change', channel=1, control=11, value=103, time=2),
    Message('control_change', channel=1, control=11, value=104, time=8),
    Message('control_change', channel=1, control=11, value=104, time=4),
    Message('control_change', channel=1, control=11, value=105, time=5),
    Message('note_on', channel=1, note=54, velocity=113, time=6),
    Message('control_change', channel=1, control=11, value=105, time=1),
    Message('control_change', channel=1, control=11, value=106, time=3),
    Message('control_change', channel=1, control=11, value=106, time=9),
    Message('control_change', channel=1, control=11, value=107, time=0),
    Message('note_on', channel=1, note=56, velocity=66, time=9),
    Message('control_change', channel=1, control=11, value=108, time=1),
    Message('control_change', channel=1, control=11, value=108, time=2),
    Message('control_change', channel=1, control=11, value=109, time=8),
    Message('note_off', channel=1, note=54, velocity=64, time=3),
    Message('control_change', channel=1, control=11, value=109, time=1),
    Message('note_off', channel=1, note=56, velocity=64, time=3),
    Message('control_change', channel=1, control=11, value=110, time=2),
    Message('control_change', channel=1, control=11, value=110, time=7),
    Message('control_change', channel=1, control=11, value=111, time=5),
    Message('control_change', channel=1, control=11, value=111, time=7),
    Message('control_change', channel=1, control=11, value=112, time=1),
    Message('note_on', channel=1, note=56, velocity=90, time=9),
    Message('control_change', channel=1, control=11, value=113, time=1),
    Message('control_change', channel=1, control=11, value=113, time=1),
    Message('control_change', channel=1, control=11, value=114, time=8),
    Message('control_change', channel=1, control=11, value=114, time=4),
    Message('note_off', channel=1, note=56, velocity=64, time=3),
    Message('control_change', channel=1, control=11, value=115, time=3),
    Message('note_on', channel=1, note=54, velocity=99, time=2),
    Message('control_change', channel=1, control=11, value=115, time=4),
    Message('control_change', channel=1, control=11, value=116, time=3),
    Message('control_change', channel=1, control=11, value=116, time=9),
    Message('control_change', channel=1, control=11, value=117, time=1),
    Message('note_on', channel=1, note=56, velocity=75, time=9),
    Message('control_change', channel=1, control=11, value=118, time=1),
    Message('control_change', channel=1, control=11, value=118, time=1),
    Message('control_change', channel=1, control=11, value=119, time=8),
    Message('note_off', channel=1, note=54, velocity=64, time=4),
    Message('note_off', channel=1, note=56, velocity=64, time=3),
    Message('note_on', channel=1, note=44, velocity=97, time=4),
    Message('note_off', channel=1, note=44, velocity=64, time=10),
    Message('note_on', channel=1, note=44, velocity=99, time=18),
    Message('note_off', channel=1, note=44, velocity=64, time=9),
    Message('note_on', channel=1, note=44, velocity=103, time=14),
    Message('note_off', channel=1, note=44, velocity=64, time=10),
    Message('note_on', channel=1, note=44, velocity=109, time=15),
    Message('note_off', channel=1, note=44, velocity=64, time=10),
    Message('note_on', channel=1, note=44, velocity=115, time=13),
    Message('note_off', channel=1, note=44, velocity=64, time=10),
    Message('note_on', channel=1, note=44, velocity=108, time=16),
    Message('note_off', channel=1, note=44, velocity=64, time=8),
    Message('note_on', channel=1, note=44, velocity=121, time=14),
    Message('note_off', channel=1, note=44, velocity=64, time=9),
    Message('note_on', channel=1, note=44, velocity=127, time=17),
    Message('note_off', channel=1, note=44, velocity=64, time=13),
    Message('note_on', channel=1, note=36, velocity=113, time=8),
    Message('note_on', channel=1, note=56, velocity=88, time=25),
    Message('note_off', channel=1, note=36, velocity=64, time=20),
    Message('note_on', channel=1, note=44, velocity=106, time=2),
    Message('note_off', channel=1, note=56, velocity=64, time=4),
    Message('note_on', channel=1, note=56, velocity=71, time=22),
    Message('note_off', channel=1, note=56, velocity=64, time=21),
    Message('note_off', channel=1, note=44, velocity=64, time=1),
    Message('note_on', channel=1, note=54, velocity=102, time=28),
    Message('note_on', channel=1, note=44, velocity=106, time=22),
    Message('note_off', channel=1, note=54, velocity=64, time=15),
    Message('note_on', channel=1, note=56, velocity=82, time=9),
    Message('note_on', channel=1, note=36, velocity=100, time=22),
    Message('note_off', channel=1, note=44, velocity=64, time=2),
    Message('note_off', channel=1, note=56, velocity=64, time=2),
    Message('note_on', channel=1, note=56, velocity=64, time=23),
    Message('note_off', channel=1, note=36, velocity=64, time=22),
    Message('note_on', channel=1, note=44, velocity=114, time=0),
    Message('note_off', channel=1, note=56, velocity=64, time=4),
    Message('note_on', channel=1, note=56, velocity=79, time=22),
    Message('note_off', channel=1, note=56, velocity=64, time=23),
    Message('note_off', channel=1, note=44, velocity=64, time=2),
    Message('note_on', channel=1, note=54, velocity=113, time=22),
    Message('note_on', channel=1, note=44, velocity=106, time=23),
    Message('note_off', channel=1, note=54, velocity=64, time=20),
    Message('note_on', channel=1, note=56, velocity=96, time=5),
    Message('note_on', channel=1, note=36, velocity=96, time=24),
    Message('note_off', channel=1, note=44, velocity=64, time=1),
    Message('note_off', channel=1, note=56, velocity=64, time=5),
    Message('note_on', channel=1, note=56, velocity=79, time=19),
    Message('note_on', channel=1, note=44, velocity=114, time=23),
    Message('note_off', channel=1, note=36, velocity=64, time=4),
    Message('note_off', channel=1, note=56, velocity=64, time=2),
    Message('note_on', channel=1, note=56, velocity=79, time=19),
    Message('note_off', channel=1, note=44, velocity=64, time=26),
    Message('note_off', channel=1, note=56, velocity=64, time=1),
    Message('note_on', channel=1, note=54, velocity=119, time=20),
    Message('note_on', channel=1, note=44, velocity=106, time=24),
    Message('note_off', channel=1, note=54, velocity=64, time=22),
    Message('note_on', channel=1, note=56, velocity=85, time=1),
    Message('note_on', channel=1, note=36, velocity=104, time=25),
    Message('note_off', channel=1, note=56, velocity=64, time=0),
    Message('note_off', channel=1, note=44, velocity=64, time=0),
    Message('note_on', channel=1, note=56, velocity=71, time=23),
    Message('note_off', channel=1, note=36, velocity=64, time=23),
    Message('note_on', channel=1, note=44, velocity=114, time=1),
    Message('note_off', channel=1, note=56, velocity=64, time=0),
    Message('note_on', channel=1, note=56, velocity=90, time=24),
    Message('note_off', channel=1, note=44, velocity=64, time=19),
    Message('note_off', channel=1, note=56, velocity=64, time=1),
    Message('note_on', channel=1, note=54, velocity=127, time=30),
    Message('note_on', channel=1, note=44, velocity=119, time=24),
    Message('note_off', channel=1, note=44, velocity=64, time=12),
    Message('note_on', channel=1, note=44, velocity=107, time=10),
    Message('note_off', channel=1, note=54, velocity=64, time=16),
    Message('note_off', channel=1, note=44, velocity=64, time=6),
    Message('note_on', channel=1, note=36, velocity=110, time=2),
    Message('note_on', channel=1, note=56, velocity=82, time=25),
    Message('note_off', channel=1, note=36, velocity=64, time=20),
    Message('note_on', channel=1, note=44, velocity=106, time=4),
    Message('note_off', channel=1, note=56, velocity=64, time=2),
    Message('note_on', channel=1, note=56, velocity=82, time=23),
    Message('note_off', channel=1, note=56, velocity=64, time=21),
    Message('note_off', channel=1, note=44, velocity=64, time=2),
    Message('note_on', channel=1, note=54, velocity=119, time=24),
    Message('note_on', channel=1, note=44, velocity=106, time=23),
    Message('note_off', channel=1, note=54, velocity=64, time=22),
    Message('note_on', channel=1, note=56, velocity=79, time=3),
    Message('note_on', channel=1, note=36, velocity=104, time=23),
    Message('note_off', channel=1, note=44, velocity=64, time=3),
    Message('note_off', channel=1, note=56, velocity=64, time=1),
    Message('note_on', channel=1, note=56, velocity=64, time=22),
    Message('note_off', channel=1, note=36, velocity=64, time=22),
    Message('note_on', channel=1, note=44, velocity=106, time=1),
    Message('note_off', channel=1, note=56, velocity=64, time=0),
    Message('note_on', channel=1, note=56, velocity=68, time=25),
    Message('note_off', channel=1, note=44, velocity=64, time=15),
    Message('note_off', channel=1, note=56, velocity=64, time=1),
    Message('note_on', channel=1, note=54, velocity=119, time=32),
    Message('note_on', channel=1, note=44, velocity=106, time=22),
    Message('note_off', channel=1, note=54, velocity=64, time=18),
    Message('note_on', channel=1, note=56, velocity=88, time=7),
    Message('note_on', channel=1, note=36, velocity=98, time=23),
    Message('note_off', channel=1, note=56, velocity=64, time=3),
    Message('note_off', channel=1, note=44, velocity=64, time=0),
    Message('note_on', channel=1, note=56, velocity=69, time=22),
    Message('note_on', channel=1, note=44, velocity=106, time=22),
    Message('note_off', channel=1, note=56, velocity=64, time=2),
    Message('note_off', channel=1, note=36, velocity=64, time=2),
    Message('note_on', channel=1, note=56, velocity=75, time=22),
    Message('note_off', channel=1, note=44, velocity=64, time=17),
    Message('note_off', channel=1, note=56, velocity=64, time=6),
    Message('note_on', channel=1, note=54, velocity=119, time=25),
    Message('note_on', channel=1, note=44, velocity=114, time=24),
    Message('note_off', channel=1, note=54, velocity=64, time=16),
    Message('note_on', channel=1, note=56, velocity=96, time=8),
    Message('note_on', channel=1, note=36, velocity=107, time=23),
    Message('note_off', channel=1, note=44, velocity=64, time=1),
    Message('note_off', channel=1, note=56, velocity=64, time=6),
    Message('note_on', channel=1, note=56, velocity=88, time=18),
    Message('note_on', channel=1, note=44, velocity=106, time=24),
    Message('note_off', channel=1, note=36, velocity=64, time=1),
    Message('note_off', channel=1, note=56, velocity=64, time=1),
    Message('note_on', channel=1, note=58, velocity=113, time=21),
    Message('note_off', channel=1, note=44, velocity=64, time=25),
    Message('note_on', channel=1, note=56, velocity=85, time=0),
    Message('note_off', channel=1, note=58, velocity=64, time=4),
    Message('note_off', channel=1, note=56, velocity=64, time=8),
    Message('note_on', channel=1, note=58, velocity=113, time=13),
    Message('note_on', channel=1, note=56, velocity=99, time=24),
    Message('note_off', channel=1, note=58, velocity=64, time=3),
    Message('note_off', channel=1, note=56, velocity=64, time=9),
    Message('note_on', channel=1, note=58, velocity=119, time=12),
    Message('note_on', channel=1, note=56, velocity=92, time=22),
    Message('note_off', channel=1, note=58, velocity=64, time=10),
    Message('note_on', channel=1, note=54, velocity=107, time=14),
    Message('note_off', channel=1, note=56, velocity=64, time=6),
    Message('note_on', channel=1, note=44, velocity=114, time=20),
    Message('note_off', channel=1, note=54, velocity=64, time=4),
    Message('note_on', channel=1, note=56, velocity=88, time=19),
    Message('note_off', channel=1, note=56, velocity=64, time=20),
    Message('note_off', channel=1, note=44, velocity=64, time=17),
    Message('note_on', channel=1, note=56, velocity=107, time=13),
    Message('note_on', channel=1, note=44, velocity=106, time=22),
    Message('note_off', channel=1, note=56, velocity=64, time=1),
    Message('note_on', channel=1, note=56, velocity=99, time=24),
    Message('note_on', channel=1, note=36, velocity=104, time=24),
    Message('note_off', channel=1, note=44, velocity=64, time=0),
    Message('note_off', channel=1, note=56, velocity=64, time=2),
    Message('note_on', channel=1, note=56, velocity=82, time=22),
    Message('note_on', channel=1, note=44, velocity=106, time=24),
    Message('note_off', channel=1, note=36, velocity=64, time=0),
    Message('note_off', channel=1, note=56, velocity=64, time=0),
    Message('note_on', channel=1, note=56, velocity=99, time=23),
    Message('note_off', channel=1, note=44, velocity=64, time=17),
    Message('note_off', channel=1, note=56, velocity=64, time=9),
    Message('note_on', channel=1, note=54, velocity=119, time=23),
    Message('note_on', channel=1, note=44, velocity=114, time=21),
    Message('note_off', channel=1, note=54, velocity=64, time=17),
    Message('note_on', channel=1, note=56, velocity=92, time=8),
    Message('note_off', channel=1, note=44, velocity=64, time=23),
    Message('note_on', channel=1, note=36, velocity=110, time=4),
    Message('note_off', channel=1, note=56, velocity=64, time=2),
    Message('note_on', channel=1, note=56, velocity=71, time=20),
    Message('note_on', channel=1, note=44, velocity=114, time=22),
    Message('note_off', channel=1, note=56, velocity=64, time=1),
    Message('note_off', channel=1, note=36, velocity=64, time=6),
    Message('note_on', channel=1, note=56, velocity=96, time=19),
    Message('note_off', channel=1, note=44, velocity=64, time=17),
    Message('note_off', channel=1, note=56, velocity=64, time=3),
    Message('note_on', channel=1, note=54, velocity=127, time=31),
    Message('note_on', channel=1, note=44, velocity=106, time=20),
    Message('note_off', channel=1, note=54, velocity=64, time=13),
    Message('note_on', channel=1, note=56, velocity=102, time=14),
    Message('note_off', channel=1, note=44, velocity=64, time=21),
    Message('note_on', channel=1, note=36, velocity=107, time=1),
    Message('note_off', channel=1, note=56, velocity=64, time=3),
    Message('note_on', channel=1, note=56, velocity=92, time=21),
    Message('note_off', channel=1, note=36, velocity=64, time=21),
    Message('note_off', channel=1, note=56, velocity=64, time=1),
    Message('note_on', channel=1, note=44, velocity=106, time=1),
    Message('note_on', channel=1, note=56, velocity=99, time=25),
    Message('note_off', channel=1, note=44, velocity=64, time=11),
    Message('note_on', channel=1, note=54, velocity=107, time=12),
    Message('note_off', channel=1, note=56, velocity=64, time=1),
    Message('note_on', channel=1, note=56, velocity=107, time=24),
    Message('note_off', channel=1, note=54, velocity=64, time=5),
    Message('note_on', channel=1, note=44, velocity=119, time=19),
    Message('note_off', channel=1, note=44, velocity=64, time=12),
    Message('note_on', channel=1, note=44, velocity=119, time=13),
    Message('note_off', channel=1, note=56, velocity=64, time=11),
    Message('note_off', channel=1, note=44, velocity=64, time=8),
    Message('note_on', channel=1, note=36, velocity=110, time=4),
    Message('note_on', channel=1, note=56, velocity=92, time=25),
    Message('note_off', channel=1, note=36, velocity=64, time=19),
    Message('note_off', channel=1, note=56, velocity=64, time=1),
    Message('note_on', channel=1, note=42, velocity=79, time=2),
    Message('note_on', channel=1, note=44, velocity=114, time=1),
    Message('note_off', channel=1, note=42, velocity=64, time=1),
    Message('note_on', channel=1, note=56, velocity=96, time=23),
    Message('note_off', channel=1, note=44, velocity=64, time=19),
    Message('note_off', channel=1, note=56, velocity=64, time=27),
    Message('note_on', channel=1, note=54, velocity=119, time=2),
    Message('note_on', channel=1, note=44, velocity=106, time=23),
    Message('note_off', channel=1, note=54, velocity=64, time=22),
    Message('note_on', channel=1, note=56, velocity=99, time=4),
    Message('note_on', channel=1, note=36, velocity=107, time=22),
    Message('note_off', channel=1, note=44, velocity=64, time=1),
    Message('note_off', channel=1, note=56, velocity=64, time=6),
    Message('note_on', channel=1, note=56, velocity=68, time=19),
    Message('note_off', channel=1, note=36, velocity=64, time=21),
    Message('note_on', channel=1, note=44, velocity=114, time=0),
    Message('note_off', channel=1, note=56, velocity=64, time=3),
    Message('note_on', channel=1, note=56, velocity=90, time=24),
    Message('note_off', channel=1, note=44, velocity=64, time=13),
    Message('note_on', channel=1, note=54, velocity=119, time=34),
    Message('note_off', channel=1, note=56, velocity=64, time=3),
    Message('note_on', channel=1, note=44, velocity=106, time=21),
    Message('note_on', channel=1, note=56, velocity=88, time=25),
    Message('note_off', channel=1, note=54, velocity=64, time=6),
    Message('note_on', channel=1, note=36, velocity=100, time=15),
    Message('note_off', channel=1, note=44, velocity=64, time=5),
    Message('note_off', channel=1, note=56, velocity=64, time=2),
    Message('note_on', channel=1, note=56, velocity=64, time=20),
    Message('note_on', channel=1, note=44, velocity=106, time=22),
    Message('note_off', channel=1, note=56, velocity=64, time=3),
    Message('note_off', channel=1, note=36, velocity=64, time=2),
    Message('note_on', channel=1, note=56, velocity=92, time=19),
    Message('note_off', channel=1, note=44, velocity=64, time=22),
    Message('note_on', channel=1, note=54, velocity=127, time=27),
    Message('note_off', channel=1, note=56, velocity=64, time=5),
    Message('note_on', channel=1, note=44, velocity=106, time=19),
    Message('note_on', channel=1, note=56, velocity=92, time=25),
    Message('note_off', channel=1, note=54, velocity=64, time=3),
    Message('note_on', channel=1, note=36, velocity=104, time=19),
    Message('note_off', channel=1, note=44, velocity=64, time=1),
    Message('note_off', channel=1, note=56, velocity=64, time=5),
    Message('note_on', channel=1, note=56, velocity=69, time=19),
    Message('note_off', channel=1, note=36, velocity=64, time=23),
    Message('note_on', channel=1, note=44, velocity=106, time=0),
    Message('note_off', channel=1, note=56, velocity=64, time=24),
    Message('note_on', channel=1, note=54, velocity=107, time=2),
    Message('note_off', channel=1, note=44, velocity=64, time=18),
    Message('note_on', channel=1, note=56, velocity=64, time=4),
    Message('note_off', channel=1, note=54, velocity=64, time=13),
    Message('note_off', channel=1, note=56, velocity=64, time=6),
    Message('note_on', channel=1, note=58, velocity=107, time=7),
    Message('note_on', channel=1, note=44, velocity=106, time=22),
    Message('note_off', channel=1, note=58, velocity=64, time=10),
    Message('note_on', channel=1, note=56, velocity=107, time=15),
    Message('note_off', channel=1, note=44, velocity=64, time=22),
    Message('note_off', channel=1, note=56, velocity=64, time=6),
    MetaMessage('end_of_track', time=0)]),
  MidiTrack([
    MetaMessage('track_name', name='Soft Jazz Perc 1', time=0),
    MetaMessage('channel_prefix', channel=2, time=0),
    Message('program_change', channel=2, program=91, time=0),
    Message('control_change', channel=2, control=0, value=0, time=0),
    Message('control_change', channel=2, control=32, value=10, time=0),
    Message('control_change', channel=2, control=7, value=127, time=0),
    Message('control_change', channel=2, control=10, value=64, time=0),
    Message('control_change', channel=2, control=91, value=8, time=0),
    Message('control_change', channel=2, control=93, value=0, time=0),
    Message('control_change', channel=2, control=91, value=8, time=2701),
    Message('control_change', channel=2, control=91, value=13, time=0),
    Message('control_change', channel=2, control=91, value=13, time=24),
    Message('control_change', channel=2, control=91, value=13, time=0),
    Message('control_change', channel=2, control=1, value=0, time=10),
    Message('control_change', channel=2, control=1, value=127, time=0),
    Message('control_change', channel=2, control=1, value=127, time=53),
    Message('control_change', channel=2, control=1, value=0, time=0),
    Message('control_change', channel=2, control=10, value=64, time=20),
    Message('control_change', channel=2, control=10, value=82, time=0),
    Message('control_change', channel=2, control=11, value=127, time=9),
    Message('control_change', channel=2, control=11, value=127, time=0),
    Message('note_on', channel=2, note=78, velocity=99, time=80),
    Message('note_on', channel=2, note=73, velocity=99, time=0),
    Message('note_on', channel=2, note=80, velocity=88, time=0),
    Message('note_on', channel=2, note=75, velocity=85, time=1),
    Message('note_on', channel=2, note=66, velocity=82, time=0),
    Message('note_off', channel=2, note=78, velocity=64, time=1),
    Message('note_off', channel=2, note=75, velocity=64, time=1),
    Message('note_off', channel=2, note=73, velocity=64, time=0),
    Message('note_off', channel=2, note=80, velocity=64, time=0),
    Message('note_off', channel=2, note=66, velocity=64, time=1),
    Message('note_on', channel=2, note=66, velocity=92, time=45),
    Message('note_off', channel=2, note=66, velocity=64, time=5),
    Message('note_on', channel=2, note=77, velocity=102, time=17),
    Message('note_on', channel=2, note=80, velocity=102, time=0),
    Message('note_on', channel=2, note=73, velocity=98, time=0),
    Message('note_on', channel=2, note=66, velocity=102, time=1),
    Message('note_off', channel=2, note=73, velocity=64, time=16),
    Message('note_off', channel=2, note=77, velocity=64, time=2),
    Message('note_off', channel=2, note=66, velocity=64, time=0),
    Message('note_off', channel=2, note=80, velocity=64, time=1),
    Message('note_on', channel=2, note=80, velocity=79, time=5),
    Message('note_on', channel=2, note=66, velocity=68, time=1),
    Message('note_on', channel=2, note=73, velocity=90, time=0),
    Message('note_on', channel=2, note=77, velocity=48, time=1),
    Message('note_off', channel=2, note=66, velocity=64, time=4),
    Message('note_off', channel=2, note=80, velocity=64, time=1),
    Message('note_off', channel=2, note=77, velocity=64, time=0),
    Message('note_off', channel=2, note=73, velocity=64, time=0),
    Message('note_on', channel=2, note=75, velocity=90, time=40),
    Message('note_on', channel=2, note=66, velocity=96, time=0),
    Message('note_on', channel=2, note=73, velocity=92, time=0),
    Message('note_off', channel=2, note=75, velocity=64, time=2),
    Message('note_off', channel=2, note=66, velocity=64, time=2),
    Message('note_off', channel=2, note=73, velocity=64, time=0),
    Message('note_on', channel=2, note=58, velocity=107, time=22),
    Message('note_off', channel=2, note=58, velocity=64, time=2),
    Message('note_on', channel=2, note=60, velocity=92, time=0),
    Message('note_off', channel=2, note=60, velocity=64, time=2),
    Message('note_on', channel=2, note=66, velocity=90, time=18),
    Message('note_off', channel=2, note=66, velocity=64, time=5),
    Message('note_on', channel=2, note=68, velocity=85, time=235),
    Message('note_on', channel=2, note=66, velocity=92, time=0),
    Message('note_on', channel=2, note=63, velocity=92, time=3),
    Message('note_off', channel=2, note=68, velocity=64, time=0),
    Message('note_off', channel=2, note=66, velocity=64, time=0),
    Message('note_off', channel=2, note=63, velocity=64, time=0),
    Message('note_on', channel=2, note=51, velocity=96, time=48),
    Message('note_on', channel=2, note=54, velocity=107, time=0),
    Message('note_off', channel=2, note=54, velocity=64, time=3),
    Message('note_off', channel=2, note=51, velocity=64, time=0),
    Message('note_on', channel=2, note=63, velocity=107, time=17),
    Message('note_on', channel=2, note=66, velocity=99, time=1),
    Message('note_off', channel=2, note=63, velocity=64, time=3),
    Message('note_off', channel=2, note=66, velocity=64, time=0),
    Message('note_on', channel=2, note=66, velocity=99, time=21),
    Message('note_on', channel=2, note=63, velocity=99, time=0),
    Message('note_on', channel=2, note=68, velocity=82, time=0),
    Message('note_off', channel=2, note=66, velocity=64, time=2),
    Message('note_off', channel=2, note=63, velocity=64, time=0),
    Message('note_off', channel=2, note=68, velocity=64, time=1),
    Message('note_on', channel=2, note=68, velocity=92, time=21),
    Message('note_on', channel=2, note=66, velocity=102, time=1),
    Message('note_on', channel=2, note=63, velocity=107, time=0),
    Message('note_off', channel=2, note=66, velocity=64, time=2),
    Message('note_off', channel=2, note=63, velocity=64, time=0),
    Message('note_off', channel=2, note=68, velocity=64, time=1),
    Message('note_on', channel=2, note=68, velocity=96, time=20),
    Message('note_on', channel=2, note=66, velocity=107, time=1),
    Message('note_on', channel=2, note=63, velocity=107, time=0),
    Message('note_off', channel=2, note=66, velocity=64, time=2),
    Message('note_off', channel=2, note=63, velocity=64, time=1),
    Message('note_off', channel=2, note=68, velocity=64, time=1),
    Message('control_change', channel=2, control=10, value=82, time=47),
    Message('control_change', channel=2, control=10, value=64, time=0),
    Message('control_change', channel=2, control=91, value=13, time=6915),
    Message('control_change', channel=2, control=91, value=15, time=0),
    Message('note_on', channel=2, note=52, velocity=39, time=60),
    Message('note_on', channel=2, note=53, velocity=41, time=2),
    Message('note_on', channel=2, note=55, velocity=46, time=3),
    Message('note_off', channel=2, note=52, velocity=64, time=1),
    Message('control_change', channel=2, control=11, value=127, time=0),
    Message('control_change', channel=2, control=11, value=122, time=0),
    Message('note_on', channel=2, note=57, velocity=50, time=1),
    Message('control_change', channel=2, control=11, value=112, time=1),
    Message('note_off', channel=2, note=53, velocity=64, time=0),
    Message('control_change', channel=2, control=11, value=103, time=2),
    Message('note_on', channel=2, note=59, velocity=51, time=0),
    Message('note_off', channel=2, note=55, velocity=64, time=1),
    Message('control_change', channel=2, control=11, value=94, time=1),
    Message('control_change', channel=2, control=11, value=90, time=1),
    Message('note_on', channel=2, note=60, velocity=50, time=0),
    Message('control_change', channel=2, control=11, value=80, time=1),
    Message('note_off', channel=2, note=57, velocity=64, time=0),
    Message('control_change', channel=2, control=11, value=67, time=2),
    Message('note_on', channel=2, note=62, velocity=51, time=0),
    Message('note_off', channel=2, note=59, velocity=64, time=1),
    Message('control_change', channel=2, control=11, value=53, time=1),
    Message('note_on', channel=2, note=64, velocity=52, time=1),
    Message('note_off', channel=2, note=60, velocity=64, time=1),
    Message('control_change', channel=2, control=11, value=41, time=0),
    Message('control_change', channel=2, control=11, value=35, time=3),
    Message('note_on', channel=2, note=65, velocity=77, time=0),
    Message('note_off', channel=2, note=62, velocity=64, time=0),
    Message('control_change', channel=2, control=11, value=25, time=2),
    Message('note_on', channel=2, note=67, velocity=80, time=1),
    Message('note_off', channel=2, note=64, velocity=64, time=0),
    Message('control_change', channel=2, control=11, value=20, time=1),
    Message('control_change', channel=2, control=11, value=16, time=3),
    Message('note_off', channel=2, note=65, velocity=64, time=0),
    Message('note_on', channel=2, note=69, velocity=83, time=0),
    Message('control_change', channel=2, control=11, value=13, time=1),
    Message('note_off', channel=2, note=67, velocity=64, time=1),
    Message('note_on', channel=2, note=71, velocity=80, time=1),
    Message('control_change', channel=2, control=11, value=11, time=0),
    Message('note_off', channel=2, note=69, velocity=64, time=3),
    Message('control_change', channel=2, control=11, value=18, time=1),
    Message('note_on', channel=2, note=72, velocity=80, time=0),
    Message('note_off', channel=2, note=71, velocity=64, time=2),
    Message('note_on', channel=2, note=74, velocity=78, time=2),
    Message('note_off', channel=2, note=72, velocity=64, time=1),
    Message('control_change', channel=2, control=11, value=33, time=2),
    Message('control_change', channel=2, control=11, value=58, time=2),
    Message('note_off', channel=2, note=74, velocity=64, time=0),
    Message('control_change', channel=2, control=11, value=103, time=2),
    Message('control_change', channel=2, control=11, value=111, time=1),
    Message('control_change', channel=2, control=11, value=127, time=1),
    Message('note_on', channel=2, note=82, velocity=92, time=3),
    Message('note_on', channel=2, note=86, velocity=93, time=1),
    Message('note_on', channel=2, note=88, velocity=95, time=0),
    Message('note_on', channel=2, note=91, velocity=98, time=0),
    Message('control_change', channel=2, control=11, value=127, time=8),
    Message('control_change', channel=2, control=11, value=125, time=0),
    Message('control_change', channel=2, control=11, value=104, time=2),
    Message('control_change', channel=2, control=11, value=80, time=2),
    Message('control_change', channel=2, control=11, value=66, time=2),
    Message('control_change', channel=2, control=11, value=56, time=2),
    Message('control_change', channel=2, control=11, value=54, time=3),
    Message('control_change', channel=2, control=11, value=50, time=11),
    Message('control_change', channel=2, control=11, value=47, time=1),
    Message('note_off', channel=2, note=91, velocity=64, time=0),
    Message('control_change', channel=2, control=11, value=47, time=0),
    Message('note_off', channel=2, note=88, velocity=64, time=1),
    Message('control_change', channel=2, control=11, value=44, time=1),
    Message('note_off', channel=2, note=86, velocity=64, time=0),
    Message('control_change', channel=2, control=11, value=41, time=3),
    Message('note_off', channel=2, note=82, velocity=64, time=2),
    Message('note_on', channel=2, note=81, velocity=100, time=0),
    Message('control_change', channel=2, control=11, value=40, time=5),
    Message('control_change', channel=2, control=11, value=40, time=3),
    Message('control_change', channel=2, control=11, value=38, time=4),
    Message('note_on', channel=2, note=79, velocity=57, time=0),
    Message('note_off', channel=2, note=81, velocity=64, time=3),
    Message('note_on', channel=2, note=77, velocity=67, time=4),
    Message('note_off', channel=2, note=79, velocity=64, time=1),
    Message('note_on', channel=2, note=76, velocity=80, time=5),
    Message('note_off', channel=2, note=77, velocity=64, time=1),
    Message('control_change', channel=2, control=11, value=38, time=2),
    Message('control_change', channel=2, control=11, value=36, time=0),
    Message('control_change', channel=2, control=11, value=35, time=1),
    Message('note_on', channel=2, note=74, velocity=77, time=1),
    Message('note_off', channel=2, note=76, velocity=64, time=0),
    Message('control_change', channel=2, control=11, value=34, time=3),
    Message('note_off', channel=2, note=74, velocity=64, time=2),
    Message('note_on', channel=2, note=72, velocity=65, time=0),
    Message('control_change', channel=2, control=11, value=32, time=2),
    Message('control_change', channel=2, control=11, value=31, time=2),
    Message('note_off', channel=2, note=72, velocity=64, time=1),
    Message('control_change', channel=2, control=11, value=30, time=1),
    Message('note_on', channel=2, note=71, velocity=58, time=0),
    Message('control_change', channel=2, control=11, value=29, time=5),
    Message('note_off', channel=2, note=71, velocity=64, time=0),
    Message('note_on', channel=2, note=69, velocity=62, time=0),
    Message('control_change', channel=2, control=11, value=27, time=3),
    Message('note_off', channel=2, note=69, velocity=64, time=3),
    Message('note_on', channel=2, note=67, velocity=64, time=0),
    Message('control_change', channel=2, control=11, value=25, time=0),
    Message('control_change', channel=2, control=11, value=24, time=1),
    Message('note_off', channel=2, note=67, velocity=64, time=2),
    Message('control_change', channel=2, control=11, value=22, time=1),
    Message('control_change', channel=2, control=11, value=20, time=2),
    Message('note_on', channel=2, note=65, velocity=61, time=0),
    Message('note_off', channel=2, note=65, velocity=64, time=2),
    Message('control_change', channel=2, control=11, value=16, time=0),
    Message('control_change', channel=2, control=11, value=12, time=2),
    Message('control_change', channel=2, control=11, value=5, time=2),
    Message('control_change', channel=2, control=11, value=3, time=1),
    Message('control_change', channel=2, control=11, value=0, time=1),
    Message('control_change', channel=2, control=11, value=0, time=264),
    Message('control_change', channel=2, control=11, value=1, time=0),
    Message('control_change', channel=2, control=11, value=13, time=2),
    Message('control_change', channel=2, control=11, value=18, time=2),
    Message('control_change', channel=2, control=11, value=41, time=2),
    Message('control_change', channel=2, control=11, value=59, time=2),
    Message('control_change', channel=2, control=11, value=76, time=2),
    Message('control_change', channel=2, control=11, value=81, time=1),
    Message('control_change', channel=2, control=11, value=91, time=1),
    Message('control_change', channel=2, control=11, value=101, time=2),
    Message('control_change', channel=2, control=11, value=88, time=6),
    Message('control_change', channel=2, control=11, value=75, time=2),
    Message('control_change', channel=2, control=11, value=73, time=1),
    Message('control_change', channel=2, control=11, value=66, time=1),
    Message('control_change', channel=2, control=11, value=58, time=2),
    Message('control_change', channel=2, control=11, value=54, time=4),
    Message('control_change', channel=2, control=11, value=51, time=1),
    Message('control_change', channel=2, control=11, value=56, time=4),
    Message('control_change', channel=2, control=11, value=65, time=6),
    Message('control_change', channel=2, control=11, value=81, time=2),
    Message('control_change', channel=2, control=11, value=97, time=4),
    Message('control_change', channel=2, control=11, value=98, time=0),
    Message('control_change', channel=2, control=11, value=109, time=0),
    Message('control_change', channel=2, control=11, value=112, time=3),
    Message('control_change', channel=2, control=11, value=106, time=4),
    Message('control_change', channel=2, control=11, value=94, time=2),
    Message('control_change', channel=2, control=11, value=87, time=2),
    Message('control_change', channel=2, control=11, value=85, time=1),
    Message('control_change', channel=2, control=11, value=81, time=1),
    Message('control_change', channel=2, control=11, value=74, time=2),
    Message('control_change', channel=2, control=11, value=68, time=2),
    Message('control_change', channel=2, control=11, value=64, time=2),
    Message('control_change', channel=2, control=11, value=59, time=2),
    Message('control_change', channel=2, control=11, value=57, time=2),
    Message('control_change', channel=2, control=11, value=56, time=1),
    Message('control_change', channel=2, control=11, value=55, time=4),
    Message('control_change', channel=2, control=11, value=53, time=4),
    Message('control_change', channel=2, control=11, value=50, time=2),
    Message('control_change', channel=2, control=11, value=47, time=2),
    Message('control_change', channel=2, control=11, value=44, time=2),
    Message('control_change', channel=2, control=11, value=43, time=2),
    Message('control_change', channel=2, control=11, value=41, time=4),
    Message('control_change', channel=2, control=11, value=38, time=4),
    Message('control_change', channel=2, control=11, value=37, time=1),
    Message('control_change', channel=2, control=11, value=34, time=1),
    Message('control_change', channel=2, control=11, value=32, time=5),
    Message('control_change', channel=2, control=11, value=31, time=0),
    Message('control_change', channel=2, control=11, value=29, time=1),
    Message('control_change', channel=2, control=11, value=28, time=4),
    Message('control_change', channel=2, control=11, value=27, time=6),
    Message('control_change', channel=2, control=11, value=25, time=1),
    Message('control_change', channel=2, control=11, value=23, time=5),
    Message('control_change', channel=2, control=11, value=23, time=1),
    Message('control_change', channel=2, control=11, value=21, time=11),
    Message('control_change', channel=2, control=11, value=21, time=0),
    Message('control_change', channel=2, control=11, value=19, time=4),
    Message('control_change', channel=2, control=11, value=17, time=8),
    Message('control_change', channel=2, control=11, value=17, time=1),
    Message('control_change', channel=2, control=11, value=16, time=6),
    Message('control_change', channel=2, control=11, value=16, time=32),
    Message('control_change', channel=2, control=11, value=25, time=0),
    Message('control_change', channel=2, control=11, value=38, time=2),
    Message('control_change', channel=2, control=11, value=48, time=2),
    Message('control_change', channel=2, control=11, value=58, time=2),
    Message('control_change', channel=2, control=11, value=64, time=3),
    Message('control_change', channel=2, control=11, value=74, time=2),
    Message('control_change', channel=2, control=11, value=76, time=2),
    Message('control_change', channel=2, control=11, value=71, time=8),
    Message('control_change', channel=2, control=11, value=71, time=0),
    Message('control_change', channel=2, control=11, value=67, time=2),
    Message('control_change', channel=2, control=11, value=64, time=2),
    Message('control_change', channel=2, control=11, value=62, time=8),
    Message('control_change', channel=2, control=11, value=62, time=2),
    Message('control_change', channel=2, control=11, value=61, time=5),
    Message('control_change', channel=2, control=11, value=58, time=4),
    Message('control_change', channel=2, control=11, value=58, time=46),
    Message('control_change', channel=2, control=11, value=29, time=0),
    Message('control_change', channel=2, control=11, value=36, time=3),
    Message('control_change', channel=2, control=11, value=38, time=0),
    Message('control_change', channel=2, control=11, value=51, time=1),
    Message('control_change', channel=2, control=11, value=64, time=2),
    Message('control_change', channel=2, control=11, value=80, time=2),
    Message('control_change', channel=2, control=11, value=94, time=2),
    Message('control_change', channel=2, control=11, value=92, time=5),
    Message('note_on', channel=2, note=78, velocity=102, time=0),
    Message('note_on', channel=2, note=81, velocity=100, time=1),
    Message('note_on', channel=2, note=73, velocity=92, time=0),
    Message('note_on', channel=2, note=76, velocity=93, time=1),
    Message('note_on', channel=2, note=84, velocity=100, time=0),
    Message('note_on', channel=2, note=67, velocity=87, time=0),
    Message('control_change', channel=2, control=11, value=92, time=1),
    Message('control_change', channel=2, control=11, value=80, time=2),
    Message('control_change', channel=2, control=11, value=65, time=2),
    Message('control_change', channel=2, control=11, value=53, time=2),
    Message('control_change', channel=2, control=11, value=43, time=3),
    Message('control_change', channel=2, control=11, value=35, time=2),
    Message('control_change', channel=2, control=11, value=29, time=2),
    Message('control_change', channel=2, control=11, value=27, time=2),
    Message('control_change', channel=2, control=11, value=24, time=2),
    Message('control_change', channel=2, control=11, value=22, time=4),
    Message('control_change', channel=2, control=11, value=22, time=0),
    Message('control_change', channel=2, control=11, value=20, time=4),
    Message('control_change', channel=2, control=11, value=19, time=3),
    Message('control_change', channel=2, control=11, value=16, time=3),
    Message('control_change', channel=2, control=11, value=15, time=2),
    Message('control_change', channel=2, control=11, value=14, time=3),
    Message('control_change', channel=2, control=11, value=11, time=6),
    Message('control_change', channel=2, control=11, value=10, time=3),
    Message('control_change', channel=2, control=11, value=10, time=3),
    Message('control_change', channel=2, control=11, value=10, time=27),
    Message('control_change', channel=2, control=11, value=15, time=0),
    Message('note_off', channel=2, note=81, velocity=64, time=0),
    Message('note_off', channel=2, note=67, velocity=64, time=1),
    Message('control_change', channel=2, control=11, value=20, time=1),
    Message('note_off', channel=2, note=78, velocity=64, time=1),
    Message('control_change', channel=2, control=11, value=23, time=1),
    Message('control_change', channel=2, control=11, value=25, time=2),
    Message('note_off', channel=2, note=76, velocity=64, time=1),
    Message('control_change', channel=2, control=11, value=29, time=1),
    Message('note_off', channel=2, note=84, velocity=64, time=0),
    Message('control_change', channel=2, control=11, value=40, time=0),
    Message('control_change', channel=2, control=11, value=52, time=3),
    Message('control_change', channel=2, control=11, value=63, time=3),
    Message('note_off', channel=2, note=73, velocity=64, time=0),
    Message('control_change', channel=2, control=11, value=75, time=1),
    Message('control_change', channel=2, control=11, value=79, time=2),
    Message('control_change', channel=2, control=11, value=78, time=1),
    Message('note_on', channel=2, note=78, velocity=79, time=1),
    Message('note_on', channel=2, note=66, velocity=88, time=0),
    Message('note_on', channel=2, note=76, velocity=87, time=0),
    Message('note_on', channel=2, note=72, velocity=83, time=0),
    Message('note_on', channel=2, note=81, velocity=92, time=0),
    Message('control_change', channel=2, control=11, value=74, time=8),
    Message('note_off', channel=2, note=66, velocity=64, time=1),
    Message('note_off', channel=2, note=78, velocity=64, time=0),
    Message('note_off', channel=2, note=72, velocity=64, time=1),
    Message('control_change', channel=2, control=11, value=67, time=0),
    Message('control_change', channel=2, control=11, value=65, time=1),
    Message('note_off', channel=2, note=81, velocity=64, time=0),
    Message('control_change', channel=2, control=11, value=61, time=2),
    Message('note_off', channel=2, note=76, velocity=64, time=0),
    Message('control_change', channel=2, control=11, value=56, time=1),
    Message('control_change', channel=2, control=11, value=53, time=2),
    Message('control_change', channel=2, control=11, value=84, time=4),
    Message('control_change', channel=2, control=11, value=84, time=35),
    Message('control_change', channel=2, control=11, value=91, time=0),
    Message('control_change', channel=2, control=11, value=95, time=3),
    Message('control_change', channel=2, control=11, value=96, time=1),
    Message('control_change', channel=2, control=11, value=100, time=1),
    Message('control_change', channel=2, control=11, value=104, time=2),
    Message('control_change', channel=2, control=11, value=107, time=2),
    Message('control_change', channel=2, control=11, value=114, time=2),
    Message('control_change', channel=2, control=11, value=117, time=2),
    Message('control_change', channel=2, control=11, value=127, time=2),
    Message('control_change', channel=2, control=11, value=127, time=138),
    Message('control_change', channel=2, control=11, value=3, time=0),
    Message('control_change', channel=2, control=11, value=9, time=3),
    Message('control_change', channel=2, control=11, value=23, time=1),
    Message('control_change', channel=2, control=11, value=25, time=2),
    Message('control_change', channel=2, control=11, value=25, time=1),
    Message('control_change', channel=2, control=11, value=28, time=1),
    Message('control_change', channel=2, control=11, value=30, time=2),
    Message('control_change', channel=2, control=11, value=33, time=2),
    Message('control_change', channel=2, control=11, value=35, time=3),
    Message('control_change', channel=2, control=11, value=38, time=1),
    Message('note_on', channel=2, note=74, velocity=77, time=2),
    Message('control_change', channel=2, control=11, value=41, time=0),
    Message('control_change', channel=2, control=11, value=41, time=1),
    Message('control_change', channel=2, control=11, value=43, time=2),
    Message('note_on', channel=2, note=76, velocity=80, time=0),
    Message('control_change', channel=2, control=11, value=33, time=1),
    Message('control_change', channel=2, control=11, value=35, time=1),
    Message('note_on', channel=2, note=78, velocity=83, time=1),
    Message('note_off', channel=2, note=74, velocity=64, time=0),
    Message('control_change', channel=2, control=11, value=38, time=2),
    Message('note_off', channel=2, note=76, velocity=64, time=1),
    Message('control_change', channel=2, control=11, value=47, time=0),
    Message('note_on', channel=2, note=80, velocity=80, time=1),
    Message('control_change', channel=2, control=11, value=56, time=1),
    Message('control_change', channel=2, control=11, value=61, time=2),
    Message('note_off', channel=2, note=78, velocity=64, time=0),
    Message('control_change', channel=2, control=11, value=64, time=0),
    Message('note_on', channel=2, note=81, velocity=80, time=1),
    Message('control_change', channel=2, control=11, value=73, time=1),
    Message('note_off', channel=2, note=80, velocity=64, time=1),
    Message('control_change', channel=2, control=11, value=82, time=1),
    Message('note_on', channel=2, note=83, velocity=78, time=0),
    Message('control_change', channel=2, control=11, value=91, time=2),
    Message('note_off', channel=2, note=81, velocity=64, time=1),
    Message('control_change', channel=2, control=11, value=100, time=1),
    Message('note_off', channel=2, note=83, velocity=64, time=2),
    Message('control_change', channel=2, control=11, value=109, time=2),
    Message('control_change', channel=2, control=11, value=112, time=1),
    Message('note_on', channel=2, note=90, velocity=113, time=1),
    Message('note_on', channel=2, note=85, velocity=113, time=1),
    Message('control_change', channel=2, control=11, value=124, time=0),
    Message('note_on', channel=2, note=73, velocity=71, time=0),
    Message('note_on', channel=2, note=78, velocity=99, time=0),
    Message('note_on', channel=2, note=83, velocity=98, time=0),
    Message('note_on', channel=2, note=67, velocity=85, time=0),
    Message('note_on', channel=2, note=89, velocity=98, time=2),
    Message('note_off', channel=2, note=89, velocity=64, time=3),
    Message('control_change', channel=2, control=11, value=113, time=4),
    Message('control_change', channel=2, control=11, value=110, time=2),
    Message('control_change', channel=2, control=11, value=101, time=2),
    Message('control_change', channel=2, control=11, value=94, time=4),
    Message('control_change', channel=2, control=11, value=90, time=0),
    Message('note_off', channel=2, note=67, velocity=64, time=3),
    Message('control_change', channel=2, control=11, value=94, time=1),
    Message('note_off', channel=2, note=78, velocity=64, time=2),
    Message('note_off', channel=2, note=73, velocity=64, time=1),
    Message('note_off', channel=2, note=90, velocity=64, time=2),
    Message('note_off', channel=2, note=85, velocity=64, time=0),
    Message('note_off', channel=2, note=83, velocity=64, time=1),
    Message('control_change', channel=2, control=11, value=105, time=2),
    Message('control_change', channel=2, control=11, value=114, time=1),
    Message('note_on', channel=2, note=85, velocity=88, time=1),
    Message('note_on', channel=2, note=67, velocity=87, time=0),
    Message('note_on', channel=2, note=78, velocity=82, time=0),
    Message('note_on', channel=2, note=88, velocity=92, time=1),
    Message('note_on', channel=2, note=73, velocity=64, time=0),
    Message('note_on', channel=2, note=83, velocity=92, time=0),
    Message('control_change', channel=2, control=11, value=112, time=1),
    Message('control_change', channel=2, control=11, value=109, time=7),
    Message('control_change', channel=2, control=11, value=100, time=2),
    Message('control_change', channel=2, control=11, value=92, time=2),
    Message('control_change', channel=2, control=11, value=89, time=1),
    Message('control_change', channel=2, control=11, value=83, time=1),
    Message('control_change', channel=2, control=11, value=73, time=2),
    Message('control_change', channel=2, control=11, value=69, time=2),
    Message('control_change', channel=2, control=11, value=64, time=2),
    Message('control_change', channel=2, control=11, value=60, time=2),
    Message('control_change', channel=2, control=11, value=55, time=2),
    Message('control_change', channel=2, control=11, value=53, time=1),
    Message('control_change', channel=2, control=11, value=51, time=1),
    Message('control_change', channel=2, control=11, value=47, time=2),
    Message('control_change', channel=2, control=11, value=42, time=2),
    Message('control_change', channel=2, control=11, value=38, time=2),
    Message('control_change', channel=2, control=11, value=33, time=2),
    Message('control_change', channel=2, control=11, value=29, time=1),
    Message('control_change', channel=2, control=11, value=27, time=2),
    Message('control_change', channel=2, control=11, value=24, time=2),
    Message('control_change', channel=2, control=11, value=19, time=1),
    Message('control_change', channel=2, control=11, value=19, time=24),
    Message('control_change', channel=2, control=11, value=18, time=0),
    Message('note_off', channel=2, note=67, velocity=64, time=3),
    Message('note_off', channel=2, note=85, velocity=64, time=2),
    Message('note_on', channel=2, note=81, velocity=37, time=13),
    Message('note_off', channel=2, note=88, velocity=64, time=1),
    Message('control_change', channel=2, control=11, value=18, time=3),
    Message('control_change', channel=2, control=11, value=30, time=0),
    Message('note_off', channel=2, note=83, velocity=64, time=0),
    Message('note_off', channel=2, note=78, velocity=64, time=2),
    Message('note_on', channel=2, note=79, velocity=59, time=2),
    Message('note_off', channel=2, note=81, velocity=64, time=2),
    Message('note_off', channel=2, note=79, velocity=64, time=6),
    Message('control_change', channel=2, control=11, value=30, time=1),
    Message('control_change', channel=2, control=11, value=59, time=0),
    Message('control_change', channel=2, control=11, value=75, time=2),
    Message('control_change', channel=2, control=11, value=97, time=4),
    Message('control_change', channel=2, control=11, value=122, time=1),
    Message('note_on', channel=2, note=71, velocity=78, time=0),
    Message('note_off', channel=2, note=73, velocity=64, time=0),
    Message('note_on', channel=2, note=77, velocity=87, time=1),
    Message('note_on', channel=2, note=81, velocity=92, time=0),
    Message('note_on', channel=2, note=86, velocity=93, time=0),
    Message('control_change', channel=2, control=11, value=127, time=1),
    Message('note_on', channel=2, note=76, velocity=62, time=0),
    Message('control_change', channel=2, control=11, value=126, time=1),
    Message('control_change', channel=2, control=11, value=125, time=8),
    Message('note_off', channel=2, note=81, velocity=64, time=1),
    Message('control_change', channel=2, control=11, value=119, time=0),
    Message('note_off', channel=2, note=77, velocity=64, time=0),
    Message('note_off', channel=2, note=71, velocity=64, time=1),
    Message('note_off', channel=2, note=86, velocity=64, time=0),
    Message('note_off', channel=2, note=76, velocity=64, time=0),
    Message('control_change', channel=2, control=11, value=102, time=1),
    Message('control_change', channel=2, control=11, value=101, time=1),
    Message('control_change', channel=2, control=11, value=94, time=3),
    Message('control_change', channel=2, control=11, value=89, time=1),
    Message('control_change', channel=2, control=11, value=86, time=2),
    Message('control_change', channel=2, control=11, value=86, time=26),
    Message('control_change', channel=2, control=11, value=92, time=0),
    Message('control_change', channel=2, control=11, value=101, time=1),
    Message('control_change', channel=2, control=11, value=110, time=2),
    Message('control_change', channel=2, control=11, value=112, time=1),
    Message('control_change', channel=2, control=11, value=122, time=2),
    Message('note_on', channel=2, note=80, velocity=107, time=1),
    Message('control_change', channel=2, control=11, value=127, time=0),
    Message('note_on', channel=2, note=77, velocity=93, time=1),
    Message('note_on', channel=2, note=86, velocity=102, time=0),
    Message('note_on', channel=2, note=71, velocity=90, time=0),
    Message('note_on', channel=2, note=76, velocity=92, time=2),
    Message('control_change', channel=2, control=11, value=123, time=4),
    Message('control_change', channel=2, control=11, value=113, time=2),
    Message('control_change', channel=2, control=11, value=104, time=2),
    Message('control_change', channel=2, control=11, value=98, time=2),
    Message('note_off', channel=2, note=80, velocity=64, time=1),
    Message('control_change', channel=2, control=11, value=92, time=1),
    Message('control_change', channel=2, control=11, value=88, time=3),
    Message('note_on', channel=2, note=81, velocity=85, time=0),
    Message('control_change', channel=2, control=11, value=83, time=1),
    Message('control_change', channel=2, control=11, value=80, time=2),
    Message('control_change', channel=2, control=11, value=80, time=0),
    Message('control_change', channel=2, control=11, value=76, time=2),
    Message('control_change', channel=2, control=11, value=73, time=2),
    Message('control_change', channel=2, control=11, value=70, time=2),
    Message('control_change', channel=2, control=11, value=67, time=2),
    Message('control_change', channel=2, control=11, value=65, time=2),
    Message('control_change', channel=2, control=11, value=64, time=2),
    Message('control_change', channel=2, control=11, value=63, time=3),
    Message('control_change', channel=2, control=11, value=61, time=6),
    Message('control_change', channel=2, control=11, value=59, time=2),
    Message('control_change', channel=2, control=11, value=58, time=1),
    Message('control_change', channel=2, control=11, value=58, time=1),
    Message('control_change', channel=2, control=11, value=56, time=2),
    Message('control_change', channel=2, control=11, value=54, time=5),
    Message('note_off', channel=2, note=81, velocity=64, time=24),
    Message('note_off', channel=2, note=76, velocity=64, time=7),
    Message('note_off', channel=2, note=71, velocity=64, time=3),
    Message('note_off', channel=2, note=77, velocity=64, time=5),
    Message('note_off', channel=2, note=86, velocity=64, time=5),
    Message('note_on', channel=2, note=69, velocity=46, time=24),
    Message('control_change', channel=2, control=11, value=54, time=8),
    Message('control_change', channel=2, control=11, value=59, time=0),
    Message('note_on', channel=2, note=71, velocity=55, time=0),
    Message('control_change', channel=2, control=11, value=70, time=3),
    Message('control_change', channel=2, control=11, value=77, time=1),
    Message('control_change', channel=2, control=11, value=88, time=2),
    Message('note_off', channel=2, note=69, velocity=64, time=0),
    Message('control_change', channel=2, control=11, value=94, time=2),
    Message('control_change', channel=2, control=11, value=102, time=2),
    Message('control_change', channel=2, control=11, value=103, time=2),
    Message('note_on', channel=2, note=72, velocity=68, time=0),
    Message('control_change', channel=2, control=11, value=105, time=0),
    Message('control_change', channel=2, control=11, value=99, time=7),
    Message('note_off', channel=2, note=71, velocity=64, time=1),
    Message('control_change', channel=2, control=11, value=87, time=1),
    Message('control_change', channel=2, control=11, value=79, time=2),
    Message('control_change', channel=2, control=11, value=78, time=1),
    Message('note_on', channel=2, note=76, velocity=75, time=0),
    Message('note_on', channel=2, note=85, velocity=96, time=0),
    Message('note_on', channel=2, note=82, velocity=88, time=1),
    Message('note_on', channel=2, note=73, velocity=88, time=0),
    Message('note_on', channel=2, note=80, velocity=75, time=0),
    Message('control_change', channel=2, control=11, value=76, time=0),
    Message('note_off', channel=2, note=72, velocity=64, time=1),
    Message('control_change', channel=2, control=11, value=85, time=7),
    Message('control_change', channel=2, control=11, value=96, time=2),
    Message('control_change', channel=2, control=11, value=96, time=1),
    Message('control_change', channel=2, control=11, value=106, time=3),
    Message('control_change', channel=2, control=11, value=114, time=1),
    Message('control_change', channel=2, control=11, value=119, time=2),
    Message('note_off', channel=2, note=82, velocity=64, time=0),
    Message('control_change', channel=2, control=11, value=124, time=3),
    Message('note_off', channel=2, note=80, velocity=64, time=0),
    Message('note_off', channel=2, note=76, velocity=64, time=1),
    Message('note_off', channel=2, note=85, velocity=64, time=1),
    Message('control_change', channel=2, control=11, value=121, time=1),
    Message('control_change', channel=2, control=11, value=118, time=3),
    Message('note_on', channel=2, note=86, velocity=89, time=1),
    Message('control_change', channel=2, control=11, value=101, time=1),
    Message('note_on', channel=2, note=76, velocity=89, time=0),
    Message('note_on', channel=2, note=80, velocity=75, time=1),
    Message('note_off', channel=2, note=73, velocity=64, time=0),
    Message('note_on', channel=2, note=82, velocity=75, time=0),
    Message('control_change', channel=2, control=11, value=92, time=0),
    Message('note_on', channel=2, note=74, velocity=93, time=1),
    Message('control_change', channel=2, control=11, value=97, time=5),
    Message('control_change', channel=2, control=11, value=101, time=2),
    Message('control_change', channel=2, control=11, value=111, time=2),
    Message('note_off', channel=2, note=86, velocity=64, time=1),
    Message('control_change', channel=2, control=11, value=118, time=2),
    Message('note_off', channel=2, note=80, velocity=64, time=0),
    Message('control_change', channel=2, control=11, value=120, time=2),
    Message('note_off', channel=2, note=82, velocity=64, time=0),
    Message('note_off', channel=2, note=76, velocity=64, time=1),
    Message('control_change', channel=2, control=11, value=117, time=2),
    Message('control_change', channel=2, control=11, value=116, time=1),
    Message('note_on', channel=2, note=76, velocity=59, time=1),
    Message('control_change', channel=2, control=11, value=100, time=1),
    Message('note_on', channel=2, note=82, velocity=73, time=0),
    Message('note_on', channel=2, note=87, velocity=102, time=0),
    Message('note_on', channel=2, note=80, velocity=82, time=1),
    Message('note_on', channel=2, note=75, velocity=96, time=0),
    Message('note_off', channel=2, note=74, velocity=64, time=0),
    Message('control_change', channel=2, control=11, value=95, time=1),
    Message('control_change', channel=2, control=11, value=102, time=7),
    Message('control_change', channel=2, control=11, value=107, time=4),
    Message('note_off', channel=2, note=76, velocity=64, time=1),
    Message('control_change', channel=2, control=11, value=115, time=1),
    Message('note_off', channel=2, note=87, velocity=64, time=3),
    Message('control_change', channel=2, control=11, value=119, time=0),
    Message('note_off', channel=2, note=80, velocity=64, time=0),
    Message('note_off', channel=2, note=82, velocity=64, time=0),
    Message('note_off', channel=2, note=75, velocity=64, time=7),
    Message('note_on', channel=2, note=76, velocity=100, time=0),
    Message('note_on', channel=2, note=88, velocity=98, time=0),
    Message('note_on', channel=2, note=82, velocity=73, time=0),
    Message('note_on', channel=2, note=80, velocity=71, time=0),
    Message('control_change', channel=2, control=11, value=119, time=6),
    Message('control_change', channel=2, control=11, value=125, time=0),
    Message('control_change', channel=2, control=11, value=126, time=2),
    Message('control_change', channel=2, control=11, value=127, time=0),
    Message('note_off', channel=2, note=80, velocity=64, time=8),
    Message('note_off', channel=2, note=82, velocity=64, time=1),
    Message('note_off', channel=2, note=88, velocity=64, time=1),
    Message('note_off', channel=2, note=76, velocity=64, time=5),
    Message('control_change', channel=2, control=11, value=127, time=2),
    Message('control_change', channel=2, control=11, value=124, time=0),
    Message('control_change', channel=2, control=11, value=105, time=2),
    Message('control_change', channel=2, control=11, value=97, time=2),
    Message('note_on', channel=2, note=72, velocity=85, time=1),
    Message('control_change', channel=2, control=11, value=91, time=1),
    Message('control_change', channel=2, control=11, value=90, time=1),
    Message('note_on', channel=2, note=84, velocity=87, time=0),
    Message('note_on', channel=2, note=82, velocity=102, time=1),
    Message('control_change', channel=2, control=11, value=88, time=0),
    Message('note_on', channel=2, note=80, velocity=92, time=1),
    Message('note_on', channel=2, note=83, velocity=104, time=0),
    Message('note_on', channel=2, note=76, velocity=95, time=1),
    Message('note_off', channel=2, note=82, velocity=64, time=3),
    Message('note_on', channel=2, note=71, velocity=75, time=1),
    Message('note_on', channel=2, note=81, velocity=89, time=0),
    Message('control_change', channel=2, control=11, value=100, time=1),
    Message('control_change', channel=2, control=11, value=118, time=2),
    Message('note_off', channel=2, note=84, velocity=64, time=1),
    Message('control_change', channel=2, control=11, value=125, time=1),
    Message('control_change', channel=2, control=11, value=127, time=0),
    Message('note_off', channel=2, note=72, velocity=64, time=0),
    Message('note_on', channel=2, note=69, velocity=64, time=6),
    Message('note_off', channel=2, note=81, velocity=64, time=4),
    Message('note_off', channel=2, note=71, velocity=64, time=0),
    Message('note_off', channel=2, note=80, velocity=64, time=2),
    Message('note_off', channel=2, note=83, velocity=64, time=0),
    Message('control_change', channel=2, control=11, value=127, time=1),
    Message('control_change', channel=2, control=11, value=118, time=0),
    Message('control_change', channel=2, control=11, value=108, time=3),
    Message('control_change', channel=2, control=11, value=101, time=1),
    Message('note_off', channel=2, note=76, velocity=64, time=0),
    Message('control_change', channel=2, control=11, value=91, time=2),
    Message('note_on', channel=2, note=80, velocity=90, time=0),
    Message('note_on', channel=2, note=76, velocity=65, time=2),
    Message('note_on', channel=2, note=78, velocity=85, time=0),
    Message('control_change', channel=2, control=11, value=86, time=0),
    Message('note_off', channel=2, note=80, velocity=64, time=1),
    Message('note_on', channel=2, note=81, velocity=102, time=0),
    Message('control_change', channel=2, control=11, value=82, time=1),
    Message('control_change', channel=2, control=11, value=81, time=1),
    Message('note_on', channel=2, note=79, velocity=96, time=0),
    Message('control_change', channel=2, control=11, value=79, time=1),
    Message('note_off', channel=2, note=78, velocity=64, time=1),
    Message('control_change', channel=2, control=11, value=77, time=1),
    Message('note_on', channel=2, note=82, velocity=28, time=2),
    Message('note_off', channel=2, note=76, velocity=64, time=0),
    Message('control_change', channel=2, control=11, value=75, time=1),
    Message('control_change', channel=2, control=11, value=71, time=2),
    Message('control_change', channel=2, control=11, value=67, time=2),
    Message('note_off', channel=2, note=82, velocity=64, time=0),
    Message('control_change', channel=2, control=11, value=64, time=2),
    Message('control_change', channel=2, control=11, value=64, time=0),
    Message('control_change', channel=2, control=11, value=59, time=2),
    Message('note_off', channel=2, note=79, velocity=64, time=1),
    Message('control_change', channel=2, control=11, value=56, time=1),
    Message('control_change', channel=2, control=11, value=53, time=2),
    Message('control_change', channel=2, control=11, value=50, time=3),
    Message('control_change', channel=2, control=11, value=47, time=3),
    Message('control_change', channel=2, control=11, value=47, time=0),
    Message('control_change', channel=2, control=11, value=44, time=2),
    Message('control_change', channel=2, control=11, value=43, time=2),
    Message('control_change', channel=2, control=11, value=41, time=2),
    Message('control_change', channel=2, control=11, value=39, time=6),
    Message('note_on', channel=2, note=78, velocity=16, time=0),
    Message('control_change', channel=2, control=11, value=39, time=1),
    Message('control_change', channel=2, control=11, value=37, time=8),
    Message('note_on', channel=2, note=74, velocity=15, time=6),
    Message('note_off', channel=2, note=81, velocity=64, time=3),
    Message('control_change', channel=2, control=11, value=37, time=5),
    Message('control_change', channel=2, control=11, value=34, time=0),
    Message('note_off', channel=2, note=78, velocity=64, time=3),
    Message('note_off', channel=2, note=74, velocity=64, time=20),
    Message('note_off', channel=2, note=69, velocity=64, time=0),
    Message('control_change', channel=2, control=11, value=34, time=9),
    Message('control_change', channel=2, control=11, value=50, time=0),
    Message('control_change', channel=2, control=11, value=55, time=3),
    Message('control_change', channel=2, control=11, value=55, time=2),
    Message('control_change', channel=2, control=11, value=57, time=3),
    Message('control_change', channel=2, control=11, value=57, time=31),
    Message('control_change', channel=2, control=11, value=68, time=0),
    Message('control_change', channel=2, control=11, value=78, time=2),
    Message('control_change', channel=2, control=11, value=82, time=0),
    Message('control_change', channel=2, control=11, value=100, time=2),
    Message('note_on', channel=2, note=64, velocity=96, time=1),
    Message('control_change', channel=2, control=11, value=117, time=2),
    Message('note_on', channel=2, note=73, velocity=119, time=0),
    Message('note_on', channel=2, note=78, velocity=113, time=0),
    Message('note_on', channel=2, note=75, velocity=113, time=1),
    Message('control_change', channel=2, control=11, value=127, time=1),
    Message('note_on', channel=2, note=69, velocity=85, time=0),
    Message('note_on', channel=2, note=71, velocity=87, time=1),
    Message('note_off', channel=2, note=75, velocity=64, time=1),
    Message('control_change', channel=2, control=11, value=127, time=10),
    Message('control_change', channel=2, control=11, value=125, time=0),
    Message('note_off', channel=2, note=71, velocity=64, time=1),
    Message('note_on', channel=2, note=66, velocity=58, time=0),
    Message('note_off', channel=2, note=64, velocity=64, time=1),
    Message('note_off', channel=2, note=73, velocity=64, time=1),
    Message('control_change', channel=2, control=11, value=114, time=0),
    Message('control_change', channel=2, control=11, value=94, time=1),
    Message('control_change', channel=2, control=11, value=92, time=1),
    Message('control_change', channel=2, control=11, value=86, time=1),
    Message('note_off', channel=2, note=69, velocity=64, time=1),
    Message('control_change', channel=2, control=11, value=83, time=2),
    Message('note_off', channel=2, note=78, velocity=64, time=3),
    Message('note_off', channel=2, note=66, velocity=64, time=3),
    Message('control_change', channel=2, control=11, value=88, time=2),
    Message('control_change', channel=2, control=11, value=111, time=2),
    Message('control_change', channel=2, control=11, value=126, time=2),
    Message('control_change', channel=2, control=11, value=127, time=2),
    Message('control_change', channel=2, control=11, value=127, time=16),
    Message('control_change', channel=2, control=11, value=126, time=0),
    Message('control_change', channel=2, control=11, value=122, time=0),
    Message('control_change', channel=2, control=11, value=118, time=2),
    Message('control_change', channel=2, control=11, value=116, time=0),
    Message('control_change', channel=2, control=11, value=113, time=3),
    Message('control_change', channel=2, control=11, value=106, time=2),
    Message('control_change', channel=2, control=11, value=101, time=2),
    Message('control_change', channel=2, control=11, value=93, time=3),
    Message('control_change', channel=2, control=11, value=88, time=1),
    Message('control_change', channel=2, control=11, value=86, time=1),
    Message('control_change', channel=2, control=11, value=83, time=1),
    Message('control_change', channel=2, control=11, value=80, time=3),
    Message('control_change', channel=2, control=11, value=77, time=3),
    Message('control_change', channel=2, control=11, value=74, time=3),
    Message('control_change', channel=2, control=11, value=71, time=1),
    Message('control_change', channel=2, control=11, value=70, time=1),
    Message('control_change', channel=2, control=11, value=69, time=1),
    Message('control_change', channel=2, control=11, value=69, time=13),
    Message('control_change', channel=2, control=11, value=67, time=0),
    Message('note_on', channel=2, note=52, velocity=67, time=78),
    Message('note_on', channel=2, note=53, velocity=68, time=2),
    Message('note_off', channel=2, note=52, velocity=64, time=2),
    Message('note_on', channel=2, note=55, velocity=65, time=0),
    Message('note_on', channel=2, note=57, velocity=55, time=4),
    Message('control_change', channel=2, control=11, value=67, time=1),
    Message('control_change', channel=2, control=11, value=71, time=0),
    Message('note_off', channel=2, note=53, velocity=64, time=0),
    Message('note_on', channel=2, note=59, velocity=42, time=0),
    Message('control_change', channel=2, control=11, value=85, time=0),
    Message('note_off', channel=2, note=55, velocity=64, time=1),
    Message('note_on', channel=2, note=60, velocity=43, time=1),
    Message('control_change', channel=2, control=11, value=100, time=0),
    Message('note_off', channel=2, note=57, velocity=64, time=3),
    Message('note_on', channel=2, note=62, velocity=49, time=1),
    Message('control_change', channel=2, control=11, value=115, time=0),
    Message('note_off', channel=2, note=59, velocity=64, time=0),
    Message('note_on', channel=2, note=64, velocity=59, time=0),
    Message('control_change', channel=2, control=11, value=127, time=1),
    Message('note_on', channel=2, note=85, velocity=79, time=1),
    Message('note_off', channel=2, note=60, velocity=64, time=0),
    Message('note_on', channel=2, note=81, velocity=82, time=1),
    Message('note_on', channel=2, note=90, velocity=82, time=0),
    Message('note_on', channel=2, note=65, velocity=62, time=0),
    Message('note_on', channel=2, note=79, velocity=87, time=0),
    Message('note_on', channel=2, note=88, velocity=92, time=1),
    Message('note_on', channel=2, note=93, velocity=100, time=0),
    Message('note_off', channel=2, note=62, velocity=64, time=1),
    Message('note_on', channel=2, note=67, velocity=58, time=1),
    Message('note_off', channel=2, note=64, velocity=64, time=1),
    Message('note_off', channel=2, note=65, velocity=64, time=3),
    Message('note_on', channel=2, note=69, velocity=71, time=0),
    Message('note_off', channel=2, note=67, velocity=64, time=2),
    Message('note_off', channel=2, note=69, velocity=64, time=2),
    Message('control_change', channel=2, control=91, value=15, time=1),
    Message('control_change', channel=2, control=91, value=0, time=0),
    Message('control_change', channel=2, control=11, value=127, time=4),
    Message('control_change', channel=2, control=11, value=124, time=0),
    Message('control_change', channel=2, control=11, value=113, time=2),
    Message('control_change', channel=2, control=11, value=105, time=3),
    Message('control_change', channel=2, control=11, value=100, time=1),
    Message('control_change', channel=2, control=11, value=95, time=0),
    Message('control_change', channel=2, control=11, value=89, time=3),
    Message('control_change', channel=2, control=11, value=81, time=2),
    Message('control_change', channel=2, control=11, value=76, time=1),
    Message('note_off', channel=2, note=93, velocity=64, time=2),
    Message('control_change', channel=2, control=11, value=71, time=1),
    Message('note_off', channel=2, note=90, velocity=64, time=0),
    Message('note_off', channel=2, note=88, velocity=64, time=1),
    Message('note_off', channel=2, note=85, velocity=64, time=1),
    Message('control_change', channel=2, control=11, value=65, time=0),
    Message('control_change', channel=2, control=11, value=63, time=1),
    Message('control_change', channel=2, control=11, value=61, time=1),
    Message('control_change', channel=2, control=11, value=58, time=3),
    Message('note_off', channel=2, note=81, velocity=64, time=0),
    Message('control_change', channel=2, control=11, value=55, time=1),
    Message('note_on', channel=2, note=77, velocity=87, time=6),
    Message('control_change', channel=2, control=11, value=52, time=0),
    Message('control_change', channel=2, control=11, value=51, time=1),
    Message('note_off', channel=2, note=79, velocity=64, time=0),
    Message('note_on', channel=2, note=76, velocity=96, time=2),
    Message('control_change', channel=2, control=11, value=50, time=3),
    Message('note_off', channel=2, note=77, velocity=64, time=0),
    Message('note_on', channel=2, note=74, velocity=95, time=1),
    Message('note_off', channel=2, note=76, velocity=64, time=3),
    Message('note_on', channel=2, note=72, velocity=90, time=2),
    Message('control_change', channel=2, control=11, value=49, time=1),
    Message('control_change', channel=2, control=11, value=49, time=2),
    Message('note_off', channel=2, note=74, velocity=64, time=0),
    Message('note_on', channel=2, note=71, velocity=92, time=2),
    Message('note_off', channel=2, note=72, velocity=64, time=2),
    Message('control_change', channel=2, control=11, value=46, time=2),
    Message('note_on', channel=2, note=69, velocity=83, time=1),
    Message('note_off', channel=2, note=71, velocity=64, time=2),
    Message('control_change', channel=2, control=11, value=44, time=1),
    Message('control_change', channel=2, control=11, value=44, time=0),
    Message('note_on', channel=2, note=67, velocity=58, time=4),
    Message('note_off', channel=2, note=69, velocity=64, time=0),
    Message('control_change', channel=2, control=11, value=43, time=1),
    Message('note_off', channel=2, note=67, velocity=64, time=3),
    Message('control_change', channel=2, control=11, value=40, time=1),
    Message('note_on', channel=2, note=65, velocity=71, time=0),
    Message('control_change', channel=2, control=11, value=38, time=2),
    Message('control_change', channel=2, control=11, value=37, time=1),
    Message('control_change', channel=2, control=11, value=36, time=1),
    Message('note_off', channel=2, note=65, velocity=64, time=0),
    Message('note_on', channel=2, note=64, velocity=75, time=1),
    Message('control_change', channel=2, control=11, value=34, time=3),
    Message('note_off', channel=2, note=64, velocity=64, time=1),
    Message('note_on', channel=2, note=62, velocity=85, time=1),
    Message('control_change', channel=2, control=11, value=31, time=4),
    Message('control_change', channel=2, control=11, value=27, time=1),
    Message('note_off', channel=2, note=62, velocity=64, time=1),
    Message('control_change', channel=2, control=11, value=23, time=1),
    Message('note_on', channel=2, note=60, velocity=70, time=0),
    Message('control_change', channel=2, control=11, value=21, time=2),
    Message('note_off', channel=2, note=60, velocity=64, time=1),
    Message('control_change', channel=2, control=11, value=18, time=1),
    Message('control_change', channel=2, control=11, value=16, time=2),
    Message('control_change', channel=2, control=11, value=14, time=3),
    Message('control_change', channel=2, control=11, value=11, time=1),
    Message('control_change', channel=2, control=11, value=11, time=0),
    Message('control_change', channel=2, control=11, value=5, time=2),
    Message('control_change', channel=2, control=11, value=0, time=2),
    Message('control_change', channel=2, control=11, value=0, time=3457),
    Message('control_change', channel=2, control=11, value=6, time=0),
    Message('note_on', channel=2, note=99, velocity=79, time=30),
    Message('control_change', channel=2, control=11, value=6, time=23),
    Message('control_change', channel=2, control=11, value=11, time=0),
    Message('control_change', channel=2, control=11, value=11, time=2),
    Message('control_change', channel=2, control=11, value=13, time=4),
    Message('control_change', channel=2, control=11, value=15, time=6),
    Message('control_change', channel=2, control=11, value=15, time=2),
    Message('control_change', channel=2, control=11, value=17, time=9),
    Message('control_change', channel=2, control=11, value=18, time=3),
    Message('control_change', channel=2, control=11, value=19, time=0),
    Message('control_change', channel=2, control=11, value=21, time=6),
    Message('control_change', channel=2, control=11, value=23, time=5),
    Message('control_change', channel=2, control=11, value=23, time=24),
    Message('control_change', channel=2, control=11, value=25, time=0),
    Message('control_change', channel=2, control=11, value=25, time=1),
    Message('control_change', channel=2, control=11, value=26, time=6),
    Message('control_change', channel=2, control=11, value=27, time=6),
    Message('control_change', channel=2, control=11, value=28, time=4),
    Message('control_change', channel=2, control=11, value=28, time=14),
    Message('control_change', channel=2, control=11, value=30, time=0),
    Message('note_off', channel=2, note=99, velocity=64, time=172),
    Message('control_change', channel=2, control=11, value=30, time=15),
    Message('control_change', channel=2, control=11, value=15, time=0),
    Message('note_on', channel=2, note=99, velocity=75, time=36),
    Message('note_on', channel=2, note=98, velocity=54, time=293),
    Message('note_off', channel=2, note=98, velocity=64, time=95),
    Message('control_change', channel=2, control=11, value=15, time=82),
    Message('control_change', channel=2, control=11, value=18, time=0),
    Message('control_change', channel=2, control=11, value=18, time=175),
    Message('control_change', channel=2, control=11, value=24, time=0),
    Message('control_change', channel=2, control=11, value=24, time=12),
    Message('control_change', channel=2, control=11, value=26, time=0),
    Message('note_on', channel=2, note=98, velocity=54, time=16),
    Message('control_change', channel=2, control=11, value=26, time=7),
    Message('control_change', channel=2, control=11, value=28, time=0),
    Message('control_change', channel=2, control=11, value=28, time=89),
    Message('control_change', channel=2, control=11, value=29, time=0),
    Message('control_change', channel=2, control=11, value=31, time=6),
    Message('note_off', channel=2, note=98, velocity=64, time=4),
    Message('control_change', channel=2, control=11, value=31, time=29),
    Message('control_change', channel=2, control=11, value=27, time=0),
    Message('control_change', channel=2, control=11, value=25, time=4),
    Message('control_change', channel=2, control=11, value=24, time=3),
    Message('control_change', channel=2, control=11, value=23, time=3),
    Message('control_change', channel=2, control=11, value=22, time=5),
    Message('control_change', channel=2, control=11, value=20, time=4),
    Message('control_change', channel=2, control=11, value=20, time=2),
    Message('control_change', channel=2, control=11, value=20, time=13),
    Message('control_change', channel=2, control=11, value=18, time=0),
    Message('control_change', channel=2, control=11, value=16, time=9),
    Message('control_change', channel=2, control=11, value=16, time=2),
    Message('control_change', channel=2, control=11, value=14, time=10),
    Message('control_change', channel=2, control=11, value=14, time=2),
    Message('control_change', channel=2, control=11, value=14, time=30),
    Message('control_change', channel=2, control=11, value=13, time=0),
    Message('control_change', channel=2, control=11, value=13, time=125),
    Message('control_change', channel=2, control=11, value=17, time=0),
    Message('control_change', channel=2, control=11, value=19, time=8),
    Message('control_change', channel=2, control=11, value=19, time=3),
    Message('control_change', channel=2, control=11, value=20, time=8),
    Message('control_change', channel=2, control=11, value=20, time=4),
    Message('control_change', channel=2, control=11, value=22, time=6),
    Message('control_change', channel=2, control=11, value=23, time=6),
    Message('control_change', channel=2, control=11, value=24, time=4),
    Message('note_on', channel=2, note=98, velocity=70, time=4),
    Message('note_off', channel=2, note=98, velocity=64, time=97),
    Message('control_change', channel=2, control=11, value=24, time=49),
    Message('control_change', channel=2, control=11, value=20, time=0),
    Message('control_change', channel=2, control=11, value=20, time=18),
    Message('control_change', channel=2, control=11, value=18, time=0),
    Message('control_change', channel=2, control=11, value=18, time=25),
    Message('control_change', channel=2, control=11, value=16, time=0),
    Message('control_change', channel=2, control=11, value=16, time=176),
    Message('control_change', channel=2, control=11, value=20, time=0),
    Message('control_change', channel=2, control=11, value=23, time=7),
    Message('control_change', channel=2, control=11, value=25, time=2),
    Message('control_change', channel=2, control=11, value=25, time=2),
    Message('control_change', channel=2, control=11, value=26, time=0),
    Message('note_on', channel=2, note=105, velocity=75, time=1),
    Message('note_on', channel=2, note=106, velocity=62, time=0),
    Message('control_change', channel=2, control=11, value=28, time=1),
    Message('control_change', channel=2, control=11, value=30, time=4),
    Message('note_off', channel=2, note=99, velocity=64, time=2),
    Message('control_change', channel=2, control=11, value=30, time=19),
    Message('control_change', channel=2, control=11, value=25, time=0),
    Message('control_change', channel=2, control=11, value=23, time=8),
    Message('control_change', channel=2, control=11, value=22, time=1),
    Message('control_change', channel=2, control=11, value=22, time=3),
    Message('control_change', channel=2, control=11, value=20, time=4),
    Message('control_change', channel=2, control=11, value=18, time=2),
    Message('control_change', channel=2, control=11, value=17, time=3),
    Message('control_change', channel=2, control=11, value=16, time=4),
    Message('note_on', channel=2, note=99, velocity=88, time=45),
    Message('control_change', channel=2, control=11, value=16, time=1),
    Message('control_change', channel=2, control=11, value=22, time=0),
    Message('control_change', channel=2, control=11, value=26, time=2),
    Message('note_off', channel=2, note=106, velocity=64, time=2),
    Message('note_off', channel=2, note=105, velocity=64, time=1),
    Message('control_change', channel=2, control=11, value=26, time=42),
    Message('control_change', channel=2, control=11, value=22, time=0),
    Message('control_change', channel=2, control=11, value=20, time=4),
    Message('control_change', channel=2, control=11, value=19, time=5),
    Message('control_change', channel=2, control=11, value=18, time=2),
    Message('control_change', channel=2, control=11, value=17, time=4),
    Message('note_off', channel=2, note=99, velocity=64, time=201),
    Message('note_on', channel=2, note=99, velocity=77, time=120),
    Message('note_off', channel=2, note=99, velocity=64, time=289),
    Message('note_on', channel=2, note=106, velocity=73, time=0),
    Message('note_on', channel=2, note=107, velocity=90, time=0),
    Message('control_change', channel=2, control=11, value=17, time=83),
    Message('control_change', channel=2, control=11, value=21, time=0),
    Message('control_change', channel=2, control=11, value=21, time=29),
    Message('control_change', channel=2, control=11, value=20, time=0),
    Message('control_change', channel=2, control=11, value=20, time=53),
    Message('control_change', channel=2, control=11, value=19, time=0),
    Message('control_change', channel=2, control=11, value=19, time=56),
    Message('control_change', channel=2, control=11, value=18, time=0),
    Message('control_change', channel=2, control=11, value=18, time=55),
    Message('control_change', channel=2, control=11, value=17, time=0),
    Message('note_on', channel=2, note=105, velocity=73, time=12),
    Message('note_off', channel=2, note=107, velocity=64, time=6),
    Message('control_change', channel=2, control=11, value=17, time=77),
    Message('control_change', channel=2, control=11, value=16, time=0),
    Message('control_change', channel=2, control=11, value=17, time=3),
    Message('control_change', channel=2, control=11, value=18, time=3),
    Message('control_change', channel=2, control=11, value=19, time=0),
    Message('control_change', channel=2, control=11, value=20, time=5),
    Message('control_change', channel=2, control=11, value=21, time=1),
    Message('note_on', channel=2, note=107, velocity=75, time=3),
    Message('note_off', channel=2, note=105, velocity=64, time=3),
    Message('control_change', channel=2, control=11, value=21, time=63),
    Message('control_change', channel=2, control=11, value=17, time=0),
    Message('control_change', channel=2, control=11, value=17, time=16),
    Message('control_change', channel=2, control=11, value=15, time=0),
    Message('control_change', channel=2, control=11, value=15, time=25),
    Message('control_change', channel=2, control=11, value=13, time=0),
    Message('control_change', channel=2, control=11, value=13, time=19),
    Message('control_change', channel=2, control=11, value=11, time=0),
    Message('control_change', channel=2, control=11, value=11, time=21),
    Message('control_change', channel=2, control=11, value=9, time=0),
    Message('note_off', channel=2, note=107, velocity=64, time=143),
    Message('note_on', channel=2, note=105, velocity=74, time=0),
    Message('note_on', channel=2, note=107, velocity=58, time=100),
    Message('note_off', channel=2, note=105, velocity=64, time=2),
    Message('control_change', channel=2, control=11, value=9, time=87),
    Message('control_change', channel=2, control=11, value=5, time=0),
    Message('control_change', channel=2, control=11, value=5, time=16),
    Message('control_change', channel=2, control=11, value=2, time=0),
    Message('control_change', channel=2, control=11, value=0, time=5),
    Message('control_change', channel=2, control=1, value=0, time=4),
    Message('control_change', channel=2, control=1, value=127, time=0),
    Message('control_change', channel=2, control=11, value=0, time=0),
    Message('control_change', channel=2, control=1, value=0, time=0),
    Message('note_off', channel=2, note=106, velocity=64, time=98),
    Message('note_off', channel=2, note=107, velocity=64, time=2),
    MetaMessage('end_of_track', time=0)]),
  MidiTrack([
    MetaMessage('track_name', name="Raggin' Bass", time=0),
    MetaMessage('channel_prefix', channel=3, time=0),
    Message('program_change', channel=3, program=3, time=0),
    Message('control_change', channel=3, control=0, value=0, time=0),
    Message('control_change', channel=3, control=32, value=13, time=0),
    Message('control_change', channel=3, control=7, value=110, time=0),
    Message('control_change', channel=3, control=10, value=64, time=0),
    Message('control_change', channel=3, control=91, value=0, time=0),
    Message('control_change', channel=3, control=93, value=0, time=0),
    Message('pitchwheel', channel=3, pitch=0, time=2341),
    Message('pitchwheel', channel=3, pitch=-8192, time=0),
    Message('control_change', channel=3, control=11, value=127, time=0),
    Message('control_change', channel=3, control=11, value=127, time=0),
    Message('note_on', channel=3, note=44, velocity=127, time=241),
    Message('pitchwheel', channel=3, pitch=-8192, time=45),
    Message('pitchwheel', channel=3, pitch=-8026, time=0),
    Message('pitchwheel', channel=3, pitch=-7911, time=1),
    Message('pitchwheel', channel=3, pitch=-7865, time=0),
    Message('pitchwheel', channel=3, pitch=-7704, time=2),
    Message('pitchwheel', channel=3, pitch=-7543, time=2),
    Message('pitchwheel', channel=3, pitch=-7383, time=2),
    Message('pitchwheel', channel=3, pitch=-7222, time=2),
    Message('pitchwheel', channel=3, pitch=-7061, time=2),
    Message('pitchwheel', channel=3, pitch=-6900, time=2),
    Message('pitchwheel', channel=3, pitch=-6739, time=1),
    Message('pitchwheel', channel=3, pitch=-6578, time=2),
    Message('pitchwheel', channel=3, pitch=-6418, time=2),
    Message('pitchwheel', channel=3, pitch=-6257, time=2),
    Message('pitchwheel', channel=3, pitch=-6096, time=3),
    Message('pitchwheel', channel=3, pitch=-5935, time=1),
    Message('pitchwheel', channel=3, pitch=-5900, time=1),
    Message('pitchwheel', channel=3, pitch=-5774, time=2),
    Message('pitchwheel', channel=3, pitch=-5613, time=1),
    Message('pitchwheel', channel=3, pitch=-5452, time=2),
    Message('pitchwheel', channel=3, pitch=-5292, time=2),
    Message('pitchwheel', channel=3, pitch=-5131, time=2),
    Message('pitchwheel', channel=3, pitch=-4970, time=2),
    Message('pitchwheel', channel=3, pitch=-4902, time=1),
    Message('pitchwheel', channel=3, pitch=-4809, time=1),
    Message('pitchwheel', channel=3, pitch=-4648, time=4),
    Message('pitchwheel', channel=3, pitch=-4487, time=0),
    Message('pitchwheel', channel=3, pitch=-4327, time=1),
    Message('pitchwheel', channel=3, pitch=-4166, time=4),
    Message('pitchwheel', channel=3, pitch=-4005, time=0),
    Message('pitchwheel', channel=3, pitch=-3892, time=2),
    Message('pitchwheel', channel=3, pitch=-3844, time=0),
    Message('pitchwheel', channel=3, pitch=-3683, time=2),
    Message('pitchwheel', channel=3, pitch=-3522, time=3),
    Message('pitchwheel', channel=3, pitch=-3361, time=1),
    Message('pitchwheel', channel=3, pitch=-3201, time=2),
    Message('pitchwheel', channel=3, pitch=-3040, time=2),
    Message('pitchwheel', channel=3, pitch=-2879, time=2),
    Message('pitchwheel', channel=3, pitch=-2718, time=1),
    Message('pitchwheel', channel=3, pitch=-2557, time=4),
    Message('pitchwheel', channel=3, pitch=-2396, time=0),
    Message('pitchwheel', channel=3, pitch=-2236, time=2),
    Message('pitchwheel', channel=3, pitch=-2075, time=2),
    Message('pitchwheel', channel=3, pitch=-1914, time=2),
    Message('pitchwheel', channel=3, pitch=-1870, time=1),
    Message('pitchwheel', channel=3, pitch=-1753, time=1),
    Message('pitchwheel', channel=3, pitch=-1592, time=2),
    Message('pitchwheel', channel=3, pitch=-1431, time=2),
    Message('pitchwheel', channel=3, pitch=-1270, time=2),
    Message('pitchwheel', channel=3, pitch=-1110, time=2),
    Message('pitchwheel', channel=3, pitch=-949, time=2),
    Message('pitchwheel', channel=3, pitch=-895, time=1),
    Message('pitchwheel', channel=3, pitch=-788, time=1),
    Message('pitchwheel', channel=3, pitch=-627, time=2),
    Message('pitchwheel', channel=3, pitch=-466, time=2),
    Message('pitchwheel', channel=3, pitch=-305, time=1),
    Message('pitchwheel', channel=3, pitch=-145, time=2),
    Message('pitchwheel', channel=3, pitch=0, time=3),
    Message('note_off', channel=3, note=44, velocity=64, time=3),
    Message('note_on', channel=3, note=44, velocity=115, time=0),
    Message('note_off', channel=3, note=44, velocity=64, time=0),
    Message('note_on', channel=3, note=44, velocity=116, time=359),
    Message('note_off', channel=3, note=44, velocity=64, time=57),
    Message('note_on', channel=3, note=48, velocity=115, time=15),
    Message('note_off', channel=3, note=48, velocity=64, time=29),
    Message('note_on', channel=3, note=51, velocity=114, time=19),
    Message('note_off', channel=3, note=51, velocity=64, time=0),
    Message('note_on', channel=3, note=51, velocity=114, time=0),
    Message('note_off', channel=3, note=51, velocity=64, time=36),
    Message('note_on', channel=3, note=44, velocity=114, time=252),
    Message('note_off', channel=3, note=44, velocity=64, time=30),
    Message('note_on', channel=3, note=48, velocity=110, time=18),
    Message('note_on', channel=3, note=51, velocity=110, time=30),
    Message('note_off', channel=3, note=48, velocity=64, time=1),
    Message('note_off', channel=3, note=51, velocity=64, time=24),
    Message('note_on', channel=3, note=53, velocity=114, time=20),
    Message('note_off', channel=3, note=53, velocity=64, time=27),
    Message('note_on', channel=3, note=51, velocity=112, time=21),
    Message('note_off', channel=3, note=51, velocity=64, time=17),
    Message('note_on', channel=3, note=53, velocity=112, time=7),
    Message('note_on', channel=3, note=54, velocity=110, time=11),
    Message('note_off', channel=3, note=53, velocity=64, time=5),
    Message('note_off', channel=3, note=54, velocity=64, time=21),
    Message('note_on', channel=3, note=53, velocity=113, time=12),
    Message('note_off', channel=3, note=53, velocity=64, time=27),
    Message('note_on', channel=3, note=51, velocity=110, time=20),
    Message('note_off', channel=3, note=51, velocity=64, time=45),
    Message('note_on', channel=3, note=49, velocity=106, time=1),
    Message('note_off', channel=3, note=49, velocity=64, time=24),
    Message('note_on', channel=3, note=51, velocity=112, time=6),
    Message('note_off', channel=3, note=51, velocity=64, time=25),
    Message('note_on', channel=3, note=47, velocity=111, time=21),
    Message('note_on', channel=3, note=48, velocity=106, time=10),
    Message('note_off', channel=3, note=47, velocity=64, time=6),
    Message('note_off', channel=3, note=48, velocity=64, time=13),
    Message('note_on', channel=3, note=44, velocity=110, time=21),
    Message('note_off', channel=3, note=44, velocity=64, time=25),
    Message('note_on', channel=3, note=42, velocity=105, time=20),
    Message('note_off', channel=3, note=42, velocity=64, time=22),
    Message('note_on', channel=3, note=44, velocity=113, time=2),
    Message('note_off', channel=3, note=44, velocity=64, time=37),
    Message('note_on', channel=3, note=65, velocity=98, time=35),
    Message('note_on', channel=3, note=64, velocity=95, time=9),
    Message('note_on', channel=3, note=63, velocity=92, time=11),
    Message('note_off', channel=3, note=65, velocity=64, time=3),
    Message('note_off', channel=3, note=64, velocity=64, time=11),
    Message('note_on', channel=3, note=60, velocity=100, time=12),
    Message('note_off', channel=3, note=63, velocity=64, time=13),
    Message('note_on', channel=3, note=59, velocity=93, time=9),
    Message('note_off', channel=3, note=60, velocity=64, time=7),
    Message('note_on', channel=3, note=50, velocity=87, time=17),
    Message('note_off', channel=3, note=59, velocity=64, time=8),
    Message('note_on', channel=3, note=51, velocity=79, time=16),
    Message('note_off', channel=3, note=50, velocity=64, time=3),
    Message('note_on', channel=3, note=54, velocity=102, time=21),
    Message('note_off', channel=3, note=51, velocity=64, time=8),
    Message('note_on', channel=3, note=44, velocity=92, time=16),
    Message('note_off', channel=3, note=54, velocity=64, time=3),
    Message('pitchwheel', channel=3, pitch=0, time=13),
    Message('pitchwheel', channel=3, pitch=-115, time=0),
    Message('pitchwheel', channel=3, pitch=-393, time=2),
    Message('pitchwheel', channel=3, pitch=-671, time=2),
    Message('pitchwheel', channel=3, pitch=-949, time=2),
    Message('pitchwheel', channel=3, pitch=-1010, time=1),
    Message('pitchwheel', channel=3, pitch=-1227, time=1),
    Message('pitchwheel', channel=3, pitch=-1504, time=2),
    Message('pitchwheel', channel=3, pitch=-1782, time=2),
    Message('pitchwheel', channel=3, pitch=-2060, time=2),
    Message('pitchwheel', channel=3, pitch=-2338, time=2),
    Message('pitchwheel', channel=3, pitch=-2616, time=2),
    Message('pitchwheel', channel=3, pitch=-2741, time=1),
    Message('pitchwheel', channel=3, pitch=-2893, time=1),
    Message('pitchwheel', channel=3, pitch=-3171, time=3),
    Message('pitchwheel', channel=3, pitch=-3449, time=1),
    Message('pitchwheel', channel=3, pitch=-3727, time=1),
    Message('pitchwheel', channel=3, pitch=-4005, time=3),
    Message('pitchwheel', channel=3, pitch=-4282, time=1),
    Message('pitchwheel', channel=3, pitch=-4467, time=2),
    Message('pitchwheel', channel=3, pitch=-4560, time=0),
    Message('pitchwheel', channel=3, pitch=-4838, time=2),
    Message('pitchwheel', channel=3, pitch=-5116, time=2),
    Message('pitchwheel', channel=3, pitch=-5394, time=2),
    Message('pitchwheel', channel=3, pitch=-5672, time=2),
    Message('pitchwheel', channel=3, pitch=-5949, time=2),
    Message('pitchwheel', channel=3, pitch=-6199, time=2),
    Message('pitchwheel', channel=3, pitch=-6227, time=0),
    Message('pitchwheel', channel=3, pitch=-6505, time=3),
    Message('pitchwheel', channel=3, pitch=-6783, time=0),
    Message('pitchwheel', channel=3, pitch=-7061, time=3),
    Message('pitchwheel', channel=3, pitch=-7338, time=1),
    Message('pitchwheel', channel=3, pitch=-7616, time=3),
    Message('pitchwheel', channel=3, pitch=-1523, time=2),
    Message('pitchwheel', channel=3, pitch=0, time=0),
    Message('note_off', channel=3, note=44, velocity=64, time=1),
    Message('note_on', channel=3, note=44, velocity=112, time=0),
    Message('pitchwheel', channel=3, pitch=0, time=76),
    Message('pitchwheel', channel=3, pitch=-115, time=0),
    Message('pitchwheel', channel=3, pitch=-290, time=2),
    Message('pitchwheel', channel=3, pitch=-465, time=3),
    Message('pitchwheel', channel=3, pitch=-640, time=1),
    Message('pitchwheel', channel=3, pitch=-717, time=1),
    Message('pitchwheel', channel=3, pitch=-814, time=1),
    Message('pitchwheel', channel=3, pitch=-989, time=2),
    Message('pitchwheel', channel=3, pitch=-1164, time=1),
    Message('pitchwheel', channel=3, pitch=-1338, time=2),
    Message('pitchwheel', channel=3, pitch=-1513, time=3),
    Message('pitchwheel', channel=3, pitch=-1688, time=1),
    Message('pitchwheel', channel=3, pitch=-1824, time=2),
    Message('pitchwheel', channel=3, pitch=-1863, time=0),
    Message('pitchwheel', channel=3, pitch=-2037, time=2),
    Message('pitchwheel', channel=3, pitch=-2212, time=2),
    Message('pitchwheel', channel=3, pitch=-2387, time=2),
    Message('pitchwheel', channel=3, pitch=-2561, time=2),
    Message('pitchwheel', channel=3, pitch=-2736, time=1),
    Message('pitchwheel', channel=3, pitch=-2911, time=3),
    Message('pitchwheel', channel=3, pitch=-3085, time=1),
    Message('pitchwheel', channel=3, pitch=-3260, time=2),
    Message('pitchwheel', channel=3, pitch=-3435, time=2),
    Message('pitchwheel', channel=3, pitch=-3610, time=2),
    Message('pitchwheel', channel=3, pitch=-3784, time=2),
    Message('pitchwheel', channel=3, pitch=-3959, time=2),
    Message('pitchwheel', channel=3, pitch=-4011, time=1),
    Message('pitchwheel', channel=3, pitch=-4134, time=1),
    Message('pitchwheel', channel=3, pitch=-4308, time=2),
    Message('pitchwheel', channel=3, pitch=-4483, time=2),
    Message('pitchwheel', channel=3, pitch=-4658, time=2),
    Message('pitchwheel', channel=3, pitch=-4833, time=2),
    Message('pitchwheel', channel=3, pitch=-5007, time=2),
    Message('pitchwheel', channel=3, pitch=-5094, time=1),
    Message('pitchwheel', channel=3, pitch=-5182, time=0),
    Message('pitchwheel', channel=3, pitch=-5357, time=4),
    Message('pitchwheel', channel=3, pitch=-5531, time=0),
    Message('pitchwheel', channel=3, pitch=-5706, time=2),
    Message('pitchwheel', channel=3, pitch=-5881, time=3),
    Message('pitchwheel', channel=3, pitch=-6056, time=1),
    Message('pitchwheel', channel=3, pitch=-6177, time=2),
    Message('pitchwheel', channel=3, pitch=-6230, time=0),
    Message('pitchwheel', channel=3, pitch=-6405, time=2),
    Message('pitchwheel', channel=3, pitch=-6580, time=2),
    Message('pitchwheel', channel=3, pitch=-6754, time=2),
    Message('pitchwheel', channel=3, pitch=-6929, time=2),
    Message('pitchwheel', channel=3, pitch=-7104, time=2),
    Message('pitchwheel', channel=3, pitch=-7279, time=2),
    Message('note_off', channel=3, note=44, velocity=64, time=1),
    Message('pitchwheel', channel=3, pitch=-7453, time=0),
    Message('pitchwheel', channel=3, pitch=-7628, time=2),
    Message('pitchwheel', channel=3, pitch=-7803, time=2),
    Message('pitchwheel', channel=3, pitch=-7977, time=2),
    Message('pitchwheel', channel=3, pitch=-8152, time=3),
    Message('pitchwheel', channel=3, pitch=-3260, time=2),
    Message('pitchwheel', channel=3, pitch=0, time=1),
    Message('note_on', channel=3, note=44, velocity=115, time=120),
    Message('note_off', channel=3, note=44, velocity=64, time=49),
    Message('note_on', channel=3, note=48, velocity=116, time=23),
    Message('note_off', channel=3, note=48, velocity=64, time=26),
    Message('note_on', channel=3, note=51, velocity=116, time=22),
    Message('note_off', channel=3, note=51, velocity=64, time=32),
    Message('note_on', channel=3, note=44, velocity=111, time=256),
    Message('note_off', channel=3, note=44, velocity=64, time=34),
    Message('note_on', channel=3, note=48, velocity=112, time=14),
    Message('note_off', channel=3, note=48, velocity=64, time=30),
    Message('note_on', channel=3, note=51, velocity=112, time=2),
    Message('note_off', channel=3, note=51, velocity=64, time=23),
    Message('note_on', channel=3, note=53, velocity=115, time=22),
    Message('note_off', channel=3, note=53, velocity=64, time=24),
    Message('note_on', channel=3, note=51, velocity=115, time=22),
    Message('note_off', channel=3, note=51, velocity=64, time=17),
    Message('note_on', channel=3, note=53, velocity=112, time=5),
    Message('note_on', channel=3, note=54, velocity=110, time=10),
    Message('note_off', channel=3, note=53, velocity=64, time=4),
    Message('note_off', channel=3, note=54, velocity=64, time=17),
    Message('note_on', channel=3, note=53, velocity=113, time=17),
    Message('note_off', channel=3, note=53, velocity=64, time=26),
    Message('note_on', channel=3, note=51, velocity=110, time=21),
    Message('note_off', channel=3, note=51, velocity=64, time=47),
    Message('note_on', channel=3, note=49, velocity=107, time=1),
    Message('note_off', channel=3, note=49, velocity=64, time=29),
    Message('note_on', channel=3, note=51, velocity=114, time=1),
    Message('note_off', channel=3, note=51, velocity=64, time=24),
    Message('note_on', channel=3, note=47, velocity=109, time=20),
    Message('note_on', channel=3, note=48, velocity=110, time=10),
    Message('note_off', channel=3, note=47, velocity=64, time=4),
    Message('note_off', channel=3, note=48, velocity=64, time=13),
    Message('note_on', channel=3, note=44, velocity=108, time=20),
    Message('note_off', channel=3, note=44, velocity=64, time=25),
    Message('note_on', channel=3, note=42, velocity=104, time=22),
    Message('note_off', channel=3, note=42, velocity=64, time=23),
    Message('note_on', channel=3, note=44, velocity=112, time=1),
    Message('note_off', channel=3, note=44, velocity=64, time=37),
    Message('note_on', channel=3, note=53, velocity=116, time=205),
    Message('note_on', channel=3, note=45, velocity=104, time=118),
    Message('note_off', channel=3, note=53, velocity=64, time=6),
    Message('note_on', channel=3, note=41, velocity=93, time=20),
    Message('note_off', channel=3, note=45, velocity=64, time=6),
    Message('note_off', channel=3, note=41, velocity=64, time=13),
    Message('note_on', channel=3, note=40, velocity=112, time=4),
    Message('note_off', channel=3, note=40, velocity=64, time=140),
    Message('note_on', channel=3, note=43, velocity=99, time=3),
    Message('note_on', channel=3, note=44, velocity=110, time=24),
    Message('note_off', channel=3, note=43, velocity=64, time=5),
    Message('note_off', channel=3, note=44, velocity=64, time=15),
    Message('note_on', channel=3, note=45, velocity=112, time=4),
    Message('control_change', channel=3, control=11, value=127, time=220),
    Message('control_change', channel=3, control=11, value=127, time=0),
    Message('control_change', channel=3, control=11, value=127, time=17),
    Message('control_change', channel=3, control=11, value=126, time=0),
    Message('control_change', channel=3, control=11, value=124, time=2),
    Message('control_change', channel=3, control=11, value=123, time=1),
    Message('control_change', channel=3, control=11, value=125, time=1),
    Message('control_change', channel=3, control=11, value=124, time=6),
    Message('control_change', channel=3, control=11, value=124, time=17),
    Message('control_change', channel=3, control=11, value=118, time=0),
    Message('control_change', channel=3, control=11, value=118, time=24),
    Message('control_change', channel=3, control=11, value=113, time=0),
    Message('control_change', channel=3, control=11, value=113, time=24),
    Message('control_change', channel=3, control=11, value=108, time=0),
    Message('control_change', channel=3, control=11, value=108, time=23),
    Message('control_change', channel=3, control=11, value=103, time=0),
    Message('control_change', channel=3, control=11, value=103, time=25),
    Message('control_change', channel=3, control=11, value=98, time=0),
    Message('control_change', channel=3, control=11, value=98, time=24),
    Message('control_change', channel=3, control=11, value=93, time=0),
    Message('note_off', channel=3, note=45, velocity=64, time=21),
    Message('control_change', channel=3, control=11, value=93, time=3),
    Message('control_change', channel=3, control=11, value=87, time=0),
    Message('control_change', channel=3, control=1, value=0, time=14),
    Message('control_change', channel=3, control=1, value=11, time=0),
    Message('control_change', channel=3, control=1, value=19, time=2),
    Message('control_change', channel=3, control=1, value=23, time=6),
    Message('control_change', channel=3, control=1, value=23, time=1),
    Message('control_change', channel=3, control=11, value=87, time=1),
    Message('control_change', channel=3, control=11, value=82, time=0),
    Message('control_change', channel=3, control=1, value=27, time=3),
    Message('control_change', channel=3, control=1, value=27, time=16),
    Message('control_change', channel=3, control=1, value=32, time=0),
    Message('control_change', channel=3, control=1, value=35, time=4),
    Message('control_change', channel=3, control=1, value=36, time=0),
    Message('control_change', channel=3, control=11, value=82, time=1),
    Message('control_change', channel=3, control=11, value=77, time=0),
    Message('control_change', channel=3, control=1, value=44, time=3),
    Message('control_change', channel=3, control=1, value=52, time=4),
    Message('control_change', channel=3, control=1, value=56, time=3),
    Message('control_change', channel=3, control=1, value=57, time=1),
    Message('control_change', channel=3, control=1, value=60, time=1),
    Message('control_change', channel=3, control=1, value=65, time=2),
    Message('control_change', channel=3, control=1, value=71, time=2),
    Message('control_change', channel=3, control=1, value=77, time=2),
    Message('control_change', channel=3, control=1, value=81, time=2),
    Message('control_change', channel=3, control=1, value=85, time=2),
    Message('control_change', channel=3, control=1, value=86, time=1),
    Message('control_change', channel=3, control=11, value=77, time=1),
    Message('control_change', channel=3, control=11, value=72, time=0),
    Message('control_change', channel=3, control=1, value=89, time=0),
    Message('control_change', channel=3, control=1, value=93, time=4),
    Message('control_change', channel=3, control=1, value=96, time=1),
    Message('control_change', channel=3, control=1, value=100, time=1),
    Message('control_change', channel=3, control=1, value=104, time=4),
    Message('control_change', channel=3, control=1, value=104, time=1),
    Message('control_change', channel=3, control=1, value=108, time=4),
    Message('control_change', channel=3, control=1, value=112, time=4),
    Message('control_change', channel=3, control=1, value=116, time=3),
    Message('control_change', channel=3, control=1, value=116, time=1),
    Message('control_change', channel=3, control=11, value=72, time=1),
    Message('control_change', channel=3, control=11, value=67, time=0),
    Message('control_change', channel=3, control=1, value=120, time=1),
    Message('control_change', channel=3, control=1, value=124, time=6),
    Message('control_change', channel=3, control=11, value=67, time=17),
    Message('control_change', channel=3, control=11, value=62, time=0),
    Message('control_change', channel=3, control=1, value=124, time=6),
    Message('control_change', channel=3, control=1, value=127, time=0),
    Message('control_change', channel=3, control=1, value=127, time=0),
    Message('control_change', channel=3, control=11, value=62, time=18),
    Message('control_change', channel=3, control=11, value=57, time=0),
    Message('control_change', channel=3, control=11, value=57, time=24),
    Message('control_change', channel=3, control=11, value=52, time=0),
    Message('control_change', channel=3, control=11, value=52, time=24),
    Message('control_change', channel=3, control=11, value=47, time=0),
    Message('control_change', channel=3, control=11, value=47, time=24),
    Message('control_change', channel=3, control=11, value=42, time=0),
    Message('control_change', channel=3, control=11, value=42, time=24),
    Message('control_change', channel=3, control=11, value=36, time=0),
    Message('control_change', channel=3, control=11, value=36, time=24),
    Message('control_change', channel=3, control=11, value=31, time=0),
    Message('control_change', channel=3, control=11, value=31, time=24),
    Message('control_change', channel=3, control=11, value=26, time=0),
    Message('control_change', channel=3, control=11, value=26, time=24),
    Message('control_change', channel=3, control=11, value=21, time=0),
    Message('control_change', channel=3, control=1, value=127, time=19),
    Message('control_change', channel=3, control=1, value=126, time=0),
    Message('control_change', channel=3, control=1, value=122, time=3),
    Message('control_change', channel=3, control=1, value=119, time=1),
    Message('control_change', channel=3, control=1, value=116, time=0),
    Message('control_change', channel=3, control=11, value=21, time=1),
    Message('control_change', channel=3, control=11, value=16, time=0),
    Message('control_change', channel=3, control=1, value=110, time=1),
    Message('control_change', channel=3, control=1, value=104, time=4),
    Message('control_change', channel=3, control=1, value=98, time=1),
    Message('control_change', channel=3, control=1, value=93, time=2),
    Message('control_change', channel=3, control=1, value=87, time=2),
    Message('control_change', channel=3, control=1, value=85, time=1),
    Message('control_change', channel=3, control=1, value=81, time=1),
    Message('control_change', channel=3, control=1, value=75, time=2),
    Message('control_change', channel=3, control=1, value=69, time=2),
    Message('control_change', channel=3, control=1, value=62, time=2),
    Message('control_change', channel=3, control=1, value=56, time=2),
    Message('control_change', channel=3, control=1, value=50, time=2),
    Message('control_change', channel=3, control=1, value=48, time=1),
    Message('control_change', channel=3, control=11, value=16, time=1),
    Message('control_change', channel=3, control=11, value=11, time=0),
    Message('control_change', channel=3, control=1, value=40, time=0),
    Message('control_change', channel=3, control=1, value=34, time=2),
    Message('control_change', channel=3, control=1, value=25, time=3),
    Message('control_change', channel=3, control=1, value=15, time=2),
    Message('control_change', channel=3, control=1, value=9, time=3),
    Message('control_change', channel=3, control=1, value=3, time=1),
    Message('control_change', channel=3, control=1, value=0, time=0),
    Message('control_change', channel=3, control=11, value=11, time=13),
    Message('control_change', channel=3, control=11, value=6, time=0),
    Message('control_change', channel=3, control=11, value=6, time=19),
    Message('control_change', channel=3, control=11, value=4, time=0),
    Message('control_change', channel=3, control=11, value=3, time=4),
    Message('control_change', channel=3, control=11, value=3, time=0),
    Message('control_change', channel=3, control=11, value=5, time=1),
    Message('control_change', channel=3, control=11, value=2, time=5),
    Message('control_change', channel=3, control=11, value=1, time=4),
    Message('control_change', channel=3, control=11, value=1, time=232),
    Message('control_change', channel=3, control=11, value=127, time=0),
    Message('note_on', channel=3, note=44, velocity=114, time=96),
    Message('note_off', channel=3, note=44, velocity=64, time=73),
    Message('note_on', channel=3, note=44, velocity=116, time=312),
    Message('note_off', channel=3, note=44, velocity=64, time=55),
    Message('note_on', channel=3, note=48, velocity=116, time=18),
    Message('note_off', channel=3, note=48, velocity=64, time=26),
    Message('note_on', channel=3, note=51, velocity=116, time=21),
    Message('note_off', channel=3, note=51, velocity=64, time=35),
    Message('note_on', channel=3, note=44, velocity=116, time=255),
    Message('note_off', channel=3, note=44, velocity=64, time=27),
    Message('note_on', channel=3, note=48, velocity=113, time=20),
    Message('note_on', channel=3, note=51, velocity=111, time=27),
    Message('note_off', channel=3, note=48, velocity=64, time=4),
    Message('note_off', channel=3, note=51, velocity=64, time=23),
    Message('note_on', channel=3, note=53, velocity=114, time=19),
    Message('note_off', channel=3, note=53, velocity=64, time=23),
    Message('note_on', channel=3, note=51, velocity=113, time=24),
    Message('note_off', channel=3, note=51, velocity=64, time=9),
    Message('note_on', channel=3, note=53, velocity=114, time=11),
    Message('note_on', channel=3, note=54, velocity=111, time=9),
    Message('note_off', channel=3, note=53, velocity=64, time=4),
    Message('note_off', channel=3, note=54, velocity=64, time=21),
    Message('note_on', channel=3, note=53, velocity=113, time=17),
    Message('note_off', channel=3, note=53, velocity=64, time=23),
    Message('note_on', channel=3, note=51, velocity=112, time=26),
    Message('note_on', channel=3, note=49, velocity=105, time=44),
    Message('note_off', channel=3, note=51, velocity=64, time=1),
    Message('note_on', channel=3, note=48, velocity=112, time=30),
    Message('note_off', channel=3, note=49, velocity=64, time=2),
    Message('note_off', channel=3, note=48, velocity=64, time=21),
    Message('note_on', channel=3, note=50, velocity=111, time=19),
    Message('note_on', channel=3, note=51, velocity=111, time=13),
    Message('note_off', channel=3, note=50, velocity=64, time=2),
    Message('note_off', channel=3, note=51, velocity=64, time=15),
    Message('note_on', channel=3, note=53, velocity=112, time=22),
    Message('note_off', channel=3, note=53, velocity=64, time=22),
    Message('note_on', channel=3, note=51, velocity=106, time=25),
    Message('note_off', channel=3, note=51, velocity=64, time=20),
    Message('note_on', channel=3, note=47, velocity=119, time=81),
    Message('note_off', channel=3, note=47, velocity=64, time=29),
    Message('note_on', channel=3, note=48, velocity=119, time=65),
    Message('note_off', channel=3, note=48, velocity=64, time=24),
    Message('note_on', channel=3, note=49, velocity=124, time=68),
    Message('note_off', channel=3, note=49, velocity=64, time=24),
    Message('note_on', channel=3, note=51, velocity=119, time=76),
    Message('pitchwheel', channel=3, pitch=0, time=20),
    Message('pitchwheel', channel=3, pitch=-35, time=0),
    Message('pitchwheel', channel=3, pitch=-169, time=2),
    Message('pitchwheel', channel=3, pitch=-303, time=2),
    Message('pitchwheel', channel=3, pitch=-437, time=1),
    Message('pitchwheel', channel=3, pitch=-571, time=3),
    Message('pitchwheel', channel=3, pitch=-615, time=1),
    Message('pitchwheel', channel=3, pitch=-704, time=0),
    Message('pitchwheel', channel=3, pitch=-838, time=2),
    Message('pitchwheel', channel=3, pitch=-972, time=2),
    Message('pitchwheel', channel=3, pitch=-1106, time=2),
    Message('pitchwheel', channel=3, pitch=-1240, time=2),
    Message('pitchwheel', channel=3, pitch=-1374, time=2),
    Message('pitchwheel', channel=3, pitch=-1492, time=2),
    Message('pitchwheel', channel=3, pitch=-1507, time=0),
    Message('pitchwheel', channel=3, pitch=-1641, time=2),
    Message('pitchwheel', channel=3, pitch=-1775, time=2),
    Message('pitchwheel', channel=3, pitch=-1909, time=1),
    Message('pitchwheel', channel=3, pitch=-2043, time=3),
    Message('pitchwheel', channel=3, pitch=-2176, time=1),
    Message('pitchwheel', channel=3, pitch=-2274, time=3),
    Message('pitchwheel', channel=3, pitch=-2310, time=0),
    Message('pitchwheel', channel=3, pitch=-2444, time=1),
    Message('pitchwheel', channel=3, pitch=-2578, time=2),
    Message('pitchwheel', channel=3, pitch=-2712, time=3),
    Message('pitchwheel', channel=3, pitch=-2845, time=1),
    Message('pitchwheel', channel=3, pitch=-2979, time=2),
    Message('pitchwheel', channel=3, pitch=-3102, time=3),
    Message('pitchwheel', channel=3, pitch=-3113, time=0),
    Message('pitchwheel', channel=3, pitch=-3247, time=1),
    Message('pitchwheel', channel=3, pitch=-3381, time=2),
    Message('pitchwheel', channel=3, pitch=-3514, time=2),
    Message('pitchwheel', channel=3, pitch=-3648, time=2),
    Message('pitchwheel', channel=3, pitch=-3782, time=1),
    Message('pitchwheel', channel=3, pitch=-3916, time=3),
    Message('pitchwheel', channel=3, pitch=-3990, time=1),
    Message('pitchwheel', channel=3, pitch=-4050, time=0),
    Message('pitchwheel', channel=3, pitch=-4183, time=2),
    Message('pitchwheel', channel=3, pitch=-4317, time=3),
    Message('pitchwheel', channel=3, pitch=-4451, time=1),
    Message('pitchwheel', channel=3, pitch=-4585, time=2),
    Message('pitchwheel', channel=3, pitch=-4719, time=2),
    Message('pitchwheel', channel=3, pitch=-4838, time=2),
    Message('pitchwheel', channel=3, pitch=-4853, time=0),
    Message('pitchwheel', channel=3, pitch=-4986, time=2),
    Message('pitchwheel', channel=3, pitch=-5120, time=2),
    Message('pitchwheel', channel=3, pitch=-5254, time=2),
    Message('pitchwheel', channel=3, pitch=-5388, time=2),
    Message('pitchwheel', channel=3, pitch=-5522, time=1),
    Message('pitchwheel', channel=3, pitch=-5655, time=2),
    Message('pitchwheel', channel=3, pitch=-5671, time=1),
    Message('pitchwheel', channel=3, pitch=-5789, time=1),
    Message('pitchwheel', channel=3, pitch=-5923, time=2),
    Message('pitchwheel', channel=3, pitch=-6057, time=3),
    Message('pitchwheel', channel=3, pitch=-6191, time=1),
    Message('pitchwheel', channel=3, pitch=-6324, time=2),
    Message('pitchwheel', channel=3, pitch=-6440, time=3),
    Message('pitchwheel', channel=3, pitch=-6458, time=0),
    Message('pitchwheel', channel=3, pitch=-6592, time=1),
    Message('pitchwheel', channel=3, pitch=-6726, time=2),
    Message('pitchwheel', channel=3, pitch=-6860, time=3),
    Message('pitchwheel', channel=3, pitch=-6993, time=1),
    Message('pitchwheel', channel=3, pitch=-7127, time=1),
    Message('pitchwheel', channel=3, pitch=-7261, time=3),
    Message('pitchwheel', channel=3, pitch=-7294, time=1),
    Message('pitchwheel', channel=3, pitch=-7395, time=0),
    Message('pitchwheel', channel=3, pitch=-7529, time=2),
    Message('pitchwheel', channel=3, pitch=-7662, time=2),
    Message('pitchwheel', channel=3, pitch=-7796, time=2),
    Message('pitchwheel', channel=3, pitch=-7930, time=2),
    Message('pitchwheel', channel=3, pitch=-8064, time=2),
    Message('pitchwheel', channel=3, pitch=-8179, time=2),
    Message('pitchwheel', channel=3, pitch=-8192, time=0),
    Message('pitchwheel', channel=3, pitch=-8192, time=18),
    Message('pitchwheel', channel=3, pitch=-8192, time=0),
    Message('pitchwheel', channel=3, pitch=-8114, time=3),
    Message('pitchwheel', channel=3, pitch=-8026, time=3),
    Message('pitchwheel', channel=3, pitch=-8004, time=0),
    Message('pitchwheel', channel=3, pitch=-7895, time=1),
    Message('pitchwheel', channel=3, pitch=-7785, time=2),
    Message('pitchwheel', channel=3, pitch=-7675, time=3),
    Message('pitchwheel', channel=3, pitch=-7565, time=1),
    Message('pitchwheel', channel=3, pitch=-7456, time=2),
    Message('pitchwheel', channel=3, pitch=-7368, time=3),
    Message('pitchwheel', channel=3, pitch=-7346, time=0),
    Message('pitchwheel', channel=3, pitch=-7236, time=1),
    Message('pitchwheel', channel=3, pitch=-7127, time=2),
    Message('pitchwheel', channel=3, pitch=-7017, time=2),
    Message('pitchwheel', channel=3, pitch=-6907, time=2),
    Message('pitchwheel', channel=3, pitch=-6798, time=1),
    Message('pitchwheel', channel=3, pitch=-6688, time=2),
    Message('pitchwheel', channel=3, pitch=-6622, time=2),
    Message('pitchwheel', channel=3, pitch=-6578, time=0),
    Message('pitchwheel', channel=3, pitch=-6469, time=2),
    Message('pitchwheel', channel=3, pitch=-6359, time=2),
    Message('pitchwheel', channel=3, pitch=-6249, time=2),
    Message('pitchwheel', channel=3, pitch=-6139, time=2),
    Message('pitchwheel', channel=3, pitch=-6030, time=2),
    Message('pitchwheel', channel=3, pitch=-5940, time=2),
    Message('pitchwheel', channel=3, pitch=-5920, time=0),
    Message('pitchwheel', channel=3, pitch=-5810, time=2),
    Message('pitchwheel', channel=3, pitch=-5701, time=2),
    Message('pitchwheel', channel=3, pitch=-5591, time=2),
    Message('pitchwheel', channel=3, pitch=-5481, time=2),
    Message('pitchwheel', channel=3, pitch=-5372, time=2),
    Message('pitchwheel', channel=3, pitch=-5280, time=2),
    Message('pitchwheel', channel=3, pitch=-5262, time=0),
    Message('pitchwheel', channel=3, pitch=-5152, time=1),
    Message('pitchwheel', channel=3, pitch=-5042, time=2),
    Message('pitchwheel', channel=3, pitch=-4933, time=3),
    Message('pitchwheel', channel=3, pitch=-4823, time=1),
    Message('pitchwheel', channel=3, pitch=-4713, time=2),
    Message('pitchwheel', channel=3, pitch=-4629, time=3),
    Message('pitchwheel', channel=3, pitch=-4604, time=0),
    Message('pitchwheel', channel=3, pitch=-4494, time=1),
    Message('pitchwheel', channel=3, pitch=-4384, time=2),
    Message('pitchwheel', channel=3, pitch=-4275, time=3),
    Message('pitchwheel', channel=3, pitch=-4165, time=1),
    Message('pitchwheel', channel=3, pitch=-4055, time=2),
    Message('pitchwheel', channel=3, pitch=-3945, time=1),
    Message('pitchwheel', channel=3, pitch=-3872, time=2),
    Message('pitchwheel', channel=3, pitch=-3836, time=0),
    Message('pitchwheel', channel=3, pitch=-3726, time=2),
    Message('pitchwheel', channel=3, pitch=-3616, time=2),
    Message('pitchwheel', channel=3, pitch=-3507, time=3),
    Message('pitchwheel', channel=3, pitch=-3397, time=1),
    Message('pitchwheel', channel=3, pitch=-3287, time=2),
    Message('pitchwheel', channel=3, pitch=-3211, time=2),
    Message('pitchwheel', channel=3, pitch=-3178, time=0),
    Message('pitchwheel', channel=3, pitch=-3068, time=2),
    Message('pitchwheel', channel=3, pitch=-2958, time=2),
    Message('pitchwheel', channel=3, pitch=-2849, time=2),
    Message('pitchwheel', channel=3, pitch=-2739, time=1),
    Message('pitchwheel', channel=3, pitch=-2629, time=3),
    Message('pitchwheel', channel=3, pitch=-2519, time=1),
    Message('pitchwheel', channel=3, pitch=-2499, time=1),
    Message('pitchwheel', channel=3, pitch=-2410, time=1),
    Message('pitchwheel', channel=3, pitch=-2300, time=2),
    Message('pitchwheel', channel=3, pitch=-2190, time=2),
    Message('pitchwheel', channel=3, pitch=-2081, time=2),
    Message('pitchwheel', channel=3, pitch=-1971, time=2),
    Message('pitchwheel', channel=3, pitch=-1888, time=3),
    Message('pitchwheel', channel=3, pitch=-1861, time=0),
    Message('pitchwheel', channel=3, pitch=-1752, time=1),
    Message('pitchwheel', channel=3, pitch=-1642, time=2),
    Message('pitchwheel', channel=3, pitch=-1532, time=4),
    Message('pitchwheel', channel=3, pitch=-1422, time=0),
    Message('pitchwheel', channel=3, pitch=-1313, time=2),
    Message('pitchwheel', channel=3, pitch=-1203, time=2),
    Message('pitchwheel', channel=3, pitch=-1148, time=1),
    Message('pitchwheel', channel=3, pitch=-1093, time=0),
    Message('pitchwheel', channel=3, pitch=-984, time=2),
    Message('pitchwheel', channel=3, pitch=-874, time=2),
    Message('pitchwheel', channel=3, pitch=-764, time=2),
    Message('pitchwheel', channel=3, pitch=-655, time=2),
    Message('pitchwheel', channel=3, pitch=-545, time=2),
    Message('pitchwheel', channel=3, pitch=-457, time=2),
    Message('pitchwheel', channel=3, pitch=-435, time=0),
    Message('pitchwheel', channel=3, pitch=-326, time=2),
    Message('pitchwheel', channel=3, pitch=-216, time=2),
    Message('pitchwheel', channel=3, pitch=-106, time=2),
    Message('pitchwheel', channel=3, pitch=-35, time=2),
    Message('pitchwheel', channel=3, pitch=63, time=2),
    Message('pitchwheel', channel=3, pitch=116, time=2),
    Message('pitchwheel', channel=3, pitch=163, time=1),
    Message('pitchwheel', channel=3, pitch=262, time=1),
    Message('pitchwheel', channel=3, pitch=362, time=2),
    Message('pitchwheel', channel=3, pitch=461, time=2),
    Message('pitchwheel', channel=3, pitch=561, time=2),
    Message('pitchwheel', channel=3, pitch=661, time=2),
    Message('pitchwheel', channel=3, pitch=760, time=2),
    Message('pitchwheel', channel=3, pitch=860, time=1),
    Message('pitchwheel', channel=3, pitch=959, time=2),
    Message('pitchwheel', channel=3, pitch=1059, time=4),
    Message('pitchwheel', channel=3, pitch=1159, time=0),
    Message('pitchwheel', channel=3, pitch=1258, time=2),
    Message('pitchwheel', channel=3, pitch=1315, time=3),
    Message('pitchwheel', channel=3, pitch=1358, time=1),
    Message('pitchwheel', channel=3, pitch=1457, time=0),
    Message('pitchwheel', channel=3, pitch=1557, time=2),
    Message('pitchwheel', channel=3, pitch=1656, time=3),
    Message('pitchwheel', channel=3, pitch=1756, time=2),
    Message('pitchwheel', channel=3, pitch=1856, time=1),
    Message('pitchwheel', channel=3, pitch=1955, time=1),
    Message('pitchwheel', channel=3, pitch=2009, time=2),
    Message('pitchwheel', channel=3, pitch=2055, time=1),
    Message('pitchwheel', channel=3, pitch=2154, time=1),
    Message('pitchwheel', channel=3, pitch=2254, time=3),
    Message('pitchwheel', channel=3, pitch=2354, time=1),
    Message('pitchwheel', channel=3, pitch=2588, time=3),
    Message('pitchwheel', channel=3, pitch=2618, time=3),
    Message('pitchwheel', channel=3, pitch=2624, time=0),
    Message('pitchwheel', channel=3, pitch=2660, time=2),
    Message('pitchwheel', channel=3, pitch=2697, time=1),
    Message('pitchwheel', channel=3, pitch=2733, time=2),
    Message('pitchwheel', channel=3, pitch=2769, time=2),
    Message('pitchwheel', channel=3, pitch=2805, time=2),
    Message('pitchwheel', channel=3, pitch=2842, time=2),
    Message('pitchwheel', channel=3, pitch=2855, time=1),
    Message('pitchwheel', channel=3, pitch=2878, time=1),
    Message('pitchwheel', channel=3, pitch=2914, time=2),
    Message('pitchwheel', channel=3, pitch=2951, time=2),
    Message('pitchwheel', channel=3, pitch=2987, time=1),
    Message('pitchwheel', channel=3, pitch=3023, time=2),
    Message('pitchwheel', channel=3, pitch=3059, time=2),
    Message('pitchwheel', channel=3, pitch=3080, time=2),
    Message('pitchwheel', channel=3, pitch=3096, time=1),
    Message('pitchwheel', channel=3, pitch=3132, time=1),
    Message('note_off', channel=3, note=51, velocity=64, time=2),
    Message('pitchwheel', channel=3, pitch=0, time=3),
    Message('note_on', channel=3, note=62, velocity=127, time=1),
    Message('note_on', channel=3, note=63, velocity=90, time=17),
    Message('note_off', channel=3, note=62, velocity=64, time=4),
    Message('note_on', channel=3, note=51, velocity=88, time=26),
    Message('note_off', channel=3, note=63, velocity=64, time=3),
    Message('note_off', channel=3, note=51, velocity=64, time=15),
    Message('note_on', channel=3, note=61, velocity=107, time=1),
    Message('note_on', channel=3, note=60, velocity=92, time=48),
    Message('note_off', channel=3, note=61, velocity=64, time=2),
    Message('note_on', channel=3, note=59, velocity=95, time=46),
    Message('note_off', channel=3, note=60, velocity=64, time=2),
    Message('note_off', channel=3, note=59, velocity=64, time=45),
    Message('note_on', channel=3, note=58, velocity=82, time=0),
    Message('note_off', channel=3, note=58, velocity=64, time=15),
    Message('note_on', channel=3, note=63, velocity=82, time=0),
    Message('note_off', channel=3, note=63, velocity=64, time=17),
    Message('note_on', channel=3, note=58, velocity=113, time=1),
    Message('note_on', channel=3, note=56, velocity=99, time=15),
    Message('note_off', channel=3, note=58, velocity=64, time=8),
    Message('note_on', channel=3, note=55, velocity=110, time=40),
    Message('note_off', channel=3, note=56, velocity=64, time=3),
    Message('note_on', channel=3, note=53, velocity=98, time=46),
    Message('note_off', channel=3, note=55, velocity=64, time=1),
    Message('note_on', channel=3, note=51, velocity=92, time=46),
    Message('note_off', channel=3, note=53, velocity=64, time=3),
    Message('note_on', channel=3, note=46, velocity=39, time=28),
    Message('note_off', channel=3, note=51, velocity=64, time=4),
    Message('note_off', channel=3, note=46, velocity=64, time=4),
    Message('note_on', channel=3, note=49, velocity=102, time=11),
    Message('note_off', channel=3, note=49, velocity=64, time=44),
    Message('note_on', channel=3, note=48, velocity=83, time=4),
    Message('note_on', channel=3, note=47, velocity=102, time=46),
    Message('note_off', channel=3, note=48, velocity=64, time=3),
    Message('note_on', channel=3, note=46, velocity=71, time=45),
    Message('note_off', channel=3, note=47, velocity=64, time=0),
    Message('note_off', channel=3, note=46, velocity=64, time=8),
    Message('note_on', channel=3, note=49, velocity=85, time=6),
    Message('note_off', channel=3, note=49, velocity=64, time=7),
    Message('note_on', channel=3, note=53, velocity=104, time=9),
    Message('note_off', channel=3, note=53, velocity=64, time=12),
    Message('note_on', channel=3, note=56, velocity=119, time=6),
    Message('note_off', channel=3, note=56, velocity=64, time=46),
    Message('note_on', channel=3, note=60, velocity=104, time=2),
    Message('note_on', channel=3, note=51, velocity=71, time=30),
    Message('note_off', channel=3, note=51, velocity=64, time=4),
    Message('note_off', channel=3, note=60, velocity=64, time=1),
    Message('note_on', channel=3, note=59, velocity=104, time=13),
    Message('note_on', channel=3, note=58, velocity=88, time=48),
    Message('note_off', channel=3, note=59, velocity=64, time=1),
    Message('note_off', channel=3, note=58, velocity=64, time=28),
    Message('note_on', channel=3, note=51, velocity=62, time=1),
    Message('note_off', channel=3, note=51, velocity=64, time=11),
    Message('note_on', channel=3, note=56, velocity=119, time=7),
    Message('note_on', channel=3, note=55, velocity=70, time=48),
    Message('note_off', channel=3, note=56, velocity=64, time=1),
    Message('note_on', channel=3, note=53, velocity=95, time=48),
    Message('note_off', channel=3, note=55, velocity=64, time=3),
    Message('note_on', channel=3, note=51, velocity=68, time=44),
    Message('note_off', channel=3, note=53, velocity=64, time=10),
    Message('note_on', channel=3, note=46, velocity=102, time=38),
    Message('note_off', channel=3, note=51, velocity=64, time=3),
    Message('pitchwheel', channel=3, pitch=0, time=4),
    Message('pitchwheel', channel=3, pitch=-35, time=0),
    Message('pitchwheel', channel=3, pitch=-150, time=2),
    Message('pitchwheel', channel=3, pitch=-231, time=2),
    Message('pitchwheel', channel=3, pitch=-264, time=0),
    Message('pitchwheel', channel=3, pitch=-379, time=1),
    Message('pitchwheel', channel=3, pitch=-493, time=3),
    Message('pitchwheel', channel=3, pitch=-608, time=1),
    Message('pitchwheel', channel=3, pitch=-722, time=2),
    Message('pitchwheel', channel=3, pitch=-836, time=3),
    Message('pitchwheel', channel=3, pitch=-951, time=1),
    Message('pitchwheel', channel=3, pitch=-976, time=1),
    Message('pitchwheel', channel=3, pitch=-1065, time=1),
    Message('pitchwheel', channel=3, pitch=-1180, time=3),
    Message('pitchwheel', channel=3, pitch=-1294, time=1),
    Message('pitchwheel', channel=3, pitch=-1408, time=2),
    Message('pitchwheel', channel=3, pitch=-1523, time=2),
    Message('pitchwheel', channel=3, pitch=-1637, time=2),
    Message('pitchwheel', channel=3, pitch=-1694, time=1),
    Message('pitchwheel', channel=3, pitch=-1752, time=1),
    Message('pitchwheel', channel=3, pitch=-1866, time=2),
    Message('pitchwheel', channel=3, pitch=-1981, time=1),
    Message('pitchwheel', channel=3, pitch=-2095, time=2),
    Message('pitchwheel', channel=3, pitch=-2209, time=2),
    Message('pitchwheel', channel=3, pitch=-2324, time=2),
    Message('pitchwheel', channel=3, pitch=-2412, time=2),
    Message('pitchwheel', channel=3, pitch=-2438, time=0),
    Message('pitchwheel', channel=3, pitch=-2553, time=2),
    Message('pitchwheel', channel=3, pitch=-2667, time=2),
    Message('pitchwheel', channel=3, pitch=-2782, time=2),
    Message('pitchwheel', channel=3, pitch=-2896, time=2),
    Message('pitchwheel', channel=3, pitch=-3010, time=2),
    Message('pitchwheel', channel=3, pitch=-3125, time=2),
    Message('pitchwheel', channel=3, pitch=-3239, time=1),
    Message('pitchwheel', channel=3, pitch=-3354, time=3),
    Message('pitchwheel', channel=3, pitch=-3468, time=1),
    Message('pitchwheel', channel=3, pitch=-3582, time=2),
    Message('pitchwheel', channel=3, pitch=-3697, time=4),
    Message('pitchwheel', channel=3, pitch=-3811, time=0),
    Message('pitchwheel', channel=3, pitch=-3834, time=1),
    Message('pitchwheel', channel=3, pitch=-3926, time=1),
    Message('pitchwheel', channel=3, pitch=-4040, time=3),
    Message('pitchwheel', channel=3, pitch=-4155, time=1),
    Message('pitchwheel', channel=3, pitch=-4269, time=2),
    Message('pitchwheel', channel=3, pitch=-4383, time=4),
    Message('pitchwheel', channel=3, pitch=-4498, time=1),
    Message('pitchwheel', channel=3, pitch=-4612, time=1),
    Message('pitchwheel', channel=3, pitch=-4727, time=2),
    Message('pitchwheel', channel=3, pitch=-4841, time=1),
    Message('pitchwheel', channel=3, pitch=-4955, time=2),
    Message('pitchwheel', channel=3, pitch=-5070, time=2),
    Message('pitchwheel', channel=3, pitch=-5184, time=2),
    Message('pitchwheel', channel=3, pitch=-5273, time=2),
    Message('pitchwheel', channel=3, pitch=-5299, time=0),
    Message('pitchwheel', channel=3, pitch=-5413, time=2),
    Message('pitchwheel', channel=3, pitch=-5528, time=2),
    Message('pitchwheel', channel=3, pitch=-5642, time=2),
    Message('pitchwheel', channel=3, pitch=-5756, time=2),
    Message('pitchwheel', channel=3, pitch=-5871, time=2),
    Message('pitchwheel', channel=3, pitch=-5985, time=1),
    Message('pitchwheel', channel=3, pitch=-5996, time=1),
    Message('pitchwheel', channel=3, pitch=-6100, time=1),
    Message('pitchwheel', channel=3, pitch=-6214, time=3),
    Message('pitchwheel', channel=3, pitch=-6328, time=2),
    Message('pitchwheel', channel=3, pitch=-6443, time=1),
    Message('pitchwheel', channel=3, pitch=-6557, time=3),
    Message('pitchwheel', channel=3, pitch=-6672, time=1),
    Message('pitchwheel', channel=3, pitch=-6706, time=1),
    Message('pitchwheel', channel=3, pitch=-6786, time=1),
    Message('pitchwheel', channel=3, pitch=-6901, time=4),
    Message('pitchwheel', channel=3, pitch=-7015, time=1),
    Message('pitchwheel', channel=3, pitch=-7129, time=1),
    Message('pitchwheel', channel=3, pitch=-7244, time=4),
    Message('pitchwheel', channel=3, pitch=-7358, time=1),
    Message('pitchwheel', channel=3, pitch=-7473, time=0),
    Message('pitchwheel', channel=3, pitch=-7587, time=2),
    Message('pitchwheel', channel=3, pitch=-7701, time=3),
    Message('pitchwheel', channel=3, pitch=-7816, time=1),
    Message('pitchwheel', channel=3, pitch=-7930, time=2),
    Message('pitchwheel', channel=3, pitch=-8045, time=2),
    Message('note_off', channel=3, note=46, velocity=64, time=0),
    Message('pitchwheel', channel=3, pitch=-5229, time=2),
    Message('note_on', channel=3, note=48, velocity=68, time=1),
    Message('pitchwheel', channel=3, pitch=0, time=1),
    Message('note_off', channel=3, note=48, velocity=64, time=49),
    Message('note_on', channel=3, note=37, velocity=114, time=315),
    Message('note_off', channel=3, note=37, velocity=64, time=6),
    Message('note_on', channel=3, note=38, velocity=84, time=13),
    Message('note_off', channel=3, note=38, velocity=64, time=15),
    Message('note_on', channel=3, note=38, velocity=109, time=33),
    Message('note_off', channel=3, note=38, velocity=64, time=19),
    Message('note_on', channel=3, note=38, velocity=90, time=317),
    Message('note_off', channel=3, note=38, velocity=64, time=27),
    Message('note_on', channel=3, note=42, velocity=81, time=70),
    Message('note_off', channel=3, note=42, velocity=64, time=28),
    Message('note_on', channel=3, note=45, velocity=87, time=68),
    Message('note_off', channel=3, note=45, velocity=64, time=31),
    Message('note_on', channel=3, note=42, velocity=58, time=141),
    Message('note_off', channel=3, note=42, velocity=64, time=21),
    Message('note_on', channel=3, note=43, velocity=83, time=0),
    Message('note_off', channel=3, note=43, velocity=64, time=12),
    Message('note_on', channel=3, note=43, velocity=70, time=35),
    Message('note_off', channel=3, note=43, velocity=64, time=45),
    Message('note_on', channel=3, note=42, velocity=25, time=50),
    Message('note_off', channel=3, note=42, velocity=64, time=138),
    Message('note_on', channel=3, note=42, velocity=105, time=198),
    Message('note_off', channel=3, note=42, velocity=64, time=27),
    Message('note_on', channel=3, note=45, velocity=109, time=69),
    Message('note_off', channel=3, note=45, velocity=64, time=33),
    Message('note_on', channel=3, note=42, velocity=96, time=255),
    Message('note_off', channel=3, note=42, velocity=64, time=19),
    Message('note_on', channel=3, note=42, velocity=80, time=29),
    Message('note_off', channel=3, note=42, velocity=64, time=19),
    Message('note_on', channel=3, note=45, velocity=89, time=29),
    Message('note_off', channel=3, note=45, velocity=64, time=29),
    Message('note_on', channel=3, note=42, velocity=100, time=139),
    Message('note_off', channel=3, note=42, velocity=64, time=10),
    Message('note_on', channel=3, note=38, velocity=92, time=14),
    Message('note_off', channel=3, note=38, velocity=64, time=21),
    Message('note_on', channel=3, note=38, velocity=87, time=27),
    Message('note_off', channel=3, note=38, velocity=64, time=18),
    Message('note_on', channel=3, note=42, velocity=80, time=30),
    Message('note_off', channel=3, note=42, velocity=64, time=18),
    Message('note_on', channel=3, note=42, velocity=83, time=30),
    Message('note_off', channel=3, note=42, velocity=64, time=17),
    Message('note_on', channel=3, note=45, velocity=80, time=31),
    Message('note_off', channel=3, note=45, velocity=64, time=27),
    Message('note_on', channel=3, note=30, velocity=62, time=141),
    Message('note_off', channel=3, note=30, velocity=64, time=8),
    Message('note_on', channel=3, note=31, velocity=78, time=16),
    Message('note_off', channel=3, note=31, velocity=64, time=14),
    Message('note_on', channel=3, note=31, velocity=83, time=34),
    Message('note_off', channel=3, note=31, velocity=64, time=52),
    Message('note_on', channel=3, note=30, velocity=35, time=45),
    Message('control_change', channel=3, control=1, value=0, time=6),
    Message('control_change', channel=3, control=1, value=17, time=0),
    Message('control_change', channel=3, control=1, value=32, time=0),
    Message('control_change', channel=3, control=1, value=50, time=2),
    Message('control_change', channel=3, control=1, value=54, time=2),
    Message('control_change', channel=3, control=1, value=62, time=2),
    Message('control_change', channel=3, control=1, value=77, time=0),
    Message('control_change', channel=3, control=1, value=91, time=2),
    Message('control_change', channel=3, control=1, value=95, time=3),
    Message('control_change', channel=3, control=1, value=108, time=1),
    Message('control_change', channel=3, control=1, value=112, time=3),
    Message('control_change', channel=3, control=1, value=115, time=1),
    Message('control_change', channel=3, control=1, value=118, time=1),
    Message('control_change', channel=3, control=1, value=122, time=2),
    Message('control_change', channel=3, control=1, value=127, time=4),
    Message('control_change', channel=3, control=11, value=127, time=63),
    Message('control_change', channel=3, control=11, value=127, time=0),
    Message('pitchwheel', channel=3, pitch=0, time=1),
    Message('pitchwheel', channel=3, pitch=-56, time=0),
    Message('pitchwheel', channel=3, pitch=-124, time=1),
    Message('control_change', channel=3, control=11, value=126, time=0),
    Message('pitchwheel', channel=3, pitch=-396, time=1),
    Message('pitchwheel', channel=3, pitch=-623, time=2),
    Message('control_change', channel=3, control=11, value=126, time=2),
    Message('pitchwheel', channel=3, pitch=-1077, time=0),
    Message('control_change', channel=3, control=11, value=125, time=2),
    Message('pitchwheel', channel=3, pitch=-1303, time=0),
    Message('control_change', channel=3, control=11, value=124, time=2),
    Message('pitchwheel', channel=3, pitch=-1530, time=0),
    Message('control_change', channel=3, control=11, value=123, time=2),
    Message('pitchwheel', channel=3, pitch=-1643, time=1),
    Message('control_change', channel=3, control=11, value=122, time=0),
    Message('control_change', channel=3, control=11, value=122, time=1),
    Message('pitchwheel', channel=3, pitch=-1757, time=1),
    Message('control_change', channel=3, control=11, value=121, time=1),
    Message('pitchwheel', channel=3, pitch=-1983, time=1),
    Message('control_change', channel=3, control=11, value=120, time=1),
    Message('pitchwheel', channel=3, pitch=-2210, time=3),
    Message('control_change', channel=3, control=11, value=119, time=0),
    Message('pitchwheel', channel=3, pitch=-2324, time=0),
    Message('control_change', channel=3, control=11, value=118, time=1),
    Message('pitchwheel', channel=3, pitch=-2664, time=1),
    Message('control_change', channel=3, control=11, value=117, time=0),
    Message('pitchwheel', channel=3, pitch=-2709, time=2),
    Message('control_change', channel=3, control=11, value=116, time=0),
    Message('pitchwheel', channel=3, pitch=-2777, time=2),
    Message('control_change', channel=3, control=11, value=116, time=0),
    Message('control_change', channel=3, control=11, value=115, time=1),
    Message('pitchwheel', channel=3, pitch=-2890, time=1),
    Message('control_change', channel=3, control=11, value=114, time=0),
    Message('control_change', channel=3, control=11, value=113, time=4),
    Message('control_change', channel=3, control=11, value=112, time=0),
    Message('control_change', channel=3, control=11, value=111, time=2),
    Message('pitchwheel', channel=3, pitch=-3004, time=0),
    Message('pitchwheel', channel=3, pitch=-3056, time=2),
    Message('control_change', channel=3, control=11, value=110, time=0),
    Message('pitchwheel', channel=3, pitch=-3117, time=1),
    Message('control_change', channel=3, control=11, value=109, time=1),
    Message('pitchwheel', channel=3, pitch=-3344, time=1),
    Message('control_change', channel=3, control=11, value=108, time=1),
    Message('pitchwheel', channel=3, pitch=-3684, time=0),
    Message('control_change', channel=3, control=1, value=127, time=1),
    Message('control_change', channel=3, control=1, value=122, time=0),
    Message('control_change', channel=3, control=11, value=107, time=1),
    Message('pitchwheel', channel=3, pitch=-3911, time=1),
    Message('control_change', channel=3, control=1, value=118, time=0),
    Message('control_change', channel=3, control=11, value=106, time=0),
    Message('pitchwheel', channel=3, pitch=-4138, time=2),
    Message('control_change', channel=3, control=1, value=112, time=0),
    Message('control_change', channel=3, control=11, value=105, time=0),
    Message('pitchwheel', channel=3, pitch=-4251, time=2),
    Message('control_change', channel=3, control=11, value=104, time=0),
    Message('pitchwheel', channel=3, pitch=-4326, time=1),
    Message('control_change', channel=3, control=1, value=109, time=0),
    Message('control_change', channel=3, control=11, value=103, time=0),
    Message('pitchwheel', channel=3, pitch=-4478, time=2),
    Message('control_change', channel=3, control=1, value=108, time=0),
    Message('control_change', channel=3, control=11, value=103, time=0),
    Message('pitchwheel', channel=3, pitch=-4704, time=1),
    Message('control_change', channel=3, control=11, value=102, time=0),
    Message('pitchwheel', channel=3, pitch=-4818, time=2),
    Message('control_change', channel=3, control=11, value=101, time=0),
    Message('control_change', channel=3, control=1, value=102, time=0),
    Message('pitchwheel', channel=3, pitch=-4931, time=3),
    Message('control_change', channel=3, control=11, value=100, time=0),
    Message('control_change', channel=3, control=1, value=98, time=0),
    Message('control_change', channel=3, control=11, value=99, time=1),
    Message('pitchwheel', channel=3, pitch=-5044, time=0),
    Message('control_change', channel=3, control=1, value=95, time=0),
    Message('control_change', channel=3, control=11, value=98, time=2),
    Message('pitchwheel', channel=3, pitch=-5158, time=0),
    Message('control_change', channel=3, control=1, value=91, time=0),
    Message('pitchwheel', channel=3, pitch=-5166, time=1),
    Message('control_change', channel=3, control=1, value=90, time=0),
    Message('control_change', channel=3, control=11, value=97, time=0),
    Message('control_change', channel=3, control=11, value=97, time=2),
    Message('pitchwheel', channel=3, pitch=-5271, time=0),
    Message('control_change', channel=3, control=1, value=85, time=0),
    Message('control_change', channel=3, control=11, value=96, time=1),
    Message('pitchwheel', channel=3, pitch=-5385, time=0),
    Message('control_change', channel=3, control=1, value=81, time=0),
    Message('control_change', channel=3, control=11, value=95, time=1),
    Message('pitchwheel', channel=3, pitch=-5611, time=1),
    Message('control_change', channel=3, control=11, value=94, time=2),
    Message('pitchwheel', channel=3, pitch=-5951, time=1),
    Message('control_change', channel=3, control=11, value=93, time=0),
    Message('pitchwheel', channel=3, pitch=-6178, time=2),
    Message('control_change', channel=3, control=1, value=60, time=0),
    Message('control_change', channel=3, control=11, value=92, time=0),
    Message('pitchwheel', channel=3, pitch=-6292, time=2),
    Message('control_change', channel=3, control=1, value=52, time=0),
    Message('control_change', channel=3, control=11, value=91, time=0),
    Message('control_change', channel=3, control=1, value=52, time=0),
    Message('control_change', channel=3, control=11, value=91, time=2),
    Message('pitchwheel', channel=3, pitch=-6518, time=1),
    Message('control_change', channel=3, control=1, value=46, time=0),
    Message('control_change', channel=3, control=11, value=90, time=0),
    Message('pitchwheel', channel=3, pitch=-6632, time=1),
    Message('control_change', channel=3, control=1, value=38, time=0),
    Message('control_change', channel=3, control=11, value=89, time=0),
    Message('pitchwheel', channel=3, pitch=-6858, time=2),
    Message('control_change', channel=3, control=11, value=88, time=0),
    Message('control_change', channel=3, control=1, value=34, time=0),
    Message('control_change', channel=3, control=11, value=87, time=2),
    Message('pitchwheel', channel=3, pitch=-7085, time=1),
    Message('control_change', channel=3, control=11, value=86, time=1),
    Message('pitchwheel', channel=3, pitch=-7425, time=0),
    Message('control_change', channel=3, control=1, value=19, time=0),
    Message('pitchwheel', channel=3, pitch=-7561, time=2),
    Message('control_change', channel=3, control=1, value=15, time=0),
    Message('control_change', channel=3, control=11, value=85, time=0),
    Message('control_change', channel=3, control=11, value=85, time=0),
    Message('pitchwheel', channel=3, pitch=-7765, time=2),
    Message('control_change', channel=3, control=1, value=9, time=0),
    Message('control_change', channel=3, control=11, value=84, time=0),
    Message('pitchwheel', channel=3, pitch=-8192, time=1),
    Message('control_change', channel=3, control=11, value=83, time=0),
    Message('control_change', channel=3, control=11, value=82, time=3),
    Message('control_change', channel=3, control=1, value=0, time=1),
    Message('control_change', channel=3, control=11, value=81, time=0),
    Message('control_change', channel=3, control=11, value=80, time=2),
    Message('control_change', channel=3, control=11, value=79, time=2),
    Message('control_change', channel=3, control=11, value=78, time=1),
    Message('control_change', channel=3, control=11, value=78, time=1),
    Message('control_change', channel=3, control=11, value=77, time=2),
    Message('control_change', channel=3, control=11, value=76, time=2),
    Message('control_change', channel=3, control=11, value=75, time=2),
    Message('control_change', channel=3, control=11, value=74, time=2),
    Message('control_change', channel=3, control=11, value=73, time=2),
    Message('control_change', channel=3, control=2, value=0, time=0),
    Message('control_change', channel=3, control=2, value=2, time=0),
    Message('control_change', channel=3, control=2, value=4, time=1),
    Message('control_change', channel=3, control=11, value=72, time=0),
    Message('control_change', channel=3, control=11, value=72, time=1),
    Message('control_change', channel=3, control=2, value=10, time=0),
    Message('control_change', channel=3, control=11, value=71, time=2),
    Message('control_change', channel=3, control=2, value=28, time=0),
    Message('control_change', channel=3, control=11, value=70, time=2),
    Message('control_change', channel=3, control=2, value=46, time=0),
    Message('control_change', channel=3, control=11, value=69, time=1),
    Message('control_change', channel=3, control=2, value=76, time=1),
    Message('control_change', channel=3, control=11, value=68, time=1),
    Message('control_change', channel=3, control=2, value=120, time=1),
    Message('control_change', channel=3, control=11, value=67, time=1),
    Message('control_change', channel=3, control=2, value=127, time=1),
    Message('control_change', channel=3, control=11, value=66, time=1),
    Message('control_change', channel=3, control=11, value=66, time=0),
    Message('control_change', channel=3, control=11, value=65, time=2),
    Message('control_change', channel=3, control=11, value=64, time=2),
    Message('pitchwheel', channel=3, pitch=-8192, time=2),
    Message('pitchwheel', channel=3, pitch=-7957, time=0),
    Message('control_change', channel=3, control=11, value=63, time=3),
    Message('pitchwheel', channel=3, pitch=-7650, time=0),
    Message('control_change', channel=3, control=11, value=62, time=0),
    Message('pitchwheel', channel=3, pitch=-7342, time=1),
    Message('control_change', channel=3, control=11, value=61, time=0),
    Message('pitchwheel', channel=3, pitch=-7035, time=2),
    Message('control_change', channel=3, control=11, value=60, time=0),
    Message('control_change', channel=3, control=11, value=60, time=0),
    Message('pitchwheel', channel=3, pitch=-6727, time=2),
    Message('control_change', channel=3, control=11, value=59, time=0),
    Message('pitchwheel', channel=3, pitch=-6420, time=1),
    Message('control_change', channel=3, control=11, value=58, time=1),
    Message('pitchwheel', channel=3, pitch=-6112, time=1),
    Message('control_change', channel=3, control=11, value=57, time=1),
    Message('pitchwheel', channel=3, pitch=-5805, time=3),
    Message('control_change', channel=3, control=11, value=56, time=0),
    Message('pitchwheel', channel=3, pitch=-5497, time=0),
    Message('control_change', channel=3, control=11, value=55, time=1),
    Message('pitchwheel', channel=3, pitch=-5189, time=1),
    Message('control_change', channel=3, control=11, value=54, time=0),
    Message('pitchwheel', channel=3, pitch=-5105, time=1),
    Message('control_change', channel=3, control=11, value=53, time=0),
    Message('control_change', channel=3, control=1, value=0, time=0),
    Message('control_change', channel=3, control=1, value=42, time=0),
    Message('control_change', channel=3, control=2, value=127, time=1),
    Message('control_change', channel=3, control=2, value=0, time=0),
    Message('pitchwheel', channel=3, pitch=-4882, time=0),
    Message('control_change', channel=3, control=11, value=53, time=1),
    Message('pitchwheel', channel=3, pitch=-4574, time=1),
    Message('control_change', channel=3, control=11, value=52, time=0),
    Message('control_change', channel=3, control=1, value=0, time=1),
    Message('pitchwheel', channel=3, pitch=-4267, time=1),
    Message('control_change', channel=3, control=11, value=51, time=0),
    Message('pitchwheel', channel=3, pitch=-3959, time=2),
    Message('pitchwheel', channel=3, pitch=-3652, time=1),
    Message('control_change', channel=3, control=11, value=50, time=1),
    Message('pitchwheel', channel=3, pitch=-3344, time=1),
    Message('control_change', channel=3, control=11, value=49, time=1),
    Message('pitchwheel', channel=3, pitch=-3148, time=1),
    Message('control_change', channel=3, control=11, value=48, time=0),
    Message('pitchwheel', channel=3, pitch=-3037, time=0),
    Message('control_change', channel=3, control=11, value=48, time=1),
    Message('pitchwheel', channel=3, pitch=-2729, time=2),
    Message('control_change', channel=3, control=11, value=47, time=0),
    Message('pitchwheel', channel=3, pitch=-2421, time=1),
    Message('control_change', channel=3, control=11, value=46, time=0),
    Message('pitchwheel', channel=3, pitch=-2114, time=2),
    Message('control_change', channel=3, control=11, value=45, time=0),
    Message('pitchwheel', channel=3, pitch=-1806, time=2),
    Message('control_change', channel=3, control=11, value=44, time=0),
    Message('pitchwheel', channel=3, pitch=-1499, time=2),
    Message('control_change', channel=3, control=11, value=43, time=0),
    Message('pitchwheel', channel=3, pitch=-1191, time=2),
    Message('control_change', channel=3, control=11, value=42, time=0),
    Message('control_change', channel=3, control=11, value=42, time=0),
    Message('pitchwheel', channel=3, pitch=-884, time=2),
    Message('control_change', channel=3, control=11, value=41, time=1),
    Message('pitchwheel', channel=3, pitch=-576, time=1),
    Message('control_change', channel=3, control=11, value=40, time=0),
    Message('pitchwheel', channel=3, pitch=-268, time=1),
    Message('control_change', channel=3, control=11, value=39, time=1),
    Message('pitchwheel', channel=3, pitch=38, time=1),
    Message('control_change', channel=3, control=11, value=38, time=1),
    Message('pitchwheel', channel=3, pitch=346, time=1),
    Message('control_change', channel=3, control=11, value=37, time=1),
    Message('pitchwheel', channel=3, pitch=653, time=1),
    Message('pitchwheel', channel=3, pitch=689, time=1),
    Message('control_change', channel=3, control=11, value=36, time=0),
    Message('pitchwheel', channel=3, pitch=961, time=3),
    Message('control_change', channel=3, control=11, value=35, time=0),
    Message('pitchwheel', channel=3, pitch=1268, time=0),
    Message('control_change', channel=3, control=11, value=34, time=1),
    Message('pitchwheel', channel=3, pitch=1576, time=1),
    Message('control_change', channel=3, control=11, value=33, time=0),
    Message('pitchwheel', channel=3, pitch=1883, time=4),
    Message('control_change', channel=3, control=11, value=32, time=0),
    Message('pitchwheel', channel=3, pitch=2191, time=0),
    Message('control_change', channel=3, control=11, value=31, time=1),
    Message('pitchwheel', channel=3, pitch=2499, time=1),
    Message('control_change', channel=3, control=11, value=30, time=0),
    Message('pitchwheel', channel=3, pitch=2545, time=1),
    Message('control_change', channel=3, control=11, value=29, time=0),
    Message('pitchwheel', channel=3, pitch=2806, time=3),
    Message('control_change', channel=3, control=11, value=29, time=0),
    Message('pitchwheel', channel=3, pitch=3114, time=0),
    Message('control_change', channel=3, control=11, value=28, time=1),
    Message('pitchwheel', channel=3, pitch=3421, time=1),
    Message('control_change', channel=3, control=11, value=27, time=0),
    Message('pitchwheel', channel=3, pitch=3729, time=1),
    Message('control_change', channel=3, control=11, value=26, time=1),
    Message('pitchwheel', channel=3, pitch=4036, time=1),
    Message('control_change', channel=3, control=11, value=25, time=1),
    Message('pitchwheel', channel=3, pitch=4344, time=1),
    Message('control_change', channel=3, control=11, value=24, time=1),
    Message('pitchwheel', channel=3, pitch=4548, time=1),
    Message('control_change', channel=3, control=11, value=23, time=0),
    Message('pitchwheel', channel=3, pitch=4651, time=0),
    Message('control_change', channel=3, control=11, value=23, time=1),
    Message('pitchwheel', channel=3, pitch=4959, time=2),
    Message('control_change', channel=3, control=11, value=22, time=0),
    Message('pitchwheel', channel=3, pitch=5267, time=1),
    Message('control_change', channel=3, control=11, value=21, time=0),
    Message('pitchwheel', channel=3, pitch=5574, time=2),
    Message('control_change', channel=3, control=11, value=20, time=0),
    Message('pitchwheel', channel=3, pitch=5882, time=2),
    Message('control_change', channel=3, control=11, value=19, time=1),
    Message('pitchwheel', channel=3, pitch=6189, time=1),
    Message('control_change', channel=3, control=11, value=18, time=0),
    Message('pitchwheel', channel=3, pitch=6466, time=2),
    Message('control_change', channel=3, control=11, value=17, time=0),
    Message('pitchwheel', channel=3, pitch=6497, time=0),
    Message('control_change', channel=3, control=11, value=17, time=0),
    Message('pitchwheel', channel=3, pitch=6804, time=2),
    Message('control_change', channel=3, control=11, value=16, time=0),
    Message('pitchwheel', channel=3, pitch=7112, time=2),
    Message('control_change', channel=3, control=11, value=15, time=0),
    Message('pitchwheel', channel=3, pitch=7419, time=1),
    Message('control_change', channel=3, control=11, value=14, time=1),
    Message('pitchwheel', channel=3, pitch=7727, time=2),
    Message('control_change', channel=3, control=11, value=13, time=1),
    Message('pitchwheel', channel=3, pitch=8035, time=0),
    Message('control_change', channel=3, control=11, value=12, time=1),
    Message('pitchwheel', channel=3, pitch=8191, time=1),
    Message('pitchwheel', channel=3, pitch=8020, time=1),
    Message('control_change', channel=3, control=11, value=11, time=0),
    Message('control_change', channel=3, control=11, value=11, time=0),
    Message('control_change', channel=3, control=11, value=10, time=2),
    Message('control_change', channel=3, control=11, value=9, time=2),
    Message('control_change', channel=3, control=11, value=8, time=1),
    Message('control_change', channel=3, control=11, value=7, time=4),
    Message('pitchwheel', channel=3, pitch=0, time=0),
    Message('control_change', channel=3, control=11, value=6, time=0),
    Message('control_change', channel=3, control=11, value=5, time=2),
    Message('control_change', channel=3, control=11, value=4, time=1),
    Message('note_off', channel=3, note=30, velocity=64, time=2),
    Message('control_change', channel=3, control=11, value=4, time=1),
    Message('control_change', channel=3, control=11, value=3, time=1),
    Message('control_change', channel=3, control=11, value=2, time=1),
    Message('control_change', channel=3, control=11, value=1, time=4),
    Message('control_change', channel=3, control=11, value=0, time=0),
    Message('control_change', channel=3, control=11, value=0, time=14570),
    Message('control_change', channel=3, control=11, value=127, time=0),
    Message('note_on', channel=3, note=39, velocity=66, time=47),
    Message('note_off', channel=3, note=39, velocity=64, time=48),
    Message('note_on', channel=3, note=39, velocity=43, time=71),
    Message('note_off', channel=3, note=39, velocity=64, time=7),
    Message('note_on', channel=3, note=43, velocity=60, time=17),
    Message('note_off', channel=3, note=43, velocity=64, time=34),
    Message('note_on', channel=3, note=46, velocity=57, time=14),
    Message('note_off', channel=3, note=46, velocity=64, time=44),
    Message('note_on', channel=3, note=50, velocity=66, time=52),
    Message('note_off', channel=3, note=50, velocity=64, time=46),
    Message('note_on', channel=3, note=39, velocity=57, time=50),
    Message('note_off', channel=3, note=39, velocity=64, time=49),
    Message('note_on', channel=3, note=39, velocity=49, time=71),
    Message('note_off', channel=3, note=39, velocity=64, time=7),
    Message('note_on', channel=3, note=43, velocity=60, time=17),
    Message('note_off', channel=3, note=43, velocity=64, time=33),
    Message('note_on', channel=3, note=46, velocity=66, time=15),
    Message('note_off', channel=3, note=46, velocity=64, time=47),
    Message('note_on', channel=3, note=39, velocity=66, time=145),
    Message('note_off', channel=3, note=39, velocity=64, time=45),
    Message('note_on', channel=3, note=39, velocity=47, time=75),
    Message('note_off', channel=3, note=39, velocity=64, time=6),
    Message('note_on', channel=3, note=43, velocity=60, time=18),
    Message('note_off', channel=3, note=43, velocity=64, time=32),
    Message('note_on', channel=3, note=46, velocity=60, time=17),
    Message('note_off', channel=3, note=46, velocity=64, time=47),
    Message('note_on', channel=3, note=50, velocity=66, time=48),
    Message('note_off', channel=3, note=50, velocity=64, time=50),
    Message('note_on', channel=3, note=44, velocity=71, time=47),
    Message('note_off', channel=3, note=44, velocity=64, time=23),
    Message('note_on', channel=3, note=44, velocity=47, time=0),
    Message('note_off', channel=3, note=44, velocity=64, time=2),
    Message('note_on', channel=3, note=44, velocity=66, time=47),
    Message('note_off', channel=3, note=44, velocity=64, time=23),
    Message('note_on', channel=3, note=44, velocity=54, time=25),
    Message('note_off', channel=3, note=44, velocity=64, time=18),
    Message('note_on', channel=3, note=43, velocity=66, time=5),
    Message('note_off', channel=3, note=43, velocity=64, time=56),
    Message('note_on', channel=3, note=39, velocity=60, time=185),
    Message('note_off', channel=3, note=39, velocity=64, time=44),
    Message('note_on', channel=3, note=39, velocity=45, time=78),
    Message('note_off', channel=3, note=39, velocity=64, time=6),
    Message('note_on', channel=3, note=43, velocity=60, time=15),
    Message('note_off', channel=3, note=43, velocity=64, time=33),
    Message('note_on', channel=3, note=46, velocity=57, time=15),
    Message('note_off', channel=3, note=46, velocity=64, time=45),
    Message('note_on', channel=3, note=50, velocity=60, time=51),
    Message('note_off', channel=3, note=50, velocity=64, time=46),
    Message('note_on', channel=3, note=39, velocity=57, time=50),
    Message('note_off', channel=3, note=39, velocity=64, time=49),
    Message('note_on', channel=3, note=39, velocity=45, time=71),
    Message('note_off', channel=3, note=39, velocity=64, time=7),
    Message('note_on', channel=3, note=43, velocity=60, time=17),
    Message('note_off', channel=3, note=43, velocity=64, time=34),
    Message('note_on', channel=3, note=46, velocity=60, time=14),
    Message('note_off', channel=3, note=46, velocity=64, time=48),
    Message('note_on', channel=3, note=39, velocity=57, time=144),
    Message('note_on', channel=3, note=41, velocity=42, time=0),
    Message('note_off', channel=3, note=41, velocity=64, time=4),
    Message('note_off', channel=3, note=39, velocity=64, time=41),
    Message('note_on', channel=3, note=39, velocity=47, time=75),
    Message('note_off', channel=3, note=39, velocity=64, time=10),
    Message('note_on', channel=3, note=43, velocity=66, time=14),
    Message('note_off', channel=3, note=43, velocity=64, time=34),
    Message('note_on', channel=3, note=46, velocity=66, time=14),
    Message('note_off', channel=3, note=46, velocity=64, time=47),
    Message('note_on', channel=3, note=50, velocity=66, time=49),
    Message('note_off', channel=3, note=50, velocity=64, time=47),
    Message('note_on', channel=3, note=44, velocity=71, time=49),
    Message('note_off', channel=3, note=44, velocity=64, time=24),
    Message('note_on', channel=3, note=44, velocity=54, time=0),
    Message('note_off', channel=3, note=44, velocity=64, time=3),
    Message('note_on', channel=3, note=44, velocity=60, time=45),
    Message('note_off', channel=3, note=44, velocity=64, time=23),
    Message('note_on', channel=3, note=44, velocity=47, time=25),
    Message('note_off', channel=3, note=44, velocity=64, time=21),
    Message('note_on', channel=3, note=43, velocity=60, time=4),
    Message('note_off', channel=3, note=43, velocity=64, time=48),
    Message('note_on', channel=3, note=63, velocity=51, time=71),
    Message('pitchwheel', channel=3, pitch=0, time=10),
    Message('pitchwheel', channel=3, pitch=797, time=0),
    Message('pitchwheel', channel=3, pitch=1522, time=2),
    Message('pitchwheel', channel=3, pitch=2682, time=2),
    Message('pitchwheel', channel=3, pitch=3077, time=1),
    Message('pitchwheel', channel=3, pitch=3551, time=1),
    Message('pitchwheel', channel=3, pitch=4276, time=2),
    Message('note_off', channel=3, note=63, velocity=64, time=1),
    Message('pitchwheel', channel=3, pitch=4711, time=1),
    Message('pitchwheel', channel=3, pitch=5146, time=2),
    Message('pitchwheel', channel=3, pitch=5146, time=23),
    Message('pitchwheel', channel=3, pitch=5001, time=0),
    Message('pitchwheel', channel=3, pitch=4566, time=2),
    Message('note_on', channel=3, note=63, velocity=54, time=1),
    Message('pitchwheel', channel=3, pitch=4131, time=1),
    Message('pitchwheel', channel=3, pitch=4010, time=2),
    Message('pitchwheel', channel=3, pitch=3986, time=0),
    Message('pitchwheel', channel=3, pitch=3841, time=2),
    Message('pitchwheel', channel=3, pitch=3696, time=2),
    Message('pitchwheel', channel=3, pitch=3406, time=2),
    Message('pitchwheel', channel=3, pitch=1957, time=2),
    Message('pitchwheel', channel=3, pitch=0, time=2),
    Message('note_on', channel=3, note=61, velocity=22, time=11),
    Message('note_off', channel=3, note=63, velocity=64, time=7),
    Message('note_on', channel=3, note=58, velocity=39, time=18),
    Message('note_off', channel=3, note=61, velocity=64, time=4),
    Message('note_off', channel=3, note=58, velocity=64, time=18),
    Message('note_on', channel=3, note=39, velocity=49, time=1),
    Message('note_on', channel=3, note=37, velocity=42, time=0),
    Message('note_off', channel=3, note=37, velocity=64, time=6),
    Message('note_off', channel=3, note=39, velocity=64, time=42),
    MetaMessage('end_of_track', time=0)]),
  MidiTrack([
    MetaMessage('track_name', name='Ana Power Brass', time=0),
    MetaMessage('channel_prefix', channel=4, time=0),
    Message('program_change', channel=4, program=99, time=0),
    Message('control_change', channel=4, control=0, value=0, time=0),
    Message('control_change', channel=4, control=32, value=2, time=0),
    Message('control_change', channel=4, control=7, value=127, time=0),
    Message('control_change', channel=4, control=10, value=64, time=0),
    Message('control_change', channel=4, control=91, value=0, time=0),
    Message('control_change', channel=4, control=93, value=0, time=0),
    Message('note_on', channel=4, note=27, velocity=27, time=421),
    Message('control_change', channel=4, control=11, value=127, time=0),
    Message('control_change', channel=4, control=11, value=54, time=0),
    Message('pitchwheel', channel=4, pitch=0, time=0),
    Message('pitchwheel', channel=4, pitch=-8192, time=0),
    Message('control_change', channel=4, control=11, value=54, time=30),
    Message('control_change', channel=4, control=11, value=55, time=0),
    Message('control_change', channel=4, control=11, value=55, time=18),
    Message('control_change', channel=4, control=11, value=57, time=0),
    Message('pitchwheel', channel=4, pitch=-8192, time=0),
    Message('pitchwheel', channel=4, pitch=-7927, time=0),
    Message('control_change', channel=4, control=11, value=57, time=30),
    Message('control_change', channel=4, control=11, value=58, time=0),
    Message('pitchwheel', channel=4, pitch=-7927, time=0),
    Message('pitchwheel', channel=4, pitch=-7606, time=0),
    Message('control_change', channel=4, control=11, value=58, time=17),
    Message('control_change', channel=4, control=11, value=60, time=0),
    Message('pitchwheel', channel=4, pitch=-7606, time=1),
    Message('pitchwheel', channel=4, pitch=-7259, time=0),
    Message('control_change', channel=4, control=11, value=60, time=30),
    Message('control_change', channel=4, control=11, value=61, time=0),
    Message('pitchwheel', channel=4, pitch=-7259, time=0),
    Message('pitchwheel', channel=4, pitch=-6938, time=0),
    Message('control_change', channel=4, control=11, value=61, time=18),
    Message('control_change', channel=4, control=11, value=63, time=0),
    Message('pitchwheel', channel=4, pitch=-6938, time=0),
    Message('pitchwheel', channel=4, pitch=-6591, time=0),
    Message('control_change', channel=4, control=11, value=63, time=30),
    Message('control_change', channel=4, control=11, value=64, time=0),
    Message('pitchwheel', channel=4, pitch=-6591, time=0),
    Message('pitchwheel', channel=4, pitch=-6270, time=0),
    Message('note_on', channel=4, note=26, velocity=43, time=18),
    Message('note_off', channel=4, note=27, velocity=64, time=0),
    Message('pitchwheel', channel=4, pitch=-6270, time=0),
    Message('pitchwheel', channel=4, pitch=-5923, time=0),
    Message('control_change', channel=4, control=11, value=64, time=0),
    Message('control_change', channel=4, control=11, value=66, time=0),
    Message('control_change', channel=4, control=11, value=66, time=30),
    Message('control_change', channel=4, control=11, value=68, time=0),
    Message('pitchwheel', channel=4, pitch=-5923, time=0),
    Message('pitchwheel', channel=4, pitch=-5603, time=0),
    Message('control_change', channel=4, control=11, value=68, time=18),
    Message('control_change', channel=4, control=11, value=69, time=0),
    Message('pitchwheel', channel=4, pitch=-5603, time=0),
    Message('pitchwheel', channel=4, pitch=-5255, time=0),
    Message('control_change', channel=4, control=11, value=69, time=30),
    Message('control_change', channel=4, control=11, value=71, time=0),
    Message('pitchwheel', channel=4, pitch=-5255, time=0),
    Message('pitchwheel', channel=4, pitch=-4935, time=0),
    Message('pitchwheel', channel=4, pitch=-4935, time=18),
    Message('pitchwheel', channel=4, pitch=-4587, time=0),
    Message('control_change', channel=4, control=11, value=71, time=0),
    Message('control_change', channel=4, control=11, value=72, time=0),
    Message('pitchwheel', channel=4, pitch=-4587, time=30),
    Message('pitchwheel', channel=4, pitch=-4267, time=0),
    Message('control_change', channel=4, control=11, value=72, time=0),
    Message('control_change', channel=4, control=11, value=74, time=0),
    Message('control_change', channel=4, control=11, value=74, time=18),
    Message('control_change', channel=4, control=11, value=75, time=0),
    Message('pitchwheel', channel=4, pitch=-4267, time=0),
    Message('pitchwheel', channel=4, pitch=-3919, time=0),
    Message('control_change', channel=4, control=11, value=75, time=30),
    Message('control_change', channel=4, control=11, value=77, time=0),
    Message('pitchwheel', channel=4, pitch=-3919, time=0),
    Message('pitchwheel', channel=4, pitch=-3599, time=0),
    Message('note_on', channel=4, note=25, velocity=59, time=18),
    Message('note_off', channel=4, note=26, velocity=64, time=0),
    Message('control_change', channel=4, control=11, value=77, time=0),
    Message('control_change', channel=4, control=11, value=79, time=0),
    Message('pitchwheel', channel=4, pitch=-3599, time=0),
    Message('pitchwheel', channel=4, pitch=-3251, time=0),
    Message('control_change', channel=4, control=11, value=79, time=30),
    Message('control_change', channel=4, control=11, value=80, time=0),
    Message('pitchwheel', channel=4, pitch=-3251, time=0),
    Message('pitchwheel', channel=4, pitch=-2931, time=0),
    Message('pitchwheel', channel=4, pitch=-2931, time=17),
    Message('pitchwheel', channel=4, pitch=-2584, time=0),
    Message('control_change', channel=4, control=11, value=80, time=0),
    Message('control_change', channel=4, control=11, value=82, time=0),
    Message('control_change', channel=4, control=11, value=82, time=31),
    Message('control_change', channel=4, control=11, value=83, time=0),
    Message('pitchwheel', channel=4, pitch=-2584, time=0),
    Message('pitchwheel', channel=4, pitch=-2263, time=0),
    Message('control_change', channel=4, control=11, value=83, time=18),
    Message('control_change', channel=4, control=11, value=85, time=0),
    Message('pitchwheel', channel=4, pitch=-2263, time=0),
    Message('pitchwheel', channel=4, pitch=-1916, time=0),
    Message('control_change', channel=4, control=11, value=85, time=30),
    Message('control_change', channel=4, control=11, value=86, time=0),
    Message('pitchwheel', channel=4, pitch=-1916, time=0),
    Message('pitchwheel', channel=4, pitch=-1595, time=0),
    Message('control_change', channel=4, control=11, value=86, time=18),
    Message('control_change', channel=4, control=11, value=88, time=0),
    Message('pitchwheel', channel=4, pitch=-1595, time=0),
    Message('pitchwheel', channel=4, pitch=-1248, time=0),
    Message('control_change', channel=4, control=11, value=88, time=30),
    Message('control_change', channel=4, control=11, value=89, time=0),
    Message('pitchwheel', channel=4, pitch=-1248, time=0),
    Message('pitchwheel', channel=4, pitch=-927, time=0),
    Message('note_off', channel=4, note=25, velocity=64, time=18),
    Message('control_change', channel=4, control=11, value=89, time=0),
    Message('control_change', channel=4, control=11, value=91, time=0),
    Message('note_on', channel=4, note=25, velocity=75, time=0),
    Message('pitchwheel', channel=4, pitch=-927, time=0),
    Message('pitchwheel', channel=4, pitch=-580, time=0),
    Message('control_change', channel=4, control=11, value=91, time=30),
    Message('control_change', channel=4, control=11, value=93, time=0),
    Message('pitchwheel', channel=4, pitch=-580, time=0),
    Message('pitchwheel', channel=4, pitch=-259, time=0),
    Message('control_change', channel=4, control=11, value=93, time=18),
    Message('control_change', channel=4, control=11, value=94, time=0),
    Message('pitchwheel', channel=4, pitch=-259, time=0),
    Message('pitchwheel', channel=4, pitch=87, time=0),
    Message('pitchwheel', channel=4, pitch=87, time=30),
    Message('pitchwheel', channel=4, pitch=408, time=0),
    Message('control_change', channel=4, control=11, value=94, time=0),
    Message('control_change', channel=4, control=11, value=96, time=0),
    Message('pitchwheel', channel=4, pitch=408, time=18),
    Message('pitchwheel', channel=4, pitch=755, time=0),
    Message('control_change', channel=4, control=11, value=96, time=0),
    Message('control_change', channel=4, control=11, value=97, time=0),
    Message('control_change', channel=4, control=11, value=97, time=30),
    Message('control_change', channel=4, control=11, value=99, time=0),
    Message('pitchwheel', channel=4, pitch=755, time=0),
    Message('pitchwheel', channel=4, pitch=1076, time=0),
    Message('control_change', channel=4, control=11, value=99, time=17),
    Message('control_change', channel=4, control=11, value=100, time=0),
    Message('pitchwheel', channel=4, pitch=1076, time=1),
    Message('pitchwheel', channel=4, pitch=1423, time=0),
    Message('pitchwheel', channel=4, pitch=1423, time=30),
    Message('pitchwheel', channel=4, pitch=1744, time=0),
    Message('control_change', channel=4, control=11, value=100, time=0),
    Message('control_change', channel=4, control=11, value=102, time=0),
    Message('note_off', channel=4, note=25, velocity=64, time=18),
    Message('note_on', channel=4, note=24, velocity=91, time=0),
    Message('pitchwheel', channel=4, pitch=1744, time=0),
    Message('pitchwheel', channel=4, pitch=2091, time=0),
    Message('control_change', channel=4, control=11, value=102, time=0),
    Message('control_change', channel=4, control=11, value=103, time=0),
    Message('control_change', channel=4, control=11, value=103, time=30),
    Message('control_change', channel=4, control=11, value=105, time=0),
    Message('pitchwheel', channel=4, pitch=2091, time=0),
    Message('pitchwheel', channel=4, pitch=2412, time=0),
    Message('control_change', channel=4, control=11, value=105, time=18),
    Message('control_change', channel=4, control=11, value=107, time=0),
    Message('pitchwheel', channel=4, pitch=2412, time=0),
    Message('pitchwheel', channel=4, pitch=2759, time=0),
    Message('control_change', channel=4, control=11, value=107, time=30),
    Message('control_change', channel=4, control=11, value=108, time=0),
    Message('pitchwheel', channel=4, pitch=2759, time=0),
    Message('pitchwheel', channel=4, pitch=3079, time=0),
    Message('pitchwheel', channel=4, pitch=3079, time=18),
    Message('pitchwheel', channel=4, pitch=3427, time=0),
    Message('control_change', channel=4, control=11, value=108, time=0),
    Message('control_change', channel=4, control=11, value=110, time=0),
    Message('control_change', channel=4, control=11, value=110, time=30),
    Message('control_change', channel=4, control=11, value=111, time=0),
    Message('pitchwheel', channel=4, pitch=3427, time=0),
    Message('pitchwheel', channel=4, pitch=3747, time=0),
    Message('pitchwheel', channel=4, pitch=3747, time=18),
    Message('pitchwheel', channel=4, pitch=4095, time=0),
    Message('control_change', channel=4, control=11, value=111, time=0),
    Message('control_change', channel=4, control=11, value=113, time=0),
    Message('control_change', channel=4, control=11, value=113, time=30),
    Message('control_change', channel=4, control=11, value=114, time=0),
    Message('pitchwheel', channel=4, pitch=4095, time=0),
    Message('pitchwheel', channel=4, pitch=4415, time=0),
    Message('note_off', channel=4, note=24, velocity=64, time=17),
    Message('note_on', channel=4, note=24, velocity=99, time=1),
    Message('pitchwheel', channel=4, pitch=4415, time=0),
    Message('pitchwheel', channel=4, pitch=4763, time=0),
    Message('control_change', channel=4, control=11, value=114, time=0),
    Message('control_change', channel=4, control=11, value=116, time=0),
    Message('pitchwheel', channel=4, pitch=4763, time=30),
    Message('pitchwheel', channel=4, pitch=5083, time=0),
    Message('control_change', channel=4, control=11, value=116, time=0),
    Message('control_change', channel=4, control=11, value=117, time=0),
    Message('control_change', channel=4, control=11, value=117, time=18),
    Message('control_change', channel=4, control=11, value=119, time=0),
    Message('pitchwheel', channel=4, pitch=5083, time=0),
    Message('pitchwheel', channel=4, pitch=5431, time=0),
    Message('control_change', channel=4, control=11, value=119, time=30),
    Message('control_change', channel=4, control=11, value=121, time=0),
    Message('pitchwheel', channel=4, pitch=5431, time=0),
    Message('pitchwheel', channel=4, pitch=5751, time=0),
    Message('control_change', channel=4, control=11, value=121, time=18),
    Message('control_change', channel=4, control=11, value=122, time=0),
    Message('pitchwheel', channel=4, pitch=5751, time=0),
    Message('pitchwheel', channel=4, pitch=6098, time=0),
    Message('control_change', channel=4, control=11, value=122, time=30),
    Message('control_change', channel=4, control=11, value=124, time=0),
    Message('pitchwheel', channel=4, pitch=6098, time=0),
    Message('pitchwheel', channel=4, pitch=6419, time=0),
    Message('control_change', channel=4, control=11, value=124, time=18),
    Message('control_change', channel=4, control=11, value=125, time=0),
    Message('pitchwheel', channel=4, pitch=6419, time=0),
    Message('pitchwheel', channel=4, pitch=6766, time=0),
    Message('pitchwheel', channel=4, pitch=6766, time=30),
    Message('pitchwheel', channel=4, pitch=7087, time=0),
    Message('control_change', channel=4, control=11, value=125, time=0),
    Message('control_change', channel=4, control=11, value=127, time=0),
    Message('note_off', channel=4, note=24, velocity=64, time=18),
    Message('pitchwheel', channel=4, pitch=7087, time=0),
    Message('pitchwheel', channel=4, pitch=7434, time=0),
    Message('note_on', channel=4, note=23, velocity=110, time=0),
    Message('pitchwheel', channel=4, pitch=7434, time=30),
    Message('pitchwheel', channel=4, pitch=7755, time=0),
    Message('pitchwheel', channel=4, pitch=7755, time=18),
    Message('pitchwheel', channel=4, pitch=8102, time=0),
    Message('pitchwheel', channel=4, pitch=8102, time=30),
    Message('pitchwheel', channel=4, pitch=8191, time=0),
    Message('note_off', channel=4, note=23, velocity=64, time=114),
    Message('note_on', channel=4, note=23, velocity=127, time=0),
    Message('note_off', channel=4, note=23, velocity=64, time=193),
    Message('pitchwheel', channel=4, pitch=8191, time=2334),
    Message('pitchwheel', channel=4, pitch=0, time=0),
    Message('note_on', channel=4, note=65, velocity=102, time=41),
    Message('note_on', channel=4, note=32, velocity=99, time=0),
    Message('note_on', channel=4, note=62, velocity=100, time=0),
    Message('note_on', channel=4, note=44, velocity=102, time=1),
    Message('note_on', channel=4, note=54, velocity=107, time=0),
    Message('pitchwheel', channel=4, pitch=0, time=38),
    Message('pitchwheel', channel=4, pitch=-115, time=0),
    Message('pitchwheel', channel=4, pitch=-395, time=2),
    Message('pitchwheel', channel=4, pitch=-674, time=2),
    Message('pitchwheel', channel=4, pitch=-953, time=2),
    Message('pitchwheel', channel=4, pitch=-1201, time=2),
    Message('pitchwheel', channel=4, pitch=-1233, time=0),
    Message('pitchwheel', channel=4, pitch=-1512, time=2),
    Message('pitchwheel', channel=4, pitch=-1791, time=2),
    Message('pitchwheel', channel=4, pitch=-2071, time=1),
    Message('pitchwheel', channel=4, pitch=-2350, time=2),
    Message('pitchwheel', channel=4, pitch=-2629, time=2),
    Message('pitchwheel', channel=4, pitch=-2909, time=2),
    Message('pitchwheel', channel=4, pitch=-2978, time=1),
    Message('note_off', channel=4, note=65, velocity=64, time=1),
    Message('note_off', channel=4, note=54, velocity=64, time=0),
    Message('note_off', channel=4, note=44, velocity=64, time=0),
    Message('note_off', channel=4, note=62, velocity=64, time=0),
    Message('note_off', channel=4, note=32, velocity=64, time=0),
    Message('pitchwheel', channel=4, pitch=-3188, time=0),
    Message('pitchwheel', channel=4, pitch=-3467, time=2),
    Message('pitchwheel', channel=4, pitch=-3747, time=2),
    Message('pitchwheel', channel=4, pitch=-4026, time=2),
    Message('pitchwheel', channel=4, pitch=-4305, time=2),
    Message('pitchwheel', channel=4, pitch=-4585, time=2),
    Message('pitchwheel', channel=4, pitch=-4686, time=1),
    Message('pitchwheel', channel=4, pitch=-4864, time=1),
    Message('pitchwheel', channel=4, pitch=-5143, time=3),
    Message('pitchwheel', channel=4, pitch=-5423, time=1),
    Message('pitchwheel', channel=4, pitch=-5702, time=2),
    Message('pitchwheel', channel=4, pitch=-5981, time=3),
    Message('pitchwheel', channel=4, pitch=-6261, time=0),
    Message('pitchwheel', channel=4, pitch=-1878, time=2),
    Message('pitchwheel', channel=4, pitch=0, time=0),
    Message('note_on', channel=4, note=58, velocity=117, time=469),
    Message('note_on', channel=4, note=65, velocity=123, time=0),
    Message('note_on', channel=4, note=62, velocity=120, time=0),
    Message('note_on', channel=4, note=54, velocity=123, time=0),
    Message('note_off', channel=4, note=65, velocity=64, time=24),
    Message('note_off', channel=4, note=54, velocity=64, time=0),
    Message('note_off', channel=4, note=58, velocity=64, time=0),
    Message('note_off', channel=4, note=62, velocity=64, time=0),
    Message('note_on', channel=4, note=58, velocity=123, time=48),
    Message('note_on', channel=4, note=55, velocity=120, time=0),
    Message('note_on', channel=4, note=63, velocity=123, time=0),
    Message('note_on', channel=4, note=66, velocity=123, time=0),
    Message('note_on', channel=4, note=59, velocity=120, time=0),
    Message('note_off', channel=4, note=58, velocity=64, time=21),
    Message('note_off', channel=4, note=66, velocity=64, time=3),
    Message('note_off', channel=4, note=55, velocity=64, time=2),
    Message('note_off', channel=4, note=59, velocity=64, time=0),
    Message('note_off', channel=4, note=63, velocity=64, time=2),
    Message('control_change', channel=4, control=11, value=127, time=2319),
    Message('control_change', channel=4, control=11, value=127, time=0),
    Message('note_on', channel=4, note=32, velocity=113, time=6),
    Message('note_on', channel=4, note=72, velocity=127, time=0),
    Message('note_on', channel=4, note=63, velocity=125, time=0),
    Message('note_off', channel=4, note=72, velocity=64, time=71),
    Message('note_off', channel=4, note=32, velocity=64, time=0),
    Message('note_off', channel=4, note=63, velocity=64, time=0),
    Message('note_on', channel=4, note=35, velocity=124, time=1326),
    Message('note_on', channel=4, note=57, velocity=107, time=1),
    Message('note_on', channel=4, note=62, velocity=113, time=0),
    Message('note_off', channel=4, note=57, velocity=64, time=21),
    Message('note_off', channel=4, note=62, velocity=64, time=2),
    Message('note_off', channel=4, note=35, velocity=64, time=5),
    Message('note_on', channel=4, note=63, velocity=113, time=62),
    Message('note_on', channel=4, note=58, velocity=113, time=0),
    Message('note_on', channel=4, note=36, velocity=113, time=2),
    Message('note_off', channel=4, note=63, velocity=64, time=22),
    Message('note_off', channel=4, note=58, velocity=64, time=0),
    Message('note_off', channel=4, note=36, velocity=64, time=5),
    Message('note_on', channel=4, note=37, velocity=124, time=67),
    Message('note_on', channel=4, note=59, velocity=113, time=1),
    Message('note_on', channel=4, note=64, velocity=119, time=0),
    Message('note_off', channel=4, note=59, velocity=64, time=25),
    Message('note_off', channel=4, note=64, velocity=64, time=0),
    Message('note_off', channel=4, note=37, velocity=64, time=3),
    Message('note_on', channel=4, note=27, velocity=119, time=71),
    Message('note_on', channel=4, note=68, velocity=107, time=0),
    Message('note_on', channel=4, note=61, velocity=107, time=0),
    Message('note_on', channel=4, note=65, velocity=110, time=0),
    Message('note_off', channel=4, note=27, velocity=64, time=114),
    Message('note_off', channel=4, note=61, velocity=64, time=191),
    Message('note_off', channel=4, note=65, velocity=64, time=2),
    Message('note_off', channel=4, note=68, velocity=64, time=0),
    Message('note_on', channel=4, note=65, velocity=113, time=268),
    Message('note_on', channel=4, note=72, velocity=113, time=0),
    Message('note_on', channel=4, note=60, velocity=113, time=1),
    Message('note_off', channel=4, note=60, velocity=64, time=14),
    Message('note_off', channel=4, note=65, velocity=64, time=0),
    Message('note_off', channel=4, note=72, velocity=64, time=0),
    Message('note_on', channel=4, note=65, velocity=124, time=34),
    Message('note_on', channel=4, note=60, velocity=124, time=0),
    Message('note_on', channel=4, note=72, velocity=124, time=0),
    Message('note_off', channel=4, note=65, velocity=64, time=19),
    Message('note_off', channel=4, note=72, velocity=64, time=0),
    Message('note_off', channel=4, note=60, velocity=64, time=0),
    Message('note_on', channel=4, note=63, velocity=119, time=0),
    Message('note_on', channel=4, note=58, velocity=119, time=1),
    Message('note_on', channel=4, note=70, velocity=119, time=0),
    Message('note_off', channel=4, note=63, velocity=64, time=18),
    Message('note_off', channel=4, note=58, velocity=64, time=0),
    Message('note_off', channel=4, note=70, velocity=64, time=0),
    Message('pitchwheel', channel=4, pitch=0, time=893),
    Message('pitchwheel', channel=4, pitch=0, time=0),
    Message('note_on', channel=4, note=24, velocity=110, time=1),
    Message('note_off', channel=4, note=24, velocity=64, time=39),
    Message('note_on', channel=4, note=25, velocity=80, time=325),
    Message('note_on', channel=4, note=37, velocity=80, time=0),
    Message('note_off', channel=4, note=25, velocity=64, time=6),
    Message('note_off', channel=4, note=37, velocity=64, time=0),
    Message('note_on', channel=4, note=26, velocity=50, time=13),
    Message('note_on', channel=4, note=38, velocity=50, time=0),
    Message('note_off', channel=4, note=26, velocity=64, time=15),
    Message('note_off', channel=4, note=38, velocity=64, time=0),
    Message('note_on', channel=4, note=26, velocity=75, time=33),
    Message('note_on', channel=4, note=38, velocity=75, time=0),
    Message('note_off', channel=4, note=26, velocity=64, time=19),
    Message('note_off', channel=4, note=38, velocity=64, time=0),
    Message('note_on', channel=4, note=26, velocity=90, time=317),
    Message('note_off', channel=4, note=26, velocity=64, time=27),
    Message('note_on', channel=4, note=30, velocity=81, time=70),
    Message('note_off', channel=4, note=30, velocity=64, time=28),
    Message('note_on', channel=4, note=33, velocity=87, time=68),
    Message('note_off', channel=4, note=33, velocity=64, time=31),
    Message('note_on', channel=4, note=30, velocity=86, time=141),
    Message('note_off', channel=4, note=30, velocity=64, time=21),
    Message('note_on', channel=4, note=53, velocity=82, time=0),
    Message('note_on', channel=4, note=31, velocity=111, time=0),
    Message('note_on', channel=4, note=59, velocity=74, time=0),
    Message('note_off', channel=4, note=59, velocity=64, time=8),
    Message('note_off', channel=4, note=53, velocity=64, time=4),
    Message('note_off', channel=4, note=31, velocity=64, time=0),
    Message('note_on', channel=4, note=53, velocity=79, time=35),
    Message('note_on', channel=4, note=31, velocity=98, time=0),
    Message('note_on', channel=4, note=59, velocity=75, time=0),
    Message('note_off', channel=4, note=59, velocity=64, time=38),
    Message('note_off', channel=4, note=31, velocity=64, time=7),
    Message('note_off', channel=4, note=53, velocity=64, time=1),
    Message('note_on', channel=4, note=30, velocity=53, time=49),
    Message('note_on', channel=4, note=58, velocity=72, time=0),
    Message('note_on', channel=4, note=52, velocity=77, time=0),
    Message('pitchwheel', channel=4, pitch=0, time=98),
    Message('pitchwheel', channel=4, pitch=-56, time=0),
    Message('pitchwheel', channel=4, pitch=-170, time=5),
    Message('pitchwheel', channel=4, pitch=-396, time=2),
    Message('pitchwheel', channel=4, pitch=-651, time=2),
    Message('pitchwheel', channel=4, pitch=-963, time=2),
    Message('pitchwheel', channel=4, pitch=-1303, time=2),
    Message('pitchwheel', channel=4, pitch=-1870, time=2),
    Message('pitchwheel', channel=4, pitch=-2777, time=2),
    Message('pitchwheel', channel=4, pitch=-3571, time=2),
    Message('pitchwheel', channel=4, pitch=-4065, time=2),
    Message('pitchwheel', channel=4, pitch=-4251, time=0),
    Message('pitchwheel', channel=4, pitch=-5611, time=2),
    Message('pitchwheel', channel=4, pitch=-6858, time=2),
    Message('pitchwheel', channel=4, pitch=-8192, time=2),
    Message('note_off', channel=4, note=52, velocity=64, time=10),
    Message('note_off', channel=4, note=58, velocity=64, time=3),
    Message('note_off', channel=4, note=30, velocity=64, time=2),
    Message('pitchwheel', channel=4, pitch=-8192, time=19),
    Message('pitchwheel', channel=4, pitch=-6745, time=0),
    Message('pitchwheel', channel=4, pitch=-5385, time=2),
    Message('pitchwheel', channel=4, pitch=-3797, time=3),
    Message('pitchwheel', channel=4, pitch=-2890, time=1),
    Message('pitchwheel', channel=4, pitch=-1983, time=2),
    Message('pitchwheel', channel=4, pitch=-1870, time=0),
    Message('pitchwheel', channel=4, pitch=-850, time=2),
    Message('pitchwheel', channel=4, pitch=0, time=2),
    Message('note_on', channel=4, note=30, velocity=105, time=165),
    Message('note_on', channel=4, note=54, velocity=76, time=0),
    Message('note_off', channel=4, note=54, velocity=64, time=24),
    Message('note_off', channel=4, note=30, velocity=64, time=3),
    Message('note_on', channel=4, note=33, velocity=109, time=70),
    Message('note_on', channel=4, note=57, velocity=78, time=0),
    Message('note_off', channel=4, note=57, velocity=64, time=24),
    Message('note_off', channel=4, note=33, velocity=64, time=8),
    Message('note_on', channel=4, note=30, velocity=96, time=255),
    Message('note_on', channel=4, note=54, velocity=87, time=0),
    Message('note_off', channel=4, note=54, velocity=64, time=17),
    Message('note_off', channel=4, note=30, velocity=64, time=2),
    Message('note_on', channel=4, note=30, velocity=80, time=29),
    Message('note_on', channel=4, note=54, velocity=69, time=0),
    Message('note_off', channel=4, note=54, velocity=64, time=16),
    Message('note_off', channel=4, note=30, velocity=64, time=3),
    Message('note_on', channel=4, note=33, velocity=89, time=29),
    Message('note_on', channel=4, note=57, velocity=81, time=0),
    Message('note_off', channel=4, note=57, velocity=64, time=23),
    Message('note_off', channel=4, note=33, velocity=64, time=6),
    Message('control_change', channel=4, control=1, value=0, time=108),
    Message('control_change', channel=4, control=1, value=0, time=0),
    Message('control_change', channel=4, control=11, value=127, time=13),
    Message('control_change', channel=4, control=11, value=127, time=0),
    Message('note_on', channel=4, note=30, velocity=100, time=23),
    Message('note_off', channel=4, note=30, velocity=64, time=9),
    Message('note_on', channel=4, note=26, velocity=92, time=10),
    Message('note_off', channel=4, note=26, velocity=64, time=21),
    Message('note_on', channel=4, note=26, velocity=87, time=27),
    Message('note_off', channel=4, note=26, velocity=64, time=18),
    Message('note_on', channel=4, note=30, velocity=80, time=30),
    Message('note_off', channel=4, note=30, velocity=64, time=19),
    Message('note_on', channel=4, note=30, velocity=83, time=29),
    Message('note_off', channel=4, note=30, velocity=64, time=17),
    Message('note_on', channel=4, note=33, velocity=80, time=31),
    Message('note_off', channel=4, note=33, velocity=64, time=27),
    Message('note_on', channel=4, note=47, velocity=90, time=21),
    Message('note_on', channel=4, note=35, velocity=90, time=0),
    Message('note_off', channel=4, note=47, velocity=64, time=18),
    Message('note_off', channel=4, note=35, velocity=64, time=0),
    Message('note_on', channel=4, note=36, velocity=91, time=12),
    Message('note_on', channel=4, note=48, velocity=91, time=0),
    Message('note_off', channel=4, note=36, velocity=64, time=15),
    Message('note_off', channel=4, note=48, velocity=64, time=0),
    Message('note_on', channel=4, note=37, velocity=92, time=5),
    Message('note_on', channel=4, note=49, velocity=92, time=0),
    Message('note_off', channel=4, note=37, velocity=64, time=18),
    Message('note_off', channel=4, note=49, velocity=64, time=0),
    Message('note_on', channel=4, note=40, velocity=93, time=11),
    Message('note_on', channel=4, note=52, velocity=93, time=0),
    Message('note_off', channel=4, note=40, velocity=64, time=14),
    Message('note_off', channel=4, note=52, velocity=64, time=0),
    Message('note_on', channel=4, note=42, velocity=93, time=5),
    Message('note_on', channel=4, note=54, velocity=93, time=0),
    Message('note_off', channel=4, note=54, velocity=64, time=26),
    Message('note_off', channel=4, note=42, velocity=64, time=0),
    Message('note_on', channel=4, note=30, velocity=62, time=1),
    Message('note_off', channel=4, note=30, velocity=64, time=8),
    Message('note_on', channel=4, note=31, velocity=109, time=11),
    Message('note_on', channel=4, note=59, velocity=123, time=1),
    Message('note_on', channel=4, note=64, velocity=127, time=0),
    Message('note_on', channel=4, note=57, velocity=113, time=0),
    Message('note_on', channel=4, note=53, velocity=104, time=0),
    Message('note_off', channel=4, note=57, velocity=64, time=7),
    Message('note_off', channel=4, note=59, velocity=64, time=1),
    Message('note_off', channel=4, note=53, velocity=64, time=0),
    Message('note_off', channel=4, note=64, velocity=64, time=2),
    Message('note_off', channel=4, note=31, velocity=64, time=4),
    Message('note_on', channel=4, note=31, velocity=114, time=33),
    Message('note_on', channel=4, note=57, velocity=99, time=0),
    Message('note_on', channel=4, note=59, velocity=100, time=1),
    Message('note_on', channel=4, note=64, velocity=99, time=0),
    Message('note_on', channel=4, note=53, velocity=100, time=0),
    Message('note_off', channel=4, note=64, velocity=64, time=41),
    Message('note_off', channel=4, note=59, velocity=64, time=1),
    Message('note_off', channel=4, note=57, velocity=64, time=2),
    Message('note_off', channel=4, note=53, velocity=64, time=3),
    Message('note_off', channel=4, note=31, velocity=64, time=4),
    Message('note_on', channel=4, note=58, velocity=89, time=45),
    Message('note_on', channel=4, note=60, velocity=104, time=0),
    Message('note_on', channel=4, note=63, velocity=80, time=0),
    Message('note_on', channel=4, note=52, velocity=94, time=0),
    Message('note_on', channel=4, note=56, velocity=71, time=0),
    Message('note_on', channel=4, note=30, velocity=66, time=1),
    Message('control_change', channel=4, control=1, value=0, time=13),
    Message('control_change', channel=4, control=1, value=17, time=0),
    Message('control_change', channel=4, control=1, value=32, time=3),
    Message('control_change', channel=4, control=1, value=50, time=1),
    Message('control_change', channel=4, control=1, value=62, time=2),
    Message('control_change', channel=4, control=1, value=72, time=2),
    Message('control_change', channel=4, control=1, value=77, time=0),
    Message('control_change', channel=4, control=1, value=91, time=2),
    Message('control_change', channel=4, control=1, value=95, time=2),
    Message('control_change', channel=4, control=1, value=108, time=2),
    Message('control_change', channel=4, control=1, value=112, time=2),
    Message('control_change', channel=4, control=1, value=118, time=3),
    Message('control_change', channel=4, control=1, value=120, time=1),
    Message('control_change', channel=4, control=1, value=122, time=1),
    Message('control_change', channel=4, control=1, value=127, time=4),
    Message('control_change', channel=4, control=11, value=127, time=62),
    Message('control_change', channel=4, control=11, value=127, time=0),
    Message('pitchwheel', channel=4, pitch=0, time=2),
    Message('pitchwheel', channel=4, pitch=-56, time=0),
    Message('pitchwheel', channel=4, pitch=-396, time=2),
    Message('pitchwheel', channel=4, pitch=-446, time=1),
    Message('control_change', channel=4, control=11, value=126, time=0),
    Message('pitchwheel', channel=4, pitch=-623, time=1),
    Message('control_change', channel=4, control=11, value=126, time=2),
    Message('pitchwheel', channel=4, pitch=-1077, time=0),
    Message('control_change', channel=4, control=11, value=125, time=2),
    Message('pitchwheel', channel=4, pitch=-1303, time=0),
    Message('pitchwheel', channel=4, pitch=-1530, time=3),
    Message('control_change', channel=4, control=11, value=124, time=0),
    Message('control_change', channel=4, control=11, value=123, time=1),
    Message('pitchwheel', channel=4, pitch=-1643, time=0),
    Message('control_change', channel=4, control=11, value=122, time=2),
    Message('pitchwheel', channel=4, pitch=-1757, time=0),
    Message('pitchwheel', channel=4, pitch=-1772, time=1),
    Message('control_change', channel=4, control=11, value=121, time=0),
    Message('pitchwheel', channel=4, pitch=-1983, time=2),
    Message('control_change', channel=4, control=11, value=121, time=0),
    Message('control_change', channel=4, control=11, value=120, time=1),
    Message('pitchwheel', channel=4, pitch=-2210, time=1),
    Message('control_change', channel=4, control=11, value=119, time=0),
    Message('pitchwheel', channel=4, pitch=-2324, time=2),
    Message('control_change', channel=4, control=11, value=118, time=2),
    Message('pitchwheel', channel=4, pitch=-2664, time=0),
    Message('control_change', channel=4, control=11, value=117, time=0),
    Message('pitchwheel', channel=4, pitch=-2777, time=2),
    Message('control_change', channel=4, control=11, value=116, time=0),
    Message('pitchwheel', channel=4, pitch=-2828, time=2),
    Message('control_change', channel=4, control=11, value=115, time=0),
    Message('control_change', channel=4, control=11, value=115, time=1),
    Message('control_change', channel=4, control=11, value=114, time=1),
    Message('pitchwheel', channel=4, pitch=-2890, time=0),
    Message('control_change', channel=4, control=11, value=113, time=2),
    Message('control_change', channel=4, control=11, value=112, time=2),
    Message('control_change', channel=4, control=11, value=111, time=2),
    Message('pitchwheel', channel=4, pitch=-3004, time=0),
    Message('control_change', channel=4, control=11, value=110, time=1),
    Message('pitchwheel', channel=4, pitch=-3117, time=1),
    Message('control_change', channel=4, control=11, value=109, time=1),
    Message('pitchwheel', channel=4, pitch=-3230, time=1),
    Message('control_change', channel=4, control=11, value=108, time=0),
    Message('pitchwheel', channel=4, pitch=-3344, time=1),
    Message('control_change', channel=4, control=11, value=108, time=1),
    Message('pitchwheel', channel=4, pitch=-3684, time=0),
    Message('control_change', channel=4, control=1, value=127, time=0),
    Message('control_change', channel=4, control=1, value=122, time=0),
    Message('control_change', channel=4, control=11, value=107, time=1),
    Message('pitchwheel', channel=4, pitch=-3911, time=1),
    Message('control_change', channel=4, control=1, value=118, time=1),
    Message('control_change', channel=4, control=11, value=106, time=0),
    Message('pitchwheel', channel=4, pitch=-4138, time=2),
    Message('control_change', channel=4, control=1, value=112, time=0),
    Message('control_change', channel=4, control=11, value=105, time=1),
    Message('pitchwheel', channel=4, pitch=-4251, time=0),
    Message('control_change', channel=4, control=11, value=104, time=1),
    Message('control_change', channel=4, control=1, value=108, time=2),
    Message('control_change', channel=4, control=11, value=103, time=0),
    Message('pitchwheel', channel=4, pitch=-4580, time=1),
    Message('control_change', channel=4, control=1, value=106, time=0),
    Message('control_change', channel=4, control=11, value=102, time=0),
    Message('pitchwheel', channel=4, pitch=-4704, time=1),
    Message('control_change', channel=4, control=11, value=102, time=1),
    Message('pitchwheel', channel=4, pitch=-4818, time=1),
    Message('control_change', channel=4, control=11, value=101, time=0),
    Message('control_change', channel=4, control=1, value=102, time=0),
    Message('control_change', channel=4, control=11, value=100, time=2),
    Message('pitchwheel', channel=4, pitch=-4931, time=0),
    Message('control_change', channel=4, control=1, value=98, time=0),
    Message('control_change', channel=4, control=11, value=99, time=2),
    Message('pitchwheel', channel=4, pitch=-5044, time=0),
    Message('control_change', channel=4, control=1, value=95, time=0),
    Message('control_change', channel=4, control=11, value=98, time=2),
    Message('pitchwheel', channel=4, pitch=-5158, time=0),
    Message('control_change', channel=4, control=1, value=91, time=0),
    Message('control_change', channel=4, control=11, value=97, time=2),
    Message('pitchwheel', channel=4, pitch=-5271, time=0),
    Message('control_change', channel=4, control=1, value=85, time=0),
    Message('pitchwheel', channel=4, pitch=-5293, time=1),
    Message('control_change', channel=4, control=1, value=84, time=0),
    Message('control_change', channel=4, control=11, value=96, time=0),
    Message('pitchwheel', channel=4, pitch=-5385, time=2),
    Message('control_change', channel=4, control=11, value=96, time=0),
    Message('control_change', channel=4, control=1, value=81, time=0),
    Message('control_change', channel=4, control=11, value=95, time=1),
    Message('pitchwheel', channel=4, pitch=-5611, time=0),
    Message('control_change', channel=4, control=11, value=94, time=1),
    Message('pitchwheel', channel=4, pitch=-5951, time=1),
    Message('control_change', channel=4, control=11, value=93, time=3),
    Message('pitchwheel', channel=4, pitch=-6178, time=0),
    Message('control_change', channel=4, control=1, value=60, time=0),
    Message('control_change', channel=4, control=11, value=92, time=1),
    Message('pitchwheel', channel=4, pitch=-6292, time=0),
    Message('control_change', channel=4, control=1, value=52, time=1),
    Message('control_change', channel=4, control=11, value=91, time=0),
    Message('pitchwheel', channel=4, pitch=-6518, time=1),
    Message('pitchwheel', channel=4, pitch=-6526, time=1),
    Message('control_change', channel=4, control=1, value=46, time=0),
    Message('control_change', channel=4, control=11, value=90, time=0),
    Message('control_change', channel=4, control=11, value=90, time=0),
    Message('pitchwheel', channel=4, pitch=-6632, time=2),
    Message('control_change', channel=4, control=1, value=38, time=1),
    Message('control_change', channel=4, control=11, value=89, time=0),
    Message('pitchwheel', channel=4, pitch=-6858, time=1),
    Message('control_change', channel=4, control=1, value=34, time=0),
    Message('control_change', channel=4, control=11, value=88, time=0),
    Message('pitchwheel', channel=4, pitch=-7085, time=2),
    Message('control_change', channel=4, control=11, value=87, time=0),
    Message('pitchwheel', channel=4, pitch=-7425, time=2),
    Message('control_change', channel=4, control=11, value=86, time=0),
    Message('control_change', channel=4, control=1, value=19, time=0),
    Message('control_change', channel=4, control=11, value=85, time=2),
    Message('pitchwheel', channel=4, pitch=-7765, time=0),
    Message('control_change', channel=4, control=1, value=9, time=0),
    Message('control_change', channel=4, control=11, value=84, time=1),
    Message('pitchwheel', channel=4, pitch=-8149, time=1),
    Message('control_change', channel=4, control=1, value=6, time=0),
    Message('control_change', channel=4, control=11, value=83, time=0),
    Message('pitchwheel', channel=4, pitch=-8192, time=0),
    Message('control_change', channel=4, control=11, value=83, time=1),
    Message('control_change', channel=4, control=11, value=82, time=2),
    Message('control_change', channel=4, control=1, value=0, time=1),
    Message('control_change', channel=4, control=11, value=81, time=1),
    Message('control_change', channel=4, control=11, value=80, time=2),
    Message('control_change', channel=4, control=11, value=79, time=2),
    Message('control_change', channel=4, control=11, value=78, time=2),
    Message('control_change', channel=4, control=11, value=77, time=1),
    Message('control_change', channel=4, control=11, value=77, time=1),
    Message('control_change', channel=4, control=11, value=76, time=2),
    Message('control_change', channel=4, control=11, value=75, time=2),
    Message('control_change', channel=4, control=11, value=74, time=2),
    Message('control_change', channel=4, control=11, value=73, time=2),
    Message('control_change', channel=4, control=11, value=72, time=2),
    Message('control_change', channel=4, control=11, value=71, time=1),
    Message('control_change', channel=4, control=11, value=71, time=0),
    Message('control_change', channel=4, control=11, value=70, time=2),
    Message('control_change', channel=4, control=11, value=69, time=2),
    Message('control_change', channel=4, control=11, value=68, time=5),
    Message('control_change', channel=4, control=11, value=67, time=0),
    Message('control_change', channel=4, control=11, value=66, time=1),
    Message('control_change', channel=4, control=11, value=65, time=2),
    Message('control_change', channel=4, control=11, value=65, time=0),
    Message('control_change', channel=4, control=11, value=64, time=2),
    Message('pitchwheel', channel=4, pitch=-8192, time=1),
    Message('pitchwheel', channel=4, pitch=-7957, time=0),
    Message('control_change', channel=4, control=11, value=63, time=1),
    Message('pitchwheel', channel=4, pitch=-7650, time=1),
    Message('control_change', channel=4, control=11, value=62, time=1),
    Message('pitchwheel', channel=4, pitch=-7342, time=3),
    Message('control_change', channel=4, control=11, value=61, time=0),
    Message('pitchwheel', channel=4, pitch=-7035, time=0),
    Message('control_change', channel=4, control=11, value=60, time=1),
    Message('pitchwheel', channel=4, pitch=-6727, time=1),
    Message('pitchwheel', channel=4, pitch=-6665, time=1),
    Message('control_change', channel=4, control=11, value=59, time=0),
    Message('pitchwheel', channel=4, pitch=-6420, time=1),
    Message('control_change', channel=4, control=11, value=58, time=2),
    Message('pitchwheel', channel=4, pitch=-6112, time=0),
    Message('control_change', channel=4, control=11, value=57, time=0),
    Message('pitchwheel', channel=4, pitch=-5805, time=2),
    Message('control_change', channel=4, control=11, value=56, time=0),
    Message('pitchwheel', channel=4, pitch=-5497, time=2),
    Message('control_change', channel=4, control=11, value=55, time=0),
    Message('pitchwheel', channel=4, pitch=-5189, time=2),
    Message('control_change', channel=4, control=11, value=54, time=0),
    Message('pitchwheel', channel=4, pitch=-4882, time=1),
    Message('control_change', channel=4, control=11, value=53, time=1),
    Message('pitchwheel', channel=4, pitch=-4697, time=1),
    Message('control_change', channel=4, control=11, value=52, time=0),
    Message('pitchwheel', channel=4, pitch=-4574, time=0),
    Message('control_change', channel=4, control=11, value=52, time=1),
    Message('control_change', channel=4, control=1, value=0, time=1),
    Message('control_change', channel=4, control=1, value=0, time=0),
    Message('pitchwheel', channel=4, pitch=-4267, time=1),
    Message('control_change', channel=4, control=11, value=51, time=0),
    Message('pitchwheel', channel=4, pitch=-3959, time=1),
    Message('pitchwheel', channel=4, pitch=-3652, time=2),
    Message('control_change', channel=4, control=11, value=50, time=1),
    Message('pitchwheel', channel=4, pitch=-3344, time=1),
    Message('control_change', channel=4, control=11, value=49, time=0),
    Message('pitchwheel', channel=4, pitch=-3037, time=2),
    Message('control_change', channel=4, control=11, value=48, time=0),
    Message('pitchwheel', channel=4, pitch=-2763, time=2),
    Message('control_change', channel=4, control=11, value=47, time=0),
    Message('pitchwheel', channel=4, pitch=-2729, time=0),
    Message('control_change', channel=4, control=11, value=47, time=0),
    Message('pitchwheel', channel=4, pitch=-2421, time=3),
    Message('control_change', channel=4, control=11, value=46, time=0),
    Message('pitchwheel', channel=4, pitch=-2114, time=1),
    Message('control_change', channel=4, control=11, value=45, time=0),
    Message('pitchwheel', channel=4, pitch=-1806, time=2),
    Message('control_change', channel=4, control=11, value=44, time=0),
    Message('pitchwheel', channel=4, pitch=-1499, time=2),
    Message('control_change', channel=4, control=11, value=43, time=0),
    Message('pitchwheel', channel=4, pitch=-1191, time=1),
    Message('control_change', channel=4, control=11, value=42, time=1),
    Message('pitchwheel', channel=4, pitch=-884, time=1),
    Message('pitchwheel', channel=4, pitch=-865, time=1),
    Message('control_change', channel=4, control=11, value=41, time=0),
    Message('control_change', channel=4, control=11, value=41, time=0),
    Message('pitchwheel', channel=4, pitch=-576, time=3),
    Message('control_change', channel=4, control=11, value=40, time=0),
    Message('pitchwheel', channel=4, pitch=-268, time=0),
    Message('control_change', channel=4, control=11, value=39, time=1),
    Message('pitchwheel', channel=4, pitch=38, time=1),
    Message('control_change', channel=4, control=11, value=38, time=1),
    Message('pitchwheel', channel=4, pitch=346, time=3),
    Message('control_change', channel=4, control=11, value=37, time=0),
    Message('pitchwheel', channel=4, pitch=653, time=0),
    Message('control_change', channel=4, control=11, value=36, time=1),
    Message('pitchwheel', channel=4, pitch=961, time=1),
    Message('control_change', channel=4, control=11, value=35, time=0),
    Message('pitchwheel', channel=4, pitch=1007, time=1),
    Message('control_change', channel=4, control=11, value=34, time=0),
    Message('pitchwheel', channel=4, pitch=1268, time=3),
    Message('control_change', channel=4, control=11, value=34, time=0),
    Message('pitchwheel', channel=4, pitch=1576, time=1),
    Message('control_change', channel=4, control=11, value=33, time=0),
    Message('pitchwheel', channel=4, pitch=1883, time=1),
    Message('control_change', channel=4, control=11, value=32, time=0),
    Message('pitchwheel', channel=4, pitch=2191, time=2),
    Message('control_change', channel=4, control=11, value=31, time=1),
    Message('pitchwheel', channel=4, pitch=2499, time=1),
    Message('control_change', channel=4, control=11, value=30, time=0),
    Message('pitchwheel', channel=4, pitch=2806, time=1),
    Message('control_change', channel=4, control=11, value=29, time=1),
    Message('pitchwheel', channel=4, pitch=2990, time=1),
    Message('control_change', channel=4, control=11, value=28, time=0),
    Message('pitchwheel', channel=4, pitch=3114, time=0),
    Message('control_change', channel=4, control=11, value=28, time=1),
    Message('pitchwheel', channel=4, pitch=3421, time=2),
    Message('control_change', channel=4, control=11, value=27, time=0),
    Message('pitchwheel', channel=4, pitch=3729, time=1),
    Message('control_change', channel=4, control=11, value=26, time=1),
    Message('pitchwheel', channel=4, pitch=4036, time=1),
    Message('control_change', channel=4, control=11, value=25, time=0),
    Message('pitchwheel', channel=4, pitch=4344, time=3),
    Message('control_change', channel=4, control=11, value=24, time=0),
    Message('pitchwheel', channel=4, pitch=4651, time=1),
    Message('control_change', channel=4, control=11, value=23, time=0),
    Message('pitchwheel', channel=4, pitch=4897, time=2),
    Message('control_change', channel=4, control=11, value=22, time=0),
    Message('pitchwheel', channel=4, pitch=4959, time=0),
    Message('control_change', channel=4, control=11, value=22, time=0),
    Message('pitchwheel', channel=4, pitch=5267, time=2),
    Message('control_change', channel=4, control=11, value=21, time=0),
    Message('pitchwheel', channel=4, pitch=5574, time=2),
    Message('control_change', channel=4, control=11, value=20, time=0),
    Message('pitchwheel', channel=4, pitch=5882, time=2),
    Message('control_change', channel=4, control=11, value=19, time=0),
    Message('pitchwheel', channel=4, pitch=6189, time=2),
    Message('control_change', channel=4, control=11, value=18, time=1),
    Message('pitchwheel', channel=4, pitch=6497, time=1),
    Message('control_change', channel=4, control=11, value=17, time=0),
    Message('pitchwheel', channel=4, pitch=6804, time=1),
    Message('pitchwheel', channel=4, pitch=6834, time=1),
    Message('control_change', channel=4, control=11, value=16, time=0),
    Message('control_change', channel=4, control=11, value=16, time=0),
    Message('pitchwheel', channel=4, pitch=7112, time=1),
    Message('control_change', channel=4, control=11, value=15, time=1),
    Message('pitchwheel', channel=4, pitch=7419, time=1),
    Message('control_change', channel=4, control=11, value=14, time=1),
    Message('pitchwheel', channel=4, pitch=7727, time=1),
    Message('control_change', channel=4, control=11, value=13, time=1),
    Message('pitchwheel', channel=4, pitch=8035, time=2),
    Message('control_change', channel=4, control=11, value=12, time=1),
    Message('pitchwheel', channel=4, pitch=8191, time=0),
    Message('control_change', channel=4, control=11, value=11, time=1),
    Message('control_change', channel=4, control=11, value=10, time=1),
    Message('pitchwheel', channel=4, pitch=6386, time=1),
    Message('control_change', channel=4, control=11, value=9, time=0),
    Message('note_off', channel=4, note=30, velocity=64, time=2),
    Message('note_off', channel=4, note=60, velocity=64, time=0),
    Message('note_off', channel=4, note=52, velocity=64, time=1),
    Message('note_off', channel=4, note=63, velocity=64, time=0),
    Message('note_off', channel=4, note=56, velocity=64, time=0),
    Message('note_off', channel=4, note=58, velocity=64, time=0),
    Message('control_change', channel=4, control=11, value=9, time=0),
    Message('control_change', channel=4, control=11, value=8, time=1),
    Message('control_change', channel=4, control=11, value=7, time=1),
    Message('pitchwheel', channel=4, pitch=0, time=4),
    Message('control_change', channel=4, control=11, value=6, time=0),
    Message('control_change', channel=4, control=11, value=5, time=1),
    Message('control_change', channel=4, control=11, value=4, time=1),
    Message('control_change', channel=4, control=11, value=3, time=1),
    Message('control_change', channel=4, control=11, value=3, time=1),
    Message('control_change', channel=4, control=11, value=2, time=2),
    Message('control_change', channel=4, control=11, value=1, time=2),
    Message('control_change', channel=4, control=11, value=0, time=1),
    MetaMessage('end_of_track', time=0)]),
  MidiTrack([
    MetaMessage('track_name', name='G.Duke Old&Funkz Mk I Ep', time=0),
    MetaMessage('channel_prefix', channel=5, time=0),
    Message('program_change', channel=5, program=13, time=0),
    Message('control_change', channel=5, control=0, value=0, time=0),
    Message('control_change', channel=5, control=32, value=2, time=0),
    Message('control_change', channel=5, control=7, value=127, time=0),
    Message('control_change', channel=5, control=10, value=64, time=0),
    Message('control_change', channel=5, control=91, value=0, time=0),
    Message('control_change', channel=5, control=93, value=0, time=0),
    Message('control_change', channel=5, control=11, value=127, time=1920),
    Message('control_change', channel=5, control=11, value=65, time=0),
    Message('pitchwheel', channel=5, pitch=0, time=757),
    Message('pitchwheel', channel=5, pitch=-7983, time=0),
    Message('note_on', channel=5, note=32, velocity=119, time=0),
    Message('note_on', channel=5, note=44, velocity=119, time=1),
    Message('pitchwheel', channel=5, pitch=-7652, time=3),
    Message('pitchwheel', channel=5, pitch=-7322, time=0),
    Message('pitchwheel', channel=5, pitch=-6991, time=1),
    Message('pitchwheel', channel=5, pitch=-6661, time=2),
    Message('pitchwheel', channel=5, pitch=-6330, time=3),
    Message('pitchwheel', channel=5, pitch=-6123, time=1),
    Message('pitchwheel', channel=5, pitch=-6000, time=0),
    Message('pitchwheel', channel=5, pitch=-5669, time=2),
    Message('pitchwheel', channel=5, pitch=-5339, time=3),
    Message('pitchwheel', channel=5, pitch=-5008, time=1),
    Message('pitchwheel', channel=5, pitch=-4678, time=2),
    Message('pitchwheel', channel=5, pitch=-4348, time=2),
    Message('pitchwheel', channel=5, pitch=-4017, time=1),
    Message('pitchwheel', channel=5, pitch=-3984, time=1),
    Message('pitchwheel', channel=5, pitch=-3687, time=1),
    Message('pitchwheel', channel=5, pitch=-3356, time=2),
    Message('pitchwheel', channel=5, pitch=-3026, time=2),
    Message('pitchwheel', channel=5, pitch=-2695, time=2),
    Message('pitchwheel', channel=5, pitch=-2365, time=2),
    Message('pitchwheel', channel=5, pitch=-2034, time=2),
    Message('pitchwheel', channel=5, pitch=-1968, time=1),
    Message('pitchwheel', channel=5, pitch=-1704, time=1),
    Message('pitchwheel', channel=5, pitch=-1373, time=2),
    Message('pitchwheel', channel=5, pitch=-1043, time=2),
    Message('pitchwheel', channel=5, pitch=-712, time=2),
    Message('pitchwheel', channel=5, pitch=-382, time=4),
    Message('pitchwheel', channel=5, pitch=0, time=0),
    Message('note_off', channel=5, note=32, velocity=64, time=2),
    Message('note_off', channel=5, note=44, velocity=64, time=0),
    Message('note_on', channel=5, note=32, velocity=119, time=1),
    Message('note_on', channel=5, note=44, velocity=119, time=0),
    Message('note_off', channel=5, note=44, velocity=64, time=34),
    Message('note_off', channel=5, note=32, velocity=64, time=3),
    Message('note_on', channel=5, note=32, velocity=104, time=322),
    Message('note_on', channel=5, note=44, velocity=113, time=0),
    Message('note_off', channel=5, note=32, velocity=64, time=53),
    Message('note_off', channel=5, note=44, velocity=64, time=0),
    Message('note_on', channel=5, note=48, velocity=104, time=19),
    Message('note_on', channel=5, note=36, velocity=102, time=1),
    Message('note_off', channel=5, note=48, velocity=64, time=28),
    Message('note_off', channel=5, note=36, velocity=64, time=0),
    Message('note_on', channel=5, note=39, velocity=104, time=21),
    Message('note_on', channel=5, note=51, velocity=113, time=0),
    Message('note_off', channel=5, note=51, velocity=64, time=29),
    Message('note_off', channel=5, note=39, velocity=64, time=3),
    Message('control_change', channel=5, control=10, value=64, time=22),
    Message('control_change', channel=5, control=10, value=38, time=0),
    Message('control_change', channel=5, control=11, value=65, time=16),
    Message('control_change', channel=5, control=11, value=48, time=0),
    Message('note_on', channel=5, note=47, velocity=124, time=0),
    Message('note_on', channel=5, note=55, velocity=104, time=3),
    Message('note_on', channel=5, note=56, velocity=92, time=1),
    Message('note_on', channel=5, note=53, velocity=92, time=0),
    Message('note_off', channel=5, note=53, velocity=64, time=2),
    Message('note_off', channel=5, note=55, velocity=64, time=1),
    Message('note_off', channel=5, note=56, velocity=64, time=0),
    Message('note_on', channel=5, note=48, velocity=68, time=19),
    Message('note_off', channel=5, note=47, velocity=64, time=6),
    Message('note_off', channel=5, note=48, velocity=64, time=16),
    Message('note_on', channel=5, note=56, velocity=124, time=0),
    Message('note_off', channel=5, note=56, velocity=64, time=30),
    Message('note_on', channel=5, note=32, velocity=75, time=24),
    Message('note_on', channel=5, note=47, velocity=55, time=5),
    Message('note_off', channel=5, note=47, velocity=64, time=5),
    Message('note_off', channel=5, note=32, velocity=64, time=0),
    Message('note_on', channel=5, note=47, velocity=107, time=10),
    Message('note_on', channel=5, note=46, velocity=127, time=4),
    Message('note_on', channel=5, note=49, velocity=107, time=0),
    Message('note_off', channel=5, note=49, velocity=64, time=2),
    Message('note_off', channel=5, note=47, velocity=64, time=5),
    Message('note_off', channel=5, note=46, velocity=64, time=12),
    Message('note_on', channel=5, note=44, velocity=96, time=1),
    Message('note_off', channel=5, note=44, velocity=64, time=21),
    Message('note_on', channel=5, note=41, velocity=95, time=5),
    Message('note_on', channel=5, note=39, velocity=102, time=19),
    Message('note_off', channel=5, note=41, velocity=64, time=3),
    Message('note_off', channel=5, note=39, velocity=64, time=16),
    Message('control_change', channel=5, control=10, value=38, time=5),
    Message('control_change', channel=5, control=10, value=64, time=0),
    Message('control_change', channel=5, control=11, value=48, time=0),
    Message('control_change', channel=5, control=11, value=65, time=0),
    Message('note_on', channel=5, note=44, velocity=110, time=4),
    Message('note_on', channel=5, note=32, velocity=110, time=0),
    Message('note_off', channel=5, note=32, velocity=64, time=1),
    Message('note_on', channel=5, note=32, velocity=46, time=0),
    Message('note_on', channel=5, note=36, velocity=68, time=0),
    Message('note_off', channel=5, note=32, velocity=64, time=2),
    Message('note_off', channel=5, note=36, velocity=64, time=5),
    Message('note_off', channel=5, note=44, velocity=64, time=28),
    Message('note_on', channel=5, note=48, velocity=65, time=10),
    Message('note_on', channel=5, note=36, velocity=82, time=0),
    Message('note_off', channel=5, note=48, velocity=64, time=19),
    Message('note_off', channel=5, note=36, velocity=64, time=6),
    Message('note_on', channel=5, note=51, velocity=110, time=5),
    Message('note_on', channel=5, note=39, velocity=107, time=0),
    Message('note_off', channel=5, note=51, velocity=64, time=23),
    Message('note_off', channel=5, note=39, velocity=64, time=3),
    Message('note_on', channel=5, note=53, velocity=119, time=21),
    Message('note_on', channel=5, note=41, velocity=113, time=0),
    Message('note_off', channel=5, note=53, velocity=64, time=24),
    Message('note_off', channel=5, note=41, velocity=64, time=2),
    Message('note_on', channel=5, note=51, velocity=100, time=22),
    Message('note_on', channel=5, note=39, velocity=67, time=0),
    Message('note_off', channel=5, note=51, velocity=64, time=2),
    Message('note_off', channel=5, note=39, velocity=64, time=3),
    Message('note_on', channel=5, note=41, velocity=110, time=15),
    Message('note_on', channel=5, note=53, velocity=113, time=1),
    Message('note_on', channel=5, note=54, velocity=102, time=10),
    Message('note_on', channel=5, note=42, velocity=104, time=3),
    Message('note_off', channel=5, note=53, velocity=64, time=0),
    Message('note_off', channel=5, note=41, velocity=64, time=3),
    Message('note_off', channel=5, note=54, velocity=64, time=12),
    Message('note_off', channel=5, note=42, velocity=64, time=1),
    Message('note_on', channel=5, note=41, velocity=107, time=21),
    Message('note_on', channel=5, note=53, velocity=110, time=0),
    Message('note_off', channel=5, note=53, velocity=64, time=20),
    Message('note_off', channel=5, note=41, velocity=64, time=1),
    Message('note_on', channel=5, note=39, velocity=107, time=25),
    Message('note_on', channel=5, note=51, velocity=113, time=1),
    Message('note_off', channel=5, note=51, velocity=64, time=39),
    Message('note_on', channel=5, note=37, velocity=100, time=5),
    Message('note_on', channel=5, note=49, velocity=100, time=1),
    Message('note_off', channel=5, note=39, velocity=64, time=1),
    Message('note_off', channel=5, note=49, velocity=64, time=14),
    Message('note_off', channel=5, note=37, velocity=64, time=1),
    Message('note_on', channel=5, note=38, velocity=92, time=9),
    Message('note_on', channel=5, note=50, velocity=96, time=1),
    Message('note_on', channel=5, note=39, velocity=98, time=10),
    Message('note_on', channel=5, note=51, velocity=110, time=0),
    Message('note_off', channel=5, note=38, velocity=64, time=1),
    Message('note_off', channel=5, note=50, velocity=64, time=2),
    Message('note_off', channel=5, note=39, velocity=64, time=12),
    Message('note_off', channel=5, note=51, velocity=64, time=1),
    Message('note_on', channel=5, note=48, velocity=113, time=24),
    Message('note_on', channel=5, note=36, velocity=104, time=2),
    Message('note_on', channel=5, note=37, velocity=89, time=1),
    Message('note_off', channel=5, note=37, velocity=64, time=3),
    Message('note_off', channel=5, note=48, velocity=64, time=16),
    Message('note_off', channel=5, note=36, velocity=64, time=4),
    Message('note_on', channel=5, note=44, velocity=102, time=21),
    Message('note_on', channel=5, note=32, velocity=100, time=0),
    Message('note_off', channel=5, note=44, velocity=64, time=21),
    Message('note_off', channel=5, note=32, velocity=64, time=3),
    Message('note_on', channel=5, note=30, velocity=67, time=25),
    Message('note_on', channel=5, note=42, velocity=64, time=0),
    Message('note_off', channel=5, note=30, velocity=64, time=16),
    Message('note_off', channel=5, note=42, velocity=64, time=4),
    Message('note_on', channel=5, note=44, velocity=110, time=3),
    Message('note_on', channel=5, note=32, velocity=102, time=0),
    Message('note_off', channel=5, note=44, velocity=64, time=29),
    Message('note_off', channel=5, note=32, velocity=64, time=6),
    Message('note_on', channel=5, note=44, velocity=119, time=203),
    Message('note_on', channel=5, note=32, velocity=100, time=1),
    Message('note_off', channel=5, note=44, velocity=64, time=36),
    Message('note_off', channel=5, note=32, velocity=64, time=6),
    Message('note_on', channel=5, note=62, velocity=126, time=172),
    Message('note_on', channel=5, note=68, velocity=109, time=2),
    Message('note_on', channel=5, note=54, velocity=108, time=0),
    Message('note_off', channel=5, note=62, velocity=64, time=15),
    Message('note_on', channel=5, note=63, velocity=75, time=5),
    Message('note_off', channel=5, note=54, velocity=64, time=11),
    Message('note_on', channel=5, note=61, velocity=87, time=14),
    Message('note_off', channel=5, note=63, velocity=64, time=22),
    Message('note_off', channel=5, note=68, velocity=64, time=0),
    Message('note_on', channel=5, note=53, velocity=102, time=2),
    Message('note_off', channel=5, note=61, velocity=64, time=4),
    Message('note_on', channel=5, note=44, velocity=87, time=23),
    Message('note_off', channel=5, note=44, velocity=64, time=4),
    Message('note_off', channel=5, note=53, velocity=64, time=11),
    Message('note_on', channel=5, note=44, velocity=102, time=7),
    Message('note_off', channel=5, note=44, velocity=64, time=3),
    Message('note_on', channel=5, note=32, velocity=96, time=20),
    Message('note_on', channel=5, note=44, velocity=102, time=0),
    Message('note_off', channel=5, note=44, velocity=64, time=54),
    Message('note_off', channel=5, note=32, velocity=64, time=4),
    Message('note_on', channel=5, note=36, velocity=104, time=12),
    Message('note_on', channel=5, note=48, velocity=113, time=2),
    Message('note_off', channel=5, note=48, velocity=64, time=28),
    Message('note_off', channel=5, note=36, velocity=64, time=3),
    Message('note_on', channel=5, note=39, velocity=119, time=21),
    Message('note_on', channel=5, note=51, velocity=113, time=0),
    Message('note_off', channel=5, note=51, velocity=64, time=27),
    Message('note_off', channel=5, note=39, velocity=64, time=3),
    Message('note_on', channel=5, note=37, velocity=80, time=230),
    Message('note_off', channel=5, note=37, velocity=64, time=13),
    Message('note_on', channel=5, note=32, velocity=83, time=10),
    Message('note_on', channel=5, note=44, velocity=90, time=2),
    Message('note_off', channel=5, note=44, velocity=64, time=29),
    Message('note_off', channel=5, note=32, velocity=64, time=0),
    Message('note_on', channel=5, note=48, velocity=107, time=18),
    Message('note_on', channel=5, note=36, velocity=96, time=0),
    Message('note_off', channel=5, note=48, velocity=64, time=26),
    Message('note_off', channel=5, note=36, velocity=64, time=3),
    Message('note_on', channel=5, note=51, velocity=113, time=2),
    Message('note_on', channel=5, note=39, velocity=104, time=0),
    Message('note_off', channel=5, note=51, velocity=64, time=28),
    Message('note_off', channel=5, note=39, velocity=64, time=4),
    Message('note_on', channel=5, note=53, velocity=110, time=13),
    Message('note_on', channel=5, note=41, velocity=110, time=0),
    Message('note_off', channel=5, note=41, velocity=64, time=21),
    Message('note_off', channel=5, note=53, velocity=64, time=1),
    Message('note_on', channel=5, note=51, velocity=102, time=15),
    Message('note_off', channel=5, note=51, velocity=64, time=3),
    Message('note_on', channel=5, note=41, velocity=102, time=29),
    Message('note_on', channel=5, note=53, velocity=110, time=1),
    Message('note_on', channel=5, note=42, velocity=102, time=7),
    Message('note_on', channel=5, note=54, velocity=104, time=4),
    Message('note_off', channel=5, note=41, velocity=64, time=5),
    Message('note_off', channel=5, note=53, velocity=64, time=0),
    Message('note_off', channel=5, note=42, velocity=64, time=8),
    Message('note_off', channel=5, note=54, velocity=64, time=2),
    Message('note_on', channel=5, note=53, velocity=113, time=23),
    Message('note_on', channel=5, note=41, velocity=104, time=0),
    Message('note_off', channel=5, note=53, velocity=64, time=21),
    Message('note_off', channel=5, note=41, velocity=64, time=0),
    Message('note_on', channel=5, note=39, velocity=104, time=30),
    Message('note_on', channel=5, note=51, velocity=119, time=0),
    Message('note_on', channel=5, note=53, velocity=98, time=0),
    Message('note_on', channel=5, note=38, velocity=56, time=3),
    Message('note_off', channel=5, note=53, velocity=64, time=0),
    Message('note_off', channel=5, note=38, velocity=64, time=3),
    Message('note_off', channel=5, note=51, velocity=64, time=32),
    Message('note_off', channel=5, note=39, velocity=64, time=4),
    Message('note_on', channel=5, note=37, velocity=90, time=1),
    Message('note_on', channel=5, note=49, velocity=83, time=0),
    Message('note_off', channel=5, note=49, velocity=64, time=3),
    Message('note_off', channel=5, note=37, velocity=64, time=3),
    Message('note_on', channel=5, note=51, velocity=110, time=22),
    Message('note_on', channel=5, note=39, velocity=104, time=1),
    Message('note_off', channel=5, note=51, velocity=64, time=23),
    Message('note_off', channel=5, note=39, velocity=64, time=4),
    Message('note_on', channel=5, note=36, velocity=113, time=19),
    Message('note_on', channel=5, note=48, velocity=119, time=1),
    Message('note_off', channel=5, note=36, velocity=64, time=25),
    Message('note_off', channel=5, note=48, velocity=64, time=1),
    Message('note_on', channel=5, note=44, velocity=104, time=19),
    Message('note_on', channel=5, note=32, velocity=104, time=2),
    Message('note_off', channel=5, note=44, velocity=64, time=21),
    Message('note_off', channel=5, note=32, velocity=64, time=5),
    Message('note_on', channel=5, note=30, velocity=87, time=18),
    Message('note_on', channel=5, note=42, velocity=85, time=0),
    Message('note_off', channel=5, note=30, velocity=64, time=13),
    Message('note_off', channel=5, note=42, velocity=64, time=2),
    Message('note_on', channel=5, note=32, velocity=107, time=9),
    Message('note_on', channel=5, note=44, velocity=113, time=0),
    Message('note_off', channel=5, note=44, velocity=64, time=34),
    Message('note_off', channel=5, note=32, velocity=64, time=3),
    Message('note_on', channel=5, note=59, velocity=99, time=108),
    Message('note_off', channel=5, note=59, velocity=64, time=31),
    Message('note_on', channel=5, note=61, velocity=99, time=1),
    Message('note_off', channel=5, note=61, velocity=64, time=32),
    Message('note_on', channel=5, note=63, velocity=104, time=0),
    Message('note_on', channel=5, note=41, velocity=92, time=32),
    Message('note_on', channel=5, note=57, velocity=85, time=0),
    Message('note_on', channel=5, note=65, velocity=102, time=0),
    Message('note_on', channel=5, note=61, velocity=93, time=0),
    Message('note_on', channel=5, note=51, velocity=87, time=1),
    Message('note_on', channel=5, note=68, velocity=110, time=0),
    Message('note_off', channel=5, note=63, velocity=64, time=4),
    Message('note_off', channel=5, note=41, velocity=64, time=136),
    Message('note_off', channel=5, note=61, velocity=64, time=1),
    Message('note_off', channel=5, note=51, velocity=64, time=5),
    Message('note_off', channel=5, note=68, velocity=64, time=4),
    Message('note_off', channel=5, note=57, velocity=64, time=0),
    Message('note_off', channel=5, note=65, velocity=64, time=6),
    Message('note_on', channel=5, note=40, velocity=95, time=11),
    Message('note_on', channel=5, note=54, velocity=85, time=0),
    Message('note_on', channel=5, note=59, velocity=85, time=0),
    Message('note_on', channel=5, note=63, velocity=96, time=0),
    Message('note_off', channel=5, note=63, velocity=64, time=171),
    Message('note_off', channel=5, note=54, velocity=64, time=1),
    Message('note_off', channel=5, note=59, velocity=64, time=1),
    Message('note_off', channel=5, note=40, velocity=64, time=11),
    Message('note_on', channel=5, note=59, velocity=79, time=7),
    Message('note_on', channel=5, note=66, velocity=96, time=0),
    Message('note_on', channel=5, note=45, velocity=97, time=1),
    Message('note_on', channel=5, note=55, velocity=92, time=0),
    Message('note_on', channel=5, note=61, velocity=78, time=0),
    Message('note_on', channel=5, note=63, velocity=95, time=0),
    Message('note_off', channel=5, note=55, velocity=64, time=397),
    Message('note_off', channel=5, note=59, velocity=64, time=3),
    Message('note_off', channel=5, note=61, velocity=64, time=1),
    Message('note_off', channel=5, note=66, velocity=64, time=3),
    Message('note_off', channel=5, note=63, velocity=64, time=1),
    Message('note_off', channel=5, note=45, velocity=64, time=1),
    Message('note_on', channel=5, note=32, velocity=113, time=745),
    Message('note_on', channel=5, note=44, velocity=110, time=1),
    Message('note_off', channel=5, note=44, velocity=64, time=0),
    Message('note_on', channel=5, note=44, velocity=110, time=0),
    Message('note_off', channel=5, note=32, velocity=64, time=67),
    Message('note_off', channel=5, note=44, velocity=64, time=1),
    Message('note_on', channel=5, note=32, velocity=98, time=317),
    Message('note_on', channel=5, note=44, velocity=113, time=0),
    Message('note_off', channel=5, note=44, velocity=64, time=47),
    Message('note_off', channel=5, note=32, velocity=64, time=6),
    Message('note_on', channel=5, note=36, velocity=104, time=14),
    Message('note_on', channel=5, note=48, velocity=119, time=1),
    Message('note_off', channel=5, note=48, velocity=64, time=23),
    Message('note_off', channel=5, note=36, velocity=64, time=5),
    Message('note_on', channel=5, note=39, velocity=119, time=24),
    Message('note_on', channel=5, note=51, velocity=110, time=0),
    Message('note_off', channel=5, note=51, velocity=64, time=26),
    Message('note_off', channel=5, note=39, velocity=64, time=7),
    Message('note_on', channel=5, note=32, velocity=102, time=255),
    Message('note_on', channel=5, note=44, velocity=110, time=1),
    Message('note_off', channel=5, note=44, velocity=64, time=27),
    Message('note_off', channel=5, note=32, velocity=64, time=2),
    Message('note_on', channel=5, note=36, velocity=87, time=19),
    Message('note_on', channel=5, note=48, velocity=82, time=0),
    Message('note_off', channel=5, note=48, velocity=64, time=25),
    Message('note_on', channel=5, note=39, velocity=107, time=4),
    Message('note_on', channel=5, note=51, velocity=95, time=0),
    Message('note_off', channel=5, note=36, velocity=64, time=3),
    Message('note_off', channel=5, note=51, velocity=64, time=22),
    Message('note_off', channel=5, note=39, velocity=64, time=0),
    Message('note_on', channel=5, note=53, velocity=119, time=17),
    Message('note_on', channel=5, note=41, velocity=119, time=1),
    Message('note_off', channel=5, note=53, velocity=64, time=23),
    Message('note_off', channel=5, note=41, velocity=64, time=1),
    Message('note_on', channel=5, note=39, velocity=92, time=19),
    Message('note_on', channel=5, note=51, velocity=104, time=5),
    Message('note_off', channel=5, note=51, velocity=64, time=1),
    Message('note_off', channel=5, note=39, velocity=64, time=3),
    Message('note_on', channel=5, note=41, velocity=110, time=14),
    Message('note_on', channel=5, note=53, velocity=119, time=3),
    Message('note_on', channel=5, note=54, velocity=100, time=10),
    Message('note_on', channel=5, note=42, velocity=104, time=0),
    Message('note_off', channel=5, note=41, velocity=64, time=3),
    Message('note_off', channel=5, note=53, velocity=64, time=0),
    Message('note_off', channel=5, note=42, velocity=64, time=13),
    Message('note_off', channel=5, note=54, velocity=64, time=1),
    Message('note_on', channel=5, note=41, velocity=104, time=20),
    Message('note_on', channel=5, note=53, velocity=107, time=2),
    Message('note_off', channel=5, note=53, velocity=64, time=19),
    Message('note_off', channel=5, note=41, velocity=64, time=1),
    Message('note_on', channel=5, note=51, velocity=110, time=28),
    Message('note_on', channel=5, note=39, velocity=127, time=2),
    Message('note_off', channel=5, note=51, velocity=64, time=34),
    Message('note_off', channel=5, note=39, velocity=64, time=2),
    Message('note_on', channel=5, note=49, velocity=93, time=8),
    Message('note_off', channel=5, note=49, velocity=64, time=4),
    Message('note_on', channel=5, note=48, velocity=102, time=23),
    Message('note_on', channel=5, note=36, velocity=110, time=2),
    Message('note_off', channel=5, note=48, velocity=64, time=16),
    Message('note_off', channel=5, note=36, velocity=64, time=0),
    Message('note_on', channel=5, note=38, velocity=107, time=32),
    Message('note_on', channel=5, note=50, velocity=119, time=0),
    Message('note_on', channel=5, note=39, velocity=104, time=5),
    Message('note_off', channel=5, note=50, velocity=64, time=2),
    Message('note_on', channel=5, note=51, velocity=100, time=1),
    Message('note_off', channel=5, note=38, velocity=64, time=3),
    Message('note_off', channel=5, note=39, velocity=64, time=10),
    Message('note_off', channel=5, note=51, velocity=64, time=1),
    Message('note_on', channel=5, note=41, velocity=110, time=26),
    Message('note_on', channel=5, note=53, velocity=119, time=1),
    Message('note_off', channel=5, note=53, velocity=64, time=18),
    Message('note_off', channel=5, note=41, velocity=64, time=1),
    Message('note_on', channel=5, note=39, velocity=68, time=28),
    Message('note_on', channel=5, note=51, velocity=61, time=1),
    Message('note_off', channel=5, note=39, velocity=64, time=13),
    Message('note_off', channel=5, note=51, velocity=64, time=2),
    Message('control_change', channel=5, control=11, value=65, time=4),
    Message('control_change', channel=5, control=11, value=90, time=0),
    Message('control_change', channel=5, control=64, value=0, time=18),
    Message('control_change', channel=5, control=64, value=0, time=0),
    Message('note_on', channel=5, note=62, velocity=96, time=62),
    Message('note_on', channel=5, note=57, velocity=99, time=2),
    Message('note_on', channel=5, note=35, velocity=98, time=0),
    Message('note_on', channel=5, note=68, velocity=96, time=0),
    Message('note_on', channel=5, note=47, velocity=92, time=0),
    Message('note_off', channel=5, note=57, velocity=64, time=21),
    Message('note_off', channel=5, note=62, velocity=64, time=3),
    Message('note_off', channel=5, note=68, velocity=64, time=0),
    Message('note_off', channel=5, note=35, velocity=64, time=2),
    Message('note_off', channel=5, note=47, velocity=64, time=1),
    Message('note_on', channel=5, note=48, velocity=96, time=64),
    Message('note_on', channel=5, note=36, velocity=92, time=0),
    Message('note_on', channel=5, note=63, velocity=104, time=0),
    Message('note_on', channel=5, note=58, velocity=96, time=1),
    Message('note_on', channel=5, note=68, velocity=98, time=0),
    Message('note_off', channel=5, note=36, velocity=64, time=23),
    Message('note_off', channel=5, note=68, velocity=64, time=2),
    Message('note_off', channel=5, note=48, velocity=64, time=1),
    Message('note_off', channel=5, note=63, velocity=64, time=0),
    Message('note_off', channel=5, note=58, velocity=64, time=0),
    Message('note_on', channel=5, note=37, velocity=98, time=64),
    Message('note_on', channel=5, note=49, velocity=89, time=0),
    Message('note_on', channel=5, note=64, velocity=104, time=0),
    Message('note_on', channel=5, note=68, velocity=104, time=0),
    Message('note_on', channel=5, note=59, velocity=98, time=1),
    Message('note_off', channel=5, note=37, velocity=64, time=25),
    Message('note_off', channel=5, note=59, velocity=64, time=2),
    Message('note_off', channel=5, note=64, velocity=64, time=0),
    Message('note_off', channel=5, note=49, velocity=64, time=0),
    Message('note_off', channel=5, note=68, velocity=64, time=2),
    Message('note_on', channel=5, note=70, velocity=99, time=71),
    Message('note_on', channel=5, note=61, velocity=102, time=0),
    Message('note_on', channel=5, note=60, velocity=95, time=0),
    Message('note_on', channel=5, note=65, velocity=100, time=0),
    Message('control_change', channel=5, control=64, value=0, time=4),
    Message('control_change', channel=5, control=64, value=127, time=0),
    Message('note_off', channel=5, note=60, velocity=64, time=80),
    Message('note_off', channel=5, note=65, velocity=64, time=2),
    Message('note_off', channel=5, note=61, velocity=64, time=1),
    Message('note_off', channel=5, note=70, velocity=64, time=5),
    Message('note_on', channel=5, note=27, velocity=44, time=603),
    Message('note_off', channel=5, note=27, velocity=64, time=818),
    Message('control_change', channel=5, control=64, value=127, time=41),
    Message('control_change', channel=5, control=64, value=0, time=0),
    Message('control_change', channel=5, control=64, value=0, time=757),
    Message('control_change', channel=5, control=64, value=0, time=0),
    Message('note_on', channel=5, note=26, velocity=90, time=12),
    Message('note_off', channel=5, note=26, velocity=64, time=27),
    Message('note_on', channel=5, note=30, velocity=81, time=70),
    Message('note_off', channel=5, note=30, velocity=64, time=28),
    Message('note_on', channel=5, note=33, velocity=87, time=68),
    Message('note_off', channel=5, note=33, velocity=64, time=32),
    Message('control_change', channel=5, control=64, value=0, time=620),
    Message('control_change', channel=5, control=64, value=0, time=0),
    Message('control_change', channel=5, control=11, value=90, time=14),
    Message('control_change', channel=5, control=11, value=56, time=0),
    Message('note_on', channel=5, note=76, velocity=110, time=7),
    Message('note_on', channel=5, note=29, velocity=104, time=1),
    Message('note_on', channel=5, note=78, velocity=89, time=8),
    Message('note_on', channel=5, note=30, velocity=107, time=0),
    Message('note_off', channel=5, note=76, velocity=64, time=4),
    Message('note_off', channel=5, note=29, velocity=64, time=1),
    Message('note_off', channel=5, note=78, velocity=64, time=18),
    Message('note_off', channel=5, note=30, velocity=64, time=3),
    Message('note_on', channel=5, note=33, velocity=102, time=63),
    Message('note_on', channel=5, note=81, velocity=109, time=1),
    Message('note_on', channel=5, note=69, velocity=87, time=1),
    Message('note_off', channel=5, note=69, velocity=64, time=27),
    Message('note_off', channel=5, note=33, velocity=64, time=3),
    Message('note_off', channel=5, note=81, velocity=64, time=0),
    Message('control_change', channel=5, control=11, value=56, time=16),
    Message('control_change', channel=5, control=11, value=127, time=0),
    Message('note_on', channel=5, note=61, velocity=51, time=12650),
    Message('note_on', channel=5, note=66, velocity=45, time=0),
    Message('note_on', channel=5, note=76, velocity=60, time=0),
    Message('note_on', channel=5, note=80, velocity=51, time=0),
    Message('note_on', channel=5, note=71, velocity=58, time=1),
    Message('note_off', channel=5, note=76, velocity=64, time=7),
    Message('note_off', channel=5, note=61, velocity=64, time=0),
    Message('control_change', channel=5, control=64, value=0, time=1),
    Message('control_change', channel=5, control=64, value=127, time=0),
    Message('note_off', channel=5, note=71, velocity=64, time=1),
    Message('note_off', channel=5, note=66, velocity=64, time=1),
    Message('note_off', channel=5, note=80, velocity=64, time=1),
    Message('note_on', channel=5, note=64, velocity=50, time=85),
    Message('note_on', channel=5, note=78, velocity=31, time=1),
    Message('note_on', channel=5, note=59, velocity=45, time=0),
    Message('note_on', channel=5, note=74, velocity=43, time=0),
    Message('note_on', channel=5, note=69, velocity=40, time=0),
    Message('control_change', channel=5, control=64, value=127, time=2),
    Message('control_change', channel=5, control=64, value=99, time=0),
    Message('control_change', channel=5, control=64, value=82, time=1),
    Message('control_change', channel=5, control=64, value=0, time=2),
    Message('control_change', channel=5, control=64, value=0, time=55),
    Message('control_change', channel=5, control=64, value=127, time=0),
    Message('note_off', channel=5, note=78, velocity=64, time=24),
    Message('note_off', channel=5, note=59, velocity=64, time=0),
    Message('note_off', channel=5, note=74, velocity=64, time=2),
    Message('note_off', channel=5, note=64, velocity=64, time=0),
    Message('note_off', channel=5, note=69, velocity=64, time=2),
    Message('control_change', channel=5, control=64, value=127, time=95),
    Message('control_change', channel=5, control=64, value=51, time=0),
    Message('control_change', channel=5, control=64, value=0, time=2),
    Message('control_change', channel=5, control=64, value=0, time=1),
    Message('control_change', channel=5, control=64, value=0, time=99),
    Message('control_change', channel=5, control=64, value=73, time=0),
    Message('note_on', channel=5, note=61, velocity=44, time=1),
    Message('note_on', channel=5, note=66, velocity=43, time=0),
    Message('note_on', channel=5, note=76, velocity=55, time=0),
    Message('note_on', channel=5, note=56, velocity=39, time=1),
    Message('note_on', channel=5, note=71, velocity=50, time=0),
    Message('control_change', channel=5, control=64, value=127, time=1),
    Message('note_off', channel=5, note=71, velocity=64, time=11),
    Message('note_off', channel=5, note=66, velocity=64, time=3),
    Message('note_off', channel=5, note=61, velocity=64, time=1),
    Message('note_off', channel=5, note=56, velocity=64, time=1),
    Message('note_off', channel=5, note=76, velocity=64, time=0),
    Message('note_on', channel=5, note=59, velocity=39, time=78),
    Message('note_on', channel=5, note=69, velocity=48, time=0),
    Message('note_on', channel=5, note=64, velocity=44, time=0),
    Message('note_on', channel=5, note=74, velocity=48, time=0),
    Message('note_on', channel=5, note=54, velocity=25, time=1),
    Message('control_change', channel=5, control=64, value=127, time=0),
    Message('control_change', channel=5, control=64, value=0, time=0),
    Message('control_change', channel=5, control=64, value=0, time=51),
    Message('control_change', channel=5, control=64, value=127, time=0),
    Message('note_off', channel=5, note=74, velocity=64, time=34),
    Message('note_off', channel=5, note=69, velocity=64, time=2),
    Message('note_off', channel=5, note=64, velocity=64, time=2),
    Message('note_off', channel=5, note=54, velocity=64, time=3),
    Message('note_off', channel=5, note=59, velocity=64, time=2),
    Message('control_change', channel=5, control=64, value=127, time=88),
    Message('control_change', channel=5, control=64, value=0, time=0),
    Message('control_change', channel=5, control=64, value=0, time=0),
    Message('control_change', channel=5, control=64, value=0, time=85),
    Message('control_change', channel=5, control=64, value=127, time=0),
    Message('note_on', channel=5, note=73, velocity=55, time=18),
    Message('note_on', channel=5, note=59, velocity=55, time=0),
    Message('note_on', channel=5, note=69, velocity=58, time=0),
    Message('note_on', channel=5, note=54, velocity=41, time=1),
    Message('note_on', channel=5, note=64, velocity=64, time=0),
    Message('note_off', channel=5, note=73, velocity=64, time=14),
    Message('note_off', channel=5, note=54, velocity=64, time=1),
    Message('note_off', channel=5, note=69, velocity=64, time=0),
    Message('note_off', channel=5, note=59, velocity=64, time=4),
    Message('note_off', channel=5, note=64, velocity=64, time=0),
    Message('control_change', channel=5, control=64, value=127, time=76),
    Message('control_change', channel=5, control=64, value=43, time=0),
    Message('note_on', channel=5, note=67, velocity=70, time=1),
    Message('note_on', channel=5, note=52, velocity=50, time=0),
    Message('note_on', channel=5, note=57, velocity=48, time=1),
    Message('control_change', channel=5, control=64, value=0, time=0),
    Message('note_on', channel=5, note=71, velocity=59, time=1),
    Message('note_on', channel=5, note=62, velocity=58, time=2),
    Message('note_off', channel=5, note=71, velocity=64, time=40),
    Message('note_off', channel=5, note=67, velocity=64, time=20),
    Message('note_on', channel=5, note=69, velocity=77, time=3),
    Message('note_off', channel=5, note=69, velocity=64, time=24),
    Message('note_on', channel=5, note=67, velocity=59, time=13),
    Message('note_off', channel=5, note=67, velocity=64, time=24),
    Message('note_on', channel=5, note=69, velocity=87, time=13),
    Message('note_on', channel=5, note=71, velocity=82, time=8),
    Message('note_off', channel=5, note=69, velocity=64, time=4),
    Message('note_off', channel=5, note=71, velocity=64, time=17),
    Message('note_on', channel=5, note=69, velocity=64, time=9),
    Message('note_off', channel=5, note=57, velocity=64, time=6),
    Message('note_off', channel=5, note=62, velocity=64, time=6),
    Message('note_off', channel=5, note=69, velocity=64, time=23),
    Message('note_on', channel=5, note=64, velocity=50, time=7),
    Message('note_off', channel=5, note=64, velocity=64, time=24),
    Message('note_on', channel=5, note=66, velocity=99, time=1),
    Message('note_off', channel=5, note=66, velocity=64, time=17),
    Message('note_on', channel=5, note=64, velocity=87, time=12),
    Message('note_off', channel=5, note=64, velocity=64, time=20),
    Message('note_off', channel=5, note=52, velocity=64, time=5),
    Message('note_on', channel=5, note=59, velocity=55, time=2),
    Message('note_on', channel=5, note=61, velocity=52, time=5),
    Message('note_off', channel=5, note=59, velocity=64, time=10),
    Message('note_off', channel=5, note=61, velocity=64, time=19),
    Message('note_on', channel=5, note=57, velocity=52, time=6),
    Message('note_on', channel=5, note=59, velocity=100, time=30),
    Message('note_off', channel=5, note=57, velocity=64, time=7),
    Message('note_off', channel=5, note=59, velocity=64, time=29),
    Message('note_on', channel=5, note=60, velocity=73, time=5),
    Message('note_on', channel=5, note=59, velocity=65, time=13),
    Message('note_off', channel=5, note=60, velocity=64, time=4),
    Message('note_on', channel=5, note=57, velocity=59, time=9),
    Message('note_off', channel=5, note=59, velocity=64, time=2),
    Message('note_off', channel=5, note=57, velocity=64, time=26),
    Message('note_on', channel=5, note=59, velocity=96, time=0),
    Message('note_off', channel=5, note=59, velocity=64, time=17),
    Message('note_on', channel=5, note=54, velocity=45, time=4),
    Message('note_off', channel=5, note=54, velocity=64, time=25),
    Message('note_on', channel=5, note=57, velocity=74, time=1),
    Message('note_off', channel=5, note=57, velocity=64, time=17),
    Message('note_on', channel=5, note=52, velocity=46, time=3),
    Message('note_off', channel=5, note=52, velocity=64, time=31),
    Message('note_on', channel=5, note=54, velocity=69, time=15),
    Message('note_off', channel=5, note=54, velocity=64, time=21),
    Message('note_on', channel=5, note=54, velocity=75, time=24),
    Message('note_off', channel=5, note=54, velocity=64, time=19),
    Message('note_on', channel=5, note=54, velocity=92, time=7),
    Message('note_off', channel=5, note=54, velocity=64, time=18),
    Message('note_on', channel=5, note=57, velocity=100, time=6),
    Message('note_on', channel=5, note=58, velocity=73, time=11),
    Message('note_off', channel=5, note=57, velocity=64, time=6),
    Message('note_off', channel=5, note=58, velocity=64, time=18),
    Message('note_on', channel=5, note=61, velocity=92, time=14),
    Message('note_off', channel=5, note=61, velocity=64, time=21),
    Message('note_on', channel=5, note=54, velocity=66, time=7),
    Message('note_off', channel=5, note=54, velocity=64, time=12),
    Message('note_on', channel=5, note=63, velocity=75, time=7),
    Message('note_off', channel=5, note=63, velocity=64, time=29),
    Message('note_on', channel=5, note=66, velocity=92, time=3),
    Message('note_on', channel=5, note=54, velocity=85, time=0),
    Message('note_off', channel=5, note=54, velocity=64, time=0),
    Message('note_on', channel=5, note=54, velocity=85, time=0),
    Message('note_off', channel=5, note=54, velocity=64, time=19),
    Message('note_off', channel=5, note=66, velocity=64, time=2),
    Message('note_on', channel=5, note=66, velocity=74, time=5),
    Message('note_off', channel=5, note=66, velocity=64, time=24),
    Message('note_on', channel=5, note=63, velocity=64, time=2),
    Message('note_off', channel=5, note=63, velocity=64, time=29),
    Message('note_on', channel=5, note=54, velocity=42, time=2),
    Message('note_on', channel=5, note=66, velocity=73, time=0),
    Message('note_off', channel=5, note=54, velocity=64, time=25),
    Message('note_off', channel=5, note=66, velocity=64, time=4),
    Message('note_on', channel=5, note=69, velocity=65, time=171),
    Message('note_on', channel=5, note=33, velocity=68, time=2),
    Message('note_on', channel=5, note=34, velocity=69, time=6),
    Message('note_on', channel=5, note=70, velocity=55, time=1),
    Message('note_off', channel=5, note=69, velocity=64, time=1),
    Message('note_off', channel=5, note=33, velocity=64, time=3),
    Message('note_off', channel=5, note=70, velocity=64, time=12),
    Message('note_on', channel=5, note=71, velocity=98, time=3),
    Message('note_off', channel=5, note=34, velocity=64, time=1),
    Message('note_on', channel=5, note=35, velocity=100, time=0),
    Message('note_off', channel=5, note=35, velocity=64, time=15),
    Message('note_off', channel=5, note=71, velocity=64, time=2),
    Message('note_on', channel=5, note=36, velocity=107, time=5),
    Message('note_on', channel=5, note=72, velocity=107, time=1),
    Message('note_off', channel=5, note=72, velocity=64, time=16),
    Message('note_on', channel=5, note=37, velocity=113, time=6),
    Message('note_off', channel=5, note=36, velocity=64, time=1),
    Message('note_on', channel=5, note=73, velocity=107, time=0),
    Message('note_off', channel=5, note=73, velocity=64, time=18),
    Message('note_on', channel=5, note=39, velocity=119, time=6),
    Message('note_on', channel=5, note=75, velocity=107, time=1),
    Message('note_off', channel=5, note=37, velocity=64, time=3),
    Message('note_off', channel=5, note=75, velocity=64, time=10),
    Message('note_off', channel=5, note=39, velocity=64, time=2),
    Message('note_on', channel=5, note=78, velocity=99, time=8),
    Message('note_on', channel=5, note=42, velocity=119, time=0),
    Message('note_off', channel=5, note=78, velocity=64, time=12),
    Message('note_off', channel=5, note=42, velocity=64, time=5),
    Message('note_on', channel=5, note=37, velocity=75, time=12),
    Message('note_off', channel=5, note=37, velocity=64, time=12),
    Message('note_on', channel=5, note=46, velocity=113, time=13),
    Message('note_on', channel=5, note=82, velocity=113, time=0),
    Message('note_on', channel=5, note=83, velocity=100, time=6),
    Message('note_on', channel=5, note=47, velocity=110, time=0),
    Message('note_off', channel=5, note=82, velocity=64, time=6),
    Message('note_off', channel=5, note=46, velocity=64, time=0),
    Message('note_off', channel=5, note=47, velocity=64, time=14),
    Message('note_on', channel=5, note=82, velocity=102, time=3),
    Message('note_off', channel=5, note=83, velocity=64, time=2),
    Message('note_on', channel=5, note=46, velocity=113, time=0),
    Message('note_off', channel=5, note=82, velocity=64, time=15),
    Message('note_on', channel=5, note=42, velocity=102, time=4),
    Message('note_on', channel=5, note=78, velocity=69, time=3),
    Message('note_off', channel=5, note=46, velocity=64, time=0),
    Message('note_off', channel=5, note=78, velocity=64, time=16),
    Message('note_off', channel=5, note=42, velocity=64, time=4),
    Message('note_on', channel=5, note=73, velocity=79, time=7),
    Message('note_on', channel=5, note=37, velocity=73, time=2),
    Message('note_off', channel=5, note=37, velocity=64, time=3),
    Message('note_off', channel=5, note=73, velocity=64, time=2),
    Message('note_on', channel=5, note=85, velocity=90, time=10),
    Message('note_on', channel=5, note=81, velocity=93, time=0),
    Message('note_off', channel=5, note=81, velocity=64, time=18),
    Message('note_on', channel=5, note=82, velocity=54, time=1),
    Message('note_off', channel=5, note=85, velocity=64, time=15),
    Message('note_off', channel=5, note=82, velocity=64, time=2),
    Message('note_on', channel=5, note=85, velocity=71, time=9),
    Message('note_on', channel=5, note=81, velocity=85, time=0),
    Message('note_on', channel=5, note=82, velocity=40, time=14),
    Message('note_off', channel=5, note=81, velocity=64, time=0),
    Message('note_off', channel=5, note=82, velocity=64, time=30),
    Message('note_off', channel=5, note=85, velocity=64, time=53),
    Message('note_on', channel=5, note=78, velocity=96, time=0),
    Message('note_off', channel=5, note=78, velocity=64, time=5),
    Message('note_on', channel=5, note=78, velocity=29, time=27),
    Message('note_off', channel=5, note=78, velocity=64, time=11),
    Message('note_on', channel=5, note=73, velocity=66, time=3),
    Message('note_off', channel=5, note=73, velocity=64, time=21),
    Message('note_on', channel=5, note=71, velocity=75, time=9),
    Message('note_off', channel=5, note=71, velocity=64, time=17),
    Message('note_on', channel=5, note=69, velocity=55, time=11),
    Message('note_off', channel=5, note=69, velocity=64, time=12),
    Message('note_on', channel=5, note=37, velocity=85, time=6),
    Message('note_off', channel=5, note=37, velocity=64, time=6),
    Message('note_on', channel=5, note=69, velocity=95, time=6),
    Message('note_on', channel=5, note=73, velocity=92, time=0),
    Message('note_on', channel=5, note=70, velocity=66, time=1),
    Message('note_off', channel=5, note=70, velocity=64, time=6),
    Message('note_on', channel=5, note=70, velocity=68, time=7),
    Message('note_off', channel=5, note=69, velocity=64, time=1),
    Message('note_off', channel=5, note=73, velocity=64, time=3),
    Message('note_off', channel=5, note=70, velocity=64, time=12),
    Message('note_on', channel=5, note=66, velocity=43, time=5),
    Message('note_off', channel=5, note=66, velocity=64, time=14),
    Message('note_on', channel=5, note=30, velocity=48, time=32),
    Message('note_on', channel=5, note=42, velocity=60, time=3),
    Message('note_on', channel=5, note=62, velocity=58, time=1),
    Message('note_off', channel=5, note=42, velocity=64, time=5),
    Message('note_off', channel=5, note=30, velocity=64, time=1),
    Message('note_off', channel=5, note=62, velocity=64, time=0),
    Message('note_on', channel=5, note=66, velocity=54, time=11),
    Message('note_off', channel=5, note=66, velocity=64, time=109),
    Message('note_on', channel=5, note=66, velocity=92, time=31),
    Message('note_off', channel=5, note=66, velocity=64, time=17),
    Message('note_on', channel=5, note=64, velocity=93, time=10),
    Message('control_change', channel=5, control=64, value=0, time=2),
    Message('control_change', channel=5, control=64, value=0, time=0),
    Message('note_off', channel=5, note=64, velocity=64, time=14),
    Message('note_on', channel=5, note=62, velocity=87, time=9),
    Message('note_on', channel=5, note=64, velocity=80, time=13),
    Message('note_off', channel=5, note=62, velocity=64, time=1),
    Message('note_on', channel=5, note=62, velocity=79, time=11),
    Message('note_off', channel=5, note=64, velocity=64, time=5),
    Message('note_on', channel=5, note=59, velocity=80, time=11),
    Message('note_off', channel=5, note=62, velocity=64, time=1),
    Message('note_on', channel=5, note=62, velocity=75, time=36),
    Message('note_off', channel=5, note=59, velocity=64, time=4),
    Message('note_off', channel=5, note=62, velocity=64, time=35),
    Message('note_on', channel=5, note=59, velocity=51, time=5),
    Message('note_off', channel=5, note=59, velocity=64, time=16),
    Message('note_on', channel=5, note=62, velocity=55, time=7),
    Message('note_off', channel=5, note=62, velocity=64, time=18),
    Message('control_change', channel=5, control=64, value=0, time=3),
    Message('control_change', channel=5, control=64, value=0, time=0),
    Message('note_on', channel=5, note=50, velocity=58, time=97),
    Message('note_on', channel=5, note=40, velocity=41, time=0),
    Message('note_on', channel=5, note=59, velocity=107, time=2),
    Message('note_off', channel=5, note=59, velocity=64, time=19),
    Message('note_on', channel=5, note=56, velocity=90, time=7),
    Message('note_off', channel=5, note=56, velocity=64, time=18),
    Message('note_on', channel=5, note=55, velocity=102, time=7),
    Message('note_off', channel=5, note=50, velocity=64, time=15),
    Message('note_off', channel=5, note=55, velocity=64, time=3),
    Message('note_on', channel=5, note=52, velocity=67, time=5),
    Message('note_off', channel=5, note=52, velocity=64, time=24),
    Message('note_on', channel=5, note=48, velocity=56, time=5),
    Message('note_off', channel=5, note=48, velocity=64, time=7),
    Message('note_on', channel=5, note=50, velocity=102, time=11),
    Message('note_off', channel=5, note=50, velocity=64, time=24),
    Message('note_on', channel=5, note=47, velocity=87, time=0),
    Message('note_off', channel=5, note=40, velocity=64, time=6),
    Message('note_off', channel=5, note=47, velocity=64, time=12),
    Message('note_on', channel=5, note=45, velocity=71, time=4),
    Message('note_off', channel=5, note=45, velocity=64, time=19),
    Message('note_on', channel=5, note=35, velocity=49, time=2),
    Message('note_on', channel=5, note=46, velocity=96, time=0),
    Message('note_off', channel=5, note=46, velocity=64, time=14),
    Message('note_off', channel=5, note=35, velocity=64, time=6),
    Message('note_on', channel=5, note=45, velocity=50, time=1),
    Message('note_off', channel=5, note=45, velocity=64, time=23),
    Message('note_on', channel=5, note=43, velocity=85, time=1),
    Message('note_on', channel=5, note=28, velocity=74, time=7),
    Message('note_off', channel=5, note=28, velocity=64, time=7),
    Message('note_off', channel=5, note=43, velocity=64, time=2),
    Message('note_on', channel=5, note=40, velocity=58, time=10),
    Message('note_off', channel=5, note=40, velocity=64, time=10),
    MetaMessage('end_of_track', time=0)]),
  MidiTrack([
    MetaMessage('track_name', name='Mr. Nice :-)', time=0),
    MetaMessage('channel_prefix', channel=6, time=0),
    Message('program_change', channel=6, program=49, time=0),
    Message('control_change', channel=6, control=0, value=0, time=0),
    Message('control_change', channel=6, control=32, value=2, time=0),
    Message('control_change', channel=6, control=7, value=0, time=0),
    Message('control_change', channel=6, control=10, value=64, time=0),
    Message('control_change', channel=6, control=91, value=10, time=0),
    Message('control_change', channel=6, control=93, value=0, time=0),
    Message('control_change', channel=6, control=11, value=127, time=0),
    Message('control_change', channel=6, control=11, value=0, time=0),
    Message('note_on', channel=6, note=37, velocity=93, time=63),
    Message('control_change', channel=6, control=7, value=0, time=182),
    Message('control_change', channel=6, control=7, value=127, time=0),
    Message('control_change', channel=6, control=11, value=0, time=8),
    Message('control_change', channel=6, control=11, value=1, time=0),
    Message('control_change', channel=6, control=11, value=1, time=23),
    Message('control_change', channel=6, control=11, value=3, time=0),
    Message('control_change', channel=6, control=11, value=3, time=25),
    Message('control_change', channel=6, control=11, value=5, time=0),
    Message('control_change', channel=6, control=11, value=5, time=23),
    Message('control_change', channel=6, control=11, value=6, time=0),
    Message('control_change', channel=6, control=11, value=6, time=25),
    Message('control_change', channel=6, control=11, value=8, time=0),
    Message('control_change', channel=6, control=11, value=8, time=23),
    Message('control_change', channel=6, control=11, value=9, time=0),
    Message('control_change', channel=6, control=11, value=9, time=24),
    Message('control_change', channel=6, control=11, value=11, time=0),
    Message('control_change', channel=6, control=10, value=64, time=25),
    Message('control_change', channel=6, control=10, value=127, time=0),
    Message('control_change', channel=6, control=11, value=11, time=0),
    Message('control_change', channel=6, control=11, value=13, time=0),
    Message('control_change', channel=6, control=91, value=10, time=2),
    Message('control_change', channel=6, control=91, value=127, time=0),
    Message('control_change', channel=6, control=11, value=13, time=22),
    Message('control_change', channel=6, control=11, value=14, time=0),
    Message('control_change', channel=6, control=11, value=14, time=24),
    Message('control_change', channel=6, control=11, value=16, time=0),
    Message('control_change', channel=6, control=11, value=16, time=24),
    Message('control_change', channel=6, control=11, value=17, time=0),
    Message('control_change', channel=6, control=10, value=127, time=24),
    Message('control_change', channel=6, control=10, value=125, time=0),
    Message('control_change', channel=6, control=11, value=17, time=0),
    Message('control_change', channel=6, control=11, value=19, time=0),
    Message('control_change', channel=6, control=10, value=125, time=24),
    Message('control_change', channel=6, control=10, value=123, time=0),
    Message('control_change', channel=6, control=11, value=19, time=0),
    Message('control_change', channel=6, control=11, value=21, time=0),
    Message('control_change', channel=6, control=10, value=123, time=24),
    Message('control_change', channel=6, control=10, value=121, time=0),
    Message('control_change', channel=6, control=11, value=21, time=1),
    Message('control_change', channel=6, control=11, value=22, time=0),
    Message('control_change', channel=6, control=10, value=121, time=23),
    Message('control_change', channel=6, control=10, value=119, time=0),
    Message('control_change', channel=6, control=11, value=22, time=0),
    Message('control_change', channel=6, control=11, value=24, time=0),
    Message('note_on', channel=6, note=38, velocity=1, time=5),
    Message('control_change', channel=6, control=10, value=119, time=19),
    Message('control_change', channel=6, control=10, value=117, time=0),
    Message('control_change', channel=6, control=11, value=24, time=0),
    Message('control_change', channel=6, control=11, value=25, time=0),
    Message('control_change', channel=6, control=10, value=117, time=24),
    Message('control_change', channel=6, control=10, value=115, time=0),
    Message('control_change', channel=6, control=11, value=25, time=0),
    Message('control_change', channel=6, control=11, value=27, time=0),
    Message('control_change', channel=6, control=10, value=115, time=24),
    Message('control_change', channel=6, control=10, value=113, time=0),
    Message('control_change', channel=6, control=11, value=27, time=0),
    Message('control_change', channel=6, control=11, value=29, time=0),
    Message('note_on', channel=6, note=39, velocity=1, time=10),
    Message('control_change', channel=6, control=10, value=113, time=14),
    Message('control_change', channel=6, control=10, value=111, time=0),
    Message('control_change', channel=6, control=11, value=29, time=0),
    Message('control_change', channel=6, control=11, value=30, time=0),
    Message('control_change', channel=6, control=10, value=111, time=24),
    Message('control_change', channel=6, control=10, value=109, time=0),
    Message('control_change', channel=6, control=11, value=30, time=0),
    Message('control_change', channel=6, control=11, value=32, time=0),
    Message('control_change', channel=6, control=10, value=109, time=23),
    Message('control_change', channel=6, control=10, value=107, time=0),
    Message('control_change', channel=6, control=11, value=32, time=0),
    Message('control_change', channel=6, control=11, value=33, time=0),
    Message('note_off', channel=6, note=38, velocity=64, time=6),
    Message('control_change', channel=6, control=10, value=107, time=19),
    Message('control_change', channel=6, control=10, value=105, time=0),
    Message('control_change', channel=6, control=11, value=33, time=0),
    Message('control_change', channel=6, control=11, value=35, time=0),
    Message('note_on', channel=6, note=40, velocity=1, time=0),
    Message('note_off', channel=6, note=39, velocity=64, time=1),
    Message('control_change', channel=6, control=10, value=105, time=23),
    Message('control_change', channel=6, control=10, value=103, time=0),
    Message('control_change', channel=6, control=11, value=35, time=0),
    Message('control_change', channel=6, control=11, value=37, time=0),
    Message('note_on', channel=6, note=42, velocity=1, time=5),
    Message('control_change', channel=6, control=10, value=103, time=19),
    Message('control_change', channel=6, control=10, value=101, time=0),
    Message('control_change', channel=6, control=11, value=37, time=0),
    Message('control_change', channel=6, control=11, value=38, time=0),
    Message('note_off', channel=6, note=40, velocity=64, time=4),
    Message('control_change', channel=6, control=10, value=101, time=20),
    Message('control_change', channel=6, control=10, value=99, time=0),
    Message('control_change', channel=6, control=11, value=38, time=0),
    Message('control_change', channel=6, control=11, value=40, time=0),
    Message('note_on', channel=6, note=43, velocity=1, time=3),
    Message('note_off', channel=6, note=42, velocity=64, time=15),
    Message('note_on', channel=6, note=44, velocity=1, time=5),
    Message('control_change', channel=6, control=11, value=40, time=1),
    Message('control_change', channel=6, control=11, value=41, time=0),
    Message('control_change', channel=6, control=10, value=99, time=0),
    Message('control_change', channel=6, control=10, value=97, time=0),
    Message('control_change', channel=6, control=10, value=97, time=24),
    Message('control_change', channel=6, control=10, value=95, time=0),
    Message('control_change', channel=6, control=11, value=41, time=0),
    Message('control_change', channel=6, control=11, value=43, time=0),
    Message('note_off', channel=6, note=43, velocity=64, time=6),
    Message('note_on', channel=6, note=46, velocity=1, time=6),
    Message('control_change', channel=6, control=11, value=43, time=12),
    Message('control_change', channel=6, control=11, value=44, time=0),
    Message('control_change', channel=6, control=10, value=95, time=0),
    Message('control_change', channel=6, control=10, value=93, time=0),
    Message('note_off', channel=6, note=44, velocity=64, time=4),
    Message('note_on', channel=6, note=51, velocity=1, time=12),
    Message('note_off', channel=6, note=46, velocity=64, time=7),
    Message('control_change', channel=6, control=10, value=93, time=1),
    Message('control_change', channel=6, control=10, value=91, time=0),
    Message('control_change', channel=6, control=11, value=44, time=0),
    Message('control_change', channel=6, control=11, value=46, time=0),
    Message('note_on', channel=6, note=47, velocity=1, time=9),
    Message('note_on', channel=6, note=53, velocity=1, time=2),
    Message('control_change', channel=6, control=10, value=91, time=13),
    Message('control_change', channel=6, control=10, value=89, time=0),
    Message('control_change', channel=6, control=11, value=46, time=0),
    Message('control_change', channel=6, control=11, value=48, time=0),
    Message('note_off', channel=6, note=51, velocity=64, time=10),
    Message('note_on', channel=6, note=54, velocity=1, time=9),
    Message('control_change', channel=6, control=11, value=48, time=4),
    Message('control_change', channel=6, control=11, value=49, time=0),
    Message('control_change', channel=6, control=10, value=89, time=1),
    Message('control_change', channel=6, control=10, value=87, time=0),
    Message('note_off', channel=6, note=47, velocity=64, time=4),
    Message('note_off', channel=6, note=53, velocity=64, time=11),
    Message('note_on', channel=6, note=50, velocity=1, time=1),
    Message('control_change', channel=6, control=10, value=87, time=8),
    Message('control_change', channel=6, control=10, value=85, time=0),
    Message('control_change', channel=6, control=11, value=49, time=0),
    Message('control_change', channel=6, control=11, value=51, time=0),
    Message('note_on', channel=6, note=56, velocity=1, time=1),
    Message('note_off', channel=6, note=54, velocity=64, time=13),
    Message('control_change', channel=6, control=10, value=85, time=9),
    Message('control_change', channel=6, control=10, value=83, time=0),
    Message('note_on', channel=6, note=58, velocity=1, time=0),
    Message('control_change', channel=6, control=11, value=51, time=1),
    Message('control_change', channel=6, control=11, value=53, time=0),
    Message('note_off', channel=6, note=50, velocity=64, time=11),
    Message('control_change', channel=6, control=10, value=83, time=13),
    Message('control_change', channel=6, control=10, value=81, time=0),
    Message('control_change', channel=6, control=11, value=53, time=0),
    Message('control_change', channel=6, control=11, value=54, time=0),
    Message('note_on', channel=6, note=60, velocity=1, time=6),
    Message('control_change', channel=6, control=10, value=81, time=18),
    Message('control_change', channel=6, control=10, value=79, time=0),
    Message('control_change', channel=6, control=11, value=54, time=0),
    Message('control_change', channel=6, control=11, value=56, time=0),
    Message('note_off', channel=6, note=56, velocity=64, time=11),
    Message('note_on', channel=6, note=61, velocity=1, time=11),
    Message('control_change', channel=6, control=10, value=79, time=2),
    Message('control_change', channel=6, control=10, value=77, time=0),
    Message('control_change', channel=6, control=11, value=56, time=0),
    Message('control_change', channel=6, control=11, value=57, time=0),
    Message('note_off', channel=6, note=58, velocity=64, time=14),
    Message('control_change', channel=6, control=10, value=77, time=10),
    Message('control_change', channel=6, control=10, value=75, time=0),
    Message('control_change', channel=6, control=11, value=57, time=0),
    Message('control_change', channel=6, control=11, value=59, time=0),
    Message('note_off', channel=6, note=60, velocity=64, time=11),
    Message('note_on', channel=6, note=63, velocity=1, time=6),
    Message('control_change', channel=6, control=10, value=75, time=7),
    Message('control_change', channel=6, control=10, value=73, time=0),
    Message('control_change', channel=6, control=11, value=59, time=0),
    Message('control_change', channel=6, control=11, value=60, time=0),
    Message('note_on', channel=6, note=65, velocity=1, time=20),
    Message('control_change', channel=6, control=10, value=73, time=3),
    Message('control_change', channel=6, control=10, value=71, time=0),
    Message('control_change', channel=6, control=11, value=60, time=1),
    Message('control_change', channel=6, control=11, value=62, time=0),
    Message('note_off', channel=6, note=61, velocity=64, time=4),
    Message('note_on', channel=6, note=66, velocity=1, time=13),
    Message('control_change', channel=6, control=10, value=71, time=7),
    Message('control_change', channel=6, control=10, value=69, time=0),
    Message('control_change', channel=6, control=11, value=62, time=1),
    Message('control_change', channel=6, control=11, value=64, time=0),
    Message('note_off', channel=6, note=63, velocity=64, time=21),
    Message('control_change', channel=6, control=11, value=64, time=2),
    Message('control_change', channel=6, control=11, value=65, time=0),
    Message('control_change', channel=6, control=10, value=69, time=0),
    Message('control_change', channel=6, control=10, value=67, time=0),
    Message('note_on', channel=6, note=68, velocity=1, time=10),
    Message('control_change', channel=6, control=10, value=67, time=14),
    Message('control_change', channel=6, control=10, value=65, time=0),
    Message('control_change', channel=6, control=11, value=65, time=0),
    Message('control_change', channel=6, control=11, value=67, time=0),
    Message('note_off', channel=6, note=65, velocity=64, time=8),
    Message('note_on', channel=6, note=70, velocity=1, time=14),
    Message('control_change', channel=6, control=10, value=65, time=2),
    Message('control_change', channel=6, control=10, value=64, time=0),
    Message('control_change', channel=6, control=11, value=67, time=0),
    Message('control_change', channel=6, control=11, value=69, time=0),
    Message('note_off', channel=6, note=66, velocity=64, time=11),
    Message('control_change', channel=6, control=10, value=64, time=12),
    Message('control_change', channel=6, control=10, value=62, time=0),
    Message('control_change', channel=6, control=11, value=69, time=1),
    Message('control_change', channel=6, control=11, value=70, time=0),
    Message('note_on', channel=6, note=72, velocity=7, time=1),
    Message('control_change', channel=6, control=10, value=62, time=23),
    Message('control_change', channel=6, control=10, value=60, time=0),
    Message('control_change', channel=6, control=11, value=70, time=0),
    Message('control_change', channel=6, control=11, value=72, time=0),
    Message('note_off', channel=6, note=68, velocity=64, time=7),
    Message('control_change', channel=6, control=10, value=60, time=17),
    Message('control_change', channel=6, control=10, value=58, time=0),
    Message('control_change', channel=6, control=11, value=72, time=0),
    Message('control_change', channel=6, control=11, value=73, time=0),
    Message('note_on', channel=6, note=73, velocity=1, time=11),
    Message('control_change', channel=6, control=10, value=58, time=13),
    Message('control_change', channel=6, control=10, value=56, time=0),
    Message('control_change', channel=6, control=11, value=73, time=0),
    Message('control_change', channel=6, control=11, value=75, time=0),
    Message('note_off', channel=6, note=70, velocity=64, time=8),
    Message('control_change', channel=6, control=10, value=56, time=16),
    Message('control_change', channel=6, control=10, value=54, time=0),
    Message('control_change', channel=6, control=11, value=75, time=0),
    Message('control_change', channel=6, control=11, value=76, time=0),
    Message('note_off', channel=6, note=72, velocity=64, time=17),
    Message('control_change', channel=6, control=10, value=54, time=7),
    Message('control_change', channel=6, control=10, value=52, time=0),
    Message('control_change', channel=6, control=11, value=76, time=0),
    Message('control_change', channel=6, control=11, value=78, time=0),
    Message('note_on', channel=6, note=80, velocity=4, time=12),
    Message('control_change', channel=6, control=10, value=52, time=12),
    Message('control_change', channel=6, control=10, value=50, time=0),
    Message('control_change', channel=6, control=11, value=78, time=0),
    Message('control_change', channel=6, control=11, value=80, time=0),
    Message('note_off', channel=6, note=73, velocity=64, time=9),
    Message('control_change', channel=6, control=11, value=80, time=15),
    Message('control_change', channel=6, control=11, value=81, time=0),
    Message('control_change', channel=6, control=10, value=50, time=0),
    Message('control_change', channel=6, control=10, value=48, time=0),
    Message('note_on', channel=6, note=83, velocity=3, time=14),
    Message('control_change', channel=6, control=10, value=48, time=10),
    Message('control_change', channel=6, control=10, value=46, time=0),
    Message('control_change', channel=6, control=11, value=81, time=0),
    Message('control_change', channel=6, control=11, value=82, time=0),
    Message('control_change', channel=6, control=11, value=84, time=10),
    Message('control_change', channel=6, control=10, value=46, time=13),
    Message('control_change', channel=6, control=10, value=44, time=0),
    Message('control_change', channel=6, control=10, value=44, time=25),
    Message('control_change', channel=6, control=10, value=42, time=0),
    Message('control_change', channel=6, control=11, value=84, time=0),
    Message('control_change', channel=6, control=11, value=94, time=0),
    Message('note_on', channel=6, note=85, velocity=1, time=9),
    Message('control_change', channel=6, control=10, value=42, time=15),
    Message('control_change', channel=6, control=10, value=40, time=0),
    Message('control_change', channel=6, control=11, value=94, time=0),
    Message('control_change', channel=6, control=11, value=99, time=0),
    Message('control_change', channel=6, control=10, value=40, time=24),
    Message('control_change', channel=6, control=10, value=38, time=0),
    Message('control_change', channel=6, control=11, value=99, time=0),
    Message('control_change', channel=6, control=11, value=104, time=0),
    Message('control_change', channel=6, control=10, value=38, time=24),
    Message('control_change', channel=6, control=10, value=36, time=0),
    Message('control_change', channel=6, control=11, value=104, time=0),
    Message('control_change', channel=6, control=11, value=110, time=0),
    Message('control_change', channel=6, control=10, value=36, time=25),
    Message('control_change', channel=6, control=10, value=34, time=0),
    Message('control_change', channel=6, control=11, value=110, time=0),
    Message('control_change', channel=6, control=11, value=115, time=0),
    Message('control_change', channel=6, control=10, value=34, time=23),
    Message('control_change', channel=6, control=10, value=32, time=0),
    Message('control_change', channel=6, control=11, value=115, time=0),
    Message('control_change', channel=6, control=11, value=120, time=0),
    Message('control_change', channel=6, control=10, value=32, time=24),
    Message('control_change', channel=6, control=10, value=31, time=0),
    Message('control_change', channel=6, control=11, value=120, time=1),
    Message('control_change', channel=6, control=11, value=125, time=0),
    Message('control_change', channel=6, control=11, value=125, time=23),
    Message('control_change', channel=6, control=11, value=127, time=0),
    Message('control_change', channel=6, control=91, value=127, time=25),
    Message('control_change', channel=6, control=91, value=0, time=0),
    Message('note_off', channel=6, note=80, velocity=64, time=120),
    Message('note_off', channel=6, note=83, velocity=64, time=61),
    Message('note_off', channel=6, note=85, velocity=64, time=6),
    Message('note_off', channel=6, note=37, velocity=64, time=35),
    Message('control_change', channel=6, control=91, value=0, time=10547),
    Message('control_change', channel=6, control=91, value=24, time=0),
    Message('control_change', channel=6, control=11, value=127, time=24),
    Message('control_change', channel=6, control=11, value=126, time=0),
    Message('control_change', channel=6, control=11, value=102, time=2),
    Message('control_change', channel=6, control=11, value=79, time=2),
    Message('control_change', channel=6, control=11, value=74, time=1),
    Message('control_change', channel=6, control=11, value=56, time=1),
    Message('control_change', channel=6, control=11, value=28, time=4),
    Message('control_change', channel=6, control=11, value=15, time=0),
    Message('control_change', channel=6, control=11, value=32, time=7),
    Message('control_change', channel=6, control=11, value=50, time=2),
    Message('control_change', channel=6, control=11, value=72, time=3),
    Message('control_change', channel=6, control=11, value=95, time=1),
    Message('control_change', channel=6, control=11, value=115, time=2),
    Message('control_change', channel=6, control=11, value=127, time=2),
    Message('note_on', channel=6, note=66, velocity=119, time=33),
    Message('note_off', channel=6, note=66, velocity=64, time=11),
    Message('note_on', channel=6, note=66, velocity=119, time=33),
    Message('note_off', channel=6, note=66, velocity=64, time=21),
    Message('note_on', channel=6, note=69, velocity=119, time=28),
    Message('note_off', channel=6, note=69, velocity=64, time=26),
    Message('control_change', channel=6, control=11, value=127, time=149),
    Message('control_change', channel=6, control=11, value=80, time=0),
    Message('note_on', channel=6, note=69, velocity=110, time=209),
    Message('control_change', channel=6, control=11, value=80, time=23),
    Message('control_change', channel=6, control=11, value=126, time=0),
    Message('note_off', channel=6, note=69, velocity=64, time=3),
    Message('control_change', channel=6, control=11, value=127, time=3),
    Message('note_on', channel=6, note=71, velocity=104, time=15),
    Message('note_off', channel=6, note=71, velocity=64, time=24),
    Message('note_on', channel=6, note=72, velocity=107, time=7),
    Message('note_off', channel=6, note=72, velocity=64, time=16),
    Message('note_on', channel=6, note=73, velocity=107, time=4),
    Message('note_off', channel=6, note=73, velocity=64, time=19),
    Message('note_on', channel=6, note=76, velocity=110, time=9),
    Message('note_off', channel=6, note=76, velocity=64, time=13),
    Message('note_on', channel=6, note=78, velocity=119, time=6),
    Message('note_off', channel=6, note=78, velocity=64, time=19),
    Message('note_on', channel=6, note=76, velocity=89, time=16),
    Message('note_on', channel=6, note=77, velocity=75, time=6),
    Message('note_off', channel=6, note=76, velocity=64, time=1),
    Message('note_on', channel=6, note=78, velocity=96, time=2),
    Message('note_on', channel=6, note=79, velocity=104, time=5),
    Message('note_off', channel=6, note=77, velocity=64, time=2),
    Message('note_off', channel=6, note=78, velocity=64, time=4),
    Message('note_off', channel=6, note=79, velocity=64, time=11),
    Message('note_on', channel=6, note=78, velocity=113, time=31),
    Message('note_on', channel=6, note=79, velocity=113, time=1),
    Message('note_off', channel=6, note=78, velocity=64, time=9),
    Message('note_off', channel=6, note=79, velocity=64, time=86),
    Message('note_on', channel=6, note=77, velocity=96, time=5),
    Message('note_on', channel=6, note=78, velocity=113, time=1),
    Message('note_off', channel=6, note=77, velocity=64, time=7),
    Message('control_change', channel=6, control=11, value=127, time=55),
    Message('control_change', channel=6, control=11, value=126, time=0),
    Message('control_change', channel=6, control=11, value=125, time=1),
    Message('control_change', channel=6, control=11, value=121, time=1),
    Message('control_change', channel=6, control=11, value=114, time=2),
    Message('control_change', channel=6, control=11, value=98, time=6),
    Message('control_change', channel=6, control=11, value=98, time=16),
    Message('control_change', channel=6, control=11, value=91, time=0),
    Message('control_change', channel=6, control=11, value=91, time=16),
    Message('control_change', channel=6, control=11, value=83, time=0),
    Message('control_change', channel=6, control=11, value=83, time=16),
    Message('control_change', channel=6, control=11, value=76, time=0),
    Message('control_change', channel=6, control=11, value=76, time=17),
    Message('control_change', channel=6, control=11, value=70, time=0),
    Message('control_change', channel=6, control=11, value=70, time=15),
    Message('control_change', channel=6, control=11, value=62, time=0),
    Message('control_change', channel=6, control=11, value=62, time=16),
    Message('control_change', channel=6, control=11, value=55, time=0),
    Message('control_change', channel=6, control=11, value=55, time=16),
    Message('control_change', channel=6, control=11, value=48, time=0),
    Message('control_change', channel=6, control=11, value=48, time=16),
    Message('control_change', channel=6, control=11, value=41, time=0),
    Message('control_change', channel=6, control=11, value=41, time=16),
    Message('control_change', channel=6, control=11, value=34, time=0),
    Message('control_change', channel=6, control=11, value=34, time=16),
    Message('control_change', channel=6, control=11, value=27, time=0),
    Message('control_change', channel=6, control=11, value=27, time=16),
    Message('control_change', channel=6, control=11, value=19, time=0),
    Message('control_change', channel=6, control=11, value=19, time=16),
    Message('control_change', channel=6, control=11, value=13, time=0),
    Message('control_change', channel=6, control=11, value=13, time=18),
    Message('control_change', channel=6, control=11, value=6, time=0),
    Message('control_change', channel=6, control=11, value=6, time=14),
    Message('control_change', channel=6, control=11, value=0, time=0),
    Message('control_change', channel=6, control=11, value=0, time=17),
    Message('control_change', channel=6, control=11, value=0, time=0),
    Message('note_off', channel=6, note=78, velocity=64, time=6),
    Message('control_change', channel=6, control=10, value=31, time=14679),
    Message('control_change', channel=6, control=10, value=127, time=0),
    Message('control_change', channel=6, control=11, value=0, time=15),
    Message('control_change', channel=6, control=11, value=71, time=0),
    Message('note_on', channel=6, note=91, velocity=92, time=36),
    Message('note_on', channel=6, note=87, velocity=102, time=0),
    Message('note_on', channel=6, note=79, velocity=107, time=2),
    Message('note_off', channel=6, note=79, velocity=64, time=15),
    Message('note_off', channel=6, note=91, velocity=64, time=4),
    Message('note_off', channel=6, note=87, velocity=64, time=0),
    Message('note_on', channel=6, note=89, velocity=95, time=50),
    Message('note_on', channel=6, note=86, velocity=90, time=0),
    Message('note_on', channel=6, note=77, velocity=87, time=1),
    Message('note_off', channel=6, note=86, velocity=64, time=17),
    Message('note_on', channel=6, note=82, velocity=75, time=6),
    Message('note_on', channel=6, note=74, velocity=90, time=1),
    Message('note_off', channel=6, note=77, velocity=64, time=0),
    Message('note_on', channel=6, note=86, velocity=99, time=1),
    Message('note_off', channel=6, note=89, velocity=64, time=4),
    Message('note_off', channel=6, note=74, velocity=64, time=17),
    Message('note_on', channel=6, note=81, velocity=85, time=0),
    Message('note_on', channel=6, note=84, velocity=83, time=2),
    Message('note_off', channel=6, note=86, velocity=64, time=2),
    Message('note_off', channel=6, note=82, velocity=64, time=1),
    Message('note_off', channel=6, note=84, velocity=64, time=6),
    Message('note_off', channel=6, note=81, velocity=64, time=0),
    Message('note_on', channel=6, note=74, velocity=75, time=11),
    Message('note_on', channel=6, note=86, velocity=88, time=2),
    Message('note_on', channel=6, note=82, velocity=90, time=1),
    Message('note_off', channel=6, note=82, velocity=64, time=45),
    Message('note_off', channel=6, note=74, velocity=64, time=1),
    Message('note_off', channel=6, note=86, velocity=64, time=0),
    Message('note_on', channel=6, note=86, velocity=102, time=171),
    Message('note_off', channel=6, note=86, velocity=64, time=2),
    Message('note_on', channel=6, note=79, velocity=107, time=19),
    Message('note_on', channel=6, note=87, velocity=100, time=0),
    Message('note_on', channel=6, note=91, velocity=96, time=1),
    Message('note_off', channel=6, note=79, velocity=64, time=18),
    Message('note_off', channel=6, note=87, velocity=64, time=0),
    Message('note_off', channel=6, note=91, velocity=64, time=1),
    Message('note_on', channel=6, note=86, velocity=90, time=56),
    Message('note_on', channel=6, note=89, velocity=96, time=1),
    Message('note_on', channel=6, note=77, velocity=82, time=2),
    Message('note_off', channel=6, note=86, velocity=64, time=20),
    Message('note_on', channel=6, note=86, velocity=93, time=0),
    Message('note_on', channel=6, note=82, velocity=87, time=1),
    Message('note_on', channel=6, note=73, velocity=68, time=0),
    Message('note_off', channel=6, note=86, velocity=64, time=0),
    Message('note_off', channel=6, note=89, velocity=64, time=5),
    Message('note_off', channel=6, note=77, velocity=64, time=0),
    Message('note_on', channel=6, note=84, velocity=92, time=19),
    Message('note_on', channel=6, note=81, velocity=80, time=0),
    Message('note_off', channel=6, note=82, velocity=64, time=3),
    Message('note_off', channel=6, note=73, velocity=64, time=1),
    Message('note_off', channel=6, note=84, velocity=64, time=5),
    Message('note_off', channel=6, note=81, velocity=64, time=2),
    Message('note_on', channel=6, note=74, velocity=92, time=12),
    Message('note_on', channel=6, note=86, velocity=99, time=3),
    Message('note_on', channel=6, note=82, velocity=87, time=1),
    Message('note_off', channel=6, note=74, velocity=64, time=48),
    Message('note_off', channel=6, note=82, velocity=64, time=1),
    Message('note_off', channel=6, note=86, velocity=64, time=0),
    Message('note_on', channel=6, note=79, velocity=113, time=189),
    Message('note_on', channel=6, note=87, velocity=100, time=0),
    Message('note_on', channel=6, note=91, velocity=99, time=0),
    Message('note_off', channel=6, note=91, velocity=64, time=20),
    Message('note_off', channel=6, note=87, velocity=64, time=2),
    Message('note_off', channel=6, note=79, velocity=64, time=0),
    Message('note_on', channel=6, note=86, velocity=96, time=52),
    Message('note_on', channel=6, note=89, velocity=98, time=0),
    Message('note_on', channel=6, note=77, velocity=78, time=1),
    Message('note_on', channel=6, note=75, velocity=82, time=1),
    Message('note_off', channel=6, note=75, velocity=64, time=12),
    Message('note_off', channel=6, note=77, velocity=64, time=3),
    Message('note_on', channel=6, note=74, velocity=90, time=5),
    Message('note_on', channel=6, note=82, velocity=85, time=1),
    Message('note_off', channel=6, note=89, velocity=64, time=8),
    Message('note_off', channel=6, note=86, velocity=64, time=6),
    Message('note_off', channel=6, note=74, velocity=64, time=7),
    Message('note_on', channel=6, note=81, velocity=88, time=3),
    Message('note_on', channel=6, note=83, velocity=75, time=0),
    Message('note_on', channel=6, note=71, velocity=37, time=2),
    Message('note_on', channel=6, note=72, velocity=64, time=0),
    Message('note_off', channel=6, note=82, velocity=64, time=3),
    Message('note_off', channel=6, note=81, velocity=64, time=1),
    Message('note_off', channel=6, note=71, velocity=64, time=3),
    Message('note_off', channel=6, note=83, velocity=64, time=0),
    Message('note_off', channel=6, note=72, velocity=64, time=1),
    Message('note_on', channel=6, note=74, velocity=102, time=12),
    Message('note_on', channel=6, note=86, velocity=102, time=0),
    Message('note_on', channel=6, note=82, velocity=92, time=1),
    Message('note_off', channel=6, note=74, velocity=64, time=45),
    Message('note_off', channel=6, note=86, velocity=64, time=1),
    Message('note_off', channel=6, note=82, velocity=64, time=3),
    Message('note_on', channel=6, note=66, velocity=47, time=73),
    Message('note_on', channel=6, note=70, velocity=75, time=4),
    Message('note_off', channel=6, note=66, velocity=64, time=4),
    Message('note_on', channel=6, note=71, velocity=82, time=4),
    Message('note_off', channel=6, note=70, velocity=64, time=3),
    Message('note_on', channel=6, note=80, velocity=95, time=5),
    Message('note_on', channel=6, note=84, velocity=100, time=0),
    Message('note_on', channel=6, note=72, velocity=96, time=1),
    Message('note_off', channel=6, note=71, velocity=64, time=0),
    Message('note_off', channel=6, note=80, velocity=64, time=7),
    Message('note_off', channel=6, note=72, velocity=64, time=1),
    Message('note_off', channel=6, note=84, velocity=64, time=0),
    Message('note_on', channel=6, note=84, velocity=95, time=38),
    Message('note_on', channel=6, note=80, velocity=95, time=1),
    Message('note_on', channel=6, note=72, velocity=95, time=1),
    Message('note_off', channel=6, note=72, velocity=64, time=48),
    Message('note_off', channel=6, note=84, velocity=64, time=2),
    Message('note_off', channel=6, note=80, velocity=64, time=0),
    Message('note_on', channel=6, note=71, velocity=99, time=44),
    Message('note_on', channel=6, note=83, velocity=96, time=0),
    Message('note_on', channel=6, note=79, velocity=90, time=0),
    Message('control_change', channel=6, control=11, value=71, time=13),
    Message('control_change', channel=6, control=11, value=67, time=0),
    Message('control_change', channel=6, control=11, value=65, time=2),
    Message('control_change', channel=6, control=11, value=65, time=0),
    Message('control_change', channel=6, control=11, value=64, time=2),
    Message('control_change', channel=6, control=11, value=62, time=1),
    Message('control_change', channel=6, control=11, value=61, time=3),
    Message('control_change', channel=6, control=11, value=60, time=1),
    Message('control_change', channel=6, control=11, value=58, time=3),
    Message('control_change', channel=6, control=11, value=57, time=1),
    Message('control_change', channel=6, control=11, value=56, time=1),
    Message('control_change', channel=6, control=11, value=56, time=1),
    Message('control_change', channel=6, control=11, value=54, time=3),
    Message('control_change', channel=6, control=11, value=53, time=1),
    Message('control_change', channel=6, control=11, value=52, time=2),
    Message('control_change', channel=6, control=11, value=50, time=3),
    Message('control_change', channel=6, control=11, value=49, time=1),
    Message('control_change', channel=6, control=11, value=48, time=1),
    Message('control_change', channel=6, control=11, value=48, time=1),
    Message('control_change', channel=6, control=11, value=46, time=3),
    Message('control_change', channel=6, control=11, value=45, time=1),
    Message('control_change', channel=6, control=11, value=43, time=1),
    Message('control_change', channel=6, control=11, value=42, time=3),
    Message('control_change', channel=6, control=11, value=41, time=1),
    Message('control_change', channel=6, control=11, value=39, time=2),
    Message('control_change', channel=6, control=11, value=39, time=0),
    Message('control_change', channel=6, control=11, value=38, time=2),
    Message('control_change', channel=6, control=11, value=37, time=2),
    Message('control_change', channel=6, control=11, value=35, time=2),
    Message('control_change', channel=6, control=11, value=34, time=2),
    Message('control_change', channel=6, control=11, value=33, time=2),
    Message('control_change', channel=6, control=11, value=31, time=2),
    Message('control_change', channel=6, control=11, value=31, time=0),
    Message('control_change', channel=6, control=11, value=30, time=2),
    Message('control_change', channel=6, control=11, value=28, time=2),
    Message('control_change', channel=6, control=11, value=27, time=1),
    Message('control_change', channel=6, control=11, value=26, time=2),
    Message('control_change', channel=6, control=11, value=24, time=2),
    Message('control_change', channel=6, control=11, value=23, time=2),
    Message('control_change', channel=6, control=11, value=22, time=1),
    Message('control_change', channel=6, control=11, value=22, time=1),
    Message('control_change', channel=6, control=11, value=20, time=2),
    Message('control_change', channel=6, control=11, value=19, time=2),
    Message('control_change', channel=6, control=11, value=19, time=48),
    Message('control_change', channel=6, control=11, value=23, time=0),
    Message('control_change', channel=6, control=11, value=24, time=7),
    Message('control_change', channel=6, control=11, value=25, time=2),
    Message('note_off', channel=6, note=71, velocity=64, time=15),
    Message('control_change', channel=6, control=11, value=25, time=1),
    Message('control_change', channel=6, control=11, value=26, time=0),
    Message('control_change', channel=6, control=11, value=26, time=25),
    Message('control_change', channel=6, control=11, value=29, time=0),
    Message('control_change', channel=6, control=11, value=31, time=2),
    Message('control_change', channel=6, control=11, value=35, time=2),
    Message('control_change', channel=6, control=11, value=36, time=1),
    Message('control_change', channel=6, control=11, value=41, time=1),
    Message('note_off', channel=6, note=79, velocity=64, time=1),
    Message('control_change', channel=6, control=10, value=127, time=1),
    Message('control_change', channel=6, control=10, value=106, time=0),
    Message('control_change', channel=6, control=11, value=46, time=1),
    Message('control_change', channel=6, control=10, value=105, time=1),
    Message('control_change', channel=6, control=11, value=52, time=0),
    Message('note_on', channel=6, note=81, velocity=58, time=2),
    Message('control_change', channel=6, control=10, value=104, time=0),
    Message('control_change', channel=6, control=11, value=59, time=1),
    Message('control_change', channel=6, control=10, value=103, time=3),
    Message('control_change', channel=6, control=11, value=62, time=0),
    Message('note_on', channel=6, note=79, velocity=79, time=0),
    Message('control_change', channel=6, control=10, value=101, time=1),
    Message('control_change', channel=6, control=11, value=63, time=0),
    Message('control_change', channel=6, control=11, value=67, time=0),
    Message('note_off', channel=6, note=83, velocity=64, time=0),
    Message('control_change', channel=6, control=10, value=100, time=1),
    Message('note_on', channel=6, note=76, velocity=54, time=1),
    Message('control_change', channel=6, control=10, value=99, time=2),
    Message('note_on', channel=6, note=78, velocity=50, time=1),
    Message('note_off', channel=6, note=81, velocity=64, time=0),
    Message('note_on', channel=6, note=74, velocity=90, time=0),
    Message('control_change', channel=6, control=10, value=98, time=0),
    Message('note_on', channel=6, note=77, velocity=55, time=1),
    Message('note_off', channel=6, note=78, velocity=64, time=0),
    Message('control_change', channel=6, control=10, value=96, time=1),
    Message('note_on', channel=6, note=70, velocity=87, time=1),
    Message('note_on', channel=6, note=75, velocity=58, time=0),
    Message('note_off', channel=6, note=79, velocity=64, time=0),
    Message('control_change', channel=6, control=10, value=95, time=1),
    Message('note_off', channel=6, note=77, velocity=64, time=1),
    Message('note_on', channel=6, note=71, velocity=92, time=0),
    Message('control_change', channel=6, control=10, value=94, time=1),
    Message('note_on', channel=6, note=68, velocity=89, time=0),
    Message('control_change', channel=6, control=10, value=93, time=1),
    Message('note_off', channel=6, note=75, velocity=64, time=0),
    Message('note_on', channel=6, note=73, velocity=6, time=0),
    Message('control_change', channel=6, control=10, value=93, time=1),
    Message('note_off', channel=6, note=76, velocity=64, time=0),
    Message('note_on', channel=6, note=69, velocity=90, time=1),
    Message('note_on', channel=6, note=66, velocity=87, time=0),
    Message('control_change', channel=6, control=10, value=91, time=0),
    Message('note_off', channel=6, note=73, velocity=64, time=1),
    Message('control_change', channel=6, control=10, value=90, time=1),
    Message('note_off', channel=6, note=74, velocity=64, time=1),
    Message('note_on', channel=6, note=67, velocity=92, time=0),
    Message('control_change', channel=6, control=10, value=89, time=1),
    Message('note_off', channel=6, note=66, velocity=64, time=1),
    Message('control_change', channel=6, control=10, value=88, time=1),
    Message('note_off', channel=6, note=71, velocity=64, time=0),
    Message('note_off', channel=6, note=70, velocity=64, time=1),
    Message('control_change', channel=6, control=10, value=87, time=1),
    Message('note_on', channel=6, note=64, velocity=82, time=1),
    Message('control_change', channel=6, control=10, value=85, time=1),
    Message('control_change', channel=6, control=10, value=85, time=0),
    Message('note_off', channel=6, note=68, velocity=64, time=0),
    Message('note_off', channel=6, note=69, velocity=64, time=0),
    Message('control_change', channel=6, control=10, value=84, time=2),
    Message('note_off', channel=6, note=67, velocity=64, time=1),
    Message('control_change', channel=6, control=10, value=83, time=1),
    Message('note_on', channel=6, note=62, velocity=44, time=1),
    Message('control_change', channel=6, control=10, value=82, time=1),
    Message('note_on', channel=6, note=63, velocity=55, time=1),
    Message('control_change', channel=6, control=10, value=80, time=1),
    Message('note_off', channel=6, note=64, velocity=64, time=0),
    Message('note_on', channel=6, note=59, velocity=46, time=0),
    Message('note_on', channel=6, note=61, velocity=55, time=1),
    Message('note_off', channel=6, note=63, velocity=64, time=0),
    Message('control_change', channel=6, control=10, value=79, time=1),
    Message('control_change', channel=6, control=10, value=78, time=1),
    Message('control_change', channel=6, control=10, value=77, time=1),
    Message('note_on', channel=6, note=60, velocity=58, time=0),
    Message('note_off', channel=6, note=62, velocity=64, time=1),
    Message('control_change', channel=6, control=10, value=77, time=0),
    Message('note_off', channel=6, note=61, velocity=64, time=1),
    Message('note_on', channel=6, note=58, velocity=74, time=1),
    Message('control_change', channel=6, control=10, value=76, time=0),
    Message('note_on', channel=6, note=55, velocity=75, time=1),
    Message('control_change', channel=6, control=10, value=74, time=1),
    Message('note_off', channel=6, note=60, velocity=64, time=0),
    Message('note_off', channel=6, note=55, velocity=64, time=1),
    Message('note_off', channel=6, note=59, velocity=64, time=0),
    Message('control_change', channel=6, control=10, value=73, time=1),
    Message('note_on', channel=6, note=55, velocity=85, time=0),
    Message('note_off', channel=6, note=58, velocity=64, time=2),
    Message('control_change', channel=6, control=10, value=72, time=1),
    Message('note_off', channel=6, note=55, velocity=64, time=0),
    Message('control_change', channel=6, control=10, value=71, time=1),
    Message('control_change', channel=6, control=10, value=70, time=1),
    Message('control_change', channel=6, control=10, value=69, time=1),
    Message('control_change', channel=6, control=10, value=68, time=3),
    Message('control_change', channel=6, control=10, value=67, time=1),
    Message('control_change', channel=6, control=10, value=66, time=2),
    Message('control_change', channel=6, control=10, value=65, time=2),
    Message('control_change', channel=6, control=10, value=64, time=2),
    Message('control_change', channel=6, control=10, value=63, time=1),
    Message('control_change', channel=6, control=10, value=63, time=0),
    Message('control_change', channel=6, control=10, value=62, time=2),
    Message('control_change', channel=6, control=10, value=61, time=3),
    Message('control_change', channel=6, control=10, value=59, time=1),
    Message('control_change', channel=6, control=10, value=58, time=2),
    Message('control_change', channel=6, control=10, value=57, time=2),
    Message('control_change', channel=6, control=10, value=56, time=2),
    Message('control_change', channel=6, control=10, value=56, time=0),
    Message('control_change', channel=6, control=10, value=54, time=2),
    Message('control_change', channel=6, control=10, value=53, time=2),
    Message('control_change', channel=6, control=10, value=52, time=2),
    Message('control_change', channel=6, control=10, value=51, time=2),
    Message('control_change', channel=6, control=10, value=50, time=2),
    Message('control_change', channel=6, control=10, value=48, time=1),
    Message('control_change', channel=6, control=10, value=47, time=1),
    Message('control_change', channel=6, control=10, value=47, time=1),
    Message('control_change', channel=6, control=10, value=46, time=2),
    Message('control_change', channel=6, control=10, value=45, time=2),
    Message('control_change', channel=6, control=10, value=43, time=2),
    Message('note_on', channel=6, note=37, velocity=54, time=0),
    Message('note_on', channel=6, note=39, velocity=74, time=2),
    Message('control_change', channel=6, control=10, value=42, time=0),
    Message('control_change', channel=6, control=10, value=41, time=2),
    Message('note_off', channel=6, note=37, velocity=64, time=0),
    Message('note_on', channel=6, note=41, velocity=75, time=0),
    Message('control_change', channel=6, control=10, value=40, time=1),
    Message('control_change', channel=6, control=10, value=40, time=1),
    Message('note_on', channel=6, note=42, velocity=75, time=0),
    Message('note_off', channel=6, note=39, velocity=64, time=1),
    Message('control_change', channel=6, control=10, value=39, time=1),
    Message('note_on', channel=6, note=44, velocity=71, time=1),
    Message('note_off', channel=6, note=41, velocity=64, time=0),
    Message('control_change', channel=6, control=10, value=37, time=1),
    Message('note_on', channel=6, note=46, velocity=65, time=1),
    Message('control_change', channel=6, control=10, value=36, time=1),
    Message('note_off', channel=6, note=42, velocity=64, time=1),
    Message('control_change', channel=6, control=10, value=35, time=1),
    Message('note_on', channel=6, note=48, velocity=54, time=2),
    Message('control_change', channel=6, control=10, value=34, time=0),
    Message('note_off', channel=6, note=44, velocity=64, time=0),
    Message('control_change', channel=6, control=10, value=33, time=1),
    Message('note_on', channel=6, note=49, velocity=52, time=0),
    Message('control_change', channel=6, control=10, value=32, time=0),
    Message('note_off', channel=6, note=46, velocity=64, time=1),
    Message('control_change', channel=6, control=10, value=31, time=1),
    Message('note_on', channel=6, note=51, velocity=55, time=1),
    Message('note_off', channel=6, note=48, velocity=64, time=2),
    Message('control_change', channel=6, control=10, value=30, time=0),
    Message('note_on', channel=6, note=53, velocity=80, time=0),
    Message('note_off', channel=6, note=49, velocity=64, time=1),
    Message('control_change', channel=6, control=10, value=29, time=0),
    Message('note_on', channel=6, note=54, velocity=92, time=2),
    Message('control_change', channel=6, control=10, value=27, time=0),
    Message('note_off', channel=6, note=51, velocity=64, time=0),
    Message('control_change', channel=6, control=10, value=26, time=3),
    Message('note_on', channel=6, note=56, velocity=90, time=0),
    Message('note_off', channel=6, note=53, velocity=64, time=0),
    Message('control_change', channel=6, control=10, value=25, time=1),
    Message('control_change', channel=6, control=10, value=25, time=0),
    Message('note_off', channel=6, note=54, velocity=64, time=1),
    Message('note_on', channel=6, note=58, velocity=92, time=0),
    Message('control_change', channel=6, control=10, value=24, time=1),
    Message('note_off', channel=6, note=56, velocity=64, time=1),
    Message('note_on', channel=6, note=60, velocity=93, time=0),
    Message('control_change', channel=6, control=10, value=23, time=1),
    Message('note_off', channel=6, note=58, velocity=64, time=1),
    Message('note_on', channel=6, note=61, velocity=96, time=1),
    Message('control_change', channel=6, control=10, value=0, time=0),
    Message('note_off', channel=6, note=60, velocity=64, time=2),
    Message('note_on', channel=6, note=63, velocity=102, time=0),
    Message('note_on', channel=6, note=65, velocity=98, time=2),
    Message('note_off', channel=6, note=61, velocity=64, time=1),
    Message('note_on', channel=6, note=66, velocity=100, time=1),
    Message('note_off', channel=6, note=63, velocity=64, time=2),
    Message('note_on', channel=6, note=68, velocity=96, time=0),
    Message('note_off', channel=6, note=65, velocity=64, time=3),
    Message('note_on', channel=6, note=70, velocity=87, time=0),
    Message('note_off', channel=6, note=66, velocity=64, time=2),
    Message('note_on', channel=6, note=86, velocity=96, time=0),
    Message('note_on', channel=6, note=72, velocity=73, time=2),
    Message('note_on', channel=6, note=79, velocity=99, time=1),
    Message('note_on', channel=6, note=91, velocity=99, time=0),
    Message('note_off', channel=6, note=68, velocity=64, time=0),
    Message('note_off', channel=6, note=70, velocity=64, time=3),
    Message('note_on', channel=6, note=87, velocity=93, time=0),
    Message('note_off', channel=6, note=72, velocity=64, time=1),
    Message('note_on', channel=6, note=88, velocity=62, time=0),
    Message('note_off', channel=6, note=86, velocity=64, time=4),
    Message('note_off', channel=6, note=88, velocity=64, time=1),
    Message('note_off', channel=6, note=91, velocity=64, time=17),
    Message('note_off', channel=6, note=79, velocity=64, time=1),
    Message('note_off', channel=6, note=87, velocity=64, time=0),
    Message('note_on', channel=6, note=89, velocity=107, time=48),
    Message('note_on', channel=6, note=86, velocity=107, time=0),
    Message('note_on', channel=6, note=77, velocity=96, time=1),
    Message('note_off', channel=6, note=86, velocity=64, time=17),
    Message('note_on', channel=6, note=74, velocity=73, time=4),
    Message('note_on', channel=6, note=82, velocity=87, time=1),
    Message('note_on', channel=6, note=86, velocity=96, time=0),
    Message('note_off', channel=6, note=77, velocity=64, time=1),
    Message('note_off', channel=6, note=89, velocity=64, time=2),
    Message('note_on', channel=6, note=81, velocity=73, time=18),
    Message('note_on', channel=6, note=84, velocity=83, time=1),
    Message('note_off', channel=6, note=74, velocity=64, time=2),
    Message('note_on', channel=6, note=72, velocity=70, time=0),
    Message('note_off', channel=6, note=82, velocity=64, time=1),
    Message('note_off', channel=6, note=86, velocity=64, time=1),
    Message('note_off', channel=6, note=81, velocity=64, time=7),
    Message('note_off', channel=6, note=84, velocity=64, time=3),
    Message('note_off', channel=6, note=72, velocity=64, time=0),
    Message('note_on', channel=6, note=74, velocity=92, time=11),
    Message('note_on', channel=6, note=86, velocity=79, time=0),
    Message('note_on', channel=6, note=82, velocity=90, time=1),
    Message('note_off', channel=6, note=74, velocity=64, time=42),
    Message('note_off', channel=6, note=86, velocity=64, time=0),
    Message('note_off', channel=6, note=82, velocity=64, time=1),
    Message('note_on', channel=6, note=82, velocity=92, time=128),
    Message('note_off', channel=6, note=82, velocity=64, time=3),
    Message('note_on', channel=6, note=70, velocity=90, time=19),
    Message('note_off', channel=6, note=70, velocity=64, time=8),
    Message('note_on', channel=6, note=87, velocity=104, time=16),
    Message('note_on', channel=6, note=91, velocity=96, time=1),
    Message('note_on', channel=6, note=79, velocity=107, time=0),
    Message('note_off', channel=6, note=79, velocity=64, time=16),
    Message('note_off', channel=6, note=91, velocity=64, time=0),
    Message('note_off', channel=6, note=87, velocity=64, time=1),
    Message('note_on', channel=6, note=79, velocity=107, time=30),
    Message('note_on', channel=6, note=87, velocity=104, time=0),
    Message('note_on', channel=6, note=91, velocity=99, time=0),
    Message('note_off', channel=6, note=79, velocity=64, time=16),
    Message('note_off', channel=6, note=91, velocity=64, time=2),
    Message('note_off', channel=6, note=87, velocity=64, time=0),
    Message('note_on', channel=6, note=89, velocity=107, time=29),
    Message('note_on', channel=6, note=77, velocity=98, time=1),
    Message('note_on', channel=6, note=86, velocity=113, time=0),
    Message('note_off', channel=6, note=86, velocity=64, time=16),
    Message('note_on', channel=6, note=74, velocity=88, time=3),
    Message('note_off', channel=6, note=77, velocity=64, time=0),
    Message('note_on', channel=6, note=82, velocity=87, time=1),
    Message('note_on', channel=6, note=86, velocity=96, time=0),
    Message('note_off', channel=6, note=89, velocity=64, time=4),
    Message('note_on', channel=6, note=81, velocity=73, time=18),
    Message('note_on', channel=6, note=84, velocity=85, time=1),
    Message('note_off', channel=6, note=86, velocity=64, time=1),
    Message('note_on', channel=6, note=72, velocity=59, time=1),
    Message('note_off', channel=6, note=74, velocity=64, time=0),
    Message('note_off', channel=6, note=82, velocity=64, time=0),
    Message('note_off', channel=6, note=84, velocity=64, time=4),
    Message('note_off', channel=6, note=81, velocity=64, time=0),
    Message('note_off', channel=6, note=72, velocity=64, time=2),
    Message('note_on', channel=6, note=74, velocity=92, time=16),
    Message('note_on', channel=6, note=86, velocity=102, time=0),
    Message('note_on', channel=6, note=82, velocity=95, time=2),
    Message('note_on', channel=6, note=81, velocity=59, time=3),
    Message('note_off', channel=6, note=81, velocity=64, time=2),
    Message('note_off', channel=6, note=86, velocity=64, time=34),
    Message('note_off', channel=6, note=74, velocity=64, time=3),
    Message('note_on', channel=6, note=80, velocity=58, time=3),
    Message('note_off', channel=6, note=82, velocity=64, time=2),
    Message('note_on', channel=6, note=78, velocity=77, time=5),
    Message('note_off', channel=6, note=80, velocity=64, time=1),
    Message('note_on', channel=6, note=77, velocity=87, time=5),
    Message('note_off', channel=6, note=78, velocity=64, time=0),
    Message('note_on', channel=6, note=75, velocity=85, time=4),
    Message('note_off', channel=6, note=77, velocity=64, time=0),
    Message('note_off', channel=6, note=75, velocity=64, time=4),
    Message('note_on', channel=6, note=73, velocity=74, time=0),
    Message('note_on', channel=6, note=72, velocity=78, time=4),
    Message('note_off', channel=6, note=73, velocity=64, time=0),
    Message('note_on', channel=6, note=70, velocity=85, time=3),
    Message('note_off', channel=6, note=72, velocity=64, time=2),
    Message('note_on', channel=6, note=68, velocity=80, time=3),
    Message('note_off', channel=6, note=70, velocity=64, time=0),
    Message('note_on', channel=6, note=66, velocity=85, time=3),
    Message('note_off', channel=6, note=68, velocity=64, time=1),
    Message('note_on', channel=6, note=65, velocity=82, time=3),
    Message('note_off', channel=6, note=66, velocity=64, time=0),
    Message('note_off', channel=6, note=65, velocity=64, time=4),
    Message('note_on', channel=6, note=63, velocity=80, time=0),
    Message('note_on', channel=6, note=61, velocity=80, time=5),
    Message('note_off', channel=6, note=63, velocity=64, time=0),
    Message('note_off', channel=6, note=61, velocity=64, time=2),
    Message('note_on', channel=6, note=60, velocity=77, time=3),
    Message('note_off', channel=6, note=60, velocity=64, time=1),
    Message('note_on', channel=6, note=58, velocity=85, time=1),
    Message('note_off', channel=6, note=58, velocity=64, time=4),
    Message('note_on', channel=6, note=54, velocity=82, time=4),
    Message('note_off', channel=6, note=54, velocity=64, time=3),
    Message('note_on', channel=6, note=51, velocity=70, time=6),
    Message('note_off', channel=6, note=51, velocity=64, time=4),
    Message('note_on', channel=6, note=82, velocity=87, time=98),
    Message('note_off', channel=6, note=82, velocity=64, time=6),
    Message('note_on', channel=6, note=87, velocity=102, time=15),
    Message('note_on', channel=6, note=91, velocity=99, time=2),
    Message('note_on', channel=6, note=79, velocity=107, time=1),
    Message('note_off', channel=6, note=79, velocity=64, time=17),
    Message('note_off', channel=6, note=87, velocity=64, time=1),
    Message('note_off', channel=6, note=91, velocity=64, time=0),
    Message('note_on', channel=6, note=91, velocity=75, time=3),
    Message('note_on', channel=6, note=87, velocity=89, time=3),
    Message('note_on', channel=6, note=79, velocity=92, time=0),
    Message('note_off', channel=6, note=91, velocity=64, time=9),
    Message('note_off', channel=6, note=87, velocity=64, time=1),
    Message('note_off', channel=6, note=79, velocity=64, time=3),
    Message('note_on', channel=6, note=86, velocity=102, time=35),
    Message('note_on', channel=6, note=89, velocity=98, time=0),
    Message('note_on', channel=6, note=77, velocity=96, time=0),
    Message('note_off', channel=6, note=86, velocity=64, time=18),
    Message('note_on', channel=6, note=82, velocity=77, time=2),
    Message('note_on', channel=6, note=74, velocity=92, time=0),
    Message('note_off', channel=6, note=77, velocity=64, time=4),
    Message('note_on', channel=6, note=86, velocity=96, time=0),
    Message('note_off', channel=6, note=89, velocity=64, time=1),
    Message('note_on', channel=6, note=81, velocity=71, time=18),
    Message('note_on', channel=6, note=84, velocity=83, time=1),
    Message('note_on', channel=6, note=72, velocity=89, time=0),
    Message('note_off', channel=6, note=82, velocity=64, time=2),
    Message('note_off', channel=6, note=74, velocity=64, time=1),
    Message('note_off', channel=6, note=86, velocity=64, time=1),
    Message('note_off', channel=6, note=81, velocity=64, time=2),
    Message('note_off', channel=6, note=84, velocity=64, time=1),
    Message('note_off', channel=6, note=72, velocity=64, time=4),
    Message('note_on', channel=6, note=74, velocity=107, time=12),
    Message('note_on', channel=6, note=86, velocity=102, time=0),
    Message('note_on', channel=6, note=82, velocity=93, time=1),
    Message('note_off', channel=6, note=86, velocity=64, time=41),
    Message('note_off', channel=6, note=74, velocity=64, time=6),
    Message('note_on', channel=6, note=80, velocity=67, time=1),
    Message('note_off', channel=6, note=82, velocity=64, time=2),
    Message('note_on', channel=6, note=78, velocity=75, time=5),
    Message('note_off', channel=6, note=80, velocity=64, time=0),
    Message('note_off', channel=6, note=78, velocity=64, time=4),
    Message('note_on', channel=6, note=77, velocity=77, time=1),
    Message('note_off', channel=6, note=77, velocity=64, time=4),
    Message('note_on', channel=6, note=75, velocity=80, time=0),
    Message('note_off', channel=6, note=75, velocity=64, time=3),
    Message('note_on', channel=6, note=73, velocity=78, time=1),
    Message('note_on', channel=6, note=72, velocity=90, time=3),
    Message('note_off', channel=6, note=73, velocity=64, time=0),
    Message('note_on', channel=6, note=70, velocity=85, time=4),
    Message('note_off', channel=6, note=72, velocity=64, time=0),
    Message('note_on', channel=6, note=68, velocity=92, time=3),
    Message('note_off', channel=6, note=70, velocity=64, time=1),
    Message('note_off', channel=6, note=68, velocity=64, time=3),
    Message('note_on', channel=6, note=66, velocity=70, time=0),
    Message('note_off', channel=6, note=66, velocity=64, time=3),
    Message('note_on', channel=6, note=65, velocity=78, time=1),
    Message('note_off', channel=6, note=65, velocity=64, time=3),
    Message('control_change', channel=6, control=11, value=67, time=23),
    Message('control_change', channel=6, control=11, value=62, time=0),
    Message('control_change', channel=6, control=11, value=53, time=1),
    Message('control_change', channel=6, control=11, value=43, time=2),
    Message('control_change', channel=6, control=11, value=34, time=3),
    Message('note_on', channel=6, note=37, velocity=71, time=0),
    Message('note_on', channel=6, note=39, velocity=78, time=0),
    Message('control_change', channel=6, control=11, value=26, time=1),
    Message('note_on', channel=6, note=41, velocity=46, time=1),
    Message('note_on', channel=6, note=44, velocity=85, time=0),
    Message('note_on', channel=6, note=42, velocity=49, time=1),
    Message('note_off', channel=6, note=37, velocity=64, time=0),
    Message('control_change', channel=6, control=11, value=17, time=1),
    Message('control_change', channel=6, control=11, value=17, time=0),
    Message('note_on', channel=6, note=46, velocity=89, time=1),
    Message('control_change', channel=6, control=11, value=9, time=1),
    Message('note_off', channel=6, note=39, velocity=64, time=1),
    Message('control_change', channel=6, control=11, value=3, time=1),
    Message('note_on', channel=6, note=48, velocity=89, time=1),
    Message('note_off', channel=6, note=41, velocity=64, time=1),
    Message('control_change', channel=6, control=11, value=0, time=0),
    Message('note_on', channel=6, note=49, velocity=87, time=2),
    Message('control_change', channel=6, control=11, value=0, time=0),
    Message('note_off', channel=6, note=42, velocity=64, time=0),
    Message('control_change', channel=6, control=11, value=0, time=2),
    Message('note_on', channel=6, note=51, velocity=87, time=0),
    Message('note_off', channel=6, note=44, velocity=64, time=1),
    Message('control_change', channel=6, control=11, value=0, time=1),
    Message('note_off', channel=6, note=46, velocity=64, time=2),
    Message('note_on', channel=6, note=53, velocity=75, time=0),
    Message('control_change', channel=6, control=11, value=0, time=0),
    Message('note_off', channel=6, note=48, velocity=64, time=2),
    Message('note_on', channel=6, note=54, velocity=55, time=2),
    Message('note_off', channel=6, note=49, velocity=64, time=1),
    Message('note_off', channel=6, note=51, velocity=64, time=2),
    Message('note_on', channel=6, note=56, velocity=58, time=0),
    Message('control_change', channel=6, control=11, value=0, time=1),
    Message('control_change', channel=6, control=11, value=11, time=2),
    Message('note_off', channel=6, note=53, velocity=64, time=0),
    Message('note_on', channel=6, note=58, velocity=62, time=0),
    Message('control_change', channel=6, control=11, value=22, time=1),
    Message('note_off', channel=6, note=54, velocity=64, time=1),
    Message('control_change', channel=6, control=11, value=52, time=1),
    Message('note_on', channel=6, note=60, velocity=73, time=0),
    Message('control_change', channel=6, control=11, value=67, time=2),
    Message('note_off', channel=6, note=56, velocity=64, time=0),
    Message('note_on', channel=6, note=80, velocity=95, time=0),
    Message('note_on', channel=6, note=61, velocity=92, time=1),
    Message('note_on', channel=6, note=75, velocity=90, time=0),
    Message('note_on', channel=6, note=84, velocity=96, time=0),
    Message('note_off', channel=6, note=58, velocity=64, time=2),
    Message('note_off', channel=6, note=60, velocity=64, time=2),
    Message('note_off', channel=6, note=61, velocity=64, time=1),
    Message('note_off', channel=6, note=75, velocity=64, time=3),
    Message('note_off', channel=6, note=80, velocity=64, time=0),
    Message('note_off', channel=6, note=84, velocity=64, time=0),
    Message('control_change', channel=6, control=11, value=67, time=14),
    Message('control_change', channel=6, control=11, value=61, time=0),
    Message('control_change', channel=6, control=11, value=55, time=2),
    Message('note_on', channel=6, note=80, velocity=96, time=16),
    Message('note_on', channel=6, note=75, velocity=87, time=1),
    Message('note_on', channel=6, note=84, velocity=93, time=1),
    Message('note_off', channel=6, note=80, velocity=64, time=38),
    Message('note_off', channel=6, note=84, velocity=64, time=3),
    Message('note_on', channel=6, note=65, velocity=92, time=3),
    Message('note_on', channel=6, note=66, velocity=92, time=1),
    Message('note_on', channel=6, note=68, velocity=75, time=1),
    Message('note_off', channel=6, note=68, velocity=64, time=2),
    Message('note_off', channel=6, note=66, velocity=64, time=0),
    Message('note_off', channel=6, note=75, velocity=64, time=0),
    Message('note_off', channel=6, note=65, velocity=64, time=1),
    Message('control_change', channel=6, control=11, value=55, time=6),
    Message('control_change', channel=6, control=11, value=62, time=0),
    Message('control_change', channel=6, control=11, value=64, time=2),
    Message('control_change', channel=6, control=11, value=67, time=2),
    Message('note_on', channel=6, note=79, velocity=71, time=34),
    Message('note_on', channel=6, note=74, velocity=64, time=0),
    Message('note_on', channel=6, note=77, velocity=83, time=1),
    Message('note_on', channel=6, note=69, velocity=79, time=0),
    Message('note_on', channel=6, note=83, velocity=90, time=0),
    Message('note_on', channel=6, note=71, velocity=69, time=1),
    Message('control_change', channel=6, control=11, value=67, time=11),
    Message('control_change', channel=6, control=11, value=62, time=0),
    Message('control_change', channel=6, control=11, value=59, time=2),
    Message('control_change', channel=6, control=11, value=57, time=0),
    Message('control_change', channel=6, control=11, value=53, time=3),
    Message('control_change', channel=6, control=11, value=50, time=2),
    Message('control_change', channel=6, control=11, value=50, time=18),
    Message('control_change', channel=6, control=11, value=48, time=0),
    Message('control_change', channel=6, control=11, value=47, time=1),
    Message('control_change', channel=6, control=11, value=46, time=4),
    Message('control_change', channel=6, control=11, value=46, time=12),
    Message('control_change', channel=6, control=11, value=44, time=0),
    Message('control_change', channel=6, control=1, value=0, time=7),
    Message('control_change', channel=6, control=1, value=5, time=0),
    Message('control_change', channel=6, control=1, value=9, time=1),
    Message('control_change', channel=6, control=1, value=13, time=0),
    Message('control_change', channel=6, control=1, value=25, time=3),
    Message('control_change', channel=6, control=1, value=36, time=2),
    Message('control_change', channel=6, control=1, value=46, time=2),
    Message('control_change', channel=6, control=1, value=58, time=2),
    Message('control_change', channel=6, control=1, value=73, time=2),
    Message('control_change', channel=6, control=1, value=77, time=1),
    Message('control_change', channel=6, control=1, value=85, time=1),
    Message('control_change', channel=6, control=1, value=98, time=2),
    Message('control_change', channel=6, control=1, value=118, time=2),
    Message('control_change', channel=6, control=1, value=127, time=2),
    Message('control_change', channel=6, control=11, value=44, time=9),
    Message('control_change', channel=6, control=11, value=48, time=0),
    Message('control_change', channel=6, control=11, value=50, time=5),
    Message('control_change', channel=6, control=11, value=52, time=1),
    Message('control_change', channel=6, control=11, value=52, time=2),
    Message('control_change', channel=6, control=11, value=53, time=3),
    Message('control_change', channel=6, control=1, value=127, time=5),
    Message('control_change', channel=6, control=1, value=116, time=0),
    Message('control_change', channel=6, control=1, value=56, time=2),
    Message('control_change', channel=6, control=1, value=14, time=2),
    Message('control_change', channel=6, control=11, value=55, time=0),
    Message('control_change', channel=6, control=1, value=0, time=0),
    Message('control_change', channel=6, control=11, value=56, time=2),
    Message('control_change', channel=6, control=11, value=56, time=19),
    Message('control_change', channel=6, control=11, value=58, time=0),
    Message('note_off', channel=6, note=77, velocity=64, time=48),
    Message('note_off', channel=6, note=69, velocity=64, time=1),
    Message('note_off', channel=6, note=71, velocity=64, time=0),
    Message('note_on', channel=6, note=25, velocity=59, time=0),
    Message('note_off', channel=6, note=74, velocity=64, time=1),
    Message('note_on', channel=6, note=27, velocity=58, time=1),
    Message('note_on', channel=6, note=29, velocity=49, time=1),
    Message('note_off', channel=6, note=79, velocity=64, time=1),
    Message('note_on', channel=6, note=30, velocity=51, time=1),
    Message('note_on', channel=6, note=32, velocity=89, time=1),
    Message('control_change', channel=6, control=11, value=58, time=1),
    Message('control_change', channel=6, control=11, value=61, time=0),
    Message('note_off', channel=6, note=25, velocity=64, time=0),
    Message('control_change', channel=6, control=11, value=62, time=2),
    Message('note_on', channel=6, note=34, velocity=100, time=0),
    Message('note_off', channel=6, note=83, velocity=64, time=0),
    Message('note_off', channel=6, note=27, velocity=64, time=2),
    Message('note_on', channel=6, note=36, velocity=100, time=1),
    Message('control_change', channel=6, control=11, value=67, time=1),
    Message('note_off', channel=6, note=29, velocity=64, time=1),
    Message('note_on', channel=6, note=37, velocity=100, time=1),
    Message('note_off', channel=6, note=30, velocity=64, time=3),
    Message('note_on', channel=6, note=39, velocity=100, time=0),
    Message('note_off', channel=6, note=32, velocity=64, time=2),
    Message('note_on', channel=6, note=41, velocity=96, time=3),
    Message('note_off', channel=6, note=34, velocity=64, time=1),
    Message('note_on', channel=6, note=42, velocity=96, time=0),
    Message('note_off', channel=6, note=36, velocity=64, time=2),
    Message('note_on', channel=6, note=44, velocity=96, time=3),
    Message('note_off', channel=6, note=37, velocity=64, time=0),
    Message('note_on', channel=6, note=46, velocity=93, time=2),
    Message('note_off', channel=6, note=39, velocity=64, time=1),
    Message('note_on', channel=6, note=48, velocity=89, time=2),
    Message('note_off', channel=6, note=41, velocity=64, time=0),
    Message('note_on', channel=6, note=49, velocity=87, time=2),
    Message('note_off', channel=6, note=42, velocity=64, time=1),
    Message('note_on', channel=6, note=51, velocity=87, time=2),
    Message('note_off', channel=6, note=44, velocity=64, time=0),
    Message('note_off', channel=6, note=46, velocity=64, time=3),
    Message('note_on', channel=6, note=53, velocity=71, time=0),
    Message('note_off', channel=6, note=48, velocity=64, time=2),
    Message('note_on', channel=6, note=54, velocity=60, time=1),
    Message('note_off', channel=6, note=49, velocity=64, time=2),
    Message('note_on', channel=6, note=56, velocity=64, time=1),
    Message('note_off', channel=6, note=51, velocity=64, time=1),
    Message('note_on', channel=6, note=58, velocity=74, time=1),
    Message('note_off', channel=6, note=53, velocity=64, time=1),
    Message('note_on', channel=6, note=60, velocity=68, time=2),
    Message('note_off', channel=6, note=54, velocity=64, time=1),
    Message('note_on', channel=6, note=61, velocity=67, time=1),
    Message('note_off', channel=6, note=56, velocity=64, time=1),
    Message('note_off', channel=6, note=58, velocity=64, time=1),
    Message('note_on', channel=6, note=63, velocity=70, time=0),
    Message('note_on', channel=6, note=65, velocity=90, time=2),
    Message('note_off', channel=6, note=60, velocity=64, time=1),
    Message('note_on', channel=6, note=86, velocity=102, time=0),
    Message('note_on', channel=6, note=82, velocity=90, time=0),
    Message('note_on', channel=6, note=91, velocity=107, time=1),
    Message('note_on', channel=6, note=94, velocity=104, time=0),
    Message('note_on', channel=6, note=80, velocity=95, time=0),
    Message('note_off', channel=6, note=61, velocity=64, time=0),
    Message('note_on', channel=6, note=92, velocity=107, time=0),
    Message('note_on', channel=6, note=66, velocity=96, time=1),
    Message('note_on', channel=6, note=84, velocity=95, time=0),
    Message('note_on', channel=6, note=88, velocity=88, time=0),
    Message('note_on', channel=6, note=87, velocity=107, time=0),
    Message('note_off', channel=6, note=63, velocity=64, time=1),
    Message('note_off', channel=6, note=88, velocity=64, time=0),
    Message('note_off', channel=6, note=92, velocity=64, time=1),
    Message('note_on', channel=6, note=68, velocity=95, time=0),
    Message('note_on', channel=6, note=89, velocity=89, time=0),
    Message('note_off', channel=6, note=65, velocity=64, time=0),
    Message('note_on', channel=6, note=70, velocity=95, time=2),
    Message('note_off', channel=6, note=66, velocity=64, time=0),
    Message('note_off', channel=6, note=68, velocity=64, time=1),
    Message('note_off', channel=6, note=70, velocity=64, time=1),
    Message('note_off', channel=6, note=89, velocity=64, time=1),
    Message('note_off', channel=6, note=86, velocity=64, time=0),
    Message('note_off', channel=6, note=80, velocity=64, time=20),
    Message('note_off', channel=6, note=84, velocity=64, time=2),
    Message('note_on', channel=6, note=92, velocity=61, time=0),
    Message('control_change', channel=6, control=11, value=67, time=1),
    Message('control_change', channel=6, control=11, value=65, time=0),
    Message('note_on', channel=6, note=90, velocity=59, time=1),
    Message('note_off', channel=6, note=82, velocity=64, time=0),
    Message('control_change', channel=6, control=11, value=62, time=2),
    Message('note_on', channel=6, note=89, velocity=52, time=0),
    Message('note_on', channel=6, note=88, velocity=62, time=1),
    Message('note_off', channel=6, note=94, velocity=64, time=0),
    Message('note_off', channel=6, note=91, velocity=64, time=5),
    Message('note_off', channel=6, note=92, velocity=64, time=0),
    Message('note_on', channel=6, note=85, velocity=40, time=1),
    Message('note_off', channel=6, note=90, velocity=64, time=3),
    Message('control_change', channel=6, control=11, value=62, time=2),
    Message('control_change', channel=6, control=11, value=67, time=0),
    Message('note_off', channel=6, note=89, velocity=64, time=1),
    Message('note_off', channel=6, note=88, velocity=64, time=0),
    Message('note_off', channel=6, note=87, velocity=64, time=1),
    Message('note_on', channel=6, note=84, velocity=5, time=2),
    Message('note_off', channel=6, note=85, velocity=64, time=2),
    Message('note_on', channel=6, note=82, velocity=1, time=1),
    Message('note_off', channel=6, note=84, velocity=64, time=2),
    Message('note_on', channel=6, note=80, velocity=1, time=2),
    Message('note_off', channel=6, note=82, velocity=64, time=3),
    Message('note_on', channel=6, note=78, velocity=4, time=1),
    Message('note_off', channel=6, note=80, velocity=64, time=4),
    Message('note_off', channel=6, note=78, velocity=64, time=2),
    MetaMessage('end_of_track', time=0)]),
  MidiTrack([
    MetaMessage('track_name', name='2Tp Always Fall/Gliss', time=0),
    MetaMessage('channel_prefix', channel=7, time=0),
    Message('program_change', channel=7, program=4, time=0),
    Message('control_change', channel=7, control=0, value=0, time=0),
    Message('control_change', channel=7, control=32, value=1, time=0),
    Message('control_change', channel=7, control=7, value=127, time=0),
    Message('control_change', channel=7, control=10, value=64, time=0),
    Message('control_change', channel=7, control=91, value=0, time=0),
    Message('control_change', channel=7, control=93, value=0, time=0),
    Message('note_on', channel=7, note=68, velocity=107, time=4340),
    Message('note_on', channel=7, note=80, velocity=127, time=0),
    Message('note_off', channel=7, note=80, velocity=64, time=37),
    Message('note_off', channel=7, note=68, velocity=64, time=1),
    Message('control_change', channel=7, control=11, value=127, time=2926),
    Message('control_change', channel=7, control=11, value=103, time=0),
    Message('note_on', channel=7, note=68, velocity=113, time=6),
    Message('note_on', channel=7, note=80, velocity=119, time=0),
    Message('note_off', channel=7, note=68, velocity=64, time=168),
    Message('note_off', channel=7, note=80, velocity=64, time=5),
    Message('note_on', channel=7, note=57, velocity=119, time=1224),
    Message('note_on', channel=7, note=47, velocity=119, time=1),
    Message('note_on', channel=7, note=62, velocity=119, time=0),
    Message('note_off', channel=7, note=57, velocity=64, time=24),
    Message('note_off', channel=7, note=47, velocity=64, time=0),
    Message('note_off', channel=7, note=62, velocity=64, time=0),
    Message('note_on', channel=7, note=58, velocity=119, time=67),
    Message('note_on', channel=7, note=48, velocity=119, time=0),
    Message('note_on', channel=7, note=63, velocity=119, time=0),
    Message('note_off', channel=7, note=48, velocity=64, time=21),
    Message('note_off', channel=7, note=58, velocity=64, time=0),
    Message('note_off', channel=7, note=63, velocity=64, time=0),
    Message('note_on', channel=7, note=59, velocity=127, time=77),
    Message('note_on', channel=7, note=49, velocity=127, time=0),
    Message('note_on', channel=7, note=64, velocity=127, time=1),
    Message('note_off', channel=7, note=59, velocity=64, time=22),
    Message('note_off', channel=7, note=49, velocity=64, time=0),
    Message('note_off', channel=7, note=64, velocity=64, time=0),
    Message('note_on', channel=7, note=75, velocity=119, time=71),
    Message('note_on', channel=7, note=51, velocity=119, time=0),
    Message('note_off', channel=7, note=51, velocity=64, time=156),
    Message('note_off', channel=7, note=75, velocity=64, time=0),
    Message('note_on', channel=7, note=48, velocity=98, time=4),
    Message('note_off', channel=7, note=48, velocity=64, time=24),
    Message('note_on', channel=7, note=46, velocity=66, time=6),
    Message('note_off', channel=7, note=46, velocity=64, time=13),
    Message('note_on', channel=7, note=48, velocity=98, time=5),
    Message('note_off', channel=7, note=48, velocity=64, time=32),
    Message('note_on', channel=7, note=51, velocity=127, time=2),
    Message('note_off', channel=7, note=51, velocity=64, time=21),
    MetaMessage('end_of_track', time=0)]),
  MidiTrack([
    MetaMessage('track_name', name='Berlin Piano', time=0),
    MetaMessage('channel_prefix', channel=8, time=0),
    Message('program_change', channel=8, program=16, time=0),
    Message('control_change', channel=8, control=0, value=0, time=0),
    Message('control_change', channel=8, control=32, value=0, time=0),
    Message('control_change', channel=8, control=7, value=127, time=0),
    Message('control_change', channel=8, control=10, value=64, time=0),
    Message('control_change', channel=8, control=91, value=20, time=0),
    Message('control_change', channel=8, control=93, value=0, time=0),
    Message('control_change', channel=8, control=21, value=0, time=38),
    Message('control_change', channel=8, control=21, value=0, time=0),
    Message('control_change', channel=8, control=17, value=0, time=2),
    Message('control_change', channel=8, control=17, value=55, time=0),
    Message('control_change', channel=8, control=18, value=0, time=4),
    Message('control_change', channel=8, control=18, value=0, time=0),
    Message('control_change', channel=8, control=11, value=127, time=0),
    Message('control_change', channel=8, control=11, value=127, time=0),
    Message('control_change', channel=8, control=19, value=0, time=4),
    Message('control_change', channel=8, control=19, value=0, time=0),
    Message('control_change', channel=8, control=20, value=0, time=3),
    Message('control_change', channel=8, control=20, value=0, time=0),
    Message('control_change', channel=8, control=91, value=20, time=10),
    Message('control_change', channel=8, control=91, value=25, time=0),
    Message('control_change', channel=8, control=64, value=0, time=16),
    Message('control_change', channel=8, control=64, value=33, time=0),
    Message('control_change', channel=8, control=64, value=40, time=4),
    Message('note_on', channel=8, note=80, velocity=61, time=0),
    Message('control_change', channel=8, control=64, value=127, time=0),
    Message('note_on', channel=8, note=85, velocity=75, time=15),
    Message('note_off', channel=8, note=80, velocity=64, time=2),
    Message('note_off', channel=8, note=85, velocity=64, time=12),
    Message('note_on', channel=8, note=87, velocity=92, time=1),
    Message('note_off', channel=8, note=87, velocity=64, time=12),
    Message('note_on', channel=8, note=92, velocity=107, time=2),
    Message('note_on', channel=8, note=87, velocity=104, time=12),
    Message('note_off', channel=8, note=92, velocity=64, time=4),
    Message('note_on', channel=8, note=85, velocity=104, time=8),
    Message('note_off', channel=8, note=87, velocity=64, time=4),
    Message('note_off', channel=8, note=85, velocity=64, time=7),
    Message('note_on', channel=8, note=80, velocity=102, time=0),
    Message('note_off', channel=8, note=80, velocity=64, time=8),
    Message('note_on', channel=8, note=75, velocity=107, time=4),
    Message('note_on', channel=8, note=73, velocity=107, time=13),
    Message('note_off', channel=8, note=75, velocity=64, time=5),
    Message('note_off', channel=8, note=73, velocity=64, time=4),
    Message('note_on', channel=8, note=68, velocity=107, time=3),
    Message('note_off', channel=8, note=68, velocity=64, time=6),
    Message('note_on', channel=8, note=63, velocity=93, time=7),
    Message('note_on', channel=8, note=61, velocity=102, time=10),
    Message('note_off', channel=8, note=63, velocity=64, time=2),
    Message('note_off', channel=8, note=61, velocity=64, time=7),
    Message('note_on', channel=8, note=56, velocity=102, time=3),
    Message('note_off', channel=8, note=56, velocity=64, time=11),
    Message('note_on', channel=8, note=51, velocity=90, time=6),
    Message('note_on', channel=8, note=49, velocity=98, time=9),
    Message('note_off', channel=8, note=51, velocity=64, time=1),
    Message('note_off', channel=8, note=49, velocity=64, time=9),
    Message('note_on', channel=8, note=44, velocity=100, time=4),
    Message('note_off', channel=8, note=44, velocity=64, time=10),
    Message('note_on', channel=8, note=37, velocity=107, time=1),
    Message('note_on', channel=8, note=25, velocity=119, time=16),
    Message('note_off', channel=8, note=37, velocity=64, time=16),
    Message('note_off', channel=8, note=25, velocity=64, time=4),
    Message('control_change', channel=8, control=91, value=25, time=279),
    Message('control_change', channel=8, control=91, value=24, time=0),
    Message('control_change', channel=8, control=91, value=25, time=1),
    Message('control_change', channel=8, control=91, value=25, time=1),
    Message('control_change', channel=8, control=91, value=26, time=1),
    Message('control_change', channel=8, control=91, value=27, time=2),
    Message('control_change', channel=8, control=91, value=28, time=2),
    Message('control_change', channel=8, control=91, value=29, time=2),
    Message('control_change', channel=8, control=91, value=30, time=3),
    Message('control_change', channel=8, control=91, value=31, time=1),
    Message('control_change', channel=8, control=91, value=31, time=1),
    Message('control_change', channel=8, control=91, value=32, time=1),
    Message('control_change', channel=8, control=91, value=33, time=4),
    Message('control_change', channel=8, control=91, value=34, time=0),
    Message('control_change', channel=8, control=91, value=35, time=1),
    Message('control_change', channel=8, control=91, value=36, time=3),
    Message('control_change', channel=8, control=91, value=38, time=1),
    Message('control_change', channel=8, control=91, value=38, time=2),
    Message('control_change', channel=8, control=91, value=39, time=0),
    Message('control_change', channel=8, control=91, value=40, time=4),
    Message('control_change', channel=8, control=91, value=41, time=0),
    Message('control_change', channel=8, control=91, value=42, time=2),
    Message('control_change', channel=8, control=91, value=43, time=2),
    Message('control_change', channel=8, control=91, value=44, time=2),
    Message('control_change', channel=8, control=91, value=45, time=1),
    Message('control_change', channel=8, control=91, value=45, time=1),
    Message('control_change', channel=8, control=91, value=46, time=2),
    Message('control_change', channel=8, control=91, value=47, time=1),
    Message('control_change', channel=8, control=91, value=48, time=2),
    Message('control_change', channel=8, control=91, value=49, time=2),
    Message('control_change', channel=8, control=91, value=50, time=2),
    Message('control_change', channel=8, control=91, value=52, time=2),
    Message('control_change', channel=8, control=91, value=52, time=1),
    Message('control_change', channel=8, control=91, value=53, time=1),
    Message('control_change', channel=8, control=91, value=54, time=3),
    Message('control_change', channel=8, control=91, value=55, time=1),
    Message('control_change', channel=8, control=91, value=56, time=2),
    Message('control_change', channel=8, control=91, value=57, time=2),
    Message('control_change', channel=8, control=91, value=58, time=2),
    Message('control_change', channel=8, control=91, value=58, time=1),
    Message('control_change', channel=8, control=91, value=59, time=1),
    Message('control_change', channel=8, control=91, value=60, time=2),
    Message('control_change', channel=8, control=91, value=61, time=1),
    Message('control_change', channel=8, control=91, value=62, time=2),
    Message('control_change', channel=8, control=91, value=63, time=4),
    Message('control_change', channel=8, control=91, value=64, time=0),
    Message('control_change', channel=8, control=91, value=64, time=2),
    Message('control_change', channel=8, control=91, value=65, time=0),
    Message('control_change', channel=8, control=91, value=67, time=4),
    Message('control_change', channel=8, control=91, value=68, time=1),
    Message('control_change', channel=8, control=91, value=69, time=1),
    Message('control_change', channel=8, control=91, value=70, time=2),
    Message('control_change', channel=8, control=91, value=71, time=2),
    Message('control_change', channel=8, control=91, value=72, time=2),
    Message('control_change', channel=8, control=91, value=73, time=1),
    Message('control_change', channel=8, control=91, value=74, time=3),
    Message('control_change', channel=8, control=91, value=75, time=1),
    Message('control_change', channel=8, control=91, value=76, time=2),
    Message('control_change', channel=8, control=91, value=77, time=2),
    Message('control_change', channel=8, control=91, value=78, time=2),
    Message('control_change', channel=8, control=91, value=78, time=1),
    Message('control_change', channel=8, control=91, value=79, time=1),
    Message('control_change', channel=8, control=91, value=81, time=2),
    Message('control_change', channel=8, control=91, value=82, time=2),
    Message('control_change', channel=8, control=91, value=83, time=2),
    Message('control_change', channel=8, control=91, value=84, time=2),
    Message('control_change', channel=8, control=91, value=85, time=1),
    Message('control_change', channel=8, control=91, value=85, time=2),
    Message('control_change', channel=8, control=91, value=86, time=1),
    Message('control_change', channel=8, control=91, value=87, time=2),
    Message('control_change', channel=8, control=91, value=88, time=1),
    Message('control_change', channel=8, control=91, value=89, time=2),
    Message('control_change', channel=8, control=91, value=90, time=2),
    Message('control_change', channel=8, control=91, value=91, time=2),
    Message('control_change', channel=8, control=91, value=91, time=2),
    Message('control_change', channel=8, control=91, value=92, time=0),
    Message('control_change', channel=8, control=91, value=93, time=2),
    Message('control_change', channel=8, control=91, value=95, time=2),
    Message('control_change', channel=8, control=91, value=96, time=2),
    Message('control_change', channel=8, control=91, value=97, time=2),
    Message('control_change', channel=8, control=91, value=98, time=2),
    Message('control_change', channel=8, control=91, value=99, time=1),
    Message('control_change', channel=8, control=91, value=99, time=1),
    Message('control_change', channel=8, control=91, value=100, time=1),
    Message('control_change', channel=8, control=91, value=101, time=3),
    Message('control_change', channel=8, control=91, value=102, time=1),
    Message('control_change', channel=8, control=91, value=103, time=2),
    Message('control_change', channel=8, control=91, value=104, time=4),
    Message('control_change', channel=8, control=91, value=105, time=0),
    Message('control_change', channel=8, control=91, value=105, time=1),
    Message('control_change', channel=8, control=91, value=106, time=1),
    Message('control_change', channel=8, control=91, value=107, time=3),
    Message('control_change', channel=8, control=91, value=109, time=1),
    Message('control_change', channel=8, control=91, value=110, time=2),
    Message('control_change', channel=8, control=91, value=111, time=2),
    Message('control_change', channel=8, control=91, value=112, time=2),
    Message('control_change', channel=8, control=91, value=112, time=1),
    Message('control_change', channel=8, control=91, value=113, time=1),
    Message('control_change', channel=8, control=91, value=114, time=1),
    Message('control_change', channel=8, control=91, value=115, time=2),
    Message('control_change', channel=8, control=91, value=116, time=2),
    Message('control_change', channel=8, control=91, value=117, time=2),
    Message('control_change', channel=8, control=91, value=118, time=2),
    Message('control_change', channel=8, control=91, value=118, time=2),
    Message('control_change', channel=8, control=91, value=119, time=0),
    Message('control_change', channel=8, control=91, value=120, time=2),
    Message('control_change', channel=8, control=91, value=121, time=2),
    Message('control_change', channel=8, control=91, value=123, time=2),
    Message('control_change', channel=8, control=91, value=124, time=2),
    Message('control_change', channel=8, control=91, value=125, time=2),
    Message('control_change', channel=8, control=91, value=126, time=2),
    Message('control_change', channel=8, control=91, value=127, time=1),
    Message('control_change', channel=8, control=91, value=127, time=1121),
    Message('control_change', channel=8, control=91, value=8, time=0),
    Message('control_change', channel=8, control=64, value=127, time=2),
    Message('control_change', channel=8, control=64, value=0, time=0),
    Message('note_on', channel=8, note=55, velocity=55, time=4360),
    Message('note_off', channel=8, note=55, velocity=64, time=13),
    Message('note_on', channel=8, note=57, velocity=74, time=3),
    Message('note_off', channel=8, note=57, velocity=64, time=15),
    Message('note_on', channel=8, note=59, velocity=93, time=3),
    Message('note_on', channel=8, note=61, velocity=99, time=13),
    Message('note_off', channel=8, note=59, velocity=64, time=0),
    Message('note_off', channel=8, note=61, velocity=64, time=12),
    Message('note_on', channel=8, note=63, velocity=107, time=5),
    Message('note_off', channel=8, note=63, velocity=64, time=13),
    Message('note_on', channel=8, note=64, velocity=104, time=4),
    Message('note_off', channel=8, note=64, velocity=64, time=13),
    Message('note_on', channel=8, note=66, velocity=119, time=3),
    Message('note_on', channel=8, note=68, velocity=96, time=3),
    Message('note_off', channel=8, note=68, velocity=64, time=3),
    Message('note_off', channel=8, note=66, velocity=64, time=9),
    Message('note_on', channel=8, note=67, velocity=113, time=5),
    Message('note_off', channel=8, note=67, velocity=64, time=23),
    Message('note_on', channel=8, note=69, velocity=83, time=3),
    Message('note_on', channel=8, note=67, velocity=73, time=9),
    Message('note_off', channel=8, note=69, velocity=64, time=4),
    Message('note_on', channel=8, note=66, velocity=90, time=10),
    Message('note_off', channel=8, note=67, velocity=64, time=2),
    Message('note_off', channel=8, note=66, velocity=64, time=16),
    Message('note_on', channel=8, note=64, velocity=98, time=7),
    Message('note_on', channel=8, note=62, velocity=83, time=26),
    Message('note_off', channel=8, note=64, velocity=64, time=1),
    Message('note_on', channel=8, note=63, velocity=68, time=9),
    Message('note_off', channel=8, note=62, velocity=64, time=5),
    Message('note_off', channel=8, note=63, velocity=64, time=17),
    Message('note_on', channel=8, note=61, velocity=62, time=6),
    Message('note_off', channel=8, note=61, velocity=64, time=26),
    Message('note_on', channel=8, note=59, velocity=49, time=9),
    Message('note_off', channel=8, note=59, velocity=64, time=45),
    Message('note_on', channel=8, note=24, velocity=113, time=544),
    Message('note_on', channel=8, note=26, velocity=113, time=0),
    Message('note_on', channel=8, note=27, velocity=107, time=1),
    Message('note_on', channel=8, note=30, velocity=107, time=2),
    Message('note_on', channel=8, note=25, velocity=107, time=0),
    Message('note_on', channel=8, note=28, velocity=104, time=0),
    Message('note_on', channel=8, note=29, velocity=107, time=0),
    Message('note_on', channel=8, note=32, velocity=113, time=0),
    Message('note_on', channel=8, note=31, velocity=96, time=1),
    Message('note_on', channel=8, note=33, velocity=104, time=0),
    Message('note_off', channel=8, note=25, velocity=64, time=0),
    Message('note_on', channel=8, note=35, velocity=98, time=1),
    Message('note_on', channel=8, note=36, velocity=102, time=0),
    Message('note_off', channel=8, note=27, velocity=64, time=0),
    Message('control_change', channel=8, control=64, value=0, time=5),
    Message('control_change', channel=8, control=64, value=51, time=0),
    Message('note_off', channel=8, note=35, velocity=64, time=0),
    Message('note_off', channel=8, note=36, velocity=64, time=0),
    Message('note_off', channel=8, note=32, velocity=64, time=1),
    Message('control_change', channel=8, control=64, value=66, time=1),
    Message('note_off', channel=8, note=28, velocity=64, time=1),
    Message('note_off', channel=8, note=30, velocity=64, time=2),
    Message('note_on', channel=8, note=32, velocity=71, time=1),
    Message('control_change', channel=8, control=64, value=54, time=3),
    Message('note_off', channel=8, note=29, velocity=64, time=0),
    Message('control_change', channel=8, control=64, value=77, time=2),
    Message('note_on', channel=8, note=34, velocity=79, time=1),
    Message('note_off', channel=8, note=32, velocity=64, time=0),
    Message('control_change', channel=8, control=64, value=103, time=1),
    Message('control_change', channel=8, control=64, value=80, time=2),
    Message('note_off', channel=8, note=24, velocity=64, time=0),
    Message('note_on', channel=8, note=35, velocity=39, time=0),
    Message('note_off', channel=8, note=31, velocity=64, time=2),
    Message('control_change', channel=8, control=64, value=91, time=0),
    Message('control_change', channel=8, control=64, value=117, time=2),
    Message('note_off', channel=8, note=34, velocity=64, time=1),
    Message('note_off', channel=8, note=26, velocity=64, time=0),
    Message('note_on', channel=8, note=36, velocity=26, time=1),
    Message('note_on', channel=8, note=37, velocity=69, time=0),
    Message('control_change', channel=8, control=64, value=127, time=0),
    Message('control_change', channel=8, control=64, value=125, time=2),
    Message('note_off', channel=8, note=33, velocity=64, time=0),
    Message('note_off', channel=8, note=35, velocity=64, time=4),
    Message('note_on', channel=8, note=38, velocity=35, time=3),
    Message('note_off', channel=8, note=37, velocity=64, time=0),
    Message('control_change', channel=8, control=64, value=114, time=0),
    Message('note_on', channel=8, note=39, velocity=79, time=0),
    Message('control_change', channel=8, control=64, value=127, time=2),
    Message('note_off', channel=8, note=36, velocity=64, time=1),
    Message('note_on', channel=8, note=40, velocity=43, time=2),
    Message('note_off', channel=8, note=39, velocity=64, time=1),
    Message('note_on', channel=8, note=42, velocity=79, time=1),
    Message('note_off', channel=8, note=38, velocity=64, time=1),
    Message('note_on', channel=8, note=41, velocity=52, time=1),
    Message('note_off', channel=8, note=40, velocity=64, time=4),
    Message('note_on', channel=8, note=43, velocity=55, time=1),
    Message('note_off', channel=8, note=42, velocity=64, time=1),
    Message('note_on', channel=8, note=44, velocity=79, time=3),
    Message('note_off', channel=8, note=41, velocity=64, time=0),
    Message('note_on', channel=8, note=45, velocity=54, time=2),
    Message('note_off', channel=8, note=44, velocity=64, time=0),
    Message('note_off', channel=8, note=43, velocity=64, time=3),
    Message('note_on', channel=8, note=47, velocity=55, time=2),
    Message('note_on', channel=8, note=48, velocity=82, time=2),
    Message('note_off', channel=8, note=45, velocity=64, time=2),
    Message('note_on', channel=8, note=50, velocity=51, time=3),
    Message('note_off', channel=8, note=47, velocity=64, time=1),
    Message('note_on', channel=8, note=52, velocity=52, time=4),
    Message('note_off', channel=8, note=48, velocity=64, time=0),
    Message('note_on', channel=8, note=53, velocity=51, time=5),
    Message('note_off', channel=8, note=50, velocity=64, time=0),
    Message('note_on', channel=8, note=55, velocity=50, time=5),
    Message('note_off', channel=8, note=52, velocity=64, time=0),
    Message('note_off', channel=8, note=53, velocity=64, time=3),
    Message('note_on', channel=8, note=57, velocity=50, time=1),
    Message('note_off', channel=8, note=55, velocity=64, time=3),
    Message('note_on', channel=8, note=59, velocity=50, time=2),
    Message('note_off', channel=8, note=57, velocity=64, time=4),
    Message('note_on', channel=8, note=60, velocity=58, time=0),
    Message('note_off', channel=8, note=59, velocity=64, time=3),
    Message('note_on', channel=8, note=62, velocity=59, time=0),
    Message('note_off', channel=8, note=60, velocity=64, time=4),
    Message('note_on', channel=8, note=64, velocity=59, time=0),
    Message('note_on', channel=8, note=65, velocity=75, time=4),
    Message('note_off', channel=8, note=62, velocity=64, time=0),
    Message('note_off', channel=8, note=64, velocity=64, time=3),
    Message('note_on', channel=8, note=67, velocity=58, time=1),
    Message('note_off', channel=8, note=65, velocity=64, time=3),
    Message('note_on', channel=8, note=69, velocity=55, time=1),
    Message('note_off', channel=8, note=67, velocity=64, time=2),
    Message('note_on', channel=8, note=71, velocity=55, time=3),
    Message('note_off', channel=8, note=69, velocity=64, time=1),
    Message('note_on', channel=8, note=72, velocity=54, time=1),
    Message('note_off', channel=8, note=71, velocity=64, time=3),
    Message('note_on', channel=8, note=74, velocity=55, time=1),
    Message('note_off', channel=8, note=72, velocity=64, time=3),
    Message('note_on', channel=8, note=76, velocity=52, time=1),
    Message('note_off', channel=8, note=74, velocity=64, time=2),
    Message('note_on', channel=8, note=77, velocity=51, time=2),
    Message('note_off', channel=8, note=76, velocity=64, time=4),
    Message('note_on', channel=8, note=79, velocity=51, time=0),
    Message('note_off', channel=8, note=77, velocity=64, time=2),
    Message('note_off', channel=8, note=79, velocity=64, time=3),
    Message('control_change', channel=8, control=64, value=127, time=12),
    Message('control_change', channel=8, control=64, value=0, time=0),
    Message('note_on', channel=8, note=44, velocity=119, time=7),
    Message('note_on', channel=8, note=32, velocity=107, time=0),
    Message('note_on', channel=8, note=34, velocity=90, time=2),
    Message('note_off', channel=8, note=34, velocity=64, time=4),
    Message('note_off', channel=8, note=44, velocity=64, time=6),
    Message('control_change', channel=8, control=64, value=0, time=4),
    Message('control_change', channel=8, control=64, value=127, time=0),
    Message('note_off', channel=8, note=32, velocity=64, time=1),
    Message('control_change', channel=8, control=64, value=117, time=1),
    Message('control_change', channel=8, control=64, value=127, time=2),
    Message('control_change', channel=8, control=64, value=103, time=2),
    Message('control_change', channel=8, control=64, value=106, time=1),
    Message('control_change', channel=8, control=64, value=114, time=1),
    Message('control_change', channel=8, control=64, value=127, time=2),
    Message('control_change', channel=8, control=64, value=107, time=3),
    Message('control_change', channel=8, control=64, value=117, time=3),
    Message('control_change', channel=8, control=64, value=111, time=3),
    Message('control_change', channel=8, control=64, value=107, time=1),
    Message('control_change', channel=8, control=64, value=117, time=2),
    Message('control_change', channel=8, control=64, value=103, time=5),
    Message('control_change', channel=8, control=64, value=114, time=2),
    Message('control_change', channel=8, control=64, value=120, time=2),
    Message('control_change', channel=8, control=64, value=127, time=1),
    Message('note_on', channel=8, note=56, velocity=113, time=0),
    Message('note_on', channel=8, note=51, velocity=119, time=1),
    Message('note_on', channel=8, note=36, velocity=124, time=0),
    Message('note_on', channel=8, note=54, velocity=113, time=1),
    Message('control_change', channel=8, control=64, value=0, time=1),
    Message('note_off', channel=8, note=54, velocity=64, time=1),
    Message('note_on', channel=8, note=52, velocity=100, time=2),
    Message('note_on', channel=8, note=54, velocity=88, time=1),
    Message('note_off', channel=8, note=54, velocity=64, time=3),
    Message('note_off', channel=8, note=51, velocity=64, time=2),
    Message('note_off', channel=8, note=52, velocity=64, time=1),
    Message('note_off', channel=8, note=36, velocity=64, time=5),
    Message('note_off', channel=8, note=56, velocity=64, time=2),
    Message('note_on', channel=8, note=24, velocity=119, time=2),
    Message('note_on', channel=8, note=27, velocity=73, time=4),
    Message('note_off', channel=8, note=27, velocity=64, time=1),
    Message('note_on', channel=8, note=36, velocity=96, time=19),
    Message('note_on', channel=8, note=48, velocity=77, time=2),
    Message('note_on', channel=8, note=30, velocity=50, time=2),
    Message('note_off', channel=8, note=30, velocity=64, time=4),
    Message('note_off', channel=8, note=24, velocity=64, time=2),
    Message('note_off', channel=8, note=48, velocity=64, time=7),
    Message('note_on', channel=8, note=25, velocity=113, time=9),
    Message('note_off', channel=8, note=36, velocity=64, time=4),
    Message('note_on', channel=8, note=37, velocity=107, time=21),
    Message('note_on', channel=8, note=48, velocity=73, time=0),
    Message('note_off', channel=8, note=25, velocity=64, time=17),
    Message('note_on', channel=8, note=26, velocity=102, time=7),
    Message('note_off', channel=8, note=48, velocity=64, time=1),
    Message('note_off', channel=8, note=37, velocity=64, time=0),
    Message('note_on', channel=8, note=56, velocity=85, time=24),
    Message('note_on', channel=8, note=49, velocity=92, time=0),
    Message('note_on', channel=8, note=38, velocity=104, time=2),
    Message('note_on', channel=8, note=30, velocity=44, time=3),
    Message('note_off', channel=8, note=30, velocity=64, time=2),
    Message('note_on', channel=8, note=27, velocity=90, time=15),
    Message('note_on', channel=8, note=50, velocity=80, time=2),
    Message('note_off', channel=8, note=49, velocity=64, time=4),
    Message('note_off', channel=8, note=38, velocity=64, time=0),
    Message('note_off', channel=8, note=56, velocity=64, time=0),
    Message('note_off', channel=8, note=26, velocity=64, time=2),
    Message('note_on', channel=8, note=39, velocity=107, time=17),
    Message('note_on', channel=8, note=51, velocity=119, time=2),
    Message('note_on', channel=8, note=56, velocity=107, time=1),
    Message('note_off', channel=8, note=50, velocity=64, time=3),
    Message('note_off', channel=8, note=51, velocity=64, time=19),
    Message('note_off', channel=8, note=39, velocity=64, time=2),
    Message('note_on', channel=8, note=54, velocity=48, time=3),
    Message('note_on', channel=8, note=51, velocity=73, time=0),
    Message('note_off', channel=8, note=27, velocity=64, time=2),
    Message('note_off', channel=8, note=56, velocity=64, time=3),
    Message('note_off', channel=8, note=51, velocity=64, time=4),
    Message('note_off', channel=8, note=54, velocity=64, time=3),
    Message('note_on', channel=8, note=48, velocity=83, time=9),
    Message('note_on', channel=8, note=31, velocity=95, time=17),
    Message('note_off', channel=8, note=48, velocity=64, time=0),
    Message('note_off', channel=8, note=31, velocity=64, time=5),
    Message('note_on', channel=8, note=49, velocity=90, time=24),
    Message('note_off', channel=8, note=49, velocity=64, time=5),
    Message('note_on', channel=8, note=29, velocity=87, time=21),
    Message('note_off', channel=8, note=29, velocity=64, time=6),
    Message('note_on', channel=8, note=39, velocity=99, time=394),
    Message('note_off', channel=8, note=39, velocity=64, time=18),
    Message('note_on', channel=8, note=44, velocity=113, time=7),
    Message('note_on', channel=8, note=32, velocity=107, time=2),
    Message('note_off', channel=8, note=44, velocity=64, time=37),
    Message('note_on', channel=8, note=48, velocity=82, time=11),
    Message('note_on', channel=8, note=36, velocity=90, time=4),
    Message('note_off', channel=8, note=32, velocity=64, time=1),
    Message('note_off', channel=8, note=48, velocity=64, time=28),
    Message('note_on', channel=8, note=51, velocity=107, time=1),
    Message('note_on', channel=8, note=39, velocity=113, time=0),
    Message('note_off', channel=8, note=36, velocity=64, time=5),
    Message('note_off', channel=8, note=51, velocity=64, time=18),
    Message('note_off', channel=8, note=39, velocity=64, time=1),
    Message('note_on', channel=8, note=53, velocity=107, time=21),
    Message('note_on', channel=8, note=41, velocity=110, time=0),
    Message('note_off', channel=8, note=53, velocity=64, time=20),
    Message('note_off', channel=8, note=41, velocity=64, time=3),
    Message('note_on', channel=8, note=51, velocity=88, time=23),
    Message('note_on', channel=8, note=39, velocity=24, time=2),
    Message('note_off', channel=8, note=51, velocity=64, time=3),
    Message('note_off', channel=8, note=39, velocity=64, time=2),
    Message('note_on', channel=8, note=53, velocity=102, time=12),
    Message('note_on', channel=8, note=41, velocity=82, time=2),
    Message('note_on', channel=8, note=42, velocity=107, time=2),
    Message('note_on', channel=8, note=54, velocity=42, time=4),
    Message('note_off', channel=8, note=41, velocity=64, time=0),
    Message('note_off', channel=8, note=53, velocity=64, time=4),
    Message('note_off', channel=8, note=54, velocity=64, time=16),
    Message('note_off', channel=8, note=42, velocity=64, time=3),
    Message('note_on', channel=8, note=42, velocity=88, time=15),
    Message('note_on', channel=8, note=53, velocity=110, time=2),
    Message('note_on', channel=8, note=41, velocity=102, time=0),
    Message('note_off', channel=8, note=42, velocity=64, time=6),
    Message('note_off', channel=8, note=53, velocity=64, time=19),
    Message('note_off', channel=8, note=41, velocity=64, time=3),
    Message('note_on', channel=8, note=51, velocity=119, time=24),
    Message('note_on', channel=8, note=39, velocity=119, time=0),
    Message('note_off', channel=8, note=39, velocity=64, time=43),
    Message('note_off', channel=8, note=51, velocity=64, time=0),
    Message('note_on', channel=8, note=49, velocity=73, time=3),
    Message('note_on', channel=8, note=37, velocity=60, time=3),
    Message('note_off', channel=8, note=49, velocity=64, time=15),
    Message('note_off', channel=8, note=37, velocity=64, time=4),
    Message('note_on', channel=8, note=35, velocity=82, time=5),
    Message('note_on', channel=8, note=47, velocity=92, time=1),
    Message('note_on', channel=8, note=36, velocity=98, time=4),
    Message('note_on', channel=8, note=48, velocity=90, time=4),
    Message('note_off', channel=8, note=35, velocity=64, time=5),
    Message('note_off', channel=8, note=47, velocity=64, time=2),
    Message('note_off', channel=8, note=48, velocity=64, time=11),
    Message('note_off', channel=8, note=36, velocity=64, time=3),
    Message('note_on', channel=8, note=39, velocity=113, time=19),
    Message('note_on', channel=8, note=51, velocity=113, time=1),
    Message('note_off', channel=8, note=51, velocity=64, time=18),
    Message('note_off', channel=8, note=39, velocity=64, time=1),
    Message('note_on', channel=8, note=41, velocity=113, time=27),
    Message('note_on', channel=8, note=53, velocity=113, time=0),
    Message('note_on', channel=8, note=56, velocity=73, time=4),
    Message('note_off', channel=8, note=56, velocity=64, time=3),
    Message('note_off', channel=8, note=53, velocity=64, time=15),
    Message('note_off', channel=8, note=41, velocity=64, time=2),
    Message('note_on', channel=8, note=39, velocity=46, time=24),
    Message('note_on', channel=8, note=51, velocity=52, time=1),
    Message('note_off', channel=8, note=51, velocity=64, time=8),
    Message('note_off', channel=8, note=39, velocity=64, time=0),
    Message('note_on', channel=8, note=44, velocity=119, time=15),
    Message('note_on', channel=8, note=56, velocity=113, time=1),
    Message('control_change', channel=8, control=64, value=0, time=8),
    Message('control_change', channel=8, control=64, value=40, time=0),
    Message('control_change', channel=8, control=64, value=70, time=2),
    Message('control_change', channel=8, control=64, value=107, time=2),
    Message('control_change', channel=8, control=64, value=117, time=2),
    Message('note_off', channel=8, note=44, velocity=64, time=3),
    Message('control_change', channel=8, control=64, value=103, time=1),
    Message('control_change', channel=8, control=64, value=103, time=0),
    Message('control_change', channel=8, control=64, value=85, time=2),
    Message('control_change', channel=8, control=64, value=103, time=2),
    Message('note_off', channel=8, note=56, velocity=64, time=1),
    Message('control_change', channel=8, control=64, value=122, time=3),
    Message('control_change', channel=8, control=64, value=109, time=4),
    Message('control_change', channel=8, control=64, value=107, time=0),
    Message('control_change', channel=8, control=64, value=127, time=3),
    Message('control_change', channel=8, control=64, value=127, time=154),
    Message('control_change', channel=8, control=64, value=0, time=0),
    Message('control_change', channel=8, control=91, value=8, time=180),
    Message('control_change', channel=8, control=91, value=28, time=0),
    Message('control_change', channel=8, control=17, value=55, time=26),
    Message('control_change', channel=8, control=17, value=33, time=0),
    Message('note_on', channel=8, note=61, velocity=92, time=65),
    Message('note_on', channel=8, note=68, velocity=96, time=0),
    Message('note_on', channel=8, note=72, velocity=90, time=0),
    Message('note_on', channel=8, note=96, velocity=127, time=2),
    Message('note_off', channel=8, note=96, velocity=64, time=17),
    Message('note_on', channel=8, note=92, velocity=127, time=29),
    Message('note_on', channel=8, note=94, velocity=90, time=1),
    Message('note_off', channel=8, note=94, velocity=64, time=3),
    Message('note_off', channel=8, note=92, velocity=64, time=12),
    Message('note_off', channel=8, note=72, velocity=64, time=27),
    Message('note_on', channel=8, note=88, velocity=98, time=11),
    Message('note_off', channel=8, note=88, velocity=64, time=4),
    Message('note_off', channel=8, note=61, velocity=64, time=12),
    Message('note_on', channel=8, note=94, velocity=119, time=4),
    Message('note_off', channel=8, note=68, velocity=64, time=3),
    Message('note_off', channel=8, note=94, velocity=64, time=18),
    Message('note_on', channel=8, note=63, velocity=66, time=13),
    Message('note_on', channel=8, note=60, velocity=83, time=0),
    Message('note_on', channel=8, note=91, velocity=119, time=1),
    Message('note_on', channel=8, note=70, velocity=85, time=0),
    Message('note_off', channel=8, note=70, velocity=64, time=10),
    Message('note_off', channel=8, note=60, velocity=64, time=1),
    Message('note_off', channel=8, note=63, velocity=64, time=4),
    Message('note_off', channel=8, note=91, velocity=64, time=1),
    Message('note_on', channel=8, note=92, velocity=119, time=28),
    Message('note_off', channel=8, note=92, velocity=64, time=15),
    Message('note_on', channel=8, note=89, velocity=119, time=30),
    Message('note_on', channel=8, note=58, velocity=92, time=2),
    Message('note_on', channel=8, note=61, velocity=79, time=0),
    Message('note_on', channel=8, note=68, velocity=96, time=1),
    Message('note_off', channel=8, note=61, velocity=64, time=8),
    Message('note_off', channel=8, note=68, velocity=64, time=1),
    Message('note_off', channel=8, note=58, velocity=64, time=0),
    Message('note_off', channel=8, note=89, velocity=64, time=3),
    Message('note_on', channel=8, note=85, velocity=102, time=5),
    Message('note_off', channel=8, note=85, velocity=64, time=25),
    Message('note_on', channel=8, note=82, velocity=90, time=9),
    Message('note_off', channel=8, note=82, velocity=64, time=2),
    Message('note_on', channel=8, note=87, velocity=119, time=17),
    Message('note_on', channel=8, note=90, velocity=96, time=2),
    Message('note_off', channel=8, note=90, velocity=64, time=1),
    Message('note_off', channel=8, note=87, velocity=64, time=17),
    Message('note_on', channel=8, note=91, velocity=119, time=9),
    Message('note_off', channel=8, note=91, velocity=64, time=15),
    Message('note_on', channel=8, note=63, velocity=73, time=27),
    Message('note_on', channel=8, note=70, velocity=85, time=0),
    Message('note_on', channel=8, note=60, velocity=71, time=1),
    Message('note_off', channel=8, note=60, velocity=64, time=4),
    Message('note_off', channel=8, note=70, velocity=64, time=0),
    Message('note_off', channel=8, note=63, velocity=64, time=2),
    Message('note_on', channel=8, note=89, velocity=127, time=12),
    Message('note_off', channel=8, note=89, velocity=64, time=17),
    Message('note_on', channel=8, note=85, velocity=113, time=10),
    Message('note_off', channel=8, note=85, velocity=64, time=17),
    Message('note_on', channel=8, note=84, velocity=80, time=3),
    Message('note_off', channel=8, note=84, velocity=64, time=18),
    Message('note_on', channel=8, note=63, velocity=85, time=9),
    Message('note_on', channel=8, note=82, velocity=88, time=2),
    Message('note_on', channel=8, note=68, velocity=73, time=0),
    Message('note_off', channel=8, note=82, velocity=64, time=1),
    Message('note_off', channel=8, note=68, velocity=64, time=4),
    Message('note_off', channel=8, note=63, velocity=64, time=1),
    Message('note_on', channel=8, note=84, velocity=95, time=16),
    Message('note_off', channel=8, note=84, velocity=64, time=9),
    Message('note_on', channel=8, note=85, velocity=113, time=5),
    Message('note_off', channel=8, note=85, velocity=64, time=7),
    Message('note_on', channel=8, note=86, velocity=104, time=7),
    Message('note_off', channel=8, note=86, velocity=64, time=8),
    Message('note_on', channel=8, note=87, velocity=107, time=11),
    Message('note_off', channel=8, note=87, velocity=64, time=13),
    Message('note_on', channel=8, note=85, velocity=119, time=12),
    Message('note_off', channel=8, note=85, velocity=64, time=16),
    Message('note_on', channel=8, note=84, velocity=90, time=7),
    Message('note_off', channel=8, note=84, velocity=64, time=7),
    Message('note_on', channel=8, note=85, velocity=96, time=1),
    Message('note_off', channel=8, note=85, velocity=64, time=6),
    Message('note_on', channel=8, note=84, velocity=87, time=2),
    Message('note_on', channel=8, note=82, velocity=96, time=9),
    Message('note_off', channel=8, note=84, velocity=64, time=3),
    Message('note_off', channel=8, note=82, velocity=64, time=7),
    Message('note_on', channel=8, note=80, velocity=92, time=9),
    Message('note_off', channel=8, note=80, velocity=64, time=23),
    Message('note_on', channel=8, note=79, velocity=113, time=22),
    Message('note_off', channel=8, note=79, velocity=64, time=22),
    Message('note_on', channel=8, note=82, velocity=113, time=8),
    Message('note_on', channel=8, note=80, velocity=59, time=19),
    Message('note_off', channel=8, note=82, velocity=64, time=0),
    Message('note_off', channel=8, note=80, velocity=64, time=26),
    Message('note_on', channel=8, note=77, velocity=107, time=5),
    Message('note_on', channel=8, note=61, velocity=92, time=51),
    Message('note_on', channel=8, note=65, velocity=89, time=0),
    Message('note_off', channel=8, note=61, velocity=64, time=3),
    Message('note_off', channel=8, note=65, velocity=64, time=4),
    Message('note_on', channel=8, note=55, velocity=74, time=60),
    Message('note_on', channel=8, note=60, velocity=57, time=1),
    Message('note_off', channel=8, note=60, velocity=64, time=5),
    Message('note_off', channel=8, note=55, velocity=64, time=2),
    Message('note_on', channel=8, note=61, velocity=107, time=65),
    Message('note_on', channel=8, note=56, velocity=102, time=0),
    Message('note_on', channel=8, note=58, velocity=92, time=1),
    Message('note_off', channel=8, note=77, velocity=64, time=2),
    Message('note_off', channel=8, note=58, velocity=64, time=1),
    Message('note_off', channel=8, note=56, velocity=64, time=2),
    Message('note_off', channel=8, note=61, velocity=64, time=0),
    Message('note_on', channel=8, note=56, velocity=96, time=58),
    Message('note_on', channel=8, note=61, velocity=102, time=0),
    Message('note_on', channel=8, note=67, velocity=100, time=0),
    Message('note_off', channel=8, note=61, velocity=64, time=6),
    Message('note_off', channel=8, note=56, velocity=64, time=1),
    Message('note_off', channel=8, note=67, velocity=64, time=0),
    Message('note_on', channel=8, note=72, velocity=73, time=45),
    Message('note_off', channel=8, note=72, velocity=64, time=3),
    Message('note_on', channel=8, note=56, velocity=96, time=26),
    Message('note_on', channel=8, note=61, velocity=107, time=1),
    Message('note_on', channel=8, note=67, velocity=102, time=0),
    Message('note_off', channel=8, note=61, velocity=64, time=5),
    Message('note_off', channel=8, note=67, velocity=64, time=1),
    Message('note_off', channel=8, note=56, velocity=64, time=1),
    Message('note_on', channel=8, note=72, velocity=89, time=12),
    Message('note_off', channel=8, note=72, velocity=64, time=5),
    Message('note_on', channel=8, note=82, velocity=107, time=5),
    Message('note_off', channel=8, note=82, velocity=64, time=10),
    Message('note_on', channel=8, note=84, velocity=119, time=6),
    Message('note_off', channel=8, note=84, velocity=64, time=13),
    Message('note_on', channel=8, note=79, velocity=104, time=3),
    Message('note_on', channel=8, note=56, velocity=66, time=1),
    Message('note_on', channel=8, note=61, velocity=92, time=2),
    Message('note_off', channel=8, note=56, velocity=64, time=7),
    Message('note_off', channel=8, note=61, velocity=64, time=0),
    Message('note_off', channel=8, note=79, velocity=64, time=1),
    Message('note_on', channel=8, note=82, velocity=113, time=5),
    Message('note_off', channel=8, note=82, velocity=64, time=13),
    Message('note_on', channel=8, note=77, velocity=100, time=3),
    Message('note_off', channel=8, note=77, velocity=64, time=11),
    Message('note_on', channel=8, note=79, velocity=110, time=6),
    Message('note_off', channel=8, note=79, velocity=64, time=13),
    Message('note_on', channel=8, note=75, velocity=92, time=2),
    Message('note_off', channel=8, note=75, velocity=64, time=12),
    Message('note_on', channel=8, note=77, velocity=102, time=4),
    Message('note_on', channel=8, note=56, velocity=66, time=1),
    Message('note_on', channel=8, note=61, velocity=90, time=0),
    Message('note_on', channel=8, note=67, velocity=78, time=1),
    Message('note_off', channel=8, note=61, velocity=64, time=6),
    Message('note_off', channel=8, note=56, velocity=64, time=1),
    Message('note_off', channel=8, note=67, velocity=64, time=1),
    Message('note_off', channel=8, note=77, velocity=64, time=3),
    Message('note_on', channel=8, note=72, velocity=89, time=4),
    Message('note_off', channel=8, note=72, velocity=64, time=15),
    Message('note_on', channel=8, note=75, velocity=113, time=2),
    Message('note_off', channel=8, note=75, velocity=64, time=12),
    Message('note_on', channel=8, note=70, velocity=102, time=3),
    Message('note_off', channel=8, note=70, velocity=64, time=11),
    Message('note_on', channel=8, note=72, velocity=87, time=4),
    Message('note_off', channel=8, note=72, velocity=64, time=13),
    Message('note_on', channel=8, note=65, velocity=59, time=10),
    Message('note_off', channel=8, note=65, velocity=64, time=5),
    Message('note_on', channel=8, note=70, velocity=113, time=4),
    Message('note_on', channel=8, note=61, velocity=69, time=5),
    Message('note_off', channel=8, note=61, velocity=64, time=5),
    Message('note_off', channel=8, note=70, velocity=64, time=4),
    Message('note_on', channel=8, note=68, velocity=85, time=2),
    Message('note_off', channel=8, note=68, velocity=64, time=10),
    Message('note_on', channel=8, note=65, velocity=92, time=6),
    Message('note_off', channel=8, note=65, velocity=64, time=12),
    Message('note_on', channel=8, note=67, velocity=96, time=7),
    Message('note_off', channel=8, note=67, velocity=64, time=9),
    Message('note_on', channel=8, note=65, velocity=97, time=5),
    Message('note_off', channel=8, note=65, velocity=64, time=12),
    Message('note_on', channel=8, note=63, velocity=88, time=4),
    Message('note_off', channel=8, note=63, velocity=64, time=17),
    Message('note_on', channel=8, note=62, velocity=94, time=1),
    Message('note_off', channel=8, note=62, velocity=64, time=14),
    Message('note_on', channel=8, note=48, velocity=93, time=1),
    Message('note_on', channel=8, note=52, velocity=93, time=0),
    Message('note_on', channel=8, note=58, velocity=105, time=0),
    Message('note_on', channel=8, note=66, velocity=119, time=0),
    Message('note_on', channel=8, note=60, velocity=95, time=3),
    Message('note_on', channel=8, note=63, velocity=96, time=1),
    Message('note_off', channel=8, note=63, velocity=64, time=3),
    Message('note_off', channel=8, note=48, velocity=64, time=34),
    Message('note_off', channel=8, note=66, velocity=64, time=3),
    Message('note_off', channel=8, note=60, velocity=64, time=0),
    Message('note_off', channel=8, note=52, velocity=64, time=1),
    Message('note_off', channel=8, note=58, velocity=64, time=0),
    Message('control_change', channel=8, control=64, value=0, time=7),
    Message('control_change', channel=8, control=64, value=0, time=0),
    Message('control_change', channel=8, control=91, value=28, time=239),
    Message('control_change', channel=8, control=91, value=11, time=0),
    Message('note_on', channel=8, note=66, velocity=127, time=46),
    Message('note_off', channel=8, note=66, velocity=64, time=20),
    Message('note_on', channel=8, note=69, velocity=102, time=13),
    Message('note_off', channel=8, note=69, velocity=64, time=18),
    Message('note_on', channel=8, note=78, velocity=88, time=9),
    Message('note_on', channel=8, note=72, velocity=77, time=2),
    Message('note_off', channel=8, note=78, velocity=64, time=18),
    Message('note_off', channel=8, note=72, velocity=64, time=6),
    Message('note_on', channel=8, note=78, velocity=79, time=18),
    Message('note_on', channel=8, note=72, velocity=74, time=0),
    Message('note_off', channel=8, note=78, velocity=64, time=19),
    Message('note_off', channel=8, note=72, velocity=64, time=1),
    Message('note_on', channel=8, note=72, velocity=64, time=11),
    Message('note_on', channel=8, note=78, velocity=56, time=0),
    Message('note_off', channel=8, note=78, velocity=64, time=11),
    Message('note_off', channel=8, note=72, velocity=64, time=6),
    Message('note_on', channel=8, note=69, velocity=52, time=12),
    Message('note_off', channel=8, note=69, velocity=64, time=31),
    Message('note_on', channel=8, note=66, velocity=85, time=8),
    Message('note_off', channel=8, note=66, velocity=64, time=34),
    Message('note_on', channel=8, note=69, velocity=52, time=21),
    Message('note_off', channel=8, note=69, velocity=64, time=28),
    Message('note_on', channel=8, note=66, velocity=13, time=11),
    Message('note_off', channel=8, note=66, velocity=64, time=35),
    Message('note_on', channel=8, note=49, velocity=49, time=4),
    Message('note_off', channel=8, note=49, velocity=64, time=6),
    Message('note_on', channel=8, note=67, velocity=119, time=141),
    Message('note_off', channel=8, note=67, velocity=64, time=14),
    Message('note_on', channel=8, note=66, velocity=90, time=2),
    Message('note_off', channel=8, note=66, velocity=64, time=11),
    Message('note_on', channel=8, note=65, velocity=90, time=4),
    Message('note_off', channel=8, note=65, velocity=64, time=13),
    Message('note_on', channel=8, note=64, velocity=85, time=8),
    Message('note_off', channel=8, note=64, velocity=64, time=18),
    Message('note_on', channel=8, note=62, velocity=100, time=7),
    Message('note_off', channel=8, note=62, velocity=64, time=14),
    Message('note_on', channel=8, note=60, velocity=87, time=6),
    Message('note_on', channel=8, note=61, velocity=64, time=11),
    Message('note_off', channel=8, note=60, velocity=64, time=3),
    Message('note_off', channel=8, note=61, velocity=64, time=11),
    Message('note_on', channel=8, note=64, velocity=107, time=5),
    Message('note_off', channel=8, note=64, velocity=64, time=18),
    Message('note_on', channel=8, note=59, velocity=90, time=1),
    Message('note_off', channel=8, note=59, velocity=64, time=7),
    Message('note_on', channel=8, note=60, velocity=77, time=1),
    Message('note_on', channel=8, note=59, velocity=54, time=10),
    Message('note_off', channel=8, note=60, velocity=64, time=1),
    Message('note_off', channel=8, note=59, velocity=64, time=17),
    Message('note_on', channel=8, note=57, velocity=49, time=4),
    Message('note_off', channel=8, note=57, velocity=64, time=26),
    Message('control_change', channel=8, control=91, value=11, time=790),
    Message('control_change', channel=8, control=91, value=38, time=0),
    Message('note_on', channel=8, note=66, velocity=102, time=35),
    Message('note_on', channel=8, note=61, velocity=92, time=0),
    Message('note_on', channel=8, note=55, velocity=102, time=0),
    Message('note_on', channel=8, note=81, velocity=114, time=0),
    Message('note_on', channel=8, note=71, velocity=107, time=1),
    Message('note_on', channel=8, note=76, velocity=107, time=0),
    Message('note_off', channel=8, note=76, velocity=64, time=55),
    Message('note_off', channel=8, note=55, velocity=64, time=5),
    Message('note_off', channel=8, note=61, velocity=64, time=3),
    Message('note_off', channel=8, note=66, velocity=64, time=1),
    Message('note_off', channel=8, note=71, velocity=64, time=6),
    Message('note_on', channel=8, note=84, velocity=84, time=0),
    Message('note_on', channel=8, note=76, velocity=60, time=0),
    Message('note_on', channel=8, note=54, velocity=49, time=2),
    Message('note_on', channel=8, note=60, velocity=63, time=0),
    Message('control_change', channel=8, control=91, value=38, time=1),
    Message('control_change', channel=8, control=91, value=18, time=0),
    Message('note_on', channel=8, note=64, velocity=55, time=1),
    Message('note_off', channel=8, note=76, velocity=64, time=93),
    Message('note_off', channel=8, note=84, velocity=64, time=1),
    Message('note_off', channel=8, note=81, velocity=64, time=4),
    Message('note_on', channel=8, note=81, velocity=124, time=38),
    Message('note_off', channel=8, note=81, velocity=64, time=19),
    Message('note_on', channel=8, note=79, velocity=98, time=9),
    Message('note_off', channel=8, note=79, velocity=64, time=15),
    Message('note_off', channel=8, note=60, velocity=64, time=8),
    Message('note_on', channel=8, note=75, velocity=71, time=14),
    Message('note_off', channel=8, note=54, velocity=64, time=3),
    Message('note_off', channel=8, note=75, velocity=64, time=3),
    Message('note_on', channel=8, note=74, velocity=85, time=1),
    Message('note_off', channel=8, note=74, velocity=64, time=8),
    Message('note_on', channel=8, note=72, velocity=87, time=3),
    Message('note_off', channel=8, note=72, velocity=64, time=9),
    Message('note_on', channel=8, note=69, velocity=55, time=10),
    Message('note_off', channel=8, note=69, velocity=64, time=22),
    Message('note_on', channel=8, note=67, velocity=95, time=2),
    Message('note_off', channel=8, note=67, velocity=64, time=13),
    Message('note_on', channel=8, note=61, velocity=30, time=8),
    Message('note_on', channel=8, note=55, velocity=52, time=2),
    Message('note_off', channel=8, note=61, velocity=64, time=24),
    Message('note_off', channel=8, note=64, velocity=64, time=12),
    Message('note_on', channel=8, note=57, velocity=58, time=6),
    Message('note_on', channel=8, note=62, velocity=90, time=0),
    Message('note_off', channel=8, note=55, velocity=64, time=1),
    Message('note_on', channel=8, note=55, velocity=52, time=5),
    Message('note_off', channel=8, note=57, velocity=64, time=0),
    Message('note_off', channel=8, note=55, velocity=64, time=6),
    Message('note_off', channel=8, note=62, velocity=64, time=12),
    Message('note_on', channel=8, note=62, velocity=108, time=24),
    Message('note_off', channel=8, note=62, velocity=64, time=19),
    Message('note_on', channel=8, note=64, velocity=113, time=6),
    Message('note_off', channel=8, note=64, velocity=64, time=19),
    Message('note_on', channel=8, note=60, velocity=74, time=7),
    Message('note_off', channel=8, note=60, velocity=64, time=26),
    Message('note_on', channel=8, note=50, velocity=73, time=1),
    Message('note_off', channel=8, note=50, velocity=64, time=5),
    Message('note_on', channel=8, note=63, velocity=113, time=19),
    Message('note_on', channel=8, note=62, velocity=113, time=7),
    Message('note_off', channel=8, note=63, velocity=64, time=0),
    Message('note_on', channel=8, note=60, velocity=55, time=19),
    Message('note_off', channel=8, note=62, velocity=64, time=1),
    Message('note_off', channel=8, note=60, velocity=64, time=16),
    Message('note_on', channel=8, note=62, velocity=85, time=1),
    Message('note_off', channel=8, note=62, velocity=64, time=27),
    Message('note_on', channel=8, note=64, velocity=110, time=17),
    Message('note_off', channel=8, note=64, velocity=64, time=20),
    Message('note_on', channel=8, note=60, velocity=83, time=3),
    Message('note_on', channel=8, note=64, velocity=59, time=1),
    Message('note_on', channel=8, note=61, velocity=62, time=8),
    Message('note_off', channel=8, note=60, velocity=64, time=5),
    Message('note_off', channel=8, note=64, velocity=64, time=2),
    Message('note_off', channel=8, note=61, velocity=64, time=9),
    Message('note_on', channel=8, note=57, velocity=41, time=1),
    Message('note_on', channel=8, note=49, velocity=52, time=56),
    Message('note_off', channel=8, note=49, velocity=64, time=1),
    Message('note_off', channel=8, note=57, velocity=64, time=57),
    Message('control_change', channel=8, control=91, value=18, time=316),
    Message('control_change', channel=8, control=91, value=56, time=0),
    Message('control_change', channel=8, control=64, value=0, time=64),
    Message('control_change', channel=8, control=64, value=38, time=0),
    Message('control_change', channel=8, control=11, value=127, time=14),
    Message('control_change', channel=8, control=11, value=127, time=0),
    Message('control_change', channel=8, control=64, value=38, time=1),
    Message('control_change', channel=8, control=64, value=74, time=0),
    Message('control_change', channel=8, control=64, value=82, time=2),
    Message('control_change', channel=8, control=64, value=127, time=9),
    Message('note_on', channel=8, note=61, velocity=45, time=4),
    Message('note_on', channel=8, note=64, velocity=25, time=30),
    Message('note_on', channel=8, note=69, velocity=34, time=26),
    Message('note_off', channel=8, note=61, velocity=64, time=11),
    Message('note_on', channel=8, note=73, velocity=48, time=9),
    Message('note_off', channel=8, note=69, velocity=64, time=4),
    Message('note_off', channel=8, note=64, velocity=64, time=1),
    Message('note_off', channel=8, note=73, velocity=64, time=11),
    Message('note_on', channel=8, note=76, velocity=43, time=1),
    Message('note_on', channel=8, note=78, velocity=58, time=17),
    Message('note_off', channel=8, note=76, velocity=64, time=1),
    Message('note_on', channel=8, note=80, velocity=80, time=16),
    Message('note_off', channel=8, note=78, velocity=64, time=8),
    Message('control_change', channel=8, control=64, value=127, time=2),
    Message('control_change', channel=8, control=64, value=74, time=0),
    Message('control_change', channel=8, control=64, value=38, time=3),
    Message('control_change', channel=8, control=64, value=11, time=3),
    Message('control_change', channel=8, control=64, value=0, time=1),
    Message('note_on', channel=8, note=75, velocity=61, time=2),
    Message('control_change', channel=8, control=64, value=0, time=15),
    Message('control_change', channel=8, control=64, value=38, time=0),
    Message('note_on', channel=8, note=71, velocity=55, time=3),
    Message('control_change', channel=8, control=64, value=71, time=3),
    Message('control_change', channel=8, control=64, value=74, time=0),
    Message('control_change', channel=8, control=64, value=127, time=7),
    Message('note_on', channel=8, note=68, velocity=47, time=5),
    Message('note_on', channel=8, note=63, velocity=54, time=15),
    Message('note_off', channel=8, note=68, velocity=64, time=3),
    Message('note_off', channel=8, note=80, velocity=64, time=6),
    Message('note_off', channel=8, note=71, velocity=64, time=4),
    Message('note_off', channel=8, note=63, velocity=64, time=1),
    Message('note_on', channel=8, note=59, velocity=52, time=4),
    Message('note_off', channel=8, note=75, velocity=64, time=3),
    Message('note_off', channel=8, note=59, velocity=64, time=13),
    Message('control_change', channel=8, control=64, value=127, time=1),
    Message('control_change', channel=8, control=64, value=74, time=0),
    Message('note_on', channel=8, note=57, velocity=63, time=2),
    Message('control_change', channel=8, control=64, value=38, time=1),
    Message('control_change', channel=8, control=64, value=0, time=3),
    Message('note_on', channel=8, note=61, velocity=62, time=11),
    Message('control_change', channel=8, control=64, value=0, time=5),
    Message('control_change', channel=8, control=64, value=38, time=0),
    Message('control_change', channel=8, control=64, value=74, time=5),
    Message('note_on', channel=8, note=66, velocity=68, time=6),
    Message('control_change', channel=8, control=64, value=127, time=0),
    Message('note_off', channel=8, note=57, velocity=64, time=13),
    Message('note_on', channel=8, note=69, velocity=57, time=3),
    Message('note_off', channel=8, note=66, velocity=64, time=3),
    Message('note_off', channel=8, note=69, velocity=64, time=5),
    Message('note_off', channel=8, note=61, velocity=64, time=5),
    Message('note_on', channel=8, note=73, velocity=58, time=2),
    Message('note_on', channel=8, note=75, velocity=65, time=16),
    Message('note_off', channel=8, note=73, velocity=64, time=11),
    Message('note_on', channel=8, note=76, velocity=85, time=4),
    Message('note_off', channel=8, note=75, velocity=64, time=2),
    Message('control_change', channel=8, control=64, value=127, time=9),
    Message('control_change', channel=8, control=64, value=74, time=0),
    Message('control_change', channel=8, control=64, value=38, time=3),
    Message('control_change', channel=8, control=64, value=0, time=3),
    Message('note_on', channel=8, note=71, velocity=76, time=3),
    Message('control_change', channel=8, control=64, value=0, time=12),
    Message('control_change', channel=8, control=64, value=38, time=0),
    Message('control_change', channel=8, control=64, value=51, time=3),
    Message('control_change', channel=8, control=64, value=74, time=4),
    Message('note_on', channel=8, note=68, velocity=52, time=0),
    Message('control_change', channel=8, control=64, value=127, time=2),
    Message('note_on', channel=8, note=64, velocity=41, time=15),
    Message('note_off', channel=8, note=64, velocity=64, time=11),
    Message('note_on', channel=8, note=59, velocity=38, time=12),
    Message('note_off', channel=8, note=76, velocity=64, time=3),
    Message('note_off', channel=8, note=71, velocity=64, time=0),
    Message('note_off', channel=8, note=68, velocity=64, time=5),
    Message('note_off', channel=8, note=59, velocity=64, time=1),
    Message('note_on', channel=8, note=56, velocity=45, time=10),
    Message('note_off', channel=8, note=56, velocity=64, time=18),
    Message('control_change', channel=8, control=64, value=127, time=5),
    Message('control_change', channel=8, control=64, value=74, time=0),
    Message('control_change', channel=8, control=64, value=38, time=3),
    Message('note_on', channel=8, note=54, velocity=62, time=1),
    Message('control_change', channel=8, control=64, value=0, time=3),
    Message('control_change', channel=8, control=64, value=0, time=22),
    Message('control_change', channel=8, control=64, value=38, time=0),
    Message('control_change', channel=8, control=64, value=74, time=4),
    Message('control_change', channel=8, control=64, value=75, time=1),
    Message('note_on', channel=8, note=57, velocity=45, time=4),
    Message('control_change', channel=8, control=64, value=127, time=2),
    Message('note_on', channel=8, note=61, velocity=46, time=19),
    Message('note_off', channel=8, note=57, velocity=64, time=21),
    Message('note_on', channel=8, note=73, velocity=62, time=0),
    Message('note_off', channel=8, note=54, velocity=64, time=1),
    Message('note_on', channel=8, note=66, velocity=62, time=12),
    Message('note_off', channel=8, note=61, velocity=64, time=9),
    Message('note_on', channel=8, note=69, velocity=60, time=12),
    Message('control_change', channel=8, control=64, value=127, time=13),
    Message('control_change', channel=8, control=64, value=74, time=0),
    Message('control_change', channel=8, control=64, value=38, time=2),
    Message('control_change', channel=8, control=64, value=36, time=1),
    Message('note_on', channel=8, note=78, velocity=80, time=0),
    Message('note_on', channel=8, note=52, velocity=62, time=1),
    Message('note_off', channel=8, note=66, velocity=64, time=3),
    Message('control_change', channel=8, control=64, value=0, time=0),
    Message('control_change', channel=8, control=64, value=35, time=8),
    Message('control_change', channel=8, control=64, value=38, time=0),
    Message('note_off', channel=8, note=69, velocity=64, time=5),
    Message('control_change', channel=8, control=64, value=74, time=1),
    Message('note_on', channel=8, note=57, velocity=63, time=4),
    Message('control_change', channel=8, control=64, value=127, time=1),
    Message('note_off', channel=8, note=78, velocity=64, time=5),
    Message('note_off', channel=8, note=73, velocity=64, time=1),
    Message('note_on', channel=8, note=61, velocity=62, time=6),
    Message('note_off', channel=8, note=52, velocity=64, time=5),
    Message('note_off', channel=8, note=57, velocity=64, time=7),
    Message('note_on', channel=8, note=73, velocity=59, time=7),
    Message('note_off', channel=8, note=61, velocity=64, time=11),
    Message('note_on', channel=8, note=66, velocity=62, time=7),
    Message('note_on', channel=8, note=69, velocity=60, time=18),
    Message('control_change', channel=8, control=64, value=127, time=10),
    Message('control_change', channel=8, control=64, value=74, time=0),
    Message('note_on', channel=8, note=51, velocity=68, time=3),
    Message('control_change', channel=8, control=64, value=38, time=0),
    Message('control_change', channel=8, control=64, value=0, time=3),
    Message('note_off', channel=8, note=73, velocity=64, time=3),
    Message('note_off', channel=8, note=66, velocity=64, time=4),
    Message('control_change', channel=8, control=64, value=0, time=6),
    Message('control_change', channel=8, control=64, value=38, time=0),
    Message('control_change', channel=8, control=64, value=43, time=1),
    Message('note_off', channel=8, note=69, velocity=64, time=0),
    Message('note_on', channel=8, note=57, velocity=74, time=0),
    Message('control_change', channel=8, control=64, value=74, time=4),
    Message('control_change', channel=8, control=64, value=127, time=3),
    Message('note_on', channel=8, note=61, velocity=72, time=10),
    Message('note_off', channel=8, note=51, velocity=64, time=7),
    Message('note_off', channel=8, note=57, velocity=64, time=2),
    Message('note_off', channel=8, note=61, velocity=64, time=6),
    Message('note_on', channel=8, note=73, velocity=73, time=1),
    Message('note_on', channel=8, note=66, velocity=73, time=16),
    Message('note_on', channel=8, note=69, velocity=79, time=18),
    Message('control_change', channel=8, control=64, value=127, time=4),
    Message('control_change', channel=8, control=64, value=74, time=0),
    Message('control_change', channel=8, control=64, value=64, time=1),
    Message('control_change', channel=8, control=64, value=38, time=2),
    Message('note_off', channel=8, note=66, velocity=64, time=2),
    Message('control_change', channel=8, control=64, value=0, time=2),
    Message('note_on', channel=8, note=49, velocity=83, time=5),
    Message('control_change', channel=8, control=64, value=22, time=1),
    Message('note_on', channel=8, note=78, velocity=90, time=2),
    Message('control_change', channel=8, control=64, value=38, time=1),
    Message('note_off', channel=8, note=69, velocity=64, time=4),
    Message('control_change', channel=8, control=64, value=74, time=3),
    Message('control_change', channel=8, control=64, value=109, time=2),
    Message('control_change', channel=8, control=64, value=127, time=1),
    Message('note_off', channel=8, note=73, velocity=64, time=0),
    Message('note_on', channel=8, note=57, velocity=78, time=7),
    Message('note_off', channel=8, note=78, velocity=64, time=2),
    Message('note_off', channel=8, note=49, velocity=64, time=11),
    Message('note_on', channel=8, note=64, velocity=70, time=6),
    Message('note_off', channel=8, note=57, velocity=64, time=11),
    Message('note_off', channel=8, note=64, velocity=64, time=0),
    Message('note_on', channel=8, note=81, velocity=92, time=7),
    Message('note_on', channel=8, note=69, velocity=57, time=21),
    Message('note_on', channel=8, note=73, velocity=46, time=24),
    Message('control_change', channel=8, control=64, value=127, time=14),
    Message('control_change', channel=8, control=64, value=74, time=0),
    Message('control_change', channel=8, control=64, value=38, time=3),
    Message('control_change', channel=8, control=64, value=32, time=1),
    Message('control_change', channel=8, control=64, value=0, time=3),
    Message('note_on', channel=8, note=47, velocity=67, time=2),
    Message('control_change', channel=8, control=64, value=0, time=15),
    Message('control_change', channel=8, control=64, value=38, time=0),
    Message('control_change', channel=8, control=64, value=67, time=4),
    Message('note_off', channel=8, note=81, velocity=64, time=0),
    Message('control_change', channel=8, control=64, value=74, time=0),
    Message('control_change', channel=8, control=64, value=127, time=4),
    Message('note_on', channel=8, note=54, velocity=74, time=0),
    Message('note_off', channel=8, note=54, velocity=64, time=15),
    Message('note_on', channel=8, note=57, velocity=68, time=7),
    Message('note_off', channel=8, note=57, velocity=64, time=6),
    Message('note_off', channel=8, note=69, velocity=64, time=11),
    Message('note_on', channel=8, note=81, velocity=93, time=5),
    Message('note_on', channel=8, note=61, velocity=60, time=0),
    Message('note_off', channel=8, note=73, velocity=64, time=6),
    Message('note_on', channel=8, note=63, velocity=68, time=14),
    Message('note_on', channel=8, note=66, velocity=83, time=21),
    Message('note_on', channel=8, note=69, velocity=89, time=20),
    Message('note_off', channel=8, note=81, velocity=64, time=19),
    Message('note_on', channel=8, note=71, velocity=79, time=4),
    Message('note_on', channel=8, note=75, velocity=87, time=23),
    Message('note_on', channel=8, note=78, velocity=91, time=24),
    Message('note_off', channel=8, note=71, velocity=64, time=23),
    Message('note_off', channel=8, note=78, velocity=64, time=1),
    Message('note_on', channel=8, note=71, velocity=79, time=2),
    Message('note_off', channel=8, note=71, velocity=64, time=19),
    Message('note_on', channel=8, note=83, velocity=85, time=9),
    Message('note_off', channel=8, note=66, velocity=64, time=43),
    Message('note_off', channel=8, note=63, velocity=64, time=0),
    Message('note_off', channel=8, note=47, velocity=64, time=0),
    Message('note_off', channel=8, note=61, velocity=64, time=0),
    Message('note_off', channel=8, note=69, velocity=64, time=0),
    Message('control_change', channel=8, control=64, value=127, time=2),
    Message('control_change', channel=8, control=64, value=74, time=0),
    Message('note_off', channel=8, note=75, velocity=64, time=1),
    Message('note_off', channel=8, note=83, velocity=64, time=0),
    Message('note_on', channel=8, note=39, velocity=46, time=1),
    Message('control_change', channel=8, control=64, value=38, time=2),
    Message('note_on', channel=8, note=77, velocity=60, time=1),
    Message('note_on', channel=8, note=80, velocity=67, time=0),
    Message('note_on', channel=8, note=72, velocity=49, time=1),
    Message('note_on', channel=8, note=84, velocity=80, time=0),
    Message('control_change', channel=8, control=64, value=0, time=1),
    Message('control_change', channel=8, control=64, value=0, time=21),
    Message('control_change', channel=8, control=64, value=38, time=0),
    Message('control_change', channel=8, control=64, value=74, time=4),
    Message('control_change', channel=8, control=64, value=85, time=2),
    Message('note_on', channel=8, note=49, velocity=55, time=3),
    Message('control_change', channel=8, control=64, value=127, time=1),
    Message('note_off', channel=8, note=39, velocity=64, time=11),
    Message('note_off', channel=8, note=72, velocity=64, time=9),
    Message('note_off', channel=8, note=49, velocity=64, time=0),
    Message('note_on', channel=8, note=53, velocity=66, time=5),
    Message('note_off', channel=8, note=53, velocity=64, time=12),
    Message('note_on', channel=8, note=56, velocity=76, time=8),
    Message('note_off', channel=8, note=84, velocity=64, time=17),
    Message('note_on', channel=8, note=82, velocity=94, time=4),
    Message('note_on', channel=8, note=70, velocity=89, time=2),
    Message('note_on', channel=8, note=58, velocity=89, time=0),
    Message('note_off', channel=8, note=77, velocity=64, time=1),
    Message('note_off', channel=8, note=70, velocity=64, time=5),
    Message('note_off', channel=8, note=56, velocity=64, time=1),
    Message('note_off', channel=8, note=80, velocity=64, time=0),
    Message('note_off', channel=8, note=82, velocity=64, time=3),
    Message('note_on', channel=8, note=61, velocity=75, time=8),
    Message('note_off', channel=8, note=58, velocity=64, time=3),
    Message('note_off', channel=8, note=61, velocity=64, time=14),
    Message('note_on', channel=8, note=87, velocity=100, time=3),
    Message('note_on', channel=8, note=65, velocity=87, time=0),
    Message('note_on', channel=8, note=75, velocity=95, time=1),
    Message('note_on', channel=8, note=82, velocity=98, time=0),
    Message('note_on', channel=8, note=80, velocity=93, time=0),
    Message('note_off', channel=8, note=65, velocity=64, time=16),
    Message('note_on', channel=8, note=61, velocity=70, time=3),
    Message('note_off', channel=8, note=75, velocity=64, time=11),
    Message('note_off', channel=8, note=61, velocity=64, time=5),
    Message('note_on', channel=8, note=58, velocity=72, time=5),
    Message('note_on', channel=8, note=56, velocity=68, time=20),
    Message('note_off', channel=8, note=58, velocity=64, time=4),
    Message('note_off', channel=8, note=56, velocity=64, time=12),
    Message('note_on', channel=8, note=73, velocity=70, time=7),
    Message('note_on', channel=8, note=85, velocity=75, time=1),
    Message('note_off', channel=8, note=82, velocity=64, time=0),
    Message('note_off', channel=8, note=80, velocity=64, time=1),
    Message('note_off', channel=8, note=73, velocity=64, time=4),
    Message('note_off', channel=8, note=85, velocity=64, time=1),
    Message('note_off', channel=8, note=87, velocity=64, time=0),
    Message('note_on', channel=8, note=53, velocity=50, time=0),
    Message('note_off', channel=8, note=53, velocity=64, time=6),
    Message('note_on', channel=8, note=49, velocity=67, time=13),
    Message('note_off', channel=8, note=49, velocity=64, time=21),
    Message('note_on', channel=8, note=39, velocity=81, time=5),
    Message('note_on', channel=8, note=87, velocity=72, time=4),
    Message('note_on', channel=8, note=84, velocity=83, time=1),
    Message('note_on', channel=8, note=79, velocity=79, time=0),
    Message('control_change', channel=8, control=64, value=127, time=0),
    Message('control_change', channel=8, control=64, value=74, time=0),
    Message('control_change', channel=8, control=64, value=68, time=1),
    Message('note_on', channel=8, note=91, velocity=77, time=0),
    Message('control_change', channel=8, control=64, value=38, time=2),
    Message('control_change', channel=8, control=64, value=0, time=3),
    Message('control_change', channel=8, control=64, value=0, time=15),
    Message('control_change', channel=8, control=64, value=38, time=0),
    Message('control_change', channel=8, control=64, value=74, time=3),
    Message('note_on', channel=8, note=49, velocity=80, time=0),
    Message('control_change', channel=8, control=64, value=84, time=1),
    Message('control_change', channel=8, control=64, value=127, time=3),
    Message('note_off', channel=8, note=39, velocity=64, time=6),
    Message('note_off', channel=8, note=49, velocity=64, time=7),
    Message('note_off', channel=8, note=79, velocity=64, time=2),
    Message('note_off', channel=8, note=91, velocity=64, time=2),
    Message('note_on', channel=8, note=53, velocity=68, time=1),
    Message('note_on', channel=8, note=56, velocity=84, time=20),
    Message('note_off', channel=8, note=53, velocity=64, time=3),
    Message('note_on', channel=8, note=89, velocity=92, time=13),
    Message('note_on', channel=8, note=77, velocity=94, time=1),
    Message('note_on', channel=8, note=58, velocity=89, time=4),
    Message('note_off', channel=8, note=84, velocity=64, time=0),
    Message('note_off', channel=8, note=77, velocity=64, time=1),
    Message('note_off', channel=8, note=87, velocity=64, time=0),
    Message('note_off', channel=8, note=56, velocity=64, time=4),
    Message('note_off', channel=8, note=89, velocity=64, time=2),
    Message('note_on', channel=8, note=61, velocity=84, time=6),
    Message('note_off', channel=8, note=58, velocity=64, time=2),
    Message('note_off', channel=8, note=61, velocity=64, time=14),
    Message('note_on', channel=8, note=89, velocity=104, time=6),
    Message('note_on', channel=8, note=84, velocity=106, time=0),
    Message('note_on', channel=8, note=96, velocity=110, time=0),
    Message('note_on', channel=8, note=68, velocity=98, time=1),
    Message('note_off', channel=8, note=68, velocity=64, time=19),
    Message('note_on', channel=8, note=65, velocity=81, time=1),
    Message('note_off', channel=8, note=84, velocity=64, time=10),
    Message('note_off', channel=8, note=65, velocity=64, time=9),
    Message('note_on', channel=8, note=61, velocity=69, time=3),
    Message('note_off', channel=8, note=61, velocity=64, time=6),
    Message('note_on', channel=8, note=56, velocity=90, time=14),
    Message('note_off', channel=8, note=96, velocity=64, time=12),
    Message('note_on', channel=8, note=82, velocity=102, time=10),
    Message('note_on', channel=8, note=94, velocity=98, time=0),
    Message('note_off', channel=8, note=56, velocity=64, time=2),
    Message('note_on', channel=8, note=53, velocity=81, time=1),
    Message('note_off', channel=8, note=89, velocity=64, time=1),
    Message('note_off', channel=8, note=82, velocity=64, time=1),
    Message('note_off', channel=8, note=94, velocity=64, time=3),
    Message('note_off', channel=8, note=53, velocity=64, time=11),
    Message('note_on', channel=8, note=49, velocity=93, time=0),
    Message('note_off', channel=8, note=49, velocity=64, time=6),
    Message('note_on', channel=8, note=49, velocity=51, time=17),
    Message('note_off', channel=8, note=49, velocity=64, time=5),
    Message('note_on', channel=8, note=94, velocity=102, time=8),
    Message('control_change', channel=8, control=64, value=127, time=1),
    Message('control_change', channel=8, control=64, value=74, time=0),
    Message('note_on', channel=8, note=97, velocity=102, time=0),
    Message('note_on', channel=8, note=91, velocity=94, time=1),
    Message('note_on', channel=8, note=101, velocity=94, time=0),
    Message('note_on', channel=8, note=39, velocity=102, time=0),
    Message('note_on', channel=8, note=89, velocity=101, time=0),
    Message('control_change', channel=8, control=64, value=47, time=1),
    Message('control_change', channel=8, control=64, value=38, time=0),
    Message('control_change', channel=8, control=64, value=0, time=4),
    Message('control_change', channel=8, control=64, value=0, time=19),
    Message('control_change', channel=8, control=64, value=38, time=0),
    Message('control_change', channel=8, control=64, value=42, time=1),
    Message('control_change', channel=8, control=64, value=74, time=3),
    Message('note_on', channel=8, note=46, velocity=86, time=2),
    Message('control_change', channel=8, control=64, value=127, time=3),
    Message('note_on', channel=8, note=49, velocity=88, time=19),
    Message('control_change', channel=8, control=11, value=127, time=2),
    Message('control_change', channel=8, control=11, value=127, time=0),
    Message('note_on', channel=8, note=55, velocity=89, time=13),
    Message('note_on', channel=8, note=58, velocity=94, time=19),
    Message('control_change', channel=8, control=11, value=127, time=11),
    Message('control_change', channel=8, control=11, value=126, time=0),
    Message('control_change', channel=8, control=11, value=125, time=6),
    Message('note_on', channel=8, note=61, velocity=98, time=2),
    Message('control_change', channel=8, control=11, value=124, time=1),
    Message('control_change', channel=8, control=11, value=123, time=3),
    Message('control_change', channel=8, control=11, value=123, time=3),
    Message('control_change', channel=8, control=11, value=122, time=6),
    Message('control_change', channel=8, control=11, value=121, time=3),
    Message('note_on', channel=8, note=67, velocity=96, time=0),
    Message('control_change', channel=8, control=11, value=121, time=3),
    Message('control_change', channel=8, control=11, value=120, time=5),
    Message('note_off', channel=8, note=67, velocity=64, time=3),
    Message('control_change', channel=8, control=11, value=119, time=1),
    Message('note_off', channel=8, note=89, velocity=64, time=0),
    Message('control_change', channel=8, control=11, value=119, time=2),
    Message('note_on', channel=8, note=70, velocity=95, time=3),
    Message('note_off', channel=8, note=91, velocity=64, time=2),
    Message('control_change', channel=8, control=11, value=118, time=1),
    Message('control_change', channel=8, control=11, value=117, time=4),
    Message('control_change', channel=8, control=11, value=117, time=2),
    Message('note_off', channel=8, note=46, velocity=64, time=2),
    Message('control_change', channel=8, control=11, value=116, time=4),
    Message('note_off', channel=8, note=94, velocity=64, time=0),
    Message('note_on', channel=8, note=73, velocity=98, time=2),
    Message('control_change', channel=8, control=11, value=115, time=2),
    Message('note_off', channel=8, note=49, velocity=64, time=2),
    Message('control_change', channel=8, control=11, value=115, time=1),
    Message('note_off', channel=8, note=97, velocity=64, time=0),
    Message('note_off', channel=8, note=70, velocity=64, time=1),
    Message('control_change', channel=8, control=11, value=114, time=5),
    Message('note_off', channel=8, note=55, velocity=64, time=1),
    Message('control_change', channel=8, control=11, value=113, time=2),
    Message('control_change', channel=8, control=11, value=113, time=1),
    Message('note_on', channel=8, note=79, velocity=100, time=4),
    Message('control_change', channel=8, control=11, value=112, time=1),
    Message('control_change', channel=8, control=11, value=111, time=6),
    Message('control_change', channel=8, control=11, value=111, time=0),
    Message('control_change', channel=8, control=11, value=110, time=6),
    Message('control_change', channel=8, control=11, value=109, time=4),
    Message('note_on', channel=8, note=82, velocity=96, time=0),
    Message('control_change', channel=8, control=11, value=108, time=2),
    Message('control_change', channel=8, control=11, value=108, time=3),
    Message('control_change', channel=8, control=11, value=107, time=6),
    Message('control_change', channel=8, control=11, value=106, time=3),
    Message('control_change', channel=8, control=11, value=106, time=3),
    Message('note_on', channel=8, note=85, velocity=104, time=1),
    Message('control_change', channel=8, control=11, value=105, time=5),
    Message('control_change', channel=8, control=11, value=104, time=3),
    Message('control_change', channel=8, control=11, value=104, time=3),
    Message('control_change', channel=8, control=11, value=103, time=5),
    Message('control_change', channel=8, control=11, value=102, time=4),
    Message('control_change', channel=8, control=11, value=102, time=2),
    Message('note_on', channel=8, note=91, velocity=102, time=0),
    Message('note_on', channel=8, note=100, velocity=113, time=1),
    Message('control_change', channel=8, control=11, value=101, time=5),
    Message('note_off', channel=8, note=101, velocity=64, time=0),
    Message('control_change', channel=8, control=11, value=100, time=4),
    Message('control_change', channel=8, control=11, value=100, time=2),
    Message('control_change', channel=8, control=11, value=99, time=6),
    Message('control_change', channel=8, control=11, value=98, time=4),
    Message('control_change', channel=8, control=11, value=98, time=3),
    Message('note_on', channel=8, note=94, velocity=86, time=3),
    Message('note_on', channel=8, note=96, velocity=80, time=0),
    Message('control_change', channel=8, control=11, value=97, time=2),
    Message('control_change', channel=8, control=11, value=96, time=4),
    Message('note_off', channel=8, note=100, velocity=64, time=2),
    Message('control_change', channel=8, control=11, value=96, time=1),
    Message('control_change', channel=8, control=11, value=95, time=3),
    Message('note_off', channel=8, note=94, velocity=64, time=3),
    Message('note_off', channel=8, note=96, velocity=64, time=0),
    Message('control_change', channel=8, control=11, value=94, time=3),
    Message('control_change', channel=8, control=11, value=94, time=0),
    Message('note_on', channel=8, note=99, velocity=92, time=3),
    Message('control_change', channel=8, control=11, value=93, time=1),
    Message('control_change', channel=8, control=11, value=92, time=6),
    Message('control_change', channel=8, control=11, value=91, time=2),
    Message('control_change', channel=8, control=11, value=91, time=3),
    Message('note_off', channel=8, note=79, velocity=64, time=2),
    Message('note_off', channel=8, note=82, velocity=64, time=0),
    Message('note_off', channel=8, note=99, velocity=64, time=1),
    Message('note_off', channel=8, note=91, velocity=64, time=0),
    Message('note_off', channel=8, note=73, velocity=64, time=1),
    Message('note_off', channel=8, note=85, velocity=64, time=1),
    Message('control_change', channel=8, control=11, value=90, time=1),
    Message('note_on', channel=8, note=93, velocity=82, time=0),
    Message('note_on', channel=8, note=95, velocity=84, time=1),
    Message('control_change', channel=8, control=11, value=89, time=2),
    Message('control_change', channel=8, control=11, value=89, time=3),
    Message('note_off', channel=8, note=95, velocity=64, time=1),
    Message('note_off', channel=8, note=93, velocity=64, time=3),
    Message('control_change', channel=8, control=11, value=88, time=3),
    Message('note_on', channel=8, note=89, velocity=78, time=2),
    Message('note_on', channel=8, note=98, velocity=76, time=0),
    Message('note_off', channel=8, note=89, velocity=64, time=5),
    Message('note_off', channel=8, note=98, velocity=64, time=6),
    Message('control_change', channel=8, control=11, value=88, time=0),
    Message('control_change', channel=8, control=11, value=87, time=0),
    Message('note_on', channel=8, note=94, velocity=88, time=3),
    Message('note_on', channel=8, note=92, velocity=74, time=1),
    Message('note_off', channel=8, note=94, velocity=64, time=10),
    Message('note_on', channel=8, note=88, velocity=76, time=4),
    Message('note_on', channel=8, note=97, velocity=93, time=0),
    Message('note_off', channel=8, note=92, velocity=64, time=2),
    Message('control_change', channel=8, control=11, value=87, time=2),
    Message('control_change', channel=8, control=11, value=86, time=0),
    Message('note_off', channel=8, note=97, velocity=64, time=3),
    Message('note_off', channel=8, note=88, velocity=64, time=3),
    Message('note_on', channel=8, note=91, velocity=87, time=3),
    Message('note_on', channel=8, note=93, velocity=86, time=0),
    Message('control_change', channel=8, control=91, value=56, time=4),
    Message('control_change', channel=8, control=91, value=115, time=0),
    Message('note_off', channel=8, note=93, velocity=64, time=3),
    Message('control_change', channel=8, control=11, value=86, time=3),
    Message('control_change', channel=8, control=11, value=85, time=0),
    Message('note_off', channel=8, note=91, velocity=64, time=0),
    Message('note_on', channel=8, note=96, velocity=90, time=2),
    Message('note_on', channel=8, note=87, velocity=85, time=0),
    Message('note_off', channel=8, note=58, velocity=64, time=5),
    Message('note_off', channel=8, note=39, velocity=64, time=0),
    Message('note_off', channel=8, note=87, velocity=64, time=6),
    Message('note_off', channel=8, note=96, velocity=64, time=1),
    Message('note_on', channel=8, note=90, velocity=88, time=0),
    Message('note_on', channel=8, note=92, velocity=78, time=1),
    Message('note_off', channel=8, note=61, velocity=64, time=3),
    Message('control_change', channel=8, control=11, value=85, time=1),
    Message('control_change', channel=8, control=11, value=84, time=0),
    Message('note_off', channel=8, note=92, velocity=64, time=3),
    Message('note_off', channel=8, note=90, velocity=64, time=5),
    Message('note_on', channel=8, note=95, velocity=85, time=2),
    Message('note_on', channel=8, note=86, velocity=67, time=0),
    Message('note_off', channel=8, note=95, velocity=64, time=5),
    Message('note_off', channel=8, note=86, velocity=64, time=1),
    Message('control_change', channel=8, control=11, value=84, time=3),
    Message('control_change', channel=8, control=11, value=83, time=0),
    Message('note_on', channel=8, note=91, velocity=93, time=3),
    Message('note_on', channel=8, note=89, velocity=80, time=0),
    Message('note_off', channel=8, note=89, velocity=64, time=6),
    Message('note_off', channel=8, note=91, velocity=64, time=1),
    Message('note_on', channel=8, note=94, velocity=97, time=6),
    Message('note_on', channel=8, note=85, velocity=92, time=0),
    Message('control_change', channel=8, control=11, value=83, time=5),
    Message('control_change', channel=8, control=11, value=82, time=0),
    Message('note_off', channel=8, note=85, velocity=64, time=6),
    Message('note_off', channel=8, note=94, velocity=64, time=1),
    Message('note_on', channel=8, note=90, velocity=89, time=0),
    Message('note_on', channel=8, note=88, velocity=96, time=1),
    Message('note_off', channel=8, note=88, velocity=64, time=7),
    Message('note_off', channel=8, note=90, velocity=64, time=2),
    Message('note_on', channel=8, note=84, velocity=92, time=2),
    Message('control_change', channel=8, control=11, value=82, time=1),
    Message('control_change', channel=8, control=11, value=81, time=0),
    Message('note_on', channel=8, note=93, velocity=86, time=0),
    Message('note_off', channel=8, note=84, velocity=64, time=5),
    Message('note_off', channel=8, note=93, velocity=64, time=4),
    Message('note_on', channel=8, note=87, velocity=90, time=2),
    Message('note_on', channel=8, note=89, velocity=80, time=0),
    Message('note_off', channel=8, note=89, velocity=64, time=6),
    Message('control_change', channel=8, control=11, value=81, time=2),
    Message('control_change', channel=8, control=11, value=80, time=0),
    Message('note_on', channel=8, note=92, velocity=91, time=4),
    Message('note_on', channel=8, note=83, velocity=80, time=0),
    Message('note_off', channel=8, note=87, velocity=64, time=0),
    Message('note_off', channel=8, note=83, velocity=64, time=6),
    Message('note_off', channel=8, note=92, velocity=64, time=0),
    Message('note_on', channel=8, note=88, velocity=93, time=6),
    Message('note_on', channel=8, note=86, velocity=92, time=0),
    Message('note_off', channel=8, note=88, velocity=64, time=5),
    Message('control_change', channel=8, control=11, value=80, time=0),
    Message('control_change', channel=8, control=11, value=79, time=0),
    Message('note_off', channel=8, note=86, velocity=64, time=3),
    Message('note_on', channel=8, note=91, velocity=88, time=4),
    Message('note_on', channel=8, note=82, velocity=95, time=0),
    Message('note_off', channel=8, note=91, velocity=64, time=9),
    Message('note_off', channel=8, note=82, velocity=64, time=1),
    Message('note_on', channel=8, note=87, velocity=91, time=1),
    Message('note_on', channel=8, note=85, velocity=89, time=0),
    Message('control_change', channel=8, control=11, value=79, time=1),
    Message('control_change', channel=8, control=11, value=78, time=0),
    Message('note_off', channel=8, note=87, velocity=64, time=9),
    Message('note_off', channel=8, note=85, velocity=64, time=0),
    Message('note_on', channel=8, note=90, velocity=95, time=2),
    Message('note_on', channel=8, note=81, velocity=70, time=0),
    Message('note_off', channel=8, note=81, velocity=64, time=6),
    Message('control_change', channel=8, control=11, value=78, time=2),
    Message('control_change', channel=8, control=11, value=77, time=0),
    Message('note_on', channel=8, note=84, velocity=102, time=2),
    Message('note_on', channel=8, note=86, velocity=102, time=0),
    Message('note_off', channel=8, note=84, velocity=64, time=0),
    Message('note_on', channel=8, note=84, velocity=102, time=0),
    Message('note_off', channel=8, note=90, velocity=64, time=1),
    Message('note_on', channel=8, note=80, velocity=95, time=10),
    Message('note_on', channel=8, note=89, velocity=95, time=0),
    Message('note_off', channel=8, note=84, velocity=64, time=1),
    Message('note_off', channel=8, note=86, velocity=64, time=0),
    Message('control_change', channel=8, control=11, value=77, time=9),
    Message('control_change', channel=8, control=11, value=76, time=0),
    Message('note_on', channel=8, note=83, velocity=98, time=1),
    Message('note_on', channel=8, note=85, velocity=98, time=0),
    Message('note_off', channel=8, note=80, velocity=64, time=4),
    Message('note_off', channel=8, note=89, velocity=64, time=0),
    Message('note_off', channel=8, note=83, velocity=64, time=7),
    Message('note_off', channel=8, note=85, velocity=64, time=1),
    Message('note_on', channel=8, note=79, velocity=100, time=1),
    Message('note_on', channel=8, note=88, velocity=100, time=0),
    Message('control_change', channel=8, control=11, value=76, time=4),
    Message('control_change', channel=8, control=11, value=75, time=0),
    Message('note_on', channel=8, note=82, velocity=96, time=6),
    Message('note_on', channel=8, note=84, velocity=96, time=1),
    Message('note_off', channel=8, note=79, velocity=64, time=1),
    Message('note_off', channel=8, note=88, velocity=64, time=0),
    Message('note_off', channel=8, note=82, velocity=64, time=9),
    Message('note_off', channel=8, note=84, velocity=64, time=0),
    Message('note_on', channel=8, note=78, velocity=97, time=1),
    Message('note_on', channel=8, note=87, velocity=97, time=0),
    Message('control_change', channel=8, control=11, value=75, time=1),
    Message('control_change', channel=8, control=11, value=74, time=0),
    Message('note_off', channel=8, note=78, velocity=64, time=9),
    Message('note_off', channel=8, note=87, velocity=64, time=0),
    Message('note_on', channel=8, note=81, velocity=97, time=2),
    Message('note_on', channel=8, note=83, velocity=97, time=0),
    Message('note_off', channel=8, note=81, velocity=64, time=6),
    Message('note_off', channel=8, note=83, velocity=64, time=0),
    Message('control_change', channel=8, control=11, value=74, time=2),
    Message('control_change', channel=8, control=11, value=73, time=0),
    Message('note_on', channel=8, note=77, velocity=90, time=2),
    Message('note_on', channel=8, note=86, velocity=90, time=1),
    Message('note_on', channel=8, note=80, velocity=94, time=12),
    Message('note_on', channel=8, note=82, velocity=94, time=0),
    Message('note_off', channel=8, note=77, velocity=64, time=1),
    Message('note_off', channel=8, note=86, velocity=64, time=0),
    Message('control_change', channel=8, control=11, value=73, time=6),
    Message('control_change', channel=8, control=11, value=72, time=0),
    Message('note_off', channel=8, note=80, velocity=64, time=2),
    Message('note_off', channel=8, note=82, velocity=64, time=0),
    Message('note_on', channel=8, note=76, velocity=90, time=3),
    Message('note_on', channel=8, note=85, velocity=90, time=0),
    Message('note_on', channel=8, note=79, velocity=94, time=10),
    Message('note_on', channel=8, note=81, velocity=94, time=0),
    Message('note_off', channel=8, note=76, velocity=64, time=2),
    Message('note_off', channel=8, note=85, velocity=64, time=0),
    Message('control_change', channel=8, control=11, value=72, time=1),
    Message('control_change', channel=8, control=11, value=71, time=0),
    Message('note_on', channel=8, note=75, velocity=89, time=7),
    Message('note_on', channel=8, note=84, velocity=89, time=0),
    Message('note_off', channel=8, note=79, velocity=64, time=1),
    Message('note_off', channel=8, note=81, velocity=64, time=0),
    Message('note_on', channel=8, note=78, velocity=84, time=11),
    Message('note_on', channel=8, note=80, velocity=84, time=0),
    Message('control_change', channel=8, control=11, value=71, time=1),
    Message('control_change', channel=8, control=11, value=70, time=0),
    Message('note_off', channel=8, note=75, velocity=64, time=0),
    Message('note_off', channel=8, note=84, velocity=64, time=0),
    Message('note_off', channel=8, note=78, velocity=64, time=9),
    Message('note_off', channel=8, note=80, velocity=64, time=0),
    Message('note_on', channel=8, note=74, velocity=85, time=4),
    Message('note_on', channel=8, note=83, velocity=85, time=0),
    Message('control_change', channel=8, control=11, value=70, time=8),
    Message('control_change', channel=8, control=11, value=69, time=0),
    Message('note_off', channel=8, note=74, velocity=64, time=2),
    Message('note_off', channel=8, note=83, velocity=64, time=0),
    Message('note_on', channel=8, note=77, velocity=85, time=1),
    Message('note_on', channel=8, note=79, velocity=85, time=0),
    Message('note_off', channel=8, note=77, velocity=64, time=11),
    Message('note_off', channel=8, note=79, velocity=64, time=0),
    Message('note_on', channel=8, note=73, velocity=95, time=1),
    Message('note_on', channel=8, note=82, velocity=95, time=0),
    Message('control_change', channel=8, control=11, value=69, time=4),
    Message('control_change', channel=8, control=11, value=68, time=0),
    Message('note_off', channel=8, note=73, velocity=64, time=7),
    Message('note_off', channel=8, note=82, velocity=64, time=0),
    Message('note_on', channel=8, note=76, velocity=82, time=3),
    Message('note_on', channel=8, note=78, velocity=82, time=0),
    Message('control_change', channel=8, control=11, value=68, time=9),
    Message('control_change', channel=8, control=11, value=67, time=0),
    Message('note_off', channel=8, note=76, velocity=64, time=1),
    Message('note_off', channel=8, note=78, velocity=64, time=1),
    Message('note_on', channel=8, note=72, velocity=60, time=2),
    Message('note_on', channel=8, note=81, velocity=60, time=0),
    Message('note_off', channel=8, note=72, velocity=64, time=11),
    Message('note_on', channel=8, note=75, velocity=76, time=0),
    Message('note_off', channel=8, note=81, velocity=64, time=0),
    Message('note_on', channel=8, note=77, velocity=76, time=1),
    Message('control_change', channel=8, control=11, value=67, time=3),
    Message('control_change', channel=8, control=11, value=66, time=0),
    Message('note_off', channel=8, note=75, velocity=64, time=5),
    Message('note_off', channel=8, note=77, velocity=64, time=0),
    Message('note_on', channel=8, note=71, velocity=73, time=5),
    Message('note_on', channel=8, note=80, velocity=73, time=1),
    Message('control_change', channel=8, control=11, value=66, time=11),
    Message('control_change', channel=8, control=11, value=65, time=0),
    Message('note_off', channel=8, note=71, velocity=64, time=0),
    Message('note_off', channel=8, note=80, velocity=64, time=0),
    Message('note_on', channel=8, note=74, velocity=71, time=3),
    Message('note_on', channel=8, note=76, velocity=71, time=0),
    Message('note_off', channel=8, note=74, velocity=64, time=9),
    Message('note_off', channel=8, note=76, velocity=64, time=0),
    Message('note_on', channel=8, note=70, velocity=66, time=6),
    Message('note_on', channel=8, note=79, velocity=66, time=0),
    Message('control_change', channel=8, control=11, value=65, time=1),
    Message('control_change', channel=8, control=11, value=64, time=0),
    Message('note_off', channel=8, note=70, velocity=64, time=13),
    Message('note_off', channel=8, note=79, velocity=64, time=0),
    Message('note_on', channel=8, note=73, velocity=52, time=1),
    Message('note_on', channel=8, note=75, velocity=52, time=0),
    Message('control_change', channel=8, control=11, value=64, time=5),
    Message('control_change', channel=8, control=11, value=63, time=0),
    Message('note_off', channel=8, note=73, velocity=64, time=10),
    Message('note_off', channel=8, note=75, velocity=64, time=0),
    Message('note_on', channel=8, note=69, velocity=65, time=1),
    Message('note_on', channel=8, note=78, velocity=65, time=0),
    Message('control_change', channel=8, control=11, value=63, time=10),
    Message('control_change', channel=8, control=11, value=62, time=0),
    Message('note_off', channel=8, note=69, velocity=64, time=2),
    Message('note_off', channel=8, note=78, velocity=64, time=0),
    Message('note_on', channel=8, note=72, velocity=57, time=3),
    Message('note_on', channel=8, note=74, velocity=57, time=0),
    Message('note_off', channel=8, note=72, velocity=64, time=14),
    Message('control_change', channel=8, control=11, value=62, time=0),
    Message('control_change', channel=8, control=11, value=61, time=0),
    Message('note_off', channel=8, note=74, velocity=64, time=0),
    Message('note_on', channel=8, note=68, velocity=60, time=6),
    Message('note_on', channel=8, note=77, velocity=60, time=0),
    Message('control_change', channel=8, control=11, value=61, time=13),
    Message('control_change', channel=8, control=11, value=60, time=0),
    Message('note_off', channel=8, note=68, velocity=64, time=1),
    Message('note_off', channel=8, note=77, velocity=64, time=0),
    Message('note_on', channel=8, note=71, velocity=40, time=6),
    Message('note_on', channel=8, note=73, velocity=53, time=0),
    Message('note_off', channel=8, note=71, velocity=64, time=8),
    Message('note_off', channel=8, note=73, velocity=64, time=0),
    Message('control_change', channel=8, control=11, value=60, time=6),
    Message('control_change', channel=8, control=11, value=59, time=0),
    Message('note_on', channel=8, note=67, velocity=39, time=2),
    Message('control_change', channel=8, control=64, value=127, time=4),
    Message('control_change', channel=8, control=64, value=74, time=0),
    Message('control_change', channel=8, control=64, value=45, time=4),
    Message('control_change', channel=8, control=64, value=38, time=1),
    Message('note_on', channel=8, note=70, velocity=47, time=4),
    Message('control_change', channel=8, control=64, value=0, time=1),
    Message('control_change', channel=8, control=11, value=59, time=4),
    Message('control_change', channel=8, control=11, value=58, time=0),
    Message('note_on', channel=8, note=73, velocity=40, time=7),
    Message('control_change', channel=8, control=64, value=0, time=5),
    Message('control_change', channel=8, control=64, value=38, time=0),
    Message('control_change', channel=8, control=64, value=52, time=2),
    Message('control_change', channel=8, control=64, value=74, time=2),
    Message('control_change', channel=8, control=11, value=58, time=3),
    Message('control_change', channel=8, control=11, value=57, time=0),
    Message('note_on', channel=8, note=77, velocity=67, time=1),
    Message('note_off', channel=8, note=73, velocity=64, time=1),
    Message('control_change', channel=8, control=64, value=127, time=1),
    Message('note_off', channel=8, note=70, velocity=64, time=3),
    Message('note_off', channel=8, note=67, velocity=64, time=6),
    Message('control_change', channel=8, control=11, value=57, time=7),
    Message('control_change', channel=8, control=11, value=56, time=0),
    Message('note_off', channel=8, note=77, velocity=64, time=0),
    Message('note_on', channel=8, note=75, velocity=65, time=3),
    Message('note_off', channel=8, note=75, velocity=64, time=14),
    Message('note_on', channel=8, note=73, velocity=56, time=1),
    Message('control_change', channel=8, control=11, value=56, time=3),
    Message('control_change', channel=8, control=11, value=55, time=0),
    Message('note_off', channel=8, note=73, velocity=64, time=11),
    Message('note_on', channel=8, note=70, velocity=69, time=0),
    Message('control_change', channel=8, control=11, value=55, time=8),
    Message('control_change', channel=8, control=11, value=54, time=0),
    Message('note_off', channel=8, note=70, velocity=64, time=3),
    Message('note_on', channel=8, note=67, velocity=75, time=4),
    Message('note_off', channel=8, note=67, velocity=64, time=5),
    Message('control_change', channel=8, control=11, value=54, time=8),
    Message('control_change', channel=8, control=11, value=53, time=0),
    Message('note_on', channel=8, note=62, velocity=55, time=0),
    Message('note_off', channel=8, note=62, velocity=64, time=7),
    Message('note_on', channel=8, note=63, velocity=76, time=10),
    Message('control_change', channel=8, control=11, value=53, time=1),
    Message('control_change', channel=8, control=11, value=58, time=0),
    Message('note_off', channel=8, note=63, velocity=64, time=5),
    Message('control_change', channel=8, control=11, value=54, time=1),
    Message('control_change', channel=8, control=11, value=51, time=5),
    Message('note_on', channel=8, note=67, velocity=82, time=1),
    Message('note_off', channel=8, note=67, velocity=64, time=6),
    Message('note_on', channel=8, note=70, velocity=87, time=6),
    Message('note_off', channel=8, note=70, velocity=64, time=6),
    Message('note_on', channel=8, note=73, velocity=90, time=9),
    Message('note_on', channel=8, note=74, velocity=90, time=11),
    Message('note_off', channel=8, note=73, velocity=64, time=0),
    Message('note_off', channel=8, note=74, velocity=64, time=12),
    Message('note_on', channel=8, note=77, velocity=84, time=1),
    Message('note_off', channel=8, note=77, velocity=64, time=6),
    Message('note_on', channel=8, note=75, velocity=89, time=5),
    Message('note_off', channel=8, note=75, velocity=64, time=6),
    Message('control_change', channel=8, control=11, value=51, time=5),
    Message('control_change', channel=8, control=11, value=50, time=0),
    Message('note_on', channel=8, note=79, velocity=76, time=4),
    Message('note_off', channel=8, note=79, velocity=64, time=6),
    Message('note_on', channel=8, note=82, velocity=97, time=4),
    Message('note_off', channel=8, note=82, velocity=64, time=9),
    Message('note_on', channel=8, note=85, velocity=93, time=5),
    Message('control_change', channel=8, control=64, value=127, time=1),
    Message('control_change', channel=8, control=64, value=74, time=0),
    Message('note_on', channel=8, note=86, velocity=102, time=8),
    Message('note_off', channel=8, note=85, velocity=64, time=0),
    Message('control_change', channel=8, control=64, value=38, time=3),
    Message('note_off', channel=8, note=86, velocity=64, time=7),
    Message('note_on', channel=8, note=89, velocity=101, time=2),
    Message('control_change', channel=8, control=64, value=38, time=5),
    Message('control_change', channel=8, control=64, value=0, time=0),
    Message('control_change', channel=8, control=91, value=115, time=3),
    Message('control_change', channel=8, control=91, value=127, time=0),
    Message('note_off', channel=8, note=89, velocity=64, time=2),
    Message('control_change', channel=8, control=64, value=38, time=1),
    Message('note_on', channel=8, note=87, velocity=94, time=2),
    Message('control_change', channel=8, control=64, value=67, time=3),
    Message('control_change', channel=8, control=64, value=74, time=1),
    Message('control_change', channel=8, control=64, value=127, time=3),
    Message('note_off', channel=8, note=87, velocity=64, time=2),
    Message('note_on', channel=8, note=91, velocity=93, time=4),
    Message('note_off', channel=8, note=91, velocity=64, time=8),
    Message('note_on', channel=8, note=94, velocity=99, time=2),
    Message('control_change', channel=8, control=11, value=50, time=5),
    Message('control_change', channel=8, control=11, value=49, time=0),
    Message('note_on', channel=8, note=97, velocity=100, time=7),
    Message('note_off', channel=8, note=94, velocity=64, time=2),
    Message('note_off', channel=8, note=97, velocity=64, time=11),
    Message('note_on', channel=8, note=100, velocity=105, time=0),
    Message('control_change', channel=8, control=64, value=127, time=2),
    Message('control_change', channel=8, control=64, value=74, time=0),
    Message('control_change', channel=8, control=64, value=71, time=1),
    Message('control_change', channel=8, control=64, value=38, time=4),
    Message('note_on', channel=8, note=101, velocity=115, time=6),
    Message('control_change', channel=8, control=64, value=0, time=0),
    Message('control_change', channel=8, control=64, value=5, time=2),
    Message('note_off', channel=8, note=100, velocity=64, time=2),
    Message('control_change', channel=8, control=64, value=38, time=4),
    Message('note_on', channel=8, note=96, velocity=100, time=2),
    Message('control_change', channel=8, control=64, value=74, time=3),
    Message('note_off', channel=8, note=101, velocity=64, time=0),
    Message('control_change', channel=8, control=64, value=76, time=1),
    Message('control_change', channel=8, control=64, value=127, time=3),
    Message('note_on', channel=8, note=97, velocity=100, time=4),
    Message('note_off', channel=8, note=96, velocity=64, time=8),
    Message('note_on', channel=8, note=93, velocity=100, time=4),
    Message('note_off', channel=8, note=97, velocity=64, time=1),
    Message('control_change', channel=8, control=64, value=127, time=0),
    Message('control_change', channel=8, control=64, value=74, time=0),
    Message('control_change', channel=8, control=64, value=38, time=3),
    Message('control_change', channel=8, control=64, value=36, time=1),
    Message('control_change', channel=8, control=64, value=0, time=4),
    Message('note_on', channel=8, note=94, velocity=98, time=3),
    Message('control_change', channel=8, control=64, value=38, time=0),
    Message('note_off', channel=8, note=93, velocity=64, time=1),
    Message('control_change', channel=8, control=64, value=63, time=4),
    Message('control_change', channel=8, control=64, value=74, time=2),
    Message('note_off', channel=8, note=94, velocity=64, time=5),
    Message('note_on', channel=8, note=90, velocity=78, time=1),
    Message('control_change', channel=8, control=11, value=49, time=2),
    Message('control_change', channel=8, control=11, value=48, time=0),
    Message('control_change', channel=8, control=64, value=127, time=0),
    Message('control_change', channel=8, control=64, value=117, time=2),
    Message('control_change', channel=8, control=64, value=74, time=5),
    Message('note_on', channel=8, note=91, velocity=89, time=1),
    Message('note_off', channel=8, note=90, velocity=64, time=1),
    Message('note_on', channel=8, note=88, velocity=95, time=11),
    Message('note_off', channel=8, note=91, velocity=64, time=1),
    Message('note_off', channel=8, note=88, velocity=64, time=10),
    Message('note_on', channel=8, note=89, velocity=75, time=1),
    Message('control_change', channel=8, control=64, value=74, time=9),
    Message('control_change', channel=8, control=64, value=38, time=0),
    Message('note_on', channel=8, note=84, velocity=90, time=2),
    Message('note_off', channel=8, note=89, velocity=64, time=3),
    Message('control_change', channel=8, control=64, value=74, time=2),
    Message('note_off', channel=8, note=84, velocity=64, time=8),
    Message('note_on', channel=8, note=85, velocity=80, time=0),
    Message('control_change', channel=8, control=64, value=74, time=8),
    Message('control_change', channel=8, control=64, value=127, time=0),
    Message('note_off', channel=8, note=85, velocity=64, time=5),
    Message('note_on', channel=8, note=81, velocity=87, time=0),
    Message('control_change', channel=8, control=64, value=78, time=5),
    Message('control_change', channel=8, control=64, value=74, time=0),
    Message('control_change', channel=8, control=64, value=38, time=8),
    Message('note_off', channel=8, note=81, velocity=64, time=0),
    Message('note_on', channel=8, note=82, velocity=81, time=0),
    Message('control_change', channel=8, control=11, value=48, time=8),
    Message('control_change', channel=8, control=11, value=47, time=0),
    Message('note_off', channel=8, note=82, velocity=64, time=3),
    Message('note_on', channel=8, note=78, velocity=75, time=3),
    Message('control_change', channel=8, control=64, value=38, time=3),
    Message('control_change', channel=8, control=64, value=74, time=0),
    Message('control_change', channel=8, control=64, value=127, time=8),
    Message('note_on', channel=8, note=79, velocity=79, time=3),
    Message('note_off', channel=8, note=78, velocity=64, time=1),
    Message('note_off', channel=8, note=79, velocity=64, time=6),
    Message('control_change', channel=8, control=64, value=127, time=5),
    Message('control_change', channel=8, control=64, value=74, time=0),
    Message('note_on', channel=8, note=76, velocity=84, time=0),
    Message('note_off', channel=8, note=76, velocity=64, time=8),
    Message('control_change', channel=8, control=64, value=38, time=1),
    Message('control_change', channel=8, control=64, value=49, time=3),
    Message('note_on', channel=8, note=77, velocity=84, time=1),
    Message('control_change', channel=8, control=64, value=74, time=5),
    Message('control_change', channel=8, control=64, value=113, time=6),
    Message('control_change', channel=8, control=64, value=127, time=2),
    Message('note_on', channel=8, note=72, velocity=70, time=2),
    Message('note_off', channel=8, note=77, velocity=64, time=2),
    Message('note_off', channel=8, note=72, velocity=64, time=10),
    Message('note_on', channel=8, note=73, velocity=70, time=1),
    Message('control_change', channel=8, control=64, value=127, time=3),
    Message('control_change', channel=8, control=64, value=74, time=0),
    Message('control_change', channel=8, control=64, value=50, time=4),
    Message('control_change', channel=8, control=64, value=38, time=2),
    Message('note_off', channel=8, note=73, velocity=64, time=5),
    Message('note_on', channel=8, note=69, velocity=76, time=2),
    Message('control_change', channel=8, control=11, value=47, time=3),
    Message('control_change', channel=8, control=11, value=46, time=0),
    Message('note_on', channel=8, note=70, velocity=60, time=12),
    Message('note_off', channel=8, note=69, velocity=64, time=1),
    Message('control_change', channel=8, control=64, value=38, time=9),
    Message('control_change', channel=8, control=64, value=74, time=0),
    Message('control_change', channel=8, control=64, value=90, time=2),
    Message('control_change', channel=8, control=64, value=127, time=3),
    Message('note_on', channel=8, note=66, velocity=63, time=1),
    Message('note_off', channel=8, note=70, velocity=64, time=0),
    Message('control_change', channel=8, control=64, value=74, time=5),
    Message('control_change', channel=8, control=64, value=44, time=3),
    Message('control_change', channel=8, control=64, value=38, time=0),
    Message('control_change', channel=8, control=64, value=0, time=6),
    Message('note_off', channel=8, note=66, velocity=64, time=7),
    Message('note_on', channel=8, note=67, velocity=51, time=1),
    Message('control_change', channel=8, control=64, value=0, time=13),
    Message('control_change', channel=8, control=64, value=38, time=0),
    Message('note_on', channel=8, note=64, velocity=44, time=0),
    Message('note_off', channel=8, note=67, velocity=64, time=2),
    Message('control_change', channel=8, control=64, value=74, time=6),
    Message('note_on', channel=8, note=65, velocity=50, time=13),
    Message('note_off', channel=8, note=64, velocity=64, time=0),
    Message('control_change', channel=8, control=11, value=46, time=8),
    Message('control_change', channel=8, control=11, value=45, time=0),
    Message('control_change', channel=8, control=64, value=74, time=4),
    Message('control_change', channel=8, control=64, value=38, time=0),
    Message('control_change', channel=8, control=64, value=0, time=4),
    Message('note_on', channel=8, note=62, velocity=69, time=6),
    Message('note_off', channel=8, note=65, velocity=64, time=2),
    Message('control_change', channel=8, control=64, value=0, time=23),
    Message('control_change', channel=8, control=64, value=38, time=0),
    Message('control_change', channel=8, control=64, value=44, time=1),
    Message('note_on', channel=8, note=63, velocity=52, time=0),
    Message('note_off', channel=8, note=62, velocity=64, time=3),
    Message('control_change', channel=8, control=64, value=74, time=0),
    Message('control_change', channel=8, control=64, value=127, time=7),
    Message('pitchwheel', channel=8, pitch=0, time=3),
    Message('pitchwheel', channel=8, pitch=-337, time=0),
    Message('note_off', channel=8, note=63, velocity=64, time=1),
    Message('pitchwheel', channel=8, pitch=-347, time=1),
    Message('pitchwheel', channel=8, pitch=-356, time=3),
    Message('pitchwheel', channel=8, pitch=-366, time=1),
    Message('note_on', channel=8, note=64, velocity=49, time=0),
    Message('pitchwheel', channel=8, pitch=-376, time=1),
    Message('pitchwheel', channel=8, pitch=-386, time=2),
    Message('pitchwheel', channel=8, pitch=-391, time=2),
    Message('pitchwheel', channel=8, pitch=-396, time=1),
    Message('note_off', channel=8, note=64, velocity=64, time=0),
    Message('pitchwheel', channel=8, pitch=-406, time=1),
    Message('pitchwheel', channel=8, pitch=-416, time=2),
    Message('pitchwheel', channel=8, pitch=-426, time=2),
    Message('note_on', channel=8, note=63, velocity=56, time=1),
    Message('pitchwheel', channel=8, pitch=-436, time=1),
    Message('pitchwheel', channel=8, pitch=-446, time=2),
    Message('pitchwheel', channel=8, pitch=-453, time=2),
    Message('pitchwheel', channel=8, pitch=-455, time=0),
    Message('pitchwheel', channel=8, pitch=-465, time=2),
    Message('control_change', channel=8, control=11, value=45, time=1),
    Message('control_change', channel=8, control=11, value=45, time=0),
    Message('pitchwheel', channel=8, pitch=-475, time=1),
    Message('pitchwheel', channel=8, pitch=-485, time=2),
    Message('pitchwheel', channel=8, pitch=-495, time=1),
    Message('pitchwheel', channel=8, pitch=-505, time=2),
    Message('pitchwheel', channel=8, pitch=-515, time=2),
    Message('pitchwheel', channel=8, pitch=-516, time=1),
    Message('note_off', channel=8, note=63, velocity=64, time=1),
    Message('pitchwheel', channel=8, pitch=-525, time=0),
    Message('note_on', channel=8, note=61, velocity=60, time=1),
    Message('pitchwheel', channel=8, pitch=-535, time=1),
    Message('pitchwheel', channel=8, pitch=-545, time=2),
    Message('pitchwheel', channel=8, pitch=-554, time=2),
    Message('pitchwheel', channel=8, pitch=-564, time=2),
    Message('pitchwheel', channel=8, pitch=-574, time=2),
    Message('note_off', channel=8, note=61, velocity=64, time=0),
    Message('pitchwheel', channel=8, pitch=-576, time=1),
    Message('pitchwheel', channel=8, pitch=-584, time=1),
    Message('pitchwheel', channel=8, pitch=-594, time=2),
    Message('note_on', channel=8, note=63, velocity=64, time=2),
    Message('pitchwheel', channel=8, pitch=-604, time=0),
    Message('pitchwheel', channel=8, pitch=-614, time=2),
    Message('pitchwheel', channel=8, pitch=-624, time=2),
    Message('pitchwheel', channel=8, pitch=-634, time=1),
    Message('pitchwheel', channel=8, pitch=-639, time=2),
    Message('pitchwheel', channel=8, pitch=-644, time=1),
    Message('note_off', channel=8, note=63, velocity=64, time=0),
    Message('pitchwheel', channel=8, pitch=-653, time=1),
    Message('pitchwheel', channel=8, pitch=-663, time=2),
    Message('pitchwheel', channel=8, pitch=-673, time=3),
    Message('note_on', channel=8, note=60, velocity=87, time=0),
    Message('pitchwheel', channel=8, pitch=-683, time=1),
    Message('pitchwheel', channel=8, pitch=-693, time=2),
    Message('pitchwheel', channel=8, pitch=-698, time=2),
    Message('pitchwheel', channel=8, pitch=-703, time=1),
    Message('pitchwheel', channel=8, pitch=-713, time=1),
    Message('pitchwheel', channel=8, pitch=-723, time=2),
    Message('control_change', channel=8, control=64, value=127, time=0),
    Message('control_change', channel=8, control=64, value=74, time=0),
    Message('pitchwheel', channel=8, pitch=-733, time=2),
    Message('note_off', channel=8, note=60, velocity=64, time=1),
    Message('pitchwheel', channel=8, pitch=-743, time=0),
    Message('note_on', channel=8, note=63, velocity=94, time=1),
    Message('pitchwheel', channel=8, pitch=-752, time=1),
    Message('pitchwheel', channel=8, pitch=-762, time=2),
    Message('pitchwheel', channel=8, pitch=-764, time=1),
    Message('pitchwheel', channel=8, pitch=-772, time=1),
    Message('pitchwheel', channel=8, pitch=-782, time=2),
    Message('pitchwheel', channel=8, pitch=-792, time=2),
    Message('pitchwheel', channel=8, pitch=-802, time=2),
    Message('pitchwheel', channel=8, pitch=-812, time=2),
    Message('note_off', channel=8, note=63, velocity=64, time=0),
    Message('pitchwheel', channel=8, pitch=-822, time=2),
    Message('pitchwheel', channel=8, pitch=-825, time=1),
    Message('note_on', channel=8, note=59, velocity=95, time=0),
    Message('pitchwheel', channel=8, pitch=-832, time=1),
    Message('pitchwheel', channel=8, pitch=-842, time=2),
    Message('pitchwheel', channel=8, pitch=-851, time=2),
    Message('pitchwheel', channel=8, pitch=-861, time=1),
    Message('pitchwheel', channel=8, pitch=-871, time=2),
    Message('control_change', channel=8, control=64, value=74, time=0),
    Message('control_change', channel=8, control=64, value=38, time=0),
    Message('pitchwheel', channel=8, pitch=-881, time=2),
    Message('pitchwheel', channel=8, pitch=-887, time=2),
    Message('pitchwheel', channel=8, pitch=-891, time=0),
    Message('pitchwheel', channel=8, pitch=-901, time=2),
    Message('note_on', channel=8, note=63, velocity=97, time=0),
    Message('note_off', channel=8, note=59, velocity=64, time=1),
    Message('pitchwheel', channel=8, pitch=-911, time=1),
    Message('pitchwheel', channel=8, pitch=-921, time=3),
    Message('pitchwheel', channel=8, pitch=-931, time=1),
    Message('pitchwheel', channel=8, pitch=-941, time=2),
    Message('pitchwheel', channel=8, pitch=-946, time=2),
    Message('pitchwheel', channel=8, pitch=-950, time=1),
    Message('pitchwheel', channel=8, pitch=-960, time=1),
    Message('pitchwheel', channel=8, pitch=-970, time=2),
    Message('pitchwheel', channel=8, pitch=-980, time=3),
    Message('pitchwheel', channel=8, pitch=-990, time=1),
    Message('note_off', channel=8, note=63, velocity=64, time=0),
    Message('pitchwheel', channel=8, pitch=-1000, time=1),
    Message('note_on', channel=8, note=58, velocity=99, time=1),
    Message('pitchwheel', channel=8, pitch=-1010, time=2),
    Message('pitchwheel', channel=8, pitch=-1020, time=1),
    Message('pitchwheel', channel=8, pitch=-1030, time=2),
    Message('pitchwheel', channel=8, pitch=-1040, time=2),
    Message('pitchwheel', channel=8, pitch=-1049, time=2),
    Message('pitchwheel', channel=8, pitch=-1059, time=2),
    Message('pitchwheel', channel=8, pitch=-1069, time=2),
    Message('pitchwheel', channel=8, pitch=-1073, time=1),
    Message('pitchwheel', channel=8, pitch=-1079, time=1),
    Message('pitchwheel', channel=8, pitch=-1089, time=2),
    Message('pitchwheel', channel=8, pitch=-1099, time=2),
    Message('note_on', channel=8, note=63, velocity=100, time=0),
    Message('note_off', channel=8, note=58, velocity=64, time=0),
    Message('pitchwheel', channel=8, pitch=-1109, time=2),
    Message('pitchwheel', channel=8, pitch=-1119, time=2),
    Message('pitchwheel', channel=8, pitch=-1129, time=1),
    Message('pitchwheel', channel=8, pitch=-1135, time=2),
    Message('pitchwheel', channel=8, pitch=-1139, time=0),
    Message('pitchwheel', channel=8, pitch=-1148, time=2),
    Message('pitchwheel', channel=8, pitch=-1158, time=2),
    Message('pitchwheel', channel=8, pitch=-1168, time=2),
    Message('control_change', channel=8, control=64, value=38, time=1),
    Message('control_change', channel=8, control=64, value=0, time=0),
    Message('pitchwheel', channel=8, pitch=-1178, time=1),
    Message('pitchwheel', channel=8, pitch=-1188, time=2),
    Message('note_off', channel=8, note=63, velocity=64, time=1),
    Message('pitchwheel', channel=8, pitch=-1193, time=1),
    Message('pitchwheel', channel=8, pitch=-1198, time=1),
    Message('pitchwheel', channel=8, pitch=-1208, time=1),
    Message('note_on', channel=8, note=56, velocity=102, time=1),
    Message('pitchwheel', channel=8, pitch=-1218, time=1),
    Message('pitchwheel', channel=8, pitch=-1228, time=3),
    Message('pitchwheel', channel=8, pitch=-1238, time=1),
    Message('pitchwheel', channel=8, pitch=-1247, time=1),
    Message('pitchwheel', channel=8, pitch=-1252, time=3),
    Message('pitchwheel', channel=8, pitch=-1257, time=2),
    Message('pitchwheel', channel=8, pitch=-1267, time=0),
    Message('pitchwheel', channel=8, pitch=-1277, time=1),
    Message('pitchwheel', channel=8, pitch=-1287, time=2),
    Message('pitchwheel', channel=8, pitch=-1297, time=2),
    Message('pitchwheel', channel=8, pitch=-1307, time=2),
    Message('pitchwheel', channel=8, pitch=-1317, time=2),
    Message('pitchwheel', channel=8, pitch=-1319, time=1),
    Message('pitchwheel', channel=8, pitch=-1327, time=2),
    Message('note_on', channel=8, note=63, velocity=105, time=0),
    Message('pitchwheel', channel=8, pitch=-1337, time=1),
    Message('pitchwheel', channel=8, pitch=-1346, time=1),
    Message('pitchwheel', channel=8, pitch=-1356, time=3),
    Message('note_off', channel=8, note=56, velocity=64, time=1),
    Message('pitchwheel', channel=8, pitch=-1366, time=0),
    Message('pitchwheel', channel=8, pitch=-1376, time=3),
    Message('pitchwheel', channel=8, pitch=-1381, time=1),
    Message('pitchwheel', channel=8, pitch=-1386, time=0),
    Message('pitchwheel', channel=8, pitch=-1396, time=2),
    Message('pitchwheel', channel=8, pitch=-1406, time=2),
    Message('pitchwheel', channel=8, pitch=-1416, time=2),
    Message('pitchwheel', channel=8, pitch=-1426, time=2),
    Message('pitchwheel', channel=8, pitch=-1436, time=2),
    Message('pitchwheel', channel=8, pitch=-1446, time=2),
    Message('pitchwheel', channel=8, pitch=-1455, time=2),
    Message('pitchwheel', channel=8, pitch=-1465, time=2),
    Message('pitchwheel', channel=8, pitch=-1475, time=4),
    Message('note_on', channel=8, note=53, velocity=107, time=0),
    Message('pitchwheel', channel=8, pitch=-1485, time=0),
    Message('note_off', channel=8, note=63, velocity=64, time=0),
    Message('pitchwheel', channel=8, pitch=-1495, time=2),
    Message('pitchwheel', channel=8, pitch=-1500, time=2),
    Message('pitchwheel', channel=8, pitch=-1505, time=1),
    Message('pitchwheel', channel=8, pitch=-1515, time=1),
    Message('pitchwheel', channel=8, pitch=-1525, time=1),
    Message('pitchwheel', channel=8, pitch=-1535, time=2),
    Message('pitchwheel', channel=8, pitch=-1545, time=2),
    Message('pitchwheel', channel=8, pitch=-1554, time=2),
    Message('pitchwheel', channel=8, pitch=-1564, time=2),
    Message('pitchwheel', channel=8, pitch=-1567, time=1),
    Message('pitchwheel', channel=8, pitch=-1574, time=1),
    Message('pitchwheel', channel=8, pitch=-1584, time=2),
    Message('pitchwheel', channel=8, pitch=-1594, time=2),
    Message('pitchwheel', channel=8, pitch=-1604, time=2),
    Message('pitchwheel', channel=8, pitch=-1614, time=1),
    Message('pitchwheel', channel=8, pitch=-1624, time=2),
    Message('pitchwheel', channel=8, pitch=-1630, time=2),
    Message('pitchwheel', channel=8, pitch=-1634, time=0),
    Message('pitchwheel', channel=8, pitch=-1644, time=2),
    Message('pitchwheel', channel=8, pitch=-1653, time=2),
    Message('pitchwheel', channel=8, pitch=-1663, time=2),
    Message('note_on', channel=8, note=63, velocity=111, time=1),
    Message('pitchwheel', channel=8, pitch=-1673, time=1),
    Message('note_off', channel=8, note=53, velocity=64, time=0),
    Message('pitchwheel', channel=8, pitch=-1683, time=2),
    Message('pitchwheel', channel=8, pitch=-1691, time=2),
    Message('pitchwheel', channel=8, pitch=-1693, time=0),
    Message('pitchwheel', channel=8, pitch=-1703, time=2),
    Message('pitchwheel', channel=8, pitch=-1713, time=1),
    Message('pitchwheel', channel=8, pitch=-1723, time=3),
    Message('pitchwheel', channel=8, pitch=-1733, time=1),
    Message('pitchwheel', channel=8, pitch=-1743, time=2),
    Message('pitchwheel', channel=8, pitch=-1752, time=2),
    Message('pitchwheel', channel=8, pitch=-1753, time=1),
    Message('pitchwheel', channel=8, pitch=-1762, time=2),
    Message('pitchwheel', channel=8, pitch=-1772, time=1),
    Message('pitchwheel', channel=8, pitch=-1782, time=2),
    Message('pitchwheel', channel=8, pitch=-1792, time=3),
    Message('pitchwheel', channel=8, pitch=-1802, time=1),
    Message('pitchwheel', channel=8, pitch=-1812, time=2),
    Message('pitchwheel', channel=8, pitch=-1814, time=1),
    Message('pitchwheel', channel=8, pitch=-1822, time=1),
    Message('pitchwheel', channel=8, pitch=-1832, time=2),
    Message('pitchwheel', channel=8, pitch=-1842, time=2),
    Message('pitchwheel', channel=8, pitch=-1851, time=2),
    Message('pitchwheel', channel=8, pitch=-1861, time=2),
    Message('pitchwheel', channel=8, pitch=-1871, time=2),
    Message('pitchwheel', channel=8, pitch=-1877, time=1),
    Message('pitchwheel', channel=8, pitch=-1881, time=0),
    Message('control_change', channel=8, control=11, value=45, time=2),
    Message('control_change', channel=8, control=11, value=46, time=0),
    Message('pitchwheel', channel=8, pitch=-1891, time=0),
    Message('pitchwheel', channel=8, pitch=-1901, time=2),
    Message('pitchwheel', channel=8, pitch=-1911, time=2),
    Message('pitchwheel', channel=8, pitch=-1921, time=2),
    Message('pitchwheel', channel=8, pitch=-1931, time=2),
    Message('pitchwheel', channel=8, pitch=-1939, time=2),
    Message('pitchwheel', channel=8, pitch=-1941, time=0),
    Message('pitchwheel', channel=8, pitch=-1950, time=2),
    Message('control_change', channel=8, control=11, value=46, time=1),
    Message('control_change', channel=8, control=11, value=46, time=0),
    Message('pitchwheel', channel=8, pitch=-1960, time=1),
    Message('pitchwheel', channel=8, pitch=-1970, time=2),
    Message('control_change', channel=8, control=11, value=47, time=0),
    Message('pitchwheel', channel=8, pitch=-1980, time=2),
    Message('note_on', channel=8, note=50, velocity=116, time=0),
    Message('pitchwheel', channel=8, pitch=-1990, time=1),
    Message('pitchwheel', channel=8, pitch=-2000, time=3),
    Message('control_change', channel=8, control=11, value=47, time=0),
    Message('pitchwheel', channel=8, pitch=-2010, time=2),
    Message('pitchwheel', channel=8, pitch=-2020, time=1),
    Message('control_change', channel=8, control=11, value=48, time=1),
    Message('pitchwheel', channel=8, pitch=-2030, time=1),
    Message('pitchwheel', channel=8, pitch=-2040, time=3),
    Message('note_off', channel=8, note=63, velocity=64, time=1),
    Message('pitchwheel', channel=8, pitch=-2049, time=0),
    Message('pitchwheel', channel=8, pitch=-2059, time=2),
    Message('pitchwheel', channel=8, pitch=-2061, time=1),
    Message('control_change', channel=8, control=11, value=48, time=0),
    Message('pitchwheel', channel=8, pitch=-2069, time=2),
    Message('pitchwheel', channel=8, pitch=-2079, time=1),
    Message('control_change', channel=8, control=11, value=49, time=0),
    Message('pitchwheel', channel=8, pitch=-2089, time=2),
    Message('pitchwheel', channel=8, pitch=-2099, time=3),
    Message('pitchwheel', channel=8, pitch=-2109, time=1),
    Message('pitchwheel', channel=8, pitch=-2119, time=2),
    Message('pitchwheel', channel=8, pitch=-2124, time=1),
    Message('control_change', channel=8, control=11, value=49, time=0),
    Message('pitchwheel', channel=8, pitch=-2129, time=0),
    Message('pitchwheel', channel=8, pitch=-2139, time=2),
    Message('control_change', channel=8, control=11, value=50, time=1),
    Message('pitchwheel', channel=8, pitch=-2148, time=1),
    Message('pitchwheel', channel=8, pitch=-2158, time=2),
    Message('pitchwheel', channel=8, pitch=-2168, time=2),
    Message('pitchwheel', channel=8, pitch=-2178, time=2),
    Message('pitchwheel', channel=8, pitch=-2186, time=2),
    Message('control_change', channel=8, control=11, value=50, time=0),
    Message('pitchwheel', channel=8, pitch=-2188, time=0),
    Message('pitchwheel', channel=8, pitch=-2198, time=2),
    Message('control_change', channel=8, control=11, value=51, time=0),
    Message('pitchwheel', channel=8, pitch=-2208, time=2),
    Message('pitchwheel', channel=8, pitch=-2218, time=1),
    Message('pitchwheel', channel=8, pitch=-2228, time=3),
    Message('pitchwheel', channel=8, pitch=-2238, time=1),
    Message('pitchwheel', channel=8, pitch=-2247, time=2),
    Message('pitchwheel', channel=8, pitch=-2249, time=1),
    Message('control_change', channel=8, control=11, value=51, time=0),
    Message('control_change', channel=8, control=11, value=52, time=0),
    Message('pitchwheel', channel=8, pitch=-2257, time=1),
    Message('pitchwheel', channel=8, pitch=-2267, time=2),
    Message('pitchwheel', channel=8, pitch=-2277, time=2),
    Message('pitchwheel', channel=8, pitch=-2287, time=3),
    Message('pitchwheel', channel=8, pitch=-2297, time=1),
    Message('pitchwheel', channel=8, pitch=-2307, time=2),
    Message('control_change', channel=8, control=11, value=53, time=0),
    Message('pitchwheel', channel=8, pitch=-2309, time=1),
    Message('control_change', channel=8, control=11, value=53, time=0),
    Message('pitchwheel', channel=8, pitch=-2317, time=2),
    Message('pitchwheel', channel=8, pitch=-2327, time=1),
    Message('pitchwheel', channel=8, pitch=-2337, time=2),
    Message('pitchwheel', channel=8, pitch=-2346, time=3),
    Message('pitchwheel', channel=8, pitch=-2356, time=1),
    Message('pitchwheel', channel=8, pitch=-2366, time=2),
    Message('control_change', channel=8, control=11, value=54, time=0),
    Message('pitchwheel', channel=8, pitch=-2369, time=1),
    Message('control_change', channel=8, control=11, value=54, time=0),
    Message('pitchwheel', channel=8, pitch=-2376, time=2),
    Message('pitchwheel', channel=8, pitch=-2386, time=1),
    Message('pitchwheel', channel=8, pitch=-2396, time=1),
    Message('pitchwheel', channel=8, pitch=-2406, time=3),
    Message('pitchwheel', channel=8, pitch=-2416, time=1),
    Message('control_change', channel=8, control=11, value=55, time=1),
    Message('pitchwheel', channel=8, pitch=-2426, time=1),
    Message('pitchwheel', channel=8, pitch=-2434, time=2),
    Message('pitchwheel', channel=8, pitch=-2436, time=0),
    Message('pitchwheel', channel=8, pitch=-2445, time=2),
    Message('pitchwheel', channel=8, pitch=-2455, time=2),
    Message('pitchwheel', channel=8, pitch=-2465, time=2),
    Message('pitchwheel', channel=8, pitch=-2475, time=3),
    Message('control_change', channel=8, control=11, value=55, time=0),
    Message('control_change', channel=8, control=11, value=56, time=0),
    Message('pitchwheel', channel=8, pitch=-2485, time=0),
    Message('pitchwheel', channel=8, pitch=-2495, time=2),
    Message('pitchwheel', channel=8, pitch=-2496, time=1),
    Message('control_change', channel=8, control=11, value=56, time=0),
    Message('pitchwheel', channel=8, pitch=-2505, time=1),
    Message('pitchwheel', channel=8, pitch=-2515, time=2),
    Message('pitchwheel', channel=8, pitch=-2525, time=2),
    Message('pitchwheel', channel=8, pitch=-2535, time=2),
    Message('control_change', channel=8, control=11, value=57, time=1),
    Message('pitchwheel', channel=8, pitch=-2544, time=1),
    Message('pitchwheel', channel=8, pitch=-2554, time=2),
    Message('pitchwheel', channel=8, pitch=-2557, time=1),
    Message('pitchwheel', channel=8, pitch=-2564, time=1),
    Message('pitchwheel', channel=8, pitch=-2574, time=2),
    Message('pitchwheel', channel=8, pitch=-2584, time=1),
    Message('pitchwheel', channel=8, pitch=-2594, time=4),
    Message('control_change', channel=8, control=11, value=57, time=1),
    Message('control_change', channel=8, control=11, value=58, time=0),
    Message('pitchwheel', channel=8, pitch=-2604, time=0),
    Message('pitchwheel', channel=8, pitch=-2614, time=1),
    Message('pitchwheel', channel=8, pitch=-2617, time=2),
    Message('control_change', channel=8, control=11, value=58, time=0),
    Message('pitchwheel', channel=8, pitch=-2624, time=2),
    Message('pitchwheel', channel=8, pitch=-2634, time=1),
    Message('pitchwheel', channel=8, pitch=-2643, time=1),
    Message('control_change', channel=8, control=11, value=59, time=1),
    Message('pitchwheel', channel=8, pitch=-2653, time=1),
    Message('pitchwheel', channel=8, pitch=-2663, time=2),
    Message('pitchwheel', channel=8, pitch=-2673, time=2),
    Message('pitchwheel', channel=8, pitch=-2681, time=2),
    Message('control_change', channel=8, control=11, value=59, time=0),
    Message('pitchwheel', channel=8, pitch=-2683, time=0),
    Message('pitchwheel', channel=8, pitch=-2693, time=2),
    Message('pitchwheel', channel=8, pitch=-2703, time=2),
    Message('control_change', channel=8, control=11, value=60, time=0),
    Message('pitchwheel', channel=8, pitch=-2713, time=2),
    Message('pitchwheel', channel=8, pitch=-2723, time=2),
    Message('pitchwheel', channel=8, pitch=-2733, time=2),
    Message('pitchwheel', channel=8, pitch=-2742, time=1),
    Message('pitchwheel', channel=8, pitch=-2743, time=1),
    Message('control_change', channel=8, control=11, value=60, time=0),
    Message('pitchwheel', channel=8, pitch=-2752, time=1),
    Message('pitchwheel', channel=8, pitch=-2762, time=2),
    Message('control_change', channel=8, control=11, value=61, time=1),
    Message('pitchwheel', channel=8, pitch=-2772, time=1),
    Message('pitchwheel', channel=8, pitch=-2782, time=2),
    Message('pitchwheel', channel=8, pitch=-2792, time=2),
    Message('pitchwheel', channel=8, pitch=-2639, time=3),
    Message('control_change', channel=8, control=11, value=61, time=0),
    Message('pitchwheel', channel=8, pitch=-2581, time=1),
    Message('control_change', channel=8, control=11, value=62, time=1),
    Message('pitchwheel', channel=8, pitch=-2599, time=0),
    Message('pitchwheel', channel=8, pitch=-2618, time=2),
    Message('pitchwheel', channel=8, pitch=-2636, time=2),
    Message('pitchwheel', channel=8, pitch=-2655, time=2),
    Message('pitchwheel', channel=8, pitch=-2673, time=2),
    Message('pitchwheel', channel=8, pitch=-2687, time=2),
    Message('pitchwheel', channel=8, pitch=-2692, time=0),
    Message('control_change', channel=8, control=11, value=62, time=3),
    Message('control_change', channel=8, control=11, value=63, time=0),
    Message('pitchwheel', channel=8, pitch=-2710, time=0),
    Message('pitchwheel', channel=8, pitch=-2728, time=1),
    Message('pitchwheel', channel=8, pitch=-2747, time=2),
    Message('pitchwheel', channel=8, pitch=-2765, time=2),
    Message('pitchwheel', channel=8, pitch=-2784, time=2),
    Message('pitchwheel', channel=8, pitch=-2802, time=2),
    Message('control_change', channel=8, control=11, value=63, time=0),
    Message('control_change', channel=8, control=11, value=64, time=2),
    Message('pitchwheel', channel=8, pitch=-2821, time=1),
    Message('control_change', channel=8, control=91, value=127, time=0),
    Message('control_change', channel=8, control=91, value=0, time=0),
    Message('pitchwheel', channel=8, pitch=-2839, time=1),
    Message('pitchwheel', channel=8, pitch=-2858, time=1),
    Message('pitchwheel', channel=8, pitch=-2876, time=4),
    Message('pitchwheel', channel=8, pitch=-2894, time=0),
    Message('pitchwheel', channel=8, pitch=-2913, time=2),
    Message('pitchwheel', channel=8, pitch=-2916, time=1),
    Message('control_change', channel=8, control=11, value=64, time=0),
    Message('control_change', channel=8, control=11, value=65, time=0),
    Message('pitchwheel', channel=8, pitch=-2931, time=1),
    Message('pitchwheel', channel=8, pitch=-2950, time=2),
    Message('pitchwheel', channel=8, pitch=-2968, time=2),
    Message('pitchwheel', channel=8, pitch=-2987, time=2),
    Message('pitchwheel', channel=8, pitch=-3005, time=2),
    Message('control_change', channel=8, control=11, value=66, time=0),
    Message('pitchwheel', channel=8, pitch=-3024, time=2),
    Message('pitchwheel', channel=8, pitch=-3032, time=1),
    Message('control_change', channel=8, control=11, value=66, time=0),
    Message('pitchwheel', channel=8, pitch=-3042, time=1),
    Message('pitchwheel', channel=8, pitch=-3060, time=1),
    Message('pitchwheel', channel=8, pitch=-3079, time=2),
    Message('pitchwheel', channel=8, pitch=-3097, time=2),
    Message('pitchwheel', channel=8, pitch=-3116, time=2),
    Message('control_change', channel=8, control=11, value=67, time=1),
    Message('pitchwheel', channel=8, pitch=-3134, time=1),
    Message('pitchwheel', channel=8, pitch=-3148, time=2),
    Message('control_change', channel=8, control=11, value=67, time=0),
    Message('pitchwheel', channel=8, pitch=-3153, time=0),
    Message('pitchwheel', channel=8, pitch=-3171, time=2),
    Message('pitchwheel', channel=8, pitch=-3190, time=2),
    Message('pitchwheel', channel=8, pitch=-3208, time=2),
    Message('control_change', channel=8, control=19, value=0, time=0),
    Message('control_change', channel=8, control=19, value=127, time=0),
    Message('pitchwheel', channel=8, pitch=-3226, time=2),
    Message('control_change', channel=8, control=11, value=68, time=0),
    Message('pitchwheel', channel=8, pitch=-3245, time=2),
    Message('pitchwheel', channel=8, pitch=-3263, time=2),
    Message('pitchwheel', channel=8, pitch=-3300, time=4),
    Message('pitchwheel', channel=8, pitch=-3319, time=1),
    Message('pitchwheel', channel=8, pitch=-3337, time=3),
    Message('control_change', channel=8, control=11, value=68, time=1),
    Message('control_change', channel=8, control=11, value=69, time=0),
    Message('pitchwheel', channel=8, pitch=-3356, time=0),
    Message('pitchwheel', channel=8, pitch=-3374, time=2),
    Message('pitchwheel', channel=8, pitch=-3377, time=1),
    Message('control_change', channel=8, control=11, value=69, time=0),
    Message('pitchwheel', channel=8, pitch=-3392, time=2),
    Message('pitchwheel', channel=8, pitch=-3411, time=1),
    Message('pitchwheel', channel=8, pitch=-3429, time=2),
    Message('control_change', channel=8, control=11, value=70, time=1),
    Message('pitchwheel', channel=8, pitch=-3448, time=2),
    Message('pitchwheel', channel=8, pitch=-3466, time=1),
    Message('pitchwheel', channel=8, pitch=-3485, time=2),
    Message('pitchwheel', channel=8, pitch=-3489, time=1),
    Message('control_change', channel=8, control=11, value=70, time=0),
    Message('pitchwheel', channel=8, pitch=-3503, time=2),
    Message('pitchwheel', channel=8, pitch=-3522, time=1),
    Message('pitchwheel', channel=8, pitch=-3540, time=1),
    Message('control_change', channel=8, control=11, value=71, time=1),
    Message('pitchwheel', channel=8, pitch=-3558, time=1),
    Message('pitchwheel', channel=8, pitch=-3577, time=2),
    Message('pitchwheel', channel=8, pitch=-3595, time=2),
    Message('pitchwheel', channel=8, pitch=-3608, time=2),
    Message('control_change', channel=8, control=11, value=71, time=0),
    Message('pitchwheel', channel=8, pitch=-3614, time=0),
    Message('pitchwheel', channel=8, pitch=-3632, time=2),
    Message('pitchwheel', channel=8, pitch=-3651, time=2),
    Message('control_change', channel=8, control=11, value=72, time=1),
    Message('pitchwheel', channel=8, pitch=-3669, time=1),
    Message('pitchwheel', channel=8, pitch=-3688, time=2),
    Message('pitchwheel', channel=8, pitch=-3706, time=1),
    Message('pitchwheel', channel=8, pitch=-3724, time=3),
    Message('control_change', channel=8, control=11, value=72, time=0),
    Message('pitchwheel', channel=8, pitch=-3743, time=1),
    Message('control_change', channel=8, control=11, value=73, time=1),
    Message('pitchwheel', channel=8, pitch=-3761, time=1),
    Message('pitchwheel', channel=8, pitch=-3780, time=2),
    Message('pitchwheel', channel=8, pitch=-3798, time=2),
    Message('pitchwheel', channel=8, pitch=-3817, time=2),
    Message('pitchwheel', channel=8, pitch=-3835, time=2),
    Message('pitchwheel', channel=8, pitch=-3840, time=1),
    Message('control_change', channel=8, control=11, value=73, time=0),
    Message('pitchwheel', channel=8, pitch=-3854, time=1),
    Message('control_change', channel=8, control=11, value=74, time=1),
    Message('pitchwheel', channel=8, pitch=-3872, time=1),
    Message('pitchwheel', channel=8, pitch=-3891, time=2),
    Message('pitchwheel', channel=8, pitch=-3909, time=4),
    Message('pitchwheel', channel=8, pitch=-3927, time=0),
    Message('pitchwheel', channel=8, pitch=-3946, time=1),
    Message('pitchwheel', channel=8, pitch=-3958, time=2),
    Message('pitchwheel', channel=8, pitch=-3964, time=0),
    Message('control_change', channel=8, control=11, value=74, time=3),
    Message('control_change', channel=8, control=11, value=75, time=0),
    Message('pitchwheel', channel=8, pitch=-3983, time=1),
    Message('pitchwheel', channel=8, pitch=-4001, time=0),
    Message('pitchwheel', channel=8, pitch=-4020, time=2),
    Message('pitchwheel', channel=8, pitch=-4038, time=2),
    Message('pitchwheel', channel=8, pitch=-4057, time=2),
    Message('pitchwheel', channel=8, pitch=-4071, time=2),
    Message('control_change', channel=8, control=11, value=75, time=0),
    Message('pitchwheel', channel=8, pitch=-4075, time=0),
    Message('control_change', channel=8, control=11, value=76, time=1),
    Message('pitchwheel', channel=8, pitch=-4093, time=1),
    Message('pitchwheel', channel=8, pitch=-4112, time=2),
    Message('pitchwheel', channel=8, pitch=-4130, time=2),
    Message('pitchwheel', channel=8, pitch=-4149, time=1),
    Message('pitchwheel', channel=8, pitch=-4167, time=3),
    Message('control_change', channel=8, control=11, value=77, time=0),
    Message('pitchwheel', channel=8, pitch=-4186, time=1),
    Message('pitchwheel', channel=8, pitch=-4187, time=1),
    Message('control_change', channel=8, control=11, value=77, time=0),
    Message('pitchwheel', channel=8, pitch=-4204, time=1),
    Message('pitchwheel', channel=8, pitch=-4223, time=2),
    Message('pitchwheel', channel=8, pitch=-4241, time=2),
    Message('pitchwheel', channel=8, pitch=-4259, time=2),
    Message('pitchwheel', channel=8, pitch=-4278, time=3),
    Message('control_change', channel=8, control=11, value=78, time=0),
    Message('pitchwheel', channel=8, pitch=-4296, time=1),
    Message('pitchwheel', channel=8, pitch=-4301, time=1),
    Message('control_change', channel=8, control=11, value=78, time=0),
    Message('pitchwheel', channel=8, pitch=-4315, time=1),
    Message('pitchwheel', channel=8, pitch=-4333, time=2),
    Message('pitchwheel', channel=8, pitch=-4352, time=2),
    Message('pitchwheel', channel=8, pitch=-4370, time=2),
    Message('pitchwheel', channel=8, pitch=-4389, time=1),
    Message('control_change', channel=8, control=11, value=79, time=1),
    Message('pitchwheel', channel=8, pitch=-4407, time=2),
    Message('pitchwheel', channel=8, pitch=-4417, time=1),
    Message('control_change', channel=8, control=11, value=79, time=0),
    Message('pitchwheel', channel=8, pitch=-4425, time=0),
    Message('pitchwheel', channel=8, pitch=-4444, time=2),
    Message('pitchwheel', channel=8, pitch=-4462, time=2),
    Message('pitchwheel', channel=8, pitch=-4481, time=2),
    Message('control_change', channel=8, control=11, value=80, time=3),
    Message('pitchwheel', channel=8, pitch=-4499, time=0),
    Message('pitchwheel', channel=8, pitch=-4518, time=1),
    Message('pitchwheel', channel=8, pitch=-4534, time=2),
    Message('control_change', channel=8, control=11, value=80, time=0),
    Message('pitchwheel', channel=8, pitch=-4536, time=0),
    Message('pitchwheel', channel=8, pitch=-4555, time=3),
    Message('pitchwheel', channel=8, pitch=-4573, time=1),
    Message('pitchwheel', channel=8, pitch=-4591, time=2),
    Message('control_change', channel=8, control=11, value=81, time=1),
    Message('pitchwheel', channel=8, pitch=-4610, time=1),
    Message('pitchwheel', channel=8, pitch=-4628, time=2),
    Message('pitchwheel', channel=8, pitch=-4647, time=2),
    Message('control_change', channel=8, control=11, value=81, time=0),
    Message('pitchwheel', channel=8, pitch=-4665, time=2),
    Message('pitchwheel', channel=8, pitch=-4684, time=1),
    Message('pitchwheel', channel=8, pitch=-4702, time=2),
    Message('control_change', channel=8, control=11, value=82, time=1),
    Message('pitchwheel', channel=8, pitch=-4721, time=1),
    Message('pitchwheel', channel=8, pitch=-4739, time=2),
    Message('pitchwheel', channel=8, pitch=-4757, time=2),
    Message('pitchwheel', channel=8, pitch=-4763, time=1),
    Message('control_change', channel=8, control=11, value=82, time=0),
    Message('pitchwheel', channel=8, pitch=-4776, time=1),
    Message('pitchwheel', channel=8, pitch=-4794, time=2),
    Message('pitchwheel', channel=8, pitch=-4813, time=2),
    Message('control_change', channel=8, control=11, value=83, time=1),
    Message('pitchwheel', channel=8, pitch=-4831, time=1),
    Message('pitchwheel', channel=8, pitch=-4850, time=2),
    Message('pitchwheel', channel=8, pitch=-4868, time=2),
    Message('pitchwheel', channel=8, pitch=-4878, time=1),
    Message('control_change', channel=8, control=11, value=83, time=0),
    Message('pitchwheel', channel=8, pitch=-4887, time=0),
    Message('pitchwheel', channel=8, pitch=-4905, time=3),
    Message('control_change', channel=8, control=11, value=84, time=0),
    Message('pitchwheel', channel=8, pitch=-4923, time=1),
    Message('pitchwheel', channel=8, pitch=-4942, time=2),
    Message('note_off', channel=8, note=50, velocity=64, time=1),
    Message('pitchwheel', channel=8, pitch=-4960, time=1),
    Message('pitchwheel', channel=8, pitch=-4979, time=2),
    Message('pitchwheel', channel=8, pitch=-4993, time=2),
    Message('control_change', channel=8, control=11, value=84, time=0),
    Message('pitchwheel', channel=8, pitch=-4997, time=0),
    Message('pitchwheel', channel=8, pitch=-8192, time=3),
    Message('control_change', channel=8, control=11, value=85, time=0),
    Message('control_change', channel=8, control=11, value=85, time=12),
    Message('control_change', channel=8, control=11, value=86, time=0),
    Message('control_change', channel=8, control=11, value=86, time=9),
    Message('control_change', channel=8, control=11, value=87, time=0),
    Message('control_change', channel=8, control=11, value=88, time=11),
    Message('control_change', channel=8, control=11, value=88, time=1),
    Message('control_change', channel=8, control=11, value=89, time=11),
    Message('control_change', channel=8, control=11, value=89, time=1),
    Message('control_change', channel=8, control=11, value=90, time=10),
    Message('control_change', channel=8, control=11, value=90, time=2),
    Message('control_change', channel=8, control=11, value=91, time=9),
    Message('control_change', channel=8, control=11, value=91, time=3),
    Message('control_change', channel=8, control=11, value=92, time=8),
    Message('control_change', channel=8, control=11, value=92, time=4),
    Message('control_change', channel=8, control=11, value=93, time=7),
    Message('control_change', channel=8, control=11, value=93, time=5),
    Message('control_change', channel=8, control=11, value=94, time=5),
    Message('control_change', channel=8, control=11, value=94, time=7),
    Message('control_change', channel=8, control=11, value=95, time=4),
    Message('control_change', channel=8, control=11, value=95, time=8),
    Message('control_change', channel=8, control=11, value=96, time=4),
    Message('control_change', channel=8, control=11, value=96, time=8),
    Message('control_change', channel=8, control=11, value=97, time=3),
    Message('control_change', channel=8, control=11, value=97, time=9),
    Message('control_change', channel=8, control=11, value=98, time=1),
    Message('control_change', channel=8, control=11, value=98, time=11),
    Message('control_change', channel=8, control=11, value=99, time=0),
    Message('control_change', channel=8, control=11, value=99, time=12),
    Message('control_change', channel=8, control=11, value=100, time=0),
    Message('control_change', channel=8, control=11, value=101, time=11),
    Message('control_change', channel=8, control=11, value=101, time=1),
    Message('control_change', channel=8, control=11, value=102, time=9),
    Message('control_change', channel=8, control=11, value=102, time=3),
    Message('control_change', channel=8, control=11, value=103, time=8),
    Message('control_change', channel=8, control=11, value=103, time=4),
    Message('control_change', channel=8, control=11, value=104, time=8),
    Message('control_change', channel=8, control=11, value=104, time=4),
    Message('control_change', channel=8, control=11, value=105, time=6),
    Message('control_change', channel=8, control=11, value=105, time=6),
    Message('control_change', channel=8, control=11, value=106, time=5),
    Message('control_change', channel=8, control=11, value=106, time=7),
    Message('control_change', channel=8, control=11, value=107, time=5),
    Message('control_change', channel=8, control=11, value=107, time=7),
    Message('control_change', channel=8, control=11, value=108, time=4),
    Message('control_change', channel=8, control=11, value=108, time=8),
    Message('control_change', channel=8, control=11, value=109, time=2),
    Message('control_change', channel=8, control=11, value=109, time=10),
    Message('control_change', channel=8, control=11, value=110, time=1),
    Message('control_change', channel=8, control=11, value=110, time=11),
    Message('control_change', channel=8, control=11, value=111, time=1),
    Message('control_change', channel=8, control=11, value=112, time=9),
    Message('control_change', channel=8, control=11, value=112, time=2),
    Message('control_change', channel=8, control=11, value=113, time=10),
    Message('control_change', channel=8, control=11, value=113, time=2),
    Message('control_change', channel=8, control=11, value=114, time=9),
    Message('control_change', channel=8, control=11, value=114, time=13),
    Message('control_change', channel=8, control=11, value=115, time=0),
    Message('control_change', channel=8, control=11, value=115, time=2),
    Message('control_change', channel=8, control=11, value=116, time=7),
    Message('control_change', channel=8, control=11, value=116, time=5),
    Message('control_change', channel=8, control=11, value=117, time=6),
    Message('control_change', channel=8, control=11, value=117, time=6),
    Message('control_change', channel=8, control=11, value=118, time=6),
    Message('control_change', channel=8, control=11, value=118, time=6),
    Message('control_change', channel=8, control=11, value=119, time=3),
    Message('control_change', channel=8, control=11, value=119, time=13),
    Message('control_change', channel=8, control=11, value=120, time=0),
    Message('control_change', channel=8, control=11, value=120, time=8),
    Message('control_change', channel=8, control=11, value=121, time=2),
    Message('control_change', channel=8, control=11, value=121, time=10),
    Message('control_change', channel=8, control=11, value=122, time=2),
    Message('control_change', channel=8, control=11, value=123, time=9),
    Message('control_change', channel=8, control=11, value=123, time=1),
    Message('control_change', channel=8, control=11, value=124, time=11),
    Message('control_change', channel=8, control=11, value=124, time=1),
    Message('control_change', channel=8, control=11, value=125, time=11),
    Message('control_change', channel=8, control=11, value=125, time=1),
    Message('control_change', channel=8, control=11, value=126, time=8),
    Message('control_change', channel=8, control=11, value=126, time=4),
    Message('control_change', channel=8, control=11, value=127, time=8),
    Message('control_change', channel=8, control=11, value=127, time=42),
    Message('control_change', channel=8, control=11, value=123, time=0),
    Message('control_change', channel=8, control=11, value=124, time=9),
    Message('control_change', channel=8, control=11, value=124, time=1),
    Message('control_change', channel=8, control=11, value=125, time=7),
    Message('control_change', channel=8, control=18, value=0, time=4),
    Message('control_change', channel=8, control=18, value=0, time=0),
    Message('control_change', channel=8, control=11, value=125, time=1),
    Message('control_change', channel=8, control=11, value=126, time=3),
    Message('control_change', channel=8, control=11, value=126, time=9),
    Message('control_change', channel=8, control=11, value=127, time=0),
    Message('control_change', channel=8, control=20, value=0, time=83),
    Message('control_change', channel=8, control=20, value=0, time=0),
    Message('control_change', channel=8, control=17, value=33, time=60),
    Message('control_change', channel=8, control=17, value=33, time=0),
    Message('control_change', channel=8, control=21, value=0, time=98),
    Message('control_change', channel=8, control=21, value=85, time=0),
    Message('note_on', channel=8, note=82, velocity=75, time=19),
    Message('note_on', channel=8, note=89, velocity=93, time=0),
    Message('note_on', channel=8, note=78, velocity=73, time=1),
    Message('note_on', channel=8, note=86, velocity=90, time=1),
    Message('pitchwheel', channel=8, pitch=-8192, time=342),
    Message('pitchwheel', channel=8, pitch=-8105, time=0),
    Message('pitchwheel', channel=8, pitch=-7992, time=3),
    Message('pitchwheel', channel=8, pitch=-7879, time=1),
    Message('pitchwheel', channel=8, pitch=-7828, time=4),
    Message('pitchwheel', channel=8, pitch=-7765, time=4),
    Message('pitchwheel', channel=8, pitch=-7652, time=6),
    Message('pitchwheel', channel=8, pitch=-7618, time=2),
    Message('pitchwheel', channel=8, pitch=-7539, time=2),
    Message('pitchwheel', channel=8, pitch=-7425, time=7),
    Message('pitchwheel', channel=8, pitch=-7337, time=3),
    Message('pitchwheel', channel=8, pitch=-7312, time=0),
    Message('pitchwheel', channel=8, pitch=-7199, time=1),
    Message('pitchwheel', channel=8, pitch=-7199, time=14),
    Message('pitchwheel', channel=8, pitch=-7085, time=0),
    Message('pitchwheel', channel=8, pitch=-7085, time=13),
    Message('pitchwheel', channel=8, pitch=-6972, time=0),
    Message('pitchwheel', channel=8, pitch=-6972, time=27),
    Message('pitchwheel', channel=8, pitch=-6858, time=0),
    Message('pitchwheel', channel=8, pitch=-6805, time=5),
    Message('pitchwheel', channel=8, pitch=-6745, time=5),
    Message('pitchwheel', channel=8, pitch=-6658, time=7),
    Message('pitchwheel', channel=8, pitch=-6632, time=2),
    Message('pitchwheel', channel=8, pitch=-6632, time=14),
    Message('pitchwheel', channel=8, pitch=-6518, time=0),
    Message('pitchwheel', channel=8, pitch=-6518, time=12),
    Message('pitchwheel', channel=8, pitch=-6405, time=0),
    Message('pitchwheel', channel=8, pitch=-6405, time=21),
    Message('pitchwheel', channel=8, pitch=-6292, time=0),
    Message('pitchwheel', channel=8, pitch=-6292, time=25),
    Message('pitchwheel', channel=8, pitch=-6405, time=0),
    Message('pitchwheel', channel=8, pitch=-6292, time=6),
    Message('pitchwheel', channel=8, pitch=-6256, time=4),
    Message('pitchwheel', channel=8, pitch=-6178, time=7),
    Message('pitchwheel', channel=8, pitch=-6065, time=2),
    Message('pitchwheel', channel=8, pitch=-6065, time=12),
    Message('pitchwheel', channel=8, pitch=-5951, time=0),
    Message('pitchwheel', channel=8, pitch=-5982, time=3),
    Message('pitchwheel', channel=8, pitch=-6065, time=6),
    Message('pitchwheel', channel=8, pitch=-6178, time=1),
    Message('pitchwheel', channel=8, pitch=-6178, time=32),
    Message('pitchwheel', channel=8, pitch=-6065, time=0),
    Message('pitchwheel', channel=8, pitch=-5951, time=4),
    Message('pitchwheel', channel=8, pitch=-5611, time=4),
    Message('pitchwheel', channel=8, pitch=-5576, time=1),
    Message('pitchwheel', channel=8, pitch=-5498, time=1),
    Message('pitchwheel', channel=8, pitch=-5498, time=45),
    Message('pitchwheel', channel=8, pitch=-5385, time=0),
    Message('pitchwheel', channel=8, pitch=-5353, time=2),
    Message('pitchwheel', channel=8, pitch=-5271, time=3),
    Message('pitchwheel', channel=8, pitch=-5158, time=4),
    Message('pitchwheel', channel=8, pitch=-5044, time=4),
    Message('pitchwheel', channel=8, pitch=-4998, time=1),
    Message('pitchwheel', channel=8, pitch=-4818, time=2),
    Message('pitchwheel', channel=8, pitch=-4591, time=1),
    Message('pitchwheel', channel=8, pitch=-4478, time=2),
    Message('pitchwheel', channel=8, pitch=-4364, time=2),
    Message('pitchwheel', channel=8, pitch=-4138, time=2),
    Message('pitchwheel', channel=8, pitch=-4024, time=2),
    Message('pitchwheel', channel=8, pitch=-4007, time=1),
    Message('pitchwheel', channel=8, pitch=-3797, time=2),
    Message('pitchwheel', channel=8, pitch=-3684, time=4),
    Message('pitchwheel', channel=8, pitch=-3457, time=2),
    Message('pitchwheel', channel=8, pitch=-3349, time=4),
    Message('pitchwheel', channel=8, pitch=-3344, time=0),
    Message('pitchwheel', channel=8, pitch=-3117, time=2),
    Message('pitchwheel', channel=8, pitch=-3004, time=9),
    Message('pitchwheel', channel=8, pitch=-2974, time=1),
    Message('pitchwheel', channel=8, pitch=-2890, time=2),
    Message('pitchwheel', channel=8, pitch=-2664, time=3),
    Message('pitchwheel', channel=8, pitch=-2437, time=2),
    Message('pitchwheel', channel=8, pitch=-2097, time=2),
    Message('pitchwheel', channel=8, pitch=-1530, time=2),
    Message('pitchwheel', channel=8, pitch=-1275, time=1),
    Message('pitchwheel', channel=8, pitch=-510, time=2),
    Message('pitchwheel', channel=8, pitch=0, time=1),
    Message('control_change', channel=8, control=91, value=0, time=87),
    Message('control_change', channel=8, control=91, value=0, time=0),
    Message('control_change', channel=8, control=21, value=85, time=63),
    Message('control_change', channel=8, control=21, value=0, time=0),
    Message('note_off', channel=8, note=82, velocity=64, time=21),
    Message('note_off', channel=8, note=89, velocity=64, time=0),
    Message('note_off', channel=8, note=78, velocity=64, time=0),
    Message('note_off', channel=8, note=86, velocity=64, time=0),
    Message('control_change', channel=8, control=17, value=33, time=74),
    Message('control_change', channel=8, control=17, value=0, time=0),
    Message('control_change', channel=8, control=64, value=0, time=4),
    Message('control_change', channel=8, control=64, value=38, time=0),
    Message('control_change', channel=8, control=64, value=74, time=5),
    Message('control_change', channel=8, control=18, value=0, time=5),
    Message('control_change', channel=8, control=18, value=23, time=0),
    Message('control_change', channel=8, control=64, value=127, time=1),
    Message('control_change', channel=8, control=19, value=127, time=154),
    Message('control_change', channel=8, control=19, value=127, time=0),
    Message('note_on', channel=8, note=81, velocity=62, time=14),
    Message('note_on', channel=8, note=90, velocity=70, time=88),
    Message('note_off', channel=8, note=90, velocity=64, time=46),
    Message('note_on', channel=8, note=74, velocity=18, time=33),
    Message('note_on', channel=8, note=90, velocity=77, time=3),
    Message('note_off', channel=8, note=90, velocity=64, time=60),
    Message('note_on', channel=8, note=88, velocity=63, time=48),
    Message('note_off', channel=8, note=81, velocity=64, time=16),
    Message('note_off', channel=8, note=74, velocity=64, time=35),
    Message('note_on', channel=8, note=81, velocity=33, time=31),
    Message('note_on', channel=8, note=80, velocity=43, time=73),
    Message('control_change', channel=8, control=64, value=127, time=41),
    Message('control_change', channel=8, control=64, value=74, time=0),
    Message('note_on', channel=8, note=68, velocity=20, time=1),
    Message('control_change', channel=8, control=64, value=38, time=3),
    Message('control_change', channel=8, control=64, value=26, time=3),
    Message('control_change', channel=8, control=64, value=0, time=5),
    Message('control_change', channel=8, control=64, value=35, time=7),
    Message('control_change', channel=8, control=64, value=38, time=0),
    Message('control_change', channel=8, control=64, value=74, time=7),
    Message('control_change', channel=8, control=64, value=127, time=4),
    Message('note_on', channel=8, note=69, velocity=20, time=44),
    Message('note_off', channel=8, note=80, velocity=64, time=9),
    Message('note_off', channel=8, note=81, velocity=64, time=0),
    Message('note_off', channel=8, note=88, velocity=64, time=10),
    Message('note_on', channel=8, note=81, velocity=76, time=57),
    Message('note_on', channel=8, note=73, velocity=23, time=6),
    Message('note_on', channel=8, note=90, velocity=87, time=74),
    Message('note_on', channel=8, note=76, velocity=57, time=3),
    Message('note_off', channel=8, note=68, velocity=64, time=2),
    Message('note_off', channel=8, note=90, velocity=64, time=38),
    Message('note_off', channel=8, note=76, velocity=64, time=6),
    Message('note_on', channel=8, note=66, velocity=48, time=30),
    Message('note_on', channel=8, note=90, velocity=80, time=1),
    Message('control_change', channel=8, control=64, value=127, time=3),
    Message('control_change', channel=8, control=64, value=74, time=0),
    Message('control_change', channel=8, control=64, value=39, time=6),
    Message('control_change', channel=8, control=64, value=38, time=0),
    Message('control_change', channel=8, control=64, value=0, time=5),
    Message('control_change', channel=8, control=64, value=38, time=4),
    Message('control_change', channel=8, control=64, value=47, time=3),
    Message('control_change', channel=8, control=64, value=74, time=6),
    Message('control_change', channel=8, control=64, value=127, time=5),
    Message('note_off', channel=8, note=90, velocity=64, time=57),
    Message('note_on', channel=8, note=88, velocity=60, time=74),
    Message('note_off', channel=8, note=81, velocity=64, time=2),
    Message('note_off', channel=8, note=69, velocity=64, time=32),
    Message('note_off', channel=8, note=73, velocity=64, time=10),
    Message('note_off', channel=8, note=66, velocity=64, time=4),
    Message('note_on', channel=8, note=81, velocity=32, time=38),
    Message('control_change', channel=8, control=64, value=127, time=80),
    Message('control_change', channel=8, control=64, value=74, time=0),
    Message('control_change', channel=8, control=64, value=58, time=4),
    Message('note_on', channel=8, note=80, velocity=17, time=1),
    Message('note_on', channel=8, note=64, velocity=29, time=2),
    Message('control_change', channel=8, control=64, value=38, time=1),
    Message('note_off', channel=8, note=81, velocity=64, time=3),
    Message('note_on', channel=8, note=73, velocity=14, time=9),
    Message('control_change', channel=8, control=64, value=38, time=11),
    Message('control_change', channel=8, control=64, value=74, time=0),
    Message('control_change', channel=8, control=64, value=127, time=7),
    Message('note_off', channel=8, note=80, velocity=64, time=54),
    Message('note_off', channel=8, note=88, velocity=64, time=11),
    Message('note_on', channel=8, note=71, velocity=52, time=70),
    Message('note_on', channel=8, note=81, velocity=92, time=51),
    Message('note_on', channel=8, note=69, velocity=60, time=1),
    Message('note_off', channel=8, note=64, velocity=64, time=28),
    Message('note_on', channel=8, note=90, velocity=100, time=23),
    Message('note_off', channel=8, note=73, velocity=64, time=21),
    Message('note_on', channel=8, note=66, velocity=65, time=5),
    Message('note_off', channel=8, note=90, velocity=64, time=15),
    Message('control_change', channel=8, control=64, value=127, time=2),
    Message('control_change', channel=8, control=64, value=74, time=0),
    Message('control_change', channel=8, control=64, value=38, time=6),
    Message('control_change', channel=8, control=64, value=19, time=3),
    Message('control_change', channel=8, control=64, value=0, time=3),
    Message('note_on', channel=8, note=88, velocity=87, time=0),
    Message('note_on', channel=8, note=90, velocity=79, time=13),
    Message('note_off', channel=8, note=88, velocity=64, time=1),
    Message('control_change', channel=8, control=64, value=0, time=10),
    Message('control_change', channel=8, control=64, value=38, time=0),
    Message('control_change', channel=8, control=64, value=74, time=5),
    Message('control_change', channel=8, control=64, value=106, time=4),
    Message('control_change', channel=8, control=64, value=127, time=2),
    Message('note_off', channel=8, note=71, velocity=64, time=10),
    Message('note_on', channel=8, note=74, velocity=35, time=8),
    Message('note_off', channel=8, note=69, velocity=64, time=13),
    Message('note_off', channel=8, note=74, velocity=64, time=11),
    Message('note_on', channel=8, note=76, velocity=77, time=24),
    Message('note_off', channel=8, note=90, velocity=64, time=15),
    Message('note_off', channel=8, note=81, velocity=64, time=12),
    Message('note_on', channel=8, note=88, velocity=76, time=22),
    Message('note_off', channel=8, note=76, velocity=64, time=81),
    Message('note_on', channel=8, note=81, velocity=53, time=0),
    Message('note_off', channel=8, note=66, velocity=64, time=10),
    Message('note_off', channel=8, note=81, velocity=64, time=64),
    Message('control_change', channel=8, control=64, value=127, time=1),
    Message('control_change', channel=8, control=64, value=74, time=0),
    Message('control_change', channel=8, control=64, value=52, time=3),
    Message('control_change', channel=8, control=64, value=38, time=1),
    Message('note_on', channel=8, note=80, velocity=49, time=1),
    Message('note_on', channel=8, note=68, velocity=35, time=1),
    Message('control_change', channel=8, control=64, value=0, time=1),
    Message('note_on', channel=8, note=76, velocity=19, time=4),
    Message('control_change', channel=8, control=64, value=0, time=20),
    Message('control_change', channel=8, control=64, value=38, time=0),
    Message('control_change', channel=8, control=64, value=74, time=6),
    Message('control_change', channel=8, control=64, value=87, time=2),
    Message('control_change', channel=8, control=64, value=127, time=4),
    Message('note_off', channel=8, note=80, velocity=64, time=65),
    Message('note_off', channel=8, note=76, velocity=64, time=39),
    Message('note_on', channel=8, note=69, velocity=33, time=30),
    Message('note_on', channel=8, note=81, velocity=46, time=2),
    Message('note_off', channel=8, note=88, velocity=64, time=13),
    Message('note_off', channel=8, note=68, velocity=64, time=18),
    Message('note_off', channel=8, note=69, velocity=64, time=48),
    Message('note_on', channel=8, note=85, velocity=61, time=43),
    Message('control_change', channel=8, control=64, value=127, time=41),
    Message('control_change', channel=8, control=64, value=74, time=0),
    Message('control_change', channel=8, control=64, value=38, time=4),
    Message('note_on', channel=8, note=78, velocity=48, time=2),
    Message('note_on', channel=8, note=73, velocity=16, time=1),
    Message('note_on', channel=8, note=66, velocity=19, time=1),
    Message('note_on', channel=8, note=74, velocity=14, time=6),
    Message('control_change', channel=8, control=64, value=38, time=9),
    Message('control_change', channel=8, control=64, value=74, time=0),
    Message('control_change', channel=8, control=64, value=127, time=7),
    Message('note_off', channel=8, note=78, velocity=64, time=73),
    Message('note_off', channel=8, note=81, velocity=64, time=18),
    Message('note_off', channel=8, note=85, velocity=64, time=31),
    Message('note_off', channel=8, note=73, velocity=64, time=37),
    Message('note_off', channel=8, note=74, velocity=64, time=2),
    Message('note_off', channel=8, note=66, velocity=64, time=53),
    Message('note_on', channel=8, note=66, velocity=36, time=203),
    Message('note_on', channel=8, note=74, velocity=59, time=43),
    Message('note_on', channel=8, note=81, velocity=86, time=4),
    Message('control_change', channel=8, control=20, value=0, time=6),
    Message('control_change', channel=8, control=20, value=1, time=0),
    Message('control_change', channel=8, control=20, value=1, time=1),
    Message('control_change', channel=8, control=20, value=3, time=1),
    Message('control_change', channel=8, control=20, value=4, time=5),
    Message('control_change', channel=8, control=20, value=6, time=1),
    Message('control_change', channel=8, control=20, value=7, time=4),
    Message('control_change', channel=8, control=20, value=7, time=1),
    Message('control_change', channel=8, control=20, value=9, time=2),
    Message('control_change', channel=8, control=20, value=11, time=3),
    Message('control_change', channel=8, control=20, value=12, time=3),
    Message('control_change', channel=8, control=20, value=14, time=3),
    Message('control_change', channel=8, control=20, value=14, time=1),
    Message('control_change', channel=8, control=20, value=15, time=3),
    Message('control_change', channel=8, control=20, value=17, time=3),
    Message('control_change', channel=8, control=20, value=18, time=3),
    Message('control_change', channel=8, control=20, value=19, time=3),
    Message('control_change', channel=8, control=20, value=20, time=0),
    Message('control_change', channel=8, control=20, value=22, time=4),
    Message('control_change', channel=8, control=20, value=23, time=3),
    Message('control_change', channel=8, control=20, value=25, time=4),
    Message('control_change', channel=8, control=20, value=25, time=1),
    Message('control_change', channel=8, control=20, value=26, time=1),
    Message('note_on', channel=8, note=73, velocity=46, time=1),
    Message('control_change', channel=8, control=20, value=28, time=3),
    Message('note_off', channel=8, note=74, velocity=64, time=0),
    Message('control_change', channel=8, control=20, value=29, time=3),
    Message('control_change', channel=8, control=20, value=31, time=3),
    Message('control_change', channel=8, control=20, value=31, time=1),
    Message('control_change', channel=8, control=20, value=33, time=2),
    Message('control_change', channel=8, control=20, value=34, time=4),
    Message('control_change', channel=8, control=20, value=36, time=3),
    Message('control_change', channel=8, control=20, value=36, time=3),
    Message('control_change', channel=8, control=20, value=37, time=0),
    Message('control_change', channel=8, control=20, value=39, time=3),
    Message('note_on', channel=8, note=90, velocity=85, time=1),
    Message('note_off', channel=8, note=66, velocity=64, time=1),
    Message('control_change', channel=8, control=20, value=40, time=1),
    Message('control_change', channel=8, control=20, value=42, time=3),
    Message('control_change', channel=8, control=20, value=43, time=3),
    Message('control_change', channel=8, control=20, value=44, time=1),
    Message('control_change', channel=8, control=20, value=45, time=3),
    Message('control_change', channel=8, control=20, value=47, time=3),
    Message('control_change', channel=8, control=20, value=48, time=4),
    Message('control_change', channel=8, control=20, value=48, time=1),
    Message('control_change', channel=8, control=20, value=50, time=2),
    Message('control_change', channel=8, control=20, value=52, time=4),
    Message('control_change', channel=8, control=20, value=53, time=2),
    Message('control_change', channel=8, control=20, value=55, time=4),
    Message('control_change', channel=8, control=20, value=56, time=3),
    Message('note_off', channel=8, note=90, velocity=64, time=0),
    Message('note_on', channel=8, note=69, velocity=39, time=2),
    Message('control_change', channel=8, control=20, value=58, time=1),
    Message('control_change', channel=8, control=20, value=59, time=3),
    Message('control_change', channel=8, control=20, value=60, time=3),
    Message('control_change', channel=8, control=20, value=61, time=1),
    Message('control_change', channel=8, control=20, value=63, time=5),
    Message('control_change', channel=8, control=20, value=64, time=1),
    Message('control_change', channel=8, control=20, value=66, time=4),
    Message('control_change', channel=8, control=20, value=66, time=1),
    Message('control_change', channel=8, control=20, value=67, time=2),
    Message('control_change', channel=8, control=20, value=69, time=3),
    Message('control_change', channel=8, control=20, value=70, time=3),
    Message('control_change', channel=8, control=20, value=72, time=3),
    Message('control_change', channel=8, control=20, value=72, time=1),
    Message('control_change', channel=8, control=20, value=74, time=3),
    Message('control_change', channel=8, control=20, value=75, time=3),
    Message('control_change', channel=8, control=20, value=77, time=3),
    Message('note_on', channel=8, note=90, velocity=77, time=2),
    Message('control_change', channel=8, control=20, value=77, time=1),
    Message('control_change', channel=8, control=20, value=78, time=0),
    Message('note_on', channel=8, note=66, velocity=40, time=1),
    Message('control_change', channel=8, control=20, value=80, time=3),
    Message('control_change', channel=8, control=20, value=81, time=3),
    Message('control_change', channel=8, control=20, value=82, time=5),
    Message('control_change', channel=8, control=20, value=83, time=0),
    Message('control_change', channel=8, control=20, value=85, time=1),
    Message('control_change', channel=8, control=20, value=86, time=5),
    Message('control_change', channel=8, control=20, value=88, time=2),
    Message('control_change', channel=8, control=20, value=89, time=3),
    Message('control_change', channel=8, control=20, value=89, time=1),
    Message('control_change', channel=8, control=20, value=91, time=2),
    Message('control_change', channel=8, control=20, value=92, time=3),
    Message('control_change', channel=8, control=20, value=94, time=4),
    Message('control_change', channel=8, control=20, value=95, time=3),
    Message('control_change', channel=8, control=20, value=96, time=0),
    Message('control_change', channel=8, control=20, value=97, time=3),
    Message('control_change', channel=8, control=20, value=99, time=3),
    Message('control_change', channel=8, control=20, value=100, time=3),
    Message('control_change', channel=8, control=20, value=101, time=3),
    Message('control_change', channel=8, control=20, value=102, time=1),
    Message('control_change', channel=8, control=20, value=103, time=3),
    Message('control_change', channel=8, control=20, value=105, time=3),
    Message('control_change', channel=8, control=20, value=107, time=3),
    Message('control_change', channel=8, control=20, value=107, time=2),
    Message('control_change', channel=8, control=20, value=108, time=2),
    Message('control_change', channel=8, control=20, value=110, time=3),
    Message('note_off', channel=8, note=90, velocity=64, time=0),
    Message('control_change', channel=8, control=20, value=111, time=3),
    Message('control_change', channel=8, control=20, value=112, time=4),
    Message('control_change', channel=8, control=20, value=113, time=0),
    Message('control_change', channel=8, control=20, value=114, time=3),
    Message('control_change', channel=8, control=20, value=116, time=3),
    Message('control_change', channel=8, control=20, value=118, time=3),
    Message('control_change', channel=8, control=20, value=118, time=3),
    Message('control_change', channel=8, control=20, value=119, time=1),
    Message('control_change', channel=8, control=20, value=121, time=3),
    Message('control_change', channel=8, control=20, value=122, time=3),
    Message('control_change', channel=8, control=20, value=124, time=4),
    Message('control_change', channel=8, control=20, value=124, time=1),
    Message('control_change', channel=8, control=20, value=125, time=2),
    Message('control_change', channel=8, control=20, value=127, time=3),
    Message('note_on', channel=8, note=88, velocity=83, time=54),
    Message('note_on', channel=8, note=74, velocity=16, time=7),
    Message('note_off', channel=8, note=81, velocity=64, time=14),
    Message('note_off', channel=8, note=69, velocity=64, time=51),
    Message('note_off', channel=8, note=66, velocity=64, time=6),
    Message('note_on', channel=8, note=81, velocity=60, time=2),
    Message('note_off', channel=8, note=74, velocity=64, time=7),
    Message('note_off', channel=8, note=73, velocity=64, time=6),
    Message('note_off', channel=8, note=81, velocity=64, time=41),
    Message('control_change', channel=8, control=64, value=127, time=25),
    Message('control_change', channel=8, control=64, value=74, time=0),
    Message('note_on', channel=8, note=80, velocity=40, time=8),
    Message('control_change', channel=8, control=64, value=38, time=1),
    Message('control_change', channel=8, control=64, value=33, time=1),
    Message('note_on', channel=8, note=71, velocity=28, time=2),
    Message('control_change', channel=8, control=64, value=0, time=2),
    Message('note_on', channel=8, note=64, velocity=23, time=0),
    Message('note_on', channel=8, note=73, velocity=14, time=3),
    Message('control_change', channel=8, control=64, value=0, time=20),
    Message('control_change', channel=8, control=64, value=38, time=0),
    Message('control_change', channel=8, control=64, value=74, time=6),
    Message('control_change', channel=8, control=64, value=90, time=3),
    Message('control_change', channel=8, control=64, value=127, time=5),
    Message('note_off', channel=8, note=80, velocity=64, time=33),
    Message('note_off', channel=8, note=88, velocity=64, time=29),
    Message('note_on', channel=8, note=76, velocity=52, time=6),
    Message('note_on', channel=8, note=81, velocity=67, time=48),
    Message('note_off', channel=8, note=76, velocity=64, time=12),
    Message('note_off', channel=8, note=64, velocity=64, time=24),
    Message('note_on', channel=8, note=90, velocity=62, time=19),
    Message('note_off', channel=8, note=73, velocity=64, time=3),
    Message('note_off', channel=8, note=90, velocity=64, time=15),
    Message('note_on', channel=8, note=90, velocity=78, time=41),
    Message('note_off', channel=8, note=71, velocity=64, time=8),
    Message('control_change', channel=8, control=20, value=127, time=14),
    Message('control_change', channel=8, control=20, value=127, time=0),
    Message('control_change', channel=8, control=20, value=126, time=6),
    Message('control_change', channel=8, control=20, value=125, time=1),
    Message('control_change', channel=8, control=20, value=125, time=3),
    Message('control_change', channel=8, control=20, value=123, time=4),
    Message('control_change', channel=8, control=64, value=127, time=0),
    Message('control_change', channel=8, control=64, value=74, time=0),
    Message('control_change', channel=8, control=20, value=122, time=2),
    Message('control_change', channel=8, control=20, value=121, time=3),
    Message('control_change', channel=8, control=64, value=43, time=0),
    Message('control_change', channel=8, control=20, value=121, time=0),
    Message('note_on', channel=8, note=62, velocity=38, time=0),
    Message('control_change', channel=8, control=64, value=38, time=0),
    Message('control_change', channel=8, control=20, value=120, time=4),
    Message('control_change', channel=8, control=64, value=0, time=0),
    Message('control_change', channel=8, control=20, value=119, time=3),
    Message('control_change', channel=8, control=20, value=118, time=3),
    Message('control_change', channel=8, control=20, value=117, time=2),
    Message('control_change', channel=8, control=20, value=116, time=1),
    Message('control_change', channel=8, control=20, value=115, time=4),
    Message('control_change', channel=8, control=20, value=114, time=3),
    Message('control_change', channel=8, control=64, value=0, time=1),
    Message('control_change', channel=8, control=64, value=38, time=0),
    Message('control_change', channel=8, control=20, value=113, time=2),
    Message('control_change', channel=8, control=20, value=112, time=1),
    Message('control_change', channel=8, control=64, value=55, time=0),
    Message('control_change', channel=8, control=20, value=112, time=2),
    Message('control_change', channel=8, control=64, value=74, time=0),
    Message('control_change', channel=8, control=20, value=111, time=3),
    Message('control_change', channel=8, control=20, value=109, time=4),
    Message('control_change', channel=8, control=64, value=127, time=0),
    Message('control_change', channel=8, control=20, value=108, time=3),
    Message('control_change', channel=8, control=20, value=108, time=1),
    Message('control_change', channel=8, control=20, value=107, time=2),
    Message('control_change', channel=8, control=20, value=106, time=5),
    Message('control_change', channel=8, control=20, value=105, time=1),
    Message('control_change', channel=8, control=20, value=104, time=3),
    Message('control_change', channel=8, control=20, value=103, time=2),
    Message('control_change', channel=8, control=20, value=102, time=2),
    Message('control_change', channel=8, control=20, value=101, time=3),
    Message('control_change', channel=8, control=20, value=100, time=3),
    Message('control_change', channel=8, control=20, value=99, time=2),
    Message('control_change', channel=8, control=20, value=99, time=2),
    Message('control_change', channel=8, control=20, value=98, time=3),
    Message('control_change', channel=8, control=20, value=96, time=3),
    Message('control_change', channel=8, control=20, value=95, time=3),
    Message('control_change', channel=8, control=20, value=94, time=1),
    Message('note_off', channel=8, note=90, velocity=64, time=2),
    Message('control_change', channel=8, control=20, value=94, time=0),
    Message('control_change', channel=8, control=20, value=93, time=4),
    Message('control_change', channel=8, control=20, value=92, time=3),
    Message('control_change', channel=8, control=20, value=91, time=3),
    Message('control_change', channel=8, control=20, value=91, time=0),
    Message('control_change', channel=8, control=20, value=89, time=4),
    Message('control_change', channel=8, control=20, value=88, time=4),
    Message('control_change', channel=8, control=20, value=87, time=2),
    Message('control_change', channel=8, control=20, value=86, time=2),
    Message('control_change', channel=8, control=20, value=86, time=2),
    Message('control_change', channel=8, control=20, value=85, time=2),
    Message('control_change', channel=8, control=20, value=84, time=4),
    Message('control_change', channel=8, control=20, value=82, time=3),
    Message('control_change', channel=8, control=20, value=81, time=1),
    Message('note_on', channel=8, note=69, velocity=35, time=0),
    Message('control_change', channel=8, control=20, value=81, time=2),
    Message('control_change', channel=8, control=20, value=80, time=3),
    Message('control_change', channel=8, control=20, value=79, time=4),
    Message('control_change', channel=8, control=20, value=78, time=3),
    Message('control_change', channel=8, control=20, value=78, time=0),
    Message('control_change', channel=8, control=20, value=76, time=3),
    Message('control_change', channel=8, control=20, value=75, time=4),
    Message('control_change', channel=8, control=20, value=74, time=3),
    Message('control_change', channel=8, control=20, value=73, time=2),
    Message('control_change', channel=8, control=20, value=73, time=1),
    Message('control_change', channel=8, control=20, value=72, time=3),
    Message('control_change', channel=8, control=20, value=71, time=4),
    Message('control_change', channel=8, control=20, value=69, time=3),
    Message('control_change', channel=8, control=20, value=68, time=1),
    Message('note_off', channel=8, note=69, velocity=64, time=0),
    Message('control_change', channel=8, control=20, value=68, time=2),
    Message('note_off', channel=8, note=62, velocity=64, time=1),
    Message('control_change', channel=8, control=20, value=67, time=2),
    Message('control_change', channel=8, control=20, value=66, time=4),
    Message('note_on', channel=8, note=71, velocity=54, time=1),
    Message('control_change', channel=8, control=20, value=65, time=2),
    Message('control_change', channel=8, control=20, value=64, time=3),
    Message('control_change', channel=8, control=20, value=62, time=3),
    Message('control_change', channel=8, control=20, value=61, time=4),
    Message('control_change', channel=8, control=20, value=60, time=2),
    Message('control_change', channel=8, control=20, value=60, time=1),
    Message('control_change', channel=8, control=20, value=59, time=3),
    Message('control_change', channel=8, control=20, value=58, time=3),
    Message('control_change', channel=8, control=20, value=56, time=3),
    Message('control_change', channel=8, control=20, value=55, time=2),
    Message('control_change', channel=8, control=20, value=55, time=2),
    Message('control_change', channel=8, control=20, value=54, time=3),
    Message('control_change', channel=8, control=20, value=53, time=3),
    Message('control_change', channel=8, control=20, value=52, time=3),
    Message('control_change', channel=8, control=20, value=51, time=1),
    Message('control_change', channel=8, control=20, value=51, time=3),
    Message('control_change', channel=8, control=20, value=49, time=3),
    Message('control_change', channel=8, control=20, value=48, time=3),
    Message('control_change', channel=8, control=20, value=47, time=3),
    Message('control_change', channel=8, control=20, value=47, time=2),
    Message('control_change', channel=8, control=20, value=46, time=1),
    Message('note_on', channel=8, note=93, velocity=103, time=3),
    Message('control_change', channel=8, control=20, value=45, time=2),
    Message('control_change', channel=8, control=20, value=44, time=2),
    Message('control_change', channel=8, control=20, value=43, time=2),
    Message('control_change', channel=8, control=20, value=42, time=1),
    Message('control_change', channel=8, control=20, value=41, time=3),
    Message('control_change', channel=8, control=20, value=40, time=4),
    Message('control_change', channel=8, control=20, value=39, time=3),
    Message('control_change', channel=8, control=20, value=38, time=1),
    Message('control_change', channel=8, control=20, value=38, time=2),
    Message('control_change', channel=8, control=20, value=37, time=3),
    Message('control_change', channel=8, control=20, value=35, time=4),
    Message('control_change', channel=8, control=20, value=34, time=3),
    Message('control_change', channel=8, control=20, value=34, time=0),
    Message('control_change', channel=8, control=20, value=33, time=3),
    Message('control_change', channel=8, control=20, value=32, time=3),
    Message('control_change', channel=8, control=20, value=31, time=4),
    Message('control_change', channel=8, control=20, value=30, time=2),
    Message('control_change', channel=8, control=20, value=29, time=2),
    Message('control_change', channel=8, control=20, value=28, time=2),
    Message('control_change', channel=8, control=20, value=27, time=5),
    Message('control_change', channel=8, control=20, value=26, time=2),
    Message('control_change', channel=8, control=20, value=25, time=1),
    Message('control_change', channel=8, control=20, value=25, time=3),
    Message('control_change', channel=8, control=20, value=24, time=2),
    Message('control_change', channel=8, control=20, value=22, time=3),
    Message('control_change', channel=8, control=20, value=21, time=4),
    Message('control_change', channel=8, control=20, value=20, time=3),
    Message('note_on', channel=8, note=92, velocity=77, time=0),
    Message('note_off', channel=8, note=93, velocity=64, time=0),
    Message('control_change', channel=8, control=20, value=19, time=3),
    Message('control_change', channel=8, control=20, value=18, time=3),
    Message('control_change', channel=8, control=20, value=17, time=3),
    Message('control_change', channel=8, control=20, value=17, time=1),
    Message('control_change', channel=8, control=20, value=15, time=3),
    Message('control_change', channel=8, control=20, value=14, time=3),
    Message('control_change', channel=8, control=20, value=13, time=3),
    Message('control_change', channel=8, control=20, value=12, time=2),
    Message('control_change', channel=8, control=20, value=12, time=2),
    Message('control_change', channel=8, control=20, value=11, time=3),
    Message('control_change', channel=8, control=20, value=9, time=4),
    Message('note_on', channel=8, note=61, velocity=33, time=0),
    Message('control_change', channel=8, control=20, value=8, time=2),
    Message('control_change', channel=8, control=20, value=7, time=1),
    Message('control_change', channel=8, control=20, value=7, time=3),
    Message('control_change', channel=8, control=20, value=6, time=3),
    Message('control_change', channel=8, control=20, value=5, time=3),
    Message('control_change', channel=8, control=20, value=4, time=3),
    Message('control_change', channel=8, control=20, value=4, time=0),
    Message('control_change', channel=8, control=20, value=2, time=3),
    Message('control_change', channel=8, control=64, value=127, time=1),
    Message('control_change', channel=8, control=64, value=74, time=0),
    Message('control_change', channel=8, control=20, value=1, time=3),
    Message('control_change', channel=8, control=64, value=38, time=0),
    Message('note_off', channel=8, note=92, velocity=64, time=2),
    Message('control_change', channel=8, control=20, value=0, time=1),
    Message('note_on', channel=8, note=88, velocity=74, time=1),
    Message('control_change', channel=8, control=64, value=38, time=15),
    Message('control_change', channel=8, control=64, value=74, time=0),
    Message('control_change', channel=8, control=64, value=127, time=5),
    Message('note_off', channel=8, note=88, velocity=64, time=27),
    Message('note_on', channel=8, note=66, velocity=57, time=6),
    Message('note_off', channel=8, note=81, velocity=64, time=25),
    Message('note_off', channel=8, note=71, velocity=64, time=10),
    Message('note_on', channel=8, note=69, velocity=39, time=25),
    Message('note_off', channel=8, note=69, velocity=64, time=29),
    Message('note_on', channel=8, note=68, velocity=61, time=2),
    Message('note_on', channel=8, note=81, velocity=88, time=33),
    Message('note_on', channel=8, note=71, velocity=69, time=41),
    Message('note_off', channel=8, note=61, velocity=64, time=16),
    Message('note_off', channel=8, note=66, velocity=64, time=6),
    Message('note_off', channel=8, note=68, velocity=64, time=2),
    Message('note_on', channel=8, note=76, velocity=81, time=5),
    Message('note_on', channel=8, note=88, velocity=91, time=27),
    Message('note_off', channel=8, note=88, velocity=64, time=15),
    Message('control_change', channel=8, control=64, value=127, time=32),
    Message('control_change', channel=8, control=64, value=74, time=0),
    Message('note_on', channel=8, note=66, velocity=60, time=2),
    Message('note_on', channel=8, note=88, velocity=85, time=1),
    Message('control_change', channel=8, control=64, value=44, time=1),
    Message('control_change', channel=8, control=64, value=38, time=0),
    Message('control_change', channel=8, control=64, value=0, time=6),
    Message('note_off', channel=8, note=71, velocity=64, time=13),
    Message('control_change', channel=8, control=64, value=0, time=1),
    Message('control_change', channel=8, control=64, value=38, time=0),
    Message('control_change', channel=8, control=64, value=62, time=4),
    Message('control_change', channel=8, control=64, value=74, time=1),
    Message('control_change', channel=8, control=64, value=127, time=6),
    Message('note_off', channel=8, note=88, velocity=64, time=5),
    Message('note_on', channel=8, note=73, velocity=32, time=11),
    Message('note_off', channel=8, note=76, velocity=64, time=8),
    Message('note_on', channel=8, note=90, velocity=69, time=24),
    Message('note_off', channel=8, note=81, velocity=64, time=21),
    Message('note_on', channel=8, note=74, velocity=22, time=19),
    Message('note_on', channel=8, note=88, velocity=70, time=29),
    Message('note_off', channel=8, note=90, velocity=64, time=1),
    Message('note_off', channel=8, note=73, velocity=64, time=32),
    Message('note_off', channel=8, note=88, velocity=64, time=45),
    Message('note_on', channel=8, note=81, velocity=61, time=8),
    Message('note_off', channel=8, note=66, velocity=64, time=8),
    Message('note_off', channel=8, note=74, velocity=64, time=4),
    Message('control_change', channel=8, control=64, value=127, time=61),
    Message('control_change', channel=8, control=64, value=74, time=0),
    Message('note_on', channel=8, note=73, velocity=16, time=3),
    Message('note_on', channel=8, note=80, velocity=42, time=0),
    Message('control_change', channel=8, control=64, value=45, time=2),
    Message('control_change', channel=8, control=64, value=38, time=1),
    Message('note_off', channel=8, note=81, velocity=64, time=0),
    Message('note_on', channel=8, note=64, velocity=34, time=1),
    Message('control_change', channel=8, control=64, value=0, time=4),
    Message('control_change', channel=8, control=64, value=0, time=17),
    Message('control_change', channel=8, control=64, value=38, time=0),
    Message('control_change', channel=8, control=64, value=41, time=1),
    Message('control_change', channel=8, control=64, value=74, time=6),
    Message('control_change', channel=8, control=64, value=106, time=6),
    Message('control_change', channel=8, control=64, value=127, time=3),
    Message('note_off', channel=8, note=80, velocity=64, time=35),
    Message('note_off', channel=8, note=73, velocity=64, time=52),
    Message('note_on', channel=8, note=69, velocity=17, time=22),
    Message('note_on', channel=8, note=81, velocity=57, time=9),
    Message('note_off', channel=8, note=64, velocity=64, time=42),
    Message('note_off', channel=8, note=81, velocity=64, time=34),
    Message('control_change', channel=8, control=64, value=127, time=82),
    Message('control_change', channel=8, control=64, value=74, time=0),
    Message('control_change', channel=8, control=64, value=38, time=5),
    Message('control_change', channel=8, control=64, value=20, time=4),
    Message('note_on', channel=8, note=71, velocity=66, time=0),
    Message('note_on', channel=8, note=76, velocity=64, time=0),
    Message('note_on', channel=8, note=62, velocity=37, time=2),
    Message('control_change', channel=8, control=64, value=0, time=2),
    Message('note_off', channel=8, note=71, velocity=64, time=9),
    Message('note_off', channel=8, note=76, velocity=64, time=0),
    Message('note_on', channel=8, note=78, velocity=61, time=1),
    Message('note_on', channel=8, note=73, velocity=35, time=4),
    Message('control_change', channel=8, control=64, value=0, time=26),
    Message('control_change', channel=8, control=64, value=38, time=0),
    Message('control_change', channel=8, control=64, value=56, time=4),
    Message('control_change', channel=8, control=64, value=74, time=3),
    Message('control_change', channel=8, control=64, value=127, time=8),
    Message('note_on', channel=8, note=66, velocity=37, time=22),
    Message('note_off', channel=8, note=69, velocity=64, time=36),
    Message('note_off', channel=8, note=66, velocity=64, time=39),
    Message('note_on', channel=8, note=64, velocity=15, time=11),
    Message('note_off', channel=8, note=78, velocity=64, time=2),
    Message('note_off', channel=8, note=64, velocity=64, time=24),
    Message('note_off', channel=8, note=62, velocity=64, time=5),
    Message('note_off', channel=8, note=73, velocity=64, time=31),
    Message('control_change', channel=8, control=91, value=0, time=247),
    Message('control_change', channel=8, control=91, value=9, time=0),
    Message('control_change', channel=8, control=64, value=127, time=503),
    Message('control_change', channel=8, control=64, value=0, time=0),
    Message('control_change', channel=8, control=18, value=23, time=2148),
    Message('control_change', channel=8, control=18, value=18, time=0),
    Message('control_change', channel=8, control=17, value=0, time=64),
    Message('control_change', channel=8, control=17, value=72, time=0),
    Message('control_change', channel=8, control=19, value=127, time=16),
    Message('control_change', channel=8, control=19, value=0, time=0),
    Message('control_change', channel=8, control=11, value=127, time=10),
    Message('control_change', channel=8, control=11, value=76, time=0),
    Message('control_change', channel=8, control=11, value=77, time=5),
    Message('note_on', channel=8, note=31, velocity=99, time=5),
    Message('control_change', channel=8, control=11, value=77, time=1),
    Message('control_change', channel=8, control=11, value=78, time=3),
    Message('note_on', channel=8, note=47, velocity=99, time=2),
    Message('note_on', channel=8, note=74, velocity=99, time=4),
    Message('control_change', channel=8, control=11, value=79, time=1),
    Message('control_change', channel=8, control=11, value=79, time=2),
    Message('note_on', channel=8, note=79, velocity=99, time=0),
    Message('note_on', channel=8, note=86, velocity=127, time=5),
    Message('control_change', channel=8, control=11, value=80, time=1),
    Message('control_change', channel=8, control=11, value=80, time=6),
    Message('control_change', channel=8, control=11, value=81, time=1),
    Message('control_change', channel=8, control=11, value=82, time=8),
    Message('control_change', channel=8, control=11, value=82, time=3),
    Message('control_change', channel=8, control=64, value=0, time=4),
    Message('control_change', channel=8, control=64, value=127, time=0),
    Message('control_change', channel=8, control=11, value=83, time=1),
    Message('control_change', channel=8, control=11, value=83, time=7),
    Message('control_change', channel=8, control=11, value=84, time=0),
    Message('control_change', channel=8, control=64, value=127, time=3),
    Message('control_change', channel=8, control=11, value=85, time=3),
    Message('note_on', channel=8, note=38, velocity=62, time=3),
    Message('control_change', channel=8, control=11, value=85, time=3),
    Message('control_change', channel=8, control=11, value=86, time=2),
    Message('control_change', channel=8, control=11, value=87, time=7),
    Message('note_off', channel=8, note=38, velocity=64, time=2),
    Message('control_change', channel=8, control=11, value=87, time=1),
    Message('control_change', channel=8, control=64, value=127, time=3),
    Message('control_change', channel=8, control=64, value=127, time=0),
    Message('control_change', channel=8, control=11, value=88, time=2),
    Message('control_change', channel=8, control=11, value=88, time=7),
    Message('control_change', channel=8, control=11, value=89, time=1),
    Message('note_off', channel=8, note=47, velocity=64, time=2),
    Message('note_off', channel=8, note=31, velocity=64, time=0),
    Message('control_change', channel=8, control=64, value=127, time=7),
    Message('control_change', channel=8, control=64, value=127, time=0),
    Message('control_change', channel=8, control=11, value=90, time=0),
    Message('control_change', channel=8, control=11, value=90, time=2),
    Message('note_off', channel=8, note=74, velocity=64, time=1),
    Message('note_off', channel=8, note=79, velocity=64, time=0),
    Message('control_change', channel=8, control=11, value=91, time=3),
    Message('note_off', channel=8, note=86, velocity=64, time=1),
    Message('note_on', channel=8, note=47, velocity=96, time=5),
    Message('control_change', channel=8, control=11, value=91, time=2),
    Message('control_change', channel=8, control=11, value=92, time=0),
    Message('note_off', channel=8, note=47, velocity=64, time=6),
    Message('control_change', channel=8, control=11, value=93, time=2),
    Message('control_change', channel=8, control=11, value=93, time=4),
    Message('control_change', channel=8, control=11, value=94, time=1),
    Message('control_change', channel=8, control=11, value=95, time=8),
    Message('control_change', channel=8, control=11, value=95, time=3),
    Message('control_change', channel=8, control=11, value=96, time=5),
    Message('control_change', channel=8, control=11, value=96, time=7),
    Message('control_change', channel=8, control=11, value=97, time=0),
    Message('control_change', channel=8, control=11, value=98, time=8),
    Message('note_on', channel=8, note=50, velocity=96, time=3),
    Message('control_change', channel=8, control=11, value=98, time=1),
    Message('control_change', channel=8, control=11, value=99, time=4),
    Message('note_off', channel=8, note=50, velocity=64, time=4),
    Message('control_change', channel=8, control=11, value=100, time=3),
    Message('control_change', channel=8, control=11, value=100, time=1),
    Message('control_change', channel=8, control=11, value=101, time=7),
    Message('control_change', channel=8, control=11, value=101, time=5),
    Message('control_change', channel=8, control=11, value=102, time=1),
    Message('control_change', channel=8, control=11, value=103, time=8),
    Message('control_change', channel=8, control=11, value=103, time=3),
    Message('control_change', channel=8, control=11, value=104, time=4),
    Message('note_on', channel=8, note=55, velocity=99, time=7),
    Message('control_change', channel=8, control=11, value=104, time=1),
    Message('control_change', channel=8, control=11, value=105, time=0),
    Message('control_change', channel=8, control=11, value=106, time=8),
    Message('note_off', channel=8, note=55, velocity=64, time=2),
    Message('control_change', channel=8, control=11, value=106, time=2),
    Message('control_change', channel=8, control=11, value=107, time=3),
    Message('control_change', channel=8, control=11, value=108, time=8),
    Message('control_change', channel=8, control=11, value=108, time=1),
    Message('control_change', channel=8, control=11, value=109, time=7),
    Message('control_change', channel=8, control=11, value=109, time=5),
    Message('control_change', channel=8, control=11, value=110, time=2),
    Message('control_change', channel=8, control=11, value=111, time=6),
    Message('note_on', channel=8, note=59, velocity=96, time=1),
    Message('control_change', channel=8, control=11, value=111, time=3),
    Message('control_change', channel=8, control=11, value=112, time=4),
    Message('control_change', channel=8, control=11, value=113, time=7),
    Message('note_off', channel=8, note=59, velocity=64, time=0),
    Message('control_change', channel=8, control=11, value=113, time=1),
    Message('control_change', channel=8, control=11, value=114, time=7),
    Message('control_change', channel=8, control=11, value=114, time=5),
    Message('control_change', channel=8, control=11, value=115, time=3),
    Message('control_change', channel=8, control=11, value=116, time=8),
    Message('control_change', channel=8, control=11, value=116, time=1),
    Message('control_change', channel=8, control=11, value=117, time=6),
    Message('note_on', channel=8, note=62, velocity=107, time=3),
    Message('control_change', channel=8, control=11, value=117, time=3),
    Message('control_change', channel=8, control=11, value=118, time=2),
    Message('note_off', channel=8, note=62, velocity=64, time=9),
    Message('control_change', channel=8, control=11, value=119, time=0),
    Message('control_change', channel=8, control=11, value=119, time=1),
    Message('control_change', channel=8, control=11, value=120, time=4),
    Message('control_change', channel=8, control=11, value=121, time=7),
    Message('control_change', channel=8, control=11, value=121, time=1),
    Message('control_change', channel=8, control=11, value=122, time=7),
    Message('control_change', channel=8, control=11, value=122, time=5),
    Message('control_change', channel=8, control=11, value=123, time=2),
    Message('note_on', channel=8, note=67, velocity=107, time=8),
    Message('control_change', channel=8, control=11, value=124, time=0),
    Message('control_change', channel=8, control=11, value=124, time=2),
    Message('control_change', channel=8, control=11, value=125, time=6),
    Message('note_off', channel=8, note=67, velocity=64, time=4),
    Message('control_change', channel=8, control=11, value=125, time=2),
    Message('control_change', channel=8, control=11, value=126, time=1),
    Message('control_change', channel=8, control=11, value=127, time=10),
    Message('note_on', channel=8, note=66, velocity=112, time=23),
    Message('note_on', channel=8, note=70, velocity=118, time=0),
    Message('note_on', channel=8, note=56, velocity=112, time=1),
    Message('note_on', channel=8, note=62, velocity=118, time=0),
    Message('note_on', channel=8, note=28, velocity=112, time=0),
    Message('note_on', channel=8, note=40, velocity=106, time=0),
    Message('control_change', channel=8, control=64, value=127, time=8),
    Message('control_change', channel=8, control=64, value=0, time=0),
    Message('control_change', channel=8, control=64, value=52, time=5),
    Message('control_change', channel=8, control=64, value=127, time=6),
    Message('control_change', channel=8, control=21, value=0, time=97),
    Message('control_change', channel=8, control=21, value=5, time=0),
    Message('control_change', channel=8, control=21, value=8, time=5),
    Message('control_change', channel=8, control=21, value=12, time=5),
    Message('control_change', channel=8, control=21, value=13, time=0),
    Message('control_change', channel=8, control=21, value=15, time=4),
    Message('control_change', channel=8, control=21, value=16, time=2),
    Message('control_change', channel=8, control=21, value=16, time=1),
    Message('control_change', channel=8, control=21, value=18, time=1),
    Message('control_change', channel=8, control=21, value=19, time=2),
    Message('control_change', channel=8, control=21, value=20, time=2),
    Message('control_change', channel=8, control=21, value=21, time=3),
    Message('control_change', channel=8, control=21, value=23, time=3),
    Message('control_change', channel=8, control=21, value=23, time=1),
    Message('control_change', channel=8, control=21, value=25, time=2),
    Message('control_change', channel=8, control=21, value=26, time=4),
    Message('control_change', channel=8, control=21, value=28, time=2),
    Message('control_change', channel=8, control=21, value=30, time=1),
    Message('control_change', channel=8, control=21, value=32, time=3),
    Message('control_change', channel=8, control=21, value=34, time=2),
    Message('control_change', channel=8, control=21, value=35, time=2),
    Message('control_change', channel=8, control=21, value=36, time=3),
    Message('control_change', channel=8, control=21, value=38, time=2),
    Message('control_change', channel=8, control=21, value=39, time=2),
    Message('control_change', channel=8, control=21, value=39, time=1),
    Message('control_change', channel=8, control=21, value=41, time=2),
    Message('control_change', channel=8, control=21, value=42, time=2),
    Message('control_change', channel=8, control=21, value=43, time=2),
    Message('control_change', channel=8, control=21, value=44, time=3),
    Message('control_change', channel=8, control=21, value=45, time=3),
    Message('control_change', channel=8, control=21, value=46, time=1),
    Message('control_change', channel=8, control=21, value=47, time=4),
    Message('control_change', channel=8, control=21, value=48, time=3),
    Message('control_change', channel=8, control=21, value=50, time=3),
    Message('control_change', channel=8, control=21, value=50, time=1),
    Message('control_change', channel=8, control=21, value=52, time=2),
    Message('control_change', channel=8, control=21, value=53, time=3),
    Message('control_change', channel=8, control=21, value=55, time=2),
    Message('control_change', channel=8, control=21, value=56, time=4),
    Message('control_change', channel=8, control=21, value=56, time=1),
    Message('control_change', channel=8, control=21, value=57, time=2),
    Message('control_change', channel=8, control=21, value=58, time=3),
    Message('control_change', channel=8, control=21, value=60, time=1),
    Message('control_change', channel=8, control=21, value=61, time=3),
    Message('control_change', channel=8, control=21, value=61, time=3),
    Message('control_change', channel=8, control=21, value=62, time=3),
    Message('control_change', channel=8, control=21, value=63, time=5),
    Message('control_change', channel=8, control=21, value=63, time=12),
    Message('control_change', channel=8, control=21, value=64, time=0),
    Message('control_change', channel=8, control=21, value=66, time=3),
    Message('control_change', channel=8, control=21, value=66, time=1),
    Message('control_change', channel=8, control=21, value=70, time=1),
    Message('control_change', channel=8, control=21, value=71, time=2),
    Message('control_change', channel=8, control=21, value=74, time=3),
    Message('control_change', channel=8, control=21, value=78, time=2),
    Message('control_change', channel=8, control=21, value=81, time=3),
    Message('control_change', channel=8, control=21, value=81, time=1),
    Message('control_change', channel=8, control=21, value=83, time=1),
    Message('control_change', channel=8, control=21, value=85, time=2),
    Message('control_change', channel=8, control=21, value=87, time=4),
    Message('control_change', channel=8, control=21, value=88, time=4),
    Message('control_change', channel=8, control=21, value=88, time=1),
    Message('control_change', channel=8, control=21, value=89, time=0),
    Message('control_change', channel=8, control=21, value=90, time=2),
    Message('control_change', channel=8, control=21, value=91, time=3),
    Message('control_change', channel=8, control=21, value=92, time=2),
    Message('control_change', channel=8, control=21, value=95, time=2),
    Message('control_change', channel=8, control=21, value=95, time=3),
    Message('control_change', channel=8, control=21, value=96, time=0),
    Message('control_change', channel=8, control=21, value=100, time=2),
    Message('control_change', channel=8, control=21, value=102, time=2),
    Message('control_change', channel=8, control=21, value=104, time=3),
    Message('control_change', channel=8, control=21, value=106, time=2),
    Message('control_change', channel=8, control=21, value=106, time=3),
    Message('control_change', channel=8, control=21, value=107, time=0),
    Message('control_change', channel=8, control=21, value=108, time=2),
    Message('control_change', channel=8, control=21, value=109, time=2),
    Message('control_change', channel=8, control=21, value=110, time=2),
    Message('control_change', channel=8, control=21, value=111, time=3),
    Message('control_change', channel=8, control=21, value=113, time=2),
    Message('control_change', channel=8, control=21, value=113, time=1),
    Message('control_change', channel=8, control=21, value=115, time=3),
    Message('control_change', channel=8, control=21, value=116, time=3),
    Message('control_change', channel=8, control=21, value=116, time=6),
    Message('control_change', channel=8, control=21, value=117, time=0),
    Message('control_change', channel=8, control=21, value=118, time=3),
    Message('control_change', channel=8, control=21, value=119, time=4),
    Message('control_change', channel=8, control=21, value=120, time=5),
    Message('control_change', channel=8, control=21, value=123, time=2),
    Message('control_change', channel=8, control=21, value=21, time=10),
    Message('control_change', channel=8, control=21, value=15, time=0),
    Message('control_change', channel=8, control=20, value=0, time=11),
    Message('control_change', channel=8, control=20, value=11, time=0),
    Message('control_change', channel=8, control=20, value=11, time=1),
    Message('control_change', channel=8, control=20, value=12, time=1),
    Message('control_change', channel=8, control=20, value=15, time=2),
    Message('control_change', channel=8, control=20, value=16, time=2),
    Message('control_change', channel=8, control=20, value=18, time=2),
    Message('control_change', channel=8, control=20, value=18, time=21),
    Message('control_change', channel=8, control=20, value=37, time=0),
    Message('note_off', channel=8, note=28, velocity=64, time=5),
    Message('note_off', channel=8, note=40, velocity=64, time=0),
    Message('note_off', channel=8, note=56, velocity=64, time=0),
    Message('note_off', channel=8, note=62, velocity=64, time=1),
    Message('note_off', channel=8, note=66, velocity=64, time=0),
    Message('control_change', channel=8, control=64, value=127, time=0),
    Message('control_change', channel=8, control=64, value=0, time=0),
    Message('note_off', channel=8, note=70, velocity=64, time=0),
    Message('note_on', channel=8, note=27, velocity=107, time=0),
    Message('note_on', channel=8, note=49, velocity=107, time=0),
    Message('note_on', channel=8, note=55, velocity=120, time=0),
    Message('note_on', channel=8, note=39, velocity=107, time=1),
    Message('control_change', channel=8, control=64, value=72, time=1),
    Message('control_change', channel=8, control=64, value=96, time=0),
    Message('control_change', channel=8, control=64, value=40, time=1),
    Message('control_change', channel=8, control=64, value=0, time=2),
    Message('note_off', channel=8, note=49, velocity=64, time=33),
    Message('note_off', channel=8, note=39, velocity=64, time=3),
    Message('note_off', channel=8, note=55, velocity=64, time=3),
    Message('note_off', channel=8, note=27, velocity=64, time=4),
    Message('note_on', channel=8, note=33, velocity=46, time=5),
    Message('note_off', channel=8, note=33, velocity=64, time=6),
    Message('note_on', channel=8, note=36, velocity=42, time=4),
    Message('note_on', channel=8, note=38, velocity=61, time=1),
    Message('note_off', channel=8, note=36, velocity=64, time=2),
    Message('note_on', channel=8, note=40, velocity=62, time=1),
    Message('note_off', channel=8, note=38, velocity=64, time=2),
    Message('note_on', channel=8, note=41, velocity=60, time=1),
    Message('note_off', channel=8, note=40, velocity=64, time=2),
    Message('note_on', channel=8, note=43, velocity=58, time=1),
    Message('note_on', channel=8, note=45, velocity=52, time=2),
    Message('note_off', channel=8, note=41, velocity=64, time=1),
    Message('note_off', channel=8, note=43, velocity=64, time=3),
    Message('note_on', channel=8, note=47, velocity=54, time=0),
    Message('note_off', channel=8, note=45, velocity=64, time=3),
    Message('note_on', channel=8, note=48, velocity=54, time=0),
    Message('note_off', channel=8, note=47, velocity=64, time=3),
    Message('note_on', channel=8, note=50, velocity=61, time=0),
    Message('note_off', channel=8, note=48, velocity=64, time=4),
    Message('note_on', channel=8, note=52, velocity=67, time=0),
    Message('note_off', channel=8, note=50, velocity=64, time=4),
    Message('note_on', channel=8, note=53, velocity=74, time=0),
    Message('note_off', channel=8, note=52, velocity=64, time=5),
    Message('note_on', channel=8, note=55, velocity=60, time=0),
    Message('note_off', channel=8, note=53, velocity=64, time=3),
    Message('note_off', channel=8, note=55, velocity=64, time=5),
    Message('note_on', channel=8, note=34, velocity=97, time=92),
    Message('note_off', channel=8, note=34, velocity=64, time=3),
    Message('note_on', channel=8, note=43, velocity=53, time=26),
    Message('note_on', channel=8, note=45, velocity=94, time=1),
    Message('note_off', channel=8, note=43, velocity=64, time=3),
    Message('note_on', channel=8, note=47, velocity=75, time=1),
    Message('note_off', channel=8, note=45, velocity=64, time=4),
    Message('note_on', channel=8, note=48, velocity=65, time=1),
    Message('note_off', channel=8, note=47, velocity=64, time=4),
    Message('note_on', channel=8, note=50, velocity=79, time=1),
    Message('note_off', channel=8, note=48, velocity=64, time=5),
    Message('note_on', channel=8, note=52, velocity=87, time=0),
    Message('note_off', channel=8, note=50, velocity=64, time=6),
    Message('note_off', channel=8, note=52, velocity=64, time=1),
    Message('note_on', channel=8, note=54, velocity=60, time=1),
    Message('note_off', channel=8, note=54, velocity=64, time=7),
    Message('note_on', channel=8, note=70, velocity=112, time=7),
    Message('note_on', channel=8, note=58, velocity=112, time=0),
    Message('note_off', channel=8, note=70, velocity=64, time=25),
    Message('note_off', channel=8, note=58, velocity=64, time=1),
    Message('note_on', channel=8, note=70, velocity=124, time=22),
    Message('note_on', channel=8, note=58, velocity=118, time=1),
    Message('note_on', channel=8, note=67, velocity=83, time=21),
    Message('note_off', channel=8, note=70, velocity=64, time=9),
    Message('control_change', channel=8, control=21, value=15, time=13),
    Message('control_change', channel=8, control=21, value=2, time=0),
    Message('control_change', channel=8, control=21, value=2, time=1),
    Message('note_on', channel=8, note=65, velocity=92, time=2),
    Message('control_change', channel=8, control=21, value=7, time=7),
    Message('note_off', channel=8, note=67, velocity=64, time=0),
    Message('control_change', channel=8, control=21, value=8, time=0),
    Message('note_off', channel=8, note=58, velocity=64, time=0),
    Message('control_change', channel=8, control=21, value=10, time=2),
    Message('control_change', channel=8, control=21, value=10, time=1),
    Message('control_change', channel=8, control=21, value=11, time=1),
    Message('control_change', channel=8, control=21, value=13, time=2),
    Message('control_change', channel=8, control=21, value=14, time=4),
    Message('control_change', channel=8, control=21, value=16, time=0),
    Message('control_change', channel=8, control=21, value=17, time=2),
    Message('note_off', channel=8, note=65, velocity=64, time=1),
    Message('control_change', channel=8, control=21, value=18, time=2),
    Message('control_change', channel=8, control=21, value=20, time=2),
    Message('note_on', channel=8, note=58, velocity=103, time=0),
    Message('note_on', channel=8, note=70, velocity=118, time=0),
    Message('control_change', channel=8, control=21, value=21, time=0),
    Message('control_change', channel=8, control=21, value=22, time=2),
    Message('control_change', channel=8, control=21, value=24, time=3),
    Message('control_change', channel=8, control=21, value=27, time=5),
    Message('control_change', channel=8, control=21, value=28, time=0),
    Message('control_change', channel=8, control=21, value=30, time=1),
    Message('control_change', channel=8, control=21, value=31, time=2),
    Message('control_change', channel=8, control=21, value=32, time=2),
    Message('note_off', channel=8, note=58, velocity=64, time=4),
    Message('control_change', channel=8, control=21, value=32, time=3),
    Message('control_change', channel=8, control=21, value=33, time=0),
    Message('note_off', channel=8, note=70, velocity=64, time=2),
    Message('control_change', channel=8, control=21, value=34, time=2),
    Message('note_on', channel=8, note=73, velocity=112, time=1),
    Message('note_on', channel=8, note=61, velocity=115, time=2),
    Message('control_change', channel=8, control=21, value=35, time=2),
    Message('control_change', channel=8, control=21, value=36, time=3),
    Message('control_change', channel=8, control=21, value=38, time=1),
    Message('control_change', channel=8, control=21, value=40, time=3),
    Message('control_change', channel=8, control=21, value=43, time=2),
    Message('control_change', channel=8, control=21, value=47, time=2),
    Message('control_change', channel=8, control=21, value=48, time=3),
    Message('control_change', channel=8, control=21, value=49, time=1),
    Message('control_change', channel=8, control=21, value=54, time=1),
    Message('control_change', channel=8, control=21, value=61, time=3),
    Message('control_change', channel=8, control=21, value=64, time=3),
    Message('control_change', channel=8, control=21, value=71, time=1),
    Message('control_change', channel=8, control=21, value=73, time=3),
    Message('control_change', channel=8, control=21, value=73, time=1),
    Message('control_change', channel=8, control=21, value=76, time=2),
    Message('control_change', channel=8, control=21, value=77, time=2),
    Message('control_change', channel=8, control=21, value=74, time=4),
    Message('control_change', channel=8, control=21, value=69, time=2),
    Message('control_change', channel=8, control=21, value=67, time=2),
    Message('control_change', channel=8, control=21, value=66, time=1),
    Message('control_change', channel=8, control=21, value=56, time=2),
    Message('control_change', channel=8, control=21, value=44, time=2),
    Message('control_change', channel=8, control=21, value=29, time=3),
    Message('control_change', channel=8, control=21, value=21, time=3),
    Message('control_change', channel=8, control=21, value=15, time=1),
    Message('control_change', channel=8, control=21, value=8, time=1),
    Message('control_change', channel=8, control=21, value=0, time=2),
    Message('control_change', channel=8, control=20, value=37, time=17),
    Message('control_change', channel=8, control=20, value=88, time=0),
    Message('control_change', channel=8, control=20, value=87, time=4),
    Message('control_change', channel=8, control=20, value=87, time=2),
    Message('note_off', channel=8, note=73, velocity=64, time=5),
    Message('note_off', channel=8, note=61, velocity=64, time=2),
    Message('note_on', channel=8, note=50, velocity=63, time=22),
    Message('note_off', channel=8, note=50, velocity=64, time=4),
    Message('note_on', channel=8, note=34, velocity=75, time=48),
    Message('note_off', channel=8, note=34, velocity=64, time=13),
    Message('note_on', channel=8, note=66, velocity=90, time=15),
    Message('note_off', channel=8, note=66, velocity=64, time=1),
    Message('note_on', channel=8, note=43, velocity=49, time=11),
    Message('note_on', channel=8, note=45, velocity=73, time=2),
    Message('note_off', channel=8, note=43, velocity=64, time=4),
    Message('note_on', channel=8, note=49, velocity=45, time=0),
    Message('note_on', channel=8, note=48, velocity=51, time=1),
    Message('note_on', channel=8, note=47, velocity=43, time=0),
    Message('note_on', channel=8, note=51, velocity=37, time=2),
    Message('note_off', channel=8, note=49, velocity=64, time=2),
    Message('note_off', channel=8, note=45, velocity=64, time=1),
    Message('note_off', channel=8, note=51, velocity=64, time=1),
    Message('note_on', channel=8, note=53, velocity=49, time=1),
    Message('note_on', channel=8, note=52, velocity=16, time=4),
    Message('note_off', channel=8, note=47, velocity=64, time=0),
    Message('note_on', channel=8, note=50, velocity=6, time=0),
    Message('note_off', channel=8, note=48, velocity=64, time=5),
    Message('note_off', channel=8, note=53, velocity=64, time=4),
    Message('note_off', channel=8, note=50, velocity=64, time=2),
    Message('note_on', channel=8, note=53, velocity=59, time=4),
    Message('note_off', channel=8, note=52, velocity=64, time=0),
    Message('note_on', channel=8, note=82, velocity=127, time=2),
    Message('note_on', channel=8, note=68, velocity=91, time=0),
    Message('note_on', channel=8, note=77, velocity=100, time=1),
    Message('note_off', channel=8, note=53, velocity=64, time=0),
    Message('note_on', channel=8, note=80, velocity=79, time=1),
    Message('note_off', channel=8, note=80, velocity=64, time=2),
    Message('note_off', channel=8, note=77, velocity=64, time=18),
    Message('note_off', channel=8, note=68, velocity=64, time=0),
    Message('note_off', channel=8, note=82, velocity=64, time=3),
    Message('note_on', channel=8, note=77, velocity=113, time=24),
    Message('note_on', channel=8, note=82, velocity=127, time=0),
    Message('note_on', channel=8, note=68, velocity=97, time=0),
    Message('note_on', channel=8, note=80, velocity=92, time=1),
    Message('note_off', channel=8, note=80, velocity=64, time=2),
    Message('note_on', channel=8, note=80, velocity=62, time=17),
    Message('note_off', channel=8, note=80, velocity=64, time=4),
    Message('note_on', channel=8, note=79, velocity=102, time=0),
    Message('note_off', channel=8, note=82, velocity=64, time=5),
    Message('note_off', channel=8, note=77, velocity=64, time=2),
    Message('control_change', channel=8, control=21, value=0, time=4),
    Message('control_change', channel=8, control=21, value=2, time=0),
    Message('note_off', channel=8, note=68, velocity=64, time=0),
    Message('control_change', channel=8, control=21, value=4, time=1),
    Message('note_off', channel=8, note=79, velocity=64, time=18),
    Message('note_on', channel=8, note=77, velocity=47, time=0),
    Message('note_off', channel=8, note=77, velocity=64, time=8),
    Message('note_on', channel=8, note=67, velocity=104, time=7),
    Message('note_on', channel=8, note=82, velocity=127, time=1),
    Message('note_on', channel=8, note=73, velocity=92, time=0),
    Message('note_on', channel=8, note=77, velocity=87, time=0),
    Message('note_on', channel=8, note=69, velocity=104, time=1),
    Message('control_change', channel=8, control=21, value=4, time=2),
    Message('control_change', channel=8, control=21, value=27, time=0),
    Message('note_off', channel=8, note=69, velocity=64, time=1),
    Message('control_change', channel=8, control=21, value=27, time=13),
    Message('control_change', channel=8, control=21, value=34, time=0),
    Message('note_off', channel=8, note=67, velocity=64, time=0),
    Message('control_change', channel=8, control=21, value=35, time=3),
    Message('note_off', channel=8, note=73, velocity=64, time=0),
    Message('control_change', channel=8, control=21, value=36, time=1),
    Message('note_off', channel=8, note=82, velocity=64, time=0),
    Message('control_change', channel=8, control=21, value=36, time=2),
    Message('note_off', channel=8, note=77, velocity=64, time=0),
    Message('control_change', channel=8, control=21, value=38, time=2),
    Message('control_change', channel=8, control=21, value=39, time=2),
    Message('note_on', channel=8, note=77, velocity=89, time=0),
    Message('note_on', channel=8, note=78, velocity=85, time=0),
    Message('note_on', channel=8, note=67, velocity=100, time=1),
    Message('note_on', channel=8, note=73, velocity=75, time=0),
    Message('note_on', channel=8, note=79, velocity=102, time=0),
    Message('control_change', channel=8, control=21, value=41, time=1),
    Message('note_off', channel=8, note=78, velocity=64, time=2),
    Message('control_change', channel=8, control=21, value=42, time=0),
    Message('note_on', channel=8, note=82, velocity=127, time=0),
    Message('control_change', channel=8, control=21, value=43, time=2),
    Message('control_change', channel=8, control=21, value=44, time=2),
    Message('note_off', channel=8, note=82, velocity=64, time=0),
    Message('control_change', channel=8, control=21, value=45, time=0),
    Message('control_change', channel=8, control=21, value=46, time=2),
    Message('note_off', channel=8, note=73, velocity=64, time=1),
    Message('control_change', channel=8, control=21, value=50, time=5),
    Message('control_change', channel=8, control=21, value=53, time=1),
    Message('control_change', channel=8, control=21, value=54, time=3),
    Message('control_change', channel=8, control=21, value=55, time=0),
    Message('control_change', channel=8, control=21, value=57, time=2),
    Message('note_on', channel=8, note=73, velocity=4, time=2),
    Message('control_change', channel=8, control=21, value=60, time=1),
    Message('control_change', channel=8, control=21, value=64, time=3),
    Message('control_change', channel=8, control=21, value=68, time=1),
    Message('control_change', channel=8, control=21, value=75, time=3),
    Message('control_change', channel=8, control=21, value=77, time=0),
    Message('note_off', channel=8, note=73, velocity=64, time=2),
    Message('note_off', channel=8, note=79, velocity=64, time=0),
    Message('control_change', channel=8, control=21, value=80, time=0),
    Message('control_change', channel=8, control=21, value=84, time=3),
    Message('note_off', channel=8, note=77, velocity=64, time=1),
    Message('control_change', channel=8, control=21, value=91, time=3),
    Message('control_change', channel=8, control=21, value=95, time=1),
    Message('control_change', channel=8, control=21, value=102, time=2),
    Message('control_change', channel=8, control=21, value=104, time=0),
    Message('control_change', channel=8, control=21, value=110, time=3),
    Message('control_change', channel=8, control=21, value=119, time=2),
    Message('control_change', channel=8, control=21, value=125, time=4),
    Message('control_change', channel=8, control=21, value=127, time=1),
    Message('note_on', channel=8, note=65, velocity=59, time=4),
    Message('note_off', channel=8, note=67, velocity=64, time=3),
    Message('note_on', channel=8, note=64, velocity=80, time=3),
    Message('note_off', channel=8, note=65, velocity=64, time=1),
    Message('note_on', channel=8, note=62, velocity=89, time=2),
    Message('note_off', channel=8, note=64, velocity=64, time=1),
    Message('note_off', channel=8, note=62, velocity=64, time=3),
    Message('note_on', channel=8, note=60, velocity=74, time=0),
    Message('note_off', channel=8, note=60, velocity=64, time=3),
    Message('control_change', channel=8, control=21, value=127, time=17),
    Message('control_change', channel=8, control=21, value=124, time=0),
    Message('control_change', channel=8, control=21, value=123, time=1),
    Message('control_change', channel=8, control=21, value=119, time=3),
    Message('control_change', channel=8, control=21, value=115, time=1),
    Message('control_change', channel=8, control=21, value=112, time=2),
    Message('control_change', channel=8, control=21, value=106, time=3),
    Message('control_change', channel=8, control=21, value=100, time=2),
    Message('control_change', channel=8, control=21, value=97, time=1),
    Message('control_change', channel=8, control=21, value=83, time=2),
    Message('control_change', channel=8, control=21, value=59, time=2),
    Message('control_change', channel=8, control=21, value=37, time=2),
    Message('control_change', channel=8, control=21, value=29, time=3),
    Message('control_change', channel=8, control=21, value=11, time=2),
    Message('control_change', channel=8, control=21, value=9, time=1),
    Message('control_change', channel=8, control=21, value=0, time=1),
    Message('note_on', channel=8, note=67, velocity=113, time=70),
    Message('note_on', channel=8, note=61, velocity=119, time=0),
    Message('note_on', channel=8, note=65, velocity=110, time=0),
    Message('note_off', channel=8, note=65, velocity=64, time=22),
    Message('note_on', channel=8, note=62, velocity=77, time=1),
    Message('note_off', channel=8, note=67, velocity=64, time=1),
    Message('note_off', channel=8, note=61, velocity=64, time=5),
    Message('note_off', channel=8, note=62, velocity=64, time=14),
    Message('note_on', channel=8, note=34, velocity=107, time=3),
    Message('note_on', channel=8, note=46, velocity=113, time=2),
    Message('note_on', channel=8, note=62, velocity=93, time=2),
    Message('note_on', channel=8, note=60, velocity=90, time=1),
    Message('note_off', channel=8, note=60, velocity=64, time=3),
    Message('note_off', channel=8, note=62, velocity=64, time=11),
    Message('note_off', channel=8, note=34, velocity=64, time=0),
    Message('note_on', channel=8, note=70, velocity=119, time=7),
    Message('note_off', channel=8, note=46, velocity=64, time=0),
    Message('note_on', channel=8, note=66, velocity=119, time=0),
    Message('note_on', channel=8, note=72, velocity=90, time=5),
    Message('note_on', channel=8, note=67, velocity=96, time=0),
    Message('note_off', channel=8, note=72, velocity=64, time=0),
    Message('note_off', channel=8, note=66, velocity=64, time=6),
    Message('note_off', channel=8, note=67, velocity=64, time=3),
    Message('note_on', channel=8, note=67, velocity=75, time=8),
    Message('note_off', channel=8, note=70, velocity=64, time=5),
    Message('note_on', channel=8, note=65, velocity=82, time=20),
    Message('note_off', channel=8, note=67, velocity=64, time=2),
    Message('note_on', channel=8, note=62, velocity=89, time=25),
    Message('note_off', channel=8, note=65, velocity=64, time=0),
    Message('control_change', channel=8, control=21, value=0, time=1),
    Message('control_change', channel=8, control=21, value=2, time=0),
    Message('control_change', channel=8, control=21, value=4, time=2),
    Message('control_change', channel=8, control=21, value=5, time=3),
    Message('control_change', channel=8, control=21, value=7, time=2),
    Message('control_change', channel=8, control=21, value=9, time=2),
    Message('control_change', channel=8, control=21, value=9, time=1),
    Message('control_change', channel=8, control=21, value=10, time=2),
    Message('note_off', channel=8, note=62, velocity=64, time=2),
    Message('control_change', channel=8, control=21, value=13, time=0),
    Message('control_change', channel=8, control=21, value=14, time=2),
    Message('control_change', channel=8, control=21, value=19, time=4),
    Message('note_on', channel=8, note=72, velocity=110, time=1),
    Message('control_change', channel=8, control=21, value=21, time=0),
    Message('control_change', channel=8, control=21, value=21, time=1),
    Message('note_on', channel=8, note=66, velocity=102, time=0),
    Message('note_on', channel=8, note=65, velocity=102, time=1),
    Message('control_change', channel=8, control=21, value=25, time=0),
    Message('control_change', channel=8, control=21, value=27, time=3),
    Message('note_off', channel=8, note=66, velocity=64, time=1),
    Message('control_change', channel=8, control=21, value=29, time=1),
    Message('note_off', channel=8, note=65, velocity=64, time=4),
    Message('note_off', channel=8, note=72, velocity=64, time=0),
    Message('control_change', channel=8, control=21, value=29, time=13),
    Message('control_change', channel=8, control=21, value=30, time=0),
    Message('control_change', channel=8, control=21, value=30, time=1),
    Message('control_change', channel=8, control=21, value=31, time=8),
    Message('note_on', channel=8, note=72, velocity=119, time=17),
    Message('note_on', channel=8, note=65, velocity=113, time=0),
    Message('note_on', channel=8, note=66, velocity=127, time=1),
    Message('control_change', channel=8, control=21, value=31, time=1),
    Message('control_change', channel=8, control=21, value=34, time=0),
    Message('control_change', channel=8, control=21, value=35, time=4),
    Message('control_change', channel=8, control=21, value=36, time=3),
    Message('control_change', channel=8, control=21, value=36, time=2),
    Message('control_change', channel=8, control=21, value=37, time=0),
    Message('control_change', channel=8, control=21, value=39, time=3),
    Message('control_change', channel=8, control=21, value=40, time=3),
    Message('control_change', channel=8, control=21, value=42, time=4),
    Message('control_change', channel=8, control=21, value=43, time=1),
    Message('control_change', channel=8, control=21, value=43, time=1),
    Message('control_change', channel=8, control=21, value=44, time=1),
    Message('control_change', channel=8, control=21, value=45, time=3),
    Message('control_change', channel=8, control=64, value=0, time=1),
    Message('control_change', channel=8, control=64, value=43, time=0),
    Message('control_change', channel=8, control=21, value=47, time=1),
    Message('control_change', channel=8, control=64, value=127, time=1),
    Message('control_change', channel=8, control=21, value=51, time=3),
    Message('control_change', channel=8, control=21, value=53, time=2),
    Message('control_change', channel=8, control=21, value=54, time=0),
    Message('control_change', channel=8, control=21, value=59, time=5),
    Message('control_change', channel=8, control=21, value=60, time=2),
    Message('control_change', channel=8, control=21, value=63, time=2),
    Message('control_change', channel=8, control=21, value=65, time=3),
    Message('control_change', channel=8, control=21, value=68, time=2),
    Message('control_change', channel=8, control=21, value=72, time=2),
    Message('control_change', channel=8, control=21, value=74, time=2),
    Message('control_change', channel=8, control=21, value=79, time=2),
    Message('control_change', channel=8, control=21, value=81, time=3),
    Message('control_change', channel=8, control=21, value=83, time=1),
    Message('control_change', channel=8, control=21, value=86, time=1),
    Message('control_change', channel=8, control=21, value=89, time=2),
    Message('control_change', channel=8, control=21, value=91, time=2),
    Message('control_change', channel=8, control=21, value=95, time=3),
    Message('control_change', channel=8, control=21, value=91, time=4),
    Message('control_change', channel=8, control=21, value=88, time=4),
    Message('note_off', channel=8, note=72, velocity=64, time=2),
    Message('control_change', channel=8, control=21, value=80, time=0),
    Message('control_change', channel=8, control=21, value=76, time=4),
    Message('control_change', channel=8, control=21, value=62, time=1),
    Message('control_change', channel=8, control=21, value=55, time=1),
    Message('control_change', channel=8, control=21, value=46, time=1),
    Message('note_off', channel=8, note=65, velocity=64, time=2),
    Message('control_change', channel=8, control=21, value=35, time=0),
    Message('control_change', channel=8, control=21, value=22, time=3),
    Message('note_off', channel=8, note=66, velocity=64, time=1),
    Message('control_change', channel=8, control=21, value=2, time=1),
    Message('control_change', channel=8, control=21, value=0, time=2),
    Message('note_on', channel=8, note=70, velocity=113, time=3),
    Message('note_on', channel=8, note=64, velocity=110, time=0),
    Message('note_on', channel=8, note=71, velocity=107, time=1),
    Message('note_on', channel=8, note=65, velocity=119, time=0),
    Message('note_on', channel=8, note=72, velocity=110, time=0),
    Message('control_change', channel=8, control=64, value=127, time=0),
    Message('control_change', channel=8, control=64, value=48, time=0),
    Message('note_on', channel=8, note=68, velocity=102, time=1),
    Message('control_change', channel=8, control=64, value=0, time=1),
    Message('note_off', channel=8, note=68, velocity=64, time=1),
    Message('control_change', channel=8, control=21, value=0, time=12),
    Message('control_change', channel=8, control=21, value=4, time=0),
    Message('note_off', channel=8, note=72, velocity=64, time=1),
    Message('control_change', channel=8, control=21, value=7, time=1),
    Message('control_change', channel=8, control=64, value=0, time=2),
    Message('control_change', channel=8, control=64, value=54, time=0),
    Message('control_change', channel=8, control=21, value=11, time=1),
    Message('control_change', channel=8, control=21, value=13, time=2),
    Message('control_change', channel=8, control=64, value=127, time=0),
    Message('control_change', channel=8, control=21, value=14, time=0),
    Message('control_change', channel=8, control=21, value=17, time=4),
    Message('control_change', channel=8, control=21, value=18, time=1),
    Message('control_change', channel=8, control=21, value=20, time=2),
    Message('control_change', channel=8, control=21, value=24, time=3),
    Message('control_change', channel=8, control=21, value=27, time=2),
    Message('control_change', channel=8, control=21, value=30, time=2),
    Message('control_change', channel=8, control=21, value=36, time=2),
    Message('control_change', channel=8, control=21, value=40, time=3),
    Message('control_change', channel=8, control=21, value=42, time=2),
    Message('control_change', channel=8, control=21, value=46, time=3),
    Message('control_change', channel=8, control=21, value=50, time=2),
    Message('control_change', channel=8, control=21, value=52, time=2),
    Message('control_change', channel=8, control=21, value=57, time=3),
    Message('control_change', channel=8, control=21, value=61, time=2),
    Message('control_change', channel=8, control=21, value=65, time=3),
    Message('control_change', channel=8, control=21, value=69, time=2),
    Message('control_change', channel=8, control=21, value=71, time=2),
    Message('note_off', channel=8, note=65, velocity=64, time=3),
    Message('control_change', channel=8, control=21, value=74, time=0),
    Message('control_change', channel=8, control=21, value=77, time=2),
    Message('note_off', channel=8, note=70, velocity=64, time=1),
    Message('note_off', channel=8, note=64, velocity=64, time=0),
    Message('note_off', channel=8, note=71, velocity=64, time=1),
    Message('control_change', channel=8, control=21, value=79, time=0),
    Message('control_change', channel=8, control=21, value=79, time=1),
    Message('control_change', channel=8, control=21, value=82, time=2),
    Message('control_change', channel=8, control=20, value=87, time=2),
    Message('control_change', channel=8, control=20, value=89, time=0),
    Message('control_change', channel=8, control=21, value=82, time=37),
    Message('control_change', channel=8, control=21, value=87, time=0),
    Message('control_change', channel=8, control=20, value=89, time=32),
    Message('control_change', channel=8, control=20, value=80, time=0),
    Message('control_change', channel=8, control=20, value=82, time=4),
    Message('control_change', channel=8, control=20, value=83, time=2),
    Message('control_change', channel=8, control=20, value=84, time=2),
    Message('control_change', channel=8, control=20, value=85, time=1),
    Message('control_change', channel=8, control=20, value=85, time=2),
    Message('control_change', channel=8, control=20, value=86, time=0),
    Message('control_change', channel=8, control=20, value=87, time=2),
    Message('control_change', channel=8, control=20, value=88, time=2),
    Message('control_change', channel=8, control=20, value=89, time=2),
    Message('control_change', channel=8, control=20, value=90, time=2),
    Message('control_change', channel=8, control=20, value=91, time=2),
    Message('control_change', channel=8, control=20, value=91, time=2),
    Message('control_change', channel=8, control=20, value=92, time=0),
    Message('note_on', channel=8, note=78, velocity=107, time=0),
    Message('control_change', channel=8, control=20, value=93, time=2),
    Message('note_on', channel=8, note=82, velocity=64, time=1),
    Message('control_change', channel=8, control=20, value=94, time=1),
    Message('control_change', channel=8, control=20, value=95, time=2),
    Message('note_off', channel=8, note=82, velocity=64, time=2),
    Message('control_change', channel=8, control=20, value=96, time=0),
    Message('control_change', channel=8, control=20, value=97, time=2),
    Message('control_change', channel=8, control=20, value=98, time=2),
    Message('control_change', channel=8, control=64, value=127, time=0),
    Message('control_change', channel=8, control=64, value=51, time=0),
    Message('control_change', channel=8, control=20, value=99, time=1),
    Message('control_change', channel=8, control=64, value=0, time=1),
    Message('control_change', channel=8, control=20, value=100, time=2),
    Message('control_change', channel=8, control=20, value=101, time=1),
    Message('control_change', channel=8, control=20, value=102, time=2),
    Message('control_change', channel=8, control=20, value=103, time=4),
    Message('control_change', channel=8, control=20, value=103, time=1),
    Message('control_change', channel=8, control=20, value=104, time=0),
    Message('note_off', channel=8, note=78, velocity=64, time=0),
    Message('control_change', channel=8, control=20, value=105, time=1),
    Message('control_change', channel=8, control=20, value=106, time=3),
    Message('control_change', channel=8, control=20, value=107, time=1),
    Message('note_on', channel=8, note=79, velocity=20, time=0),
    Message('control_change', channel=8, control=20, value=108, time=2),
    Message('control_change', channel=8, control=20, value=109, time=2),
    Message('control_change', channel=8, control=20, value=110, time=2),
    Message('control_change', channel=8, control=20, value=110, time=1),
    Message('control_change', channel=8, control=20, value=111, time=1),
    Message('control_change', channel=8, control=20, value=112, time=1),
    Message('control_change', channel=8, control=20, value=113, time=2),
    Message('control_change', channel=8, control=20, value=114, time=2),
    Message('control_change', channel=8, control=20, value=115, time=2),
    Message('control_change', channel=8, control=20, value=116, time=3),
    Message('control_change', channel=8, control=20, value=116, time=1),
    Message('note_off', channel=8, note=79, velocity=64, time=0),
    Message('control_change', channel=8, control=20, value=117, time=0),
    Message('note_on', channel=8, note=82, velocity=113, time=1),
    Message('note_on', channel=8, note=70, velocity=107, time=0),
    Message('control_change', channel=8, control=20, value=118, time=1),
    Message('control_change', channel=8, control=20, value=119, time=2),
    Message('control_change', channel=8, control=20, value=120, time=2),
    Message('control_change', channel=8, control=20, value=121, time=2),
    Message('control_change', channel=8, control=20, value=122, time=2),
    Message('control_change', channel=8, control=20, value=123, time=1),
    Message('control_change', channel=8, control=20, value=123, time=1),
    Message('control_change', channel=8, control=20, value=124, time=1),
    Message('control_change', channel=8, control=20, value=125, time=2),
    Message('control_change', channel=8, control=20, value=126, time=2),
    Message('control_change', channel=8, control=20, value=127, time=2),
    Message('note_on', channel=8, note=79, velocity=85, time=7),
    Message('control_change', channel=8, control=20, value=127, time=3),
    Message('note_off', channel=8, note=70, velocity=64, time=1),
    Message('note_off', channel=8, note=82, velocity=64, time=5),
    Message('note_off', channel=8, note=79, velocity=64, time=11),
    Message('control_change', channel=8, control=20, value=127, time=2),
    Message('control_change', channel=8, control=20, value=126, time=0),
    Message('note_on', channel=8, note=73, velocity=107, time=3),
    Message('control_change', channel=8, control=20, value=125, time=1),
    Message('control_change', channel=8, control=20, value=124, time=2),
    Message('control_change', channel=8, control=20, value=123, time=4),
    Message('control_change', channel=8, control=20, value=122, time=2),
    Message('control_change', channel=8, control=20, value=121, time=3),
    Message('note_off', channel=8, note=73, velocity=64, time=4),
    Message('control_change', channel=8, control=20, value=120, time=1),
    Message('control_change', channel=8, control=20, value=119, time=1),
    Message('control_change', channel=8, control=20, value=118, time=3),
    Message('note_on', channel=8, note=70, velocity=90, time=1),
    Message('control_change', channel=8, control=20, value=118, time=0),
    Message('control_change', channel=8, control=20, value=117, time=4),
    Message('control_change', channel=8, control=20, value=116, time=2),
    Message('control_change', channel=8, control=20, value=115, time=4),
    Message('control_change', channel=8, control=20, value=114, time=1),
    Message('control_change', channel=8, control=20, value=114, time=3),
    Message('note_off', channel=8, note=70, velocity=64, time=2),
    Message('control_change', channel=8, control=20, value=113, time=0),
    Message('note_on', channel=8, note=69, velocity=65, time=0),
    Message('control_change', channel=8, control=20, value=112, time=3),
    Message('control_change', channel=8, control=20, value=111, time=3),
    Message('control_change', channel=8, control=20, value=110, time=1),
    Message('note_off', channel=8, note=69, velocity=64, time=0),
    Message('control_change', channel=8, control=20, value=110, time=2),
    Message('note_on', channel=8, note=49, velocity=85, time=2),
    Message('control_change', channel=8, control=20, value=109, time=2),
    Message('note_on', channel=8, note=39, velocity=48, time=0),
    Message('control_change', channel=8, control=20, value=108, time=2),
    Message('note_off', channel=8, note=49, velocity=64, time=3),
    Message('control_change', channel=8, control=20, value=107, time=1),
    Message('note_off', channel=8, note=39, velocity=64, time=0),
    Message('control_change', channel=8, control=20, value=107, time=0),
    Message('control_change', channel=8, control=20, value=106, time=4),
    Message('control_change', channel=8, control=20, value=105, time=1),
    Message('control_change', channel=8, control=20, value=104, time=4),
    Message('control_change', channel=8, control=20, value=103, time=3),
    Message('control_change', channel=8, control=20, value=103, time=1),
    Message('control_change', channel=8, control=20, value=102, time=2),
    Message('control_change', channel=8, control=20, value=101, time=4),
    Message('control_change', channel=8, control=20, value=100, time=4),
    Message('control_change', channel=8, control=20, value=99, time=1),
    Message('control_change', channel=8, control=20, value=99, time=1),
    Message('control_change', channel=8, control=20, value=98, time=4),
    Message('control_change', channel=8, control=20, value=97, time=1),
    Message('control_change', channel=8, control=20, value=96, time=6),
    Message('control_change', channel=8, control=20, value=96, time=0),
    Message('control_change', channel=8, control=20, value=95, time=2),
    Message('control_change', channel=8, control=20, value=94, time=3),
    Message('control_change', channel=8, control=20, value=93, time=3),
    Message('control_change', channel=8, control=20, value=92, time=4),
    Message('control_change', channel=8, control=20, value=91, time=1),
    Message('control_change', channel=8, control=20, value=90, time=4),
    Message('control_change', channel=8, control=20, value=89, time=5),
    Message('control_change', channel=8, control=20, value=88, time=1),
    Message('control_change', channel=8, control=20, value=87, time=1),
    Message('control_change', channel=8, control=20, value=87, time=3),
    Message('control_change', channel=8, control=20, value=86, time=2),
    Message('control_change', channel=8, control=20, value=85, time=4),
    Message('control_change', channel=8, control=20, value=84, time=3),
    Message('control_change', channel=8, control=20, value=84, time=1),
    Message('control_change', channel=8, control=20, value=83, time=2),
    Message('control_change', channel=8, control=20, value=82, time=3),
    Message('control_change', channel=8, control=20, value=81, time=5),
    Message('control_change', channel=8, control=20, value=80, time=1),
    Message('control_change', channel=8, control=20, value=80, time=0),
    Message('control_change', channel=8, control=20, value=79, time=5),
    Message('control_change', channel=8, control=21, value=87, time=1),
    Message('control_change', channel=8, control=21, value=84, time=0),
    Message('control_change', channel=8, control=20, value=78, time=2),
    Message('control_change', channel=8, control=20, value=77, time=3),
    Message('control_change', channel=8, control=20, value=76, time=1),
    Message('control_change', channel=8, control=20, value=76, time=2),
    Message('control_change', channel=8, control=20, value=75, time=1),
    Message('control_change', channel=8, control=20, value=74, time=5),
    Message('control_change', channel=8, control=20, value=73, time=3),
    Message('control_change', channel=8, control=20, value=72, time=1),
    Message('control_change', channel=8, control=20, value=72, time=1),
    Message('control_change', channel=8, control=21, value=84, time=12),
    Message('control_change', channel=8, control=21, value=5, time=0),
    Message('control_change', channel=8, control=20, value=72, time=0),
    Message('control_change', channel=8, control=20, value=30, time=0),
    Message('control_change', channel=8, control=20, value=28, time=2),
    Message('control_change', channel=8, control=21, value=2, time=0),
    Message('control_change', channel=8, control=20, value=25, time=2),
    Message('control_change', channel=8, control=21, value=0, time=0),
    Message('control_change', channel=8, control=20, value=22, time=2),
    Message('control_change', channel=8, control=20, value=21, time=2),
    Message('control_change', channel=8, control=20, value=18, time=2),
    Message('control_change', channel=8, control=20, value=17, time=1),
    Message('control_change', channel=8, control=20, value=16, time=1),
    Message('control_change', channel=8, control=20, value=13, time=2),
    Message('control_change', channel=8, control=20, value=11, time=2),
    Message('control_change', channel=8, control=20, value=9, time=2),
    Message('control_change', channel=8, control=20, value=6, time=5),
    Message('control_change', channel=8, control=20, value=6, time=0),
    Message('control_change', channel=8, control=20, value=4, time=1),
    Message('control_change', channel=8, control=20, value=3, time=1),
    Message('control_change', channel=8, control=20, value=0, time=3),
    Message('note_on', channel=8, note=76, velocity=82, time=22),
    Message('note_on', channel=8, note=82, velocity=127, time=8),
    Message('note_on', channel=8, note=70, velocity=110, time=0),
    Message('note_on', channel=8, note=77, velocity=110, time=0),
    Message('note_off', channel=8, note=76, velocity=64, time=10),
    Message('note_off', channel=8, note=82, velocity=64, time=8),
    Message('note_off', channel=8, note=70, velocity=64, time=1),
    Message('note_off', channel=8, note=77, velocity=64, time=0),
    Message('note_on', channel=8, note=77, velocity=110, time=30),
    Message('note_on', channel=8, note=82, velocity=119, time=0),
    Message('note_on', channel=8, note=70, velocity=110, time=0),
    Message('note_on', channel=8, note=68, velocity=99, time=2),
    Message('note_off', channel=8, note=68, velocity=64, time=3),
    Message('note_on', channel=8, note=67, velocity=82, time=19),
    Message('note_off', channel=8, note=82, velocity=64, time=6),
    Message('note_off', channel=8, note=70, velocity=64, time=0),
    Message('note_off', channel=8, note=77, velocity=64, time=0),
    Message('note_on', channel=8, note=41, velocity=68, time=14),
    Message('note_on', channel=8, note=40, velocity=63, time=0),
    Message('note_on', channel=8, note=45, velocity=54, time=1),
    Message('note_on', channel=8, note=47, velocity=55, time=3),
    Message('note_on', channel=8, note=65, velocity=60, time=1),
    Message('note_on', channel=8, note=43, velocity=30, time=1),
    Message('note_off', channel=8, note=67, velocity=64, time=0),
    Message('note_off', channel=8, note=40, velocity=64, time=0),
    Message('note_off', channel=8, note=45, velocity=64, time=1),
    Message('note_off', channel=8, note=47, velocity=64, time=2),
    Message('note_off', channel=8, note=41, velocity=64, time=7),
    Message('note_off', channel=8, note=65, velocity=64, time=2),
    Message('note_on', channel=8, note=45, velocity=22, time=3),
    Message('note_off', channel=8, note=43, velocity=64, time=2),
    Message('note_on', channel=8, note=47, velocity=49, time=3),
    Message('note_on', channel=8, note=70, velocity=119, time=0),
    Message('note_off', channel=8, note=45, velocity=64, time=3),
    Message('note_on', channel=8, note=48, velocity=45, time=3),
    Message('note_off', channel=8, note=47, velocity=64, time=2),
    Message('note_on', channel=8, note=50, velocity=57, time=1),
    Message('note_off', channel=8, note=48, velocity=64, time=5),
    Message('note_on', channel=8, note=52, velocity=32, time=1),
    Message('note_off', channel=8, note=50, velocity=64, time=2),
    Message('note_off', channel=8, note=70, velocity=64, time=1),
    Message('note_on', channel=8, note=53, velocity=12, time=4),
    Message('note_off', channel=8, note=52, velocity=64, time=1),
    Message('note_on', channel=8, note=73, velocity=102, time=0),
    Message('note_on', channel=8, note=61, velocity=119, time=2),
    Message('note_on', channel=8, note=67, velocity=96, time=2),
    Message('note_off', channel=8, note=53, velocity=64, time=1),
    Message('note_on', channel=8, note=55, velocity=52, time=1),
    Message('note_on', channel=8, note=57, velocity=83, time=1),
    Message('note_off', channel=8, note=55, velocity=64, time=7),
    Message('note_off', channel=8, note=57, velocity=64, time=1),
    Message('note_on', channel=8, note=57, velocity=70, time=5),
    Message('note_on', channel=8, note=59, velocity=63, time=2),
    Message('note_on', channel=8, note=55, velocity=68, time=2),
    Message('note_off', channel=8, note=59, velocity=64, time=1),
    Message('note_off', channel=8, note=67, velocity=64, time=1),
    Message('note_off', channel=8, note=57, velocity=64, time=1),
    Message('note_on', channel=8, note=53, velocity=92, time=1),
    Message('note_off', channel=8, note=55, velocity=64, time=3),
    Message('note_off', channel=8, note=61, velocity=64, time=3),
    Message('note_on', channel=8, note=52, velocity=93, time=0),
    Message('note_off', channel=8, note=53, velocity=64, time=0),
    Message('note_off', channel=8, note=73, velocity=64, time=0),
    Message('note_on', channel=8, note=50, velocity=87, time=1),
    Message('note_off', channel=8, note=50, velocity=64, time=4),
    Message('note_off', channel=8, note=52, velocity=64, time=0),
    Message('note_on', channel=8, note=50, velocity=78, time=2),
    Message('note_off', channel=8, note=50, velocity=64, time=2),
    Message('note_on', channel=8, note=48, velocity=87, time=3),
    Message('note_off', channel=8, note=48, velocity=64, time=1),
    Message('control_change', channel=8, control=21, value=0, time=79),
    Message('control_change', channel=8, control=21, value=2, time=0),
    Message('control_change', channel=8, control=21, value=9, time=8),
    Message('control_change', channel=8, control=21, value=9, time=1),
    Message('control_change', channel=8, control=21, value=10, time=1),
    Message('control_change', channel=8, control=21, value=12, time=2),
    Message('control_change', channel=8, control=21, value=13, time=3),
    Message('control_change', channel=8, control=21, value=14, time=1),
    Message('control_change', channel=8, control=21, value=17, time=2),
    Message('control_change', channel=8, control=21, value=17, time=3),
    Message('control_change', channel=8, control=21, value=18, time=1),
    Message('note_on', channel=8, note=76, velocity=89, time=0),
    Message('note_on', channel=8, note=70, velocity=102, time=0),
    Message('control_change', channel=8, control=21, value=19, time=1),
    Message('note_on', channel=8, note=74, velocity=85, time=0),
    Message('note_on', channel=8, note=65, velocity=61, time=1),
    Message('control_change', channel=8, control=21, value=21, time=1),
    Message('control_change', channel=8, control=21, value=22, time=2),
    Message('note_off', channel=8, note=74, velocity=64, time=0),
    Message('note_off', channel=8, note=65, velocity=64, time=1),
    Message('note_off', channel=8, note=70, velocity=64, time=0),
    Message('note_off', channel=8, note=76, velocity=64, time=2),
    Message('control_change', channel=8, control=21, value=23, time=1),
    Message('control_change', channel=8, control=21, value=23, time=2),
    Message('control_change', channel=8, control=21, value=24, time=3),
    Message('control_change', channel=8, control=21, value=25, time=5),
    Message('control_change', channel=8, control=21, value=25, time=4),
    Message('control_change', channel=8, control=21, value=26, time=0),
    Message('control_change', channel=8, control=21, value=27, time=2),
    Message('control_change', channel=8, control=21, value=29, time=3),
    Message('control_change', channel=8, control=21, value=30, time=2),
    Message('control_change', channel=8, control=21, value=33, time=2),
    Message('control_change', channel=8, control=21, value=33, time=3),
    Message('control_change', channel=8, control=21, value=34, time=0),
    Message('control_change', channel=8, control=21, value=36, time=2),
    Message('control_change', channel=8, control=21, value=37, time=3),
    Message('note_on', channel=8, note=82, velocity=107, time=6),
    Message('note_on', channel=8, note=68, velocity=102, time=2),
    Message('note_on', channel=8, note=70, velocity=102, time=0),
    Message('note_on', channel=8, note=76, velocity=87, time=1),
    Message('note_off', channel=8, note=76, velocity=64, time=5),
    Message('note_off', channel=8, note=68, velocity=64, time=2),
    Message('note_off', channel=8, note=70, velocity=64, time=0),
    Message('note_on', channel=8, note=70, velocity=28, time=10),
    Message('note_off', channel=8, note=82, velocity=64, time=2),
    Message('control_change', channel=8, control=21, value=37, time=9),
    Message('control_change', channel=8, control=21, value=39, time=0),
    Message('note_off', channel=8, note=70, velocity=64, time=1),
    Message('control_change', channel=8, control=21, value=40, time=1),
    Message('control_change', channel=8, control=21, value=43, time=2),
    Message('control_change', channel=8, control=21, value=45, time=2),
    Message('control_change', channel=8, control=21, value=48, time=1),
    Message('control_change', channel=8, control=21, value=52, time=2),
    Message('control_change', channel=8, control=21, value=55, time=3),
    Message('control_change', channel=8, control=21, value=57, time=2),
    Message('control_change', channel=8, control=21, value=58, time=2),
    Message('control_change', channel=8, control=21, value=57, time=2),
    Message('note_on', channel=8, note=70, velocity=102, time=0),
    Message('note_on', channel=8, note=82, velocity=119, time=2),
    Message('note_on', channel=8, note=80, velocity=96, time=2),
    Message('note_off', channel=8, note=80, velocity=64, time=3),
    Message('control_change', channel=8, control=21, value=54, time=1),
    Message('control_change', channel=8, control=21, value=52, time=3),
    Message('control_change', channel=8, control=21, value=50, time=1),
    Message('control_change', channel=8, control=21, value=47, time=1),
    Message('note_off', channel=8, note=82, velocity=64, time=0),
    Message('control_change', channel=8, control=21, value=44, time=3),
    Message('control_change', channel=8, control=21, value=37, time=3),
    Message('control_change', channel=8, control=21, value=31, time=2),
    Message('note_off', channel=8, note=70, velocity=64, time=0),
    Message('control_change', channel=8, control=21, value=29, time=2),
    Message('control_change', channel=8, control=21, value=27, time=1),
    Message('control_change', channel=8, control=21, value=22, time=2),
    Message('control_change', channel=8, control=21, value=18, time=1),
    Message('control_change', channel=8, control=21, value=15, time=3),
    Message('control_change', channel=8, control=21, value=17, time=6),
    Message('control_change', channel=8, control=21, value=18, time=0),
    Message('control_change', channel=8, control=21, value=24, time=3),
    Message('control_change', channel=8, control=21, value=29, time=2),
    Message('control_change', channel=8, control=21, value=40, time=2),
    Message('control_change', channel=8, control=21, value=50, time=2),
    Message('control_change', channel=8, control=21, value=53, time=3),
    Message('control_change', channel=8, control=21, value=60, time=2),
    Message('note_on', channel=8, note=82, velocity=113, time=1),
    Message('note_on', channel=8, note=70, velocity=107, time=0),
    Message('control_change', channel=8, control=21, value=67, time=1),
    Message('control_change', channel=8, control=21, value=69, time=3),
    Message('control_change', channel=8, control=21, value=64, time=5),
    Message('control_change', channel=8, control=21, value=61, time=3),
    Message('control_change', channel=8, control=21, value=57, time=4),
    Message('control_change', channel=8, control=21, value=47, time=1),
    Message('control_change', channel=8, control=21, value=44, time=2),
    Message('control_change', channel=8, control=21, value=39, time=2),
    Message('control_change', channel=8, control=21, value=36, time=1),
    Message('control_change', channel=8, control=21, value=29, time=1),
    Message('note_on', channel=8, note=79, velocity=80, time=2),
    Message('control_change', channel=8, control=21, value=27, time=1),
    Message('note_off', channel=8, note=82, velocity=64, time=4),
    Message('control_change', channel=8, control=21, value=29, time=0),
    Message('control_change', channel=8, control=21, value=37, time=2),
    Message('control_change', channel=8, control=21, value=37, time=1),
    Message('note_off', channel=8, note=70, velocity=64, time=1),
    Message('control_change', channel=8, control=21, value=46, time=1),
    Message('control_change', channel=8, control=21, value=54, time=2),
    Message('note_off', channel=8, note=79, velocity=64, time=2),
    Message('control_change', channel=8, control=21, value=57, time=1),
    Message('control_change', channel=8, control=21, value=61, time=2),
    Message('control_change', channel=8, control=21, value=62, time=2),
    Message('control_change', channel=8, control=21, value=61, time=1),
    Message('control_change', channel=8, control=21, value=60, time=3),
    Message('note_on', channel=8, note=77, velocity=68, time=0),
    Message('control_change', channel=8, control=21, value=49, time=3),
    Message('control_change', channel=8, control=21, value=43, time=1),
    Message('control_change', channel=8, control=21, value=25, time=3),
    Message('control_change', channel=8, control=21, value=19, time=2),
    Message('control_change', channel=8, control=21, value=18, time=0),
    Message('control_change', channel=8, control=21, value=12, time=2),
    Message('note_off', channel=8, note=77, velocity=64, time=1),
    Message('control_change', channel=8, control=21, value=6, time=1),
    Message('control_change', channel=8, control=21, value=4, time=3),
    Message('control_change', channel=8, control=21, value=6, time=5),
    Message('note_on', channel=8, note=70, velocity=99, time=1),
    Message('note_on', channel=8, note=82, velocity=113, time=0),
    Message('control_change', channel=8, control=21, value=8, time=1),
    Message('control_change', channel=8, control=21, value=9, time=1),
    Message('control_change', channel=8, control=21, value=14, time=4),
    Message('control_change', channel=8, control=21, value=18, time=1),
    Message('control_change', channel=8, control=21, value=20, time=2),
    Message('control_change', channel=8, control=21, value=20, time=2),
    Message('control_change', channel=8, control=21, value=21, time=2),
    Message('control_change', channel=8, control=21, value=14, time=5),
    Message('control_change', channel=8, control=21, value=11, time=2),
    Message('control_change', channel=8, control=21, value=3, time=3),
    Message('control_change', channel=8, control=21, value=0, time=2),
    Message('note_off', channel=8, note=82, velocity=64, time=1),
    Message('note_on', channel=8, note=79, velocity=74, time=3),
    Message('note_off', channel=8, note=70, velocity=64, time=2),
    Message('control_change', channel=8, control=21, value=0, time=25),
    Message('control_change', channel=8, control=21, value=10, time=0),
    Message('control_change', channel=8, control=21, value=12, time=3),
    Message('control_change', channel=8, control=21, value=15, time=2),
    Message('note_off', channel=8, note=79, velocity=64, time=0),
    Message('control_change', channel=8, control=21, value=29, time=0),
    Message('control_change', channel=8, control=21, value=31, time=2),
    Message('control_change', channel=8, control=21, value=33, time=3),
    Message('note_on', channel=8, note=78, velocity=39, time=2),
    Message('control_change', channel=8, control=21, value=27, time=1),
    Message('control_change', channel=8, control=21, value=20, time=2),
    Message('control_change', channel=8, control=21, value=14, time=1),
    Message('note_on', channel=8, note=75, velocity=22, time=1),
    Message('control_change', channel=8, control=21, value=8, time=1),
    Message('note_on', channel=8, note=73, velocity=75, time=1),
    Message('note_off', channel=8, note=78, velocity=64, time=1),
    Message('control_change', channel=8, control=21, value=0, time=0),
    Message('note_off', channel=8, note=75, velocity=64, time=6),
    Message('note_on', channel=8, note=70, velocity=73, time=4),
    Message('note_off', channel=8, note=73, velocity=64, time=1),
    Message('note_off', channel=8, note=70, velocity=64, time=6),
    Message('note_on', channel=8, note=68, velocity=36, time=3),
    Message('note_on', channel=8, note=66, velocity=48, time=2),
    Message('note_off', channel=8, note=68, velocity=64, time=1),
    Message('note_on', channel=8, note=63, velocity=79, time=2),
    Message('note_off', channel=8, note=66, velocity=64, time=2),
    Message('note_off', channel=8, note=63, velocity=64, time=11),
    Message('note_on', channel=8, note=46, velocity=64, time=99),
    Message('note_off', channel=8, note=46, velocity=64, time=4),
    Message('note_on', channel=8, note=34, velocity=107, time=20),
    Message('note_on', channel=8, note=38, velocity=6, time=17),
    Message('note_on', channel=8, note=40, velocity=52, time=2),
    Message('note_on', channel=8, note=46, velocity=85, time=4),
    Message('note_on', channel=8, note=45, velocity=73, time=0),
    Message('note_on', channel=8, note=41, velocity=60, time=1),
    Message('note_on', channel=8, note=43, velocity=55, time=0),
    Message('note_off', channel=8, note=34, velocity=64, time=2),
    Message('note_on', channel=8, note=82, velocity=113, time=1),
    Message('note_on', channel=8, note=70, velocity=107, time=1),
    Message('note_on', channel=8, note=47, velocity=64, time=0),
    Message('note_off', channel=8, note=38, velocity=64, time=1),
    Message('note_off', channel=8, note=46, velocity=64, time=0),
    Message('note_on', channel=8, note=37, velocity=22, time=0),
    Message('note_on', channel=8, note=80, velocity=90, time=1),
    Message('note_off', channel=8, note=80, velocity=64, time=2),
    Message('note_off', channel=8, note=37, velocity=64, time=2),
    Message('note_off', channel=8, note=40, velocity=64, time=1),
    Message('note_on', channel=8, note=48, velocity=58, time=1),
    Message('note_off', channel=8, note=41, velocity=64, time=5),
    Message('note_off', channel=8, note=70, velocity=64, time=2),
    Message('note_on', channel=8, note=50, velocity=46, time=1),
    Message('note_off', channel=8, note=82, velocity=64, time=1),
    Message('note_off', channel=8, note=43, velocity=64, time=2),
    Message('note_off', channel=8, note=45, velocity=64, time=5),
    Message('note_off', channel=8, note=47, velocity=64, time=7),
    Message('note_on', channel=8, note=52, velocity=12, time=0),
    Message('note_on', channel=8, note=53, velocity=52, time=0),
    Message('note_off', channel=8, note=48, velocity=64, time=5),
    Message('note_on', channel=8, note=55, velocity=17, time=7),
    Message('note_on', channel=8, note=70, velocity=107, time=4),
    Message('note_on', channel=8, note=82, velocity=113, time=0),
    Message('note_on', channel=8, note=78, velocity=88, time=2),
    Message('note_off', channel=8, note=78, velocity=64, time=3),
    Message('note_off', channel=8, note=50, velocity=64, time=1),
    Message('note_off', channel=8, note=52, velocity=64, time=9),
    Message('note_on', channel=8, note=61, velocity=64, time=1),
    Message('note_off', channel=8, note=53, velocity=64, time=7),
    Message('note_off', channel=8, note=55, velocity=64, time=0),
    Message('note_off', channel=8, note=61, velocity=64, time=3),
    Message('note_off', channel=8, note=82, velocity=64, time=0),
    Message('note_off', channel=8, note=70, velocity=64, time=7),
    Message('note_on', channel=8, note=60, velocity=48, time=12),
    Message('note_off', channel=8, note=60, velocity=64, time=22),
    Message('note_on', channel=8, note=58, velocity=92, time=2),
    Message('note_on', channel=8, note=54, velocity=107, time=1),
    Message('note_on', channel=8, note=60, velocity=74, time=0),
    Message('note_on', channel=8, note=73, velocity=92, time=0),
    Message('note_on', channel=8, note=82, velocity=96, time=0),
    Message('note_on', channel=8, note=56, velocity=85, time=1),
    Message('note_on', channel=8, note=75, velocity=102, time=0),
    Message('note_off', channel=8, note=56, velocity=64, time=3),
    Message('note_off', channel=8, note=75, velocity=64, time=2),
    Message('note_off', channel=8, note=58, velocity=64, time=1),
    Message('note_off', channel=8, note=60, velocity=64, time=0),
    Message('note_off', channel=8, note=73, velocity=64, time=0),
    Message('note_off', channel=8, note=82, velocity=64, time=3),
    Message('note_off', channel=8, note=54, velocity=64, time=0),
    Message('note_on', channel=8, note=60, velocity=110, time=37),
    Message('note_on', channel=8, note=58, velocity=113, time=0),
    Message('note_on', channel=8, note=54, velocity=107, time=1),
    Message('note_on', channel=8, note=80, velocity=113, time=0),
    Message('note_on', channel=8, note=84, velocity=110, time=0),
    Message('note_on', channel=8, note=56, velocity=96, time=2),
    Message('note_on', channel=8, note=75, velocity=113, time=0),
    Message('note_off', channel=8, note=56, velocity=64, time=1),
    Message('control_change', channel=8, control=64, value=0, time=0),
    Message('control_change', channel=8, control=64, value=85, time=0),
    Message('control_change', channel=8, control=64, value=127, time=2),
    Message('note_off', channel=8, note=60, velocity=64, time=6),
    Message('note_off', channel=8, note=75, velocity=64, time=1),
    Message('note_off', channel=8, note=54, velocity=64, time=1),
    Message('note_off', channel=8, note=58, velocity=64, time=1),
    Message('note_off', channel=8, note=80, velocity=64, time=1),
    Message('note_off', channel=8, note=84, velocity=64, time=1),
    Message('control_change', channel=8, control=64, value=127, time=54),
    Message('control_change', channel=8, control=64, value=85, time=0),
    Message('control_change', channel=8, control=64, value=0, time=2),
    Message('control_change', channel=8, control=64, value=0, time=18),
    Message('control_change', channel=8, control=64, value=33, time=0),
    Message('control_change', channel=8, control=64, value=127, time=3),
    Message('note_on', channel=8, note=61, velocity=90, time=0),
    Message('note_on', channel=8, note=53, velocity=92, time=0),
    Message('note_on', channel=8, note=59, velocity=92, time=1),
    Message('note_on', channel=8, note=91, velocity=119, time=0),
    Message('note_on', channel=8, note=81, velocity=119, time=0),
    Message('note_on', channel=8, note=64, velocity=102, time=0),
    Message('note_on', channel=8, note=85, velocity=127, time=1),
    Message('note_on', channel=8, note=89, velocity=100, time=1),
    Message('note_off', channel=8, note=89, velocity=64, time=2),
    Message('note_off', channel=8, note=64, velocity=64, time=5),
    Message('note_off', channel=8, note=91, velocity=64, time=2),
    Message('note_off', channel=8, note=61, velocity=64, time=0),
    Message('note_off', channel=8, note=59, velocity=64, time=1),
    Message('note_off', channel=8, note=85, velocity=64, time=1),
    Message('note_off', channel=8, note=81, velocity=64, time=1),
    Message('note_off', channel=8, note=53, velocity=64, time=2),
    Message('control_change', channel=8, control=20, value=0, time=70),
    Message('control_change', channel=8, control=20, value=2, time=0),
    Message('control_change', channel=8, control=20, value=2, time=12),
    Message('control_change', channel=8, control=20, value=10, time=0),
    Message('control_change', channel=8, control=21, value=0, time=4),
    Message('control_change', channel=8, control=21, value=3, time=0),
    Message('control_change', channel=8, control=21, value=8, time=1),
    Message('control_change', channel=8, control=21, value=18, time=2),
    Message('control_change', channel=8, control=21, value=25, time=2),
    Message('control_change', channel=8, control=21, value=28, time=2),
    Message('control_change', channel=8, control=21, value=32, time=2),
    Message('control_change', channel=8, control=21, value=33, time=0),
    Message('control_change', channel=8, control=21, value=41, time=2),
    Message('control_change', channel=8, control=20, value=10, time=2),
    Message('control_change', channel=8, control=20, value=11, time=0),
    Message('control_change', channel=8, control=21, value=46, time=1),
    Message('control_change', channel=8, control=21, value=53, time=1),
    Message('control_change', channel=8, control=21, value=73, time=2),
    Message('control_change', channel=8, control=21, value=80, time=2),
    Message('control_change', channel=8, control=21, value=82, time=2),
    Message('control_change', channel=8, control=21, value=89, time=2),
    Message('control_change', channel=8, control=21, value=90, time=2),
    Message('control_change', channel=8, control=21, value=92, time=1),
    Message('control_change', channel=8, control=21, value=94, time=2),
    Message('control_change', channel=8, control=20, value=11, time=14),
    Message('control_change', channel=8, control=20, value=13, time=0),
    Message('control_change', channel=8, control=20, value=14, time=1),
    Message('control_change', channel=8, control=20, value=14, time=2),
    Message('control_change', channel=8, control=20, value=15, time=0),
    Message('control_change', channel=8, control=21, value=94, time=3),
    Message('control_change', channel=8, control=21, value=97, time=0),
    Message('control_change', channel=8, control=20, value=15, time=46),
    Message('control_change', channel=8, control=20, value=117, time=0),
    Message('control_change', channel=8, control=21, value=97, time=0),
    Message('control_change', channel=8, control=21, value=127, time=0),
    Message('control_change', channel=8, control=21, value=124, time=4),
    Message('control_change', channel=8, control=21, value=121, time=2),
    Message('control_change', channel=8, control=21, value=119, time=2),
    Message('control_change', channel=8, control=20, value=117, time=18),
    Message('control_change', channel=8, control=20, value=119, time=0),
    Message('control_change', channel=8, control=20, value=121, time=2),
    Message('control_change', channel=8, control=20, value=123, time=2),
    Message('control_change', channel=8, control=20, value=124, time=3),
    Message('control_change', channel=8, control=20, value=124, time=2),
    Message('control_change', channel=8, control=20, value=125, time=2),
    Message('control_change', channel=8, control=64, value=127, time=19),
    Message('control_change', channel=8, control=64, value=88, time=0),
    Message('control_change', channel=8, control=64, value=43, time=1),
    Message('control_change', channel=8, control=64, value=12, time=2),
    Message('control_change', channel=8, control=64, value=0, time=0),
    Message('control_change', channel=8, control=20, value=125, time=23),
    Message('control_change', channel=8, control=20, value=103, time=0),
    Message('control_change', channel=8, control=20, value=102, time=1),
    Message('control_change', channel=8, control=21, value=119, time=0),
    Message('control_change', channel=8, control=21, value=3, time=0),
    Message('control_change', channel=8, control=20, value=100, time=0),
    Message('control_change', channel=8, control=20, value=96, time=1),
    Message('control_change', channel=8, control=20, value=95, time=3),
    Message('control_change', channel=8, control=20, value=91, time=2),
    Message('control_change', channel=8, control=20, value=89, time=2),
    Message('control_change', channel=8, control=21, value=1, time=0),
    Message('control_change', channel=8, control=20, value=83, time=2),
    Message('control_change', channel=8, control=21, value=0, time=0),
    Message('control_change', channel=8, control=20, value=80, time=2),
    Message('control_change', channel=8, control=20, value=80, time=0),
    Message('control_change', channel=8, control=20, value=76, time=2),
    Message('control_change', channel=8, control=20, value=70, time=2),
    Message('control_change', channel=8, control=20, value=69, time=2),
    Message('control_change', channel=8, control=20, value=65, time=2),
    Message('control_change', channel=8, control=20, value=63, time=4),
    Message('control_change', channel=8, control=21, value=0, time=1),
    Message('control_change', channel=8, control=21, value=2, time=0),
    Message('control_change', channel=8, control=20, value=63, time=0),
    Message('control_change', channel=8, control=20, value=55, time=2),
    Message('control_change', channel=8, control=20, value=46, time=1),
    Message('control_change', channel=8, control=21, value=0, time=0),
    Message('control_change', channel=8, control=20, value=33, time=1),
    Message('control_change', channel=8, control=20, value=21, time=5),
    Message('control_change', channel=8, control=20, value=16, time=2),
    Message('control_change', channel=8, control=20, value=14, time=0),
    Message('control_change', channel=8, control=20, value=13, time=4),
    Message('control_change', channel=8, control=20, value=12, time=8),
    Message('control_change', channel=8, control=20, value=12, time=3),
    Message('control_change', channel=8, control=20, value=11, time=7),
    Message('control_change', channel=8, control=20, value=8, time=2),
    Message('control_change', channel=8, control=20, value=7, time=0),
    Message('control_change', channel=8, control=20, value=5, time=3),
    Message('control_change', channel=8, control=20, value=2, time=2),
    Message('control_change', channel=8, control=20, value=0, time=2),
    MetaMessage('end_of_track', time=0)]),
  MidiTrack([
    MetaMessage('track_name', name='CelloG Legato', time=0),
    MetaMessage('channel_prefix', channel=9, time=0),
    Message('program_change', channel=9, program=7, time=0),
    Message('control_change', channel=9, control=0, value=0, time=0),
    Message('control_change', channel=9, control=32, value=1, time=0),
    Message('control_change', channel=9, control=7, value=127, time=0),
    Message('control_change', channel=9, control=10, value=64, time=0),
    Message('control_change', channel=9, control=91, value=0, time=0),
    Message('control_change', channel=9, control=93, value=0, time=0),
    Message('control_change', channel=9, control=11, value=127, time=24884),
    Message('control_change', channel=9, control=11, value=116, time=0),
    Message('note_on', channel=9, note=33, velocity=127, time=3),
    Message('note_off', channel=9, note=33, velocity=64, time=15),
    Message('note_on', channel=9, note=40, velocity=107, time=31),
    Message('note_off', channel=9, note=40, velocity=64, time=11),
    Message('note_on', channel=9, note=57, velocity=119, time=34),
    Message('note_on', channel=9, note=59, velocity=117, time=0),
    Message('note_on', channel=9, note=64, velocity=122, time=0),
    Message('note_on', channel=9, note=45, velocity=117, time=2),
    Message('note_off', channel=9, note=57, velocity=64, time=9),
    Message('note_off', channel=9, note=59, velocity=64, time=1),
    Message('note_off', channel=9, note=64, velocity=64, time=2),
    Message('note_off', channel=9, note=45, velocity=64, time=2),
    Message('note_on', channel=9, note=49, velocity=91, time=29),
    Message('note_on', channel=9, note=52, velocity=96, time=3),
    Message('note_off', channel=9, note=49, velocity=64, time=8),
    Message('note_off', channel=9, note=52, velocity=64, time=2),
    Message('note_on', channel=9, note=47, velocity=110, time=37),
    Message('note_on', channel=9, note=62, velocity=117, time=0),
    Message('note_on', channel=9, note=57, velocity=114, time=0),
    Message('note_on', channel=9, note=55, velocity=114, time=1),
    Message('note_off', channel=9, note=57, velocity=64, time=11),
    Message('note_off', channel=9, note=62, velocity=64, time=2),
    Message('note_off', channel=9, note=55, velocity=64, time=4),
    Message('note_off', channel=9, note=47, velocity=64, time=0),
    Message('note_on', channel=9, note=55, velocity=76, time=28),
    Message('note_on', channel=9, note=49, velocity=67, time=1),
    Message('note_off', channel=9, note=55, velocity=64, time=14),
    Message('note_off', channel=9, note=49, velocity=64, time=2),
    Message('note_on', channel=9, note=66, velocity=115, time=31),
    Message('note_on', channel=9, note=50, velocity=99, time=1),
    Message('note_on', channel=9, note=57, velocity=114, time=0),
    Message('note_on', channel=9, note=55, velocity=112, time=1),
    Message('note_off', channel=9, note=55, velocity=64, time=10),
    Message('note_off', channel=9, note=57, velocity=64, time=0),
    Message('note_off', channel=9, note=66, velocity=64, time=6),
    Message('note_off', channel=9, note=50, velocity=64, time=2),
    Message('note_on', channel=9, note=47, velocity=77, time=30),
    Message('note_on', channel=9, note=55, velocity=65, time=3),
    Message('note_off', channel=9, note=55, velocity=64, time=8),
    Message('note_off', channel=9, note=47, velocity=64, time=7),
    Message('note_on', channel=9, note=57, velocity=96, time=29),
    Message('note_on', channel=9, note=52, velocity=101, time=1),
    Message('note_on', channel=9, note=59, velocity=103, time=0),
    Message('note_on', channel=9, note=64, velocity=97, time=0),
    Message('note_off', channel=9, note=57, velocity=64, time=11),
    Message('note_off', channel=9, note=59, velocity=64, time=2),
    Message('note_off', channel=9, note=64, velocity=64, time=2),
    Message('note_off', channel=9, note=52, velocity=64, time=7),
    Message('note_on', channel=9, note=49, velocity=76, time=24),
    Message('note_off', channel=9, note=49, velocity=64, time=14),
    Message('note_on', channel=9, note=61, velocity=91, time=35),
    Message('note_on', channel=9, note=45, velocity=103, time=0),
    Message('note_on', channel=9, note=57, velocity=93, time=0),
    Message('note_on', channel=9, note=52, velocity=99, time=1),
    Message('note_on', channel=9, note=59, velocity=101, time=0),
    Message('note_off', channel=9, note=57, velocity=64, time=9),
    Message('note_off', channel=9, note=59, velocity=64, time=2),
    Message('note_off', channel=9, note=61, velocity=64, time=0),
    Message('note_off', channel=9, note=52, velocity=64, time=2),
    Message('note_off', channel=9, note=45, velocity=64, time=10),
    Message('note_on', channel=9, note=47, velocity=99, time=23),
    Message('note_on', channel=9, note=52, velocity=84, time=1),
    Message('note_off', channel=9, note=52, velocity=64, time=13),
    Message('note_off', channel=9, note=47, velocity=64, time=3),
    Message('note_on', channel=9, note=50, velocity=107, time=31),
    Message('note_on', channel=9, note=59, velocity=107, time=0),
    Message('note_on', channel=9, note=55, velocity=101, time=1),
    Message('note_on', channel=9, note=52, velocity=117, time=0),
    Message('note_on', channel=9, note=57, velocity=112, time=0),
    Message('note_off', channel=9, note=55, velocity=64, time=10),
    Message('note_off', channel=9, note=57, velocity=64, time=0),
    Message('note_off', channel=9, note=52, velocity=64, time=1),
    Message('note_off', channel=9, note=59, velocity=64, time=0),
    Message('note_off', channel=9, note=50, velocity=64, time=6),
    Message('note_on', channel=9, note=49, velocity=90, time=28),
    Message('note_off', channel=9, note=49, velocity=64, time=15),
    Message('note_on', channel=9, note=47, velocity=112, time=31),
    Message('note_off', channel=9, note=47, velocity=64, time=14),
    Message('note_on', channel=9, note=45, velocity=103, time=7),
    Message('note_off', channel=9, note=45, velocity=64, time=17),
    Message('note_on', channel=9, note=43, velocity=96, time=10),
    Message('note_off', channel=9, note=43, velocity=64, time=11),
    Message('note_on', channel=9, note=33, velocity=127, time=37),
    Message('note_off', channel=9, note=33, velocity=64, time=12),
    Message('note_on', channel=9, note=52, velocity=90, time=36),
    Message('note_on', channel=9, note=40, velocity=80, time=1),
    Message('note_off', channel=9, note=52, velocity=64, time=11),
    Message('note_off', channel=9, note=40, velocity=64, time=1),
    Message('note_on', channel=9, note=47, velocity=96, time=13),
    Message('note_off', channel=9, note=47, velocity=64, time=9),
    Message('note_on', channel=9, note=49, velocity=126, time=12),
    Message('note_on', channel=9, note=59, velocity=107, time=1),
    Message('note_on', channel=9, note=57, velocity=105, time=0),
    Message('note_on', channel=9, note=64, velocity=117, time=0),
    Message('note_off', channel=9, note=49, velocity=64, time=9),
    Message('note_off', channel=9, note=57, velocity=64, time=3),
    Message('note_off', channel=9, note=59, velocity=64, time=2),
    Message('note_off', channel=9, note=64, velocity=64, time=3),
    Message('note_on', channel=9, note=45, velocity=105, time=31),
    Message('note_on', channel=9, note=52, velocity=81, time=1),
    Message('note_off', channel=9, note=52, velocity=64, time=11),
    Message('note_off', channel=9, note=45, velocity=64, time=6),
    Message('note_on', channel=9, note=62, velocity=119, time=30),
    Message('note_on', channel=9, note=57, velocity=114, time=1),
    Message('note_on', channel=9, note=55, velocity=114, time=0),
    Message('note_on', channel=9, note=47, velocity=107, time=0),
    Message('note_off', channel=9, note=57, velocity=64, time=12),
    Message('note_off', channel=9, note=62, velocity=64, time=3),
    Message('note_off', channel=9, note=55, velocity=64, time=3),
    Message('note_off', channel=9, note=47, velocity=64, time=12),
    Message('note_on', channel=9, note=49, velocity=66, time=19),
    Message('note_on', channel=9, note=55, velocity=65, time=0),
    Message('note_off', channel=9, note=49, velocity=64, time=14),
    Message('note_off', channel=9, note=55, velocity=64, time=4),
    Message('note_on', channel=9, note=50, velocity=99, time=30),
    Message('note_on', channel=9, note=66, velocity=104, time=0),
    Message('note_on', channel=9, note=55, velocity=110, time=0),
    Message('note_on', channel=9, note=57, velocity=107, time=0),
    Message('note_off', channel=9, note=55, velocity=64, time=14),
    Message('note_off', channel=9, note=57, velocity=64, time=0),
    Message('note_off', channel=9, note=50, velocity=64, time=3),
    Message('note_off', channel=9, note=66, velocity=64, time=0),
    Message('note_on', channel=9, note=54, velocity=77, time=31),
    Message('note_on', channel=9, note=55, velocity=79, time=0),
    Message('note_off', channel=9, note=55, velocity=64, time=11),
    Message('note_off', channel=9, note=54, velocity=64, time=5),
    Message('note_on', channel=9, note=52, velocity=119, time=33),
    Message('note_on', channel=9, note=64, velocity=112, time=1),
    Message('note_on', channel=9, note=59, velocity=114, time=0),
    Message('note_on', channel=9, note=57, velocity=114, time=0),
    Message('note_off', channel=9, note=57, velocity=64, time=10),
    Message('note_off', channel=9, note=59, velocity=64, time=2),
    Message('note_off', channel=9, note=52, velocity=64, time=3),
    Message('note_off', channel=9, note=64, velocity=64, time=0),
    Message('note_on', channel=9, note=49, velocity=81, time=29),
    Message('note_off', channel=9, note=49, velocity=64, time=14),
    Message('note_on', channel=9, note=45, velocity=84, time=36),
    Message('note_on', channel=9, note=61, velocity=96, time=1),
    Message('note_on', channel=9, note=52, velocity=112, time=1),
    Message('note_on', channel=9, note=59, velocity=105, time=3),
    Message('note_off', channel=9, note=59, velocity=64, time=11),
    Message('note_off', channel=9, note=61, velocity=64, time=0),
    Message('note_off', channel=9, note=52, velocity=64, time=2),
    Message('note_off', channel=9, note=45, velocity=64, time=11),
    Message('note_on', channel=9, note=49, velocity=81, time=24),
    Message('note_off', channel=9, note=49, velocity=64, time=8),
    Message('note_on', channel=9, note=57, velocity=101, time=40),
    Message('note_on', channel=9, note=59, velocity=105, time=0),
    Message('note_on', channel=9, note=47, velocity=121, time=0),
    Message('note_on', channel=9, note=55, velocity=112, time=0),
    Message('note_off', channel=9, note=57, velocity=64, time=11),
    Message('note_off', channel=9, note=59, velocity=64, time=1),
    Message('note_off', channel=9, note=55, velocity=64, time=1),
    Message('note_off', channel=9, note=47, velocity=64, time=4),
    Message('note_on', channel=9, note=49, velocity=81, time=29),
    Message('note_off', channel=9, note=49, velocity=64, time=14),
    Message('note_on', channel=9, note=55, velocity=103, time=9),
    Message('note_off', channel=9, note=55, velocity=64, time=11),
    Message('note_on', channel=9, note=50, velocity=127, time=12),
    Message('note_off', channel=9, note=50, velocity=64, time=14),
    Message('note_on', channel=9, note=52, velocity=121, time=10),
    Message('note_off', channel=9, note=52, velocity=64, time=11),
    Message('note_on', channel=9, note=54, velocity=127, time=12),
    Message('note_off', channel=9, note=54, velocity=64, time=12),
    Message('note_on', channel=9, note=42, velocity=127, time=36),
    Message('note_on', channel=9, note=49, velocity=95, time=3),
    Message('note_on', channel=9, note=58, velocity=95, time=0),
    Message('note_on', channel=9, note=61, velocity=106, time=1),
    Message('note_on', channel=9, note=66, velocity=100, time=0),
    Message('note_off', channel=9, note=61, velocity=64, time=9),
    Message('note_off', channel=9, note=58, velocity=64, time=2),
    Message('note_off', channel=9, note=66, velocity=64, time=0),
    Message('note_off', channel=9, note=49, velocity=64, time=2),
    Message('note_off', channel=9, note=42, velocity=64, time=1),
    Message('note_on', channel=9, note=49, velocity=114, time=32),
    Message('control_change', channel=9, control=11, value=116, time=16),
    Message('control_change', channel=9, control=11, value=116, time=0),
    Message('note_off', channel=9, note=49, velocity=64, time=0),
    Message('control_change', channel=9, control=11, value=115, time=1),
    Message('control_change', channel=9, control=11, value=115, time=23),
    Message('control_change', channel=9, control=11, value=114, time=0),
    Message('note_on', channel=9, note=61, velocity=123, time=8),
    Message('note_on', channel=9, note=58, velocity=117, time=0),
    Message('note_on', channel=9, note=66, velocity=127, time=0),
    Message('note_on', channel=9, note=54, velocity=117, time=0),
    Message('note_on', channel=9, note=63, velocity=109, time=0),
    Message('note_off', channel=9, note=63, velocity=64, time=3),
    Message('note_off', channel=9, note=58, velocity=64, time=7),
    Message('note_off', channel=9, note=61, velocity=64, time=2),
    Message('note_off', channel=9, note=54, velocity=64, time=2),
    Message('note_off', channel=9, note=66, velocity=64, time=1),
    Message('control_change', channel=9, control=11, value=114, time=2),
    Message('control_change', channel=9, control=11, value=113, time=0),
    Message('control_change', channel=9, control=11, value=113, time=25),
    Message('control_change', channel=9, control=11, value=112, time=0),
    Message('note_on', channel=9, note=54, velocity=72, time=6),
    Message('note_off', channel=9, note=54, velocity=64, time=15),
    Message('control_change', channel=9, control=11, value=112, time=4),
    Message('control_change', channel=9, control=11, value=111, time=0),
    Message('control_change', channel=9, control=11, value=111, time=25),
    Message('control_change', channel=9, control=11, value=110, time=0),
    Message('note_on', channel=9, note=52, velocity=106, time=4),
    Message('note_on', channel=9, note=63, velocity=102, time=0),
    Message('note_on', channel=9, note=59, velocity=114, time=0),
    Message('note_on', channel=9, note=64, velocity=112, time=0),
    Message('note_off', channel=9, note=59, velocity=64, time=15),
    Message('note_off', channel=9, note=63, velocity=64, time=2),
    Message('note_off', channel=9, note=64, velocity=64, time=1),
    Message('note_off', channel=9, note=52, velocity=64, time=1),
    Message('control_change', channel=9, control=11, value=110, time=2),
    Message('control_change', channel=9, control=11, value=109, time=0),
    Message('control_change', channel=9, control=11, value=109, time=25),
    Message('control_change', channel=9, control=11, value=108, time=0),
    Message('note_on', channel=9, note=51, velocity=81, time=2),
    Message('note_off', channel=9, note=51, velocity=64, time=16),
    Message('control_change', channel=9, control=11, value=108, time=7),
    Message('control_change', channel=9, control=11, value=107, time=0),
    Message('control_change', channel=9, control=11, value=107, time=25),
    Message('control_change', channel=9, control=11, value=106, time=0),
    Message('note_on', channel=9, note=63, velocity=106, time=0),
    Message('note_on', channel=9, note=64, velocity=112, time=0),
    Message('note_on', channel=9, note=59, velocity=117, time=0),
    Message('note_on', channel=9, note=68, velocity=117, time=0),
    Message('note_on', channel=9, note=49, velocity=106, time=1),
    Message('note_on', channel=9, note=66, velocity=112, time=0),
    Message('note_off', channel=9, note=66, velocity=64, time=2),
    Message('note_off', channel=9, note=49, velocity=64, time=13),
    Message('note_off', channel=9, note=59, velocity=64, time=0),
    Message('note_off', channel=9, note=64, velocity=64, time=1),
    Message('note_off', channel=9, note=68, velocity=64, time=0),
    Message('note_off', channel=9, note=63, velocity=64, time=2),
    Message('control_change', channel=9, control=11, value=106, time=6),
    Message('control_change', channel=9, control=11, value=105, time=0),
    Message('note_on', channel=9, note=56, velocity=83, time=23),
    Message('control_change', channel=9, control=11, value=105, time=2),
    Message('control_change', channel=9, control=11, value=104, time=0),
    Message('note_off', channel=9, note=56, velocity=64, time=13),
    Message('control_change', channel=9, control=11, value=104, time=13),
    Message('control_change', channel=9, control=11, value=103, time=0),
    Message('note_on', channel=9, note=61, velocity=117, time=20),
    Message('note_on', channel=9, note=66, velocity=117, time=0),
    Message('note_on', channel=9, note=58, velocity=112, time=0),
    Message('note_on', channel=9, note=42, velocity=127, time=0),
    Message('control_change', channel=9, control=11, value=103, time=3),
    Message('control_change', channel=9, control=11, value=102, time=0),
    Message('note_off', channel=9, note=58, velocity=64, time=13),
    Message('note_off', channel=9, note=66, velocity=64, time=1),
    Message('note_off', channel=9, note=42, velocity=64, time=1),
    Message('note_off', channel=9, note=61, velocity=64, time=0),
    Message('control_change', channel=9, control=11, value=102, time=10),
    Message('control_change', channel=9, control=11, value=101, time=0),
    Message('note_on', channel=9, note=46, velocity=81, time=20),
    Message('control_change', channel=9, control=11, value=101, time=5),
    Message('control_change', channel=9, control=11, value=100, time=0),
    Message('note_off', channel=9, note=46, velocity=64, time=8),
    Message('control_change', channel=9, control=11, value=100, time=17),
    Message('control_change', channel=9, control=11, value=99, time=0),
    Message('note_on', channel=9, note=58, velocity=106, time=18),
    Message('note_on', channel=9, note=56, velocity=102, time=0),
    Message('note_on', channel=9, note=61, velocity=106, time=0),
    Message('note_on', channel=9, note=49, velocity=95, time=1),
    Message('control_change', channel=9, control=11, value=99, time=6),
    Message('control_change', channel=9, control=11, value=98, time=0),
    Message('note_off', channel=9, note=56, velocity=64, time=2),
    Message('note_off', channel=9, note=58, velocity=64, time=3),
    Message('note_off', channel=9, note=61, velocity=64, time=1),
    Message('note_off', channel=9, note=49, velocity=64, time=3),
    Message('control_change', channel=9, control=11, value=98, time=16),
    Message('control_change', channel=9, control=11, value=97, time=0),
    Message('note_on', channel=9, note=54, velocity=100, time=16),
    Message('control_change', channel=9, control=11, value=97, time=10),
    Message('control_change', channel=9, control=11, value=96, time=0),
    Message('note_off', channel=9, note=54, velocity=64, time=3),
    Message('control_change', channel=9, control=11, value=96, time=22),
    Message('control_change', channel=9, control=11, value=95, time=0),
    Message('note_on', channel=9, note=63, velocity=89, time=13),
    Message('note_on', channel=9, note=64, velocity=117, time=0),
    Message('note_on', channel=9, note=59, velocity=117, time=0),
    Message('note_on', channel=9, note=56, velocity=117, time=0),
    Message('control_change', channel=9, control=11, value=95, time=11),
    Message('control_change', channel=9, control=11, value=94, time=0),
    Message('note_off', channel=9, note=59, velocity=64, time=7),
    Message('note_off', channel=9, note=63, velocity=64, time=0),
    Message('note_off', channel=9, note=56, velocity=64, time=1),
    Message('note_off', channel=9, note=64, velocity=64, time=0),
    Message('control_change', channel=9, control=11, value=94, time=17),
    Message('control_change', channel=9, control=11, value=93, time=0),
    Message('note_on', channel=9, note=54, velocity=85, time=12),
    Message('control_change', channel=9, control=11, value=93, time=13),
    Message('control_change', channel=9, control=11, value=92, time=0),
    Message('note_off', channel=9, note=54, velocity=64, time=5),
    Message('note_on', channel=9, note=52, velocity=102, time=6),
    Message('control_change', channel=9, control=11, value=92, time=12),
    Message('control_change', channel=9, control=11, value=91, time=0),
    Message('note_off', channel=9, note=52, velocity=64, time=5),
    Message('note_on', channel=9, note=51, velocity=85, time=7),
    Message('note_on', channel=9, note=59, velocity=102, time=0),
    Message('note_off', channel=9, note=51, velocity=64, time=7),
    Message('note_off', channel=9, note=59, velocity=64, time=5),
    Message('control_change', channel=9, control=11, value=91, time=1),
    Message('control_change', channel=9, control=11, value=90, time=0),
    Message('control_change', channel=9, control=11, value=90, time=25),
    Message('control_change', channel=9, control=11, value=89, time=0),
    Message('note_on', channel=9, note=49, velocity=123, time=10),
    Message('note_off', channel=9, note=49, velocity=64, time=12),
    Message('control_change', channel=9, control=11, value=89, time=3),
    Message('control_change', channel=9, control=11, value=88, time=0),
    Message('control_change', channel=9, control=11, value=88, time=26),
    Message('control_change', channel=9, control=11, value=87, time=0),
    Message('note_on', channel=9, note=42, velocity=127, time=7),
    Message('note_off', channel=9, note=42, velocity=64, time=14),
    Message('control_change', channel=9, control=11, value=87, time=4),
    Message('control_change', channel=9, control=11, value=86, time=0),
    Message('control_change', channel=9, control=11, value=86, time=24),
    Message('control_change', channel=9, control=11, value=85, time=0),
    Message('note_on', channel=9, note=49, velocity=102, time=6),
    Message('note_off', channel=9, note=49, velocity=64, time=13),
    Message('control_change', channel=9, control=11, value=85, time=6),
    Message('control_change', channel=9, control=11, value=84, time=0),
    Message('control_change', channel=9, control=11, value=84, time=25),
    Message('control_change', channel=9, control=11, value=83, time=0),
    Message('note_on', channel=9, note=66, velocity=127, time=4),
    Message('note_on', channel=9, note=58, velocity=127, time=0),
    Message('note_on', channel=9, note=54, velocity=123, time=0),
    Message('note_on', channel=9, note=61, velocity=123, time=0),
    Message('note_on', channel=9, note=63, velocity=106, time=1),
    Message('note_off', channel=9, note=63, velocity=64, time=1),
    Message('note_off', channel=9, note=58, velocity=64, time=11),
    Message('note_off', channel=9, note=61, velocity=64, time=3),
    Message('note_off', channel=9, note=66, velocity=64, time=1),
    Message('control_change', channel=9, control=11, value=83, time=4),
    Message('control_change', channel=9, control=11, value=82, time=0),
    Message('note_off', channel=9, note=54, velocity=64, time=1),
    Message('note_on', channel=9, note=49, velocity=98, time=2),
    Message('note_off', channel=9, note=49, velocity=64, time=19),
    Message('control_change', channel=9, control=11, value=82, time=3),
    Message('control_change', channel=9, control=11, value=81, time=0),
    Message('control_change', channel=9, control=11, value=81, time=25),
    Message('control_change', channel=9, control=11, value=80, time=0),
    Message('control_change', channel=9, control=11, value=80, time=25),
    Message('control_change', channel=9, control=11, value=79, time=0),
    Message('note_on', channel=9, note=64, velocity=120, time=0),
    Message('note_on', channel=9, note=59, velocity=120, time=0),
    Message('note_on', channel=9, note=63, velocity=123, time=0),
    Message('note_on', channel=9, note=52, velocity=117, time=0),
    Message('note_off', channel=9, note=59, velocity=64, time=19),
    Message('note_off', channel=9, note=63, velocity=64, time=1),
    Message('note_off', channel=9, note=64, velocity=64, time=0),
    Message('note_off', channel=9, note=52, velocity=64, time=1),
    Message('control_change', channel=9, control=11, value=79, time=4),
    Message('control_change', channel=9, control=11, value=78, time=0),
    Message('note_on', channel=9, note=54, velocity=92, time=23),
    Message('control_change', channel=9, control=11, value=78, time=2),
    Message('control_change', channel=9, control=11, value=77, time=0),
    Message('note_off', channel=9, note=54, velocity=64, time=14),
    Message('control_change', channel=9, control=11, value=77, time=11),
    Message('control_change', channel=9, control=11, value=76, time=0),
    Message('note_on', channel=9, note=63, velocity=109, time=21),
    Message('note_on', channel=9, note=64, velocity=117, time=0),
    Message('note_on', channel=9, note=68, velocity=117, time=0),
    Message('note_on', channel=9, note=56, velocity=123, time=1),
    Message('note_on', channel=9, note=59, velocity=120, time=0),
    Message('control_change', channel=9, control=11, value=76, time=3),
    Message('control_change', channel=9, control=11, value=75, time=0),
    Message('note_off', channel=9, note=59, velocity=64, time=11),
    Message('note_off', channel=9, note=64, velocity=64, time=3),
    Message('note_off', channel=9, note=68, velocity=64, time=0),
    Message('note_off', channel=9, note=63, velocity=64, time=2),
    Message('note_off', channel=9, note=56, velocity=64, time=5),
    Message('control_change', channel=9, control=11, value=75, time=6),
    Message('control_change', channel=9, control=11, value=74, time=0),
    Message('note_on', channel=9, note=49, velocity=83, time=17),
    Message('control_change', channel=9, control=11, value=74, time=6),
    Message('control_change', channel=9, control=11, value=73, time=0),
    Message('note_off', channel=9, note=49, velocity=64, time=5),
    Message('control_change', channel=9, control=11, value=73, time=20),
    Message('control_change', channel=9, control=11, value=72, time=0),
    Message('note_on', channel=9, note=62, velocity=123, time=17),
    Message('note_on', channel=9, note=57, velocity=123, time=0),
    Message('note_on', channel=9, note=66, velocity=123, time=0),
    Message('note_on', channel=9, note=38, velocity=123, time=1),
    Message('note_on', channel=9, note=50, velocity=117, time=0),
    Message('control_change', channel=9, control=11, value=72, time=6),
    Message('control_change', channel=9, control=11, value=71, time=0),
    Message('note_off', channel=9, note=57, velocity=64, time=8),
    Message('note_off', channel=9, note=50, velocity=64, time=1),
    Message('note_off', channel=9, note=66, velocity=64, time=2),
    Message('note_off', channel=9, note=62, velocity=64, time=0),
    Message('note_off', channel=9, note=38, velocity=64, time=0),
    Message('control_change', channel=9, control=11, value=71, time=14),
    Message('control_change', channel=9, control=11, value=70, time=0),
    Message('control_change', channel=9, control=11, value=70, time=25),
    Message('control_change', channel=9, control=11, value=69, time=0),
    Message('control_change', channel=9, control=11, value=69, time=25),
    Message('control_change', channel=9, control=11, value=68, time=0),
    Message('control_change', channel=9, control=11, value=68, time=23),
    Message('control_change', channel=9, control=11, value=67, time=0),
    Message('control_change', channel=9, control=11, value=67, time=25),
    Message('control_change', channel=9, control=11, value=66, time=0),
    Message('control_change', channel=9, control=11, value=66, time=27),
    Message('control_change', channel=9, control=11, value=65, time=0),
    Message('control_change', channel=9, control=11, value=65, time=23),
    Message('control_change', channel=9, control=11, value=64, time=0),
    Message('control_change', channel=9, control=11, value=64, time=25),
    Message('control_change', channel=9, control=11, value=63, time=0),
    Message('control_change', channel=9, control=11, value=63, time=25),
    Message('control_change', channel=9, control=11, value=62, time=0),
    Message('control_change', channel=9, control=11, value=62, time=25),
    Message('control_change', channel=9, control=11, value=61, time=0),
    Message('control_change', channel=9, control=11, value=61, time=25),
    Message('control_change', channel=9, control=11, value=60, time=0),
    MetaMessage('end_of_track', time=0)]),
  MidiTrack([
    MetaMessage('track_name', name='Slow Pop Strings', time=0),
    MetaMessage('channel_prefix', channel=10, time=0),
    Message('program_change', channel=10, program=9, time=0),
    Message('control_change', channel=10, control=0, value=0, time=0),
    Message('control_change', channel=10, control=32, value=1, time=0),
    Message('control_change', channel=10, control=7, value=127, time=0),
    Message('control_change', channel=10, control=10, value=64, time=0),
    Message('control_change', channel=10, control=91, value=0, time=0),
    Message('control_change', channel=10, control=93, value=0, time=0),
    Message('control_change', channel=10, control=10, value=64, time=421),
    Message('control_change', channel=10, control=10, value=0, time=0),
    Message('control_change', channel=10, control=21, value=0, time=0),
    Message('control_change', channel=10, control=21, value=127, time=0),
    Message('control_change', channel=10, control=11, value=127, time=0),
    Message('control_change', channel=10, control=11, value=17, time=0),
    Message('note_on', channel=10, note=37, velocity=127, time=1),
    Message('note_on', channel=10, note=49, velocity=121, time=0),
    Message('note_on', channel=10, note=56, velocity=113, time=0),
    Message('note_on', channel=10, note=61, velocity=105, time=0),
    Message('control_change', channel=10, control=91, value=0, time=28),
    Message('control_change', channel=10, control=91, value=127, time=0),
    Message('control_change', channel=10, control=10, value=0, time=19),
    Message('control_change', channel=10, control=10, value=2, time=0),
    Message('control_change', channel=10, control=10, value=2, time=30),
    Message('control_change', channel=10, control=10, value=3, time=0),
    Message('control_change', channel=10, control=10, value=3, time=18),
    Message('control_change', channel=10, control=10, value=5, time=0),
    Message('control_change', channel=10, control=10, value=5, time=30),
    Message('control_change', channel=10, control=10, value=6, time=0),
    Message('control_change', channel=10, control=10, value=6, time=19),
    Message('control_change', channel=10, control=10, value=8, time=0),
    Message('control_change', channel=10, control=10, value=8, time=29),
    Message('control_change', channel=10, control=10, value=9, time=0),
    Message('control_change', channel=10, control=10, value=9, time=19),
    Message('control_change', channel=10, control=10, value=11, time=0),
    Message('control_change', channel=10, control=10, value=11, time=29),
    Message('control_change', channel=10, control=10, value=12, time=0),
    Message('control_change', channel=10, control=10, value=12, time=18),
    Message('control_change', channel=10, control=10, value=14, time=0),
    Message('control_change', channel=10, control=10, value=14, time=30),
    Message('control_change', channel=10, control=10, value=16, time=0),
    Message('control_change', channel=10, control=10, value=16, time=18),
    Message('control_change', channel=10, control=10, value=17, time=0),
    Message('control_change', channel=10, control=11, value=17, time=24),
    Message('control_change', channel=10, control=11, value=18, time=0),
    Message('control_change', channel=10, control=10, value=17, time=6),
    Message('control_change', channel=10, control=10, value=19, time=0),
    Message('control_change', channel=10, control=10, value=19, time=18),
    Message('control_change', channel=10, control=10, value=20, time=0),
    Message('control_change', channel=10, control=11, value=18, time=0),
    Message('control_change', channel=10, control=11, value=19, time=0),
    Message('control_change', channel=10, control=11, value=19, time=24),
    Message('control_change', channel=10, control=11, value=21, time=0),
    Message('control_change', channel=10, control=10, value=20, time=6),
    Message('control_change', channel=10, control=10, value=22, time=0),
    Message('control_change', channel=10, control=10, value=22, time=18),
    Message('control_change', channel=10, control=10, value=23, time=0),
    Message('control_change', channel=10, control=11, value=21, time=1),
    Message('control_change', channel=10, control=11, value=23, time=0),
    Message('control_change', channel=10, control=11, value=23, time=23),
    Message('control_change', channel=10, control=11, value=24, time=0),
    Message('control_change', channel=10, control=10, value=23, time=6),
    Message('control_change', channel=10, control=10, value=25, time=0),
    Message('control_change', channel=10, control=10, value=25, time=18),
    Message('control_change', channel=10, control=10, value=26, time=0),
    Message('control_change', channel=10, control=11, value=24, time=0),
    Message('control_change', channel=10, control=11, value=26, time=0),
    Message('control_change', channel=10, control=11, value=26, time=24),
    Message('control_change', channel=10, control=11, value=27, time=0),
    Message('control_change', channel=10, control=10, value=26, time=6),
    Message('control_change', channel=10, control=10, value=28, time=0),
    Message('control_change', channel=10, control=10, value=28, time=18),
    Message('control_change', channel=10, control=10, value=29, time=0),
    Message('control_change', channel=10, control=11, value=27, time=0),
    Message('control_change', channel=10, control=11, value=29, time=0),
    Message('control_change', channel=10, control=11, value=29, time=24),
    Message('control_change', channel=10, control=11, value=30, time=0),
    Message('control_change', channel=10, control=10, value=29, time=6),
    Message('control_change', channel=10, control=10, value=31, time=0),
    Message('control_change', channel=10, control=10, value=31, time=18),
    Message('control_change', channel=10, control=10, value=32, time=0),
    Message('control_change', channel=10, control=11, value=30, time=0),
    Message('control_change', channel=10, control=11, value=32, time=0),
    Message('control_change', channel=10, control=11, value=32, time=24),
    Message('control_change', channel=10, control=11, value=33, time=0),
    Message('control_change', channel=10, control=10, value=32, time=6),
    Message('control_change', channel=10, control=10, value=34, time=0),
    Message('control_change', channel=10, control=10, value=34, time=18),
    Message('control_change', channel=10, control=10, value=35, time=0),
    Message('control_change', channel=10, control=11, value=33, time=0),
    Message('control_change', channel=10, control=11, value=35, time=0),
    Message('control_change', channel=10, control=11, value=35, time=24),
    Message('control_change', channel=10, control=11, value=36, time=0),
    Message('control_change', channel=10, control=10, value=35, time=6),
    Message('control_change', channel=10, control=10, value=37, time=0),
    Message('control_change', channel=10, control=10, value=37, time=18),
    Message('control_change', channel=10, control=10, value=38, time=0),
    Message('control_change', channel=10, control=11, value=36, time=0),
    Message('control_change', channel=10, control=11, value=38, time=0),
    Message('control_change', channel=10, control=11, value=38, time=24),
    Message('control_change', channel=10, control=11, value=39, time=0),
    Message('control_change', channel=10, control=10, value=38, time=6),
    Message('control_change', channel=10, control=10, value=40, time=0),
    Message('control_change', channel=10, control=10, value=40, time=18),
    Message('control_change', channel=10, control=10, value=41, time=0),
    Message('control_change', channel=10, control=11, value=39, time=0),
    Message('control_change', channel=10, control=11, value=41, time=0),
    Message('control_change', channel=10, control=11, value=41, time=24),
    Message('control_change', channel=10, control=11, value=42, time=0),
    Message('control_change', channel=10, control=10, value=41, time=6),
    Message('control_change', channel=10, control=10, value=43, time=0),
    Message('control_change', channel=10, control=10, value=43, time=18),
    Message('control_change', channel=10, control=10, value=44, time=0),
    Message('control_change', channel=10, control=11, value=42, time=0),
    Message('control_change', channel=10, control=11, value=44, time=0),
    Message('control_change', channel=10, control=11, value=44, time=24),
    Message('control_change', channel=10, control=11, value=45, time=0),
    Message('control_change', channel=10, control=10, value=44, time=6),
    Message('control_change', channel=10, control=10, value=46, time=0),
    Message('note_off', channel=10, note=49, velocity=64, time=14),
    Message('control_change', channel=10, control=10, value=46, time=5),
    Message('control_change', channel=10, control=10, value=48, time=0),
    Message('note_on', channel=10, note=68, velocity=97, time=0),
    Message('control_change', channel=10, control=11, value=45, time=0),
    Message('control_change', channel=10, control=11, value=47, time=0),
    Message('control_change', channel=10, control=11, value=47, time=23),
    Message('control_change', channel=10, control=11, value=48, time=0),
    Message('control_change', channel=10, control=10, value=48, time=6),
    Message('control_change', channel=10, control=10, value=49, time=0),
    Message('control_change', channel=10, control=10, value=49, time=18),
    Message('control_change', channel=10, control=10, value=51, time=0),
    Message('control_change', channel=10, control=11, value=48, time=0),
    Message('control_change', channel=10, control=11, value=50, time=0),
    Message('control_change', channel=10, control=11, value=50, time=24),
    Message('control_change', channel=10, control=11, value=51, time=0),
    Message('control_change', channel=10, control=10, value=51, time=6),
    Message('control_change', channel=10, control=10, value=52, time=0),
    Message('control_change', channel=10, control=10, value=52, time=18),
    Message('control_change', channel=10, control=10, value=54, time=0),
    Message('control_change', channel=10, control=11, value=51, time=0),
    Message('control_change', channel=10, control=11, value=53, time=0),
    Message('control_change', channel=10, control=11, value=53, time=24),
    Message('control_change', channel=10, control=11, value=54, time=0),
    Message('control_change', channel=10, control=10, value=54, time=6),
    Message('control_change', channel=10, control=10, value=55, time=0),
    Message('control_change', channel=10, control=10, value=55, time=18),
    Message('control_change', channel=10, control=10, value=57, time=0),
    Message('control_change', channel=10, control=11, value=54, time=0),
    Message('control_change', channel=10, control=11, value=56, time=0),
    Message('control_change', channel=10, control=11, value=56, time=24),
    Message('control_change', channel=10, control=11, value=57, time=0),
    Message('control_change', channel=10, control=10, value=57, time=6),
    Message('control_change', channel=10, control=10, value=58, time=0),
    Message('note_off', channel=10, note=61, velocity=64, time=12),
    Message('control_change', channel=10, control=10, value=58, time=6),
    Message('control_change', channel=10, control=10, value=59, time=0),
    Message('note_on', channel=10, note=73, velocity=90, time=0),
    Message('control_change', channel=10, control=11, value=57, time=1),
    Message('control_change', channel=10, control=11, value=59, time=0),
    Message('control_change', channel=10, control=11, value=59, time=23),
    Message('control_change', channel=10, control=11, value=60, time=0),
    Message('control_change', channel=10, control=11, value=60, time=24),
    Message('control_change', channel=10, control=11, value=62, time=0),
    Message('control_change', channel=10, control=11, value=62, time=24),
    Message('control_change', channel=10, control=11, value=63, time=0),
    Message('control_change', channel=10, control=11, value=63, time=24),
    Message('control_change', channel=10, control=11, value=65, time=0),
    Message('control_change', channel=10, control=11, value=65, time=24),
    Message('control_change', channel=10, control=11, value=67, time=0),
    Message('control_change', channel=10, control=11, value=67, time=24),
    Message('control_change', channel=10, control=11, value=68, time=0),
    Message('control_change', channel=10, control=11, value=68, time=24),
    Message('control_change', channel=10, control=11, value=70, time=0),
    Message('note_off', channel=10, note=68, velocity=64, time=23),
    Message('note_off', channel=10, note=73, velocity=64, time=0),
    Message('control_change', channel=10, control=11, value=70, time=1),
    Message('control_change', channel=10, control=11, value=71, time=0),
    Message('note_on', channel=10, note=80, velocity=82, time=0),
    Message('note_on', channel=10, note=85, velocity=82, time=0),
    Message('control_change', channel=10, control=11, value=71, time=24),
    Message('control_change', channel=10, control=11, value=73, time=0),
    Message('control_change', channel=10, control=11, value=73, time=25),
    Message('control_change', channel=10, control=11, value=74, time=0),
    Message('control_change', channel=10, control=11, value=74, time=23),
    Message('control_change', channel=10, control=11, value=76, time=0),
    Message('control_change', channel=10, control=11, value=76, time=48),
    Message('control_change', channel=10, control=11, value=77, time=0),
    Message('control_change', channel=10, control=11, value=77, time=25),
    Message('control_change', channel=10, control=11, value=79, time=0),
    Message('control_change', channel=10, control=11, value=79, time=23),
    Message('control_change', channel=10, control=11, value=82, time=0),
    Message('note_off', channel=10, note=85, velocity=64, time=24),
    Message('control_change', channel=10, control=11, value=82, time=0),
    Message('control_change', channel=10, control=11, value=84, time=0),
    Message('note_on', channel=10, note=97, velocity=93, time=0),
    Message('control_change', channel=10, control=11, value=84, time=23),
    Message('control_change', channel=10, control=11, value=86, time=0),
    Message('control_change', channel=10, control=11, value=86, time=25),
    Message('control_change', channel=10, control=11, value=89, time=0),
    Message('control_change', channel=10, control=11, value=89, time=24),
    Message('control_change', channel=10, control=11, value=98, time=0),
    Message('control_change', channel=10, control=11, value=98, time=24),
    Message('control_change', channel=10, control=11, value=107, time=0),
    Message('control_change', channel=10, control=91, value=127, time=9),
    Message('control_change', channel=10, control=91, value=0, time=0),
    Message('control_change', channel=10, control=11, value=107, time=15),
    Message('control_change', channel=10, control=11, value=116, time=0),
    Message('control_change', channel=10, control=11, value=116, time=24),
    Message('control_change', channel=10, control=11, value=125, time=0),
    Message('control_change', channel=10, control=11, value=125, time=26),
    Message('control_change', channel=10, control=11, value=127, time=0),
    Message('note_off', channel=10, note=56, velocity=64, time=14),
    Message('control_change', channel=10, control=21, value=127, time=2),
    Message('control_change', channel=10, control=21, value=0, time=0),
    Message('note_off', channel=10, note=37, velocity=64, time=6),
    Message('note_off', channel=10, note=80, velocity=64, time=1),
    Message('note_off', channel=10, note=97, velocity=64, time=0),
    Message('control_change', channel=10, control=21, value=0, time=11672),
    Message('control_change', channel=10, control=21, value=127, time=0),
    Message('control_change', channel=10, control=11, value=127, time=351),
    Message('control_change', channel=10, control=11, value=0, time=0),
    Message('note_on', channel=10, note=54, velocity=90, time=98),
    Message('control_change', channel=10, control=11, value=0, time=58),
    Message('control_change', channel=10, control=11, value=5, time=0),
    Message('control_change', channel=10, control=11, value=10, time=11),
    Message('control_change', channel=10, control=11, value=11, time=1),
    Message('control_change', channel=10, control=11, value=13, time=11),
    Message('control_change', channel=10, control=11, value=14, time=1),
    Message('control_change', channel=10, control=11, value=14, time=12),
    Message('control_change', channel=10, control=11, value=22, time=0),
    Message('control_change', channel=10, control=11, value=26, time=11),
    Message('control_change', channel=10, control=11, value=27, time=1),
    Message('note_on', channel=10, note=52, velocity=67, time=9),
    Message('control_change', channel=10, control=11, value=30, time=2),
    Message('control_change', channel=10, control=11, value=31, time=1),
    Message('note_off', channel=10, note=54, velocity=64, time=4),
    Message('control_change', channel=10, control=11, value=34, time=7),
    Message('control_change', channel=10, control=11, value=35, time=1),
    Message('control_change', channel=10, control=11, value=37, time=11),
    Message('control_change', channel=10, control=11, value=38, time=1),
    Message('control_change', channel=10, control=11, value=38, time=24),
    Message('control_change', channel=10, control=11, value=42, time=0),
    Message('control_change', channel=10, control=11, value=42, time=12),
    Message('control_change', channel=10, control=11, value=46, time=0),
    Message('control_change', channel=10, control=11, value=46, time=11),
    Message('control_change', channel=10, control=11, value=47, time=1),
    Message('control_change', channel=10, control=11, value=48, time=11),
    Message('control_change', channel=10, control=11, value=49, time=1),
    Message('control_change', channel=10, control=11, value=49, time=12),
    Message('control_change', channel=10, control=11, value=51, time=0),
    Message('note_on', channel=10, note=51, velocity=79, time=5),
    Message('control_change', channel=10, control=11, value=52, time=6),
    Message('control_change', channel=10, control=11, value=53, time=1),
    Message('note_off', channel=10, note=52, velocity=64, time=2),
    Message('control_change', channel=10, control=11, value=54, time=9),
    Message('control_change', channel=10, control=11, value=55, time=1),
    Message('control_change', channel=10, control=11, value=55, time=12),
    Message('control_change', channel=10, control=11, value=56, time=0),
    Message('control_change', channel=10, control=11, value=60, time=11),
    Message('control_change', channel=10, control=11, value=61, time=1),
    Message('control_change', channel=10, control=11, value=61, time=11),
    Message('control_change', channel=10, control=11, value=62, time=1),
    Message('control_change', channel=10, control=11, value=62, time=24),
    Message('control_change', channel=10, control=11, value=64, time=0),
    Message('control_change', channel=10, control=11, value=65, time=11),
    Message('control_change', channel=10, control=11, value=66, time=1),
    Message('note_on', channel=10, note=49, velocity=99, time=8),
    Message('note_off', channel=10, note=51, velocity=64, time=6),
    Message('control_change', channel=10, control=11, value=66, time=10),
    Message('control_change', channel=10, control=11, value=68, time=0),
    Message('control_change', channel=10, control=11, value=68, time=36),
    Message('control_change', channel=10, control=11, value=70, time=0),
    Message('control_change', channel=10, control=11, value=70, time=24),
    Message('control_change', channel=10, control=11, value=71, time=0),
    Message('control_change', channel=10, control=11, value=71, time=36),
    Message('control_change', channel=10, control=11, value=73, time=0),
    Message('note_on', channel=10, note=47, velocity=75, time=0),
    Message('note_on', channel=10, note=59, velocity=57, time=0),
    Message('note_off', channel=10, note=49, velocity=64, time=10),
    Message('control_change', channel=10, control=11, value=74, time=1),
    Message('control_change', channel=10, control=11, value=75, time=1),
    Message('control_change', channel=10, control=11, value=75, time=24),
    Message('control_change', channel=10, control=11, value=77, time=0),
    Message('control_change', channel=10, control=11, value=77, time=24),
    Message('control_change', channel=10, control=11, value=79, time=0),
    Message('control_change', channel=10, control=11, value=79, time=12),
    Message('control_change', channel=10, control=11, value=80, time=0),
    Message('control_change', channel=10, control=11, value=80, time=48),
    Message('control_change', channel=10, control=11, value=82, time=0),
    Message('note_on', channel=10, note=35, velocity=87, time=30),
    Message('control_change', channel=10, control=11, value=82, time=18),
    Message('control_change', channel=10, control=11, value=84, time=0),
    Message('note_off', channel=10, note=47, velocity=64, time=22),
    Message('control_change', channel=10, control=11, value=84, time=2),
    Message('control_change', channel=10, control=11, value=86, time=0),
    Message('control_change', channel=10, control=11, value=86, time=24),
    Message('control_change', channel=10, control=11, value=88, time=0),
    Message('control_change', channel=10, control=11, value=90, time=11),
    Message('control_change', channel=10, control=11, value=91, time=1),
    Message('control_change', channel=10, control=11, value=94, time=11),
    Message('control_change', channel=10, control=11, value=95, time=1),
    Message('control_change', channel=10, control=11, value=95, time=12),
    Message('control_change', channel=10, control=11, value=100, time=0),
    Message('control_change', channel=10, control=11, value=101, time=11),
    Message('control_change', channel=10, control=11, value=102, time=1),
    Message('control_change', channel=10, control=11, value=105, time=11),
    Message('control_change', channel=10, control=11, value=106, time=1),
    Message('control_change', channel=10, control=11, value=106, time=12),
    Message('control_change', channel=10, control=11, value=108, time=0),
    Message('note_off', channel=10, note=35, velocity=64, time=6),
    Message('note_on', channel=10, note=39, velocity=88, time=2),
    Message('note_off', channel=10, note=59, velocity=64, time=1),
    Message('note_on', channel=10, note=56, velocity=31, time=1),
    Message('note_on', channel=10, note=61, velocity=40, time=1),
    Message('note_on', channel=10, note=27, velocity=107, time=1),
    Message('control_change', channel=10, control=11, value=108, time=84),
    Message('control_change', channel=10, control=11, value=110, time=0),
    Message('control_change', channel=10, control=11, value=110, time=24),
    Message('control_change', channel=10, control=11, value=112, time=0),
    Message('control_change', channel=10, control=11, value=112, time=12),
    Message('control_change', channel=10, control=11, value=113, time=0),
    Message('control_change', channel=10, control=11, value=114, time=11),
    Message('control_change', channel=10, control=11, value=115, time=1),
    Message('control_change', channel=10, control=11, value=115, time=24),
    Message('control_change', channel=10, control=11, value=117, time=0),
    Message('note_off', channel=10, note=39, velocity=64, time=7),
    Message('note_on', channel=10, note=63, velocity=64, time=2),
    Message('control_change', channel=10, control=11, value=117, time=3),
    Message('control_change', channel=10, control=11, value=121, time=0),
    Message('control_change', channel=10, control=11, value=121, time=11),
    Message('control_change', channel=10, control=11, value=122, time=1),
    Message('note_on', channel=10, note=58, velocity=50, time=108),
    Message('note_off', channel=10, note=56, velocity=64, time=17),
    Message('control_change', channel=10, control=11, value=122, time=80),
    Message('control_change', channel=10, control=11, value=118, time=0),
    Message('control_change', channel=10, control=1, value=0, time=72),
    Message('control_change', channel=10, control=1, value=1, time=0),
    Message('control_change', channel=10, control=1, value=11, time=3),
    Message('control_change', channel=10, control=1, value=17, time=2),
    Message('control_change', channel=10, control=1, value=21, time=2),
    Message('control_change', channel=10, control=1, value=25, time=2),
    Message('control_change', channel=10, control=1, value=27, time=1),
    Message('control_change', channel=10, control=1, value=31, time=1),
    Message('control_change', channel=10, control=1, value=40, time=6),
    Message('control_change', channel=10, control=1, value=48, time=2),
    Message('control_change', channel=10, control=1, value=56, time=2),
    Message('control_change', channel=10, control=1, value=57, time=1),
    Message('control_change', channel=10, control=1, value=62, time=1),
    Message('control_change', channel=10, control=1, value=67, time=3),
    Message('control_change', channel=10, control=1, value=73, time=1),
    Message('control_change', channel=10, control=1, value=77, time=5),
    Message('control_change', channel=10, control=1, value=79, time=2),
    Message('control_change', channel=10, control=1, value=81, time=1),
    Message('control_change', channel=10, control=1, value=85, time=1),
    Message('control_change', channel=10, control=1, value=104, time=8),
    Message('control_change', channel=10, control=1, value=104, time=2),
    Message('control_change', channel=10, control=11, value=118, time=3),
    Message('control_change', channel=10, control=11, value=116, time=0),
    Message('control_change', channel=10, control=1, value=108, time=2),
    Message('control_change', channel=10, control=11, value=115, time=7),
    Message('control_change', channel=10, control=11, value=115, time=1),
    Message('control_change', channel=10, control=1, value=108, time=8),
    Message('control_change', channel=10, control=1, value=112, time=0),
    Message('control_change', channel=10, control=1, value=114, time=3),
    Message('control_change', channel=10, control=11, value=115, time=1),
    Message('control_change', channel=10, control=11, value=112, time=0),
    Message('control_change', channel=10, control=1, value=116, time=1),
    Message('control_change', channel=10, control=1, value=120, time=1),
    Message('control_change', channel=10, control=11, value=110, time=9),
    Message('control_change', channel=10, control=11, value=110, time=1),
    Message('pitchwheel', channel=10, pitch=0, time=12),
    Message('pitchwheel', channel=10, pitch=72, time=0),
    Message('control_change', channel=10, control=11, value=110, time=1),
    Message('control_change', channel=10, control=11, value=108, time=0),
    Message('pitchwheel', channel=10, pitch=217, time=2),
    Message('pitchwheel', channel=10, pitch=362, time=4),
    Message('control_change', channel=10, control=1, value=120, time=0),
    Message('control_change', channel=10, control=1, value=124, time=0),
    Message('pitchwheel', channel=10, pitch=507, time=0),
    Message('pitchwheel', channel=10, pitch=652, time=2),
    Message('pitchwheel', channel=10, pitch=702, time=2),
    Message('control_change', channel=10, control=11, value=104, time=0),
    Message('control_change', channel=10, control=11, value=104, time=1),
    Message('pitchwheel', channel=10, pitch=797, time=1),
    Message('pitchwheel', channel=10, pitch=942, time=4),
    Message('control_change', channel=10, control=11, value=104, time=8),
    Message('control_change', channel=10, control=11, value=102, time=0),
    Message('control_change', channel=10, control=1, value=124, time=1),
    Message('control_change', channel=10, control=1, value=127, time=0),
    Message('control_change', channel=10, control=11, value=100, time=9),
    Message('control_change', channel=10, control=11, value=100, time=1),
    Message('pitchwheel', channel=10, pitch=942, time=4),
    Message('pitchwheel', channel=10, pitch=1087, time=0),
    Message('pitchwheel', channel=10, pitch=1232, time=5),
    Message('pitchwheel', channel=10, pitch=1280, time=2),
    Message('control_change', channel=10, control=11, value=100, time=2),
    Message('control_change', channel=10, control=11, value=98, time=0),
    Message('pitchwheel', channel=10, pitch=1377, time=2),
    Message('pitchwheel', channel=10, pitch=1488, time=8),
    Message('control_change', channel=10, control=11, value=97, time=0),
    Message('control_change', channel=10, control=11, value=97, time=2),
    Message('pitchwheel', channel=10, pitch=1522, time=0),
    Message('pitchwheel', channel=10, pitch=1667, time=6),
    Message('pitchwheel', channel=10, pitch=1783, time=4),
    Message('control_change', channel=10, control=11, value=95, time=0),
    Message('pitchwheel', channel=10, pitch=1812, time=1),
    Message('control_change', channel=10, control=11, value=95, time=0),
    Message('pitchwheel', channel=10, pitch=1957, time=3),
    Message('pitchwheel', channel=10, pitch=2053, time=8),
    Message('control_change', channel=10, control=11, value=93, time=0),
    Message('control_change', channel=10, control=11, value=93, time=1),
    Message('pitchwheel', channel=10, pitch=2102, time=2),
    Message('pitchwheel', channel=10, pitch=2247, time=2),
    Message('control_change', channel=10, control=11, value=91, time=7),
    Message('control_change', channel=10, control=11, value=91, time=1),
    Message('control_change', channel=10, control=11, value=91, time=13),
    Message('control_change', channel=10, control=11, value=90, time=0),
    Message('control_change', channel=10, control=1, value=127, time=2),
    Message('control_change', channel=10, control=1, value=124, time=0),
    Message('control_change', channel=10, control=1, value=120, time=5),
    Message('pitchwheel', channel=10, pitch=2247, time=1),
    Message('pitchwheel', channel=10, pitch=2537, time=0),
    Message('pitchwheel', channel=10, pitch=2658, time=2),
    Message('control_change', channel=10, control=1, value=117, time=0),
    Message('control_change', channel=10, control=11, value=88, time=0),
    Message('pitchwheel', channel=10, pitch=2826, time=2),
    Message('control_change', channel=10, control=11, value=88, time=0),
    Message('control_change', channel=10, control=1, value=116, time=0),
    Message('control_change', channel=10, control=1, value=112, time=4),
    Message('control_change', channel=10, control=1, value=108, time=4),
    Message('control_change', channel=10, control=1, value=107, time=2),
    Message('control_change', channel=10, control=11, value=87, time=0),
    Message('control_change', channel=10, control=11, value=87, time=1),
    Message('control_change', channel=10, control=1, value=104, time=4),
    Message('pitchwheel', channel=10, pitch=2826, time=6),
    Message('pitchwheel', channel=10, pitch=2971, time=0),
    Message('control_change', channel=10, control=1, value=100, time=0),
    Message('pitchwheel', channel=10, pitch=3019, time=1),
    Message('control_change', channel=10, control=11, value=85, time=0),
    Message('pitchwheel', channel=10, pitch=3116, time=1),
    Message('control_change', channel=10, control=11, value=85, time=0),
    Message('pitchwheel', channel=10, pitch=3261, time=2),
    Message('pitchwheel', channel=10, pitch=3406, time=2),
    Message('pitchwheel', channel=10, pitch=3696, time=2),
    Message('pitchwheel', channel=10, pitch=3841, time=2),
    Message('pitchwheel', channel=10, pitch=3923, time=3),
    Message('control_change', channel=10, control=11, value=83, time=0),
    Message('control_change', channel=10, control=11, value=83, time=1),
    Message('pitchwheel', channel=10, pitch=3986, time=0),
    Message('pitchwheel', channel=10, pitch=4276, time=2),
    Message('pitchwheel', channel=10, pitch=4421, time=5),
    Message('pitchwheel', channel=10, pitch=4557, time=4),
    Message('pitchwheel', channel=10, pitch=4566, time=0),
    Message('control_change', channel=10, control=11, value=83, time=2),
    Message('control_change', channel=10, control=11, value=81, time=0),
    Message('pitchwheel', channel=10, pitch=4711, time=2),
    Message('pitchwheel', channel=10, pitch=4856, time=2),
    Message('pitchwheel', channel=10, pitch=5001, time=4),
    Message('pitchwheel', channel=10, pitch=5049, time=2),
    Message('control_change', channel=10, control=11, value=80, time=0),
    Message('control_change', channel=10, control=11, value=80, time=1),
    Message('pitchwheel', channel=10, pitch=5146, time=1),
    Message('pitchwheel', channel=10, pitch=5291, time=7),
    Message('control_change', channel=10, control=1, value=100, time=0),
    Message('control_change', channel=10, control=1, value=96, time=0),
    Message('control_change', channel=10, control=11, value=78, time=3),
    Message('control_change', channel=10, control=11, value=78, time=1),
    Message('control_change', channel=10, control=11, value=78, time=12),
    Message('control_change', channel=10, control=11, value=76, time=0),
    Message('pitchwheel', channel=10, pitch=5291, time=14),
    Message('pitchwheel', channel=10, pitch=5436, time=0),
    Message('control_change', channel=10, control=11, value=76, time=0),
    Message('control_change', channel=10, control=11, value=75, time=0),
    Message('control_change', channel=10, control=11, value=73, time=9),
    Message('control_change', channel=10, control=11, value=73, time=2),
    Message('control_change', channel=10, control=11, value=71, time=10),
    Message('control_change', channel=10, control=11, value=71, time=1),
    Message('control_change', channel=10, control=11, value=71, time=12),
    Message('control_change', channel=10, control=11, value=70, time=0),
    Message('pitchwheel', channel=10, pitch=5436, time=2),
    Message('pitchwheel', channel=10, pitch=5581, time=0),
    Message('pitchwheel', channel=10, pitch=5726, time=5),
    Message('pitchwheel', channel=10, pitch=5871, time=3),
    Message('control_change', channel=10, control=11, value=70, time=3),
    Message('control_change', channel=10, control=11, value=68, time=0),
    Message('control_change', channel=10, control=11, value=68, time=13),
    Message('control_change', channel=10, control=11, value=66, time=0),
    Message('pitchwheel', channel=10, pitch=5871, time=7),
    Message('pitchwheel', channel=10, pitch=6016, time=0),
    Message('pitchwheel', channel=10, pitch=6037, time=2),
    Message('control_change', channel=10, control=11, value=64, time=0),
    Message('control_change', channel=10, control=1, value=96, time=0),
    Message('control_change', channel=10, control=1, value=93, time=0),
    Message('control_change', channel=10, control=11, value=64, time=1),
    Message('pitchwheel', channel=10, pitch=6161, time=8),
    Message('pitchwheel', channel=10, pitch=6214, time=3),
    Message('control_change', channel=10, control=11, value=63, time=0),
    Message('control_change', channel=10, control=11, value=63, time=1),
    Message('pitchwheel', channel=10, pitch=6306, time=4),
    Message('pitchwheel', channel=10, pitch=6426, time=7),
    Message('control_change', channel=10, control=11, value=63, time=1),
    Message('control_change', channel=10, control=11, value=61, time=0),
    Message('pitchwheel', channel=10, pitch=6451, time=0),
    Message('pitchwheel', channel=10, pitch=6596, time=6),
    Message('pitchwheel', channel=10, pitch=6675, time=5),
    Message('control_change', channel=10, control=11, value=60, time=0),
    Message('control_change', channel=10, control=11, value=60, time=1),
    Message('pitchwheel', channel=10, pitch=6741, time=2),
    Message('control_change', channel=10, control=11, value=58, time=9),
    Message('control_change', channel=10, control=11, value=58, time=0),
    Message('control_change', channel=10, control=11, value=58, time=13),
    Message('control_change', channel=10, control=11, value=56, time=0),
    Message('pitchwheel', channel=10, pitch=6741, time=7),
    Message('pitchwheel', channel=10, pitch=6886, time=0),
    Message('control_change', channel=10, control=11, value=56, time=5),
    Message('control_change', channel=10, control=11, value=54, time=0),
    Message('control_change', channel=10, control=1, value=93, time=8),
    Message('control_change', channel=10, control=1, value=89, time=0),
    Message('control_change', channel=10, control=11, value=54, time=4),
    Message('control_change', channel=10, control=11, value=53, time=0),
    Message('control_change', channel=10, control=11, value=51, time=11),
    Message('control_change', channel=10, control=11, value=51, time=1),
    Message('pitchwheel', channel=10, pitch=6886, time=3),
    Message('pitchwheel', channel=10, pitch=7031, time=0),
    Message('control_change', channel=10, control=1, value=89, time=8),
    Message('control_change', channel=10, control=1, value=85, time=0),
    Message('control_change', channel=10, control=11, value=51, time=1),
    Message('control_change', channel=10, control=11, value=49, time=0),
    Message('pitchwheel', channel=10, pitch=7031, time=9),
    Message('pitchwheel', channel=10, pitch=7176, time=0),
    Message('control_change', channel=10, control=11, value=48, time=2),
    Message('control_change', channel=10, control=11, value=48, time=1),
    Message('control_change', channel=10, control=1, value=85, time=1),
    Message('control_change', channel=10, control=1, value=81, time=0),
    Message('control_change', channel=10, control=11, value=46, time=10),
    Message('control_change', channel=10, control=11, value=46, time=1),
    Message('pitchwheel', channel=10, pitch=7176, time=2),
    Message('pitchwheel', channel=10, pitch=7321, time=0),
    Message('pitchwheel', channel=10, pitch=7466, time=6),
    Message('pitchwheel', channel=10, pitch=7611, time=2),
    Message('pitchwheel', channel=10, pitch=7624, time=1),
    Message('control_change', channel=10, control=11, value=44, time=0),
    Message('control_change', channel=10, control=11, value=44, time=1),
    Message('pitchwheel', channel=10, pitch=7756, time=4),
    Message('control_change', channel=10, control=11, value=44, time=8),
    Message('control_change', channel=10, control=11, value=43, time=0),
    Message('control_change', channel=10, control=11, value=41, time=11),
    Message('control_change', channel=10, control=11, value=41, time=1),
    Message('control_change', channel=10, control=1, value=81, time=1),
    Message('control_change', channel=10, control=1, value=77, time=0),
    Message('control_change', channel=10, control=11, value=39, time=10),
    Message('control_change', channel=10, control=11, value=39, time=1),
    Message('control_change', channel=10, control=1, value=77, time=8),
    Message('control_change', channel=10, control=1, value=73, time=0),
    Message('pitchwheel', channel=10, pitch=7756, time=2),
    Message('pitchwheel', channel=10, pitch=7901, time=0),
    Message('pitchwheel', channel=10, pitch=7915, time=1),
    Message('control_change', channel=10, control=1, value=71, time=0),
    Message('control_change', channel=10, control=11, value=37, time=0),
    Message('control_change', channel=10, control=11, value=37, time=1),
    Message('pitchwheel', channel=10, pitch=8046, time=4),
    Message('control_change', channel=10, control=1, value=69, time=0),
    Message('control_change', channel=10, control=11, value=37, time=8),
    Message('control_change', channel=10, control=11, value=36, time=0),
    Message('control_change', channel=10, control=11, value=36, time=12),
    Message('control_change', channel=10, control=11, value=34, time=0),
    Message('control_change', channel=10, control=1, value=69, time=3),
    Message('control_change', channel=10, control=1, value=65, time=0),
    Message('pitchwheel', channel=10, pitch=8046, time=4),
    Message('pitchwheel', channel=10, pitch=8191, time=0),
    Message('control_change', channel=10, control=1, value=62, time=0),
    Message('control_change', channel=10, control=1, value=56, time=4),
    Message('control_change', channel=10, control=11, value=33, time=0),
    Message('control_change', channel=10, control=1, value=56, time=0),
    Message('control_change', channel=10, control=11, value=33, time=1),
    Message('control_change', channel=10, control=1, value=50, time=3),
    Message('control_change', channel=10, control=1, value=44, time=2),
    Message('control_change', channel=10, control=1, value=36, time=4),
    Message('control_change', channel=10, control=1, value=34, time=2),
    Message('control_change', channel=10, control=1, value=32, time=1),
    Message('control_change', channel=10, control=11, value=33, time=0),
    Message('control_change', channel=10, control=11, value=31, time=0),
    Message('control_change', channel=10, control=1, value=29, time=2),
    Message('control_change', channel=10, control=1, value=21, time=2),
    Message('control_change', channel=10, control=1, value=15, time=2),
    Message('control_change', channel=10, control=1, value=9, time=2),
    Message('control_change', channel=10, control=1, value=5, time=2),
    Message('control_change', channel=10, control=1, value=3, time=1),
    Message('control_change', channel=10, control=11, value=29, time=0),
    Message('control_change', channel=10, control=11, value=29, time=1),
    Message('pitchwheel', channel=10, pitch=8191, time=0),
    Message('pitchwheel', channel=10, pitch=8046, time=0),
    Message('control_change', channel=10, control=1, value=0, time=0),
    Message('pitchwheel', channel=10, pitch=7901, time=4),
    Message('pitchwheel', channel=10, pitch=7756, time=2),
    Message('pitchwheel', channel=10, pitch=7611, time=3),
    Message('control_change', channel=10, control=11, value=29, time=3),
    Message('control_change', channel=10, control=11, value=28, time=0),
    Message('pitchwheel', channel=10, pitch=7611, time=11),
    Message('pitchwheel', channel=10, pitch=7466, time=0),
    Message('control_change', channel=10, control=11, value=28, time=1),
    Message('control_change', channel=10, control=11, value=26, time=0),
    Message('pitchwheel', channel=10, pitch=6886, time=2),
    Message('pitchwheel', channel=10, pitch=6596, time=1),
    Message('pitchwheel', channel=10, pitch=6451, time=2),
    Message('pitchwheel', channel=10, pitch=5871, time=2),
    Message('pitchwheel', channel=10, pitch=5146, time=2),
    Message('pitchwheel', channel=10, pitch=4724, time=2),
    Message('control_change', channel=10, control=11, value=24, time=0),
    Message('pitchwheel', channel=10, pitch=4566, time=0),
    Message('control_change', channel=10, control=11, value=24, time=1),
    Message('pitchwheel', channel=10, pitch=3841, time=1),
    Message('pitchwheel', channel=10, pitch=2971, time=3),
    Message('pitchwheel', channel=10, pitch=2102, time=2),
    Message('pitchwheel', channel=10, pitch=1522, time=2),
    Message('pitchwheel', channel=10, pitch=1087, time=2),
    Message('pitchwheel', channel=10, pitch=908, time=1),
    Message('pitchwheel', channel=10, pitch=507, time=1),
    Message('control_change', channel=10, control=11, value=24, time=0),
    Message('control_change', channel=10, control=11, value=25, time=0),
    Message('pitchwheel', channel=10, pitch=0, time=2),
    Message('control_change', channel=10, control=11, value=26, time=9),
    Message('control_change', channel=10, control=11, value=27, time=1),
    Message('note_off', channel=10, note=63, velocity=64, time=5),
    Message('note_off', channel=10, note=58, velocity=64, time=4),
    Message('note_off', channel=10, note=61, velocity=64, time=0),
    Message('control_change', channel=10, control=11, value=27, time=3),
    Message('control_change', channel=10, control=11, value=29, time=0),
    Message('control_change', channel=10, control=11, value=29, time=11),
    Message('control_change', channel=10, control=11, value=30, time=1),
    Message('pitchwheel', channel=10, pitch=0, time=7),
    Message('pitchwheel', channel=10, pitch=-56, time=0),
    Message('pitchwheel', channel=10, pitch=-170, time=2),
    Message('pitchwheel', channel=10, pitch=-241, time=2),
    Message('pitchwheel', channel=10, pitch=-283, time=0),
    Message('control_change', channel=10, control=11, value=30, time=1),
    Message('control_change', channel=10, control=11, value=32, time=0),
    Message('pitchwheel', channel=10, pitch=-510, time=1),
    Message('pitchwheel', channel=10, pitch=-963, time=3),
    Message('pitchwheel', channel=10, pitch=-1303, time=2),
    Message('pitchwheel', channel=10, pitch=-1643, time=2),
    Message('pitchwheel', channel=10, pitch=-2097, time=2),
    Message('note_on', channel=10, note=61, velocity=66, time=0),
    Message('pitchwheel', channel=10, pitch=-2220, time=1),
    Message('control_change', channel=10, control=11, value=33, time=0),
    Message('control_change', channel=10, control=11, value=34, time=1),
    Message('pitchwheel', channel=10, pitch=-2437, time=0),
    Message('pitchwheel', channel=10, pitch=-2777, time=3),
    Message('note_on', channel=10, note=65, velocity=59, time=0),
    Message('pitchwheel', channel=10, pitch=-3344, time=1),
    Message('pitchwheel', channel=10, pitch=-3571, time=2),
    Message('pitchwheel', channel=10, pitch=-3797, time=3),
    Message('pitchwheel', channel=10, pitch=-3911, time=1),
    Message('pitchwheel', channel=10, pitch=-3922, time=1),
    Message('pitchwheel', channel=10, pitch=-4024, time=1),
    Message('control_change', channel=10, control=11, value=34, time=0),
    Message('control_change', channel=10, control=11, value=35, time=0),
    Message('note_on', channel=10, note=72, velocity=29, time=2),
    Message('pitchwheel', channel=10, pitch=-4138, time=1),
    Message('control_change', channel=10, control=2, value=0, time=0),
    Message('control_change', channel=10, control=2, value=4, time=0),
    Message('note_on', channel=10, note=68, velocity=6, time=0),
    Message('pitchwheel', channel=10, pitch=-4364, time=2),
    Message('pitchwheel', channel=10, pitch=-4478, time=2),
    Message('pitchwheel', channel=10, pitch=-4591, time=2),
    Message('pitchwheel', channel=10, pitch=-4678, time=2),
    Message('control_change', channel=10, control=2, value=7, time=0),
    Message('control_change', channel=10, control=11, value=36, time=0),
    Message('pitchwheel', channel=10, pitch=-4704, time=0),
    Message('control_change', channel=10, control=2, value=8, time=1),
    Message('control_change', channel=10, control=11, value=37, time=0),
    Message('pitchwheel', channel=10, pitch=-4818, time=1),
    Message('pitchwheel', channel=10, pitch=-4931, time=2),
    Message('pitchwheel', channel=10, pitch=-5044, time=2),
    Message('pitchwheel', channel=10, pitch=-5271, time=2),
    Message('control_change', channel=10, control=2, value=12, time=0),
    Message('pitchwheel', channel=10, pitch=-5333, time=4),
    Message('control_change', channel=10, control=11, value=37, time=2),
    Message('control_change', channel=10, control=11, value=38, time=0),
    Message('pitchwheel', channel=10, pitch=-5385, time=0),
    Message('pitchwheel', channel=10, pitch=-5498, time=2),
    Message('pitchwheel', channel=10, pitch=-5611, time=2),
    Message('pitchwheel', channel=10, pitch=-5725, time=3),
    Message('pitchwheel', channel=10, pitch=-5951, time=2),
    Message('pitchwheel', channel=10, pitch=-6002, time=1),
    Message('control_change', channel=10, control=11, value=39, time=0),
    Message('pitchwheel', channel=10, pitch=-6065, time=1),
    Message('control_change', channel=10, control=11, value=40, time=0),
    Message('pitchwheel', channel=10, pitch=-6178, time=6),
    Message('pitchwheel', channel=10, pitch=-6292, time=3),
    Message('pitchwheel', channel=10, pitch=-6317, time=2),
    Message('control_change', channel=10, control=11, value=40, time=1),
    Message('control_change', channel=10, control=11, value=42, time=0),
    Message('pitchwheel', channel=10, pitch=-6405, time=3),
    Message('pitchwheel', channel=10, pitch=-6518, time=1),
    Message('pitchwheel', channel=10, pitch=-6632, time=2),
    Message('pitchwheel', channel=10, pitch=-6745, time=4),
    Message('pitchwheel', channel=10, pitch=-6748, time=1),
    Message('control_change', channel=10, control=11, value=42, time=0),
    Message('control_change', channel=10, control=11, value=43, time=1),
    Message('pitchwheel', channel=10, pitch=-6858, time=5),
    Message('pitchwheel', channel=10, pitch=-6972, time=2),
    Message('pitchwheel', channel=10, pitch=-7085, time=2),
    Message('pitchwheel', channel=10, pitch=-7178, time=2),
    Message('pitchwheel', channel=10, pitch=-7199, time=0),
    Message('control_change', channel=10, control=11, value=43, time=1),
    Message('control_change', channel=10, control=11, value=45, time=0),
    Message('pitchwheel', channel=10, pitch=-7312, time=5),
    Message('pitchwheel', channel=10, pitch=-7410, time=6),
    Message('control_change', channel=10, control=11, value=45, time=0),
    Message('pitchwheel', channel=10, pitch=-7425, time=0),
    Message('control_change', channel=10, control=11, value=46, time=1),
    Message('pitchwheel', channel=10, pitch=-7539, time=4),
    Message('pitchwheel', channel=10, pitch=-7652, time=2),
    Message('pitchwheel', channel=10, pitch=-7765, time=4),
    Message('pitchwheel', channel=10, pitch=-7796, time=1),
    Message('pitchwheel', channel=10, pitch=-7879, time=1),
    Message('control_change', channel=10, control=11, value=46, time=0),
    Message('control_change', channel=10, control=11, value=48, time=0),
    Message('control_change', channel=10, control=2, value=12, time=3),
    Message('control_change', channel=10, control=2, value=8, time=0),
    Message('pitchwheel', channel=10, pitch=-7992, time=1),
    Message('control_change', channel=10, control=11, value=49, time=7),
    Message('control_change', channel=10, control=11, value=50, time=1),
    Message('pitchwheel', channel=10, pitch=-7992, time=4),
    Message('pitchwheel', channel=10, pitch=-8105, time=0),
    Message('pitchwheel', channel=10, pitch=-8192, time=5),
    Message('control_change', channel=10, control=2, value=8, time=0),
    Message('control_change', channel=10, control=2, value=4, time=0),
    Message('control_change', channel=10, control=2, value=3, time=2),
    Message('control_change', channel=10, control=11, value=50, time=1),
    Message('control_change', channel=10, control=11, value=51, time=0),
    Message('control_change', channel=10, control=2, value=0, time=7),
    Message('control_change', channel=10, control=11, value=52, time=4),
    Message('control_change', channel=10, control=11, value=53, time=1),
    Message('control_change', channel=10, control=11, value=53, time=13),
    Message('control_change', channel=10, control=11, value=54, time=0),
    Message('control_change', channel=10, control=11, value=55, time=10),
    Message('control_change', channel=10, control=11, value=56, time=1),
    Message('note_off', channel=10, note=27, velocity=64, time=5),
    Message('control_change', channel=10, control=11, value=56, time=6),
    Message('control_change', channel=10, control=11, value=57, time=1),
    Message('control_change', channel=10, control=11, value=57, time=12),
    Message('control_change', channel=10, control=11, value=59, time=0),
    Message('control_change', channel=10, control=11, value=59, time=13),
    Message('control_change', channel=10, control=11, value=61, time=0),
    Message('control_change', channel=10, control=11, value=61, time=10),
    Message('control_change', channel=10, control=11, value=62, time=1),
    Message('control_change', channel=10, control=11, value=62, time=12),
    Message('control_change', channel=10, control=11, value=64, time=0),
    Message('control_change', channel=10, control=11, value=65, time=11),
    Message('control_change', channel=10, control=11, value=66, time=1),
    Message('control_change', channel=10, control=11, value=66, time=13),
    Message('control_change', channel=10, control=11, value=67, time=0),
    Message('control_change', channel=10, control=11, value=68, time=10),
    Message('control_change', channel=10, control=11, value=69, time=1),
    Message('control_change', channel=10, control=11, value=69, time=12),
    Message('control_change', channel=10, control=11, value=70, time=0),
    Message('control_change', channel=10, control=11, value=71, time=11),
    Message('control_change', channel=10, control=11, value=72, time=1),
    Message('control_change', channel=10, control=11, value=72, time=12),
    Message('control_change', channel=10, control=11, value=70, time=0),
    Message('control_change', channel=10, control=11, value=65, time=11),
    Message('control_change', channel=10, control=11, value=65, time=1),
    Message('control_change', channel=10, control=11, value=65, time=12),
    Message('control_change', channel=10, control=11, value=63, time=0),
    Message('control_change', channel=10, control=11, value=59, time=11),
    Message('control_change', channel=10, control=11, value=59, time=1),
    Message('control_change', channel=10, control=11, value=59, time=13),
    Message('control_change', channel=10, control=11, value=56, time=0),
    Message('control_change', channel=10, control=11, value=54, time=10),
    Message('control_change', channel=10, control=11, value=54, time=1),
    Message('control_change', channel=10, control=11, value=54, time=12),
    Message('control_change', channel=10, control=11, value=52, time=0),
    Message('control_change', channel=10, control=11, value=50, time=11),
    Message('control_change', channel=10, control=11, value=50, time=1),
    Message('control_change', channel=10, control=11, value=50, time=12),
    Message('control_change', channel=10, control=11, value=49, time=0),
    Message('control_change', channel=10, control=11, value=47, time=11),
    Message('control_change', channel=10, control=11, value=47, time=1),
    Message('control_change', channel=10, control=11, value=47, time=12),
    Message('control_change', channel=10, control=11, value=45, time=0),
    Message('control_change', channel=10, control=11, value=43, time=11),
    Message('control_change', channel=10, control=11, value=43, time=1),
    Message('control_change', channel=10, control=11, value=43, time=12),
    Message('control_change', channel=10, control=11, value=41, time=0),
    Message('control_change', channel=10, control=11, value=40, time=11),
    Message('control_change', channel=10, control=11, value=40, time=1),
    Message('control_change', channel=10, control=11, value=40, time=13),
    Message('control_change', channel=10, control=11, value=38, time=0),
    Message('control_change', channel=10, control=11, value=34, time=10),
    Message('control_change', channel=10, control=11, value=34, time=1),
    Message('control_change', channel=10, control=11, value=34, time=24),
    Message('control_change', channel=10, control=11, value=32, time=0),
    Message('control_change', channel=10, control=11, value=32, time=12),
    Message('control_change', channel=10, control=11, value=31, time=0),
    Message('control_change', channel=10, control=11, value=29, time=11),
    Message('control_change', channel=10, control=11, value=29, time=1),
    Message('control_change', channel=10, control=11, value=29, time=12),
    Message('control_change', channel=10, control=11, value=27, time=0),
    Message('control_change', channel=10, control=1, value=0, time=5),
    Message('control_change', channel=10, control=1, value=1, time=0),
    Message('control_change', channel=10, control=1, value=4, time=6),
    Message('control_change', channel=10, control=1, value=5, time=1),
    Message('control_change', channel=10, control=1, value=5, time=12),
    Message('control_change', channel=10, control=1, value=9, time=0),
    Message('control_change', channel=10, control=1, value=9, time=25),
    Message('control_change', channel=10, control=1, value=13, time=0),
    Message('control_change', channel=10, control=1, value=13, time=17),
    Message('control_change', channel=10, control=1, value=17, time=0),
    Message('control_change', channel=10, control=1, value=17, time=18),
    Message('control_change', channel=10, control=1, value=21, time=0),
    Message('control_change', channel=10, control=1, value=25, time=11),
    Message('control_change', channel=10, control=11, value=27, time=13),
    Message('control_change', channel=10, control=11, value=25, time=0),
    Message('control_change', channel=10, control=1, value=25, time=1),
    Message('control_change', channel=10, control=1, value=29, time=0),
    Message('control_change', channel=10, control=1, value=31, time=10),
    Message('control_change', channel=10, control=1, value=32, time=0),
    Message('control_change', channel=10, control=11, value=25, time=1),
    Message('control_change', channel=10, control=11, value=23, time=0),
    Message('control_change', channel=10, control=1, value=36, time=5),
    Message('control_change', channel=10, control=1, value=39, time=6),
    Message('control_change', channel=10, control=11, value=22, time=0),
    Message('control_change', channel=10, control=1, value=40, time=1),
    Message('control_change', channel=10, control=11, value=22, time=0),
    Message('control_change', channel=10, control=1, value=44, time=8),
    Message('control_change', channel=10, control=1, value=44, time=23),
    Message('control_change', channel=10, control=1, value=50, time=0),
    Message('control_change', channel=10, control=11, value=22, time=5),
    Message('control_change', channel=10, control=11, value=18, time=0),
    Message('control_change', channel=10, control=1, value=50, time=8),
    Message('control_change', channel=10, control=1, value=54, time=0),
    Message('control_change', channel=10, control=1, value=57, time=3),
    Message('control_change', channel=10, control=11, value=16, time=0),
    Message('control_change', channel=10, control=1, value=58, time=1),
    Message('control_change', channel=10, control=11, value=16, time=0),
    Message('control_change', channel=10, control=1, value=62, time=4),
    Message('control_change', channel=10, control=1, value=65, time=4),
    Message('control_change', channel=10, control=1, value=66, time=3),
    Message('control_change', channel=10, control=11, value=16, time=1),
    Message('control_change', channel=10, control=11, value=14, time=0),
    Message('control_change', channel=10, control=1, value=69, time=3),
    Message('control_change', channel=10, control=1, value=75, time=5),
    Message('control_change', channel=10, control=11, value=13, time=3),
    Message('control_change', channel=10, control=11, value=13, time=1),
    Message('control_change', channel=10, control=11, value=11, time=11),
    Message('control_change', channel=10, control=11, value=11, time=1),
    Message('control_change', channel=10, control=1, value=75, time=3),
    Message('control_change', channel=10, control=1, value=79, time=0),
    Message('control_change', channel=10, control=11, value=11, time=9),
    Message('control_change', channel=10, control=11, value=9, time=0),
    Message('control_change', channel=10, control=1, value=79, time=9),
    Message('control_change', channel=10, control=1, value=83, time=0),
    Message('control_change', channel=10, control=1, value=84, time=2),
    Message('control_change', channel=10, control=1, value=87, time=3),
    Message('control_change', channel=10, control=1, value=91, time=2),
    Message('control_change', channel=10, control=11, value=9, time=8),
    Message('control_change', channel=10, control=11, value=3, time=0),
    Message('control_change', channel=10, control=1, value=91, time=4),
    Message('control_change', channel=10, control=1, value=95, time=0),
    Message('control_change', channel=10, control=11, value=3, time=8),
    Message('control_change', channel=10, control=11, value=0, time=0),
    Message('control_change', channel=10, control=1, value=95, time=7),
    Message('control_change', channel=10, control=1, value=98, time=0),
    Message('control_change', channel=10, control=1, value=100, time=4),
    Message('control_change', channel=10, control=1, value=102, time=2),
    Message('pitchwheel', channel=10, pitch=-8192, time=17),
    Message('pitchwheel', channel=10, pitch=-7765, time=0),
    Message('pitchwheel', channel=10, pitch=-7539, time=2),
    Message('pitchwheel', channel=10, pitch=-7085, time=2),
    Message('pitchwheel', channel=10, pitch=-6961, time=1),
    Message('note_off', channel=10, note=68, velocity=64, time=1),
    Message('pitchwheel', channel=10, pitch=-6745, time=0),
    Message('pitchwheel', channel=10, pitch=-6405, time=2),
    Message('control_change', channel=10, control=1, value=102, time=0),
    Message('control_change', channel=10, control=1, value=108, time=0),
    Message('pitchwheel', channel=10, pitch=-5951, time=2),
    Message('pitchwheel', channel=10, pitch=-5498, time=2),
    Message('pitchwheel', channel=10, pitch=-5044, time=2),
    Message('pitchwheel', channel=10, pitch=-4818, time=2),
    Message('note_off', channel=10, note=65, velocity=64, time=0),
    Message('pitchwheel', channel=10, pitch=-4727, time=1),
    Message('pitchwheel', channel=10, pitch=-4364, time=1),
    Message('note_off', channel=10, note=72, velocity=64, time=2),
    Message('pitchwheel', channel=10, pitch=-3911, time=0),
    Message('pitchwheel', channel=10, pitch=-3797, time=3),
    Message('pitchwheel', channel=10, pitch=-3457, time=1),
    Message('pitchwheel', channel=10, pitch=-3344, time=3),
    Message('pitchwheel', channel=10, pitch=-3117, time=1),
    Message('pitchwheel', channel=10, pitch=-3106, time=1),
    Message('pitchwheel', channel=10, pitch=-3004, time=2),
    Message('pitchwheel', channel=10, pitch=-2664, time=2),
    Message('pitchwheel', channel=10, pitch=-2097, time=2),
    Message('pitchwheel', channel=10, pitch=-1530, time=2),
    Message('pitchwheel', channel=10, pitch=-850, time=2),
    Message('pitchwheel', channel=10, pitch=-467, time=2),
    Message('pitchwheel', channel=10, pitch=-170, time=1),
    Message('note_off', channel=10, note=61, velocity=64, time=0),
    Message('pitchwheel', channel=10, pitch=0, time=2),
    Message('control_change', channel=10, control=1, value=108, time=1),
    Message('control_change', channel=10, control=1, value=98, time=0),
    Message('control_change', channel=10, control=1, value=95, time=7),
    Message('control_change', channel=10, control=1, value=94, time=1),
    Message('control_change', channel=10, control=1, value=91, time=3),
    Message('control_change', channel=10, control=1, value=87, time=4),
    Message('control_change', channel=10, control=1, value=83, time=2),
    Message('control_change', channel=10, control=1, value=79, time=2),
    Message('control_change', channel=10, control=1, value=78, time=1),
    Message('control_change', channel=10, control=1, value=75, time=1),
    Message('control_change', channel=10, control=1, value=69, time=2),
    Message('control_change', channel=10, control=1, value=62, time=3),
    Message('control_change', channel=10, control=1, value=54, time=1),
    Message('control_change', channel=10, control=1, value=44, time=2),
    Message('control_change', channel=10, control=1, value=34, time=2),
    Message('control_change', channel=10, control=1, value=32, time=1),
    Message('control_change', channel=10, control=1, value=21, time=2),
    Message('control_change', channel=10, control=1, value=7, time=1),
    Message('control_change', channel=10, control=1, value=0, time=3),
    Message('control_change', channel=10, control=91, value=0, time=1668),
    Message('control_change', channel=10, control=91, value=57, time=0),
    Message('note_on', channel=10, note=54, velocity=107, time=214),
    Message('note_on', channel=10, note=38, velocity=96, time=0),
    Message('note_on', channel=10, note=45, velocity=98, time=0),
    Message('control_change', channel=10, control=11, value=0, time=17),
    Message('control_change', channel=10, control=11, value=0, time=0),
    Message('control_change', channel=10, control=11, value=0, time=3),
    Message('control_change', channel=10, control=11, value=1, time=6),
    Message('control_change', channel=10, control=11, value=1, time=6),
    Message('control_change', channel=10, control=11, value=2, time=4),
    Message('control_change', channel=10, control=11, value=2, time=8),
    Message('control_change', channel=10, control=11, value=3, time=2),
    Message('control_change', channel=10, control=11, value=4, time=7),
    Message('control_change', channel=10, control=11, value=4, time=3),
    Message('control_change', channel=10, control=11, value=5, time=7),
    Message('control_change', channel=10, control=11, value=5, time=5),
    Message('control_change', channel=10, control=11, value=6, time=4),
    Message('control_change', channel=10, control=11, value=6, time=8),
    Message('control_change', channel=10, control=11, value=7, time=2),
    Message('control_change', channel=10, control=11, value=8, time=8),
    Message('control_change', channel=10, control=11, value=8, time=2),
    Message('control_change', channel=10, control=11, value=9, time=7),
    Message('control_change', channel=10, control=11, value=9, time=5),
    Message('control_change', channel=10, control=11, value=10, time=5),
    Message('control_change', channel=10, control=11, value=10, time=7),
    Message('control_change', channel=10, control=11, value=11, time=1),
    Message('control_change', channel=10, control=11, value=12, time=9),
    Message('control_change', channel=10, control=11, value=12, time=2),
    Message('control_change', channel=10, control=11, value=13, time=8),
    Message('control_change', channel=10, control=11, value=13, time=4),
    Message('control_change', channel=10, control=11, value=14, time=6),
    Message('control_change', channel=10, control=11, value=14, time=6),
    Message('control_change', channel=10, control=11, value=15, time=1),
    Message('control_change', channel=10, control=11, value=15, time=15),
    Message('control_change', channel=10, control=11, value=16, time=0),
    Message('control_change', channel=10, control=11, value=16, time=8),
    Message('control_change', channel=10, control=11, value=17, time=4),
    Message('control_change', channel=10, control=11, value=17, time=38),
    Message('control_change', channel=10, control=11, value=18, time=0),
    Message('control_change', channel=10, control=11, value=18, time=39),
    Message('control_change', channel=10, control=11, value=19, time=0),
    Message('control_change', channel=10, control=11, value=19, time=38),
    Message('control_change', channel=10, control=11, value=20, time=0),
    Message('control_change', channel=10, control=11, value=20, time=38),
    Message('control_change', channel=10, control=11, value=21, time=0),
    Message('control_change', channel=10, control=11, value=21, time=39),
    Message('control_change', channel=10, control=11, value=22, time=0),
    Message('control_change', channel=10, control=11, value=22, time=39),
    Message('control_change', channel=10, control=11, value=23, time=0),
    Message('control_change', channel=10, control=11, value=23, time=38),
    Message('control_change', channel=10, control=11, value=24, time=0),
    Message('control_change', channel=10, control=11, value=24, time=38),
    Message('control_change', channel=10, control=11, value=25, time=0),
    Message('control_change', channel=10, control=21, value=127, time=18),
    Message('control_change', channel=10, control=21, value=127, time=0),
    Message('control_change', channel=10, control=11, value=25, time=21),
    Message('control_change', channel=10, control=11, value=26, time=0),
    Message('control_change', channel=10, control=11, value=26, time=38),
    Message('control_change', channel=10, control=11, value=27, time=0),
    Message('control_change', channel=10, control=11, value=27, time=38),
    Message('control_change', channel=10, control=11, value=28, time=0),
    Message('control_change', channel=10, control=11, value=28, time=40),
    Message('control_change', channel=10, control=11, value=29, time=0),
    Message('control_change', channel=10, control=11, value=29, time=47),
    Message('control_change', channel=10, control=11, value=30, time=0),
    Message('control_change', channel=10, control=11, value=30, time=65),
    Message('control_change', channel=10, control=11, value=31, time=0),
    Message('control_change', channel=10, control=11, value=31, time=65),
    Message('control_change', channel=10, control=11, value=32, time=0),
    Message('control_change', channel=10, control=11, value=32, time=65),
    Message('control_change', channel=10, control=11, value=33, time=0),
    Message('control_change', channel=10, control=11, value=33, time=65),
    Message('control_change', channel=10, control=11, value=34, time=0),
    Message('control_change', channel=10, control=11, value=34, time=65),
    Message('control_change', channel=10, control=11, value=35, time=0),
    Message('control_change', channel=10, control=11, value=35, time=66),
    Message('control_change', channel=10, control=11, value=36, time=0),
    Message('control_change', channel=10, control=11, value=36, time=63),
    Message('control_change', channel=10, control=11, value=37, time=0),
    Message('control_change', channel=10, control=11, value=37, time=65),
    Message('control_change', channel=10, control=11, value=38, time=0),
    Message('control_change', channel=10, control=11, value=38, time=47),
    Message('control_change', channel=10, control=11, value=42, time=0),
    Message('note_on', channel=10, note=40, velocity=74, time=30),
    Message('note_on', channel=10, note=56, velocity=89, time=0),
    Message('control_change', channel=10, control=11, value=42, time=28),
    Message('control_change', channel=10, control=11, value=43, time=0),
    Message('note_off', channel=10, note=38, velocity=64, time=4),
    Message('note_off', channel=10, note=54, velocity=64, time=0),
    Message('control_change', channel=10, control=11, value=43, time=55),
    Message('control_change', channel=10, control=11, value=44, time=0),
    Message('control_change', channel=10, control=11, value=44, time=58),
    Message('control_change', channel=10, control=11, value=45, time=0),
    Message('control_change', channel=10, control=11, value=45, time=59),
    Message('control_change', channel=10, control=11, value=46, time=0),
    Message('control_change', channel=10, control=11, value=46, time=58),
    Message('control_change', channel=10, control=11, value=47, time=0),
    Message('control_change', channel=10, control=11, value=47, time=61),
    Message('control_change', channel=10, control=11, value=48, time=0),
    Message('note_on', channel=10, note=42, velocity=75, time=19),
    Message('note_on', channel=10, note=52, velocity=82, time=0),
    Message('note_on', channel=10, note=57, velocity=86, time=1),
    Message('note_off', channel=10, note=40, velocity=64, time=8),
    Message('note_off', channel=10, note=56, velocity=64, time=4),
    Message('control_change', channel=10, control=11, value=48, time=1),
    Message('control_change', channel=10, control=11, value=50, time=0),
    Message('note_off', channel=10, note=45, velocity=64, time=17),
    Message('control_change', channel=10, control=11, value=50, time=24),
    Message('control_change', channel=10, control=11, value=47, time=0),
    Message('control_change', channel=10, control=11, value=47, time=80),
    Message('control_change', channel=10, control=11, value=49, time=0),
    Message('note_on', channel=10, note=50, velocity=96, time=25),
    Message('note_off', channel=10, note=52, velocity=64, time=6),
    Message('control_change', channel=10, control=11, value=49, time=135),
    Message('control_change', channel=10, control=11, value=55, time=0),
    Message('control_change', channel=10, control=11, value=50, time=6),
    Message('control_change', channel=10, control=11, value=51, time=3),
    Message('control_change', channel=10, control=11, value=51, time=3),
    Message('control_change', channel=10, control=11, value=52, time=4),
    Message('control_change', channel=10, control=11, value=53, time=3),
    Message('control_change', channel=10, control=11, value=54, time=3),
    Message('note_off', channel=10, note=42, velocity=64, time=1),
    Message('control_change', channel=10, control=11, value=54, time=1),
    Message('note_on', channel=10, note=52, velocity=100, time=2),
    Message('control_change', channel=10, control=11, value=55, time=3),
    Message('control_change', channel=10, control=11, value=55, time=3),
    Message('control_change', channel=10, control=11, value=55, time=4),
    Message('note_off', channel=10, note=50, velocity=64, time=1),
    Message('control_change', channel=10, control=11, value=56, time=2),
    Message('control_change', channel=10, control=11, value=57, time=3),
    Message('control_change', channel=10, control=11, value=57, time=6),
    Message('control_change', channel=10, control=11, value=58, time=0),
    Message('control_change', channel=10, control=11, value=59, time=4),
    Message('control_change', channel=10, control=11, value=60, time=3),
    Message('control_change', channel=10, control=11, value=60, time=5),
    Message('note_on', channel=10, note=44, velocity=104, time=1),
    Message('control_change', channel=10, control=11, value=61, time=0),
    Message('control_change', channel=10, control=11, value=62, time=4),
    Message('control_change', channel=10, control=11, value=63, time=6),
    Message('control_change', channel=10, control=11, value=63, time=1),
    Message('control_change', channel=10, control=11, value=64, time=2),
    Message('control_change', channel=10, control=11, value=64, time=7),
    Message('control_change', channel=10, control=11, value=64, time=3),
    Message('control_change', channel=10, control=11, value=65, time=1),
    Message('control_change', channel=10, control=11, value=65, time=17),
    Message('control_change', channel=10, control=11, value=64, time=0),
    Message('control_change', channel=10, control=11, value=64, time=25),
    Message('control_change', channel=10, control=11, value=64, time=0),
    Message('control_change', channel=10, control=11, value=64, time=30),
    Message('control_change', channel=10, control=11, value=63, time=0),
    Message('control_change', channel=10, control=11, value=63, time=25),
    Message('control_change', channel=10, control=11, value=62, time=0),
    Message('note_on', channel=10, note=45, velocity=82, time=9),
    Message('note_off', channel=10, note=44, velocity=64, time=6),
    Message('control_change', channel=10, control=11, value=62, time=11),
    Message('control_change', channel=10, control=11, value=61, time=0),
    Message('control_change', channel=10, control=11, value=61, time=29),
    Message('control_change', channel=10, control=11, value=60, time=0),
    Message('control_change', channel=10, control=11, value=60, time=28),
    Message('control_change', channel=10, control=11, value=59, time=0),
    Message('control_change', channel=10, control=11, value=59, time=24),
    Message('control_change', channel=10, control=11, value=58, time=0),
    Message('control_change', channel=10, control=11, value=58, time=31),
    Message('control_change', channel=10, control=11, value=57, time=0),
    Message('note_on', channel=10, note=50, velocity=102, time=34),
    Message('note_off', channel=10, note=52, velocity=64, time=2),
    Message('note_off', channel=10, note=45, velocity=64, time=7),
    Message('control_change', channel=10, control=11, value=57, time=36),
    Message('control_change', channel=10, control=11, value=61, time=0),
    Message('control_change', channel=10, control=11, value=61, time=84),
    Message('control_change', channel=10, control=11, value=61, time=0),
    Message('control_change', channel=10, control=11, value=61, time=41),
    Message('control_change', channel=10, control=11, value=63, time=0),
    Message('control_change', channel=10, control=11, value=63, time=39),
    Message('control_change', channel=10, control=11, value=66, time=0),
    Message('control_change', channel=10, control=11, value=66, time=21),
    Message('control_change', channel=10, control=11, value=68, time=0),
    Message('control_change', channel=10, control=11, value=68, time=40),
    Message('control_change', channel=10, control=11, value=71, time=0),
    Message('note_on', channel=10, note=40, velocity=84, time=36),
    Message('note_on', channel=10, note=56, velocity=58, time=2),
    Message('note_off', channel=10, note=57, velocity=64, time=19),
    Message('control_change', channel=10, control=11, value=71, time=146),
    Message('control_change', channel=10, control=11, value=64, time=0),
    Message('control_change', channel=10, control=11, value=64, time=20),
    Message('control_change', channel=10, control=11, value=61, time=0),
    Message('control_change', channel=10, control=11, value=61, time=20),
    Message('control_change', channel=10, control=11, value=60, time=0),
    Message('control_change', channel=10, control=11, value=60, time=20),
    Message('control_change', channel=10, control=11, value=55, time=0),
    Message('control_change', channel=10, control=11, value=55, time=22),
    Message('control_change', channel=10, control=11, value=50, time=0),
    Message('control_change', channel=10, control=11, value=50, time=19),
    Message('control_change', channel=10, control=11, value=50, time=0),
    Message('control_change', channel=10, control=11, value=50, time=20),
    Message('control_change', channel=10, control=11, value=47, time=0),
    Message('note_off', channel=10, note=40, velocity=64, time=1),
    Message('note_on', channel=10, note=42, velocity=73, time=55),
    Message('note_on', channel=10, note=54, velocity=96, time=4),
    Message('note_off', channel=10, note=56, velocity=64, time=7),
    Message('control_change', channel=10, control=11, value=47, time=117),
    Message('control_change', channel=10, control=11, value=55, time=0),
    Message('control_change', channel=10, control=11, value=55, time=19),
    Message('control_change', channel=10, control=11, value=58, time=0),
    Message('note_on', channel=10, note=52, velocity=98, time=29),
    Message('note_off', channel=10, note=50, velocity=64, time=10),
    Message('control_change', channel=10, control=11, value=58, time=2),
    Message('control_change', channel=10, control=11, value=60, time=0),
    Message('control_change', channel=10, control=11, value=60, time=103),
    Message('control_change', channel=10, control=11, value=63, time=0),
    Message('note_off', channel=10, note=42, velocity=64, time=23),
    Message('note_on', channel=10, note=44, velocity=66, time=24),
    Message('note_off', channel=10, note=54, velocity=64, time=33),
    Message('note_on', channel=10, note=45, velocity=71, time=127),
    Message('note_off', channel=10, note=44, velocity=64, time=9),
    Message('note_on', channel=10, note=38, velocity=110, time=146),
    Message('note_on', channel=10, note=59, velocity=50, time=164),
    Message('control_change', channel=10, control=11, value=63, time=119),
    Message('control_change', channel=10, control=11, value=69, time=0),
    Message('control_change', channel=10, control=11, value=69, time=23),
    Message('control_change', channel=10, control=11, value=71, time=0),
    Message('note_on', channel=10, note=56, velocity=50, time=16),
    Message('note_on', channel=10, note=40, velocity=95, time=2),
    Message('control_change', channel=10, control=11, value=71, time=0),
    Message('control_change', channel=10, control=11, value=76, time=0),
    Message('note_off', channel=10, note=38, velocity=64, time=0),
    Message('control_change', channel=10, control=11, value=76, time=20),
    Message('control_change', channel=10, control=11, value=77, time=0),
    Message('note_off', channel=10, note=45, velocity=64, time=10),
    Message('control_change', channel=10, control=11, value=77, time=31),
    Message('control_change', channel=10, control=11, value=79, time=0),
    Message('control_change', channel=10, control=11, value=79, time=60),
    Message('control_change', channel=10, control=11, value=82, time=0),
    Message('note_on', channel=10, note=61, velocity=66, time=39),
    Message('note_on', channel=10, note=57, velocity=57, time=1),
    Message('control_change', channel=10, control=11, value=82, time=1),
    Message('control_change', channel=10, control=11, value=83, time=0),
    Message('note_off', channel=10, note=56, velocity=64, time=8),
    Message('note_off', channel=10, note=59, velocity=64, time=2),
    Message('control_change', channel=10, control=11, value=83, time=92),
    Message('control_change', channel=10, control=11, value=85, time=0),
    Message('control_change', channel=10, control=11, value=85, time=40),
    Message('control_change', channel=10, control=11, value=87, time=0),
    Message('note_off', channel=10, note=40, velocity=64, time=20),
    Message('note_on', channel=10, note=42, velocity=78, time=0),
    Message('control_change', channel=10, control=11, value=87, time=1),
    Message('control_change', channel=10, control=11, value=90, time=0),
    Message('note_on', channel=10, note=50, velocity=80, time=0),
    Message('note_on', channel=10, note=54, velocity=62, time=1),
    Message('note_off', channel=10, note=52, velocity=64, time=4),
    Message('note_off', channel=10, note=57, velocity=64, time=3),
    Message('control_change', channel=10, control=11, value=90, time=133),
    Message('control_change', channel=10, control=11, value=91, time=0),
    Message('note_on', channel=10, note=52, velocity=62, time=3),
    Message('note_on', channel=10, note=62, velocity=80, time=0),
    Message('note_off', channel=10, note=61, velocity=64, time=6),
    Message('note_off', channel=10, note=50, velocity=64, time=3),
    Message('control_change', channel=10, control=11, value=91, time=8),
    Message('control_change', channel=10, control=11, value=94, time=0),
    Message('note_on', channel=10, note=44, velocity=82, time=147),
    Message('note_on', channel=10, note=64, velocity=80, time=5),
    Message('note_on', channel=10, note=59, velocity=64, time=0),
    Message('note_off', channel=10, note=62, velocity=64, time=6),
    Message('note_off', channel=10, note=54, velocity=64, time=2),
    Message('note_off', channel=10, note=42, velocity=64, time=1),
    Message('note_on', channel=10, note=45, velocity=78, time=163),
    Message('note_on', channel=10, note=61, velocity=73, time=3),
    Message('note_off', channel=10, note=44, velocity=64, time=6),
    Message('note_off', channel=10, note=59, velocity=64, time=2),
    Message('control_change', channel=10, control=11, value=94, time=29),
    Message('control_change', channel=10, control=11, value=88, time=0),
    Message('control_change', channel=10, control=11, value=88, time=21),
    Message('control_change', channel=10, control=11, value=85, time=0),
    Message('control_change', channel=10, control=11, value=85, time=20),
    Message('control_change', channel=10, control=11, value=79, time=0),
    Message('control_change', channel=10, control=11, value=79, time=20),
    Message('control_change', channel=10, control=11, value=76, time=0),
    Message('note_off', channel=10, note=52, velocity=64, time=13),
    Message('control_change', channel=10, control=11, value=76, time=8),
    Message('control_change', channel=10, control=11, value=71, time=0),
    Message('control_change', channel=10, control=11, value=71, time=20),
    Message('control_change', channel=10, control=11, value=63, time=0),
    Message('control_change', channel=10, control=11, value=63, time=20),
    Message('control_change', channel=10, control=11, value=60, time=0),
    Message('note_on', channel=10, note=38, velocity=55, time=3),
    Message('note_on', channel=10, note=54, velocity=54, time=1),
    Message('control_change', channel=10, control=11, value=60, time=16),
    Message('control_change', channel=10, control=11, value=58, time=0),
    Message('control_change', channel=10, control=11, value=58, time=20),
    Message('control_change', channel=10, control=11, value=55, time=0),
    Message('control_change', channel=10, control=11, value=55, time=83),
    Message('control_change', channel=10, control=11, value=53, time=0),
    Message('control_change', channel=10, control=11, value=53, time=19),
    Message('control_change', channel=10, control=11, value=50, time=0),
    Message('note_on', channel=10, note=59, velocity=55, time=9),
    Message('note_off', channel=10, note=61, velocity=64, time=8),
    Message('control_change', channel=10, control=11, value=50, time=43),
    Message('control_change', channel=10, control=11, value=50, time=0),
    Message('note_on', channel=10, note=57, velocity=55, time=110),
    Message('note_off', channel=10, note=59, velocity=64, time=8),
    Message('note_off', channel=10, note=38, velocity=64, time=19),
    Message('note_on', channel=10, note=40, velocity=65, time=8),
    Message('note_off', channel=10, note=45, velocity=64, time=68),
    Message('note_on', channel=10, note=56, velocity=46, time=54),
    Message('note_off', channel=10, note=54, velocity=64, time=9),
    Message('note_off', channel=10, note=57, velocity=64, time=7),
    Message('control_change', channel=10, control=11, value=50, time=84),
    Message('control_change', channel=10, control=11, value=42, time=0),
    Message('control_change', channel=10, control=11, value=42, time=18),
    Message('control_change', channel=10, control=11, value=41, time=0),
    Message('note_on', channel=10, note=57, velocity=55, time=46),
    Message('note_on', channel=10, note=50, velocity=85, time=1),
    Message('note_on', channel=10, note=42, velocity=62, time=0),
    Message('note_off', channel=10, note=40, velocity=64, time=12),
    Message('note_off', channel=10, note=56, velocity=64, time=58),
    Message('control_change', channel=10, control=11, value=41, time=130),
    Message('control_change', channel=10, control=11, value=38, time=0),
    Message('control_change', channel=10, control=11, value=38, time=12),
    Message('control_change', channel=10, control=11, value=36, time=0),
    Message('control_change', channel=10, control=11, value=36, time=24),
    Message('control_change', channel=10, control=11, value=34, time=0),
    Message('control_change', channel=10, control=11, value=32, time=5),
    Message('control_change', channel=10, control=11, value=31, time=7),
    Message('control_change', channel=10, control=11, value=31, time=12),
    Message('control_change', channel=10, control=11, value=30, time=0),
    Message('control_change', channel=10, control=11, value=30, time=24),
    Message('control_change', channel=10, control=11, value=26, time=0),
    Message('control_change', channel=10, control=11, value=26, time=48),
    Message('control_change', channel=10, control=11, value=26, time=0),
    Message('control_change', channel=10, control=11, value=26, time=24),
    Message('control_change', channel=10, control=11, value=23, time=0),
    Message('control_change', channel=10, control=11, value=23, time=24),
    Message('control_change', channel=10, control=11, value=22, time=0),
    Message('control_change', channel=10, control=11, value=20, time=5),
    Message('control_change', channel=10, control=11, value=19, time=7),
    Message('control_change', channel=10, control=11, value=19, time=24),
    Message('control_change', channel=10, control=11, value=17, time=0),
    Message('control_change', channel=10, control=11, value=16, time=5),
    Message('control_change', channel=10, control=11, value=15, time=7),
    Message('control_change', channel=10, control=11, value=14, time=5),
    Message('control_change', channel=10, control=11, value=14, time=7),
    Message('control_change', channel=10, control=11, value=14, time=24),
    Message('control_change', channel=10, control=11, value=11, time=0),
    Message('control_change', channel=10, control=11, value=11, time=24),
    Message('control_change', channel=10, control=11, value=9, time=0),
    Message('control_change', channel=10, control=11, value=9, time=48),
    Message('control_change', channel=10, control=11, value=7, time=0),
    Message('control_change', channel=10, control=11, value=7, time=12),
    Message('control_change', channel=10, control=11, value=6, time=0),
    Message('control_change', channel=10, control=11, value=6, time=13),
    Message('control_change', channel=10, control=11, value=0, time=0),
    Message('control_change', channel=10, control=11, value=0, time=11),
    Message('note_off', channel=10, note=57, velocity=64, time=12),
    Message('control_change', channel=10, control=11, value=0, time=0),
    Message('note_off', channel=10, note=64, velocity=64, time=1),
    Message('note_off', channel=10, note=42, velocity=64, time=2),
    Message('note_off', channel=10, note=50, velocity=64, time=0),
    Message('control_change', channel=10, control=11, value=0, time=24),
    Message('control_change', channel=10, control=11, value=36, time=0),
    Message('control_change', channel=10, control=91, value=57, time=447),
    Message('control_change', channel=10, control=91, value=57, time=0),
    Message('control_change', channel=10, control=91, value=57, time=960),
    Message('control_change', channel=10, control=91, value=57, time=0),
    Message('note_on', channel=10, note=61, velocity=127, time=72),
    Message('control_change', channel=10, control=11, value=36, time=437),
    Message('control_change', channel=10, control=11, value=36, time=0),
    Message('control_change', channel=10, control=11, value=36, time=11),
    Message('control_change', channel=10, control=11, value=37, time=6),
    Message('control_change', channel=10, control=11, value=37, time=1),
    Message('control_change', channel=10, control=11, value=38, time=5),
    Message('control_change', channel=10, control=11, value=38, time=6),
    Message('control_change', channel=10, control=11, value=38, time=1),
    Message('control_change', channel=10, control=11, value=39, time=4),
    Message('control_change', channel=10, control=11, value=39, time=6),
    Message('control_change', channel=10, control=11, value=39, time=2),
    Message('control_change', channel=10, control=11, value=40, time=4),
    Message('control_change', channel=10, control=11, value=40, time=6),
    Message('control_change', channel=10, control=11, value=40, time=2),
    Message('control_change', channel=10, control=11, value=41, time=4),
    Message('control_change', channel=10, control=11, value=42, time=5),
    Message('control_change', channel=10, control=11, value=42, time=6),
    Message('control_change', channel=10, control=11, value=42, time=6),
    Message('control_change', channel=10, control=11, value=42, time=3),
    Message('control_change', channel=10, control=11, value=43, time=3),
    Message('control_change', channel=10, control=11, value=44, time=5),
    Message('control_change', channel=10, control=11, value=44, time=6),
    Message('control_change', channel=10, control=11, value=44, time=6),
    Message('control_change', channel=10, control=11, value=44, time=4),
    Message('control_change', channel=10, control=11, value=45, time=3),
    Message('control_change', channel=10, control=11, value=46, time=6),
    Message('control_change', channel=10, control=11, value=46, time=6),
    Message('control_change', channel=10, control=11, value=47, time=6),
    Message('control_change', channel=10, control=11, value=47, time=6),
    Message('control_change', channel=10, control=11, value=48, time=5),
    Message('control_change', channel=10, control=11, value=48, time=6),
    Message('control_change', channel=10, control=11, value=49, time=6),
    Message('note_on', channel=10, note=51, velocity=127, time=1),
    Message('note_on', channel=10, note=63, velocity=127, time=0),
    Message('control_change', channel=10, control=11, value=49, time=3),
    Message('control_change', channel=10, control=11, value=50, time=2),
    Message('note_off', channel=10, note=61, velocity=64, time=0),
    Message('control_change', channel=10, control=11, value=50, time=6),
    Message('control_change', channel=10, control=11, value=50, time=6),
    Message('control_change', channel=10, control=11, value=51, time=5),
    Message('control_change', channel=10, control=11, value=51, time=5),
    Message('control_change', channel=10, control=11, value=52, time=1),
    Message('control_change', channel=10, control=11, value=52, time=6),
    Message('control_change', channel=10, control=11, value=52, time=5),
    Message('control_change', channel=10, control=11, value=53, time=0),
    Message('control_change', channel=10, control=11, value=53, time=6),
    Message('control_change', channel=10, control=11, value=54, time=5),
    Message('control_change', channel=10, control=11, value=54, time=6),
    Message('control_change', channel=10, control=11, value=55, time=6),
    Message('control_change', channel=10, control=11, value=55, time=1),
    Message('control_change', channel=10, control=11, value=56, time=5),
    Message('control_change', channel=10, control=11, value=56, time=6),
    Message('control_change', channel=10, control=11, value=56, time=6),
    Message('control_change', channel=10, control=11, value=57, time=5),
    Message('control_change', channel=10, control=11, value=57, time=6),
    Message('control_change', channel=10, control=11, value=58, time=6),
    Message('control_change', channel=10, control=11, value=58, time=8),
    Message('control_change', channel=10, control=11, value=58, time=6),
    Message('control_change', channel=10, control=11, value=57, time=11),
    Message('control_change', channel=10, control=11, value=57, time=10),
    Message('control_change', channel=10, control=11, value=56, time=3),
    Message('control_change', channel=10, control=11, value=56, time=6),
    Message('control_change', channel=10, control=11, value=56, time=10),
    Message('control_change', channel=10, control=11, value=56, time=10),
    Message('control_change', channel=10, control=11, value=55, time=9),
    Message('control_change', channel=10, control=11, value=54, time=1),
    Message('control_change', channel=10, control=11, value=54, time=11),
    Message('note_on', channel=10, note=54, velocity=127, time=7),
    Message('note_on', channel=10, note=66, velocity=127, time=0),
    Message('note_off', channel=10, note=51, velocity=64, time=1),
    Message('note_off', channel=10, note=63, velocity=64, time=0),
    Message('control_change', channel=10, control=11, value=54, time=2),
    Message('control_change', channel=10, control=11, value=53, time=3),
    Message('control_change', channel=10, control=11, value=53, time=6),
    Message('control_change', channel=10, control=11, value=53, time=10),
    Message('control_change', channel=10, control=11, value=52, time=8),
    Message('control_change', channel=10, control=11, value=52, time=2),
    Message('control_change', channel=10, control=11, value=52, time=16),
    Message('control_change', channel=10, control=11, value=52, time=0),
    Message('control_change', channel=10, control=11, value=51, time=4),
    Message('control_change', channel=10, control=11, value=51, time=17),
    Message('control_change', channel=10, control=11, value=50, time=0),
    Message('control_change', channel=10, control=11, value=50, time=17),
    Message('control_change', channel=10, control=11, value=50, time=0),
    Message('control_change', channel=10, control=11, value=50, time=14),
    Message('control_change', channel=10, control=11, value=50, time=0),
    Message('control_change', channel=10, control=11, value=50, time=18),
    Message('control_change', channel=10, control=11, value=49, time=0),
    Message('control_change', channel=10, control=11, value=49, time=15),
    Message('control_change', channel=10, control=11, value=48, time=0),
    Message('control_change', channel=10, control=11, value=48, time=15),
    Message('control_change', channel=10, control=11, value=48, time=0),
    Message('control_change', channel=10, control=11, value=48, time=17),
    Message('control_change', channel=10, control=11, value=47, time=0),
    Message('control_change', channel=10, control=11, value=47, time=16),
    Message('control_change', channel=10, control=11, value=47, time=0),
    Message('control_change', channel=10, control=11, value=47, time=15),
    Message('control_change', channel=10, control=11, value=46, time=0),
    Message('control_change', channel=10, control=11, value=46, time=18),
    Message('control_change', channel=10, control=11, value=46, time=0),
    Message('control_change', channel=10, control=11, value=46, time=15),
    Message('control_change', channel=10, control=11, value=45, time=0),
    Message('control_change', channel=10, control=11, value=45, time=15),
    Message('control_change', channel=10, control=11, value=44, time=0),
    Message('control_change', channel=10, control=11, value=44, time=17),
    Message('control_change', channel=10, control=11, value=44, time=0),
    Message('control_change', channel=10, control=11, value=44, time=16),
    Message('control_change', channel=10, control=11, value=44, time=0),
    Message('control_change', channel=10, control=11, value=44, time=15),
    Message('control_change', channel=10, control=11, value=43, time=0),
    Message('control_change', channel=10, control=11, value=43, time=17),
    Message('control_change', channel=10, control=11, value=42, time=0),
    Message('control_change', channel=10, control=11, value=42, time=16),
    Message('control_change', channel=10, control=11, value=42, time=0),
    Message('control_change', channel=10, control=11, value=42, time=15),
    Message('control_change', channel=10, control=11, value=42, time=0),
    Message('control_change', channel=10, control=11, value=42, time=16),
    Message('control_change', channel=10, control=11, value=41, time=0),
    Message('control_change', channel=10, control=11, value=41, time=17),
    Message('control_change', channel=10, control=11, value=40, time=0),
    Message('control_change', channel=10, control=11, value=40, time=15),
    Message('control_change', channel=10, control=11, value=40, time=0),
    Message('control_change', channel=10, control=11, value=40, time=16),
    Message('control_change', channel=10, control=11, value=39, time=0),
    Message('control_change', channel=10, control=11, value=39, time=17),
    Message('control_change', channel=10, control=11, value=39, time=0),
    Message('control_change', channel=10, control=11, value=39, time=15),
    Message('control_change', channel=10, control=11, value=38, time=0),
    Message('control_change', channel=10, control=11, value=38, time=16),
    Message('control_change', channel=10, control=11, value=38, time=0),
    Message('control_change', channel=10, control=11, value=38, time=17),
    Message('control_change', channel=10, control=11, value=37, time=0),
    Message('control_change', channel=10, control=11, value=37, time=15),
    Message('control_change', channel=10, control=11, value=36, time=0),
    Message('control_change', channel=10, control=11, value=36, time=16),
    Message('control_change', channel=10, control=11, value=36, time=0),
    Message('control_change', channel=10, control=11, value=36, time=17),
    Message('control_change', channel=10, control=11, value=36, time=0),
    Message('control_change', channel=10, control=11, value=36, time=16),
    Message('control_change', channel=10, control=11, value=36, time=0),
    Message('control_change', channel=10, control=11, value=36, time=14),
    Message('control_change', channel=10, control=11, value=35, time=0),
    Message('control_change', channel=10, control=11, value=35, time=18),
    Message('control_change', channel=10, control=11, value=34, time=0),
    Message('control_change', channel=10, control=11, value=34, time=16),
    Message('control_change', channel=10, control=11, value=34, time=0),
    Message('control_change', channel=10, control=11, value=34, time=14),
    Message('control_change', channel=10, control=11, value=33, time=0),
    Message('control_change', channel=10, control=11, value=33, time=18),
    Message('control_change', channel=10, control=11, value=32, time=0),
    Message('control_change', channel=10, control=11, value=32, time=15),
    Message('control_change', channel=10, control=11, value=32, time=0),
    Message('control_change', channel=10, control=11, value=32, time=15),
    Message('control_change', channel=10, control=11, value=31, time=0),
    Message('control_change', channel=10, control=11, value=31, time=18),
    Message('control_change', channel=10, control=11, value=30, time=0),
    Message('note_off', channel=10, note=54, velocity=64, time=1),
    Message('note_off', channel=10, note=66, velocity=64, time=1),
    Message('control_change', channel=10, control=11, value=30, time=13),
    Message('control_change', channel=10, control=11, value=30, time=0),
    Message('control_change', channel=10, control=11, value=30, time=15),
    Message('control_change', channel=10, control=11, value=29, time=0),
    Message('control_change', channel=10, control=11, value=29, time=18),
    Message('control_change', channel=10, control=11, value=29, time=0),
    Message('control_change', channel=10, control=11, value=29, time=15),
    Message('control_change', channel=10, control=11, value=28, time=0),
    Message('control_change', channel=10, control=11, value=28, time=15),
    Message('control_change', channel=10, control=11, value=27, time=0),
    Message('control_change', channel=10, control=11, value=27, time=18),
    Message('control_change', channel=10, control=11, value=27, time=0),
    Message('control_change', channel=10, control=11, value=27, time=16),
    Message('control_change', channel=10, control=11, value=26, time=0),
    Message('control_change', channel=10, control=11, value=26, time=14),
    Message('control_change', channel=10, control=11, value=25, time=0),
    Message('control_change', channel=10, control=91, value=57, time=15),
    Message('control_change', channel=10, control=91, value=0, time=0),
    Message('control_change', channel=10, control=11, value=25, time=3),
    Message('control_change', channel=10, control=11, value=25, time=0),
    Message('control_change', channel=10, control=11, value=25, time=16),
    Message('control_change', channel=10, control=11, value=24, time=0),
    Message('control_change', channel=10, control=11, value=24, time=15),
    Message('control_change', channel=10, control=11, value=23, time=0),
    Message('control_change', channel=10, control=11, value=23, time=17),
    Message('control_change', channel=10, control=11, value=23, time=0),
    Message('control_change', channel=10, control=11, value=23, time=17),
    Message('control_change', channel=10, control=11, value=22, time=0),
    Message('control_change', channel=10, control=11, value=22, time=14),
    Message('control_change', channel=10, control=11, value=21, time=0),
    Message('control_change', channel=10, control=11, value=21, time=17),
    Message('control_change', channel=10, control=11, value=21, time=0),
    MetaMessage('end_of_track', time=0)]),
  MidiTrack([
    MetaMessage('track_name', name='Dark & Perc', time=0),
    MetaMessage('channel_prefix', channel=11, time=0),
    Message('program_change', channel=11, program=82, time=0),
    Message('control_change', channel=11, control=0, value=0, time=0),
    Message('control_change', channel=11, control=32, value=10, time=0),
    Message('control_change', channel=11, control=7, value=127, time=0),
    Message('control_change', channel=11, control=10, value=64, time=0),
    Message('control_change', channel=11, control=91, value=13, time=0),
    Message('control_change', channel=11, control=93, value=0, time=0),
    Message('control_change', channel=11, control=91, value=13, time=1898),
    Message('control_change', channel=11, control=91, value=11, time=0),
    Message('control_change', channel=11, control=11, value=127, time=24),
    Message('control_change', channel=11, control=11, value=27, time=0),
    Message('control_change', channel=11, control=11, value=77, time=3),
    Message('control_change', channel=11, control=11, value=123, time=2),
    Message('control_change', channel=11, control=11, value=127, time=2),
    Message('control_change', channel=11, control=11, value=127, time=14338),
    Message('control_change', channel=11, control=11, value=72, time=0),
    Message('note_on', channel=11, note=26, velocity=89, time=42),
    Message('note_on', channel=11, note=29, velocity=98, time=49),
    Message('note_off', channel=11, note=26, velocity=64, time=3),
    Message('note_off', channel=11, note=29, velocity=64, time=30),
    Message('note_on', channel=11, note=26, velocity=68, time=2),
    Message('note_off', channel=11, note=26, velocity=64, time=13),
    Message('note_on', channel=11, note=31, velocity=87, time=0),
    Message('note_on', channel=11, note=33, velocity=93, time=23),
    Message('note_off', channel=11, note=31, velocity=64, time=2),
    Message('note_off', channel=11, note=33, velocity=64, time=10),
    Message('note_on', channel=11, note=26, velocity=77, time=252),
    Message('note_off', channel=11, note=26, velocity=64, time=49),
    Message('note_on', channel=11, note=29, velocity=75, time=0),
    Message('note_on', channel=11, note=26, velocity=46, time=35),
    Message('note_off', channel=11, note=29, velocity=64, time=7),
    Message('note_on', channel=11, note=31, velocity=62, time=5),
    Message('note_off', channel=11, note=26, velocity=64, time=1),
    Message('note_on', channel=11, note=33, velocity=75, time=23),
    Message('note_off', channel=11, note=31, velocity=64, time=5),
    Message('note_off', channel=11, note=33, velocity=64, time=7),
    Message('note_on', channel=11, note=36, velocity=113, time=204),
    Message('note_off', channel=11, note=36, velocity=64, time=12),
    Message('note_on', channel=11, note=42, velocity=99, time=0),
    Message('note_on', channel=11, note=41, velocity=99, time=13),
    Message('note_off', channel=11, note=42, velocity=64, time=0),
    Message('note_on', channel=11, note=36, velocity=99, time=11),
    Message('note_off', channel=11, note=41, velocity=64, time=0),
    Message('note_on', channel=11, note=26, velocity=90, time=12),
    Message('note_off', channel=11, note=36, velocity=64, time=1),
    Message('note_on', channel=11, note=29, velocity=83, time=48),
    Message('note_off', channel=11, note=26, velocity=64, time=4),
    Message('note_on', channel=11, note=26, velocity=64, time=32),
    Message('note_off', channel=11, note=29, velocity=64, time=0),
    Message('note_on', channel=11, note=31, velocity=89, time=12),
    Message('note_off', channel=11, note=26, velocity=64, time=1),
    Message('note_on', channel=11, note=33, velocity=95, time=22),
    Message('note_off', channel=11, note=31, velocity=64, time=2),
    Message('note_off', channel=11, note=33, velocity=64, time=12),
    Message('note_on', channel=11, note=26, velocity=93, time=250),
    Message('note_off', channel=11, note=26, velocity=64, time=46),
    Message('note_on', channel=11, note=29, velocity=75, time=2),
    Message('note_on', channel=11, note=26, velocity=55, time=37),
    Message('note_off', channel=11, note=29, velocity=64, time=3),
    Message('note_on', channel=11, note=31, velocity=74, time=10),
    Message('note_off', channel=11, note=26, velocity=64, time=0),
    Message('note_on', channel=11, note=33, velocity=80, time=22),
    Message('note_off', channel=11, note=31, velocity=64, time=4),
    Message('note_off', channel=11, note=33, velocity=64, time=9),
    Message('note_on', channel=11, note=38, velocity=102, time=84),
    Message('note_on', channel=11, note=37, velocity=99, time=11),
    Message('note_off', channel=11, note=38, velocity=64, time=0),
    Message('note_off', channel=11, note=37, velocity=64, time=12),
    Message('note_on', channel=11, note=36, velocity=92, time=0),
    Message('note_off', channel=11, note=36, velocity=64, time=10),
    Message('note_on', channel=11, note=24, velocity=73, time=2),
    Message('note_on', channel=11, note=35, velocity=96, time=12),
    Message('note_off', channel=11, note=24, velocity=64, time=5),
    Message('note_off', channel=11, note=35, velocity=64, time=6),
    Message('note_on', channel=11, note=34, velocity=92, time=1),
    Message('note_on', channel=11, note=33, velocity=89, time=12),
    Message('note_off', channel=11, note=34, velocity=64, time=1),
    Message('note_off', channel=11, note=33, velocity=64, time=10),
    Message('note_on', channel=11, note=25, velocity=54, time=1),
    Message('note_off', channel=11, note=25, velocity=64, time=11),
    Message('note_on', channel=11, note=34, velocity=107, time=1),
    Message('note_on', channel=11, note=32, velocity=92, time=12),
    Message('note_off', channel=11, note=34, velocity=64, time=2),
    Message('note_off', channel=11, note=32, velocity=64, time=7),
    Message('note_on', channel=11, note=31, velocity=83, time=3),
    Message('note_off', channel=11, note=31, velocity=64, time=11),
    Message('note_on', channel=11, note=27, velocity=62, time=1),
    Message('note_off', channel=11, note=27, velocity=64, time=11),
    Message('note_on', channel=11, note=29, velocity=93, time=1),
    Message('note_off', channel=11, note=29, velocity=64, time=11),
    Message('note_on', channel=11, note=28, velocity=75, time=1),
    Message('note_off', channel=11, note=28, velocity=64, time=12),
    Message('note_on', channel=11, note=26, velocity=100, time=1),
    Message('note_off', channel=11, note=26, velocity=64, time=46),
    Message('note_on', channel=11, note=29, velocity=96, time=1),
    Message('note_off', channel=11, note=29, velocity=64, time=35),
    Message('note_on', channel=11, note=26, velocity=71, time=1),
    Message('note_on', channel=11, note=31, velocity=98, time=12),
    Message('note_off', channel=11, note=26, velocity=64, time=3),
    Message('note_on', channel=11, note=33, velocity=102, time=21),
    Message('note_off', channel=11, note=31, velocity=64, time=1),
    Message('note_off', channel=11, note=33, velocity=64, time=12),
    Message('note_on', channel=11, note=40, velocity=113, time=203),
    Message('note_off', channel=11, note=40, velocity=64, time=9),
    Message('note_on', channel=11, note=43, velocity=96, time=3),
    Message('note_on', channel=11, note=45, velocity=100, time=12),
    Message('note_off', channel=11, note=43, velocity=64, time=4),
    Message('note_off', channel=11, note=45, velocity=64, time=9),
    Message('note_on', channel=11, note=26, velocity=90, time=11),
    Message('note_on', channel=11, note=29, velocity=87, time=48),
    Message('note_off', channel=11, note=26, velocity=64, time=1),
    Message('note_on', channel=11, note=26, velocity=70, time=35),
    Message('note_off', channel=11, note=29, velocity=64, time=4),
    Message('note_off', channel=11, note=26, velocity=64, time=9),
    Message('note_on', channel=11, note=31, velocity=95, time=0),
    Message('note_on', channel=11, note=33, velocity=100, time=23),
    Message('note_off', channel=11, note=31, velocity=64, time=1),
    Message('note_off', channel=11, note=33, velocity=64, time=8),
    Message('note_on', channel=11, note=26, velocity=83, time=255),
    Message('note_on', channel=11, note=29, velocity=75, time=48),
    Message('note_off', channel=11, note=26, velocity=64, time=6),
    Message('note_on', channel=11, note=26, velocity=57, time=30),
    Message('note_off', channel=11, note=29, velocity=64, time=2),
    Message('note_on', channel=11, note=31, velocity=75, time=10),
    Message('note_off', channel=11, note=26, velocity=64, time=1),
    Message('note_on', channel=11, note=33, velocity=80, time=23),
    Message('note_off', channel=11, note=31, velocity=64, time=5),
    Message('note_off', channel=11, note=33, velocity=64, time=9),
    Message('note_on', channel=11, note=50, velocity=80, time=34),
    Message('note_off', channel=11, note=50, velocity=64, time=14),
    Message('note_on', channel=11, note=35, velocity=96, time=155),
    Message('note_on', channel=11, note=36, velocity=87, time=11),
    Message('note_off', channel=11, note=35, velocity=64, time=1),
    Message('note_on', channel=11, note=37, velocity=66, time=11),
    Message('note_off', channel=11, note=36, velocity=64, time=6),
    Message('note_on', channel=11, note=38, velocity=83, time=6),
    Message('note_off', channel=11, note=37, velocity=64, time=2),
    Message('note_on', channel=11, note=26, velocity=102, time=10),
    Message('note_off', channel=11, note=38, velocity=64, time=1),
    Message('note_on', channel=11, note=29, velocity=82, time=47),
    Message('note_off', channel=11, note=26, velocity=64, time=1),
    Message('note_on', channel=11, note=26, velocity=55, time=35),
    Message('note_off', channel=11, note=29, velocity=64, time=8),
    Message('note_off', channel=11, note=26, velocity=64, time=3),
    Message('note_on', channel=11, note=31, velocity=87, time=1),
    Message('note_on', channel=11, note=33, velocity=96, time=24),
    Message('note_off', channel=11, note=31, velocity=64, time=6),
    Message('note_off', channel=11, note=33, velocity=64, time=5),
    MetaMessage('end_of_track', time=0)]),
  MidiTrack([
    MetaMessage('track_name', name='Male/Female Conversation', time=0),
    MetaMessage('channel_prefix', channel=12, time=0),
    Message('program_change', channel=12, program=14, time=0),
    Message('control_change', channel=12, control=0, value=0, time=0),
    Message('control_change', channel=12, control=32, value=1, time=0),
    Message('control_change', channel=12, control=7, value=75, time=0),
    Message('control_change', channel=12, control=10, value=64, time=0),
    Message('control_change', channel=12, control=91, value=127, time=0),
    Message('control_change', channel=12, control=93, value=0, time=0),
    Message('control_change', channel=12, control=11, value=127, time=19770),
    Message('control_change', channel=12, control=11, value=96, time=0),
    Message('note_on', channel=12, note=62, velocity=110, time=1327),
    Message('note_on', channel=12, note=66, velocity=112, time=0),
    Message('note_off', channel=12, note=66, velocity=64, time=143),
    Message('note_off', channel=12, note=62, velocity=64, time=3),
    Message('note_on', channel=12, note=69, velocity=114, time=18),
    Message('note_on', channel=12, note=66, velocity=112, time=0),
    Message('note_off', channel=12, note=66, velocity=64, time=141),
    Message('note_off', channel=12, note=69, velocity=64, time=2),
    Message('note_on', channel=12, note=64, velocity=116, time=18),
    Message('note_on', channel=12, note=68, velocity=112, time=0),
    Message('note_off', channel=12, note=64, velocity=64, time=143),
    Message('note_off', channel=12, note=68, velocity=64, time=0),
    Message('note_on', channel=12, note=68, velocity=117, time=18),
    Message('note_on', channel=12, note=71, velocity=112, time=0),
    Message('note_off', channel=12, note=68, velocity=64, time=142),
    Message('note_off', channel=12, note=71, velocity=64, time=5),
    Message('note_on', channel=12, note=66, velocity=112, time=15),
    Message('note_on', channel=12, note=69, velocity=117, time=0),
    Message('note_off', channel=12, note=66, velocity=64, time=149),
    Message('note_off', channel=12, note=69, velocity=64, time=3),
    Message('note_on', channel=12, note=69, velocity=114, time=10),
    Message('note_on', channel=12, note=73, velocity=116, time=0),
    Message('note_off', channel=12, note=69, velocity=64, time=156),
    Message('note_off', channel=12, note=73, velocity=64, time=4),
    Message('note_on', channel=12, note=62, velocity=120, time=326),
    Message('note_on', channel=12, note=66, velocity=120, time=0),
    Message('note_off', channel=12, note=66, velocity=64, time=143),
    Message('note_off', channel=12, note=62, velocity=64, time=3),
    Message('note_on', channel=12, note=69, velocity=120, time=16),
    Message('note_on', channel=12, note=66, velocity=120, time=0),
    Message('note_off', channel=12, note=66, velocity=64, time=144),
    Message('note_off', channel=12, note=69, velocity=64, time=0),
    Message('note_on', channel=12, note=64, velocity=120, time=18),
    Message('note_on', channel=12, note=68, velocity=120, time=0),
    Message('note_off', channel=12, note=64, velocity=64, time=144),
    Message('note_off', channel=12, note=68, velocity=64, time=0),
    Message('note_on', channel=12, note=68, velocity=120, time=18),
    Message('note_on', channel=12, note=71, velocity=120, time=0),
    Message('note_off', channel=12, note=68, velocity=64, time=142),
    Message('note_off', channel=12, note=71, velocity=64, time=5),
    Message('note_on', channel=12, note=66, velocity=120, time=16),
    Message('note_on', channel=12, note=69, velocity=120, time=0),
    Message('note_off', channel=12, note=66, velocity=64, time=148),
    Message('note_off', channel=12, note=69, velocity=64, time=3),
    Message('note_on', channel=12, note=73, velocity=120, time=10),
    Message('note_on', channel=12, note=69, velocity=120, time=0),
    Message('note_off', channel=12, note=69, velocity=64, time=157),
    Message('note_off', channel=12, note=73, velocity=64, time=3),
    Message('note_on', channel=12, note=66, velocity=101, time=326),
    Message('note_on', channel=12, note=62, velocity=101, time=0),
    Message('note_off', channel=12, note=66, velocity=64, time=143),
    Message('note_off', channel=12, note=62, velocity=64, time=4),
    Message('note_on', channel=12, note=64, velocity=101, time=177),
    Message('note_on', channel=12, note=68, velocity=101, time=0),
    Message('note_off', channel=12, note=64, velocity=64, time=144),
    Message('note_off', channel=12, note=68, velocity=64, time=0),
    Message('note_on', channel=12, note=69, velocity=101, time=180),
    Message('note_on', channel=12, note=66, velocity=101, time=0),
    Message('note_off', channel=12, note=66, velocity=64, time=149),
    Message('note_off', channel=12, note=69, velocity=64, time=3),
    MetaMessage('end_of_track', time=0)]),
  MidiTrack([
    MetaMessage('track_name', name='Bay Area Funk Brass', time=0),
    MetaMessage('channel_prefix', channel=13, time=0),
    Message('program_change', channel=13, program=1, time=0),
    Message('control_change', channel=13, control=0, value=0, time=0),
    Message('control_change', channel=13, control=32, value=1, time=0),
    Message('control_change', channel=13, control=7, value=127, time=0),
    Message('control_change', channel=13, control=10, value=64, time=0),
    Message('control_change', channel=13, control=91, value=0, time=0),
    Message('control_change', channel=13, control=93, value=0, time=0),
    Message('pitchwheel', channel=13, pitch=0, time=10550),
    Message('pitchwheel', channel=13, pitch=0, time=0),
    Message('note_on', channel=13, note=48, velocity=87, time=0),
    Message('note_off', channel=13, note=48, velocity=64, time=24),
    Message('control_change', channel=13, control=11, value=127, time=1971),
    Message('control_change', channel=13, control=11, value=81, time=0),
    Message('note_on', channel=13, note=54, velocity=109, time=20),
    Message('note_off', channel=13, note=54, velocity=64, time=17),
    Message('note_on', channel=13, note=54, velocity=91, time=31),
    Message('note_off', channel=13, note=54, velocity=64, time=16),
    Message('note_on', channel=13, note=57, velocity=103, time=32),
    Message('note_off', channel=13, note=57, velocity=64, time=23),
    Message('control_change', channel=13, control=11, value=81, time=144),
    Message('control_change', channel=13, control=11, value=80, time=0),
    Message('note_on', channel=13, note=50, velocity=73, time=25),
    Message('note_off', channel=13, note=50, velocity=64, time=21),
    Message('note_on', channel=13, note=50, velocity=68, time=27),
    Message('note_off', channel=13, note=50, velocity=64, time=18),
    Message('note_on', channel=13, note=54, velocity=61, time=30),
    Message('note_off', channel=13, note=54, velocity=64, time=19),
    Message('note_on', channel=13, note=54, velocity=64, time=29),
    Message('note_off', channel=13, note=54, velocity=64, time=17),
    Message('note_on', channel=13, note=57, velocity=64, time=31),
    Message('note_off', channel=13, note=57, velocity=64, time=17),
    Message('note_on', channel=13, note=54, velocity=62, time=156),
    Message('note_off', channel=13, note=54, velocity=64, time=8),
    Message('note_on', channel=13, note=55, velocity=78, time=12),
    Message('note_off', channel=13, note=55, velocity=64, time=14),
    Message('note_on', channel=13, note=55, velocity=83, time=34),
    Message('note_off', channel=13, note=55, velocity=64, time=52),
    Message('note_on', channel=13, note=54, velocity=53, time=45),
    Message('control_change', channel=13, control=1, value=0, time=13),
    Message('control_change', channel=13, control=1, value=17, time=0),
    Message('control_change', channel=13, control=1, value=32, time=3),
    Message('control_change', channel=13, control=1, value=50, time=1),
    Message('control_change', channel=13, control=1, value=62, time=2),
    Message('control_change', channel=13, control=1, value=71, time=2),
    Message('control_change', channel=13, control=1, value=77, time=0),
    Message('control_change', channel=13, control=1, value=91, time=2),
    Message('control_change', channel=13, control=1, value=95, time=2),
    Message('control_change', channel=13, control=1, value=108, time=2),
    Message('control_change', channel=13, control=1, value=112, time=2),
    Message('control_change', channel=13, control=1, value=118, time=3),
    Message('control_change', channel=13, control=1, value=120, time=1),
    Message('control_change', channel=13, control=1, value=122, time=1),
    Message('control_change', channel=13, control=1, value=127, time=4),
    Message('pitchwheel', channel=13, pitch=0, time=64),
    Message('pitchwheel', channel=13, pitch=-56, time=0),
    Message('pitchwheel', channel=13, pitch=-396, time=2),
    Message('pitchwheel', channel=13, pitch=-421, time=1),
    Message('pitchwheel', channel=13, pitch=-623, time=1),
    Message('pitchwheel', channel=13, pitch=-1077, time=2),
    Message('pitchwheel', channel=13, pitch=-1303, time=2),
    Message('pitchwheel', channel=13, pitch=-1530, time=3),
    Message('pitchwheel', channel=13, pitch=-1643, time=2),
    Message('pitchwheel', channel=13, pitch=-1757, time=2),
    Message('pitchwheel', channel=13, pitch=-1983, time=3),
    Message('pitchwheel', channel=13, pitch=-2210, time=1),
    Message('pitchwheel', channel=13, pitch=-2324, time=2),
    Message('pitchwheel', channel=13, pitch=-2664, time=2),
    Message('pitchwheel', channel=13, pitch=-2777, time=2),
    Message('pitchwheel', channel=13, pitch=-2823, time=2),
    Message('pitchwheel', channel=13, pitch=-2890, time=2),
    Message('pitchwheel', channel=13, pitch=-3004, time=6),
    Message('pitchwheel', channel=13, pitch=-3117, time=2),
    Message('pitchwheel', channel=13, pitch=-3216, time=2),
    Message('pitchwheel', channel=13, pitch=-3344, time=1),
    Message('pitchwheel', channel=13, pitch=-3684, time=1),
    Message('control_change', channel=13, control=1, value=127, time=1),
    Message('control_change', channel=13, control=1, value=122, time=0),
    Message('pitchwheel', channel=13, pitch=-3911, time=1),
    Message('control_change', channel=13, control=1, value=118, time=1),
    Message('pitchwheel', channel=13, pitch=-4138, time=2),
    Message('control_change', channel=13, control=1, value=112, time=0),
    Message('pitchwheel', channel=13, pitch=-4251, time=2),
    Message('pitchwheel', channel=13, pitch=-4478, time=1),
    Message('control_change', channel=13, control=1, value=108, time=1),
    Message('pitchwheel', channel=13, pitch=-4591, time=1),
    Message('control_change', channel=13, control=1, value=106, time=0),
    Message('pitchwheel', channel=13, pitch=-4704, time=1),
    Message('pitchwheel', channel=13, pitch=-4818, time=2),
    Message('control_change', channel=13, control=1, value=102, time=0),
    Message('pitchwheel', channel=13, pitch=-4931, time=2),
    Message('control_change', channel=13, control=1, value=98, time=0),
    Message('pitchwheel', channel=13, pitch=-5044, time=2),
    Message('control_change', channel=13, control=1, value=95, time=0),
    Message('pitchwheel', channel=13, pitch=-5158, time=2),
    Message('control_change', channel=13, control=1, value=91, time=0),
    Message('pitchwheel', channel=13, pitch=-5271, time=2),
    Message('control_change', channel=13, control=1, value=85, time=0),
    Message('pitchwheel', channel=13, pitch=-5292, time=1),
    Message('control_change', channel=13, control=1, value=84, time=0),
    Message('pitchwheel', channel=13, pitch=-5385, time=2),
    Message('control_change', channel=13, control=1, value=81, time=1),
    Message('pitchwheel', channel=13, pitch=-5611, time=0),
    Message('pitchwheel', channel=13, pitch=-5951, time=2),
    Message('pitchwheel', channel=13, pitch=-6178, time=3),
    Message('control_change', channel=13, control=1, value=60, time=0),
    Message('pitchwheel', channel=13, pitch=-6292, time=1),
    Message('control_change', channel=13, control=1, value=52, time=1),
    Message('pitchwheel', channel=13, pitch=-6518, time=2),
    Message('control_change', channel=13, control=1, value=46, time=0),
    Message('control_change', channel=13, control=1, value=46, time=0),
    Message('pitchwheel', channel=13, pitch=-6632, time=2),
    Message('control_change', channel=13, control=1, value=38, time=1),
    Message('pitchwheel', channel=13, pitch=-6858, time=1),
    Message('control_change', channel=13, control=1, value=34, time=0),
    Message('pitchwheel', channel=13, pitch=-7085, time=2),
    Message('pitchwheel', channel=13, pitch=-7425, time=2),
    Message('control_change', channel=13, control=1, value=19, time=0),
    Message('pitchwheel', channel=13, pitch=-7765, time=2),
    Message('control_change', channel=13, control=1, value=9, time=0),
    Message('pitchwheel', channel=13, pitch=-8114, time=2),
    Message('control_change', channel=13, control=1, value=6, time=0),
    Message('pitchwheel', channel=13, pitch=-8192, time=0),
    Message('control_change', channel=13, control=1, value=0, time=4),
    Message('control_change', channel=13, control=2, value=0, time=17),
    Message('control_change', channel=13, control=2, value=2, time=0),
    Message('control_change', channel=13, control=2, value=10, time=2),
    Message('control_change', channel=13, control=2, value=18, time=1),
    Message('control_change', channel=13, control=2, value=28, time=1),
    Message('control_change', channel=13, control=2, value=46, time=2),
    Message('control_change', channel=13, control=2, value=76, time=2),
    Message('control_change', channel=13, control=2, value=120, time=4),
    Message('control_change', channel=13, control=2, value=127, time=1),
    Message('pitchwheel', channel=13, pitch=-8192, time=6),
    Message('pitchwheel', channel=13, pitch=-7957, time=0),
    Message('pitchwheel', channel=13, pitch=-7650, time=2),
    Message('pitchwheel', channel=13, pitch=-7342, time=3),
    Message('pitchwheel', channel=13, pitch=-7035, time=0),
    Message('pitchwheel', channel=13, pitch=-6727, time=2),
    Message('pitchwheel', channel=13, pitch=-6671, time=1),
    Message('pitchwheel', channel=13, pitch=-6420, time=1),
    Message('pitchwheel', channel=13, pitch=-6112, time=2),
    Message('pitchwheel', channel=13, pitch=-5805, time=2),
    Message('pitchwheel', channel=13, pitch=-5497, time=2),
    Message('pitchwheel', channel=13, pitch=-5189, time=2),
    Message('control_change', channel=13, control=1, value=0, time=1),
    Message('control_change', channel=13, control=1, value=42, time=0),
    Message('control_change', channel=13, control=2, value=127, time=0),
    Message('control_change', channel=13, control=2, value=0, time=0),
    Message('pitchwheel', channel=13, pitch=-4882, time=1),
    Message('pitchwheel', channel=13, pitch=-4728, time=1),
    Message('control_change', channel=13, control=1, value=27, time=0),
    Message('pitchwheel', channel=13, pitch=-4574, time=1),
    Message('control_change', channel=13, control=1, value=0, time=2),
    Message('pitchwheel', channel=13, pitch=-4267, time=0),
    Message('pitchwheel', channel=13, pitch=-3959, time=1),
    Message('pitchwheel', channel=13, pitch=-3652, time=2),
    Message('pitchwheel', channel=13, pitch=-3344, time=2),
    Message('pitchwheel', channel=13, pitch=-3037, time=2),
    Message('pitchwheel', channel=13, pitch=-2790, time=2),
    Message('pitchwheel', channel=13, pitch=-2729, time=0),
    Message('pitchwheel', channel=13, pitch=-2421, time=3),
    Message('pitchwheel', channel=13, pitch=-2114, time=1),
    Message('pitchwheel', channel=13, pitch=-1806, time=2),
    Message('pitchwheel', channel=13, pitch=-1499, time=2),
    Message('pitchwheel', channel=13, pitch=-1191, time=2),
    Message('pitchwheel', channel=13, pitch=-884, time=2),
    Message('pitchwheel', channel=13, pitch=-576, time=3),
    Message('pitchwheel', channel=13, pitch=-268, time=0),
    Message('pitchwheel', channel=13, pitch=38, time=2),
    Message('pitchwheel', channel=13, pitch=346, time=4),
    Message('pitchwheel', channel=13, pitch=653, time=1),
    Message('pitchwheel', channel=13, pitch=961, time=1),
    Message('pitchwheel', channel=13, pitch=1004, time=1),
    Message('pitchwheel', channel=13, pitch=1268, time=3),
    Message('pitchwheel', channel=13, pitch=1576, time=1),
    Message('pitchwheel', channel=13, pitch=1883, time=1),
    Message('pitchwheel', channel=13, pitch=2191, time=2),
    Message('pitchwheel', channel=13, pitch=2499, time=2),
    Message('pitchwheel', channel=13, pitch=2806, time=1),
    Message('pitchwheel', channel=13, pitch=2990, time=2),
    Message('pitchwheel', channel=13, pitch=3114, time=0),
    Message('pitchwheel', channel=13, pitch=3421, time=3),
    Message('pitchwheel', channel=13, pitch=3729, time=1),
    Message('pitchwheel', channel=13, pitch=4036, time=2),
    Message('pitchwheel', channel=13, pitch=4344, time=3),
    Message('pitchwheel', channel=13, pitch=4651, time=1),
    Message('pitchwheel', channel=13, pitch=4890, time=2),
    Message('pitchwheel', channel=13, pitch=4959, time=0),
    Message('pitchwheel', channel=13, pitch=5267, time=2),
    Message('pitchwheel', channel=13, pitch=5574, time=2),
    Message('pitchwheel', channel=13, pitch=5882, time=2),
    Message('pitchwheel', channel=13, pitch=6189, time=2),
    Message('pitchwheel', channel=13, pitch=6497, time=2),
    Message('pitchwheel', channel=13, pitch=6804, time=2),
    Message('pitchwheel', channel=13, pitch=7112, time=2),
    Message('pitchwheel', channel=13, pitch=7419, time=1),
    Message('pitchwheel', channel=13, pitch=7727, time=2),
    Message('pitchwheel', channel=13, pitch=8035, time=3),
    Message('pitchwheel', channel=13, pitch=8191, time=1),
    Message('pitchwheel', channel=13, pitch=6496, time=3),
    Message('note_off', channel=13, note=54, velocity=64, time=3),
    Message('pitchwheel', channel=13, pitch=0, time=6),
    MetaMessage('end_of_track', time=0)]),
  MidiTrack([
    MetaMessage('track_name', name='Trumpets Velo Shake', time=0),
    MetaMessage('channel_prefix', channel=14, time=0),
    Message('program_change', channel=14, program=2, time=0),
    Message('control_change', channel=14, control=0, value=0, time=0),
    Message('control_change', channel=14, control=32, value=1, time=0),
    Message('control_change', channel=14, control=7, value=127, time=0),
    Message('control_change', channel=14, control=10, value=64, time=0),
    Message('control_change', channel=14, control=91, value=0, time=0),
    Message('control_change', channel=14, control=93, value=0, time=0),
    Message('control_change', channel=14, control=91, value=0, time=286),
    Message('control_change', channel=14, control=91, value=0, time=0),
    Message('note_on', channel=14, note=75, velocity=124, time=7215),
    Message('note_on', channel=14, note=78, velocity=124, time=0),
    Message('note_on', channel=14, note=77, velocity=124, time=75),
    Message('note_off', channel=14, note=75, velocity=64, time=1),
    Message('note_on', channel=14, note=73, velocity=110, time=0),
    Message('note_off', channel=14, note=78, velocity=64, time=3),
    Message('note_on', channel=14, note=72, velocity=100, time=19),
    Message('note_off', channel=14, note=77, velocity=64, time=0),
    Message('note_on', channel=14, note=75, velocity=110, time=1),
    Message('note_off', channel=14, note=73, velocity=64, time=3),
    Message('note_off', channel=14, note=72, velocity=64, time=8),
    Message('note_off', channel=14, note=75, velocity=64, time=2),
    Message('control_change', channel=14, control=10, value=64, time=1016),
    Message('control_change', channel=14, control=10, value=64, time=0),
    Message('control_change', channel=14, control=11, value=127, time=0),
    Message('control_change', channel=14, control=11, value=127, time=0),
    Message('control_change', channel=14, control=21, value=0, time=1),
    Message('control_change', channel=14, control=21, value=0, time=0),
    Message('note_on', channel=14, note=74, velocity=124, time=76),
    Message('note_off', channel=14, note=74, velocity=64, time=21),
    Message('note_on', channel=14, note=75, velocity=127, time=75),
    Message('note_off', channel=14, note=75, velocity=64, time=19),
    Message('note_on', channel=14, note=76, velocity=124, time=77),
    Message('note_off', channel=14, note=76, velocity=64, time=20),
    Message('note_on', channel=14, note=77, velocity=127, time=77),
    Message('note_on', channel=14, note=75, velocity=119, time=162),
    Message('note_off', channel=14, note=77, velocity=64, time=2),
    Message('note_off', channel=14, note=75, velocity=64, time=23),
    Message('note_on', channel=14, note=72, velocity=80, time=3),
    Message('note_off', channel=14, note=72, velocity=64, time=11),
    Message('note_on', channel=14, note=75, velocity=127, time=9),
    Message('note_off', channel=14, note=75, velocity=64, time=24),
    Message('note_on', channel=14, note=77, velocity=107, time=4),
    Message('note_off', channel=14, note=77, velocity=64, time=21),
    Message('note_on', channel=14, note=72, velocity=113, time=316),
    Message('note_off', channel=14, note=72, velocity=64, time=14),
    Message('note_on', channel=14, note=72, velocity=124, time=34),
    Message('note_off', channel=14, note=72, velocity=64, time=19),
    Message('note_on', channel=14, note=70, velocity=119, time=1),
    Message('note_off', channel=14, note=70, velocity=64, time=18),
    Message('note_on', channel=14, note=56, velocity=92, time=796),
    Message('note_off', channel=14, note=56, velocity=64, time=36),
    Message('note_on', channel=14, note=60, velocity=96, time=0),
    Message('note_off', channel=14, note=60, velocity=64, time=13),
    Message('note_on', channel=14, note=63, velocity=125, time=0),
    Message('note_off', channel=14, note=63, velocity=64, time=21),
    Message('note_on', channel=14, note=64, velocity=110, time=28),
    Message('note_on', channel=14, note=70, velocity=119, time=0),
    Message('note_on', channel=14, note=75, velocity=113, time=0),
    Message('note_off', channel=14, note=70, velocity=64, time=33),
    Message('note_off', channel=14, note=75, velocity=64, time=0),
    Message('note_off', channel=14, note=64, velocity=64, time=1),
    Message('control_change', channel=14, control=91, value=0, time=1575),
    Message('control_change', channel=14, control=91, value=8, time=0),
    Message('control_change', channel=14, control=64, value=0, time=3),
    Message('control_change', channel=14, control=64, value=0, time=0),
    Message('control_change', channel=14, control=11, value=127, time=15),
    Message('control_change', channel=14, control=11, value=127, time=0),
    Message('note_on', channel=14, note=72, velocity=107, time=5),
    Message('note_on', channel=14, note=78, velocity=89, time=0),
    Message('note_off', channel=14, note=72, velocity=64, time=27),
    Message('note_off', channel=14, note=78, velocity=64, time=0),
    Message('note_on', channel=14, note=81, velocity=109, time=68),
    Message('note_on', channel=14, note=73, velocity=87, time=0),
    Message('control_change', channel=14, control=91, value=8, time=5),
    Message('control_change', channel=14, control=91, value=0, time=0),
    Message('note_off', channel=14, note=73, velocity=64, time=22),
    Message('note_off', channel=14, note=81, velocity=64, time=4),
    Message('control_change', channel=14, control=91, value=0, time=769),
    Message('control_change', channel=14, control=91, value=20, time=0),
    Message('note_on', channel=14, note=71, velocity=104, time=20),
    Message('note_off', channel=14, note=71, velocity=64, time=20),
    Message('note_on', channel=14, note=72, velocity=96, time=4),
    Message('note_off', channel=14, note=72, velocity=64, time=19),
    Message('note_on', channel=14, note=73, velocity=96, time=3),
    Message('note_off', channel=14, note=73, velocity=64, time=21),
    Message('note_on', channel=14, note=76, velocity=95, time=7),
    Message('note_off', channel=14, note=76, velocity=64, time=14),
    Message('note_on', channel=14, note=78, velocity=113, time=6),
    Message('note_off', channel=14, note=78, velocity=64, time=15),
    Message('note_on', channel=14, note=79, velocity=107, time=36),
    Message('note_off', channel=14, note=79, velocity=64, time=15),
    Message('note_on', channel=14, note=79, velocity=119, time=31),
    Message('note_on', channel=14, note=78, velocity=107, time=96),
    Message('note_off', channel=14, note=79, velocity=64, time=4),
    Message('note_off', channel=14, note=78, velocity=64, time=89),
    Message('control_change', channel=14, control=91, value=20, time=33),
    Message('control_change', channel=14, control=91, value=0, time=0),
    Message('control_change', channel=14, control=11, value=127, time=14893),
    Message('control_change', channel=14, control=11, value=97, time=0),
    Message('control_change', channel=14, control=10, value=64, time=21),
    Message('control_change', channel=14, control=10, value=12, time=0),
    Message('note_on', channel=14, note=67, velocity=107, time=16),
    Message('note_on', channel=14, note=79, velocity=100, time=1),
    Message('note_off', channel=14, note=79, velocity=64, time=18),
    Message('note_off', channel=14, note=67, velocity=64, time=3),
    Message('note_on', channel=14, note=77, velocity=104, time=54),
    Message('note_on', channel=14, note=65, velocity=110, time=0),
    Message('note_on', channel=14, note=62, velocity=83, time=21),
    Message('note_off', channel=14, note=77, velocity=64, time=0),
    Message('note_off', channel=14, note=65, velocity=64, time=0),
    Message('note_on', channel=14, note=74, velocity=78, time=0),
    Message('note_on', channel=14, note=72, velocity=78, time=21),
    Message('note_off', channel=14, note=74, velocity=64, time=2),
    Message('note_on', channel=14, note=60, velocity=89, time=1),
    Message('note_off', channel=14, note=62, velocity=64, time=2),
    Message('note_off', channel=14, note=72, velocity=64, time=5),
    Message('note_off', channel=14, note=60, velocity=64, time=5),
    Message('note_on', channel=14, note=74, velocity=93, time=11),
    Message('note_on', channel=14, note=62, velocity=96, time=0),
    Message('note_off', channel=14, note=62, velocity=64, time=55),
    Message('note_off', channel=14, note=74, velocity=64, time=5),
    Message('note_on', channel=14, note=72, velocity=43, time=2),
    Message('note_off', channel=14, note=72, velocity=64, time=4),
    Message('note_on', channel=14, note=67, velocity=100, time=176),
    Message('note_on', channel=14, note=79, velocity=100, time=0),
    Message('note_off', channel=14, note=79, velocity=64, time=20),
    Message('note_off', channel=14, note=67, velocity=64, time=4),
    Message('note_on', channel=14, note=77, velocity=96, time=48),
    Message('note_on', channel=14, note=65, velocity=96, time=0),
    Message('note_off', channel=14, note=77, velocity=64, time=19),
    Message('note_on', channel=14, note=62, velocity=89, time=1),
    Message('note_off', channel=14, note=65, velocity=64, time=2),
    Message('note_on', channel=14, note=74, velocity=87, time=0),
    Message('note_off', channel=14, note=74, velocity=64, time=20),
    Message('note_off', channel=14, note=62, velocity=64, time=3),
    Message('note_on', channel=14, note=60, velocity=89, time=1),
    Message('note_on', channel=14, note=72, velocity=52, time=2),
    Message('note_off', channel=14, note=72, velocity=64, time=7),
    Message('note_off', channel=14, note=60, velocity=64, time=5),
    Message('note_on', channel=14, note=62, velocity=102, time=8),
    Message('note_on', channel=14, note=74, velocity=90, time=1),
    Message('note_off', channel=14, note=62, velocity=64, time=54),
    Message('note_off', channel=14, note=74, velocity=64, time=3),
    Message('note_on', channel=14, note=72, velocity=14, time=2),
    Message('note_off', channel=14, note=72, velocity=64, time=7),
    Message('note_on', channel=14, note=71, velocity=70, time=2),
    Message('note_off', channel=14, note=71, velocity=64, time=5),
    Message('note_on', channel=14, note=69, velocity=43, time=3),
    Message('note_off', channel=14, note=69, velocity=64, time=4),
    Message('note_on', channel=14, note=67, velocity=50, time=2),
    Message('note_off', channel=14, note=67, velocity=64, time=3),
    Message('note_on', channel=14, note=65, velocity=50, time=4),
    Message('note_off', channel=14, note=65, velocity=64, time=5),
    Message('note_on', channel=14, note=67, velocity=107, time=147),
    Message('note_on', channel=14, note=79, velocity=104, time=0),
    Message('note_off', channel=14, note=79, velocity=64, time=21),
    Message('note_off', channel=14, note=67, velocity=64, time=6),
    Message('note_on', channel=14, note=77, velocity=102, time=46),
    Message('note_on', channel=14, note=65, velocity=104, time=0),
    Message('note_on', channel=14, note=62, velocity=89, time=20),
    Message('note_on', channel=14, note=74, velocity=92, time=1),
    Message('note_off', channel=14, note=77, velocity=64, time=0),
    Message('note_off', channel=14, note=65, velocity=64, time=2),
    Message('note_on', channel=14, note=60, velocity=87, time=21),
    Message('note_off', channel=14, note=74, velocity=64, time=1),
    Message('note_on', channel=14, note=72, velocity=83, time=0),
    Message('note_off', channel=14, note=62, velocity=64, time=1),
    Message('note_off', channel=14, note=72, velocity=64, time=10),
    Message('note_off', channel=14, note=60, velocity=64, time=1),
    Message('note_on', channel=14, note=74, velocity=93, time=12),
    Message('note_on', channel=14, note=62, velocity=104, time=1),
    Message('note_off', channel=14, note=74, velocity=64, time=58),
    Message('note_on', channel=14, note=72, velocity=16, time=1),
    Message('note_off', channel=14, note=62, velocity=64, time=0),
    Message('note_off', channel=14, note=72, velocity=64, time=4),
    Message('note_on', channel=14, note=72, velocity=113, time=82),
    Message('note_on', channel=14, note=65, velocity=80, time=4),
    Message('note_off', channel=14, note=65, velocity=64, time=6),
    Message('note_off', channel=14, note=72, velocity=64, time=0),
    Message('note_on', channel=14, note=72, velocity=113, time=40),
    Message('note_off', channel=14, note=72, velocity=64, time=87),
    Message('note_on', channel=14, note=71, velocity=124, time=6),
    Message('note_on', channel=14, note=65, velocity=92, time=4),
    Message('note_off', channel=14, note=65, velocity=64, time=40),
    Message('note_on', channel=14, note=72, velocity=74, time=77),
    Message('note_on', channel=14, note=67, velocity=46, time=1),
    Message('note_on', channel=14, note=65, velocity=41, time=0),
    Message('note_off', channel=14, note=71, velocity=64, time=2),
    Message('note_on', channel=14, note=73, velocity=82, time=6),
    Message('note_off', channel=14, note=65, velocity=64, time=1),
    Message('note_off', channel=14, note=72, velocity=64, time=3),
    Message('note_off', channel=14, note=67, velocity=64, time=1),
    Message('note_off', channel=14, note=73, velocity=64, time=5),
    Message('note_on', channel=14, note=74, velocity=110, time=3),
    Message('note_off', channel=14, note=74, velocity=64, time=24),
    Message('note_on', channel=14, note=79, velocity=124, time=1),
    Message('note_on', channel=14, note=78, velocity=99, time=0),
    Message('note_off', channel=14, note=78, velocity=64, time=2),
    Message('note_off', channel=14, note=79, velocity=64, time=10),
    Message('control_change', channel=14, control=10, value=12, time=135),
    Message('control_change', channel=14, control=10, value=127, time=0),
    Message('note_on', channel=14, note=79, velocity=113, time=21),
    Message('note_on', channel=14, note=67, velocity=104, time=1),
    Message('note_off', channel=14, note=79, velocity=64, time=20),
    Message('note_off', channel=14, note=67, velocity=64, time=4),
    Message('note_on', channel=14, note=77, velocity=110, time=53),
    Message('note_on', channel=14, note=65, velocity=102, time=0),
    Message('note_on', channel=14, note=76, velocity=85, time=1),
    Message('note_off', channel=14, note=76, velocity=64, time=3),
    Message('note_off', channel=14, note=77, velocity=64, time=11),
    Message('note_on', channel=14, note=62, velocity=78, time=4),
    Message('note_off', channel=14, note=65, velocity=64, time=0),
    Message('note_on', channel=14, note=74, velocity=80, time=2),
    Message('note_off', channel=14, note=74, velocity=64, time=17),
    Message('note_on', channel=14, note=72, velocity=80, time=3),
    Message('note_on', channel=14, note=60, velocity=82, time=2),
    Message('note_off', channel=14, note=62, velocity=64, time=2),
    Message('note_off', channel=14, note=60, velocity=64, time=7),
    Message('note_off', channel=14, note=72, velocity=64, time=3),
    Message('note_on', channel=14, note=74, velocity=96, time=11),
    Message('note_on', channel=14, note=62, velocity=93, time=1),
    Message('note_off', channel=14, note=62, velocity=64, time=51),
    Message('note_off', channel=14, note=74, velocity=64, time=8),
    Message('note_on', channel=14, note=72, velocity=58, time=3),
    Message('note_off', channel=14, note=72, velocity=64, time=4),
    Message('note_on', channel=14, note=79, velocity=104, time=150),
    Message('note_on', channel=14, note=75, velocity=119, time=0),
    Message('note_off', channel=14, note=75, velocity=64, time=21),
    Message('note_off', channel=14, note=79, velocity=64, time=2),
    Message('note_on', channel=14, note=75, velocity=119, time=26),
    Message('note_on', channel=14, note=79, velocity=104, time=0),
    Message('note_off', channel=14, note=79, velocity=64, time=20),
    Message('note_off', channel=14, note=75, velocity=64, time=2),
    Message('note_on', channel=14, note=77, velocity=96, time=26),
    Message('note_on', channel=14, note=74, velocity=104, time=0),
    Message('note_off', channel=14, note=74, velocity=64, time=17),
    Message('note_off', channel=14, note=77, velocity=64, time=1),
    Message('note_on', channel=14, note=70, velocity=82, time=1),
    Message('note_on', channel=14, note=74, velocity=95, time=4),
    Message('note_off', channel=14, note=74, velocity=64, time=18),
    Message('note_on', channel=14, note=69, velocity=93, time=3),
    Message('note_on', channel=14, note=72, velocity=87, time=1),
    Message('note_off', channel=14, note=70, velocity=64, time=3),
    Message('note_off', channel=14, note=69, velocity=64, time=6),
    Message('note_off', channel=14, note=72, velocity=64, time=0),
    Message('note_on', channel=14, note=70, velocity=102, time=15),
    Message('note_on', channel=14, note=74, velocity=100, time=1),
    Message('note_off', channel=14, note=70, velocity=64, time=52),
    Message('note_off', channel=14, note=74, velocity=64, time=10),
    Message('note_on', channel=14, note=72, velocity=32, time=2),
    Message('note_off', channel=14, note=72, velocity=64, time=5),
    Message('note_on', channel=14, note=71, velocity=38, time=4),
    Message('note_off', channel=14, note=71, velocity=64, time=3),
    Message('note_on', channel=14, note=69, velocity=52, time=1),
    Message('note_off', channel=14, note=69, velocity=64, time=3),
    Message('note_on', channel=14, note=75, velocity=113, time=160),
    Message('note_on', channel=14, note=79, velocity=107, time=2),
    Message('note_off', channel=14, note=79, velocity=64, time=24),
    Message('note_off', channel=14, note=75, velocity=64, time=1),
    Message('note_on', channel=14, note=74, velocity=107, time=48),
    Message('note_on', channel=14, note=77, velocity=113, time=1),
    Message('note_off', channel=14, note=74, velocity=64, time=18),
    Message('note_off', channel=14, note=77, velocity=64, time=2),
    Message('note_on', channel=14, note=70, velocity=82, time=1),
    Message('note_on', channel=14, note=74, velocity=85, time=2),
    Message('note_off', channel=14, note=74, velocity=64, time=19),
    Message('note_off', channel=14, note=70, velocity=64, time=0),
    Message('note_on', channel=14, note=69, velocity=68, time=1),
    Message('note_on', channel=14, note=72, velocity=71, time=2),
    Message('note_off', channel=14, note=69, velocity=64, time=2),
    Message('note_off', channel=14, note=72, velocity=64, time=6),
    Message('note_on', channel=14, note=70, velocity=99, time=16),
    Message('note_on', channel=14, note=74, velocity=110, time=2),
    Message('note_off', channel=14, note=70, velocity=64, time=62),
    Message('note_off', channel=14, note=74, velocity=64, time=10),
    Message('control_change', channel=14, control=10, value=127, time=52),
    Message('control_change', channel=14, control=10, value=1, time=0),
    Message('note_on', channel=14, note=72, velocity=110, time=19),
    Message('note_on', channel=14, note=68, velocity=92, time=1),
    Message('note_off', channel=14, note=68, velocity=64, time=6),
    Message('note_off', channel=14, note=72, velocity=64, time=1),
    Message('note_on', channel=14, note=68, velocity=85, time=36),
    Message('note_on', channel=14, note=72, velocity=104, time=2),
    Message('control_change', channel=14, control=11, value=97, time=4),
    Message('control_change', channel=14, control=11, value=93, time=0),
    Message('control_change', channel=14, control=11, value=92, time=4),
    Message('control_change', channel=14, control=11, value=91, time=2),
    Message('control_change', channel=14, control=11, value=90, time=2),
    Message('control_change', channel=14, control=11, value=89, time=1),
    Message('control_change', channel=14, control=11, value=89, time=3),
    Message('control_change', channel=14, control=11, value=88, time=2),
    Message('control_change', channel=14, control=11, value=87, time=3),
    Message('control_change', channel=14, control=11, value=86, time=3),
    Message('control_change', channel=14, control=11, value=85, time=1),
    Message('control_change', channel=14, control=11, value=85, time=1),
    Message('control_change', channel=14, control=11, value=84, time=2),
    Message('control_change', channel=14, control=11, value=83, time=3),
    Message('control_change', channel=14, control=11, value=82, time=3),
    Message('control_change', channel=14, control=11, value=81, time=1),
    Message('control_change', channel=14, control=11, value=80, time=2),
    Message('control_change', channel=14, control=11, value=80, time=0),
    Message('control_change', channel=14, control=11, value=79, time=4),
    Message('control_change', channel=14, control=11, value=78, time=2),
    Message('control_change', channel=14, control=11, value=77, time=2),
    Message('control_change', channel=14, control=11, value=76, time=4),
    Message('control_change', channel=14, control=11, value=75, time=2),
    Message('control_change', channel=14, control=11, value=74, time=1),
    Message('control_change', channel=14, control=11, value=73, time=4),
    Message('control_change', channel=14, control=11, value=72, time=2),
    Message('control_change', channel=14, control=11, value=71, time=2),
    Message('control_change', channel=14, control=11, value=70, time=1),
    Message('control_change', channel=14, control=11, value=70, time=3),
    Message('control_change', channel=14, control=11, value=69, time=2),
    Message('control_change', channel=14, control=11, value=68, time=2),
    Message('control_change', channel=14, control=11, value=67, time=4),
    Message('control_change', channel=14, control=11, value=66, time=1),
    Message('control_change', channel=14, control=11, value=66, time=2),
    Message('control_change', channel=14, control=11, value=65, time=1),
    Message('control_change', channel=14, control=11, value=57, time=1),
    Message('control_change', channel=14, control=11, value=64, time=2),
    Message('control_change', channel=14, control=11, value=71, time=3),
    Message('control_change', channel=14, control=11, value=78, time=1),
    Message('control_change', channel=14, control=11, value=85, time=2),
    Message('control_change', channel=14, control=11, value=92, time=3),
    Message('control_change', channel=14, control=11, value=100, time=0),
    Message('control_change', channel=14, control=11, value=99, time=3),
    Message('note_off', channel=14, note=68, velocity=64, time=1),
    Message('note_off', channel=14, note=72, velocity=64, time=1),
    Message('note_on', channel=14, note=71, velocity=124, time=3),
    Message('note_on', channel=14, note=67, velocity=90, time=0),
    Message('control_change', channel=14, control=11, value=98, time=1),
    Message('control_change', channel=14, control=11, value=98, time=1),
    Message('control_change', channel=14, control=11, value=97, time=6),
    Message('control_change', channel=14, control=11, value=96, time=5),
    Message('control_change', channel=14, control=11, value=96, time=3),
    Message('control_change', channel=14, control=11, value=95, time=7),
    Message('control_change', channel=14, control=11, value=94, time=2),
    Message('control_change', channel=14, control=11, value=94, time=4),
    Message('control_change', channel=14, control=11, value=93, time=8),
    Message('control_change', channel=14, control=11, value=93, time=0),
    Message('control_change', channel=14, control=11, value=92, time=6),
    Message('control_change', channel=14, control=11, value=91, time=6),
    Message('control_change', channel=14, control=11, value=91, time=1),
    Message('control_change', channel=14, control=11, value=90, time=8),
    Message('control_change', channel=14, control=11, value=89, time=3),
    Message('control_change', channel=14, control=11, value=89, time=3),
    Message('control_change', channel=14, control=11, value=88, time=7),
    Message('control_change', channel=14, control=11, value=87, time=2),
    Message('control_change', channel=14, control=11, value=87, time=4),
    Message('control_change', channel=14, control=11, value=86, time=8),
    Message('control_change', channel=14, control=11, value=86, time=0),
    Message('control_change', channel=14, control=11, value=85, time=5),
    Message('control_change', channel=14, control=11, value=84, time=7),
    Message('control_change', channel=14, control=11, value=84, time=3),
    Message('control_change', channel=14, control=10, value=1, time=1),
    Message('control_change', channel=14, control=10, value=4, time=0),
    Message('control_change', channel=14, control=10, value=6, time=2),
    Message('control_change', channel=14, control=10, value=9, time=2),
    Message('control_change', channel=14, control=11, value=83, time=1),
    Message('control_change', channel=14, control=10, value=12, time=1),
    Message('control_change', channel=14, control=10, value=13, time=2),
    Message('control_change', channel=14, control=11, value=82, time=0),
    Message('control_change', channel=14, control=10, value=14, time=0),
    Message('control_change', channel=14, control=10, value=17, time=2),
    Message('control_change', channel=14, control=11, value=82, time=1),
    Message('control_change', channel=14, control=10, value=20, time=1),
    Message('control_change', channel=14, control=10, value=22, time=2),
    Message('control_change', channel=14, control=10, value=25, time=2),
    Message('control_change', channel=14, control=10, value=28, time=1),
    Message('control_change', channel=14, control=11, value=81, time=1),
    Message('control_change', channel=14, control=10, value=30, time=1),
    Message('control_change', channel=14, control=10, value=30, time=1),
    Message('control_change', channel=14, control=11, value=80, time=0),
    Message('control_change', channel=14, control=10, value=33, time=1),
    Message('control_change', channel=14, control=10, value=36, time=2),
    Message('control_change', channel=14, control=11, value=80, time=1),
    Message('control_change', channel=14, control=10, value=38, time=1),
    Message('control_change', channel=14, control=11, value=112, time=0),
    Message('control_change', channel=14, control=10, value=41, time=2),
    Message('note_on', channel=14, note=63, velocity=90, time=2),
    Message('control_change', channel=14, control=10, value=44, time=0),
    Message('control_change', channel=14, control=10, value=46, time=2),
    Message('control_change', channel=14, control=10, value=46, time=1),
    Message('note_off', channel=14, note=63, velocity=64, time=0),
    Message('note_off', channel=14, note=67, velocity=64, time=0),
    Message('control_change', channel=14, control=10, value=49, time=1),
    Message('note_on', channel=14, note=62, velocity=85, time=2),
    Message('note_on', channel=14, note=64, velocity=74, time=0),
    Message('control_change', channel=14, control=10, value=51, time=1),
    Message('note_on', channel=14, note=74, velocity=104, time=0),
    Message('control_change', channel=14, control=10, value=54, time=1),
    Message('note_on', channel=14, note=75, velocity=102, time=1),
    Message('control_change', channel=14, control=10, value=57, time=1),
    Message('control_change', channel=14, control=10, value=59, time=2),
    Message('note_off', channel=14, note=71, velocity=64, time=1),
    Message('control_change', channel=14, control=10, value=62, time=1),
    Message('note_on', channel=14, note=65, velocity=102, time=0),
    Message('control_change', channel=14, control=10, value=63, time=1),
    Message('control_change', channel=14, control=10, value=64, time=1),
    Message('note_off', channel=14, note=74, velocity=64, time=2),
    Message('note_on', channel=14, note=76, velocity=113, time=0),
    Message('control_change', channel=14, control=10, value=66, time=1),
    Message('note_off', channel=14, note=75, velocity=64, time=0),
    Message('note_off', channel=14, note=62, velocity=64, time=0),
    Message('control_change', channel=14, control=10, value=69, time=0),
    Message('note_off', channel=14, note=64, velocity=64, time=0),
    Message('control_change', channel=14, control=10, value=72, time=2),
    Message('control_change', channel=14, control=10, value=74, time=4),
    Message('control_change', channel=14, control=10, value=77, time=0),
    Message('control_change', channel=14, control=10, value=79, time=2),
    Message('control_change', channel=14, control=10, value=80, time=0),
    Message('control_change', channel=14, control=10, value=82, time=2),
    Message('control_change', channel=14, control=10, value=85, time=2),
    Message('control_change', channel=14, control=10, value=88, time=2),
    Message('control_change', channel=14, control=10, value=90, time=2),
    Message('note_off', channel=14, note=65, velocity=64, time=0),
    Message('control_change', channel=14, control=10, value=93, time=1),
    Message('note_off', channel=14, note=76, velocity=64, time=1),
    Message('note_on', channel=14, note=79, velocity=127, time=0),
    Message('note_on', channel=14, note=67, velocity=119, time=1),
    Message('control_change', channel=14, control=10, value=96, time=0),
    Message('control_change', channel=14, control=10, value=96, time=1),
    Message('control_change', channel=14, control=10, value=98, time=1),
    Message('control_change', channel=14, control=10, value=101, time=2),
    Message('control_change', channel=14, control=10, value=104, time=2),
    Message('control_change', channel=14, control=10, value=106, time=2),
    Message('control_change', channel=14, control=10, value=109, time=2),
    Message('control_change', channel=14, control=10, value=111, time=2),
    Message('control_change', channel=14, control=10, value=112, time=1),
    Message('control_change', channel=14, control=10, value=114, time=1),
    Message('control_change', channel=14, control=10, value=117, time=2),
    Message('note_off', channel=14, note=79, velocity=64, time=2),
    Message('control_change', channel=14, control=10, value=119, time=0),
    Message('control_change', channel=14, control=10, value=122, time=2),
    Message('control_change', channel=14, control=10, value=125, time=1),
    Message('note_off', channel=14, note=67, velocity=64, time=1),
    Message('control_change', channel=14, control=10, value=127, time=1),
    MetaMessage('end_of_track', time=0)]),
  MidiTrack([
    MetaMessage('track_name', name='SFX Catalog 4', time=0),
    MetaMessage('channel_prefix', channel=15, time=0),
    Message('program_change', channel=15, program=85, time=0),
    Message('control_change', channel=15, control=0, value=0, time=0),
    Message('control_change', channel=15, control=32, value=16, time=0),
    Message('control_change', channel=15, control=7, value=127, time=0),
    Message('control_change', channel=15, control=10, value=64, time=0),
    Message('control_change', channel=15, control=91, value=0, time=0),
    Message('control_change', channel=15, control=93, value=0, time=0),
    Message('note_on', channel=15, note=52, velocity=110, time=4093),
    Message('note_on', channel=15, note=47, velocity=107, time=50),
    Message('note_off', channel=15, note=52, velocity=64, time=6),
    Message('note_on', channel=15, note=52, velocity=107, time=16),
    Message('note_off', channel=15, note=52, velocity=64, time=10),
    Message('note_on', channel=15, note=52, velocity=96, time=14),
    Message('note_on', channel=15, note=59, velocity=100, time=24),
    Message('note_off', channel=15, note=52, velocity=64, time=1),
    Message('note_off', channel=15, note=47, velocity=64, time=1),
    Message('note_off', channel=15, note=59, velocity=64, time=104),
    Message('control_change', channel=15, control=10, value=64, time=11943),
    Message('control_change', channel=15, control=10, value=17, time=0),
    Message('control_change', channel=15, control=11, value=127, time=192),
    Message('control_change', channel=15, control=11, value=52, time=0),
    Message('control_change', channel=15, control=11, value=53, time=3),
    Message('control_change', channel=15, control=11, value=54, time=1),
    Message('control_change', channel=15, control=11, value=55, time=2),
    Message('control_change', channel=15, control=11, value=56, time=3),
    Message('control_change', channel=15, control=11, value=57, time=1),
    Message('control_change', channel=15, control=11, value=58, time=2),
    Message('control_change', channel=15, control=11, value=59, time=2),
    Message('control_change', channel=15, control=11, value=61, time=2),
    Message('control_change', channel=15, control=11, value=62, time=1),
    Message('control_change', channel=15, control=11, value=63, time=2),
    Message('control_change', channel=15, control=11, value=64, time=2),
    Message('control_change', channel=15, control=11, value=64, time=1),
    Message('control_change', channel=15, control=11, value=65, time=2),
    Message('control_change', channel=15, control=11, value=66, time=1),
    Message('control_change', channel=15, control=11, value=67, time=2),
    Message('control_change', channel=15, control=11, value=68, time=2),
    Message('control_change', channel=15, control=11, value=69, time=2),
    Message('control_change', channel=15, control=11, value=70, time=2),
    Message('control_change', channel=15, control=11, value=70, time=1),
    Message('control_change', channel=15, control=11, value=71, time=1),
    Message('control_change', channel=15, control=11, value=72, time=2),
    Message('control_change', channel=15, control=11, value=73, time=1),
    Message('control_change', channel=15, control=11, value=74, time=3),
    Message('control_change', channel=15, control=11, value=76, time=1),
    Message('control_change', channel=15, control=11, value=77, time=3),
    Message('note_on', channel=15, note=65, velocity=58, time=0),
    Message('control_change', channel=15, control=11, value=77, time=1),
    Message('control_change', channel=15, control=11, value=78, time=0),
    Message('control_change', channel=15, control=11, value=79, time=2),
    Message('control_change', channel=15, control=11, value=80, time=3),
    Message('control_change', channel=15, control=11, value=81, time=1),
    Message('control_change', channel=15, control=11, value=82, time=2),
    Message('control_change', channel=15, control=11, value=83, time=3),
    Message('control_change', channel=15, control=11, value=83, time=1),
    Message('control_change', channel=15, control=11, value=84, time=0),
    Message('control_change', channel=15, control=11, value=85, time=2),
    Message('control_change', channel=15, control=11, value=86, time=2),
    Message('control_change', channel=15, control=11, value=87, time=2),
    Message('control_change', channel=15, control=11, value=88, time=1),
    Message('control_change', channel=15, control=11, value=89, time=2),
    Message('control_change', channel=15, control=11, value=90, time=3),
    Message('control_change', channel=15, control=11, value=91, time=0),
    Message('control_change', channel=15, control=11, value=92, time=1),
    Message('control_change', channel=15, control=11, value=93, time=2),
    Message('control_change', channel=15, control=11, value=94, time=2),
    Message('control_change', channel=15, control=11, value=95, time=2),
    Message('control_change', channel=15, control=11, value=96, time=2),
    Message('control_change', channel=15, control=11, value=97, time=3),
    Message('control_change', channel=15, control=11, value=98, time=1),
    Message('control_change', channel=15, control=11, value=99, time=2),
    Message('control_change', channel=15, control=11, value=100, time=2),
    Message('control_change', channel=15, control=11, value=101, time=2),
    Message('control_change', channel=15, control=11, value=102, time=1),
    Message('control_change', channel=15, control=11, value=103, time=2),
    Message('control_change', channel=15, control=11, value=103, time=2),
    Message('control_change', channel=15, control=11, value=104, time=0),
    Message('control_change', channel=15, control=11, value=106, time=2),
    Message('control_change', channel=15, control=11, value=107, time=4),
    Message('control_change', channel=15, control=11, value=108, time=0),
    Message('control_change', channel=15, control=11, value=109, time=2),
    Message('control_change', channel=15, control=11, value=109, time=175),
    Message('control_change', channel=15, control=11, value=42, time=0),
    Message('control_change', channel=15, control=11, value=42, time=14),
    Message('control_change', channel=15, control=11, value=30, time=0),
    Message('control_change', channel=15, control=11, value=30, time=14),
    Message('control_change', channel=15, control=11, value=29, time=0),
    Message('control_change', channel=15, control=11, value=29, time=14),
    Message('control_change', channel=15, control=11, value=42, time=0),
    Message('control_change', channel=15, control=11, value=42, time=13),
    Message('control_change', channel=15, control=11, value=58, time=0),
    Message('control_change', channel=15, control=11, value=58, time=14),
    Message('control_change', channel=15, control=11, value=57, time=0),
    Message('control_change', channel=15, control=11, value=57, time=15),
    Message('control_change', channel=15, control=11, value=56, time=0),
    Message('control_change', channel=15, control=11, value=56, time=16),
    Message('control_change', channel=15, control=11, value=59, time=0),
    Message('control_change', channel=15, control=11, value=58, time=0),
    Message('control_change', channel=15, control=11, value=57, time=5),
    Message('control_change', channel=15, control=11, value=57, time=0),
    Message('control_change', channel=15, control=11, value=56, time=1),
    Message('control_change', channel=15, control=11, value=55, time=2),
    Message('control_change', channel=15, control=11, value=54, time=2),
    Message('control_change', channel=15, control=11, value=53, time=1),
    Message('control_change', channel=15, control=11, value=52, time=4),
    Message('control_change', channel=15, control=11, value=51, time=2),
    Message('control_change', channel=15, control=11, value=51, time=0),
    Message('control_change', channel=15, control=11, value=50, time=2),
    Message('control_change', channel=15, control=11, value=49, time=2),
    Message('control_change', channel=15, control=11, value=48, time=2),
    Message('control_change', channel=15, control=11, value=47, time=4),
    Message('control_change', channel=15, control=11, value=46, time=2),
    Message('control_change', channel=15, control=11, value=46, time=0),
    Message('control_change', channel=15, control=11, value=45, time=2),
    Message('control_change', channel=15, control=11, value=44, time=2),
    Message('control_change', channel=15, control=11, value=43, time=2),
    Message('control_change', channel=15, control=11, value=42, time=3),
    Message('control_change', channel=15, control=11, value=41, time=2),
    Message('control_change', channel=15, control=11, value=40, time=1),
    Message('control_change', channel=15, control=11, value=40, time=1),
    Message('control_change', channel=15, control=11, value=39, time=2),
    Message('control_change', channel=15, control=11, value=38, time=3),
    Message('control_change', channel=15, control=11, value=37, time=3),
    Message('control_change', channel=15, control=11, value=36, time=3),
    Message('control_change', channel=15, control=11, value=36, time=1),
    Message('control_change', channel=15, control=11, value=35, time=0),
    Message('control_change', channel=15, control=11, value=34, time=2),
    Message('control_change', channel=15, control=11, value=33, time=3),
    Message('control_change', channel=15, control=11, value=32, time=2),
    Message('control_change', channel=15, control=11, value=49, time=2),
    Message('note_on', channel=15, note=59, velocity=61, time=40),
    Message('control_change', channel=15, control=10, value=17, time=12),
    Message('control_change', channel=15, control=10, value=0, time=0),
    Message('control_change', channel=15, control=10, value=3, time=4),
    Message('control_change', channel=15, control=10, value=7, time=2),
    Message('control_change', channel=15, control=10, value=12, time=2),
    Message('control_change', channel=15, control=10, value=16, time=2),
    Message('note_off', channel=15, note=59, velocity=64, time=1),
    Message('note_on', channel=15, note=59, velocity=61, time=0),
    Message('control_change', channel=15, control=10, value=21, time=0),
    Message('control_change', channel=15, control=10, value=26, time=3),
    Message('control_change', channel=15, control=10, value=30, time=1),
    Message('control_change', channel=15, control=10, value=35, time=2),
    Message('control_change', channel=15, control=10, value=40, time=2),
    Message('control_change', channel=15, control=10, value=44, time=2),
    Message('control_change', channel=15, control=10, value=45, time=1),
    Message('control_change', channel=15, control=10, value=49, time=1),
    Message('control_change', channel=15, control=10, value=53, time=2),
    Message('control_change', channel=15, control=10, value=58, time=2),
    Message('control_change', channel=15, control=10, value=63, time=2),
    Message('control_change', channel=15, control=10, value=66, time=2),
    Message('control_change', channel=15, control=10, value=71, time=2),
    Message('control_change', channel=15, control=10, value=73, time=1),
    Message('control_change', channel=15, control=10, value=76, time=1),
    Message('note_off', channel=15, note=59, velocity=64, time=0),
    Message('note_on', channel=15, note=59, velocity=61, time=0),
    Message('control_change', channel=15, control=10, value=80, time=2),
    Message('control_change', channel=15, control=10, value=85, time=1),
    Message('control_change', channel=15, control=10, value=90, time=2),
    Message('control_change', channel=15, control=10, value=94, time=2),
    Message('control_change', channel=15, control=10, value=99, time=2),
    Message('control_change', channel=15, control=10, value=101, time=2),
    Message('control_change', channel=15, control=10, value=103, time=1),
    Message('control_change', channel=15, control=10, value=108, time=1),
    Message('control_change', channel=15, control=10, value=113, time=2),
    Message('control_change', channel=15, control=10, value=117, time=2),
    Message('control_change', channel=15, control=10, value=122, time=2),
    Message('control_change', channel=15, control=10, value=122, time=18),
    Message('control_change', channel=15, control=10, value=127, time=0),
    Message('control_change', channel=15, control=10, value=126, time=2),
    Message('control_change', channel=15, control=10, value=125, time=1),
    Message('control_change', channel=15, control=11, value=49, time=3),
    Message('control_change', channel=15, control=11, value=48, time=0),
    Message('control_change', channel=15, control=10, value=124, time=1),
    Message('control_change', channel=15, control=10, value=123, time=2),
    Message('control_change', channel=15, control=10, value=122, time=1),
    Message('control_change', channel=15, control=11, value=71, time=0),
    Message('control_change', channel=15, control=10, value=122, time=3),
    Message('control_change', channel=15, control=11, value=97, time=1),
    Message('control_change', channel=15, control=10, value=121, time=3),
    Message('note_on', channel=15, note=66, velocity=107, time=19),
    Message('note_off', channel=15, note=59, velocity=64, time=65),
    Message('control_change', channel=15, control=11, value=97, time=169),
    Message('control_change', channel=15, control=11, value=88, time=0),
    Message('control_change', channel=15, control=11, value=87, time=4),
    Message('control_change', channel=15, control=11, value=86, time=3),
    Message('control_change', channel=15, control=11, value=85, time=6),
    Message('control_change', channel=15, control=11, value=84, time=3),
    Message('control_change', channel=15, control=11, value=84, time=2),
    Message('control_change', channel=15, control=11, value=83, time=3),
    Message('control_change', channel=15, control=11, value=82, time=4),
    Message('control_change', channel=15, control=11, value=81, time=3),
    Message('control_change', channel=15, control=11, value=81, time=3),
    Message('control_change', channel=15, control=11, value=80, time=5),
    Message('control_change', channel=15, control=11, value=79, time=2),
    Message('control_change', channel=15, control=11, value=78, time=2),
    Message('control_change', channel=15, control=11, value=78, time=4),
    Message('control_change', channel=15, control=11, value=77, time=4),
    Message('control_change', channel=15, control=11, value=76, time=4),
    Message('control_change', channel=15, control=11, value=75, time=3),
    Message('control_change', channel=15, control=11, value=74, time=6),
    Message('control_change', channel=15, control=11, value=73, time=3),
    Message('control_change', channel=15, control=11, value=73, time=1),
    Message('control_change', channel=15, control=11, value=72, time=4),
    Message('control_change', channel=15, control=11, value=71, time=4),
    Message('control_change', channel=15, control=11, value=70, time=3),
    Message('control_change', channel=15, control=11, value=70, time=3),
    Message('control_change', channel=15, control=11, value=69, time=5),
    Message('control_change', channel=15, control=11, value=68, time=2),
    Message('control_change', channel=15, control=11, value=67, time=2),
    Message('control_change', channel=15, control=11, value=67, time=2),
    Message('control_change', channel=15, control=11, value=66, time=6),
    Message('control_change', channel=15, control=11, value=65, time=3),
    Message('control_change', channel=15, control=11, value=64, time=1),
    Message('control_change', channel=15, control=11, value=64, time=3),
    Message('control_change', channel=15, control=11, value=63, time=5),
    Message('control_change', channel=15, control=11, value=62, time=4),
    Message('control_change', channel=15, control=11, value=62, time=1),
    Message('control_change', channel=15, control=11, value=61, time=4),
    Message('control_change', channel=15, control=11, value=60, time=4),
    Message('control_change', channel=15, control=11, value=59, time=3),
    Message('control_change', channel=15, control=11, value=59, time=0),
    Message('control_change', channel=15, control=11, value=58, time=8),
    Message('control_change', channel=15, control=11, value=57, time=2),
    Message('control_change', channel=15, control=11, value=56, time=2),
    Message('control_change', channel=15, control=11, value=56, time=3),
    Message('control_change', channel=15, control=11, value=55, time=5),
    Message('control_change', channel=15, control=11, value=54, time=4),
    Message('control_change', channel=15, control=11, value=53, time=3),
    Message('control_change', channel=15, control=11, value=52, time=5),
    Message('control_change', channel=15, control=11, value=51, time=4),
    Message('control_change', channel=15, control=11, value=51, time=1),
    Message('control_change', channel=15, control=11, value=50, time=4),
    Message('control_change', channel=15, control=11, value=49, time=4),
    Message('control_change', channel=15, control=11, value=49, time=41),
    Message('control_change', channel=15, control=11, value=55, time=0),
    Message('note_on', channel=15, note=60, velocity=38, time=11),
    Message('control_change', channel=15, control=10, value=121, time=11),
    Message('control_change', channel=15, control=10, value=105, time=0),
    Message('control_change', channel=15, control=10, value=104, time=2),
    Message('control_change', channel=15, control=10, value=102, time=2),
    Message('control_change', channel=15, control=10, value=101, time=2),
    Message('control_change', channel=15, control=10, value=100, time=2),
    Message('control_change', channel=15, control=10, value=99, time=2),
    Message('control_change', channel=15, control=10, value=97, time=2),
    Message('control_change', channel=15, control=10, value=97, time=0),
    Message('control_change', channel=15, control=10, value=96, time=4),
    Message('control_change', channel=15, control=10, value=95, time=0),
    Message('control_change', channel=15, control=10, value=94, time=1),
    Message('control_change', channel=15, control=10, value=92, time=4),
    Message('control_change', channel=15, control=10, value=91, time=0),
    Message('control_change', channel=15, control=10, value=90, time=2),
    Message('control_change', channel=15, control=10, value=89, time=1),
    Message('control_change', channel=15, control=10, value=89, time=3),
    Message('control_change', channel=15, control=10, value=88, time=0),
    Message('control_change', channel=15, control=10, value=86, time=2),
    Message('control_change', channel=15, control=10, value=85, time=3),
    Message('control_change', channel=15, control=10, value=84, time=1),
    Message('control_change', channel=15, control=10, value=83, time=2),
    Message('control_change', channel=15, control=10, value=82, time=1),
    Message('control_change', channel=15, control=10, value=81, time=2),
    Message('control_change', channel=15, control=10, value=80, time=1),
    Message('control_change', channel=15, control=10, value=79, time=2),
    Message('control_change', channel=15, control=10, value=78, time=2),
    Message('control_change', channel=15, control=10, value=77, time=1),
    Message('control_change', channel=15, control=10, value=75, time=2),
    Message('control_change', channel=15, control=10, value=74, time=2),
    Message('control_change', channel=15, control=10, value=74, time=0),
    Message('control_change', channel=15, control=10, value=73, time=2),
    Message('control_change', channel=15, control=10, value=72, time=2),
    Message('control_change', channel=15, control=10, value=70, time=2),
    Message('control_change', channel=15, control=10, value=69, time=2),
    Message('control_change', channel=15, control=10, value=68, time=2),
    Message('control_change', channel=15, control=10, value=67, time=2),
    Message('control_change', channel=15, control=10, value=67, time=0),
    Message('control_change', channel=15, control=10, value=66, time=2),
    Message('control_change', channel=15, control=10, value=64, time=2),
    Message('control_change', channel=15, control=10, value=63, time=3),
    Message('control_change', channel=15, control=10, value=62, time=2),
    Message('control_change', channel=15, control=10, value=60, time=2),
    Message('control_change', channel=15, control=10, value=59, time=1),
    Message('control_change', channel=15, control=10, value=59, time=1),
    Message('control_change', channel=15, control=10, value=58, time=2),
    Message('control_change', channel=15, control=10, value=57, time=2),
    Message('control_change', channel=15, control=10, value=56, time=4),
    Message('control_change', channel=15, control=10, value=54, time=0),
    Message('control_change', channel=15, control=10, value=53, time=2),
    Message('control_change', channel=15, control=10, value=52, time=1),
    Message('control_change', channel=15, control=10, value=52, time=0),
    Message('control_change', channel=15, control=10, value=51, time=4),
    Message('control_change', channel=15, control=10, value=49, time=0),
    Message('control_change', channel=15, control=10, value=48, time=2),
    Message('control_change', channel=15, control=10, value=47, time=2),
    Message('control_change', channel=15, control=10, value=46, time=2),
    Message('control_change', channel=15, control=10, value=45, time=2),
    Message('control_change', channel=15, control=10, value=45, time=0),
    Message('control_change', channel=15, control=10, value=43, time=2),
    Message('control_change', channel=15, control=10, value=42, time=2),
    Message('control_change', channel=15, control=10, value=41, time=2),
    Message('control_change', channel=15, control=10, value=40, time=2),
    Message('control_change', channel=15, control=10, value=38, time=2),
    Message('control_change', channel=15, control=10, value=37, time=1),
    Message('control_change', channel=15, control=10, value=36, time=1),
    Message('control_change', channel=15, control=10, value=36, time=1),
    Message('control_change', channel=15, control=10, value=35, time=3),
    Message('control_change', channel=15, control=10, value=34, time=1),
    Message('control_change', channel=15, control=10, value=32, time=2),
    Message('control_change', channel=15, control=10, value=31, time=3),
    Message('control_change', channel=15, control=10, value=30, time=1),
    Message('control_change', channel=15, control=10, value=29, time=1),
    Message('control_change', channel=15, control=10, value=29, time=1),
    Message('note_on', channel=15, note=62, velocity=87, time=1),
    Message('note_on', channel=15, note=61, velocity=85, time=1),
    Message('control_change', channel=15, control=10, value=27, time=0),
    Message('control_change', channel=15, control=10, value=26, time=2),
    Message('control_change', channel=15, control=10, value=25, time=2),
    Message('note_off', channel=15, note=60, velocity=64, time=0),
    Message('control_change', channel=15, control=10, value=24, time=2),
    Message('control_change', channel=15, control=10, value=23, time=2),
    Message('control_change', channel=15, control=10, value=22, time=1),
    Message('control_change', channel=15, control=10, value=21, time=1),
    Message('control_change', channel=15, control=10, value=20, time=2),
    Message('control_change', channel=15, control=10, value=19, time=1),
    Message('control_change', channel=15, control=10, value=18, time=2),
    Message('control_change', channel=15, control=10, value=16, time=3),
    Message('control_change', channel=15, control=10, value=15, time=1),
    Message('control_change', channel=15, control=10, value=14, time=2),
    Message('control_change', channel=15, control=10, value=14, time=0),
    Message('control_change', channel=15, control=10, value=13, time=3),
    Message('control_change', channel=15, control=10, value=11, time=1),
    Message('control_change', channel=15, control=10, value=10, time=2),
    Message('control_change', channel=15, control=10, value=9, time=3),
    Message('control_change', channel=15, control=10, value=8, time=1),
    Message('control_change', channel=15, control=10, value=7, time=2),
    Message('control_change', channel=15, control=10, value=5, time=2),
    Message('control_change', channel=15, control=10, value=4, time=2),
    Message('note_on', channel=15, note=69, velocity=33, time=47),
    Message('control_change', channel=15, control=11, value=55, time=26),
    Message('control_change', channel=15, control=11, value=53, time=0),
    Message('control_change', channel=15, control=11, value=53, time=16),
    Message('control_change', channel=15, control=11, value=52, time=0),
    Message('control_change', channel=15, control=11, value=52, time=20),
    Message('control_change', channel=15, control=11, value=51, time=0),
    Message('control_change', channel=15, control=11, value=51, time=21),
    Message('control_change', channel=15, control=11, value=50, time=0),
    Message('note_off', channel=15, note=65, velocity=64, time=10),
    Message('control_change', channel=15, control=11, value=50, time=11),
    Message('control_change', channel=15, control=11, value=49, time=0),
    Message('control_change', channel=15, control=11, value=49, time=21),
    Message('control_change', channel=15, control=11, value=48, time=0),
    Message('control_change', channel=15, control=11, value=48, time=20),
    Message('control_change', channel=15, control=11, value=47, time=0),
    Message('control_change', channel=15, control=10, value=4, time=6),
    Message('control_change', channel=15, control=10, value=4, time=0),
    Message('control_change', channel=15, control=10, value=5, time=1),
    Message('control_change', channel=15, control=10, value=5, time=1),
    Message('control_change', channel=15, control=10, value=6, time=4),
    Message('control_change', channel=15, control=10, value=7, time=3),
    Message('control_change', channel=15, control=10, value=8, time=4),
    Message('control_change', channel=15, control=10, value=8, time=1),
    Message('control_change', channel=15, control=11, value=47, time=1),
    Message('control_change', channel=15, control=11, value=46, time=0),
    Message('control_change', channel=15, control=10, value=9, time=2),
    Message('control_change', channel=15, control=10, value=10, time=5),
    Message('control_change', channel=15, control=10, value=10, time=4),
    Message('control_change', channel=15, control=10, value=11, time=0),
    Message('note_off', channel=15, note=61, velocity=64, time=4),
    Message('control_change', channel=15, control=10, value=12, time=0),
    Message('control_change', channel=15, control=10, value=13, time=4),
    Message('control_change', channel=15, control=11, value=46, time=2),
    Message('control_change', channel=15, control=11, value=45, time=0),
    Message('control_change', channel=15, control=10, value=13, time=2),
    Message('control_change', channel=15, control=10, value=14, time=0),
    Message('control_change', channel=15, control=10, value=15, time=4),
    Message('control_change', channel=15, control=10, value=16, time=3),
    Message('note_off', channel=15, note=62, velocity=64, time=1),
    Message('control_change', channel=15, control=10, value=17, time=3),
    Message('control_change', channel=15, control=10, value=17, time=1),
    Message('control_change', channel=15, control=10, value=18, time=3),
    Message('control_change', channel=15, control=10, value=19, time=4),
    Message('control_change', channel=15, control=11, value=45, time=0),
    Message('control_change', channel=15, control=11, value=44, time=0),
    Message('control_change', channel=15, control=10, value=20, time=4),
    Message('control_change', channel=15, control=10, value=20, time=1),
    Message('control_change', channel=15, control=10, value=21, time=4),
    Message('control_change', channel=15, control=10, value=22, time=2),
    Message('control_change', channel=15, control=10, value=23, time=4),
    Message('control_change', channel=15, control=10, value=23, time=2),
    Message('note_off', channel=15, note=66, velocity=64, time=0),
    Message('control_change', channel=15, control=10, value=24, time=2),
    Message('control_change', channel=15, control=11, value=44, time=2),
    Message('control_change', channel=15, control=11, value=43, time=0),
    Message('control_change', channel=15, control=10, value=25, time=2),
    Message('control_change', channel=15, control=10, value=26, time=4),
    Message('control_change', channel=15, control=10, value=26, time=2),
    Message('control_change', channel=15, control=10, value=27, time=4),
    Message('control_change', channel=15, control=10, value=28, time=4),
    Message('control_change', channel=15, control=10, value=29, time=3),
    Message('control_change', channel=15, control=10, value=29, time=1),
    Message('control_change', channel=15, control=11, value=43, time=1),
    Message('control_change', channel=15, control=11, value=42, time=0),
    Message('control_change', channel=15, control=10, value=30, time=2),
    Message('control_change', channel=15, control=10, value=31, time=4),
    Message('control_change', channel=15, control=10, value=32, time=4),
    Message('control_change', channel=15, control=10, value=32, time=1),
    Message('control_change', channel=15, control=10, value=33, time=4),
    Message('control_change', channel=15, control=10, value=34, time=2),
    Message('control_change', channel=15, control=10, value=35, time=4),
    Message('control_change', channel=15, control=11, value=42, time=0),
    Message('control_change', channel=15, control=11, value=41, time=0),
    Message('control_change', channel=15, control=10, value=35, time=2),
    Message('control_change', channel=15, control=10, value=36, time=2),
    Message('control_change', channel=15, control=10, value=37, time=4),
    Message('control_change', channel=15, control=10, value=38, time=4),
    Message('control_change', channel=15, control=10, value=38, time=2),
    Message('control_change', channel=15, control=10, value=39, time=2),
    Message('control_change', channel=15, control=11, value=41, time=2),
    Message('control_change', channel=15, control=11, value=41, time=0),
    Message('control_change', channel=15, control=10, value=40, time=2),
    Message('control_change', channel=15, control=10, value=41, time=4),
    Message('control_change', channel=15, control=10, value=41, time=2),
    Message('control_change', channel=15, control=10, value=42, time=1),
    Message('control_change', channel=15, control=10, value=43, time=4),
    Message('control_change', channel=15, control=10, value=44, time=4),
    Message('control_change', channel=15, control=10, value=44, time=3),
    Message('control_change', channel=15, control=10, value=45, time=4),
    Message('control_change', channel=15, control=10, value=46, time=2),
    Message('control_change', channel=15, control=10, value=47, time=4),
    Message('control_change', channel=15, control=10, value=47, time=2),
    Message('control_change', channel=15, control=10, value=48, time=4),
    Message('control_change', channel=15, control=10, value=49, time=2),
    Message('control_change', channel=15, control=10, value=50, time=4),
    Message('control_change', channel=15, control=10, value=50, time=2),
    Message('control_change', channel=15, control=10, value=51, time=2),
    Message('control_change', channel=15, control=10, value=52, time=4),
    Message('control_change', channel=15, control=10, value=53, time=4),
    Message('control_change', channel=15, control=10, value=53, time=2),
    Message('control_change', channel=15, control=10, value=54, time=1),
    Message('control_change', channel=15, control=10, value=55, time=4),
    Message('control_change', channel=15, control=10, value=56, time=4),
    Message('control_change', channel=15, control=10, value=56, time=3),
    Message('control_change', channel=15, control=10, value=57, time=2),
    Message('control_change', channel=15, control=10, value=58, time=3),
    Message('control_change', channel=15, control=10, value=59, time=6),
    Message('control_change', channel=15, control=10, value=59, time=1),
    Message('control_change', channel=15, control=10, value=60, time=0),
    Message('control_change', channel=15, control=11, value=41, time=1),
    Message('control_change', channel=15, control=11, value=42, time=0),
    Message('control_change', channel=15, control=10, value=61, time=3),
    Message('control_change', channel=15, control=10, value=62, time=4),
    Message('control_change', channel=15, control=10, value=62, time=4),
    Message('control_change', channel=15, control=10, value=63, time=2),
    Message('control_change', channel=15, control=10, value=64, time=4),
    Message('control_change', channel=15, control=10, value=64, time=6),
    Message('control_change', channel=15, control=10, value=65, time=1),
    Message('control_change', channel=15, control=10, value=66, time=4),
    Message('control_change', channel=15, control=10, value=67, time=4),
    Message('control_change', channel=15, control=10, value=67, time=3),
    Message('control_change', channel=15, control=10, value=68, time=1),
    Message('control_change', channel=15, control=10, value=69, time=4),
    Message('control_change', channel=15, control=10, value=70, time=4),
    Message('control_change', channel=15, control=10, value=70, time=3),
    Message('control_change', channel=15, control=10, value=71, time=0),
    Message('control_change', channel=15, control=10, value=72, time=4),
    Message('control_change', channel=15, control=10, value=73, time=4),
    Message('control_change', channel=15, control=10, value=73, time=4),
    Message('control_change', channel=15, control=10, value=74, time=0),
    Message('control_change', channel=15, control=10, value=75, time=4),
    Message('control_change', channel=15, control=10, value=76, time=3),
    Message('control_change', channel=15, control=10, value=77, time=4),
    Message('control_change', channel=15, control=10, value=77, time=1),
    Message('control_change', channel=15, control=10, value=78, time=3),
    Message('control_change', channel=15, control=10, value=79, time=7),
    Message('control_change', channel=15, control=10, value=79, time=2),
    Message('control_change', channel=15, control=10, value=80, time=1),
    Message('control_change', channel=15, control=10, value=81, time=3),
    Message('control_change', channel=15, control=10, value=82, time=4),
    Message('control_change', channel=15, control=10, value=82, time=4),
    Message('control_change', channel=15, control=10, value=83, time=0),
    Message('control_change', channel=15, control=10, value=84, time=4),
    Message('control_change', channel=15, control=10, value=85, time=4),
    Message('control_change', channel=15, control=10, value=86, time=4),
    Message('control_change', channel=15, control=10, value=87, time=5),
    Message('control_change', channel=15, control=10, value=88, time=2),
    Message('control_change', channel=15, control=10, value=89, time=4),
    Message('control_change', channel=15, control=10, value=89, time=1),
    Message('control_change', channel=15, control=10, value=90, time=5),
    Message('control_change', channel=15, control=10, value=91, time=2),
    Message('control_change', channel=15, control=10, value=92, time=4),
    Message('control_change', channel=15, control=10, value=92, time=1),
    Message('control_change', channel=15, control=10, value=93, time=5),
    Message('control_change', channel=15, control=10, value=94, time=1),
    Message('control_change', channel=15, control=10, value=95, time=5),
    Message('control_change', channel=15, control=10, value=95, time=1),
    Message('control_change', channel=15, control=10, value=96, time=2),
    Message('control_change', channel=15, control=10, value=97, time=6),
    Message('control_change', channel=15, control=10, value=97, time=4),
    Message('control_change', channel=15, control=10, value=98, time=0),
    Message('control_change', channel=15, control=10, value=99, time=3),
    Message('control_change', channel=15, control=10, value=100, time=4),
    Message('control_change', channel=15, control=10, value=101, time=4),
    Message('control_change', channel=15, control=10, value=101, time=1),
    Message('control_change', channel=15, control=10, value=102, time=3),
    Message('control_change', channel=15, control=10, value=103, time=4),
    Message('control_change', channel=15, control=10, value=104, time=4),
    Message('control_change', channel=15, control=10, value=104, time=1),
    Message('control_change', channel=15, control=10, value=105, time=3),
    Message('control_change', channel=15, control=10, value=106, time=3),
    Message('control_change', channel=15, control=10, value=107, time=5),
    Message('control_change', channel=15, control=10, value=107, time=1),
    Message('control_change', channel=15, control=10, value=108, time=2),
    Message('control_change', channel=15, control=10, value=109, time=4),
    Message('control_change', channel=15, control=10, value=110, time=4),
    Message('control_change', channel=15, control=10, value=110, time=2),
    Message('control_change', channel=15, control=10, value=111, time=2),
    Message('control_change', channel=15, control=10, value=112, time=3),
    Message('control_change', channel=15, control=10, value=113, time=4),
    Message('control_change', channel=15, control=10, value=113, time=3),
    Message('control_change', channel=15, control=10, value=114, time=1),
    Message('control_change', channel=15, control=10, value=115, time=6),
    Message('control_change', channel=15, control=10, value=116, time=4),
    Message('control_change', channel=15, control=10, value=116, time=1),
    Message('control_change', channel=15, control=10, value=117, time=3),
    Message('control_change', channel=15, control=10, value=118, time=4),
    Message('control_change', channel=15, control=10, value=119, time=4),
    Message('control_change', channel=15, control=10, value=119, time=1),
    Message('control_change', channel=15, control=10, value=120, time=2),
    Message('control_change', channel=15, control=10, value=121, time=4),
    Message('control_change', channel=15, control=10, value=122, time=4),
    Message('control_change', channel=15, control=10, value=122, time=2),
    Message('control_change', channel=15, control=10, value=123, time=2),
    Message('control_change', channel=15, control=10, value=124, time=4),
    Message('control_change', channel=15, control=10, value=125, time=3),
    Message('control_change', channel=15, control=10, value=125, time=3),
    Message('control_change', channel=15, control=10, value=126, time=1),
    Message('control_change', channel=15, control=11, value=42, time=19),
    Message('control_change', channel=15, control=11, value=45, time=0),
    Message('control_change', channel=15, control=10, value=126, time=15),
    Message('control_change', channel=15, control=10, value=127, time=0),
    Message('control_change', channel=15, control=10, value=127, time=43),
    Message('control_change', channel=15, control=10, value=126, time=0),
    Message('control_change', channel=15, control=10, value=125, time=6),
    Message('control_change', channel=15, control=10, value=124, time=5),
    Message('control_change', channel=15, control=10, value=123, time=6),
    Message('control_change', channel=15, control=10, value=122, time=1),
    Message('control_change', channel=15, control=10, value=122, time=6),
    Message('control_change', channel=15, control=10, value=121, time=6),
    Message('control_change', channel=15, control=10, value=121, time=0),
    Message('control_change', channel=15, control=10, value=120, time=6),
    Message('control_change', channel=15, control=10, value=119, time=6),
    Message('control_change', channel=15, control=10, value=119, time=0),
    Message('control_change', channel=15, control=10, value=118, time=6),
    Message('control_change', channel=15, control=10, value=117, time=5),
    Message('control_change', channel=15, control=10, value=116, time=1),
    Message('control_change', channel=15, control=10, value=116, time=6),
    Message('note_on', channel=15, note=70, velocity=64, time=3),
    Message('control_change', channel=15, control=10, value=115, time=3),
    Message('control_change', channel=15, control=10, value=115, time=0),
    Message('control_change', channel=15, control=10, value=114, time=5),
    Message('control_change', channel=15, control=10, value=113, time=7),
    Message('control_change', channel=15, control=10, value=113, time=0),
    Message('note_off', channel=15, note=69, velocity=64, time=2),
    Message('control_change', channel=15, control=10, value=112, time=4),
    Message('control_change', channel=15, control=10, value=111, time=6),
    Message('control_change', channel=15, control=10, value=110, time=5),
    Message('control_change', channel=15, control=10, value=109, time=6),
    Message('control_change', channel=15, control=10, value=108, time=1),
    Message('control_change', channel=15, control=10, value=108, time=5),
    Message('control_change', channel=15, control=10, value=107, time=7),
    Message('control_change', channel=15, control=10, value=107, time=0),
    Message('control_change', channel=15, control=10, value=106, time=6),
    Message('control_change', channel=15, control=10, value=105, time=6),
    Message('control_change', channel=15, control=10, value=104, time=6),
    Message('control_change', channel=15, control=10, value=103, time=6),
    Message('control_change', channel=15, control=10, value=102, time=6),
    Message('control_change', channel=15, control=10, value=101, time=5),
    Message('control_change', channel=15, control=10, value=100, time=1),
    Message('control_change', channel=15, control=10, value=100, time=5),
    Message('control_change', channel=15, control=10, value=99, time=6),
    Message('control_change', channel=15, control=10, value=98, time=1),
    Message('control_change', channel=15, control=10, value=98, time=5),
    Message('control_change', channel=15, control=10, value=97, time=7),
    Message('control_change', channel=15, control=10, value=97, time=0),
    Message('control_change', channel=15, control=10, value=96, time=5),
    Message('control_change', channel=15, control=10, value=95, time=7),
    Message('control_change', channel=15, control=10, value=94, time=6),
    Message('control_change', channel=15, control=10, value=93, time=5),
    Message('control_change', channel=15, control=10, value=92, time=1),
    Message('control_change', channel=15, control=10, value=92, time=5),
    Message('control_change', channel=15, control=10, value=91, time=6),
    Message('control_change', channel=15, control=10, value=90, time=1),
    Message('control_change', channel=15, control=10, value=90, time=4),
    Message('control_change', channel=15, control=10, value=89, time=8),
    Message('control_change', channel=15, control=10, value=89, time=0),
    Message('control_change', channel=15, control=10, value=88, time=7),
    Message('control_change', channel=15, control=10, value=87, time=3),
    Message('control_change', channel=15, control=10, value=86, time=2),
    Message('control_change', channel=15, control=10, value=86, time=5),
    Message('control_change', channel=15, control=10, value=85, time=6),
    Message('control_change', channel=15, control=10, value=84, time=1),
    Message('control_change', channel=15, control=10, value=84, time=5),
    Message('control_change', channel=15, control=10, value=83, time=6),
    Message('control_change', channel=15, control=10, value=82, time=1),
    Message('control_change', channel=15, control=10, value=82, time=5),
    Message('control_change', channel=15, control=10, value=81, time=6),
    Message('control_change', channel=15, control=10, value=80, time=1),
    Message('control_change', channel=15, control=10, value=80, time=4),
    Message('control_change', channel=15, control=10, value=79, time=6),
    Message('control_change', channel=15, control=10, value=78, time=2),
    Message('control_change', channel=15, control=10, value=78, time=4),
    Message('control_change', channel=15, control=10, value=77, time=8),
    Message('control_change', channel=15, control=10, value=77, time=0),
    Message('control_change', channel=15, control=10, value=76, time=5),
    Message('control_change', channel=15, control=10, value=75, time=6),
    Message('control_change', channel=15, control=10, value=74, time=1),
    Message('control_change', channel=15, control=10, value=74, time=5),
    Message('control_change', channel=15, control=10, value=73, time=5),
    Message('control_change', channel=15, control=10, value=72, time=2),
    Message('control_change', channel=15, control=10, value=72, time=4),
    Message('control_change', channel=15, control=10, value=71, time=6),
    Message('control_change', channel=15, control=10, value=70, time=2),
    Message('control_change', channel=15, control=10, value=70, time=4),
    Message('control_change', channel=15, control=10, value=69, time=5),
    Message('control_change', channel=15, control=10, value=68, time=3),
    Message('control_change', channel=15, control=10, value=68, time=6),
    Message('control_change', channel=15, control=10, value=67, time=5),
    Message('control_change', channel=15, control=10, value=66, time=1),
    Message('control_change', channel=15, control=10, value=66, time=4),
    Message('control_change', channel=15, control=10, value=65, time=6),
    Message('control_change', channel=15, control=10, value=64, time=2),
    Message('control_change', channel=15, control=10, value=64, time=5),
    Message('control_change', channel=15, control=10, value=64, time=15),
    Message('control_change', channel=15, control=10, value=64, time=0),
    Message('control_change', channel=15, control=11, value=45, time=27),
    Message('control_change', channel=15, control=11, value=45, time=0),
    Message('control_change', channel=15, control=11, value=45, time=21),
    Message('control_change', channel=15, control=11, value=46, time=0),
    Message('control_change', channel=15, control=11, value=46, time=29),
    Message('control_change', channel=15, control=11, value=47, time=0),
    Message('control_change', channel=15, control=11, value=47, time=29),
    Message('control_change', channel=15, control=11, value=48, time=0),
    Message('control_change', channel=15, control=11, value=48, time=28),
    Message('control_change', channel=15, control=11, value=49, time=0),
    Message('control_change', channel=15, control=11, value=49, time=29),
    Message('control_change', channel=15, control=11, value=50, time=0),
    Message('control_change', channel=15, control=11, value=50, time=29),
    Message('control_change', channel=15, control=11, value=51, time=0),
    Message('control_change', channel=15, control=11, value=51, time=29),
    Message('control_change', channel=15, control=11, value=52, time=0),
    Message('control_change', channel=15, control=11, value=52, time=30),
    Message('control_change', channel=15, control=11, value=53, time=0),
    Message('control_change', channel=15, control=11, value=53, time=30),
    Message('control_change', channel=15, control=11, value=54, time=0),
    Message('control_change', channel=15, control=11, value=54, time=28),
    Message('control_change', channel=15, control=11, value=55, time=0),
    Message('control_change', channel=15, control=11, value=55, time=29),
    Message('control_change', channel=15, control=11, value=56, time=0),
    Message('note_on', channel=15, note=71, velocity=51, time=1),
    Message('control_change', channel=15, control=11, value=56, time=28),
    Message('control_change', channel=15, control=11, value=57, time=0),
    Message('control_change', channel=15, control=11, value=57, time=29),
    Message('control_change', channel=15, control=11, value=58, time=0),
    Message('control_change', channel=15, control=11, value=58, time=28),
    Message('control_change', channel=15, control=11, value=59, time=0),
    Message('control_change', channel=15, control=11, value=59, time=29),
    Message('control_change', channel=15, control=11, value=60, time=0),
    Message('control_change', channel=15, control=11, value=60, time=29),
    Message('control_change', channel=15, control=11, value=61, time=0),
    Message('note_off', channel=15, note=70, velocity=64, time=0),
    Message('control_change', channel=15, control=11, value=61, time=29),
    Message('control_change', channel=15, control=11, value=62, time=0),
    Message('control_change', channel=15, control=11, value=62, time=30),
    Message('control_change', channel=15, control=11, value=63, time=0),
    Message('control_change', channel=15, control=11, value=63, time=29),
    Message('control_change', channel=15, control=11, value=64, time=0),
    Message('control_change', channel=15, control=11, value=64, time=29),
    Message('control_change', channel=15, control=11, value=65, time=0),
    Message('control_change', channel=15, control=11, value=65, time=53),
    Message('control_change', channel=15, control=11, value=66, time=0),
    Message('control_change', channel=15, control=11, value=65, time=10),
    Message('control_change', channel=15, control=11, value=64, time=2),
    Message('control_change', channel=15, control=11, value=64, time=8),
    Message('control_change', channel=15, control=11, value=63, time=4),
    Message('control_change', channel=15, control=11, value=63, time=2),
    Message('control_change', channel=15, control=11, value=62, time=9),
    Message('control_change', channel=15, control=11, value=61, time=1),
    Message('control_change', channel=15, control=11, value=61, time=9),
    Message('control_change', channel=15, control=11, value=60, time=3),
    Message('control_change', channel=15, control=11, value=60, time=3),
    Message('control_change', channel=15, control=11, value=59, time=9),
    Message('control_change', channel=15, control=11, value=59, time=1),
    Message('control_change', channel=15, control=11, value=58, time=10),
    Message('control_change', channel=15, control=11, value=57, time=1),
    Message('control_change', channel=15, control=11, value=57, time=5),
    Message('control_change', channel=15, control=11, value=56, time=7),
    Message('control_change', channel=15, control=11, value=56, time=3),
    Message('control_change', channel=15, control=11, value=55, time=9),
    Message('control_change', channel=15, control=11, value=55, time=1),
    Message('control_change', channel=15, control=11, value=54, time=7),
    Message('control_change', channel=15, control=11, value=53, time=4),
    Message('control_change', channel=15, control=11, value=53, time=5),
    Message('control_change', channel=15, control=11, value=52, time=7),
    Message('control_change', channel=15, control=11, value=52, time=3),
    Message('control_change', channel=15, control=11, value=51, time=6),
    Message('control_change', channel=15, control=11, value=50, time=3),
    Message('control_change', channel=15, control=11, value=50, time=7),
    Message('control_change', channel=15, control=11, value=49, time=5),
    Message('control_change', channel=15, control=11, value=49, time=5),
    Message('control_change', channel=15, control=11, value=48, time=7),
    Message('control_change', channel=15, control=11, value=48, time=3),
    Message('control_change', channel=15, control=11, value=47, time=6),
    Message('control_change', channel=15, control=11, value=46, time=3),
    Message('control_change', channel=15, control=11, value=46, time=7),
    Message('control_change', channel=15, control=11, value=45, time=5),
    Message('control_change', channel=15, control=11, value=45, time=4),
    Message('control_change', channel=15, control=11, value=44, time=7),
    Message('control_change', channel=15, control=11, value=43, time=1),
    Message('control_change', channel=15, control=11, value=43, time=9),
    Message('control_change', channel=15, control=11, value=42, time=3),
    Message('control_change', channel=15, control=11, value=42, time=6),
    Message('control_change', channel=15, control=11, value=41, time=6),
    Message('control_change', channel=15, control=11, value=41, time=1),
    Message('control_change', channel=15, control=11, value=40, time=9),
    Message('control_change', channel=15, control=11, value=39, time=2),
    Message('control_change', channel=15, control=11, value=39, time=9),
    Message('control_change', channel=15, control=11, value=38, time=3),
    Message('control_change', channel=15, control=11, value=38, time=3),
    Message('control_change', channel=15, control=11, value=37, time=9),
    Message('control_change', channel=15, control=11, value=37, time=0),
    Message('control_change', channel=15, control=11, value=36, time=10),
    Message('control_change', channel=15, control=11, value=35, time=2),
    Message('control_change', channel=15, control=11, value=35, time=5),
    Message('control_change', channel=15, control=11, value=34, time=7),
    Message('control_change', channel=15, control=11, value=34, time=2),
    Message('control_change', channel=15, control=11, value=33, time=10),
    Message('control_change', channel=15, control=11, value=33, time=0),
    Message('control_change', channel=15, control=11, value=32, time=7),
    Message('control_change', channel=15, control=11, value=31, time=5),
    Message('control_change', channel=15, control=11, value=31, time=4),
    Message('control_change', channel=15, control=11, value=30, time=8),
    Message('control_change', channel=15, control=11, value=30, time=2),
    Message('control_change', channel=15, control=11, value=29, time=10),
    Message('control_change', channel=15, control=11, value=29, time=0),
    Message('control_change', channel=15, control=11, value=28, time=6),
    Message('control_change', channel=15, control=11, value=27, time=6),
    Message('control_change', channel=15, control=11, value=27, time=4),
    Message('control_change', channel=15, control=11, value=26, time=8),
    Message('control_change', channel=15, control=11, value=26, time=3),
    Message('control_change', channel=15, control=11, value=25, time=6),
    Message('control_change', channel=15, control=11, value=24, time=3),
    Message('control_change', channel=15, control=11, value=24, time=6),
    Message('control_change', channel=15, control=11, value=23, time=6),
    Message('control_change', channel=15, control=11, value=23, time=4),
    Message('control_change', channel=15, control=11, value=22, time=6),
    Message('control_change', channel=15, control=11, value=21, time=2),
    Message('control_change', channel=15, control=11, value=21, time=8),
    Message('control_change', channel=15, control=11, value=20, time=4),
    Message('control_change', channel=15, control=11, value=20, time=5),
    Message('control_change', channel=15, control=11, value=19, time=7),
    Message('control_change', channel=15, control=11, value=19, time=0),
    Message('control_change', channel=15, control=11, value=18, time=10),
    Message('control_change', channel=15, control=11, value=17, time=2),
    Message('control_change', channel=15, control=11, value=17, time=7),
    Message('control_change', channel=15, control=11, value=16, time=5),
    Message('control_change', channel=15, control=11, value=16, time=2),
    Message('control_change', channel=15, control=11, value=15, time=10),
    Message('control_change', channel=15, control=11, value=14, time=10),
    Message('control_change', channel=15, control=11, value=13, time=2),
    Message('control_change', channel=15, control=11, value=13, time=4),
    Message('control_change', channel=15, control=11, value=12, time=8),
    Message('control_change', channel=15, control=11, value=12, time=2),
    Message('control_change', channel=15, control=11, value=11, time=9),
    Message('control_change', channel=15, control=11, value=10, time=1),
    Message('control_change', channel=15, control=11, value=10, time=9),
    Message('control_change', channel=15, control=11, value=9, time=3),
    Message('control_change', channel=15, control=11, value=9, time=5),
    Message('control_change', channel=15, control=11, value=8, time=7),
    Message('control_change', channel=15, control=11, value=8, time=1),
    Message('control_change', channel=15, control=11, value=7, time=10),
    Message('control_change', channel=15, control=11, value=6, time=1),
    Message('control_change', channel=15, control=11, value=6, time=6),
    Message('control_change', channel=15, control=11, value=5, time=6),
    Message('control_change', channel=15, control=11, value=5, time=5),
    Message('control_change', channel=15, control=11, value=4, time=7),
    Message('control_change', channel=15, control=11, value=4, time=1),
    Message('control_change', channel=15, control=11, value=3, time=6),
    Message('control_change', channel=15, control=11, value=2, time=5),
    Message('control_change', channel=15, control=11, value=2, time=5),
    Message('control_change', channel=15, control=11, value=1, time=7),
    Message('control_change', channel=15, control=11, value=1, time=5),
    Message('note_off', channel=15, note=71, velocity=64, time=0),
    MetaMessage('end_of_track', time=0)])
])