MidiFile(type=1, ticks_per_beat=480, tracks=[
  MidiTrack([
    MetaMessage('track_name', name='Berlin City Tour\x00\x00\x00\x00\x00\x00\x00\x00', time=0),
    MetaMessage('time_signature', numerator=4, denominator=4, clocks_per_click=24, notated_32nd_notes_per_beat=8, time=0),
    MetaMessage('set_tempo', tempo=740740, time=0),
    MetaMessage('end_of_track', time=163200)]),
  MidiTrack([
    MetaMessage('track_name', name='R&B Kit\x00eas-gundlach.de\x00', time=0),
    MetaMessage('channel_prefix', channel=0, time=0),
    Message('control_change', channel=0, control=0, value=0, time=0),
    Message('control_change', channel=0, control=32, value=16, time=0),
    Message('program_change', channel=0, program=12, time=0),
    Message('control_change', channel=0, control=7, value=127, time=0),
    Message('control_change', channel=0, control=10, value=64, time=0),
    Message('control_change', channel=0, control=93, value=0, time=0),
    Message('control_change', channel=0, control=91, value=0, time=0),
    Message('note_on', channel=0, note=34, velocity=50, time=9004),
    Message('note_off', channel=0, note=34, velocity=64, time=781),
    Message('note_on', channel=0, note=84, velocity=53, time=0),
    Message('note_on', channel=0, note=35, velocity=94, time=1),
    Message('note_on', channel=0, note=37, velocity=110, time=1),
    Message('note_on', channel=0, note=22, velocity=58, time=2),
    Message('note_off', channel=0, note=84, velocity=64, time=55),
    Message('note_off', channel=0, note=22, velocity=64, time=0),
    Message('note_off', channel=0, note=35, velocity=64, time=1),
    Message('note_off', channel=0, note=37, velocity=64, time=1),
    Message('note_on', channel=0, note=90, velocity=53, time=183),
    Message('note_on', channel=0, note=23, velocity=110, time=1),
    Message('note_off', channel=0, note=90, velocity=64, time=55),
    Message('note_off', channel=0, note=23, velocity=64, time=1),
    Message('note_on', channel=0, note=22, velocity=65, time=60),
    Message('note_off', channel=0, note=22, velocity=64, time=65),
    Message('note_on', channel=0, note=23, velocity=58, time=60),
    Message('note_off', channel=0, note=23, velocity=64, time=54),
    Message('note_on', channel=0, note=84, velocity=53, time=59),
    Message('note_off', channel=0, note=84, velocity=64, time=60),
    Message('note_on', channel=0, note=23, velocity=110, time=59),
    Message('note_off', channel=0, note=23, velocity=64, time=60),
    Message('note_on', channel=0, note=90, velocity=53, time=61),
    Message('note_off', channel=0, note=90, velocity=64, time=60),
    Message('note_on', channel=0, note=84, velocity=53, time=60),
    Message('note_on', channel=0, note=35, velocity=84, time=1),
    Message('note_on', channel=0, note=22, velocity=58, time=1),
    Message('note_off', channel=0, note=22, velocity=64, time=58),
    Message('note_off', channel=0, note=84, velocity=64, time=1),
    Message('note_off', channel=0, note=35, velocity=64, time=0),
    Message('note_on', channel=0, note=90, velocity=53, time=179),
    Message('note_on', channel=0, note=23, velocity=110, time=1),
    Message('note_off', channel=0, note=90, velocity=64, time=59),
    Message('note_off', channel=0, note=23, velocity=64, time=1),
    Message('note_on', channel=0, note=22, velocity=65, time=60),
    Message('note_off', channel=0, note=22, velocity=64, time=59),
    Message('note_on', channel=0, note=23, velocity=58, time=60),
    Message('note_off', channel=0, note=23, velocity=64, time=60),
    Message('note_on', channel=0, note=84, velocity=53, time=61),
    Message('note_off', channel=0, note=84, velocity=64, time=59),
    Message('note_on', channel=0, note=23, velocity=110, time=60),
    Message('note_off', channel=0, note=23, velocity=64, time=60),
    Message('note_on', channel=0, note=90, velocity=53, time=60),
    Message('note_off', channel=0, note=90, velocity=64, time=61),
    Message('note_on', channel=0, note=84, velocity=53, time=59),
    Message('note_on', channel=0, note=35, velocity=84, time=1),
    Message('note_on', channel=0, note=22, velocity=58, time=1),
    Message('note_off', channel=0, note=84, velocity=64, time=58),
    Message('note_off', channel=0, note=22, velocity=64, time=0),
    Message('note_off', channel=0, note=35, velocity=64, time=1),
    Message('note_on', channel=0, note=90, velocity=53, time=180),
    Message('note_on', channel=0, note=23, velocity=110, time=1),
    Message('note_off', channel=0, note=90, velocity=64, time=59),
    Message('note_off', channel=0, note=23, velocity=64, time=0),
    Message('note_on', channel=0, note=22, velocity=65, time=60),
    Message('note_off', channel=0, note=22, velocity=64, time=61),
    Message('note_on', channel=0, note=23, velocity=58, time=59),
    Message('note_off', channel=0, note=23, velocity=64, time=60),
    Message('note_on', channel=0, note=84, velocity=53, time=61),
    Message('note_off', channel=0, note=84, velocity=64, time=59),
    Message('note_on', channel=0, note=23, velocity=110, time=60),
    Message('note_off', channel=0, note=23, velocity=64, time=60),
    Message('note_on', channel=0, note=37, velocity=22, time=0),
    Message('note_off', channel=0, note=37, velocity=64, time=59),
    Message('note_on', channel=0, note=90, velocity=53, time=1),
    Message('note_on', channel=0, note=37, velocity=22, time=0),
    Message('note_on', channel=0, note=0, velocity=3, time=1),
    Message('note_off', channel=0, note=90, velocity=64, time=58),
    Message('note_off', channel=0, note=37, velocity=64, time=1),
    Message('note_off', channel=0, note=0, velocity=64, time=1),
    Message('note_on', channel=0, note=37, velocity=23, time=0),
    Message('note_on', channel=0, note=1, velocity=26, time=0),
    Message('note_off', channel=0, note=37, velocity=64, time=59),
    Message('note_off', channel=0, note=1, velocity=64, time=1),
    Message('note_on', channel=0, note=37, velocity=24, time=6),
    Message('note_on', channel=0, note=22, velocity=58, time=0),
    Message('note_on', channel=0, note=2, velocity=15, time=0),
    Message('note_off', channel=0, note=22, velocity=64, time=52),
    Message('note_off', channel=0, note=37, velocity=64, time=1),
    Message('note_off', channel=0, note=2, velocity=64, time=1),
    Message('note_on', channel=0, note=37, velocity=24, time=0),
    Message('note_on', channel=0, note=3, velocity=15, time=1),
    Message('note_off', channel=0, note=37, velocity=64, time=57),
    Message('note_off', channel=0, note=3, velocity=64, time=0),
    Message('note_on', channel=0, note=34, velocity=22, time=1),
    Message('note_on', channel=0, note=84, velocity=53, time=1),
    Message('note_on', channel=0, note=37, velocity=25, time=1),
    Message('note_on', channel=0, note=4, velocity=21, time=0),
    Message('note_off', channel=0, note=37, velocity=64, time=57),
    Message('note_off', channel=0, note=34, velocity=64, time=2),
    Message('note_off', channel=0, note=84, velocity=64, time=0),
    Message('note_off', channel=0, note=4, velocity=64, time=0),
    Message('note_on', channel=0, note=37, velocity=25, time=0),
    Message('note_on', channel=0, note=5, velocity=21, time=1),
    Message('note_off', channel=0, note=37, velocity=64, time=58),
    Message('note_off', channel=0, note=5, velocity=64, time=1),
    Message('note_on', channel=0, note=23, velocity=110, time=0),
    Message('note_on', channel=0, note=37, velocity=27, time=0),
    Message('note_on', channel=0, note=90, velocity=53, time=2),
    Message('note_on', channel=0, note=6, velocity=26, time=0),
    Message('note_off', channel=0, note=37, velocity=64, time=57),
    Message('note_off', channel=0, note=90, velocity=64, time=0),
    Message('note_off', channel=0, note=6, velocity=64, time=0),
    Message('note_on', channel=0, note=37, velocity=31, time=1),
    Message('note_on', channel=0, note=7, velocity=30, time=1),
    Message('note_off', channel=0, note=23, velocity=64, time=23),
    Message('note_off', channel=0, note=37, velocity=64, time=34),
    Message('note_off', channel=0, note=7, velocity=64, time=1),
    Message('note_on', channel=0, note=22, velocity=58, time=1),
    Message('note_on', channel=0, note=37, velocity=36, time=0),
    Message('note_on', channel=0, note=8, velocity=30, time=1),
    Message('note_off', channel=0, note=22, velocity=64, time=58),
    Message('note_off', channel=0, note=37, velocity=64, time=0),
    Message('note_off', channel=0, note=8, velocity=64, time=1),
    Message('note_on', channel=0, note=37, velocity=40, time=1),
    Message('note_on', channel=0, note=9, velocity=36, time=1),
    Message('note_off', channel=0, note=37, velocity=64, time=56),
    Message('note_off', channel=0, note=9, velocity=64, time=1),
    Message('note_on', channel=0, note=23, velocity=58, time=1),
    Message('note_on', channel=0, note=37, velocity=44, time=0),
    Message('note_on', channel=0, note=10, velocity=36, time=1),
    Message('note_off', channel=0, note=23, velocity=64, time=57),
    Message('note_off', channel=0, note=37, velocity=64, time=0),
    Message('note_off', channel=0, note=10, velocity=64, time=1),
    Message('note_on', channel=0, note=37, velocity=49, time=1),
    Message('note_on', channel=0, note=11, velocity=42, time=1),
    Message('note_off', channel=0, note=37, velocity=64, time=58),
    Message('note_off', channel=0, note=11, velocity=64, time=1),
    Message('note_on', channel=0, note=37, velocity=53, time=0),
    Message('note_on', channel=0, note=12, velocity=48, time=0),
    Message('note_off', channel=0, note=37, velocity=64, time=58),
    Message('note_off', channel=0, note=12, velocity=64, time=1),
    Message('note_on', channel=0, note=37, velocity=57, time=1),
    Message('note_on', channel=0, note=13, velocity=48, time=0),
    Message('note_off', channel=0, note=37, velocity=64, time=58),
    Message('note_off', channel=0, note=13, velocity=64, time=0),
    Message('note_on', channel=0, note=21, velocity=58, time=1),
    Message('note_on', channel=0, note=37, velocity=62, time=1),
    Message('note_on', channel=0, note=14, velocity=53, time=1),
    Message('note_off', channel=0, note=21, velocity=64, time=57),
    Message('note_off', channel=0, note=37, velocity=64, time=0),
    Message('note_off', channel=0, note=14, velocity=64, time=1),
    Message('note_on', channel=0, note=37, velocity=66, time=0),
    Message('note_on', channel=0, note=15, velocity=59, time=1),
    Message('note_off', channel=0, note=37, velocity=64, time=59),
    Message('note_off', channel=0, note=15, velocity=64, time=0),
    Message('note_on', channel=0, note=37, velocity=98, time=1),
    Message('note_on', channel=0, note=16, velocity=59, time=1),
    Message('note_off', channel=0, note=37, velocity=64, time=58),
    Message('note_off', channel=0, note=16, velocity=64, time=1),
    Message('note_on', channel=0, note=37, velocity=90, time=1),
    Message('note_off', channel=0, note=37, velocity=64, time=58),
    Message('note_on', channel=0, note=28, velocity=124, time=1),
    Message('note_off', channel=0, note=28, velocity=64, time=78),
    Message('note_on', channel=0, note=50, velocity=127, time=161),
    Message('note_off', channel=0, note=50, velocity=64, time=136),
    Message('note_on', channel=0, note=50, velocity=127, time=343),
    Message('note_off', channel=0, note=50, velocity=64, time=55),
    Message('note_on', channel=0, note=50, velocity=127, time=426),
    Message('note_off', channel=0, note=50, velocity=64, time=56),
    Message('note_on', channel=0, note=50, velocity=127, time=424),
    Message('note_off', channel=0, note=50, velocity=64, time=64),
    Message('note_on', channel=0, note=28, velocity=124, time=55),
    Message('note_off', channel=0, note=28, velocity=64, time=56),
    Message('note_on', channel=0, note=50, velocity=127, time=304),
    Message('note_off', channel=0, note=50, velocity=64, time=141),
    Message('note_on', channel=0, note=50, velocity=127, time=339),
    Message('note_off', channel=0, note=50, velocity=64, time=58),
    Message('note_on', channel=0, note=50, velocity=127, time=423),
    Message('note_off', channel=0, note=50, velocity=64, time=55),
    Message('note_on', channel=0, note=28, velocity=124, time=305),
    Message('note_off', channel=0, note=28, velocity=64, time=61),
    Message('note_on', channel=0, note=50, velocity=127, time=58),
    Message('note_off', channel=0, note=50, velocity=64, time=57),
    Message('note_on', channel=0, note=28, velocity=127, time=183),
    Message('note_off', channel=0, note=28, velocity=64, time=58),
    Message('note_on', channel=0, note=50, velocity=127, time=184),
    Message('note_off', channel=0, note=50, velocity=64, time=55),
    Message('note_on', channel=0, note=50, velocity=127, time=424),
    Message('note_off', channel=0, note=50, velocity=64, time=65),
    Message('note_on', channel=0, note=50, velocity=127, time=414),
    Message('note_off', channel=0, note=50, velocity=64, time=56),
    Message('note_on', channel=0, note=50, velocity=127, time=428),
    Message('note_off', channel=0, note=50, velocity=64, time=53),
    Message('note_on', channel=0, note=50, velocity=127, time=433),
    Message('note_off', channel=0, note=50, velocity=64, time=45),
    Message('note_on', channel=0, note=28, velocity=113, time=66),
    Message('note_off', channel=0, note=28, velocity=64, time=55),
    Message('note_on', channel=0, note=28, velocity=113, time=191),
    Message('note_on', channel=0, note=50, velocity=127, time=113),
    Message('note_off', channel=0, note=28, velocity=64, time=2),
    Message('note_off', channel=0, note=50, velocity=64, time=53),
    Message('note_on', channel=0, note=28, velocity=113, time=545),
    Message('note_on', channel=0, note=50, velocity=124, time=121),
    Message('note_off', channel=0, note=28, velocity=64, time=3),
    Message('note_off', channel=0, note=50, velocity=64, time=51),
    Message('note_on', channel=0, note=50, velocity=119, time=66),
    Message('note_off', channel=0, note=50, velocity=64, time=55),
    Message('note_on', channel=0, note=28, velocity=127, time=304),
    Message('note_off', channel=0, note=28, velocity=64, time=56),
    Message('note_on', channel=0, note=50, velocity=127, time=185),
    Message('note_off', channel=0, note=50, velocity=64, time=55),
    Message('note_on', channel=0, note=50, velocity=127, time=425),
    Message('note_off', channel=0, note=50, velocity=64, time=55),
    Message('note_on', channel=0, note=50, velocity=127, time=424),
    Message('note_off', channel=0, note=50, velocity=64, time=56),
    Message('note_on', channel=0, note=28, velocity=124, time=304),
    Message('note_off', channel=0, note=28, velocity=64, time=55),
    Message('note_on', channel=0, note=50, velocity=127, time=66),
    Message('note_off', channel=0, note=50, velocity=64, time=54),
    Message('note_on', channel=0, note=28, velocity=124, time=65),
    Message('note_off', channel=0, note=28, velocity=64, time=56),
    Message('note_on', channel=0, note=50, velocity=127, time=306),
    Message('note_off', channel=0, note=50, velocity=64, time=54),
    Message('note_on', channel=0, note=28, velocity=124, time=185),
    Message('note_off', channel=0, note=28, velocity=64, time=55),
    Message('note_on', channel=0, note=28, velocity=113, time=65),
    Message('note_off', channel=0, note=28, velocity=64, time=99),
    Message('note_on', channel=0, note=50, velocity=127, time=20),
    Message('note_off', channel=0, note=50, velocity=64, time=54),
    Message('note_on', channel=0, note=50, velocity=127, time=427),
    Message('note_off', channel=0, note=50, velocity=64, time=55),
    Message('note_on', channel=0, note=28, velocity=124, time=305),
    Message('note_off', channel=0, note=28, velocity=64, time=55),
    Message('note_on', channel=0, note=50, velocity=127, time=66),
    Message('note_off', channel=0, note=50, velocity=64, time=55),
    Message('note_on', channel=0, note=28, velocity=124, time=185),
    Message('note_off', channel=0, note=28, velocity=64, time=63),
    Message('note_on', channel=0, note=50, velocity=127, time=176),
    Message('note_off', channel=0, note=50, velocity=64, time=54),
    Message('note_on', channel=0, note=28, velocity=113, time=186),
    Message('note_off', channel=0, note=28, velocity=64, time=58),
    Message('note_on', channel=0, note=28, velocity=113, time=61),
    Message('note_off', channel=0, note=28, velocity=64, time=61),
    Message('note_on', channel=0, note=50, velocity=127, time=60),
    Message('note_off', channel=0, note=50, velocity=64, time=59),
    Message('note_on', channel=0, note=50, velocity=127, time=422),
    Message('note_off', channel=0, note=50, velocity=64, time=58),
    Message('note_on', channel=0, note=28, velocity=124, time=180),
    Message('note_off', channel=0, note=28, velocity=64, time=59),
    Message('note_on', channel=0, note=50, velocity=127, time=182),
    Message('note_off', channel=0, note=50, velocity=64, time=55),
    Message('note_on', channel=0, note=28, velocity=124, time=65),
    Message('note_off', channel=0, note=28, velocity=64, time=62),
    Message('note_on', channel=0, note=50, velocity=127, time=301),
    Message('note_off', channel=0, note=50, velocity=64, time=52),
    Message('note_on', channel=0, note=28, velocity=113, time=65),
    Message('note_off', channel=0, note=28, velocity=64, time=55),
    Message('note_on', channel=0, note=28, velocity=119, time=185),
    Message('note_off', channel=0, note=28, velocity=64, time=54),
    Message('note_on', channel=0, note=50, velocity=127, time=66),
    Message('note_off', channel=0, note=50, velocity=64, time=65),
    Message('note_on', channel=0, note=28, velocity=127, time=7855),
    Message('note_off', channel=0, note=28, velocity=64, time=61),
    Message('note_on', channel=0, note=50, velocity=127, time=60),
    Message('note_off', channel=0, note=50, velocity=64, time=54),
    Message('note_on', channel=0, note=50, velocity=127, time=65),
    Message('note_off', channel=0, note=50, velocity=64, time=61),
    Message('note_on', channel=0, note=50, velocity=127, time=59),
    Message('note_off', channel=0, note=50, velocity=64, time=56),
    Message('note_on', channel=0, note=50, velocity=127, time=64),
    Message('note_off', channel=0, note=50, velocity=64, time=57),
    Message('note_on', channel=0, note=50, velocity=127, time=64),
    Message('note_off', channel=0, note=50, velocity=64, time=54),
    Message('note_on', channel=0, note=50, velocity=127, time=66),
    Message('note_off', channel=0, note=50, velocity=64, time=54),
    Message('note_on', channel=0, note=28, velocity=127, time=67),
    Message('note_off', channel=0, note=28, velocity=64, time=60),
    Message('note_on', channel=0, note=50, velocity=127, time=302),
    Message('note_off', channel=0, note=50, velocity=64, time=51),
    Message('note_on', channel=0, note=50, velocity=127, time=430),
    Message('note_off', channel=0, note=50, velocity=64, time=51),
    Message('note_on', channel=0, note=50, velocity=127, time=425),
    Message('note_off', channel=0, note=50, velocity=64, time=61),
    Message('note_on', channel=0, note=28, velocity=124, time=305),
    Message('note_off', channel=0, note=28, velocity=64, time=49),
    Message('note_on', channel=0, note=50, velocity=127, time=64),
    Message('note_off', channel=0, note=50, velocity=64, time=56),
    Message('note_on', channel=0, note=28, velocity=124, time=72),
    Message('note_off', channel=0, note=28, velocity=64, time=47),
    Message('note_on', channel=0, note=50, velocity=127, time=311),
    Message('note_off', channel=0, note=50, velocity=64, time=48),
    Message('note_on', channel=0, note=28, velocity=124, time=196),
    Message('note_off', channel=0, note=28, velocity=64, time=45),
    Message('note_on', channel=0, note=28, velocity=113, time=66),
    Message('note_off', channel=0, note=28, velocity=64, time=100),
    Message('note_on', channel=0, note=50, velocity=127, time=21),
    Message('note_off', channel=0, note=50, velocity=64, time=53),
    Message('note_on', channel=0, note=50, velocity=127, time=425),
    Message('note_off', channel=0, note=50, velocity=64, time=55),
    Message('note_on', channel=0, note=50, velocity=127, time=185),
    Message('note_off', channel=0, note=50, velocity=64, time=54),
    Message('note_on', channel=0, note=28, velocity=124, time=67),
    Message('note_off', channel=0, note=28, velocity=64, time=54),
    Message('note_on', channel=0, note=28, velocity=58, time=5),
    Message('note_off', channel=0, note=28, velocity=64, time=39),
    Message('note_on', channel=0, note=28, velocity=70, time=21),
    Message('note_off', channel=0, note=28, velocity=64, time=40),
    Message('note_on', channel=0, note=28, velocity=82, time=21),
    Message('note_off', channel=0, note=28, velocity=64, time=39),
    Message('note_on', channel=0, note=28, velocity=94, time=21),
    Message('note_off', channel=0, note=28, velocity=64, time=43),
    Message('note_on', channel=0, note=28, velocity=106, time=16),
    Message('note_off', channel=0, note=28, velocity=64, time=45),
    Message('note_on', channel=0, note=28, velocity=127, time=16),
    Message('note_off', channel=0, note=28, velocity=64, time=39),
    Message('note_on', channel=0, note=50, velocity=127, time=199),
    Message('note_off', channel=0, note=50, velocity=64, time=56),
    Message('note_on', channel=0, note=28, velocity=113, time=306),
    Message('note_off', channel=0, note=28, velocity=64, time=55),
    Message('note_on', channel=0, note=50, velocity=127, time=64),
    Message('note_off', channel=0, note=50, velocity=64, time=55),
    Message('note_on', channel=0, note=50, velocity=127, time=425),
    Message('note_off', channel=0, note=50, velocity=64, time=55),
    Message('note_on', channel=0, note=28, velocity=124, time=184),
    Message('note_off', channel=0, note=28, velocity=64, time=56),
    Message('note_on', channel=0, note=50, velocity=127, time=186),
    Message('note_off', channel=0, note=50, velocity=64, time=55),
    Message('note_on', channel=0, note=28, velocity=124, time=65),
    Message('note_off', channel=0, note=28, velocity=64, time=54),
    Message('note_on', channel=0, note=50, velocity=127, time=305),
    Message('note_off', channel=0, note=50, velocity=64, time=56),
    Message('note_on', channel=0, note=28, velocity=113, time=65),
    Message('note_off', channel=0, note=28, velocity=64, time=54),
    Message('note_on', channel=0, note=28, velocity=119, time=185),
    Message('note_off', channel=0, note=28, velocity=64, time=56),
    Message('note_on', channel=0, note=40, velocity=127, time=449),
    Message('note_on', channel=0, note=49, velocity=119, time=95),
    Message('note_off', channel=0, note=40, velocity=64, time=113),
    Message('note_on', channel=0, note=40, velocity=127, time=368),
    Message('note_off', channel=0, note=40, velocity=64, time=203),
    Message('note_off', channel=0, note=49, velocity=64, time=4),
    Message('note_on', channel=0, note=40, velocity=127, time=179),
    Message('note_on', channel=0, note=49, velocity=127, time=93),
    Message('note_off', channel=0, note=40, velocity=64, time=177),
    Message('note_on', channel=0, note=40, velocity=127, time=303),
    Message('note_off', channel=0, note=49, velocity=64, time=192),
    Message('note_off', channel=0, note=40, velocity=64, time=22),
    Message('note_on', channel=0, note=40, velocity=121, time=7467),
    Message('note_off', channel=0, note=40, velocity=64, time=258),
    Message('note_on', channel=0, note=40, velocity=110, time=222),
    Message('note_off', channel=0, note=40, velocity=64, time=278),
    Message('note_on', channel=0, note=40, velocity=109, time=201),
    Message('note_off', channel=0, note=40, velocity=64, time=193),
    Message('note_on', channel=0, note=40, velocity=104, time=288),
    Message('note_on', channel=0, note=49, velocity=103, time=0),
    Message('note_off', channel=0, note=49, velocity=64, time=248),
    Message('note_off', channel=0, note=40, velocity=64, time=6),
    Message('note_on', channel=0, note=40, velocity=104, time=225),
    Message('note_off', channel=0, note=40, velocity=64, time=213),
    Message('note_on', channel=0, note=49, velocity=103, time=268),
    Message('note_off', channel=0, note=49, velocity=64, time=249),
    Message('note_on', channel=0, note=40, velocity=100, time=230),
    Message('note_off', channel=0, note=40, velocity=64, time=243),
    Message('note_on', channel=0, note=49, velocity=99, time=238),
    Message('note_off', channel=0, note=49, velocity=64, time=217),
    Message('note_on', channel=0, note=38, velocity=63, time=24),
    Message('note_off', channel=0, note=38, velocity=64, time=128),
    Message('note_on', channel=0, note=40, velocity=107, time=111),
    Message('note_off', channel=0, note=40, velocity=64, time=269),
    Message('note_on', channel=0, note=49, velocity=109, time=216),
    Message('note_off', channel=0, note=49, velocity=64, time=250),
    Message('note_on', channel=0, note=40, velocity=106, time=229),
    Message('note_off', channel=0, note=40, velocity=64, time=213),
    Message('note_on', channel=0, note=49, velocity=113, time=262),
    Message('note_off', channel=0, note=49, velocity=64, time=259),
    Message('note_on', channel=0, note=40, velocity=106, time=232),
    Message('note_off', channel=0, note=40, velocity=64, time=121),
    Message('note_on', channel=0, note=40, velocity=106, time=113),
    Message('note_off', channel=0, note=40, velocity=64, time=127),
    Message('note_on', channel=0, note=49, velocity=115, time=108),
    Message('note_off', channel=0, note=49, velocity=64, time=226),
    Message('note_on', channel=0, note=40, velocity=104, time=15),
    Message('note_on', channel=0, note=38, velocity=42, time=143),
    Message('note_on', channel=0, note=40, velocity=104, time=96),
    Message('note_off', channel=0, note=40, velocity=64, time=21),
    Message('note_off', channel=0, note=38, velocity=64, time=46),
    Message('note_on', channel=0, note=38, velocity=27, time=174),
    Message('note_off', channel=0, note=40, velocity=64, time=20),
    Message('note_on', channel=0, note=49, velocity=120, time=220),
    Message('note_off', channel=0, note=38, velocity=64, time=40),
    Message('note_on', channel=0, note=38, velocity=57, time=104),
    Message('note_off', channel=0, note=49, velocity=64, time=124),
    Message('note_off', channel=0, note=38, velocity=64, time=201),
    Message('note_on', channel=0, note=40, velocity=121, time=10),
    Message('note_off', channel=0, note=40, velocity=64, time=256),
    Message('note_on', channel=0, note=40, velocity=110, time=225),
    Message('note_off', channel=0, note=40, velocity=64, time=283),
    Message('note_on', channel=0, note=38, velocity=47, time=111),
    Message('note_on', channel=0, note=40, velocity=109, time=86),
    Message('note_off', channel=0, note=40, velocity=64, time=196),
    Message('note_on', channel=0, note=49, velocity=96, time=43),
    Message('note_off', channel=0, note=38, velocity=64, time=59),
    Message('note_on', channel=0, note=49, velocity=110, time=181),
    Message('note_off', channel=0, note=49, velocity=64, time=15),
    Message('note_on', channel=0, note=38, velocity=81, time=155),
    Message('note_off', channel=0, note=49, velocity=64, time=92),
    Message('note_off', channel=0, note=38, velocity=64, time=121),
    Message('note_on', channel=0, note=38, velocity=53, time=482),
    Message('note_on', channel=0, note=40, velocity=94, time=97),
    Message('note_off', channel=0, note=40, velocity=64, time=247),
    Message('note_off', channel=0, note=38, velocity=64, time=109),
    Message('note_on', channel=0, note=40, velocity=100, time=123),
    Message('note_off', channel=0, note=40, velocity=64, time=243),
    Message('note_on', channel=0, note=38, velocity=34, time=142),
    Message('note_on', channel=0, note=49, velocity=96, time=94),
    Message('note_off', channel=0, note=38, velocity=64, time=140),
    Message('note_on', channel=0, note=40, velocity=112, time=25),
    Message('note_off', channel=0, note=49, velocity=64, time=51),
    Message('note_off', channel=0, note=40, velocity=64, time=77),
    Message('note_on', channel=0, note=40, velocity=121, time=188),
    Message('note_off', channel=0, note=40, velocity=64, time=269),
    Message('note_on', channel=0, note=49, velocity=107, time=211),
    Message('note_off', channel=0, note=49, velocity=64, time=256),
    Message('note_on', channel=0, note=40, velocity=106, time=223),
    Message('note_off', channel=0, note=40, velocity=64, time=219),
    Message('note_on', channel=0, note=38, velocity=48, time=171),
    Message('note_on', channel=0, note=49, velocity=111, time=91),
    Message('note_off', channel=0, note=49, velocity=64, time=260),
    Message('note_off', channel=0, note=38, velocity=64, time=82),
    Message('note_on', channel=0, note=40, velocity=85, time=139),
    Message('note_off', channel=0, note=40, velocity=64, time=154),
    Message('note_on', channel=0, note=40, velocity=85, time=85),
    Message('note_off', channel=0, note=40, velocity=64, time=155),
    Message('note_on', channel=0, note=49, velocity=113, time=87),
    Message('note_off', channel=0, note=49, velocity=64, time=223),
    Message('note_on', channel=0, note=40, velocity=90, time=19),
    Message('note_off', channel=0, note=40, velocity=64, time=235),
    Message('note_on', channel=0, note=38, velocity=27, time=242),
    Message('note_on', channel=0, note=40, velocity=55, time=243),
    Message('note_off', channel=0, note=38, velocity=64, time=35),
    Message('note_off', channel=0, note=40, velocity=64, time=234),
    Message('note_on', channel=0, note=87, velocity=60, time=11725),
    Message('note_off', channel=0, note=87, velocity=64, time=45),
    Message('note_on', channel=0, note=87, velocity=60, time=77),
    Message('note_off', channel=0, note=87, velocity=64, time=51),
    Message('note_on', channel=0, note=87, velocity=60, time=69),
    Message('note_off', channel=0, note=87, velocity=64, time=52),
    Message('note_on', channel=0, note=87, velocity=60, time=68),
    Message('note_off', channel=0, note=87, velocity=64, time=52),
    Message('note_on', channel=0, note=87, velocity=60, time=68),
    Message('note_off', channel=0, note=87, velocity=64, time=56),
    Message('note_on', channel=0, note=87, velocity=60, time=65),
    Message('note_off', channel=0, note=87, velocity=64, time=44),
    Message('note_on', channel=0, note=87, velocity=60, time=75),
    Message('note_off', channel=0, note=87, velocity=64, time=48),
    Message('note_on', channel=0, note=87, velocity=60, time=73),
    Message('note_off', channel=0, note=87, velocity=64, time=49),
    Message('note_on', channel=0, note=87, velocity=60, time=70),
    Message('note_off', channel=0, note=87, velocity=64, time=51),
    Message('note_on', channel=0, note=87, velocity=60, time=70),
    Message('note_off', channel=0, note=87, velocity=64, time=48),
    Message('note_on', channel=0, note=87, velocity=60, time=71),
    Message('note_off', channel=0, note=87, velocity=64, time=47),
    Message('note_on', channel=0, note=87, velocity=60, time=73),
    Message('note_off', channel=0, note=87, velocity=64, time=50),
    Message('note_on', channel=0, note=87, velocity=60, time=69),
    Message('note_off', channel=0, note=87, velocity=64, time=54),
    Message('note_on', channel=0, note=87, velocity=61, time=67),
    Message('note_off', channel=0, note=87, velocity=64, time=48),
    Message('note_on', channel=0, note=49, velocity=104, time=72),
    Message('note_on', channel=0, note=87, velocity=61, time=0),
    Message('note_off', channel=0, note=87, velocity=64, time=52),
    Message('note_on', channel=0, note=87, velocity=61, time=68),
    Message('note_off', channel=0, note=87, velocity=64, time=51),
    Message('note_on', channel=0, note=87, velocity=61, time=69),
    Message('note_off', channel=0, note=49, velocity=64, time=16),
    Message('note_off', channel=0, note=87, velocity=64, time=34),
    Message('note_on', channel=0, note=87, velocity=61, time=71),
    Message('note_off', channel=0, note=87, velocity=64, time=52),
    Message('note_on', channel=0, note=87, velocity=61, time=67),
    Message('note_off', channel=0, note=87, velocity=64, time=51),
    Message('note_on', channel=0, note=87, velocity=61, time=69),
    Message('note_off', channel=0, note=87, velocity=64, time=49),
    Message('note_on', channel=0, note=87, velocity=61, time=71),
    Message('note_off', channel=0, note=87, velocity=64, time=48),
    Message('note_on', channel=0, note=87, velocity=61, time=71),
    Message('note_off', channel=0, note=87, velocity=64, time=43),
    Message('note_on', channel=0, note=87, velocity=61, time=79),
    Message('note_off', channel=0, note=87, velocity=64, time=49),
    Message('note_on', channel=0, note=87, velocity=61, time=70),
    Message('note_off', channel=0, note=87, velocity=64, time=43),
    Message('note_on', channel=0, note=87, velocity=61, time=77),
    Message('note_off', channel=0, note=87, velocity=64, time=51),
    Message('note_on', channel=0, note=87, velocity=61, time=69),
    Message('note_off', channel=0, note=87, velocity=64, time=41),
    Message('note_on', channel=0, note=87, velocity=61, time=80),
    Message('note_off', channel=0, note=87, velocity=64, time=51),
    Message('note_on', channel=0, note=87, velocity=61, time=68),
    Message('note_off', channel=0, note=87, velocity=64, time=41),
    Message('note_on', channel=0, note=87, velocity=61, time=80),
    Message('note_off', channel=0, note=87, velocity=64, time=51),
    Message('note_on', channel=0, note=87, velocity=61, time=67),
    Message('note_off', channel=0, note=87, velocity=64, time=44),
    Message('note_on', channel=0, note=87, velocity=61, time=77),
    Message('note_off', channel=0, note=87, velocity=64, time=42),
    Message('note_on', channel=0, note=87, velocity=61, time=79),
    Message('note_off', channel=0, note=87, velocity=64, time=50),
    Message('note_on', channel=0, note=87, velocity=61, time=69),
    Message('note_off', channel=0, note=87, velocity=64, time=48),
    Message('note_on', channel=0, note=87, velocity=61, time=73),
    Message('note_off', channel=0, note=87, velocity=64, time=44),
    Message('note_on', channel=0, note=87, velocity=61, time=76),
    Message('note_off', channel=0, note=87, velocity=64, time=47),
    Message('note_on', channel=0, note=87, velocity=62, time=72),
    Message('note_off', channel=0, note=87, velocity=64, time=43),
    Message('note_on', channel=0, note=87, velocity=62, time=77),
    Message('note_off', channel=0, note=87, velocity=64, time=50),
    Message('note_on', channel=0, note=87, velocity=62, time=70),
    Message('note_off', channel=0, note=87, velocity=64, time=44),
    Message('note_on', channel=0, note=87, velocity=62, time=78),
    Message('note_off', channel=0, note=87, velocity=64, time=43),
    Message('note_on', channel=0, note=87, velocity=62, time=75),
    Message('note_off', channel=0, note=87, velocity=64, time=43),
    Message('note_on', channel=0, note=87, velocity=62, time=80),
    Message('note_off', channel=0, note=87, velocity=64, time=45),
    Message('note_on', channel=0, note=87, velocity=62, time=72),
    Message('note_on', channel=0, note=38, velocity=27, time=26),
    Message('note_off', channel=0, note=87, velocity=64, time=17),
    Message('note_on', channel=0, note=40, velocity=80, time=77),
    Message('note_on', channel=0, note=87, velocity=62, time=1),
    Message('note_off', channel=0, note=87, velocity=64, time=44),
    Message('note_on', channel=0, note=87, velocity=62, time=75),
    Message('note_off', channel=0, note=40, velocity=64, time=9),
    Message('note_off', channel=0, note=38, velocity=64, time=12),
    Message('note_off', channel=0, note=87, velocity=64, time=20),
    Message('note_on', channel=0, note=87, velocity=62, time=79),
    Message('note_off', channel=0, note=87, velocity=64, time=59),
    Message('note_on', channel=0, note=87, velocity=62, time=61),
    Message('note_off', channel=0, note=87, velocity=64, time=48),
    Message('note_on', channel=0, note=87, velocity=62, time=72),
    Message('note_off', channel=0, note=87, velocity=64, time=59),
    Message('note_on', channel=0, note=87, velocity=62, time=64),
    Message('note_off', channel=0, note=87, velocity=64, time=42),
    Message('note_on', channel=0, note=87, velocity=62, time=76),
    Message('note_off', channel=0, note=87, velocity=64, time=48),
    Message('note_on', channel=0, note=87, velocity=62, time=72),
    Message('note_off', channel=0, note=87, velocity=64, time=44),
    Message('note_on', channel=0, note=87, velocity=62, time=75),
    Message('note_off', channel=0, note=87, velocity=64, time=48),
    Message('note_on', channel=0, note=87, velocity=62, time=73),
    Message('note_off', channel=0, note=87, velocity=64, time=47),
    Message('note_on', channel=0, note=87, velocity=62, time=72),
    Message('note_off', channel=0, note=87, velocity=64, time=51),
    Message('note_on', channel=0, note=87, velocity=62, time=68),
    Message('note_off', channel=0, note=87, velocity=64, time=42),
    Message('note_on', channel=0, note=87, velocity=62, time=79),
    Message('note_off', channel=0, note=87, velocity=64, time=48),
    Message('note_on', channel=0, note=87, velocity=62, time=73),
    Message('note_off', channel=0, note=87, velocity=64, time=49),
    Message('note_on', channel=0, note=87, velocity=62, time=73),
    Message('note_off', channel=0, note=87, velocity=64, time=45),
    Message('note_on', channel=0, note=87, velocity=63, time=74),
    Message('note_off', channel=0, note=87, velocity=64, time=44),
    Message('note_on', channel=0, note=87, velocity=63, time=77),
    Message('note_off', channel=0, note=87, velocity=64, time=39),
    Message('note_on', channel=0, note=87, velocity=63, time=78),
    Message('note_off', channel=0, note=87, velocity=64, time=45),
    Message('note_on', channel=0, note=87, velocity=63, time=80),
    Message('note_off', channel=0, note=87, velocity=64, time=43),
    Message('note_on', channel=0, note=87, velocity=63, time=72),
    Message('note_off', channel=0, note=87, velocity=64, time=42),
    Message('note_on', channel=0, note=87, velocity=63, time=78),
    Message('note_off', channel=0, note=87, velocity=64, time=43),
    Message('note_on', channel=0, note=87, velocity=63, time=77),
    Message('note_off', channel=0, note=87, velocity=64, time=42),
    Message('note_on', channel=0, note=87, velocity=63, time=78),
    Message('note_off', channel=0, note=87, velocity=64, time=45),
    Message('note_on', channel=0, note=87, velocity=63, time=83),
    Message('note_off', channel=0, note=87, velocity=64, time=35),
    Message('note_on', channel=0, note=87, velocity=63, time=77),
    Message('note_off', channel=0, note=87, velocity=64, time=48),
    Message('note_on', channel=0, note=87, velocity=63, time=83),
    Message('note_off', channel=0, note=87, velocity=64, time=30),
    Message('note_on', channel=0, note=87, velocity=63, time=87),
    Message('note_off', channel=0, note=87, velocity=64, time=38),
    Message('note_on', channel=0, note=87, velocity=63, time=73),
    Message('note_off', channel=0, note=87, velocity=64, time=44),
    Message('note_on', channel=0, note=87, velocity=63, time=76),
    Message('note_off', channel=0, note=87, velocity=64, time=42),
    Message('note_on', channel=0, note=87, velocity=63, time=78),
    Message('note_off', channel=0, note=87, velocity=64, time=46),
    Message('note_on', channel=0, note=87, velocity=63, time=75),
    Message('note_off', channel=0, note=87, velocity=64, time=44),
    Message('note_on', channel=0, note=87, velocity=63, time=76),
    Message('note_off', channel=0, note=87, velocity=64, time=44),
    Message('note_on', channel=0, note=87, velocity=63, time=77),
    Message('note_off', channel=0, note=87, velocity=64, time=40),
    Message('note_on', channel=0, note=87, velocity=63, time=79),
    Message('note_off', channel=0, note=87, velocity=64, time=45),
    Message('note_on', channel=0, note=87, velocity=63, time=75),
    Message('note_off', channel=0, note=87, velocity=64, time=46),
    Message('note_on', channel=0, note=87, velocity=63, time=74),
    Message('note_off', channel=0, note=87, velocity=64, time=40),
    Message('note_on', channel=0, note=87, velocity=63, time=80),
    Message('note_off', channel=0, note=87, velocity=64, time=39),
    Message('note_on', channel=0, note=87, velocity=64, time=80),
    Message('note_off', channel=0, note=87, velocity=64, time=42),
    Message('note_on', channel=0, note=87, velocity=64, time=79),
    Message('note_off', channel=0, note=87, velocity=64, time=44),
    Message('note_on', channel=0, note=87, velocity=64, time=75),
    Message('note_off', channel=0, note=87, velocity=64, time=46),
    Message('note_on', channel=0, note=87, velocity=64, time=75),
    Message('note_off', channel=0, note=87, velocity=64, time=37),
    Message('note_on', channel=0, note=87, velocity=64, time=83),
    Message('note_off', channel=0, note=87, velocity=64, time=42),
    Message('note_on', channel=0, note=87, velocity=64, time=77),
    Message('note_off', channel=0, note=87, velocity=64, time=46),
    Message('note_on', channel=0, note=87, velocity=64, time=75),
    Message('note_off', channel=0, note=87, velocity=64, time=43),
    Message('note_on', channel=0, note=87, velocity=64, time=76),
    Message('note_off', channel=0, note=87, velocity=64, time=45),
    Message('note_on', channel=0, note=87, velocity=64, time=77),
    Message('note_off', channel=0, note=87, velocity=64, time=45),
    Message('note_on', channel=0, note=87, velocity=64, time=74),
    Message('note_off', channel=0, note=87, velocity=64, time=45),
    Message('note_on', channel=0, note=87, velocity=64, time=76),
    Message('note_off', channel=0, note=87, velocity=64, time=37),
    Message('note_on', channel=0, note=87, velocity=64, time=82),
    Message('note_off', channel=0, note=87, velocity=64, time=48),
    Message('note_on', channel=0, note=87, velocity=64, time=73),
    Message('note_off', channel=0, note=87, velocity=64, time=35),
    Message('note_on', channel=0, note=87, velocity=64, time=85),
    Message('note_off', channel=0, note=87, velocity=64, time=40),
    Message('note_on', channel=0, note=87, velocity=64, time=79),
    Message('note_off', channel=0, note=87, velocity=64, time=32),
    Message('note_on', channel=0, note=87, velocity=64, time=88),
    Message('note_off', channel=0, note=87, velocity=64, time=39),
    Message('note_on', channel=0, note=87, velocity=64, time=80),
    Message('note_off', channel=0, note=87, velocity=64, time=33),
    Message('note_on', channel=0, note=87, velocity=64, time=88),
    Message('note_off', channel=0, note=87, velocity=64, time=32),
    Message('note_on', channel=0, note=87, velocity=64, time=87),
    Message('note_off', channel=0, note=87, velocity=64, time=30),
    Message('note_on', channel=0, note=87, velocity=64, time=91),
    Message('note_off', channel=0, note=87, velocity=64, time=52),
    Message('note_on', channel=0, note=87, velocity=64, time=68),
    Message('note_off', channel=0, note=87, velocity=64, time=41),
    Message('note_on', channel=0, note=87, velocity=64, time=80),
    Message('note_off', channel=0, note=87, velocity=64, time=49),
    Message('note_on', channel=0, note=87, velocity=64, time=70),
    Message('note_off', channel=0, note=87, velocity=64, time=39),
    Message('note_on', channel=0, note=87, velocity=65, time=82),
    Message('note_off', channel=0, note=87, velocity=64, time=38),
    Message('note_on', channel=0, note=87, velocity=65, time=82),
    Message('note_off', channel=0, note=87, velocity=64, time=35),
    Message('note_on', channel=0, note=87, velocity=65, time=84),
    Message('note_off', channel=0, note=87, velocity=64, time=45),
    Message('note_on', channel=0, note=87, velocity=65, time=76),
    Message('note_off', channel=0, note=87, velocity=64, time=38),
    Message('note_on', channel=0, note=87, velocity=65, time=81),
    Message('note_off', channel=0, note=87, velocity=64, time=38),
    Message('note_on', channel=0, note=87, velocity=65, time=83),
    Message('note_on', channel=0, note=38, velocity=35, time=25),
    Message('note_off', channel=0, note=87, velocity=64, time=11),
    Message('note_on', channel=0, note=40, velocity=89, time=83),
    Message('note_on', channel=0, note=87, velocity=65, time=1),
    Message('note_off', channel=0, note=87, velocity=64, time=35),
    Message('note_off', channel=0, note=38, velocity=64, time=30),
    Message('note_on', channel=0, note=87, velocity=65, time=55),
    Message('note_off', channel=0, note=87, velocity=64, time=33),
    Message('note_off', channel=0, note=40, velocity=64, time=79),
    Message('note_on', channel=0, note=38, velocity=20, time=8),
    Message('note_on', channel=0, note=87, velocity=65, time=1),
    Message('note_off', channel=0, note=87, velocity=64, time=35),
    Message('note_on', channel=0, note=87, velocity=65, time=84),
    Message('note_off', channel=0, note=87, velocity=64, time=32),
    Message('note_on', channel=0, note=40, velocity=98, time=88),
    Message('note_on', channel=0, note=87, velocity=65, time=1),
    Message('note_off', channel=0, note=87, velocity=64, time=34),
    Message('note_off', channel=0, note=38, velocity=64, time=4),
    Message('note_on', channel=0, note=87, velocity=65, time=80),
    Message('note_on', channel=0, note=38, velocity=50, time=28),
    Message('note_off', channel=0, note=87, velocity=64, time=11),
    Message('note_on', channel=0, note=87, velocity=65, time=82),
    Message('note_off', channel=0, note=40, velocity=64, time=30),
    Message('note_off', channel=0, note=87, velocity=64, time=3),
    Message('note_on', channel=0, note=87, velocity=62, time=86),
    Message('note_off', channel=0, note=87, velocity=64, time=32),
    Message('note_off', channel=0, note=38, velocity=64, time=78),
    Message('note_on', channel=0, note=87, velocity=61, time=11),
    Message('note_off', channel=0, note=87, velocity=64, time=34),
    Message('note_on', channel=0, note=87, velocity=61, time=86),
    Message('note_off', channel=0, note=87, velocity=64, time=33),
    Message('note_on', channel=0, note=87, velocity=60, time=86),
    Message('note_off', channel=0, note=87, velocity=64, time=37),
    Message('note_on', channel=0, note=87, velocity=60, time=84),
    Message('note_off', channel=0, note=87, velocity=64, time=33),
    Message('note_on', channel=0, note=87, velocity=59, time=86),
    Message('note_off', channel=0, note=87, velocity=64, time=43),
    Message('note_on', channel=0, note=87, velocity=59, time=77),
    Message('note_off', channel=0, note=87, velocity=64, time=41),
    Message('note_on', channel=0, note=87, velocity=58, time=79),
    Message('note_off', channel=0, note=87, velocity=64, time=40),
    Message('note_on', channel=0, note=87, velocity=58, time=80),
    Message('note_off', channel=0, note=87, velocity=64, time=38),
    Message('note_on', channel=0, note=87, velocity=57, time=82),
    Message('note_off', channel=0, note=87, velocity=64, time=32),
    Message('note_on', channel=0, note=87, velocity=57, time=88),
    Message('note_off', channel=0, note=87, velocity=64, time=37),
    Message('note_on', channel=0, note=87, velocity=56, time=85),
    Message('note_off', channel=0, note=87, velocity=64, time=40),
    Message('note_on', channel=0, note=87, velocity=56, time=78),
    Message('note_off', channel=0, note=87, velocity=64, time=38),
    Message('note_on', channel=0, note=87, velocity=55, time=83),
    Message('note_off', channel=0, note=87, velocity=64, time=34),
    Message('note_on', channel=0, note=87, velocity=55, time=84),
    Message('note_off', channel=0, note=87, velocity=64, time=31),
    Message('note_on', channel=0, note=87, velocity=54, time=91),
    Message('note_off', channel=0, note=87, velocity=64, time=38),
    Message('note_on', channel=0, note=87, velocity=54, time=83),
    Message('note_off', channel=0, note=87, velocity=64, time=34),
    Message('note_on', channel=0, note=87, velocity=53, time=84),
    Message('note_off', channel=0, note=87, velocity=64, time=41),
    Message('note_on', channel=0, note=87, velocity=53, time=81),
    Message('note_off', channel=0, note=87, velocity=64, time=36),
    Message('note_on', channel=0, note=87, velocity=52, time=81),
    Message('note_off', channel=0, note=87, velocity=64, time=38),
    Message('note_on', channel=0, note=87, velocity=52, time=88),
    Message('note_off', channel=0, note=87, velocity=64, time=31),
    Message('note_on', channel=0, note=87, velocity=51, time=85),
    Message('note_off', channel=0, note=87, velocity=64, time=36),
    Message('note_on', channel=0, note=87, velocity=51, time=83),
    Message('note_off', channel=0, note=87, velocity=64, time=37),
    Message('note_on', channel=0, note=87, velocity=50, time=83),
    Message('note_off', channel=0, note=87, velocity=64, time=39),
    Message('note_on', channel=0, note=87, velocity=50, time=81),
    Message('note_off', channel=0, note=87, velocity=64, time=38),
    Message('note_on', channel=0, note=87, velocity=49, time=85),
    Message('note_off', channel=0, note=87, velocity=64, time=36),
    Message('note_on', channel=0, note=87, velocity=49, time=82),
    Message('note_off', channel=0, note=87, velocity=64, time=35),
    Message('note_on', channel=0, note=87, velocity=49, time=88),
    Message('note_off', channel=0, note=87, velocity=64, time=35),
    Message('note_on', channel=0, note=87, velocity=48, time=81),
    Message('note_off', channel=0, note=87, velocity=64, time=39),
    Message('note_on', channel=0, note=87, velocity=48, time=87),
    Message('note_off', channel=0, note=87, velocity=64, time=33),
    Message('note_on', channel=0, note=87, velocity=47, time=81),
    Message('note_off', channel=0, note=87, velocity=64, time=35),
    Message('note_on', channel=0, note=87, velocity=47, time=86),
    Message('note_off', channel=0, note=87, velocity=64, time=39),
    Message('note_on', channel=0, note=87, velocity=46, time=85),
    Message('note_off', channel=0, note=87, velocity=64, time=29),
    Message('note_on', channel=0, note=87, velocity=46, time=97),
    Message('note_off', channel=0, note=87, velocity=64, time=38),
    Message('note_on', channel=0, note=87, velocity=45, time=78),
    Message('note_off', channel=0, note=87, velocity=64, time=38),
    Message('note_on', channel=0, note=87, velocity=45, time=83),
    Message('note_off', channel=0, note=87, velocity=64, time=41),
    Message('note_on', channel=0, note=87, velocity=45, time=82),
    Message('note_off', channel=0, note=87, velocity=64, time=40),
    Message('note_on', channel=0, note=87, velocity=44, time=82),
    Message('note_off', channel=0, note=87, velocity=64, time=39),
    Message('note_on', channel=0, note=87, velocity=44, time=83),
    Message('note_off', channel=0, note=87, velocity=64, time=39),
    Message('note_on', channel=0, note=87, velocity=44, time=83),
    Message('note_off', channel=0, note=87, velocity=64, time=41),
    Message('note_on', channel=0, note=87, velocity=44, time=78),
    Message('note_off', channel=0, note=87, velocity=64, time=43),
    Message('note_on', channel=0, note=87, velocity=43, time=80),
    Message('note_off', channel=0, note=87, velocity=64, time=46),
    Message('note_on', channel=0, note=87, velocity=43, time=76),
    Message('note_off', channel=0, note=87, velocity=64, time=40),
    Message('note_on', channel=0, note=87, velocity=43, time=84),
    Message('note_off', channel=0, note=87, velocity=64, time=42),
    Message('note_on', channel=0, note=87, velocity=42, time=83),
    Message('note_off', channel=0, note=87, velocity=64, time=39),
    Message('note_on', channel=0, note=87, velocity=42, time=96),
    Message('note_off', channel=0, note=87, velocity=64, time=31),
    Message('note_on', channel=0, note=87, velocity=42, time=83),
    Message('note_off', channel=0, note=87, velocity=64, time=41),
    Message('note_on', channel=0, note=87, velocity=41, time=86),
    Message('note_off', channel=0, note=87, velocity=64, time=39),
    Message('note_on', channel=0, note=87, velocity=41, time=89),
    Message('note_off', channel=0, note=87, velocity=64, time=44),
    Message('note_on', channel=0, note=87, velocity=41, time=79),
    Message('note_off', channel=0, note=87, velocity=64, time=46),
    Message('note_on', channel=0, note=87, velocity=40, time=79),
    Message('note_off', channel=0, note=87, velocity=64, time=48),
    Message('note_on', channel=0, note=87, velocity=40, time=76),
    Message('note_off', channel=0, note=87, velocity=64, time=48),
    Message('note_on', channel=0, note=87, velocity=40, time=74),
    Message('note_off', channel=0, note=87, velocity=64, time=52),
    Message('note_on', channel=0, note=87, velocity=40, time=80),
    Message('note_off', channel=0, note=87, velocity=64, time=40),
    Message('note_on', channel=0, note=87, velocity=39, time=81),
    Message('note_off', channel=0, note=87, velocity=64, time=41),
    Message('note_on', channel=0, note=87, velocity=39, time=77),
    Message('note_off', channel=0, note=87, velocity=64, time=47),
    Message('note_on', channel=0, note=87, velocity=39, time=75),
    Message('note_off', channel=0, note=87, velocity=64, time=45),
    Message('note_on', channel=0, note=87, velocity=38, time=76),
    Message('note_off', channel=0, note=87, velocity=64, time=46),
    Message('note_on', channel=0, note=87, velocity=38, time=76),
    Message('note_off', channel=0, note=87, velocity=64, time=52),
    Message('note_on', channel=0, note=87, velocity=38, time=64),
    Message('note_off', channel=0, note=87, velocity=64, time=55),
    Message('note_on', channel=0, note=87, velocity=38, time=71),
    Message('note_off', channel=0, note=87, velocity=64, time=56),
    Message('note_on', channel=0, note=87, velocity=37, time=66),
    Message('note_off', channel=0, note=87, velocity=64, time=65),
    Message('note_on', channel=0, note=87, velocity=37, time=54),
    Message('note_off', channel=0, note=87, velocity=64, time=67),
    Message('note_on', channel=0, note=87, velocity=37, time=63),
    Message('note_off', channel=0, note=87, velocity=64, time=57),
    Message('note_on', channel=0, note=87, velocity=36, time=75),
    Message('note_off', channel=0, note=87, velocity=64, time=64),
    Message('note_on', channel=0, note=87, velocity=36, time=55),
    Message('note_off', channel=0, note=87, velocity=64, time=60),
    Message('note_on', channel=0, note=87, velocity=36, time=69),
    Message('note_off', channel=0, note=87, velocity=64, time=65),
    Message('note_on', channel=0, note=87, velocity=35, time=64),
    Message('note_off', channel=0, note=87, velocity=64, time=61),
    Message('note_on', channel=0, note=87, velocity=34, time=59),
    Message('note_off', channel=0, note=87, velocity=64, time=64),
    Message('note_on', channel=0, note=87, velocity=33, time=65),
    Message('note_off', channel=0, note=87, velocity=64, time=65),
    Message('note_on', channel=0, note=87, velocity=33, time=64),
    Message('note_off', channel=0, note=87, velocity=64, time=57),
    Message('note_on', channel=0, note=87, velocity=32, time=68),
    Message('note_off', channel=0, note=87, velocity=64, time=62),
    Message('note_on', channel=0, note=87, velocity=32, time=68),
    Message('note_off', channel=0, note=87, velocity=64, time=58),
    Message('note_on', channel=0, note=87, velocity=31, time=72),
    Message('note_off', channel=0, note=87, velocity=64, time=56),
    Message('note_on', channel=0, note=87, velocity=31, time=66),
    Message('note_off', channel=0, note=87, velocity=64, time=67),
    Message('note_on', channel=0, note=87, velocity=31, time=59),
    Message('note_off', channel=0, note=87, velocity=64, time=62),
    Message('note_on', channel=0, note=87, velocity=30, time=66),
    Message('note_off', channel=0, note=87, velocity=64, time=57),
    Message('note_on', channel=0, note=87, velocity=30, time=62),
    Message('note_off', channel=0, note=87, velocity=64, time=61),
    Message('note_on', channel=0, note=87, velocity=29, time=78),
    Message('note_off', channel=0, note=87, velocity=64, time=65),
    Message('note_on', channel=0, note=87, velocity=29, time=60),
    Message('note_off', channel=0, note=87, velocity=64, time=55),
    Message('note_on', channel=0, note=87, velocity=28, time=65),
    Message('note_off', channel=0, note=87, velocity=64, time=66),
    Message('note_on', channel=0, note=87, velocity=27, time=62),
    Message('note_off', channel=0, note=87, velocity=64, time=70),
    Message('note_on', channel=0, note=87, velocity=27, time=60),
    Message('note_off', channel=0, note=87, velocity=64, time=66),
    Message('note_on', channel=0, note=87, velocity=26, time=64),
    Message('note_off', channel=0, note=87, velocity=64, time=67),
    Message('note_on', channel=0, note=87, velocity=26, time=57),
    Message('note_off', channel=0, note=87, velocity=64, time=58),
    Message('note_on', channel=0, note=87, velocity=25, time=63),
    Message('note_off', channel=0, note=87, velocity=64, time=65),
    Message('note_on', channel=0, note=87, velocity=24, time=61),
    Message('note_off', channel=0, note=87, velocity=64, time=66),
    Message('note_on', channel=0, note=87, velocity=23, time=74),
    Message('note_off', channel=0, note=87, velocity=64, time=61),
    Message('note_on', channel=0, note=87, velocity=23, time=57),
    Message('note_off', channel=0, note=87, velocity=64, time=63),
    Message('note_on', channel=0, note=87, velocity=22, time=65),
    Message('note_off', channel=0, note=87, velocity=64, time=62),
    Message('note_on', channel=0, note=87, velocity=21, time=64),
    Message('note_off', channel=0, note=87, velocity=64, time=64),
    Message('note_on', channel=0, note=87, velocity=20, time=68),
    Message('note_off', channel=0, note=87, velocity=64, time=59),
    Message('note_on', channel=0, note=87, velocity=20, time=69),
    Message('note_off', channel=0, note=87, velocity=64, time=62),
    Message('note_on', channel=0, note=87, velocity=19, time=63),
    Message('note_off', channel=0, note=87, velocity=64, time=68),
    Message('note_on', channel=0, note=87, velocity=18, time=63),
    Message('note_off', channel=0, note=87, velocity=64, time=60),
    Message('note_on', channel=0, note=87, velocity=17, time=73),
    Message('note_off', channel=0, note=87, velocity=64, time=67),
    Message('note_on', channel=0, note=87, velocity=16, time=60),
    Message('note_off', channel=0, note=87, velocity=64, time=61),
    Message('note_on', channel=0, note=87, velocity=16, time=61),
    Message('note_off', channel=0, note=87, velocity=64, time=67),
    Message('note_on', channel=0, note=87, velocity=15, time=59),
    Message('note_off', channel=0, note=87, velocity=64, time=75),
    Message('note_on', channel=0, note=87, velocity=15, time=55),
    Message('note_off', channel=0, note=87, velocity=64, time=70),
    Message('note_on', channel=0, note=87, velocity=14, time=63),
    Message('note_off', channel=0, note=87, velocity=64, time=57),
    Message('note_on', channel=0, note=87, velocity=14, time=60),
    Message('note_off', channel=0, note=87, velocity=64, time=66),
    Message('note_on', channel=0, note=87, velocity=13, time=57),
    Message('note_off', channel=0, note=87, velocity=64, time=70),
    Message('note_on', channel=0, note=87, velocity=12, time=53),
    Message('note_off', channel=0, note=87, velocity=64, time=72),
    Message('note_on', channel=0, note=87, velocity=11, time=58),
    Message('note_off', channel=0, note=87, velocity=64, time=62),
    Message('note_on', channel=0, note=87, velocity=11, time=56),
    Message('note_off', channel=0, note=87, velocity=64, time=70),
    Message('note_on', channel=0, note=87, velocity=10, time=57),
    Message('note_off', channel=0, note=87, velocity=64, time=72),
    Message('note_on', channel=0, note=87, velocity=9, time=49),
    Message('note_off', channel=0, note=87, velocity=64, time=72),
    Message('note_on', channel=0, note=87, velocity=8, time=59),
    Message('note_off', channel=0, note=87, velocity=64, time=72),
    Message('note_on', channel=0, note=87, velocity=7, time=48),
    Message('note_off', channel=0, note=87, velocity=64, time=65),
    Message('note_on', channel=0, note=87, velocity=7, time=59),
    Message('note_off', channel=0, note=87, velocity=64, time=75),
    Message('note_on', channel=0, note=87, velocity=7, time=46),
    Message('note_off', channel=0, note=87, velocity=64, time=72),
    Message('note_on', channel=0, note=87, velocity=6, time=58),
    Message('note_off', channel=0, note=87, velocity=64, time=61),
    Message('note_on', channel=0, note=40, velocity=110, time=17083),
    Message('note_off', channel=0, note=40, velocity=64, time=193),
    Message('note_on', channel=0, note=40, velocity=104, time=283),
    Message('note_off', channel=0, note=40, velocity=64, time=305),
    Message('note_on', channel=0, note=40, velocity=100, time=182),
    Message('note_off', channel=0, note=40, velocity=64, time=249),
    Message('note_on', channel=0, note=40, velocity=102, time=228),
    Message('note_off', channel=0, note=40, velocity=64, time=224),
    Message('note_on', channel=0, note=38, velocity=38, time=156),
    Message('note_on', channel=0, note=40, velocity=100, time=99),
    Message('note_off', channel=0, note=38, velocity=64, time=153),
    Message('note_off', channel=0, note=40, velocity=64, time=96),
    Message('note_on', channel=0, note=40, velocity=102, time=228),
    Message('note_off', channel=0, note=40, velocity=64, time=291),
    Message('note_on', channel=0, note=40, velocity=102, time=189),
    Message('note_off', channel=0, note=40, velocity=64, time=262),
    Message('note_on', channel=0, note=40, velocity=104, time=218),
    Message('note_on', channel=0, note=38, velocity=43, time=144),
    Message('note_off', channel=0, note=40, velocity=64, time=97),
    Message('note_off', channel=0, note=38, velocity=64, time=81),
    Message('note_on', channel=0, note=40, velocity=96, time=159),
    Message('note_on', channel=0, note=38, velocity=6, time=239),
    Message('note_off', channel=0, note=40, velocity=64, time=15),
    Message('note_on', channel=0, note=40, velocity=104, time=225),
    Message('note_off', channel=0, note=38, velocity=64, time=84),
    Message('note_off', channel=0, note=40, velocity=64, time=155),
    Message('note_on', channel=0, note=40, velocity=100, time=242),
    Message('note_off', channel=0, note=40, velocity=64, time=234),
    Message('note_on', channel=0, note=38, velocity=36, time=150),
    Message('note_on', channel=0, note=40, velocity=100, time=95),
    Message('note_off', channel=0, note=38, velocity=64, time=187),
    Message('note_off', channel=0, note=40, velocity=64, time=43),
    Message('note_on', channel=0, note=38, velocity=34, time=154),
    Message('note_on', channel=0, note=40, velocity=104, time=96),
    Message('note_off', channel=0, note=38, velocity=64, time=142),
    Message('note_off', channel=0, note=40, velocity=64, time=187),
    Message('note_on', channel=0, note=40, velocity=98, time=150),
    Message('note_off', channel=0, note=40, velocity=64, time=248),
    Message('note_on', channel=0, note=38, velocity=36, time=137),
    Message('note_on', channel=0, note=40, velocity=98, time=96),
    Message('note_off', channel=0, note=38, velocity=64, time=26),
    Message('note_on', channel=0, note=38, velocity=52, time=214),
    Message('note_off', channel=0, note=40, velocity=64, time=7),
    Message('note_on', channel=0, note=40, velocity=107, time=234),
    Message('note_off', channel=0, note=38, velocity=64, time=65),
    Message('note_on', channel=0, note=38, velocity=55, time=78),
    Message('note_off', channel=0, note=40, velocity=64, time=51),
    Message('note_off', channel=0, note=38, velocity=64, time=175),
    Message('note_on', channel=0, note=36, velocity=123, time=9725),
    Message('note_off', channel=0, note=36, velocity=64, time=223),
    Message('note_on', channel=0, note=36, velocity=110, time=730),
    Message('note_off', channel=0, note=36, velocity=64, time=244),
    Message('note_on', channel=0, note=36, velocity=106, time=724),
    Message('note_off', channel=0, note=36, velocity=64, time=261),
    Message('note_on', channel=0, note=36, velocity=114, time=701),
    Message('note_off', channel=0, note=36, velocity=64, time=232),
    Message('note_on', channel=0, note=36, velocity=120, time=725),
    Message('note_off', channel=0, note=36, velocity=64, time=221),
    Message('note_on', channel=0, note=36, velocity=114, time=737),
    Message('note_off', channel=0, note=36, velocity=64, time=237),
    Message('note_on', channel=0, note=36, velocity=108, time=722),
    Message('note_off', channel=0, note=36, velocity=64, time=258),
    Message('note_on', channel=0, note=36, velocity=117, time=703),
    Message('note_off', channel=0, note=36, velocity=64, time=249),
    Message('note_on', channel=0, note=36, velocity=114, time=1679),
    Message('note_off', channel=0, note=36, velocity=64, time=240),
    Message('note_on', channel=0, note=36, velocity=120, time=725),
    Message('note_off', channel=0, note=36, velocity=64, time=258),
    Message('note_on', channel=0, note=36, velocity=117, time=692),
    Message('note_off', channel=0, note=36, velocity=64, time=224),
    Message('note_on', channel=0, note=36, velocity=120, time=740),
    Message('note_off', channel=0, note=36, velocity=64, time=220),
    Message('note_on', channel=0, note=36, velocity=117, time=734),
    Message('note_off', channel=0, note=36, velocity=64, time=230),
    Message('note_on', channel=0, note=36, velocity=110, time=725),
    Message('note_off', channel=0, note=36, velocity=64, time=270),
    Message('note_on', channel=0, note=36, velocity=114, time=694),
    Message('note_off', channel=0, note=36, velocity=64, time=239),
    MetaMessage('end_of_track', time=6851)]),
  MidiTrack([
    MetaMessage('track_name', name='Jazz Dry/Amb1 Kit SL1,2\x00', time=0),
    MetaMessage('channel_prefix', channel=1, time=0),
    Message('control_change', channel=1, control=0, value=0, time=0),
    Message('control_change', channel=1, control=32, value=15, time=0),
    Message('program_change', channel=1, program=126, time=0),
    Message('control_change', channel=1, control=7, value=127, time=0),
    Message('control_change', channel=1, control=10, value=64, time=0),
    Message('control_change', channel=1, control=93, value=0, time=0),
    Message('control_change', channel=1, control=91, value=0, time=0),
    Message('control_change', channel=1, control=11, value=127, time=3099),
    Message('note_on', channel=1, note=69, velocity=9, time=1562),
    Message('note_off', channel=1, note=69, velocity=64, time=43),
    Message('note_on', channel=1, note=69, velocity=10, time=33),
    Message('note_off', channel=1, note=69, velocity=64, time=43),
    Message('note_on', channel=1, note=69, velocity=10, time=30),
    Message('note_off', channel=1, note=69, velocity=64, time=45),
    Message('note_on', channel=1, note=69, velocity=11, time=48),
    Message('note_off', channel=1, note=69, velocity=64, time=44),
    Message('note_on', channel=1, note=69, velocity=12, time=45),
    Message('note_off', channel=1, note=69, velocity=64, time=44),
    Message('note_on', channel=1, note=69, velocity=12, time=40),
    Message('note_off', channel=1, note=69, velocity=64, time=41),
    Message('note_on', channel=1, note=69, velocity=13, time=44),
    Message('note_off', channel=1, note=69, velocity=64, time=37),
    Message('note_on', channel=1, note=69, velocity=14, time=46),
    Message('note_off', channel=1, note=69, velocity=64, time=38),
    Message('note_on', channel=1, note=69, velocity=14, time=38),
    Message('note_off', channel=1, note=69, velocity=64, time=37),
    Message('note_on', channel=1, note=69, velocity=15, time=40),
    Message('note_off', channel=1, note=69, velocity=64, time=33),
    Message('note_on', channel=1, note=69, velocity=16, time=41),
    Message('note_off', channel=1, note=69, velocity=64, time=27),
    Message('note_on', channel=1, note=69, velocity=16, time=49),
    Message('note_off', channel=1, note=69, velocity=64, time=32),
    Message('note_on', channel=1, note=69, velocity=17, time=45),
    Message('note_off', channel=1, note=69, velocity=64, time=30),
    Message('note_on', channel=1, note=69, velocity=17, time=30),
    Message('note_off', channel=1, note=69, velocity=64, time=45),
    Message('note_on', channel=1, note=69, velocity=18, time=31),
    Message('note_off', channel=1, note=69, velocity=64, time=43),
    Message('note_on', channel=1, note=69, velocity=19, time=31),
    Message('note_off', channel=1, note=69, velocity=64, time=45),
    Message('note_on', channel=1, note=69, velocity=19, time=30),
    Message('note_off', channel=1, note=69, velocity=64, time=46),
    Message('note_on', channel=1, note=69, velocity=20, time=30),
    Message('note_off', channel=1, note=69, velocity=64, time=42),
    Message('note_on', channel=1, note=69, velocity=20, time=31),
    Message('note_off', channel=1, note=69, velocity=64, time=44),
    Message('note_on', channel=1, note=69, velocity=21, time=49),
    Message('note_off', channel=1, note=69, velocity=64, time=44),
    Message('note_on', channel=1, note=69, velocity=22, time=43),
    Message('note_off', channel=1, note=69, velocity=64, time=45),
    Message('note_on', channel=1, note=69, velocity=23, time=41),
    Message('note_off', channel=1, note=69, velocity=64, time=41),
    Message('note_on', channel=1, note=69, velocity=23, time=44),
    Message('note_off', channel=1, note=69, velocity=64, time=43),
    Message('note_on', channel=1, note=69, velocity=24, time=40),
    Message('note_off', channel=1, note=69, velocity=64, time=38),
    Message('note_on', channel=1, note=69, velocity=25, time=38),
    Message('note_off', channel=1, note=69, velocity=64, time=35),
    Message('note_on', channel=1, note=69, velocity=25, time=41),
    Message('note_off', channel=1, note=69, velocity=64, time=33),
    Message('note_on', channel=1, note=69, velocity=26, time=47),
    Message('note_off', channel=1, note=69, velocity=64, time=27),
    Message('note_on', channel=1, note=69, velocity=26, time=42),
    Message('note_off', channel=1, note=69, velocity=64, time=33),
    Message('note_on', channel=1, note=69, velocity=27, time=46),
    Message('note_off', channel=1, note=69, velocity=64, time=29),
    Message('note_on', channel=1, note=69, velocity=28, time=32),
    Message('note_off', channel=1, note=69, velocity=64, time=41),
    Message('note_on', channel=1, note=69, velocity=28, time=34),
    Message('note_off', channel=1, note=69, velocity=64, time=43),
    Message('note_on', channel=1, note=69, velocity=29, time=30),
    Message('note_off', channel=1, note=69, velocity=64, time=45),
    Message('note_on', channel=1, note=69, velocity=30, time=48),
    Message('note_off', channel=1, note=69, velocity=64, time=44),
    Message('note_on', channel=1, note=69, velocity=31, time=44),
    Message('note_off', channel=1, note=69, velocity=64, time=43),
    Message('note_on', channel=1, note=69, velocity=31, time=41),
    Message('note_off', channel=1, note=69, velocity=64, time=43),
    Message('note_on', channel=1, note=69, velocity=32, time=43),
    Message('note_off', channel=1, note=69, velocity=64, time=37),
    Message('note_on', channel=1, note=69, velocity=32, time=46),
    Message('note_off', channel=1, note=69, velocity=64, time=37),
    Message('note_on', channel=1, note=69, velocity=33, time=39),
    Message('note_off', channel=1, note=69, velocity=64, time=39),
    Message('note_on', channel=1, note=69, velocity=33, time=38),
    Message('note_off', channel=1, note=69, velocity=64, time=32),
    Message('note_on', channel=1, note=69, velocity=34, time=42),
    Message('note_off', channel=1, note=69, velocity=64, time=32),
    Message('note_on', channel=1, note=69, velocity=34, time=42),
    Message('note_off', channel=1, note=69, velocity=64, time=32),
    Message('note_on', channel=1, note=69, velocity=35, time=48),
    Message('note_off', channel=1, note=69, velocity=64, time=28),
    Message('note_on', channel=1, note=69, velocity=36, time=47),
    Message('note_off', channel=1, note=69, velocity=64, time=32),
    Message('note_on', channel=1, note=69, velocity=36, time=50),
    Message('note_off', channel=1, note=69, velocity=64, time=33),
    Message('note_on', channel=1, note=69, velocity=37, time=51),
    Message('note_off', channel=1, note=69, velocity=64, time=30),
    Message('note_on', channel=1, note=69, velocity=37, time=49),
    Message('note_off', channel=1, note=69, velocity=64, time=32),
    Message('note_on', channel=1, note=69, velocity=38, time=54),
    Message('note_off', channel=1, note=69, velocity=64, time=25),
    Message('note_on', channel=1, note=69, velocity=39, time=54),
    Message('note_off', channel=1, note=69, velocity=64, time=30),
    Message('note_on', channel=1, note=69, velocity=39, time=53),
    Message('note_off', channel=1, note=69, velocity=64, time=27),
    Message('note_on', channel=1, note=69, velocity=40, time=54),
    Message('note_off', channel=1, note=69, velocity=64, time=29),
    Message('note_on', channel=1, note=69, velocity=40, time=51),
    Message('note_off', channel=1, note=69, velocity=64, time=28),
    Message('note_on', channel=1, note=69, velocity=41, time=49),
    Message('note_off', channel=1, note=69, velocity=64, time=28),
    Message('note_on', channel=1, note=69, velocity=41, time=52),
    Message('note_off', channel=1, note=69, velocity=64, time=30),
    Message('note_on', channel=1, note=69, velocity=42, time=49),
    Message('note_off', channel=1, note=69, velocity=64, time=28),
    Message('note_on', channel=1, note=69, velocity=43, time=61),
    Message('note_off', channel=1, note=69, velocity=64, time=25),
    Message('note_on', channel=1, note=69, velocity=46, time=61),
    Message('note_off', channel=1, note=69, velocity=64, time=21),
    Message('note_on', channel=1, note=69, velocity=50, time=75),
    Message('note_off', channel=1, note=69, velocity=64, time=11),
    Message('note_on', channel=1, note=69, velocity=55, time=59),
    Message('note_off', channel=1, note=69, velocity=64, time=25),
    Message('note_on', channel=1, note=69, velocity=59, time=54),
    Message('note_off', channel=1, note=69, velocity=64, time=22),
    Message('note_on', channel=1, note=69, velocity=62, time=53),
    Message('note_off', channel=1, note=69, velocity=64, time=30),
    Message('note_on', channel=1, note=69, velocity=67, time=50),
    Message('note_off', channel=1, note=69, velocity=64, time=25),
    Message('note_on', channel=1, note=69, velocity=70, time=49),
    Message('note_off', channel=1, note=69, velocity=64, time=28),
    Message('note_on', channel=1, note=44, velocity=114, time=6),
    Message('note_on', channel=1, note=69, velocity=74, time=43),
    Message('note_off', channel=1, note=69, velocity=64, time=21),
    Message('note_on', channel=1, note=69, velocity=78, time=65),
    Message('note_off', channel=1, note=44, velocity=64, time=2),
    Message('note_on', channel=1, note=44, velocity=114, time=0),
    Message('note_off', channel=1, note=69, velocity=64, time=15),
    Message('note_on', channel=1, note=69, velocity=88, time=50),
    Message('note_off', channel=1, note=69, velocity=64, time=27),
    Message('note_off', channel=1, note=44, velocity=64, time=22),
    Message('note_on', channel=1, note=36, velocity=110, time=0),
    Message('note_on', channel=1, note=56, velocity=92, time=116),
    Message('note_off', channel=1, note=36, velocity=64, time=99),
    Message('note_off', channel=1, note=56, velocity=64, time=2),
    Message('note_on', channel=1, note=44, velocity=114, time=24),
    Message('note_on', channel=1, note=56, velocity=96, time=117),
    Message('note_off', channel=1, note=44, velocity=64, time=95),
    Message('note_off', channel=1, note=56, velocity=64, time=132),
    Message('note_on', channel=1, note=54, velocity=119, time=11),
    Message('note_on', channel=1, note=44, velocity=106, time=119),
    Message('note_off', channel=1, note=54, velocity=64, time=102),
    Message('note_on', channel=1, note=56, velocity=99, time=19),
    Message('note_on', channel=1, note=36, velocity=107, time=121),
    Message('note_off', channel=1, note=44, velocity=64, time=1),
    Message('note_off', channel=1, note=56, velocity=64, time=22),
    Message('note_on', channel=1, note=56, velocity=68, time=95),
    Message('note_off', channel=1, note=36, velocity=64, time=106),
    Message('note_off', channel=1, note=56, velocity=64, time=13),
    Message('note_on', channel=1, note=44, velocity=114, time=3),
    Message('note_on', channel=1, note=56, velocity=90, time=120),
    Message('note_off', channel=1, note=44, velocity=64, time=77),
    Message('note_on', channel=1, note=54, velocity=119, time=162),
    Message('note_off', channel=1, note=56, velocity=64, time=10),
    Message('note_on', channel=1, note=44, velocity=106, time=110),
    Message('note_on', channel=1, note=56, velocity=88, time=120),
    Message('note_off', channel=1, note=54, velocity=64, time=41),
    Message('note_on', channel=1, note=36, velocity=100, time=81),
    Message('note_off', channel=1, note=44, velocity=64, time=16),
    Message('note_off', channel=1, note=56, velocity=64, time=1),
    Message('note_on', channel=1, note=56, velocity=64, time=101),
    Message('note_off', channel=1, note=56, velocity=64, time=122),
    Message('note_on', channel=1, note=44, velocity=106, time=0),
    Message('note_off', channel=1, note=36, velocity=64, time=28),
    Message('note_on', channel=1, note=56, velocity=92, time=91),
    Message('note_off', channel=1, note=44, velocity=64, time=108),
    Message('note_on', channel=1, note=54, velocity=127, time=133),
    Message('note_off', channel=1, note=56, velocity=64, time=18),
    Message('note_on', channel=1, note=44, velocity=106, time=100),
    Message('note_on', channel=1, note=56, velocity=92, time=122),
    Message('note_off', channel=1, note=54, velocity=64, time=19),
    Message('note_on', channel=1, note=36, velocity=104, time=100),
    Message('note_off', channel=1, note=44, velocity=64, time=4),
    Message('note_off', channel=1, note=56, velocity=64, time=8),
    Message('note_on', channel=1, note=56, velocity=69, time=111),
    Message('note_off', channel=1, note=36, velocity=64, time=115),
    Message('note_on', channel=1, note=44, velocity=106, time=4),
    Message('note_off', channel=1, note=56, velocity=64, time=112),
    Message('note_on', channel=1, note=54, velocity=107, time=7),
    Message('note_off', channel=1, note=44, velocity=64, time=103),
    Message('note_on', channel=1, note=56, velocity=64, time=17),
    Message('note_off', channel=1, note=54, velocity=64, time=50),
    Message('note_off', channel=1, note=56, velocity=64, time=38),
    Message('note_on', channel=1, note=58, velocity=107, time=32),
    Message('note_on', channel=1, note=44, velocity=106, time=120),
    Message('note_off', channel=1, note=58, velocity=64, time=36),
    Message('note_on', channel=1, note=56, velocity=107, time=85),
    Message('note_off', channel=1, note=44, velocity=64, time=112),
    Message('note_off', channel=1, note=56, velocity=64, time=7),
    Message('note_on', channel=1, note=56, velocity=87, time=2),
    Message('note_off', channel=1, note=56, velocity=64, time=76),
    Message('note_on', channel=1, note=54, velocity=88, time=41),
    Message('note_off', channel=1, note=54, velocity=64, time=89),
    Message('note_on', channel=1, note=56, velocity=87, time=31),
    Message('note_off', channel=1, note=56, velocity=64, time=102),
    Message('note_on', channel=1, note=54, velocity=121, time=16),
    Message('note_off', channel=1, note=54, velocity=64, time=108),
    Message('note_on', channel=1, note=56, velocity=87, time=13),
    Message('note_off', channel=1, note=56, velocity=64, time=98),
    Message('note_on', channel=1, note=54, velocity=79, time=23),
    Message('note_off', channel=1, note=54, velocity=64, time=83),
    Message('note_on', channel=1, note=56, velocity=87, time=36),
    Message('note_off', channel=1, note=56, velocity=64, time=99),
    Message('note_on', channel=1, note=58, velocity=100, time=21),
    Message('note_off', channel=1, note=58, velocity=64, time=94),
    Message('note_on', channel=1, note=56, velocity=87, time=27),
    Message('note_off', channel=1, note=56, velocity=64, time=88),
    Message('note_on', channel=1, note=54, velocity=117, time=31),
    Message('note_off', channel=1, note=54, velocity=64, time=102),
    Message('note_on', channel=1, note=56, velocity=87, time=19),
    Message('note_off', channel=1, note=56, velocity=64, time=92),
    Message('note_on', channel=1, note=54, velocity=68, time=28),
    Message('note_off', channel=1, note=54, velocity=64, time=94),
    Message('note_on', channel=1, note=56, velocity=82, time=25),
    Message('note_off', channel=1, note=56, velocity=64, time=89),
    Message('note_on', channel=1, note=54, velocity=41, time=31),
    Message('note_off', channel=1, note=54, velocity=64, time=62),
    Message('note_on', channel=1, note=56, velocity=82, time=59),
    Message('note_off', channel=1, note=56, velocity=64, time=88),
    Message('note_on', channel=1, note=54, velocity=88, time=31),
    Message('note_off', channel=1, note=54, velocity=64, time=100),
    Message('note_on', channel=1, note=56, velocity=87, time=20),
    Message('note_off', channel=1, note=56, velocity=64, time=88),
    Message('note_on', channel=1, note=54, velocity=55, time=32),
    Message('note_off', channel=1, note=54, velocity=64, time=79),
    Message('note_on', channel=1, note=56, velocity=82, time=41),
    Message('note_off', channel=1, note=56, velocity=64, time=90),
    Message('note_on', channel=1, note=54, velocity=71, time=30),
    Message('note_off', channel=1, note=54, velocity=64, time=67),
    Message('note_on', channel=1, note=56, velocity=87, time=53),
    Message('note_off', channel=1, note=56, velocity=64, time=87),
    Message('note_on', channel=1, note=54, velocity=62, time=32),
    Message('note_off', channel=1, note=54, velocity=64, time=64),
    Message('note_on', channel=1, note=56, velocity=87, time=57),
    Message('note_off', channel=1, note=56, velocity=64, time=92),
    Message('note_on', channel=1, note=54, velocity=102, time=28),
    Message('note_off', channel=1, note=54, velocity=64, time=81),
    Message('note_on', channel=1, note=56, velocity=87, time=39),
    Message('note_off', channel=1, note=56, velocity=64, time=89),
    Message('note_on', channel=1, note=54, velocity=107, time=32),
    Message('note_off', channel=1, note=54, velocity=64, time=98),
    Message('note_on', channel=1, note=56, velocity=82, time=22),
    Message('note_off', channel=1, note=56, velocity=64, time=89),
    Message('note_on', channel=1, note=54, velocity=73, time=30),
    Message('note_off', channel=1, note=54, velocity=64, time=91),
    Message('note_on', channel=1, note=56, velocity=87, time=29),
    Message('note_off', channel=1, note=56, velocity=64, time=89),
    Message('note_on', channel=1, note=58, velocity=107, time=32),
    Message('note_on', channel=1, note=56, velocity=82, time=119),
    Message('note_off', channel=1, note=58, velocity=64, time=3),
    Message('note_off', channel=1, note=56, velocity=64, time=91),
    Message('note_on', channel=1, note=54, velocity=99, time=26),
    Message('note_off', channel=1, note=54, velocity=64, time=118),
    Message('note_on', channel=1, note=56, velocity=82, time=3),
    Message('note_off', channel=1, note=56, velocity=64, time=81),
    Message('note_on', channel=1, note=54, velocity=45, time=38),
    Message('note_off', channel=1, note=54, velocity=64, time=49),
    Message('note_on', channel=1, note=56, velocity=78, time=73),
    Message('note_off', channel=1, note=56, velocity=64, time=89),
    Message('note_on', channel=1, note=54, velocity=88, time=29),
    Message('note_off', channel=1, note=54, velocity=64, time=90),
    Message('note_on', channel=1, note=56, velocity=82, time=31),
    Message('note_off', channel=1, note=56, velocity=64, time=91),
    Message('note_on', channel=1, note=54, velocity=96, time=27),
    Message('note_off', channel=1, note=54, velocity=64, time=91),
    Message('note_on', channel=1, note=56, velocity=82, time=31),
    Message('note_off', channel=1, note=56, velocity=64, time=93),
    Message('note_on', channel=1, note=54, velocity=99, time=26),
    Message('note_off', channel=1, note=54, velocity=64, time=95),
    Message('note_on', channel=1, note=56, velocity=82, time=25),
    Message('note_off', channel=1, note=56, velocity=64, time=96),
    Message('note_on', channel=1, note=54, velocity=102, time=30),
    Message('note_off', channel=1, note=54, velocity=64, time=94),
    Message('note_on', channel=1, note=56, velocity=78, time=20),
    Message('note_off', channel=1, note=56, velocity=64, time=97),
    Message('note_on', channel=1, note=54, velocity=44, time=29),
    Message('note_off', channel=1, note=54, velocity=64, time=55),
    Message('note_on', channel=1, note=56, velocity=82, time=59),
    Message('note_off', channel=1, note=56, velocity=64, time=90),
    Message('note_on', channel=1, note=54, velocity=99, time=34),
    Message('note_off', channel=1, note=54, velocity=64, time=91),
    Message('note_on', channel=1, note=56, velocity=82, time=29),
    Message('note_off', channel=1, note=56, velocity=64, time=84),
    Message('note_on', channel=1, note=54, velocity=71, time=36),
    Message('note_off', channel=1, note=54, velocity=64, time=81),
    Message('note_on', channel=1, note=56, velocity=82, time=44),
    Message('note_off', channel=1, note=56, velocity=64, time=79),
    Message('note_on', channel=1, note=54, velocity=66, time=32),
    Message('note_off', channel=1, note=54, velocity=64, time=69),
    Message('note_on', channel=1, note=56, velocity=82, time=61),
    Message('note_off', channel=1, note=56, velocity=64, time=75),
    Message('note_on', channel=1, note=54, velocity=96, time=36),
    Message('note_off', channel=1, note=54, velocity=64, time=89),
    Message('note_on', channel=1, note=56, velocity=78, time=36),
    Message('note_off', channel=1, note=56, velocity=64, time=80),
    Message('note_on', channel=1, note=54, velocity=73, time=40),
    Message('note_off', channel=1, note=54, velocity=64, time=65),
    Message('note_on', channel=1, note=56, velocity=82, time=49),
    Message('note_off', channel=1, note=56, velocity=64, time=83),
    Message('note_on', channel=1, note=54, velocity=107, time=38),
    Message('note_off', channel=1, note=54, velocity=64, time=88),
    Message('note_on', channel=1, note=56, velocity=82, time=30),
    Message('note_off', channel=1, note=56, velocity=64, time=89),
    Message('note_on', channel=1, note=58, velocity=113, time=31),
    Message('note_off', channel=1, note=58, velocity=64, time=108),
    Message('note_on', channel=1, note=56, velocity=98, time=13),
    Message('note_off', channel=1, note=56, velocity=64, time=84),
    Message('note_on', channel=1, note=54, velocity=58, time=45),
    Message('note_off', channel=1, note=54, velocity=64, time=67),
    Message('note_on', channel=1, note=56, velocity=82, time=45),
    Message('note_off', channel=1, note=56, velocity=64, time=82),
    Message('note_on', channel=1, note=54, velocity=81, time=38),
    Message('note_off', channel=1, note=54, velocity=64, time=96),
    Message('note_on', channel=1, note=56, velocity=82, time=23),
    Message('note_off', channel=1, note=56, velocity=64, time=82),
    Message('note_on', channel=1, note=58, velocity=113, time=37),
    Message('note_off', channel=1, note=58, velocity=64, time=105),
    Message('note_on', channel=1, note=56, velocity=87, time=16),
    Message('note_off', channel=1, note=56, velocity=64, time=81),
    Message('note_on', channel=1, note=54, velocity=102, time=39),
    Message('note_on', channel=1, note=56, velocity=87, time=121),
    Message('note_off', channel=1, note=54, velocity=64, time=2),
    Message('note_off', channel=1, note=56, velocity=64, time=99),
    Message('note_on', channel=1, note=69, velocity=89, time=18),
    Message('note_on', channel=1, note=46, velocity=122, time=0),
    Message('note_on', channel=1, note=61, velocity=89, time=1),
    Message('note_off', channel=1, note=69, velocity=64, time=78),
    Message('note_off', channel=1, note=46, velocity=64, time=0),
    Message('note_off', channel=1, note=61, velocity=64, time=1),
    Message('note_on', channel=1, note=56, velocity=87, time=40),
    Message('note_off', channel=1, note=56, velocity=64, time=99),
    Message('note_on', channel=1, note=54, velocity=107, time=21),
    Message('note_off', channel=1, note=54, velocity=64, time=96),
    Message('note_on', channel=1, note=56, velocity=87, time=25),
    Message('note_off', channel=1, note=56, velocity=64, time=100),
    Message('note_on', channel=1, note=54, velocity=119, time=19),
    Message('note_off', channel=1, note=54, velocity=64, time=93),
    Message('note_on', channel=1, note=56, velocity=87, time=27),
    Message('note_off', channel=1, note=56, velocity=64, time=88),
    Message('note_on', channel=1, note=54, velocity=119, time=33),
    Message('note_off', channel=1, note=54, velocity=64, time=106),
    Message('note_on', channel=1, note=56, velocity=87, time=13),
    Message('note_off', channel=1, note=56, velocity=64, time=93),
    Message('note_on', channel=1, note=54, velocity=62, time=27),
    Message('note_off', channel=1, note=54, velocity=64, time=95),
    Message('note_on', channel=1, note=56, velocity=82, time=26),
    Message('note_off', channel=1, note=56, velocity=64, time=87),
    Message('note_on', channel=1, note=54, velocity=71, time=32),
    Message('note_off', channel=1, note=54, velocity=64, time=82),
    Message('note_on', channel=1, note=56, velocity=82, time=39),
    Message('note_off', channel=1, note=56, velocity=64, time=88),
    Message('note_on', channel=1, note=54, velocity=102, time=30),
    Message('note_off', channel=1, note=54, velocity=64, time=109),
    Message('note_on', channel=1, note=56, velocity=87, time=12),
    Message('note_off', channel=1, note=56, velocity=64, time=88),
    Message('note_on', channel=1, note=54, velocity=75, time=32),
    Message('note_off', channel=1, note=54, velocity=64, time=91),
    Message('note_on', channel=1, note=56, velocity=82, time=30),
    Message('note_off', channel=1, note=56, velocity=64, time=89),
    Message('note_on', channel=1, note=54, velocity=73, time=30),
    Message('note_off', channel=1, note=54, velocity=64, time=81),
    Message('note_on', channel=1, note=56, velocity=87, time=40),
    Message('note_off', channel=1, note=56, velocity=64, time=85),
    Message('note_on', channel=1, note=54, velocity=119, time=35),
    Message('note_off', channel=1, note=54, velocity=64, time=91),
    Message('note_on', channel=1, note=56, velocity=87, time=28),
    Message('note_off', channel=1, note=56, velocity=64, time=92),
    Message('note_on', channel=1, note=54, velocity=127, time=27),
    Message('note_off', channel=1, note=54, velocity=64, time=107),
    Message('note_on', channel=1, note=56, velocity=87, time=14),
    Message('note_off', channel=1, note=56, velocity=64, time=88),
    Message('note_on', channel=1, note=54, velocity=119, time=31),
    Message('note_off', channel=1, note=54, velocity=64, time=119),
    Message('note_on', channel=1, note=58, velocity=113, time=2),
    Message('note_off', channel=1, note=58, velocity=64, time=90),
    Message('note_on', channel=1, note=54, velocity=73, time=29),
    Message('note_off', channel=1, note=54, velocity=64, time=100),
    Message('note_on', channel=1, note=56, velocity=87, time=20),
    Message('note_off', channel=1, note=56, velocity=64, time=90),
    Message('note_on', channel=1, note=58, velocity=120, time=32),
    Message('note_off', channel=1, note=58, velocity=64, time=107),
    Message('note_on', channel=1, note=56, velocity=82, time=14),
    Message('note_off', channel=1, note=56, velocity=64, time=93),
    Message('note_on', channel=1, note=54, velocity=99, time=25),
    Message('note_off', channel=1, note=54, velocity=64, time=114),
    Message('note_on', channel=1, note=56, velocity=82, time=7),
    Message('note_off', channel=1, note=56, velocity=64, time=81),
    Message('note_on', channel=1, note=54, velocity=66, time=39),
    Message('note_off', channel=1, note=54, velocity=64, time=93),
    Message('note_on', channel=1, note=56, velocity=78, time=27),
    Message('note_off', channel=1, note=56, velocity=64, time=90),
    Message('note_on', channel=1, note=54, velocity=90, time=30),
    Message('note_off', channel=1, note=54, velocity=64, time=87),
    Message('note_on', channel=1, note=56, velocity=82, time=33),
    Message('note_off', channel=1, note=56, velocity=64, time=91),
    Message('note_on', channel=1, note=54, velocity=107, time=28),
    Message('note_off', channel=1, note=54, velocity=64, time=97),
    Message('note_on', channel=1, note=56, velocity=82, time=24),
    Message('note_off', channel=1, note=56, velocity=64, time=90),
    Message('note_on', channel=1, note=54, velocity=119, time=29),
    Message('note_off', channel=1, note=54, velocity=64, time=96),
    Message('note_on', channel=1, note=56, velocity=82, time=25),
    Message('note_off', channel=1, note=56, velocity=64, time=89),
    Message('note_on', channel=1, note=54, velocity=113, time=30),
    Message('note_off', channel=1, note=54, velocity=64, time=118),
    Message('note_on', channel=1, note=56, velocity=78, time=4),
    Message('note_off', channel=1, note=56, velocity=64, time=86),
    Message('note_on', channel=1, note=54, velocity=88, time=32),
    Message('note_off', channel=1, note=54, velocity=64, time=98),
    Message('note_on', channel=1, note=56, velocity=82, time=22),
    Message('note_off', channel=1, note=56, velocity=64, time=90),
    Message('note_on', channel=1, note=54, velocity=88, time=31),
    Message('note_off', channel=1, note=54, velocity=64, time=88),
    Message('note_on', channel=1, note=56, velocity=82, time=32),
    Message('note_off', channel=1, note=56, velocity=64, time=88),
    Message('note_on', channel=1, note=54, velocity=99, time=32),
    Message('note_off', channel=1, note=54, velocity=64, time=111),
    Message('note_on', channel=1, note=56, velocity=82, time=12),
    Message('note_off', channel=1, note=56, velocity=64, time=84),
    Message('note_on', channel=1, note=54, velocity=71, time=32),
    Message('note_off', channel=1, note=54, velocity=64, time=90),
    Message('note_on', channel=1, note=56, velocity=82, time=34),
    Message('note_off', channel=1, note=56, velocity=64, time=81),
    Message('note_on', channel=1, note=54, velocity=102, time=36),
    Message('note_off', channel=1, note=54, velocity=64, time=123),
    Message('note_on', channel=1, note=56, velocity=78, time=1),
    Message('note_off', channel=1, note=56, velocity=64, time=81),
    Message('note_on', channel=1, note=54, velocity=102, time=34),
    Message('note_off', channel=1, note=54, velocity=64, time=96),
    Message('note_on', channel=1, note=56, velocity=82, time=25),
    Message('note_off', channel=1, note=56, velocity=64, time=81),
    Message('note_on', channel=1, note=54, velocity=82, time=38),
    Message('note_off', channel=1, note=54, velocity=64, time=83),
    Message('note_on', channel=1, note=56, velocity=82, time=39),
    Message('note_off', channel=1, note=56, velocity=64, time=80),
    Message('note_on', channel=1, note=58, velocity=86, time=41),
    Message('note_off', channel=1, note=58, velocity=64, time=33),
    Message('note_on', channel=1, note=56, velocity=108, time=87),
    Message('note_off', channel=1, note=56, velocity=64, time=39),
    Message('note_on', channel=1, note=58, velocity=111, time=81),
    Message('note_off', channel=1, note=58, velocity=64, time=116),
    Message('note_on', channel=1, note=58, velocity=109, time=361),
    Message('note_off', channel=1, note=58, velocity=64, time=82),
    Message('note_on', channel=1, note=61, velocity=88, time=44),
    Message('note_on', channel=1, note=48, velocity=119, time=0),
    Message('note_off', channel=1, note=61, velocity=64, time=48),
    Message('note_on', channel=1, note=56, velocity=82, time=66),
    Message('note_off', channel=1, note=56, velocity=64, time=83),
    Message('note_off', channel=1, note=48, velocity=64, time=31),
    Message('note_on', channel=1, note=52, velocity=127, time=15),
    Message('note_on', channel=1, note=69, velocity=113, time=1),
    Message('note_off', channel=1, note=69, velocity=64, time=60),
    Message('note_on', channel=1, note=60, velocity=127, time=180),
    Message('note_off', channel=1, note=52, velocity=64, time=72),
    Message('note_off', channel=1, note=60, velocity=64, time=26),
    Message('note_on', channel=1, note=59, velocity=92, time=11),
    Message('note_off', channel=1, note=59, velocity=64, time=105),
    Message('note_on', channel=1, note=57, velocity=85, time=16),
    Message('note_off', channel=1, note=57, velocity=64, time=113),
    Message('note_on', channel=1, note=61, velocity=113, time=12),
    Message('note_on', channel=1, note=48, velocity=124, time=1),
    Message('note_off', channel=1, note=48, velocity=64, time=99),
    Message('note_off', channel=1, note=61, velocity=64, time=4),
    Message('note_on', channel=1, note=50, velocity=92, time=11),
    Message('note_off', channel=1, note=50, velocity=64, time=106),
    Message('note_on', channel=1, note=48, velocity=124, time=23),
    Message('note_off', channel=1, note=48, velocity=64, time=96),
    Message('note_on', channel=1, note=50, velocity=127, time=14),
    Message('note_on', channel=1, note=60, velocity=127, time=242),
    Message('note_off', channel=1, note=50, velocity=64, time=42),
    Message('note_off', channel=1, note=60, velocity=64, time=133),
    Message('note_on', channel=1, note=48, velocity=115, time=1),
    Message('note_on', channel=1, note=59, velocity=113, time=183),
    Message('note_on', channel=1, note=57, velocity=127, time=28),
    Message('note_off', channel=1, note=48, velocity=64, time=16),
    Message('note_off', channel=1, note=59, velocity=64, time=16),
    Message('note_off', channel=1, note=57, velocity=64, time=76),
    Message('note_on', channel=1, note=48, velocity=104, time=51),
    Message('note_on', channel=1, note=52, velocity=127, time=173),
    Message('note_on', channel=1, note=69, velocity=119, time=3),
    Message('note_off', channel=1, note=48, velocity=64, time=10),
    Message('note_on', channel=1, note=58, velocity=59, time=227),
    Message('note_off', channel=1, note=58, velocity=64, time=64),
    Message('note_on', channel=1, note=58, velocity=67, time=177),
    Message('note_off', channel=1, note=69, velocity=64, time=23),
    Message('note_off', channel=1, note=58, velocity=64, time=32),
    Message('note_on', channel=1, note=58, velocity=75, time=204),
    Message('note_off', channel=1, note=58, velocity=64, time=24),
    Message('note_off', channel=1, note=52, velocity=64, time=143),
    Message('note_on', channel=1, note=58, velocity=83, time=57),
    Message('note_off', channel=1, note=58, velocity=64, time=74),
    Message('note_on', channel=1, note=58, velocity=99, time=171),
    Message('note_off', channel=1, note=58, velocity=64, time=57),
    Message('note_on', channel=1, note=58, velocity=107, time=180),
    Message('note_off', channel=1, note=58, velocity=64, time=74),
    Message('note_on', channel=1, note=56, velocity=88, time=160),
    Message('note_off', channel=1, note=56, velocity=64, time=91),
    Message('control_change', channel=1, control=11, value=93, time=143),
    Message('note_on', channel=1, note=56, velocity=88, time=6),
    Message('note_on', channel=1, note=74, velocity=126, time=3),
    Message('note_on', channel=1, note=90, velocity=103, time=17),
    Message('note_off', channel=1, note=56, velocity=64, time=70),
    Message('note_off', channel=1, note=90, velocity=64, time=28),
    Message('note_off', channel=1, note=74, velocity=64, time=84),
    Message('note_on', channel=1, note=56, velocity=87, time=39),
    Message('note_on', channel=1, note=91, velocity=71, time=24),
    Message('note_off', channel=1, note=91, velocity=64, time=57),
    Message('note_off', channel=1, note=56, velocity=64, time=12),
    Message('note_on', channel=1, note=91, velocity=92, time=78),
    Message('note_on', channel=1, note=56, velocity=87, time=68),
    Message('note_on', channel=1, note=56, velocity=87, time=1),
    Message('note_off', channel=1, note=91, velocity=64, time=28),
    Message('note_on', channel=1, note=75, velocity=101, time=3),
    Message('note_off', channel=1, note=56, velocity=64, time=58),
    Message('note_off', channel=1, note=56, velocity=64, time=1),
    Message('note_off', channel=1, note=75, velocity=64, time=9),
    Message('note_on', channel=1, note=91, velocity=102, time=65),
    Message('note_on', channel=1, note=75, velocity=108, time=38),
    Message('note_on', channel=1, note=56, velocity=86, time=37),
    Message('note_off', channel=1, note=91, velocity=64, time=25),
    Message('note_off', channel=1, note=75, velocity=64, time=25),
    Message('note_off', channel=1, note=56, velocity=64, time=46),
    Message('note_on', channel=1, note=90, velocity=102, time=75),
    Message('note_on', channel=1, note=56, velocity=86, time=69),
    Message('note_on', channel=1, note=74, velocity=123, time=0),
    Message('note_off', channel=1, note=90, velocity=64, time=22),
    Message('note_off', channel=1, note=56, velocity=64, time=74),
    Message('note_off', channel=1, note=74, velocity=64, time=5),
    Message('note_on', channel=1, note=56, velocity=85, time=138),
    Message('note_off', channel=1, note=56, velocity=64, time=96),
    Message('note_on', channel=1, note=91, velocity=85, time=78),
    Message('note_on', channel=1, note=56, velocity=84, time=67),
    Message('note_off', channel=1, note=91, velocity=64, time=16),
    Message('note_on', channel=1, note=76, velocity=98, time=4),
    Message('note_off', channel=1, note=76, velocity=64, time=71),
    Message('note_off', channel=1, note=56, velocity=64, time=9),
    Message('note_on', channel=1, note=91, velocity=104, time=79),
    Message('note_on', channel=1, note=76, velocity=109, time=1),
    Message('note_on', channel=1, note=56, velocity=84, time=60),
    Message('note_off', channel=1, note=91, velocity=64, time=13),
    Message('note_off', channel=1, note=76, velocity=64, time=13),
    Message('note_off', channel=1, note=56, velocity=64, time=81),
    Message('note_on', channel=1, note=90, velocity=119, time=72),
    Message('note_on', channel=1, note=56, velocity=83, time=62),
    Message('note_on', channel=1, note=74, velocity=127, time=1),
    Message('note_off', channel=1, note=90, velocity=64, time=30),
    Message('note_off', channel=1, note=56, velocity=64, time=74),
    Message('note_off', channel=1, note=74, velocity=64, time=5),
    Message('note_on', channel=1, note=90, velocity=85, time=66),
    Message('note_off', channel=1, note=90, velocity=64, time=13),
    Message('note_on', channel=1, note=56, velocity=83, time=49),
    Message('note_off', channel=1, note=56, velocity=64, time=104),
    Message('note_on', channel=1, note=91, velocity=100, time=74),
    Message('note_on', channel=1, note=56, velocity=82, time=63),
    Message('note_off', channel=1, note=91, velocity=64, time=2),
    Message('note_on', channel=1, note=75, velocity=101, time=33),
    Message('note_off', channel=1, note=56, velocity=64, time=65),
    Message('note_off', channel=1, note=75, velocity=64, time=8),
    Message('note_on', channel=1, note=75, velocity=118, time=100),
    Message('note_on', channel=1, note=56, velocity=85, time=33),
    Message('note_off', channel=1, note=75, velocity=64, time=34),
    Message('note_off', channel=1, note=56, velocity=64, time=60),
    Message('control_change', channel=1, control=11, value=127, time=124),
    Message('note_on', channel=1, note=56, velocity=92, time=22),
    Message('note_off', channel=1, note=56, velocity=64, time=115),
    Message('note_on', channel=1, note=56, velocity=88, time=124),
    Message('note_off', channel=1, note=56, velocity=64, time=120),
    Message('note_on', channel=1, note=58, velocity=90, time=2),
    Message('note_off', channel=1, note=58, velocity=64, time=121),
    Message('note_on', channel=1, note=58, velocity=96, time=122),
    Message('note_off', channel=1, note=58, velocity=64, time=98),
    Message('note_on', channel=1, note=56, velocity=87, time=137),
    Message('note_off', channel=1, note=56, velocity=64, time=89),
    Message('note_on', channel=1, note=56, velocity=87, time=35),
    Message('note_off', channel=1, note=56, velocity=64, time=77),
    Message('note_on', channel=1, note=54, velocity=88, time=40),
    Message('note_off', channel=1, note=54, velocity=64, time=89),
    Message('note_on', channel=1, note=56, velocity=87, time=31),
    Message('note_off', channel=1, note=56, velocity=64, time=100),
    Message('note_on', channel=1, note=54, velocity=79, time=20),
    Message('note_off', channel=1, note=54, velocity=64, time=107),
    Message('note_on', channel=1, note=56, velocity=87, time=18),
    Message('note_off', channel=1, note=56, velocity=64, time=93),
    Message('note_on', channel=1, note=54, velocity=79, time=24),
    Message('note_off', channel=1, note=54, velocity=64, time=84),
    Message('note_on', channel=1, note=56, velocity=87, time=35),
    Message('note_off', channel=1, note=56, velocity=64, time=98),
    Message('note_on', channel=1, note=54, velocity=102, time=21),
    Message('note_off', channel=1, note=54, velocity=64, time=94),
    Message('note_on', channel=1, note=56, velocity=87, time=27),
    Message('note_off', channel=1, note=56, velocity=64, time=91),
    Message('note_on', channel=1, note=54, velocity=99, time=28),
    Message('note_off', channel=1, note=54, velocity=64, time=101),
    Message('note_on', channel=1, note=56, velocity=87, time=23),
    Message('note_off', channel=1, note=56, velocity=64, time=89),
    Message('note_on', channel=1, note=54, velocity=68, time=33),
    Message('note_off', channel=1, note=54, velocity=64, time=87),
    Message('note_on', channel=1, note=56, velocity=82, time=27),
    Message('note_off', channel=1, note=56, velocity=64, time=93),
    Message('note_on', channel=1, note=54, velocity=41, time=36),
    Message('note_off', channel=1, note=54, velocity=64, time=52),
    Message('note_on', channel=1, note=56, velocity=82, time=58),
    Message('note_off', channel=1, note=56, velocity=64, time=90),
    Message('note_on', channel=1, note=54, velocity=88, time=38),
    Message('note_off', channel=1, note=54, velocity=64, time=92),
    Message('note_on', channel=1, note=56, velocity=87, time=27),
    Message('note_off', channel=1, note=56, velocity=64, time=81),
    Message('note_on', channel=1, note=54, velocity=55, time=34),
    Message('note_off', channel=1, note=54, velocity=64, time=76),
    Message('note_on', channel=1, note=56, velocity=82, time=52),
    Message('note_off', channel=1, note=56, velocity=64, time=80),
    Message('note_on', channel=1, note=54, velocity=71, time=32),
    Message('note_off', channel=1, note=54, velocity=64, time=66),
    Message('note_on', channel=1, note=56, velocity=87, time=55),
    Message('note_off', channel=1, note=56, velocity=64, time=84),
    Message('note_on', channel=1, note=54, velocity=62, time=33),
    Message('note_off', channel=1, note=54, velocity=64, time=63),
    Message('note_on', channel=1, note=56, velocity=87, time=57),
    Message('note_off', channel=1, note=56, velocity=64, time=102),
    Message('note_on', channel=1, note=54, velocity=102, time=26),
    Message('note_off', channel=1, note=54, velocity=64, time=73),
    Message('note_on', channel=1, note=56, velocity=87, time=40),
    Message('note_off', channel=1, note=56, velocity=64, time=87),
    Message('note_on', channel=1, note=54, velocity=107, time=31),
    Message('note_off', channel=1, note=54, velocity=64, time=105),
    Message('note_on', channel=1, note=56, velocity=82, time=17),
    Message('note_off', channel=1, note=56, velocity=64, time=90),
    Message('note_on', channel=1, note=54, velocity=73, time=30),
    Message('note_off', channel=1, note=54, velocity=64, time=90),
    Message('note_on', channel=1, note=56, velocity=87, time=30),
    Message('note_off', channel=1, note=56, velocity=64, time=89),
    Message('note_on', channel=1, note=58, velocity=107, time=31),
    Message('note_on', channel=1, note=56, velocity=82, time=121),
    Message('note_off', channel=1, note=58, velocity=64, time=3),
    Message('note_off', channel=1, note=56, velocity=64, time=93),
    Message('note_on', channel=1, note=54, velocity=99, time=22),
    Message('note_off', channel=1, note=54, velocity=64, time=114),
    Message('note_on', channel=1, note=56, velocity=82, time=6),
    Message('note_off', channel=1, note=56, velocity=64, time=82),
    Message('note_on', channel=1, note=54, velocity=82, time=38),
    Message('note_off', channel=1, note=54, velocity=64, time=49),
    Message('note_on', channel=1, note=56, velocity=78, time=71),
    Message('note_off', channel=1, note=56, velocity=64, time=91),
    Message('note_on', channel=1, note=54, velocity=88, time=30),
    Message('note_off', channel=1, note=54, velocity=64, time=89),
    Message('note_on', channel=1, note=56, velocity=82, time=31),
    Message('note_off', channel=1, note=56, velocity=64, time=91),
    Message('note_on', channel=1, note=54, velocity=96, time=27),
    Message('note_off', channel=1, note=54, velocity=64, time=91),
    Message('note_on', channel=1, note=56, velocity=82, time=30),
    Message('note_off', channel=1, note=56, velocity=64, time=93),
    Message('note_on', channel=1, note=54, velocity=99, time=28),
    Message('note_off', channel=1, note=54, velocity=64, time=93),
    Message('note_on', channel=1, note=56, velocity=82, time=28),
    Message('note_off', channel=1, note=56, velocity=64, time=82),
    Message('note_on', channel=1, note=54, velocity=102, time=36),
    Message('note_off', channel=1, note=54, velocity=64, time=106),
    Message('note_on', channel=1, note=56, velocity=78, time=14),
    Message('note_off', channel=1, note=56, velocity=64, time=88),
    Message('note_on', channel=1, note=54, velocity=44, time=32),
    Message('note_off', channel=1, note=54, velocity=64, time=58),
    Message('note_on', channel=1, note=56, velocity=82, time=64),
    Message('note_off', channel=1, note=56, velocity=64, time=88),
    Message('note_on', channel=1, note=61, velocity=87, time=32),
    Message('note_on', channel=1, note=48, velocity=82, time=1),
    Message('note_off', channel=1, note=61, velocity=64, time=82),
    Message('note_off', channel=1, note=48, velocity=64, time=4),
    Message('note_on', channel=1, note=56, velocity=82, time=31),
    Message('note_off', channel=1, note=56, velocity=64, time=89),
    Message('note_on', channel=1, note=60, velocity=121, time=30),
    Message('note_off', channel=1, note=60, velocity=64, time=94),
    Message('note_on', channel=1, note=56, velocity=82, time=28),
    Message('note_off', channel=1, note=56, velocity=64, time=88),
    Message('note_on', channel=1, note=59, velocity=119, time=32),
    Message('note_off', channel=1, note=59, velocity=64, time=69),
    Message('note_on', channel=1, note=56, velocity=82, time=51),
    Message('note_off', channel=1, note=56, velocity=64, time=86),
    Message('note_on', channel=1, note=69, velocity=96, time=34),
    Message('note_on', channel=1, note=47, velocity=96, time=1),
    Message('note_off', channel=1, note=69, velocity=64, time=88),
    Message('note_off', channel=1, note=47, velocity=64, time=1),
    Message('note_on', channel=1, note=58, velocity=123, time=30),
    Message('note_off', channel=1, note=58, velocity=64, time=125),
    Message('note_on', channel=1, note=58, velocity=101, time=259),
    Message('note_off', channel=1, note=58, velocity=64, time=31),
    Message('note_on', channel=1, note=63, velocity=127, time=66),
    Message('note_on', channel=1, note=49, velocity=127, time=0),
    Message('note_off', channel=1, note=63, velocity=64, time=84),
    Message('note_off', channel=1, note=49, velocity=64, time=24),
    Message('note_on', channel=1, note=58, velocity=127, time=275),
    Message('note_off', channel=1, note=58, velocity=64, time=49),
    Message('note_on', channel=1, note=56, velocity=120, time=48),
    Message('note_off', channel=1, note=56, velocity=64, time=97),
    Message('note_on', channel=1, note=58, velocity=112, time=288),
    Message('note_off', channel=1, note=58, velocity=64, time=25),
    Message('note_on', channel=1, note=64, velocity=108, time=68),
    Message('note_on', channel=1, note=49, velocity=127, time=1),
    Message('note_off', channel=1, note=64, velocity=64, time=85),
    Message('note_off', channel=1, note=49, velocity=64, time=3),
    Message('note_on', channel=1, note=67, velocity=127, time=301),
    Message('note_on', channel=1, note=48, velocity=127, time=0),
    Message('note_off', channel=1, note=67, velocity=64, time=31),
    Message('note_off', channel=1, note=48, velocity=64, time=60),
    Message('note_on', channel=1, note=63, velocity=123, time=240),
    Message('note_off', channel=1, note=63, velocity=64, time=27),
    Message('note_on', channel=1, note=50, velocity=127, time=212),
    Message('note_on', channel=1, note=61, velocity=101, time=1),
    Message('note_off', channel=1, note=61, velocity=64, time=2),
    Message('note_on', channel=1, note=64, velocity=112, time=0),
    Message('note_off', channel=1, note=64, velocity=64, time=0),
    Message('note_off', channel=1, note=50, velocity=64, time=2),
    Message('note_on', channel=1, note=50, velocity=65, time=146),
    Message('note_on', channel=1, note=63, velocity=127, time=2),
    Message('note_off', channel=1, note=50, velocity=64, time=50),
    Message('note_on', channel=1, note=56, velocity=127, time=36),
    Message('note_off', channel=1, note=56, velocity=64, time=3),
    Message('note_off', channel=1, note=63, velocity=64, time=3),
    Message('note_on', channel=1, note=63, velocity=127, time=235),
    Message('note_off', channel=1, note=63, velocity=64, time=97),
    Message('note_on', channel=1, note=56, velocity=94, time=143),
    Message('note_off', channel=1, note=56, velocity=64, time=3),
    Message('note_on', channel=1, note=50, velocity=127, time=150),
    Message('note_on', channel=1, note=63, velocity=127, time=1),
    Message('note_on', channel=1, note=56, velocity=109, time=0),
    Message('note_off', channel=1, note=63, velocity=64, time=54),
    Message('note_off', channel=1, note=50, velocity=64, time=3),
    Message('note_off', channel=1, note=56, velocity=64, time=10),
    Message('note_on', channel=1, note=50, velocity=74, time=175),
    Message('note_off', channel=1, note=50, velocity=64, time=1),
    Message('note_on', channel=1, note=63, velocity=127, time=84),
    Message('note_on', channel=1, note=56, velocity=127, time=2),
    Message('note_off', channel=1, note=63, velocity=64, time=4),
    Message('note_off', channel=1, note=56, velocity=64, time=4),
    Message('note_on', channel=1, note=63, velocity=127, time=144),
    Message('note_off', channel=1, note=63, velocity=64, time=2),
    Message('note_on', channel=1, note=50, velocity=120, time=0),
    Message('note_off', channel=1, note=50, velocity=64, time=61),
    Message('note_on', channel=1, note=63, velocity=106, time=23),
    Message('note_off', channel=1, note=63, velocity=64, time=78),
    Message('note_on', channel=1, note=50, velocity=57, time=73),
    Message('note_off', channel=1, note=50, velocity=64, time=2),
    Message('note_on', channel=1, note=56, velocity=127, time=87),
    Message('note_on', channel=1, note=63, velocity=127, time=0),
    Message('note_off', channel=1, note=63, velocity=64, time=14),
    Message('note_off', channel=1, note=56, velocity=64, time=81),
    Message('note_on', channel=1, note=63, velocity=123, time=57),
    Message('note_off', channel=1, note=63, velocity=64, time=1),
    Message('note_on', channel=1, note=50, velocity=97, time=0),
    Message('note_off', channel=1, note=50, velocity=64, time=4),
    Message('note_on', channel=1, note=63, velocity=112, time=88),
    Message('note_off', channel=1, note=63, velocity=64, time=46),
    Message('note_on', channel=1, note=50, velocity=53, time=100),
    Message('note_off', channel=1, note=50, velocity=64, time=6),
    Message('note_on', channel=1, note=56, velocity=127, time=86),
    Message('note_on', channel=1, note=63, velocity=127, time=1),
    Message('note_off', channel=1, note=63, velocity=64, time=12),
    Message('note_off', channel=1, note=56, velocity=64, time=63),
    Message('note_on', channel=1, note=50, velocity=83, time=73),
    Message('note_on', channel=1, note=63, velocity=117, time=0),
    Message('note_off', channel=1, note=50, velocity=64, time=4),
    Message('note_off', channel=1, note=63, velocity=64, time=0),
    Message('note_on', channel=1, note=63, velocity=117, time=84),
    Message('note_off', channel=1, note=63, velocity=64, time=16),
    Message('note_on', channel=1, note=50, velocity=73, time=138),
    Message('note_on', channel=1, note=52, velocity=69, time=0),
    Message('note_off', channel=1, note=52, velocity=64, time=31),
    Message('note_off', channel=1, note=50, velocity=64, time=9),
    Message('note_on', channel=1, note=56, velocity=127, time=48),
    Message('note_on', channel=1, note=63, velocity=127, time=1),
    Message('note_off', channel=1, note=63, velocity=64, time=7),
    Message('note_off', channel=1, note=56, velocity=64, time=55),
    Message('note_on', channel=1, note=50, velocity=96, time=87),
    Message('note_on', channel=1, note=63, velocity=117, time=0),
    Message('note_off', channel=1, note=50, velocity=64, time=1),
    Message('note_off', channel=1, note=63, velocity=64, time=0),
    Message('note_on', channel=1, note=63, velocity=117, time=87),
    Message('note_off', channel=1, note=63, velocity=64, time=20),
    Message('note_on', channel=1, note=50, velocity=91, time=106),
    Message('note_off', channel=1, note=50, velocity=64, time=50),
    Message('note_on', channel=1, note=52, velocity=81, time=3),
    Message('note_off', channel=1, note=52, velocity=64, time=12),
    Message('note_on', channel=1, note=56, velocity=127, time=50),
    Message('note_on', channel=1, note=63, velocity=123, time=3),
    Message('note_off', channel=1, note=56, velocity=64, time=4),
    Message('note_off', channel=1, note=63, velocity=64, time=15),
    Message('note_on', channel=1, note=69, velocity=112, time=134),
    Message('note_on', channel=1, note=48, velocity=108, time=2),
    Message('note_on', channel=1, note=67, velocity=110, time=0),
    Message('note_off', channel=1, note=67, velocity=64, time=0),
    Message('note_off', channel=1, note=69, velocity=64, time=3),
    Message('note_off', channel=1, note=48, velocity=64, time=34),
    Message('note_on', channel=1, note=61, velocity=89, time=43),
    Message('note_on', channel=1, note=50, velocity=94, time=1),
    Message('note_off', channel=1, note=50, velocity=64, time=1),
    Message('note_off', channel=1, note=61, velocity=64, time=6),
    Message('note_on', channel=1, note=50, velocity=101, time=73),
    Message('note_off', channel=1, note=50, velocity=64, time=16),
    Message('note_on', channel=1, note=40, velocity=108, time=154),
    Message('note_on', channel=1, note=61, velocity=65, time=1),
    Message('note_off', channel=1, note=61, velocity=64, time=2),
    Message('note_off', channel=1, note=40, velocity=64, time=7),
    Message('note_on', channel=1, note=50, velocity=123, time=131),
    Message('note_on', channel=1, note=61, velocity=117, time=0),
    Message('note_on', channel=1, note=69, velocity=117, time=2),
    Message('note_on', channel=1, note=67, velocity=117, time=0),
    Message('note_off', channel=1, note=67, velocity=64, time=2),
    Message('note_off', channel=1, note=69, velocity=64, time=8),
    Message('note_off', channel=1, note=50, velocity=64, time=1),
    Message('note_off', channel=1, note=61, velocity=64, time=44),
    Message('note_on', channel=1, note=56, velocity=120, time=272),
    Message('note_off', channel=1, note=56, velocity=64, time=8),
    Message('note_on', channel=1, note=63, velocity=127, time=143),
    Message('note_on', channel=1, note=62, velocity=120, time=3),
    Message('note_off', channel=1, note=62, velocity=64, time=3),
    Message('note_on', channel=1, note=56, velocity=89, time=83),
    Message('note_on', channel=1, note=50, velocity=108, time=3),
    Message('note_off', channel=1, note=50, velocity=64, time=5),
    Message('note_off', channel=1, note=63, velocity=64, time=3),
    Message('note_off', channel=1, note=56, velocity=64, time=33),
    Message('note_on', channel=1, note=50, velocity=68, time=6),
    Message('note_off', channel=1, note=50, velocity=64, time=3),
    Message('note_on', channel=1, note=50, velocity=52, time=48),
    Message('note_off', channel=1, note=50, velocity=64, time=1),
    Message('note_on', channel=1, note=59, velocity=109, time=49),
    Message('note_off', channel=1, note=59, velocity=64, time=3),
    Message('note_on', channel=1, note=56, velocity=126, time=84),
    Message('note_on', channel=1, note=63, velocity=98, time=2),
    Message('note_off', channel=1, note=63, velocity=64, time=20),
    Message('note_off', channel=1, note=56, velocity=64, time=13),
    Message('note_on', channel=1, note=48, velocity=94, time=37),
    Message('note_off', channel=1, note=48, velocity=64, time=19),
    Message('note_on', channel=1, note=52, velocity=122, time=62),
    Message('note_on', channel=1, note=64, velocity=117, time=4),
    Message('note_off', channel=1, note=64, velocity=64, time=2),
    Message('note_off', channel=1, note=52, velocity=64, time=47),
    Message('note_on', channel=1, note=63, velocity=79, time=35),
    Message('note_off', channel=1, note=63, velocity=64, time=68),
    Message('note_on', channel=1, note=50, velocity=74, time=84),
    Message('note_off', channel=1, note=50, velocity=64, time=2),
    Message('note_on', channel=1, note=56, velocity=127, time=87),
    Message('note_on', channel=1, note=63, velocity=123, time=2),
    Message('note_off', channel=1, note=63, velocity=64, time=48),
    Message('note_off', channel=1, note=56, velocity=64, time=9),
    Message('note_on', channel=1, note=55, velocity=127, time=91),
    Message('note_on', channel=1, note=65, velocity=117, time=2),
    Message('note_off', channel=1, note=65, velocity=64, time=63),
    Message('note_off', channel=1, note=55, velocity=64, time=132),
    Message('note_on', channel=1, note=58, velocity=106, time=45),
    Message('note_on', channel=1, note=53, velocity=106, time=0),
    Message('note_off', channel=1, note=58, velocity=64, time=0),
    Message('note_off', channel=1, note=53, velocity=64, time=3),
    Message('note_on', channel=1, note=56, velocity=92, time=83),
    Message('note_off', channel=1, note=56, velocity=64, time=2),
    Message('note_on', channel=1, note=67, velocity=127, time=151),
    Message('note_on', channel=1, note=50, velocity=122, time=2),
    Message('note_off', channel=1, note=50, velocity=64, time=23),
    Message('note_on', channel=1, note=56, velocity=89, time=63),
    Message('note_off', channel=1, note=67, velocity=64, time=50),
    Message('note_off', channel=1, note=56, velocity=64, time=16),
    Message('note_on', channel=1, note=59, velocity=102, time=86),
    Message('note_off', channel=1, note=59, velocity=64, time=3),
    Message('note_on', channel=1, note=63, velocity=127, time=86),
    Message('note_on', channel=1, note=56, velocity=127, time=0),
    Message('note_off', channel=1, note=63, velocity=64, time=46),
    Message('note_off', channel=1, note=56, velocity=64, time=2),
    Message('note_on', channel=1, note=50, velocity=70, time=30),
    Message('note_off', channel=1, note=50, velocity=64, time=25),
    Message('note_on', channel=1, note=63, velocity=103, time=62),
    Message('note_off', channel=1, note=63, velocity=64, time=11),
    Message('note_on', channel=1, note=63, velocity=124, time=65),
    Message('note_off', channel=1, note=63, velocity=64, time=10),
    Message('note_on', channel=1, note=60, velocity=127, time=140),
    Message('note_off', channel=1, note=60, velocity=64, time=31),
    Message('note_on', channel=1, note=50, velocity=71, time=59),
    Message('note_off', channel=1, note=50, velocity=64, time=2),
    Message('note_on', channel=1, note=50, velocity=57, time=50),
    Message('note_off', channel=1, note=50, velocity=64, time=4),
    Message('note_on', channel=1, note=50, velocity=46, time=50),
    Message('note_off', channel=1, note=50, velocity=64, time=2),
    Message('note_on', channel=1, note=52, velocity=77, time=42),
    Message('note_off', channel=1, note=52, velocity=64, time=3),
    Message('note_on', channel=1, note=57, velocity=127, time=0),
    Message('note_off', channel=1, note=57, velocity=64, time=29),
    Message('note_on', channel=1, note=50, velocity=88, time=58),
    Message('note_on', channel=1, note=52, velocity=102, time=1),
    Message('note_off', channel=1, note=52, velocity=64, time=1),
    Message('note_off', channel=1, note=50, velocity=64, time=15),
    Message('note_on', channel=1, note=71, velocity=127, time=152),
    Message('note_on', channel=1, note=48, velocity=112, time=0),
    Message('note_off', channel=1, note=71, velocity=64, time=4),
    Message('note_off', channel=1, note=48, velocity=64, time=43),
    Message('note_on', channel=1, note=58, velocity=72, time=1944),
    Message('note_off', channel=1, note=58, velocity=64, time=294),
    Message('note_on', channel=1, note=56, velocity=65, time=184),
    Message('note_on', channel=1, note=54, velocity=76, time=241),
    Message('note_off', channel=1, note=56, velocity=64, time=26),
    Message('note_off', channel=1, note=54, velocity=64, time=122),
    Message('note_on', channel=1, note=54, velocity=60, time=332),
    Message('note_off', channel=1, note=54, velocity=64, time=174),
    Message('note_on', channel=1, note=54, velocity=78, time=307),
    Message('note_off', channel=1, note=54, velocity=64, time=299),
    Message('note_on', channel=1, note=56, velocity=10, time=93),
    Message('note_on', channel=1, note=54, velocity=78, time=88),
    Message('note_off', channel=1, note=56, velocity=64, time=117),
    Message('note_off', channel=1, note=54, velocity=64, time=159),
    Message('note_on', channel=1, note=54, velocity=66, time=208),
    Message('note_on', channel=1, note=56, velocity=87, time=379),
    Message('note_off', channel=1, note=54, velocity=64, time=31),
    Message('note_on', channel=1, note=54, velocity=58, time=69),
    Message('note_off', channel=1, note=56, velocity=64, time=33),
    Message('note_off', channel=1, note=54, velocity=64, time=136),
    Message('note_on', channel=1, note=54, velocity=35, time=67),
    Message('note_off', channel=1, note=54, velocity=64, time=126),
    Message('note_on', channel=1, note=54, velocity=22, time=114),
    Message('note_on', channel=1, note=56, velocity=87, time=143),
    Message('note_off', channel=1, note=54, velocity=64, time=13),
    Message('note_on', channel=1, note=54, velocity=49, time=94),
    Message('note_off', channel=1, note=56, velocity=64, time=102),
    Message('note_off', channel=1, note=54, velocity=64, time=54),
    Message('note_on', channel=1, note=54, velocity=10, time=85),
    Message('note_off', channel=1, note=54, velocity=64, time=39),
    Message('note_on', channel=1, note=54, velocity=1, time=194),
    Message('note_off', channel=1, note=54, velocity=64, time=96),
    Message('note_on', channel=1, note=56, velocity=87, time=44),
    Message('note_on', channel=1, note=54, velocity=61, time=96),
    Message('note_off', channel=1, note=56, velocity=64, time=86),
    Message('note_off', channel=1, note=54, velocity=64, time=68),
    Message('note_on', channel=1, note=58, velocity=76, time=86),
    Message('note_off', channel=1, note=58, velocity=64, time=269),
    Message('note_on', channel=1, note=56, velocity=92, time=451),
    Message('note_off', channel=1, note=56, velocity=64, time=207),
    Message('note_on', channel=1, note=54, velocity=1, time=33),
    Message('note_on', channel=1, note=56, velocity=75, time=143),
    Message('note_off', channel=1, note=54, velocity=64, time=17),
    Message('note_on', channel=1, note=54, velocity=45, time=80),
    Message('note_off', channel=1, note=56, velocity=64, time=49),
    Message('note_off', channel=1, note=54, velocity=64, time=115),
    Message('note_on', channel=1, note=56, velocity=78, time=75),
    Message('note_on', channel=1, note=54, velocity=68, time=242),
    Message('note_off', channel=1, note=56, velocity=64, time=30),
    Message('note_off', channel=1, note=54, velocity=64, time=209),
    Message('note_on', channel=1, note=56, velocity=76, time=241),
    Message('note_off', channel=1, note=56, velocity=64, time=122),
    Message('note_on', channel=1, note=54, velocity=54, time=21),
    Message('note_on', channel=1, note=56, velocity=61, time=96),
    Message('note_off', channel=1, note=54, velocity=64, time=9),
    Message('note_off', channel=1, note=56, velocity=64, time=81),
    Message('note_on', channel=1, note=54, velocity=73, time=53),
    Message('note_on', channel=1, note=56, velocity=91, time=97),
    Message('note_off', channel=1, note=54, velocity=64, time=43),
    Message('note_off', channel=1, note=56, velocity=64, time=513),
    Message('note_on', channel=1, note=58, velocity=48, time=309),
    Message('note_on', channel=1, note=56, velocity=102, time=97),
    Message('note_off', channel=1, note=58, velocity=64, time=26),
    Message('note_on', channel=1, note=54, velocity=106, time=211),
    Message('note_off', channel=1, note=56, velocity=64, time=24),
    Message('note_off', channel=1, note=54, velocity=64, time=216),
    Message('note_on', channel=1, note=54, velocity=106, time=242),
    Message('note_on', channel=1, note=56, velocity=76, time=145),
    Message('note_off', channel=1, note=54, velocity=64, time=93),
    Message('note_on', channel=1, note=50, velocity=119, time=1),
    Message('note_off', channel=1, note=56, velocity=64, time=92),
    Message('note_on', channel=1, note=48, velocity=64, time=64),
    Message('note_off', channel=1, note=50, velocity=64, time=21),
    Message('note_on', channel=1, note=54, velocity=106, time=62),
    Message('note_off', channel=1, note=48, velocity=64, time=94),
    Message('note_off', channel=1, note=54, velocity=64, time=146),
    Message('note_on', channel=1, note=54, velocity=78, time=241),
    Message('note_off', channel=1, note=54, velocity=64, time=64),
    Message('note_on', channel=1, note=54, velocity=105, time=320),
    Message('note_off', channel=1, note=54, velocity=64, time=198),
    Message('note_on', channel=1, note=54, velocity=85, time=138),
    Message('note_off', channel=1, note=54, velocity=64, time=87),
    Message('note_on', channel=1, note=50, velocity=98, time=153),
    Message('note_on', channel=1, note=54, velocity=105, time=150),
    Message('note_off', channel=1, note=50, velocity=64, time=29),
    Message('note_on', channel=1, note=50, velocity=117, time=61),
    Message('note_on', channel=1, note=64, velocity=96, time=1),
    Message('note_off', channel=1, note=50, velocity=64, time=51),
    Message('note_off', channel=1, note=64, velocity=64, time=0),
    Message('note_off', channel=1, note=54, velocity=64, time=27),
    Message('note_on', channel=1, note=50, velocity=117, time=73),
    Message('note_off', channel=1, note=50, velocity=64, time=43),
    Message('note_on', channel=1, note=48, velocity=117, time=45),
    Message('note_off', channel=1, note=48, velocity=64, time=51),
    Message('note_on', channel=1, note=56, velocity=105, time=94),
    Message('note_off', channel=1, note=56, velocity=64, time=95),
    Message('note_on', channel=1, note=67, velocity=104, time=2),
    Message('note_off', channel=1, note=67, velocity=64, time=215),
    Message('note_on', channel=1, note=58, velocity=117, time=24),
    Message('note_off', channel=1, note=58, velocity=64, time=81),
    Message('note_on', channel=1, note=61, velocity=97, time=403),
    Message('note_off', channel=1, note=61, velocity=64, time=148),
    Message('note_on', channel=1, note=56, velocity=14, time=87),
    Message('note_off', channel=1, note=56, velocity=64, time=28),
    Message('note_on', channel=1, note=58, velocity=65, time=116),
    Message('note_off', channel=1, note=58, velocity=64, time=55),
    Message('note_on', channel=1, note=69, velocity=12, time=5275),
    Message('note_off', channel=1, note=69, velocity=64, time=41),
    Message('note_on', channel=1, note=69, velocity=14, time=26),
    Message('note_off', channel=1, note=69, velocity=64, time=41),
    Message('note_on', channel=1, note=69, velocity=15, time=28),
    Message('note_off', channel=1, note=69, velocity=64, time=41),
    Message('note_on', channel=1, note=69, velocity=17, time=27),
    Message('note_off', channel=1, note=69, velocity=64, time=41),
    Message('note_on', channel=1, note=69, velocity=18, time=20),
    Message('note_off', channel=1, note=69, velocity=64, time=42),
    Message('note_on', channel=1, note=69, velocity=20, time=34),
    Message('note_off', channel=1, note=69, velocity=64, time=33),
    Message('note_on', channel=1, note=69, velocity=21, time=26),
    Message('note_off', channel=1, note=69, velocity=64, time=40),
    Message('note_on', channel=1, note=69, velocity=22, time=28),
    Message('note_off', channel=1, note=69, velocity=64, time=40),
    Message('note_on', channel=1, note=69, velocity=24, time=27),
    Message('note_off', channel=1, note=69, velocity=64, time=29),
    Message('note_on', channel=1, note=69, velocity=25, time=43),
    Message('note_off', channel=1, note=69, velocity=64, time=34),
    Message('note_on', channel=1, note=69, velocity=27, time=28),
    Message('note_off', channel=1, note=69, velocity=64, time=40),
    Message('note_on', channel=1, note=69, velocity=28, time=20),
    Message('note_off', channel=1, note=69, velocity=64, time=42),
    Message('note_on', channel=1, note=69, velocity=30, time=27),
    Message('note_off', channel=1, note=69, velocity=64, time=41),
    Message('note_on', channel=1, note=69, velocity=31, time=25),
    Message('note_off', channel=1, note=69, velocity=64, time=48),
    Message('note_on', channel=1, note=69, velocity=33, time=30),
    Message('note_off', channel=1, note=69, velocity=64, time=31),
    Message('note_on', channel=1, note=69, velocity=34, time=26),
    Message('note_off', channel=1, note=69, velocity=64, time=30),
    Message('note_on', channel=1, note=69, velocity=36, time=26),
    Message('note_off', channel=1, note=69, velocity=64, time=40),
    Message('note_on', channel=1, note=69, velocity=43, time=28),
    Message('note_off', channel=1, note=69, velocity=64, time=41),
    Message('note_on', channel=1, note=69, velocity=44, time=20),
    Message('note_off', channel=1, note=69, velocity=64, time=41),
    Message('note_on', channel=1, note=69, velocity=51, time=28),
    Message('note_on', channel=1, note=69, velocity=59, time=66),
    Message('note_on', channel=1, note=69, velocity=66, time=69),
    Message('note_off', channel=1, note=69, velocity=64, time=63),
    Message('note_on', channel=1, note=69, velocity=75, time=3),
    Message('note_on', channel=1, note=69, velocity=80, time=57),
    Message('note_off', channel=1, note=69, velocity=64, time=5),
    Message('note_on', channel=1, note=69, velocity=102, time=22),
    Message('note_off', channel=1, note=69, velocity=64, time=42),
    Message('note_off', channel=1, note=69, velocity=64, time=55),
    Message('note_off', channel=1, note=69, velocity=64, time=55),
    Message('note_on', channel=1, note=69, velocity=73, time=15),
    Message('note_off', channel=1, note=69, velocity=64, time=4),
    Message('note_off', channel=1, note=69, velocity=64, time=15),
    Message('note_on', channel=1, note=69, velocity=59, time=117),
    Message('note_off', channel=1, note=69, velocity=64, time=11),
    Message('note_on', channel=1, note=69, velocity=52, time=113),
    Message('note_off', channel=1, note=69, velocity=64, time=77),
    Message('note_on', channel=1, note=69, velocity=48, time=70),
    Message('note_off', channel=1, note=69, velocity=64, time=84),
    Message('note_on', channel=1, note=69, velocity=44, time=54),
    Message('note_off', channel=1, note=69, velocity=64, time=77),
    Message('note_on', channel=1, note=69, velocity=41, time=48),
    Message('note_off', channel=1, note=69, velocity=64, time=79),
    Message('note_on', channel=1, note=69, velocity=37, time=68),
    Message('note_off', channel=1, note=69, velocity=64, time=84),
    Message('note_on', channel=1, note=69, velocity=24, time=232),
    Message('note_off', channel=1, note=69, velocity=64, time=42),
    Message('note_on', channel=1, note=69, velocity=24, time=27),
    Message('note_off', channel=1, note=69, velocity=64, time=40),
    Message('note_on', channel=1, note=69, velocity=25, time=28),
    Message('note_off', channel=1, note=69, velocity=64, time=41),
    Message('note_on', channel=1, note=69, velocity=25, time=28),
    Message('note_off', channel=1, note=69, velocity=64, time=40),
    Message('note_on', channel=1, note=69, velocity=26, time=21),
    Message('note_off', channel=1, note=69, velocity=64, time=40),
    Message('note_on', channel=1, note=69, velocity=26, time=27),
    Message('note_off', channel=1, note=69, velocity=64, time=41),
    Message('note_on', channel=1, note=69, velocity=27, time=27),
    Message('note_off', channel=1, note=69, velocity=64, time=39),
    Message('note_on', channel=1, note=69, velocity=27, time=29),
    Message('note_off', channel=1, note=69, velocity=64, time=44),
    Message('note_on', channel=1, note=69, velocity=28, time=24),
    Message('note_off', channel=1, note=69, velocity=64, time=30),
    Message('note_on', channel=1, note=69, velocity=28, time=35),
    Message('note_off', channel=1, note=69, velocity=64, time=39),
    Message('note_on', channel=1, note=69, velocity=29, time=28),
    Message('note_off', channel=1, note=69, velocity=64, time=42),
    Message('note_on', channel=1, note=69, velocity=29, time=19),
    Message('note_off', channel=1, note=69, velocity=64, time=48),
    Message('note_on', channel=1, note=69, velocity=30, time=21),
    Message('note_off', channel=1, note=69, velocity=64, time=42),
    Message('note_on', channel=1, note=69, velocity=30, time=24),
    Message('note_off', channel=1, note=69, velocity=64, time=40),
    Message('note_on', channel=1, note=69, velocity=34, time=28),
    Message('note_off', channel=1, note=69, velocity=64, time=41),
    Message('note_on', channel=1, note=69, velocity=37, time=26),
    Message('note_off', channel=1, note=69, velocity=64, time=29),
    Message('note_on', channel=1, note=69, velocity=39, time=25),
    Message('note_off', channel=1, note=69, velocity=64, time=42),
    Message('note_on', channel=1, note=69, velocity=42, time=28),
    Message('note_off', channel=1, note=69, velocity=64, time=42),
    Message('note_on', channel=1, note=69, velocity=45, time=18),
    Message('note_off', channel=1, note=69, velocity=64, time=40),
    Message('note_on', channel=1, note=69, velocity=48, time=27),
    Message('note_off', channel=1, note=69, velocity=64, time=42),
    Message('note_on', channel=1, note=69, velocity=61, time=31),
    Message('note_off', channel=1, note=69, velocity=64, time=34),
    Message('note_on', channel=1, note=69, velocity=77, time=29),
    Message('note_off', channel=1, note=69, velocity=64, time=39),
    Message('note_on', channel=1, note=69, velocity=92, time=26),
    Message('note_off', channel=1, note=69, velocity=64, time=30),
    Message('note_on', channel=1, note=69, velocity=104, time=22),
    Message('note_off', channel=1, note=69, velocity=64, time=31),
    Message('note_on', channel=1, note=69, velocity=111, time=2),
    Message('note_off', channel=1, note=69, velocity=64, time=22),
    Message('note_on', channel=1, note=69, velocity=32, time=492),
    Message('note_off', channel=1, note=69, velocity=64, time=42),
    Message('note_on', channel=1, note=69, velocity=31, time=27),
    Message('note_off', channel=1, note=69, velocity=64, time=43),
    Message('note_on', channel=1, note=69, velocity=30, time=32),
    Message('note_off', channel=1, note=69, velocity=64, time=33),
    Message('note_on', channel=1, note=69, velocity=28, time=29),
    Message('note_off', channel=1, note=69, velocity=64, time=40),
    Message('note_on', channel=1, note=69, velocity=27, time=19),
    Message('note_off', channel=1, note=69, velocity=64, time=42),
    Message('note_on', channel=1, note=69, velocity=26, time=27),
    Message('note_off', channel=1, note=69, velocity=64, time=51),
    Message('note_on', channel=1, note=69, velocity=24, time=15),
    Message('note_off', channel=1, note=69, velocity=64, time=42),
    Message('note_on', channel=1, note=69, velocity=23, time=31),
    Message('note_off', channel=1, note=69, velocity=64, time=36),
    Message('note_on', channel=1, note=69, velocity=22, time=38),
    Message('note_off', channel=1, note=69, velocity=64, time=42),
    Message('note_on', channel=1, note=69, velocity=20, time=29),
    Message('note_off', channel=1, note=69, velocity=64, time=39),
    Message('note_on', channel=1, note=69, velocity=19, time=30),
    Message('note_off', channel=1, note=69, velocity=64, time=37),
    Message('note_on', channel=1, note=69, velocity=18, time=30),
    Message('note_off', channel=1, note=69, velocity=64, time=39),
    Message('note_on', channel=1, note=69, velocity=17, time=19),
    Message('note_off', channel=1, note=69, velocity=64, time=42),
    Message('note_on', channel=1, note=69, velocity=16, time=26),
    Message('note_off', channel=1, note=69, velocity=64, time=48),
    Message('note_on', channel=1, note=69, velocity=17, time=29),
    Message('note_off', channel=1, note=69, velocity=64, time=31),
    Message('note_on', channel=1, note=69, velocity=18, time=28),
    Message('note_off', channel=1, note=69, velocity=64, time=40),
    Message('note_on', channel=1, note=69, velocity=19, time=26),
    Message('note_off', channel=1, note=69, velocity=64, time=30),
    Message('note_on', channel=1, note=69, velocity=20, time=36),
    Message('note_off', channel=1, note=69, velocity=64, time=47),
    Message('note_on', channel=1, note=69, velocity=21, time=31),
    Message('note_off', channel=1, note=69, velocity=64, time=32),
    Message('note_on', channel=1, note=69, velocity=22, time=21),
    Message('note_off', channel=1, note=69, velocity=64, time=41),
    Message('note_on', channel=1, note=69, velocity=23, time=26),
    Message('note_off', channel=1, note=69, velocity=64, time=41),
    Message('note_on', channel=1, note=69, velocity=24, time=24),
    Message('note_off', channel=1, note=69, velocity=64, time=42),
    Message('note_on', channel=1, note=69, velocity=31, time=27),
    Message('note_off', channel=1, note=69, velocity=64, time=49),
    Message('note_on', channel=1, note=69, velocity=34, time=17),
    Message('note_off', channel=1, note=69, velocity=64, time=31),
    Message('note_on', channel=1, note=69, velocity=36, time=24),
    Message('note_off', channel=1, note=69, velocity=64, time=42),
    Message('note_on', channel=1, note=69, velocity=38, time=28),
    Message('note_off', channel=1, note=69, velocity=64, time=40),
    Message('note_on', channel=1, note=69, velocity=40, time=29),
    Message('note_off', channel=1, note=69, velocity=64, time=32),
    Message('note_on', channel=1, note=69, velocity=43, time=29),
    Message('note_off', channel=1, note=69, velocity=64, time=39),
    Message('note_on', channel=1, note=69, velocity=45, time=25),
    Message('note_off', channel=1, note=69, velocity=64, time=40),
    Message('note_on', channel=1, note=69, velocity=48, time=28),
    Message('note_off', channel=1, note=69, velocity=64, time=40),
    Message('note_on', channel=1, note=69, velocity=50, time=38),
    Message('note_off', channel=1, note=69, velocity=64, time=26),
    Message('note_on', channel=1, note=69, velocity=52, time=16),
    Message('note_off', channel=1, note=69, velocity=64, time=28),
    Message('note_on', channel=1, note=69, velocity=53, time=11),
    Message('note_off', channel=1, note=69, velocity=64, time=18),
    Message('note_on', channel=1, note=54, velocity=75, time=6),
    Message('note_on', channel=1, note=74, velocity=104, time=2),
    Message('control_change', channel=1, control=11, value=95, time=10),
    Message('pitchwheel', channel=1, pitch=6488, time=1),
    Message('control_change', channel=1, control=11, value=95, time=2),
    Message('note_off', channel=1, note=54, velocity=64, time=27),
    Message('pitchwheel', channel=1, pitch=6527, time=32),
    Message('pitchwheel', channel=1, pitch=6525, time=10),
    Message('pitchwheel', channel=1, pitch=6522, time=8),
    Message('pitchwheel', channel=1, pitch=6520, time=13),
    Message('pitchwheel', channel=1, pitch=6517, time=6),
    Message('pitchwheel', channel=1, pitch=6515, time=12),
    Message('pitchwheel', channel=1, pitch=6512, time=11),
    Message('pitchwheel', channel=1, pitch=6510, time=9),
    Message('pitchwheel', channel=1, pitch=6507, time=7),
    Message('pitchwheel', channel=1, pitch=6505, time=12),
    Message('pitchwheel', channel=1, pitch=6502, time=7),
    Message('pitchwheel', channel=1, pitch=6500, time=10),
    Message('pitchwheel', channel=1, pitch=6497, time=14),
    Message('pitchwheel', channel=1, pitch=6495, time=5),
    Message('pitchwheel', channel=1, pitch=6492, time=9),
    Message('pitchwheel', channel=1, pitch=6490, time=20),
    Message('pitchwheel', channel=1, pitch=6488, time=1),
    Message('pitchwheel', channel=1, pitch=6485, time=9),
    Message('note_on', channel=1, note=42, velocity=96, time=3),
    Message('note_on', channel=1, note=56, velocity=73, time=1),
    Message('pitchwheel', channel=1, pitch=6483, time=5),
    Message('note_off', channel=1, note=74, velocity=64, time=9),
    Message('pitchwheel', channel=1, pitch=6480, time=1),
    Message('pitchwheel', channel=1, pitch=6478, time=10),
    Message('pitchwheel', channel=1, pitch=6475, time=9),
    Message('note_off', channel=1, note=56, velocity=64, time=2),
    Message('pitchwheel', channel=1, pitch=6473, time=8),
    Message('pitchwheel', channel=1, pitch=6470, time=9),
    Message('pitchwheel', channel=1, pitch=6468, time=9),
    Message('pitchwheel', channel=1, pitch=6465, time=11),
    Message('pitchwheel', channel=1, pitch=6463, time=8),
    Message('pitchwheel', channel=1, pitch=6460, time=11),
    Message('pitchwheel', channel=1, pitch=6458, time=11),
    Message('pitchwheel', channel=1, pitch=6456, time=7),
    Message('pitchwheel', channel=1, pitch=6453, time=11),
    Message('pitchwheel', channel=1, pitch=6451, time=11),
    Message('pitchwheel', channel=1, pitch=6448, time=8),
    Message('pitchwheel', channel=1, pitch=6446, time=9),
    Message('pitchwheel', channel=1, pitch=6443, time=9),
    Message('pitchwheel', channel=1, pitch=6441, time=10),
    Message('pitchwheel', channel=1, pitch=6438, time=10),
    Message('pitchwheel', channel=1, pitch=6436, time=15),
    Message('pitchwheel', channel=1, pitch=6433, time=5),
    Message('note_off', channel=1, note=42, velocity=64, time=1),
    Message('pitchwheel', channel=1, pitch=6431, time=7),
    Message('pitchwheel', channel=1, pitch=6428, time=18),
    Message('pitchwheel', channel=1, pitch=6426, time=2),
    Message('pitchwheel', channel=1, pitch=6424, time=11),
    Message('note_on', channel=1, note=54, velocity=75, time=5),
    Message('pitchwheel', channel=1, pitch=6421, time=9),
    Message('pitchwheel', channel=1, pitch=6419, time=7),
    Message('pitchwheel', channel=1, pitch=6416, time=6),
    Message('pitchwheel', channel=1, pitch=6414, time=10),
    Message('note_off', channel=1, note=54, velocity=64, time=3),
    Message('pitchwheel', channel=1, pitch=6411, time=10),
    Message('pitchwheel', channel=1, pitch=6409, time=7),
    Message('pitchwheel', channel=1, pitch=6406, time=9),
    Message('pitchwheel', channel=1, pitch=6404, time=9),
    Message('pitchwheel', channel=1, pitch=6401, time=10),
    Message('pitchwheel', channel=1, pitch=6399, time=10),
    Message('pitchwheel', channel=1, pitch=6396, time=10),
    Message('pitchwheel', channel=1, pitch=6394, time=9),
    Message('note_on', channel=1, note=74, velocity=93, time=10),
    Message('pitchwheel', channel=1, pitch=6391, time=3),
    Message('pitchwheel', channel=1, pitch=6389, time=7),
    Message('pitchwheel', channel=1, pitch=6387, time=9),
    Message('pitchwheel', channel=1, pitch=6384, time=10),
    Message('pitchwheel', channel=1, pitch=6382, time=9),
    Message('pitchwheel', channel=1, pitch=6379, time=10),
    Message('pitchwheel', channel=1, pitch=6377, time=9),
    Message('pitchwheel', channel=1, pitch=6374, time=9),
    Message('pitchwheel', channel=1, pitch=6372, time=11),
    Message('pitchwheel', channel=1, pitch=6369, time=9),
    Message('pitchwheel', channel=1, pitch=6367, time=19),
    Message('pitchwheel', channel=1, pitch=6364, time=1),
    Message('pitchwheel', channel=1, pitch=6362, time=9),
    Message('note_on', channel=1, note=56, velocity=73, time=4),
    Message('pitchwheel', channel=1, pitch=6359, time=13),
    Message('pitchwheel', channel=1, pitch=6357, time=4),
    Message('pitchwheel', channel=1, pitch=6355, time=8),
    Message('note_off', channel=1, note=56, velocity=64, time=19),
    Message('pitchwheel', channel=1, pitch=6352, time=0),
    Message('pitchwheel', channel=1, pitch=6350, time=1),
    Message('pitchwheel', channel=1, pitch=6347, time=9),
    Message('pitchwheel', channel=1, pitch=6345, time=9),
    Message('pitchwheel', channel=1, pitch=6342, time=10),
    Message('pitchwheel', channel=1, pitch=6340, time=9),
    Message('pitchwheel', channel=1, pitch=6337, time=9),
    Message('pitchwheel', channel=1, pitch=6335, time=11),
    Message('pitchwheel', channel=1, pitch=6332, time=9),
    Message('note_on', channel=1, note=96, velocity=96, time=10),
    Message('pitchwheel', channel=1, pitch=6330, time=0),
    Message('pitchwheel', channel=1, pitch=6327, time=9),
    Message('note_off', channel=1, note=74, velocity=64, time=28),
    Message('note_on', channel=1, note=54, velocity=75, time=82),
    Message('note_off', channel=1, note=54, velocity=64, time=44),
    Message('note_off', channel=1, note=96, velocity=64, time=34),
    Message('note_on', channel=1, note=74, velocity=92, time=42),
    Message('note_on', channel=1, note=56, velocity=73, time=120),
    Message('note_on', channel=1, note=96, velocity=96, time=0),
    Message('note_off', channel=1, note=56, velocity=64, time=45),
    Message('note_off', channel=1, note=74, velocity=64, time=29),
    Message('note_on', channel=1, note=38, velocity=40, time=69),
    Message('pitchwheel', channel=1, pitch=6678, time=45),
    Message('note_off', channel=1, note=96, velocity=64, time=9),
    Message('note_on', channel=1, note=54, velocity=48, time=43),
    Message('note_on', channel=1, note=74, velocity=40, time=0),
    Message('note_on', channel=1, note=74, velocity=48, time=0),
    Message('note_off', channel=1, note=74, velocity=64, time=29),
    Message('note_on', channel=1, note=74, velocity=50, time=0),
    Message('note_off', channel=1, note=54, velocity=64, time=24),
    Message('note_off', channel=1, note=74, velocity=64, time=5),
    Message('note_on', channel=1, note=74, velocity=61, time=1),
    Message('note_off', channel=1, note=74, velocity=64, time=29),
    Message('note_on', channel=1, note=74, velocity=72, time=2),
    Message('note_off', channel=1, note=74, velocity=64, time=32),
    Message('note_on', channel=1, note=74, velocity=83, time=0),
    Message('note_off', channel=1, note=74, velocity=64, time=27),
    Message('note_on', channel=1, note=74, velocity=94, time=1),
    Message('note_off', channel=1, note=74, velocity=64, time=29),
    Message('note_on', channel=1, note=74, velocity=105, time=0),
    Message('note_off', channel=1, note=74, velocity=64, time=29),
    Message('note_on', channel=1, note=74, velocity=116, time=1),
    Message('note_off', channel=1, note=74, velocity=64, time=31),
    Message('note_on', channel=1, note=61, velocity=95, time=1),
    Message('note_on', channel=1, note=46, velocity=82, time=1),
    Message('note_on', channel=1, note=58, velocity=95, time=0),
    Message('note_off', channel=1, note=74, velocity=64, time=11),
    Message('note_off', channel=1, note=38, velocity=64, time=34),
    Message('pitchwheel', channel=1, pitch=6829, time=45),
    Message('note_off', channel=1, note=61, velocity=64, time=16),
    Message('note_off', channel=1, note=58, velocity=64, time=1),
    Message('note_off', channel=1, note=46, velocity=64, time=39),
    Message('note_on', channel=1, note=54, velocity=56, time=92),
    Message('note_off', channel=1, note=54, velocity=64, time=97),
    Message('note_on', channel=1, note=43, velocity=73, time=24),
    Message('pitchwheel', channel=1, pitch=6729, time=51),
    Message('note_off', channel=1, note=43, velocity=64, time=51),
    Message('note_on', channel=1, note=42, velocity=88, time=17),
    Message('note_on', channel=1, note=54, velocity=60, time=0),
    Message('note_off', channel=1, note=54, velocity=64, time=95),
    Message('note_off', channel=1, note=42, velocity=64, time=107),
    Message('note_on', channel=1, note=54, velocity=56, time=38),
    Message('note_on', channel=1, note=41, velocity=87, time=58),
    Message('note_off', channel=1, note=54, velocity=64, time=3),
    Message('note_off', channel=1, note=41, velocity=64, time=27),
    Message('note_on', channel=1, note=41, velocity=81, time=1),
    Message('note_off', channel=1, note=41, velocity=64, time=30),
    Message('note_on', channel=1, note=41, velocity=75, time=0),
    Message('note_off', channel=1, note=41, velocity=64, time=31),
    Message('note_on', channel=1, note=41, velocity=69, time=0),
    Message('note_off', channel=1, note=41, velocity=64, time=29),
    Message('note_on', channel=1, note=41, velocity=61, time=1),
    Message('note_off', channel=1, note=41, velocity=64, time=29),
    Message('note_on', channel=1, note=41, velocity=55, time=1),
    Message('note_off', channel=1, note=41, velocity=64, time=29),
    Message('note_on', channel=1, note=41, velocity=49, time=1),
    Message('note_on', channel=1, note=57, velocity=86, time=2),
    Message('note_off', channel=1, note=41, velocity=64, time=27),
    Message('note_on', channel=1, note=41, velocity=43, time=0),
    Message('note_off', channel=1, note=41, velocity=64, time=30),
    Message('note_off', channel=1, note=57, velocity=64, time=5),
    Message('note_on', channel=1, note=55, velocity=86, time=57),
    Message('note_on', channel=1, note=41, velocity=40, time=0),
    Message('pitchwheel', channel=1, pitch=6880, time=18),
    Message('note_off', channel=1, note=41, velocity=64, time=11),
    Message('note_on', channel=1, note=41, velocity=48, time=0),
    Message('note_off', channel=1, note=41, velocity=64, time=30),
    Message('note_on', channel=1, note=41, velocity=57, time=0),
    Message('note_off', channel=1, note=55, velocity=64, time=4),
    Message('note_off', channel=1, note=41, velocity=64, time=25),
    Message('note_on', channel=1, note=41, velocity=66, time=1),
    Message('note_off', channel=1, note=41, velocity=64, time=30),
    Message('note_on', channel=1, note=54, velocity=59, time=0),
    Message('note_on', channel=1, note=40, velocity=78, time=0),
    Message('note_on', channel=1, note=56, velocity=59, time=120),
    Message('note_off', channel=1, note=54, velocity=64, time=3),
    Message('note_off', channel=1, note=40, velocity=64, time=1),
    Message('pitchwheel', channel=1, pitch=6426, time=10),
    Message('note_off', channel=1, note=56, velocity=64, time=168),
    Message('pitchwheel', channel=1, pitch=6628, time=124),
    Message('note_on', channel=1, note=56, velocity=55, time=54),
    Message('note_off', channel=1, note=56, velocity=64, time=190),
    Message('note_on', channel=1, note=44, velocity=53, time=20),
    Message('note_off', channel=1, note=44, velocity=64, time=67),
    Message('note_on', channel=1, note=57, velocity=87, time=53),
    Message('note_off', channel=1, note=57, velocity=64, time=30),
    Message('note_on', channel=1, note=54, velocity=71, time=2),
    Message('note_on', channel=1, note=42, velocity=71, time=87),
    Message('note_off', channel=1, note=54, velocity=64, time=54),
    Message('note_on', channel=1, note=54, velocity=40, time=36),
    Message('note_off', channel=1, note=42, velocity=64, time=55),
    Message('pitchwheel', channel=1, pitch=6880, time=35),
    Message('note_off', channel=1, note=54, velocity=64, time=45),
    Message('note_on', channel=1, note=48, velocity=82, time=48),
    Message('note_on', channel=1, note=54, velocity=55, time=0),
    Message('note_off', channel=1, note=54, velocity=64, time=128),
    Message('note_off', channel=1, note=48, velocity=64, time=44),
    Message('note_on', channel=1, note=50, velocity=94, time=5),
    Message('note_on', channel=1, note=58, velocity=77, time=3),
    Message('note_on', channel=1, note=56, velocity=62, time=57),
    Message('note_off', channel=1, note=50, velocity=64, time=17),
    Message('note_off', channel=1, note=56, velocity=64, time=40),
    Message('note_off', channel=1, note=58, velocity=64, time=29),
    Message('note_on', channel=1, note=45, velocity=90, time=35),
    Message('note_off', channel=1, note=45, velocity=64, time=28),
    Message('note_on', channel=1, note=54, velocity=62, time=93),
    Message('note_off', channel=1, note=54, velocity=64, time=53),
    Message('pitchwheel', channel=1, pitch=7233, time=81),
    Message('note_on', channel=1, note=45, velocity=79, time=44),
    Message('note_off', channel=1, note=45, velocity=64, time=60),
    Message('note_on', channel=1, note=54, velocity=71, time=5),
    Message('note_on', channel=1, note=45, velocity=79, time=115),
    Message('note_off', channel=1, note=54, velocity=64, time=6),
    Message('note_off', channel=1, note=45, velocity=64, time=43),
    Message('note_on', channel=1, note=40, velocity=79, time=12),
    Message('note_off', channel=1, note=40, velocity=64, time=56),
    Message('note_on', channel=1, note=54, velocity=69, time=4),
    Message('pitchwheel', channel=1, pitch=6981, time=3),
    Message('pitchwheel', channel=1, pitch=6967, time=8),
    Message('pitchwheel', channel=1, pitch=6954, time=17),
    Message('pitchwheel', channel=1, pitch=6941, time=2),
    Message('note_off', channel=1, note=54, velocity=64, time=63),
    Message('note_on', channel=1, note=56, velocity=88, time=147),
    Message('note_on', channel=1, note=42, velocity=99, time=1),
    Message('note_on', channel=1, note=43, velocity=63, time=119),
    Message('note_off', channel=1, note=43, velocity=64, time=34),
    Message('note_on', channel=1, note=43, velocity=75, time=25),
    Message('note_off', channel=1, note=42, velocity=64, time=6),
    Message('note_off', channel=1, note=43, velocity=64, time=39),
    Message('note_off', channel=1, note=56, velocity=64, time=8),
    Message('note_on', channel=1, note=54, velocity=88, time=9),
    Message('note_on', channel=1, note=42, velocity=99, time=121),
    Message('note_off', channel=1, note=54, velocity=64, time=28),
    Message('note_on', channel=1, note=54, velocity=54, time=92),
    Message('note_off', channel=1, note=42, velocity=64, time=61),
    Message('pitchwheel', channel=1, pitch=7283, time=4),
    Message('note_off', channel=1, note=54, velocity=64, time=57),
    Message('note_on', channel=1, note=44, velocity=81, time=29),
    Message('note_off', channel=1, note=44, velocity=64, time=26),
    Message('note_on', channel=1, note=44, velocity=75, time=0),
    Message('note_off', channel=1, note=44, velocity=64, time=29),
    Message('note_on', channel=1, note=44, velocity=69, time=1),
    Message('note_off', channel=1, note=44, velocity=64, time=31),
    Message('note_on', channel=1, note=44, velocity=61, time=1),
    Message('note_on', channel=1, note=54, velocity=71, time=0),
    Message('note_off', channel=1, note=44, velocity=64, time=29),
    Message('note_on', channel=1, note=44, velocity=55, time=2),
    Message('note_off', channel=1, note=44, velocity=64, time=31),
    Message('note_on', channel=1, note=44, velocity=49, time=0),
    Message('note_off', channel=1, note=44, velocity=64, time=26),
    Message('note_on', channel=1, note=44, velocity=43, time=1),
    Message('note_off', channel=1, note=44, velocity=64, time=31),
    Message('note_on', channel=1, note=57, velocity=87, time=0),
    Message('note_off', channel=1, note=54, velocity=64, time=17),
    Message('note_off', channel=1, note=57, velocity=64, time=15),
    Message('pitchwheel', channel=1, pitch=6678, time=40),
    Message('note_on', channel=1, note=43, velocity=90, time=47),
    Message('note_on', channel=1, note=54, velocity=43, time=0),
    Message('note_off', channel=1, note=43, velocity=64, time=48),
    Message('note_off', channel=1, note=54, velocity=64, time=71),
    Message('note_on', channel=1, note=60, velocity=83, time=63),
    Message('note_on', channel=1, note=54, velocity=58, time=57),
    Message('note_off', channel=1, note=54, velocity=64, time=35),
    Message('note_off', channel=1, note=60, velocity=64, time=25),
    Message('note_on', channel=1, note=59, velocity=83, time=0),
    Message('note_on', channel=1, note=57, velocity=83, time=90),
    Message('note_off', channel=1, note=59, velocity=64, time=36),
    Message('note_on', channel=1, note=56, velocity=69, time=57),
    Message('note_off', channel=1, note=57, velocity=64, time=27),
    Message('pitchwheel', channel=1, pitch=6930, time=66),
    Message('note_off', channel=1, note=56, velocity=64, time=13),
    Message('note_on', channel=1, note=53, velocity=85, time=13),
    Message('note_on', channel=1, note=44, velocity=65, time=1),
    Message('note_off', channel=1, note=53, velocity=64, time=27),
    Message('note_off', channel=1, note=44, velocity=64, time=1),
    Message('note_on', channel=1, note=44, velocity=59, time=0),
    Message('note_off', channel=1, note=44, velocity=64, time=30),
    Message('note_on', channel=1, note=44, velocity=51, time=1),
    Message('note_off', channel=1, note=44, velocity=64, time=31),
    Message('note_on', channel=1, note=44, velocity=45, time=1),
    Message('note_off', channel=1, note=44, velocity=64, time=30),
    Message('note_on', channel=1, note=56, velocity=88, time=0),
    Message('note_on', channel=1, note=42, velocity=77, time=1),
    Message('note_off', channel=1, note=42, velocity=64, time=31),
    Message('note_on', channel=1, note=42, velocity=71, time=0),
    Message('note_off', channel=1, note=42, velocity=64, time=24),
    Message('note_on', channel=1, note=42, velocity=65, time=1),
    Message('note_off', channel=1, note=42, velocity=64, time=34),
    Message('note_on', channel=1, note=42, velocity=59, time=0),
    Message('note_off', channel=1, note=56, velocity=64, time=18),
    Message('note_off', channel=1, note=42, velocity=64, time=8),
    Message('note_on', channel=1, note=42, velocity=51, time=1),
    Message('note_off', channel=1, note=42, velocity=64, time=30),
    Message('note_on', channel=1, note=42, velocity=45, time=2),
    Message('note_off', channel=1, note=42, velocity=64, time=26),
    Message('note_on', channel=1, note=44, velocity=77, time=1),
    Message('note_off', channel=1, note=44, velocity=64, time=33),
    Message('note_on', channel=1, note=44, velocity=71, time=1),
    Message('note_off', channel=1, note=44, velocity=64, time=31),
    Message('note_on', channel=1, note=56, velocity=79, time=1),
    Message('note_on', channel=1, note=44, velocity=65, time=0),
    Message('note_off', channel=1, note=44, velocity=64, time=29),
    Message('note_on', channel=1, note=44, velocity=59, time=2),
    Message('note_off', channel=1, note=44, velocity=64, time=27),
    Message('note_on', channel=1, note=44, velocity=51, time=2),
    Message('pitchwheel', channel=1, pitch=7132, time=23),
    Message('note_off', channel=1, note=44, velocity=64, time=2),
    Message('note_on', channel=1, note=44, velocity=45, time=0),
    Message('note_off', channel=1, note=44, velocity=64, time=30),
    Message('note_on', channel=1, note=48, velocity=82, time=0),
    Message('note_off', channel=1, note=56, velocity=64, time=21),
    Message('note_off', channel=1, note=48, velocity=64, time=63),
    Message('note_on', channel=1, note=54, velocity=69, time=35),
    Message('note_on', channel=1, note=58, velocity=96, time=120),
    Message('note_on', channel=1, note=42, velocity=96, time=0),
    Message('note_off', channel=1, note=54, velocity=64, time=63),
    Message('note_on', channel=1, note=54, velocity=60, time=57),
    Message('note_off', channel=1, note=42, velocity=64, time=45),
    Message('note_off', channel=1, note=58, velocity=64, time=82),
    Message('note_on', channel=1, note=43, velocity=8, time=1),
    Message('note_off', channel=1, note=54, velocity=64, time=10),
    Message('note_off', channel=1, note=43, velocity=64, time=41),
    Message('note_on', channel=1, note=54, velocity=66, time=61),
    Message('note_on', channel=1, note=44, velocity=64, time=0),
    Message('note_on', channel=1, note=62, velocity=81, time=130),
    Message('note_off', channel=1, note=44, velocity=64, time=13),
    Message('note_off', channel=1, note=54, velocity=64, time=3),
    Message('note_on', channel=1, note=43, velocity=59, time=101),
    Message('note_on', channel=1, note=58, velocity=59, time=1),
    Message('pitchwheel', channel=1, pitch=7031, time=1),
    Message('note_off', channel=1, note=62, velocity=64, time=13),
    Message('note_on', channel=1, note=57, velocity=81, time=9),
    Message('note_off', channel=1, note=43, velocity=64, time=34),
    Message('note_on', channel=1, note=43, velocity=49, time=54),
    Message('note_off', channel=1, note=57, velocity=64, time=52),
    Message('note_off', channel=1, note=43, velocity=64, time=8),
    Message('note_off', channel=1, note=58, velocity=64, time=43),
    Message('note_on', channel=1, note=56, velocity=66, time=16),
    Message('note_off', channel=1, note=56, velocity=64, time=101),
    Message('note_on', channel=1, note=57, velocity=82, time=19),
    Message('note_on', channel=1, note=55, velocity=92, time=121),
    Message('note_on', channel=1, note=54, velocity=59, time=1),
    Message('note_off', channel=1, note=57, velocity=64, time=11),
    Message('note_off', channel=1, note=54, velocity=64, time=100),
    Message('note_on', channel=1, note=43, velocity=51, time=9),
    Message('note_on', channel=1, note=40, velocity=75, time=0),
    Message('note_on', channel=1, note=61, velocity=58, time=3),
    Message('note_off', channel=1, note=55, velocity=64, time=6),
    Message('pitchwheel', channel=1, pitch=7636, time=17),
    Message('note_off', channel=1, note=43, velocity=64, time=18),
    Message('note_off', channel=1, note=61, velocity=64, time=57),
    Message('note_off', channel=1, note=40, velocity=64, time=4),
    Message('note_on', channel=1, note=54, velocity=85, time=255),
    Message('note_off', channel=1, note=54, velocity=64, time=107),
    Message('note_on', channel=1, note=53, velocity=104, time=12),
    Message('note_off', channel=1, note=53, velocity=64, time=39),
    Message('note_on', channel=1, note=48, velocity=83, time=20),
    Message('note_on', channel=1, note=54, velocity=88, time=62),
    Message('note_off', channel=1, note=48, velocity=64, time=1),
    Message('pitchwheel', channel=1, pitch=7031, time=102),
    Message('note_off', channel=1, note=54, velocity=64, time=31),
    Message('note_on', channel=1, note=57, velocity=100, time=106),
    Message('note_on', channel=1, note=54, velocity=82, time=0),
    Message('note_off', channel=1, note=54, velocity=64, time=96),
    Message('note_off', channel=1, note=57, velocity=64, time=18),
    Message('note_on', channel=1, note=44, velocity=103, time=125),
    Message('note_on', channel=1, note=54, velocity=88, time=1),
    Message('note_off', channel=1, note=54, velocity=64, time=107),
    Message('note_off', channel=1, note=44, velocity=64, time=13),
    Message('note_on', channel=1, note=52, velocity=77, time=29),
    Message('note_off', channel=1, note=52, velocity=64, time=84),
    Message('note_on', channel=1, note=55, velocity=77, time=6),
    Message('note_on', channel=1, note=56, velocity=85, time=1),
    Message('pitchwheel', channel=1, pitch=7081, time=58),
    Message('note_off', channel=1, note=55, velocity=64, time=26),
    Message('note_on', channel=1, note=47, velocity=85, time=35),
    Message('note_off', channel=1, note=47, velocity=64, time=43),
    Message('note_off', channel=1, note=56, velocity=64, time=63),
    Message('note_on', channel=1, note=42, velocity=104, time=14),
    Message('note_on', channel=1, note=58, velocity=95, time=2),
    Message('note_off', channel=1, note=42, velocity=64, time=42),
    Message('pitchwheel', channel=1, pitch=7535, time=12),
    Message('note_off', channel=1, note=58, velocity=64, time=2),
    Message('note_on', channel=1, note=42, velocity=75, time=123),
    Message('note_off', channel=1, note=42, velocity=64, time=55),
    Message('note_on', channel=1, note=54, velocity=92, time=5),
    Message('note_on', channel=1, note=60, velocity=87, time=59),
    Message('note_off', channel=1, note=60, velocity=64, time=31),
    Message('note_on', channel=1, note=60, velocity=81, time=0),
    Message('note_off', channel=1, note=60, velocity=64, time=31),
    Message('note_on', channel=1, note=60, velocity=75, time=0),
    Message('note_off', channel=1, note=54, velocity=64, time=2),
    Message('note_off', channel=1, note=60, velocity=64, time=27),
    Message('note_on', channel=1, note=60, velocity=69, time=0),
    Message('note_off', channel=1, note=60, velocity=64, time=29),
    Message('note_on', channel=1, note=60, velocity=61, time=1),
    Message('note_off', channel=1, note=60, velocity=64, time=29),
    Message('note_on', channel=1, note=60, velocity=55, time=1),
    Message('note_off', channel=1, note=60, velocity=64, time=29),
    Message('note_on', channel=1, note=57, velocity=87, time=1),
    Message('note_on', channel=1, note=42, velocity=99, time=2),
    Message('note_on', channel=1, note=54, velocity=88, time=0),
    Message('note_off', channel=1, note=57, velocity=64, time=27),
    Message('note_on', channel=1, note=57, velocity=79, time=1),
    Message('note_off', channel=1, note=57, velocity=64, time=30),
    Message('note_on', channel=1, note=57, velocity=72, time=1),
    Message('note_off', channel=1, note=57, velocity=64, time=29),
    Message('note_on', channel=1, note=57, velocity=64, time=0),
    Message('note_off', channel=1, note=54, velocity=64, time=2),
    Message('note_off', channel=1, note=57, velocity=64, time=28),
    Message('note_on', channel=1, note=57, velocity=57, time=1),
    Message('note_off', channel=1, note=42, velocity=64, time=10),
    Message('note_off', channel=1, note=57, velocity=64, time=18),
    Message('note_on', channel=1, note=57, velocity=49, time=1),
    Message('note_off', channel=1, note=57, velocity=64, time=29),
    Message('note_on', channel=1, note=57, velocity=42, time=1),
    Message('note_off', channel=1, note=57, velocity=64, time=29),
    Message('note_on', channel=1, note=57, velocity=35, time=0),
    Message('note_off', channel=1, note=57, velocity=64, time=30),
    Message('note_on', channel=1, note=56, velocity=99, time=2),
    Message('note_on', channel=1, note=91, velocity=95, time=1),
    Message('note_on', channel=1, note=68, velocity=95, time=1),
    Message('note_off', channel=1, note=91, velocity=64, time=42),
    Message('note_off', channel=1, note=68, velocity=64, time=1),
    Message('note_on', channel=1, note=91, velocity=95, time=74),
    Message('note_on', channel=1, note=43, velocity=80, time=1),
    Message('note_on', channel=1, note=68, velocity=95, time=0),
    Message('note_off', channel=1, note=43, velocity=64, time=22),
    Message('note_off', channel=1, note=91, velocity=64, time=26),
    Message('note_off', channel=1, note=68, velocity=64, time=0),
    Message('note_off', channel=1, note=56, velocity=64, time=8),
    Message('note_on', channel=1, note=43, velocity=95, time=1),
    Message('note_off', channel=1, note=43, velocity=64, time=48),
    Message('pitchwheel', channel=1, pitch=7031, time=5),
    Message('note_on', channel=1, note=54, velocity=99, time=8),
    Message('note_on', channel=1, note=42, velocity=102, time=120),
    Message('note_off', channel=1, note=54, velocity=64, time=50),
    Message('note_on', channel=1, note=39, velocity=102, time=10),
    Message('note_on', channel=1, note=54, velocity=62, time=61),
    Message('note_off', channel=1, note=42, velocity=64, time=26),
    Message('note_off', channel=1, note=39, velocity=64, time=60),
    Message('note_off', channel=1, note=54, velocity=64, time=23),
    Message('pitchwheel', channel=1, pitch=7535, time=7),
    Message('note_on', channel=1, note=43, velocity=108, time=4),
    Message('note_off', channel=1, note=43, velocity=64, time=64),
    Message('note_on', channel=1, note=54, velocity=88, time=55),
    Message('note_on', channel=1, note=42, velocity=47, time=1),
    Message('note_off', channel=1, note=54, velocity=64, time=123),
    Message('note_off', channel=1, note=42, velocity=64, time=26),
    Message('note_on', channel=1, note=61, velocity=96, time=91),
    Message('note_on', channel=1, note=55, velocity=87, time=1),
    Message('note_on', channel=1, note=56, velocity=96, time=1),
    Message('note_off', channel=1, note=55, velocity=64, time=31),
    Message('note_on', channel=1, note=43, velocity=67, time=87),
    Message('note_off', channel=1, note=61, velocity=64, time=23),
    Message('note_off', channel=1, note=56, velocity=64, time=0),
    Message('note_off', channel=1, note=43, velocity=64, time=6),
    Message('note_on', channel=1, note=42, velocity=88, time=91),
    Message('note_on', channel=1, note=54, velocity=85, time=1),
    Message('note_off', channel=1, note=42, velocity=64, time=29),
    Message('note_off', channel=1, note=54, velocity=64, time=21),
    Message('note_on', channel=1, note=46, velocity=79, time=70),
    Message('pitchwheel', channel=1, pitch=7787, time=23),
    Message('note_on', channel=1, note=54, velocity=102, time=96),
    Message('note_on', channel=1, note=59, velocity=79, time=2),
    Message('note_off', channel=1, note=46, velocity=64, time=39),
    Message('note_on', channel=1, note=57, velocity=79, time=22),
    Message('note_on', channel=1, note=53, velocity=101, time=57),
    Message('note_off', channel=1, note=54, velocity=64, time=20),
    Message('note_off', channel=1, note=59, velocity=64, time=31),
    Message('note_off', channel=1, note=57, velocity=64, time=54),
    Message('note_off', channel=1, note=53, velocity=64, time=60),
    Message('note_on', channel=1, note=74, velocity=41, time=15),
    Message('note_off', channel=1, note=74, velocity=64, time=30),
    Message('note_on', channel=1, note=74, velocity=50, time=1),
    Message('note_off', channel=1, note=74, velocity=64, time=29),
    Message('note_on', channel=1, note=74, velocity=59, time=1),
    Message('pitchwheel', channel=1, pitch=7485, time=1),
    Message('note_off', channel=1, note=74, velocity=64, time=28),
    Message('note_on', channel=1, note=74, velocity=67, time=0),
    Message('note_off', channel=1, note=74, velocity=64, time=29),
    Message('note_on', channel=1, note=74, velocity=76, time=2),
    Message('note_off', channel=1, note=74, velocity=64, time=28),
    Message('note_on', channel=1, note=74, velocity=85, time=1),
    Message('note_off', channel=1, note=74, velocity=64, time=30),
    Message('note_on', channel=1, note=69, velocity=113, time=2),
    Message('note_on', channel=1, note=56, velocity=113, time=0),
    Message('note_on', channel=1, note=61, velocity=113, time=0),
    Message('note_on', channel=1, note=43, velocity=67, time=118),
    Message('note_off', channel=1, note=43, velocity=64, time=35),
    Message('note_off', channel=1, note=69, velocity=64, time=20),
    Message('note_off', channel=1, note=56, velocity=64, time=1),
    Message('note_off', channel=1, note=61, velocity=64, time=0),
    Message('note_on', channel=1, note=43, velocity=70, time=65),
    Message('note_on', channel=1, note=58, velocity=62, time=1),
    Message('note_off', channel=1, note=43, velocity=64, time=57),
    Message('note_off', channel=1, note=58, velocity=64, time=51),
    Message('note_on', channel=1, note=43, velocity=70, time=70),
    Message('note_off', channel=1, note=43, velocity=64, time=106),
    Message('note_on', channel=1, note=43, velocity=46, time=73),
    Message('note_off', channel=1, note=43, velocity=64, time=89),
    Message('note_on', channel=1, note=58, velocity=79, time=32),
    Message('note_off', channel=1, note=58, velocity=64, time=147),
    Message('note_on', channel=1, note=43, velocity=43, time=31),
    Message('note_off', channel=1, note=43, velocity=64, time=117),
    Message('note_on', channel=1, note=58, velocity=42, time=5),
    Message('note_off', channel=1, note=58, velocity=64, time=39),
    Message('note_on', channel=1, note=43, velocity=39, time=21),
    Message('pitchwheel', channel=1, pitch=7384, time=118),
    Message('note_on', channel=1, note=58, velocity=79, time=2),
    Message('note_off', channel=1, note=43, velocity=64, time=51),
    Message('note_on', channel=1, note=43, velocity=35, time=69),
    Message('note_off', channel=1, note=58, velocity=64, time=27),
    Message('note_off', channel=1, note=43, velocity=64, time=125),
    Message('note_on', channel=1, note=43, velocity=27, time=88),
    Message('note_on', channel=1, note=58, velocity=66, time=119),
    Message('note_off', channel=1, note=43, velocity=64, time=48),
    Message('note_on', channel=1, note=43, velocity=33, time=73),
    Message('note_off', channel=1, note=58, velocity=64, time=15),
    Message('note_on', channel=1, note=58, velocity=29, time=105),
    Message('note_off', channel=1, note=43, velocity=64, time=29),
    Message('note_off', channel=1, note=58, velocity=64, time=48),
    Message('note_on', channel=1, note=43, velocity=36, time=42),
    Message('note_on', channel=1, note=58, velocity=52, time=122),
    Message('note_off', channel=1, note=43, velocity=64, time=6),
    Message('note_on', channel=1, note=43, velocity=30, time=113),
    Message('note_off', channel=1, note=58, velocity=64, time=14),
    Message('note_on', channel=1, note=58, velocity=18, time=107),
    Message('note_off', channel=1, note=58, velocity=64, time=107),
    Message('note_on', channel=1, note=58, velocity=42, time=133),
    Message('note_off', channel=1, note=58, velocity=64, time=120),
    Message('note_on', channel=1, note=58, velocity=25, time=118),
    Message('note_off', channel=1, note=58, velocity=64, time=98),
    Message('note_on', channel=1, note=58, velocity=39, time=142),
    Message('note_off', channel=1, note=58, velocity=64, time=129),
    Message('note_on', channel=1, note=58, velocity=25, time=112),
    Message('note_off', channel=1, note=58, velocity=64, time=106),
    Message('note_off', channel=1, note=43, velocity=64, time=112),
    Message('note_on', channel=1, note=58, velocity=46, time=22),
    Message('note_off', channel=1, note=58, velocity=64, time=116),
    Message('note_on', channel=1, note=58, velocity=1, time=127),
    Message('note_off', channel=1, note=58, velocity=64, time=98),
    Message('note_on', channel=1, note=58, velocity=42, time=143),
    Message('note_off', channel=1, note=58, velocity=64, time=183),
    Message('control_change', channel=1, control=11, value=127, time=31757),
    Message('note_on', channel=1, note=58, velocity=75, time=136),
    Message('note_off', channel=1, note=58, velocity=64, time=525),
    Message('note_on', channel=1, note=58, velocity=79, time=442),
    Message('note_off', channel=1, note=58, velocity=64, time=462),
    Message('note_on', channel=1, note=58, velocity=82, time=491),
    Message('note_off', channel=1, note=58, velocity=64, time=222),
    Message('note_on', channel=1, note=58, velocity=82, time=739),
    Message('note_off', channel=1, note=58, velocity=64, time=494),
    Message('note_on', channel=1, note=58, velocity=79, time=466),
    Message('note_off', channel=1, note=58, velocity=64, time=465),
    Message('note_on', channel=1, note=58, velocity=88, time=495),
    Message('note_off', channel=1, note=58, velocity=64, time=508),
    Message('note_on', channel=1, note=58, velocity=88, time=453),
    Message('note_off', channel=1, note=58, velocity=64, time=532),
    Message('note_on', channel=1, note=58, velocity=92, time=428),
    Message('note_off', channel=1, note=58, velocity=64, time=524),
    Message('note_on', channel=1, note=61, velocity=52, time=434),
    Message('note_on', channel=1, note=69, velocity=68, time=1),
    Message('note_off', channel=1, note=61, velocity=64, time=311),
    Message('note_off', channel=1, note=69, velocity=64, time=76),
    Message('note_on', channel=1, note=61, velocity=75, time=574),
    Message('note_on', channel=1, note=69, velocity=87, time=1),
    Message('note_on', channel=1, note=54, velocity=88, time=478),
    Message('control_change', channel=1, control=11, value=60, time=0),
    Message('control_change', channel=1, control=11, value=61, time=18),
    Message('pitchwheel', channel=1, pitch=0, time=26),
    Message('note_off', channel=1, note=54, velocity=64, time=22),
    Message('control_change', channel=1, control=11, value=62, time=1),
    Message('control_change', channel=1, control=11, value=63, time=53),
    Message('note_on', channel=1, note=54, velocity=68, time=1),
    Message('control_change', channel=1, control=11, value=64, time=42),
    Message('note_off', channel=1, note=54, velocity=64, time=23),
    Message('control_change', channel=1, control=11, value=65, time=26),
    Message('note_on', channel=1, note=54, velocity=113, time=34),
    Message('control_change', channel=1, control=11, value=66, time=12),
    Message('control_change', channel=1, control=11, value=67, time=48),
    Message('control_change', channel=1, control=11, value=68, time=49),
    Message('note_on', channel=1, note=56, velocity=66, time=9),
    Message('control_change', channel=1, control=11, value=69, time=40),
    Message('note_off', channel=1, note=54, velocity=64, time=24),
    Message('note_off', channel=1, note=56, velocity=64, time=25),
    Message('control_change', channel=1, control=11, value=70, time=0),
    Message('control_change', channel=1, control=11, value=71, time=47),
    Message('note_off', channel=1, note=61, velocity=64, time=36),
    Message('note_off', channel=1, note=69, velocity=64, time=0),
    Message('control_change', channel=1, control=11, value=72, time=12),
    Message('control_change', channel=1, control=11, value=73, time=52),
    Message('note_on', channel=1, note=56, velocity=90, time=2),
    Message('control_change', channel=1, control=11, value=74, time=41),
    Message('note_off', channel=1, note=56, velocity=64, time=50),
    Message('control_change', channel=1, control=11, value=75, time=1),
    Message('note_on', channel=1, note=54, velocity=99, time=31),
    Message('control_change', channel=1, control=11, value=76, time=14),
    Message('control_change', channel=1, control=11, value=77, time=48),
    Message('control_change', channel=1, control=11, value=78, time=48),
    Message('note_on', channel=1, note=56, velocity=75, time=6),
    Message('control_change', channel=1, control=11, value=79, time=42),
    Message('note_off', channel=1, note=54, velocity=64, time=31),
    Message('note_off', channel=1, note=56, velocity=64, time=14),
    Message('control_change', channel=1, control=11, value=80, time=3),
    Message('control_change', channel=1, control=11, value=81, time=49),
    Message('control_change', channel=1, control=11, value=82, time=48),
    Message('control_change', channel=1, control=11, value=83, time=47),
    Message('control_change', channel=1, control=11, value=84, time=48),
    Message('control_change', channel=1, control=11, value=85, time=58),
    Message('note_on', channel=1, note=54, velocity=107, time=23),
    Message('control_change', channel=1, control=11, value=86, time=31),
    Message('control_change', channel=1, control=11, value=87, time=42),
    Message('note_on', channel=1, note=56, velocity=85, time=43),
    Message('control_change', channel=1, control=11, value=88, time=6),
    Message('control_change', channel=1, control=11, value=89, time=47),
    Message('note_off', channel=1, note=54, velocity=64, time=17),
    Message('note_off', channel=1, note=56, velocity=64, time=27),
    Message('control_change', channel=1, control=11, value=90, time=4),
    Message('control_change', channel=1, control=11, value=91, time=48),
    Message('control_change', channel=1, control=11, value=92, time=48),
    Message('control_change', channel=1, control=11, value=93, time=48),
    Message('note_on', channel=1, note=56, velocity=88, time=3),
    Message('control_change', channel=1, control=11, value=94, time=44),
    Message('control_change', channel=1, control=11, value=95, time=48),
    Message('note_off', channel=1, note=56, velocity=64, time=3),
    Message('note_on', channel=1, note=54, velocity=102, time=19),
    Message('control_change', channel=1, control=11, value=96, time=26),
    Message('control_change', channel=1, control=11, value=97, time=49),
    Message('note_on', channel=1, note=56, velocity=92, time=52),
    Message('control_change', channel=1, control=11, value=98, time=0),
    Message('note_off', channel=1, note=54, velocity=64, time=28),
    Message('control_change', channel=1, control=11, value=99, time=16),
    Message('note_off', channel=1, note=56, velocity=64, time=48),
    Message('control_change', channel=1, control=11, value=100, time=0),
    Message('control_change', channel=1, control=11, value=127, time=48),
    Message('control_change', channel=1, control=11, value=101, time=0),
    Message('pitchwheel', channel=1, pitch=0, time=13),
    Message('control_change', channel=1, control=11, value=102, time=35),
    Message('control_change', channel=1, control=11, value=103, time=47),
    Message('control_change', channel=1, control=11, value=104, time=48),
    Message('control_change', channel=1, control=11, value=105, time=48),
    Message('note_on', channel=1, note=54, velocity=113, time=31),
    Message('control_change', channel=1, control=11, value=106, time=18),
    Message('control_change', channel=1, control=11, value=107, time=47),
    Message('note_on', channel=1, note=56, velocity=66, time=43),
    Message('control_change', channel=1, control=11, value=108, time=5),
    Message('control_change', channel=1, control=11, value=109, time=48),
    Message('note_off', channel=1, note=54, velocity=64, time=18),
    Message('note_off', channel=1, note=56, velocity=64, time=17),
    Message('control_change', channel=1, control=11, value=110, time=13),
    Message('control_change', channel=1, control=11, value=111, time=57),
    Message('control_change', channel=1, control=11, value=112, time=40),
    Message('note_on', channel=1, note=56, velocity=90, time=46),
    Message('control_change', channel=1, control=11, value=113, time=6),
    Message('control_change', channel=1, control=11, value=114, time=44),
    Message('note_off', channel=1, note=56, velocity=64, time=35),
    Message('control_change', channel=1, control=11, value=115, time=14),
    Message('note_on', channel=1, note=54, velocity=99, time=13),
    Message('control_change', channel=1, control=11, value=116, time=34),
    Message('control_change', channel=1, control=11, value=117, time=48),
    Message('note_on', channel=1, note=56, velocity=75, time=45),
    Message('control_change', channel=1, control=11, value=118, time=6),
    Message('control_change', channel=1, control=11, value=119, time=45),
    Message('note_off', channel=1, note=54, velocity=64, time=22),
    Message('note_off', channel=1, note=56, velocity=64, time=14),
    Message('note_on', channel=1, note=44, velocity=97, time=21),
    Message('note_off', channel=1, note=44, velocity=64, time=50),
    Message('note_on', channel=1, note=44, velocity=99, time=90),
    Message('note_off', channel=1, note=44, velocity=64, time=44),
    Message('note_on', channel=1, note=44, velocity=103, time=70),
    Message('note_off', channel=1, note=44, velocity=64, time=48),
    Message('note_on', channel=1, note=44, velocity=109, time=79),
    Message('note_off', channel=1, note=44, velocity=64, time=47),
    Message('note_on', channel=1, note=44, velocity=115, time=65),
    Message('note_off', channel=1, note=44, velocity=64, time=49),
    Message('note_on', channel=1, note=44, velocity=108, time=82),
    Message('note_off', channel=1, note=44, velocity=64, time=42),
    Message('note_on', channel=1, note=44, velocity=121, time=68),
    Message('note_off', channel=1, note=44, velocity=64, time=45),
    Message('note_on', channel=1, note=44, velocity=127, time=84),
    Message('note_off', channel=1, note=44, velocity=64, time=68),
    Message('note_on', channel=1, note=36, velocity=113, time=36),
    Message('note_on', channel=1, note=56, velocity=88, time=126),
    Message('note_off', channel=1, note=36, velocity=64, time=101),
    Message('note_on', channel=1, note=44, velocity=106, time=10),
    Message('note_off', channel=1, note=56, velocity=64, time=21),
    Message('note_on', channel=1, note=56, velocity=71, time=109),
    Message('note_off', channel=1, note=56, velocity=64, time=103),
    Message('note_off', channel=1, note=44, velocity=64, time=8),
    Message('note_on', channel=1, note=54, velocity=102, time=140),
    Message('note_on', channel=1, note=44, velocity=106, time=108),
    Message('note_off', channel=1, note=54, velocity=64, time=75),
    Message('note_on', channel=1, note=56, velocity=82, time=46),
    Message('note_on', channel=1, note=36, velocity=100, time=111),
    Message('note_off', channel=1, note=44, velocity=64, time=7),
    Message('note_off', channel=1, note=56, velocity=64, time=14),
    Message('note_on', channel=1, note=56, velocity=64, time=111),
    Message('note_off', channel=1, note=36, velocity=64, time=111),
    Message('note_on', channel=1, note=44, velocity=114, time=1),
    Message('note_off', channel=1, note=56, velocity=64, time=20),
    Message('note_on', channel=1, note=56, velocity=79, time=110),
    Message('note_off', channel=1, note=56, velocity=64, time=117),
    Message('note_off', channel=1, note=44, velocity=64, time=9),
    Message('note_on', channel=1, note=54, velocity=113, time=107),
    Message('note_on', channel=1, note=44, velocity=106, time=117),
    Message('note_off', channel=1, note=54, velocity=64, time=100),
    Message('note_on', channel=1, note=56, velocity=96, time=26),
    Message('note_on', channel=1, note=36, velocity=96, time=118),
    Message('note_off', channel=1, note=44, velocity=64, time=5),
    Message('note_off', channel=1, note=56, velocity=64, time=27),
    Message('note_on', channel=1, note=56, velocity=79, time=93),
    Message('note_on', channel=1, note=44, velocity=114, time=114),
    Message('note_off', channel=1, note=36, velocity=64, time=21),
    Message('note_off', channel=1, note=56, velocity=64, time=13),
    Message('note_on', channel=1, note=56, velocity=79, time=94),
    Message('note_off', channel=1, note=44, velocity=64, time=129),
    Message('note_off', channel=1, note=56, velocity=64, time=7),
    Message('note_on', channel=1, note=54, velocity=119, time=98),
    Message('note_on', channel=1, note=44, velocity=106, time=121),
    Message('note_off', channel=1, note=54, velocity=64, time=110),
    Message('note_on', channel=1, note=56, velocity=85, time=5),
    Message('note_on', channel=1, note=36, velocity=104, time=122),
    Message('note_off', channel=1, note=56, velocity=64, time=1),
    Message('note_off', channel=1, note=44, velocity=64, time=2),
    Message('note_on', channel=1, note=56, velocity=71, time=115),
    Message('note_off', channel=1, note=36, velocity=64, time=115),
    Message('note_on', channel=1, note=44, velocity=114, time=5),
    Message('note_off', channel=1, note=56, velocity=64, time=1),
    Message('note_on', channel=1, note=56, velocity=90, time=120),
    Message('note_off', channel=1, note=44, velocity=64, time=95),
    Message('note_off', channel=1, note=56, velocity=64, time=4),
    Message('note_on', channel=1, note=54, velocity=127, time=150),
    Message('note_on', channel=1, note=44, velocity=119, time=117),
    Message('note_off', channel=1, note=44, velocity=64, time=61),
    Message('note_on', channel=1, note=44, velocity=107, time=52),
    Message('note_off', channel=1, note=54, velocity=64, time=78),
    Message('note_off', channel=1, note=44, velocity=64, time=30),
    Message('note_on', channel=1, note=36, velocity=110, time=13),
    Message('note_on', channel=1, note=56, velocity=82, time=125),
    Message('note_off', channel=1, note=36, velocity=64, time=97),
    Message('note_on', channel=1, note=44, velocity=106, time=21),
    Message('note_off', channel=1, note=56, velocity=64, time=10),
    Message('note_on', channel=1, note=56, velocity=82, time=113),
    Message('note_off', channel=1, note=56, velocity=64, time=109),
    Message('note_off', channel=1, note=44, velocity=64, time=9),
    Message('note_on', channel=1, note=54, velocity=119, time=119),
    Message('note_on', channel=1, note=44, velocity=106, time=114),
    Message('note_off', channel=1, note=54, velocity=64, time=109),
    Message('note_on', channel=1, note=56, velocity=79, time=18),
    Message('note_on', channel=1, note=36, velocity=104, time=114),
    Message('note_off', channel=1, note=44, velocity=64, time=17),
    Message('note_off', channel=1, note=56, velocity=64, time=2),
    Message('note_on', channel=1, note=56, velocity=64, time=112),
    Message('note_off', channel=1, note=36, velocity=64, time=108),
    Message('note_on', channel=1, note=44, velocity=106, time=4),
    Message('note_off', channel=1, note=56, velocity=64, time=2),
    Message('note_on', channel=1, note=56, velocity=68, time=125),
    Message('note_off', channel=1, note=44, velocity=64, time=75),
    Message('note_off', channel=1, note=56, velocity=64, time=7),
    Message('note_on', channel=1, note=54, velocity=119, time=158),
    Message('note_on', channel=1, note=44, velocity=106, time=111),
    Message('note_off', channel=1, note=54, velocity=64, time=90),
    Message('note_on', channel=1, note=56, velocity=88, time=33),
    Message('note_on', channel=1, note=36, velocity=98, time=118),
    Message('note_off', channel=1, note=56, velocity=64, time=12),
    Message('note_off', channel=1, note=44, velocity=64, time=1),
    Message('note_on', channel=1, note=56, velocity=69, time=111),
    Message('note_on', channel=1, note=44, velocity=106, time=111),
    Message('note_off', channel=1, note=56, velocity=64, time=8),
    Message('note_off', channel=1, note=36, velocity=64, time=11),
    Message('note_on', channel=1, note=56, velocity=75, time=111),
    Message('note_off', channel=1, note=44, velocity=64, time=84),
    Message('note_off', channel=1, note=56, velocity=64, time=31),
    Message('note_on', channel=1, note=54, velocity=119, time=124),
    Message('note_on', channel=1, note=44, velocity=114, time=118),
    Message('note_off', channel=1, note=54, velocity=64, time=79),
    Message('note_on', channel=1, note=56, velocity=96, time=43),
    Message('note_on', channel=1, note=36, velocity=107, time=114),
    Message('note_off', channel=1, note=44, velocity=64, time=5),
    Message('note_off', channel=1, note=56, velocity=64, time=28),
    Message('note_on', channel=1, note=56, velocity=88, time=93),
    Message('note_on', channel=1, note=44, velocity=106, time=121),
    Message('note_off', channel=1, note=36, velocity=64, time=2),
    Message('note_off', channel=1, note=56, velocity=64, time=7),
    Message('note_on', channel=1, note=58, velocity=113, time=104),
    Message('note_off', channel=1, note=44, velocity=64, time=126),
    Message('note_on', channel=1, note=56, velocity=85, time=1),
    Message('note_off', channel=1, note=58, velocity=64, time=16),
    Message('note_off', channel=1, note=56, velocity=64, time=42),
    Message('note_on', channel=1, note=58, velocity=113, time=63),
    Message('note_on', channel=1, note=56, velocity=99, time=124),
    Message('note_off', channel=1, note=58, velocity=64, time=15),
    Message('note_off', channel=1, note=56, velocity=64, time=41),
    Message('note_on', channel=1, note=58, velocity=119, time=61),
    Message('note_on', channel=1, note=56, velocity=92, time=111),
    Message('note_off', channel=1, note=58, velocity=64, time=48),
    Message('note_on', channel=1, note=54, velocity=107, time=70),
    Message('note_off', channel=1, note=56, velocity=64, time=32),
    Message('note_on', channel=1, note=44, velocity=114, time=101),
    Message('note_off', channel=1, note=54, velocity=64, time=20),
    Message('note_on', channel=1, note=56, velocity=88, time=95),
    Message('note_off', channel=1, note=56, velocity=64, time=100),
    Message('note_off', channel=1, note=44, velocity=64, time=83),
    Message('note_on', channel=1, note=56, velocity=107, time=66),
    Message('note_on', channel=1, note=44, velocity=106, time=109),
    Message('note_off', channel=1, note=56, velocity=64, time=5),
    Message('note_on', channel=1, note=56, velocity=99, time=122),
    Message('note_on', channel=1, note=36, velocity=104, time=119),
    Message('note_off', channel=1, note=44, velocity=64, time=1),
    Message('note_off', channel=1, note=56, velocity=64, time=7),
    Message('note_on', channel=1, note=56, velocity=82, time=110),
    Message('note_on', channel=1, note=44, velocity=106, time=120),
    Message('note_off', channel=1, note=36, velocity=64, time=1),
    Message('note_off', channel=1, note=56, velocity=64, time=3),
    Message('note_on', channel=1, note=56, velocity=99, time=115),
    Message('note_off', channel=1, note=44, velocity=64, time=84),
    Message('note_off', channel=1, note=56, velocity=64, time=43),
    Message('note_on', channel=1, note=54, velocity=119, time=114),
    Message('note_on', channel=1, note=44, velocity=114, time=107),
    Message('note_off', channel=1, note=54, velocity=64, time=85),
    Message('note_on', channel=1, note=56, velocity=92, time=41),
    Message('note_off', channel=1, note=44, velocity=64, time=114),
    Message('note_on', channel=1, note=36, velocity=110, time=18),
    Message('note_off', channel=1, note=56, velocity=64, time=12),
    Message('note_on', channel=1, note=56, velocity=71, time=100),
    Message('note_on', channel=1, note=44, velocity=114, time=112),
    Message('note_off', channel=1, note=56, velocity=64, time=3),
    Message('note_off', channel=1, note=36, velocity=64, time=30),
    Message('note_on', channel=1, note=56, velocity=96, time=94),
    Message('note_off', channel=1, note=44, velocity=64, time=84),
    Message('note_off', channel=1, note=56, velocity=64, time=16),
    Message('note_on', channel=1, note=54, velocity=127, time=155),
    Message('note_on', channel=1, note=44, velocity=106, time=99),
    Message('note_off', channel=1, note=54, velocity=64, time=67),
    Message('note_on', channel=1, note=56, velocity=102, time=72),
    Message('note_off', channel=1, note=44, velocity=64, time=101),
    Message('note_on', channel=1, note=36, velocity=107, time=5),
    Message('note_off', channel=1, note=56, velocity=64, time=15),
    Message('note_on', channel=1, note=56, velocity=92, time=106),
    Message('note_off', channel=1, note=36, velocity=64, time=105),
    Message('note_off', channel=1, note=56, velocity=64, time=7),
    Message('note_on', channel=1, note=44, velocity=106, time=4),
    Message('note_on', channel=1, note=56, velocity=99, time=127),
    Message('note_off', channel=1, note=44, velocity=64, time=54),
    Message('note_on', channel=1, note=54, velocity=107, time=60),
    Message('note_off', channel=1, note=56, velocity=64, time=6),
    Message('note_on', channel=1, note=56, velocity=107, time=118),
    Message('note_off', channel=1, note=54, velocity=64, time=23),
    Message('note_on', channel=1, note=44, velocity=119, time=95),
    Message('note_off', channel=1, note=44, velocity=64, time=61),
    Message('note_on', channel=1, note=44, velocity=119, time=68),
    Message('note_off', channel=1, note=56, velocity=64, time=53),
    Message('note_off', channel=1, note=44, velocity=64, time=42),
    Message('note_on', channel=1, note=36, velocity=110, time=19),
    Message('note_on', channel=1, note=56, velocity=92, time=124),
    Message('note_off', channel=1, note=36, velocity=64, time=95),
    Message('note_off', channel=1, note=56, velocity=64, time=7),
    Message('note_on', channel=1, note=42, velocity=79, time=8),
    Message('note_on', channel=1, note=44, velocity=114, time=4),
    Message('note_off', channel=1, note=42, velocity=64, time=4),
    Message('note_on', channel=1, note=56, velocity=96, time=115),
    Message('note_off', channel=1, note=44, velocity=64, time=96),
    Message('note_off', channel=1, note=56, velocity=64, time=136),
    Message('note_on', channel=1, note=54, velocity=119, time=8),
    Message('note_on', channel=1, note=44, velocity=106, time=119),
    Message('note_off', channel=1, note=54, velocity=64, time=110),
    Message('note_on', channel=1, note=56, velocity=99, time=17),
    Message('note_on', channel=1, note=36, velocity=107, time=111),
    Message('note_off', channel=1, note=44, velocity=64, time=3),
    Message('note_off', channel=1, note=56, velocity=64, time=31),
    Message('note_on', channel=1, note=56, velocity=68, time=96),
    Message('note_off', channel=1, note=36, velocity=64, time=104),
    Message('note_on', channel=1, note=44, velocity=114, time=1),
    Message('note_off', channel=1, note=56, velocity=64, time=14),
    Message('note_on', channel=1, note=56, velocity=90, time=119),
    Message('note_off', channel=1, note=44, velocity=64, time=66),
    Message('note_on', channel=1, note=54, velocity=119, time=170),
    Message('note_off', channel=1, note=56, velocity=64, time=14),
    Message('note_on', channel=1, note=44, velocity=106, time=108),
    Message('note_on', channel=1, note=56, velocity=88, time=126),
    Message('note_off', channel=1, note=54, velocity=64, time=29),
    Message('note_on', channel=1, note=36, velocity=100, time=75),
    Message('note_off', channel=1, note=44, velocity=64, time=26),
    Message('note_off', channel=1, note=56, velocity=64, time=9),
    Message('note_on', channel=1, note=56, velocity=64, time=99),
    Message('note_on', channel=1, note=44, velocity=106, time=111),
    Message('note_off', channel=1, note=56, velocity=64, time=16),
    Message('note_off', channel=1, note=36, velocity=64, time=7),
    Message('note_on', channel=1, note=56, velocity=92, time=95),
    Message('note_off', channel=1, note=44, velocity=64, time=110),
    Message('note_on', channel=1, note=54, velocity=127, time=137),
    Message('note_off', channel=1, note=56, velocity=64, time=22),
    Message('note_on', channel=1, note=44, velocity=106, time=95),
    Message('note_on', channel=1, note=56, velocity=92, time=126),
    Message('note_off', channel=1, note=54, velocity=64, time=18),
    Message('note_on', channel=1, note=36, velocity=104, time=93),
    Message('note_off', channel=1, note=44, velocity=64, time=7),
    Message('note_off', channel=1, note=56, velocity=64, time=21),
    Message('note_on', channel=1, note=56, velocity=69, time=97),
    Message('note_off', channel=1, note=36, velocity=64, time=115),
    Message('note_on', channel=1, note=44, velocity=106, time=2),
    Message('note_off', channel=1, note=56, velocity=64, time=119),
    Message('note_on', channel=1, note=54, velocity=107, time=9),
    Message('note_off', channel=1, note=44, velocity=64, time=92),
    Message('note_on', channel=1, note=56, velocity=64, time=20),
    Message('note_off', channel=1, note=54, velocity=64, time=62),
    Message('note_off', channel=1, note=56, velocity=64, time=29),
    Message('note_on', channel=1, note=58, velocity=107, time=37),
    Message('note_on', channel=1, note=44, velocity=106, time=111),
    Message('note_off', channel=1, note=58, velocity=64, time=47),
    Message('note_on', channel=1, note=56, velocity=107, time=78),
    Message('note_off', channel=1, note=44, velocity=64, time=110),
    Message('note_off', channel=1, note=56, velocity=64, time=27),
    MetaMessage('end_of_track', time=6110)]),
  MidiTrack([
    MetaMessage('track_name', name='Soft Jazz Perc 1\x00ach.de\x00', time=0),
    MetaMessage('channel_prefix', channel=2, time=0),
    Message('control_change', channel=2, control=0, value=0, time=0),
    Message('control_change', channel=2, control=32, value=10, time=0),
    Message('program_change', channel=2, program=91, time=0),
    Message('control_change', channel=2, control=7, value=127, time=0),
    Message('control_change', channel=2, control=10, value=64, time=0),
    Message('control_change', channel=2, control=93, value=0, time=0),
    Message('control_change', channel=2, control=91, value=8, time=0),
    Message('control_change', channel=2, control=0, value=0, time=11520),
    Message('control_change', channel=2, control=32, value=4, time=0),
    Message('program_change', channel=2, program=39, time=0),
    Message('control_change', channel=2, control=91, value=13, time=1988),
    Message('control_change', channel=2, control=91, value=13, time=121),
    Message('control_change', channel=2, control=1, value=127, time=46),
    Message('control_change', channel=2, control=1, value=0, time=269),
    Message('control_change', channel=2, control=10, value=82, time=97),
    Message('control_change', channel=2, control=11, value=127, time=45),
    Message('note_on', channel=2, note=78, velocity=99, time=402),
    Message('note_on', channel=2, note=73, velocity=99, time=1),
    Message('note_on', channel=2, note=80, velocity=88, time=0),
    Message('note_on', channel=2, note=75, velocity=85, time=1),
    Message('note_on', channel=2, note=66, velocity=82, time=1),
    Message('note_off', channel=2, note=78, velocity=64, time=8),
    Message('note_off', channel=2, note=75, velocity=64, time=1),
    Message('note_off', channel=2, note=73, velocity=64, time=1),
    Message('note_off', channel=2, note=80, velocity=64, time=1),
    Message('note_off', channel=2, note=66, velocity=64, time=6),
    Message('note_on', channel=2, note=66, velocity=92, time=223),
    Message('note_off', channel=2, note=66, velocity=64, time=28),
    Message('note_on', channel=2, note=77, velocity=102, time=83),
    Message('note_on', channel=2, note=80, velocity=102, time=1),
    Message('note_on', channel=2, note=73, velocity=98, time=1),
    Message('note_on', channel=2, note=66, velocity=102, time=1),
    Message('note_off', channel=2, note=73, velocity=64, time=84),
    Message('note_off', channel=2, note=77, velocity=64, time=9),
    Message('note_off', channel=2, note=66, velocity=64, time=1),
    Message('note_off', channel=2, note=80, velocity=64, time=1),
    Message('note_on', channel=2, note=80, velocity=79, time=26),
    Message('note_on', channel=2, note=66, velocity=68, time=4),
    Message('note_on', channel=2, note=73, velocity=90, time=1),
    Message('note_on', channel=2, note=77, velocity=48, time=5),
    Message('note_off', channel=2, note=66, velocity=64, time=22),
    Message('note_off', channel=2, note=80, velocity=64, time=2),
    Message('note_off', channel=2, note=77, velocity=64, time=1),
    Message('note_off', channel=2, note=73, velocity=64, time=3),
    Message('note_on', channel=2, note=75, velocity=90, time=196),
    Message('note_on', channel=2, note=73, velocity=92, time=1),
    Message('note_on', channel=2, note=66, velocity=96, time=0),
    Message('note_off', channel=2, note=75, velocity=64, time=10),
    Message('note_off', channel=2, note=66, velocity=64, time=9),
    Message('note_off', channel=2, note=73, velocity=64, time=2),
    Message('note_on', channel=2, note=58, velocity=107, time=110),
    Message('note_off', channel=2, note=58, velocity=64, time=8),
    Message('note_on', channel=2, note=60, velocity=92, time=2),
    Message('note_off', channel=2, note=60, velocity=64, time=12),
    Message('note_on', channel=2, note=66, velocity=90, time=88),
    Message('note_off', channel=2, note=66, velocity=64, time=25),
    Message('note_on', channel=2, note=68, velocity=85, time=1173),
    Message('note_on', channel=2, note=66, velocity=92, time=2),
    Message('note_on', channel=2, note=63, velocity=92, time=13),
    Message('note_off', channel=2, note=68, velocity=64, time=1),
    Message('note_off', channel=2, note=66, velocity=64, time=1),
    Message('note_off', channel=2, note=63, velocity=64, time=1),
    Message('note_on', channel=2, note=51, velocity=96, time=238),
    Message('note_on', channel=2, note=54, velocity=107, time=1),
    Message('note_off', channel=2, note=54, velocity=64, time=16),
    Message('note_off', channel=2, note=51, velocity=64, time=1),
    Message('note_on', channel=2, note=63, velocity=107, time=85),
    Message('note_on', channel=2, note=66, velocity=99, time=1),
    Message('note_off', channel=2, note=63, velocity=64, time=16),
    Message('note_off', channel=2, note=66, velocity=64, time=1),
    Message('note_on', channel=2, note=66, velocity=99, time=105),
    Message('note_on', channel=2, note=68, velocity=82, time=1),
    Message('note_on', channel=2, note=63, velocity=99, time=0),
    Message('note_off', channel=2, note=66, velocity=64, time=10),
    Message('note_off', channel=2, note=63, velocity=64, time=1),
    Message('note_off', channel=2, note=68, velocity=64, time=1),
    Message('note_on', channel=2, note=68, velocity=92, time=109),
    Message('note_on', channel=2, note=66, velocity=102, time=1),
    Message('note_on', channel=2, note=63, velocity=107, time=2),
    Message('note_off', channel=2, note=66, velocity=64, time=11),
    Message('note_off', channel=2, note=63, velocity=64, time=1),
    Message('note_off', channel=2, note=68, velocity=64, time=2),
    Message('note_on', channel=2, note=68, velocity=96, time=102),
    Message('note_on', channel=2, note=66, velocity=107, time=3),
    Message('note_on', channel=2, note=63, velocity=107, time=1),
    Message('note_off', channel=2, note=66, velocity=64, time=11),
    Message('note_off', channel=2, note=63, velocity=64, time=2),
    Message('note_off', channel=2, note=68, velocity=64, time=5),
    Message('control_change', channel=2, control=10, value=64, time=236),
    Message('control_change', channel=2, control=0, value=0, time=1579),
    Message('control_change', channel=2, control=32, value=10, time=0),
    Message('program_change', channel=2, program=91, time=0),
    Message('control_change', channel=2, control=0, value=0, time=32640),
    Message('control_change', channel=2, control=32, value=4, time=0),
    Message('program_change', channel=2, program=39, time=0),
    Message('control_change', channel=2, control=91, value=15, time=355),
    Message('note_on', channel=2, note=52, velocity=39, time=302),
    Message('note_on', channel=2, note=53, velocity=41, time=12),
    Message('note_on', channel=2, note=55, velocity=46, time=12),
    Message('note_off', channel=2, note=52, velocity=64, time=4),
    Message('control_change', channel=2, control=11, value=122, time=1),
    Message('note_on', channel=2, note=57, velocity=50, time=8),
    Message('control_change', channel=2, control=11, value=112, time=1),
    Message('note_off', channel=2, note=53, velocity=64, time=3),
    Message('control_change', channel=2, control=11, value=103, time=8),
    Message('note_on', channel=2, note=59, velocity=51, time=2),
    Message('note_off', channel=2, note=55, velocity=64, time=4),
    Message('control_change', channel=2, control=11, value=94, time=5),
    Message('note_on', channel=2, note=60, velocity=50, time=7),
    Message('control_change', channel=2, control=11, value=80, time=4),
    Message('note_off', channel=2, note=57, velocity=64, time=1),
    Message('control_change', channel=2, control=11, value=67, time=9),
    Message('note_on', channel=2, note=62, velocity=51, time=1),
    Message('note_off', channel=2, note=59, velocity=64, time=3),
    Message('control_change', channel=2, control=11, value=53, time=7),
    Message('note_on', channel=2, note=64, velocity=52, time=5),
    Message('note_off', channel=2, note=60, velocity=64, time=2),
    Message('control_change', channel=2, control=11, value=41, time=3),
    Message('control_change', channel=2, control=11, value=35, time=11),
    Message('note_on', channel=2, note=65, velocity=77, time=1),
    Message('note_off', channel=2, note=62, velocity=64, time=2),
    Message('control_change', channel=2, control=11, value=25, time=7),
    Message('note_on', channel=2, note=67, velocity=80, time=5),
    Message('note_off', channel=2, note=64, velocity=64, time=1),
    Message('control_change', channel=2, control=11, value=20, time=4),
    Message('control_change', channel=2, control=11, value=16, time=18),
    Message('note_off', channel=2, note=65, velocity=64, time=1),
    Message('note_on', channel=2, note=69, velocity=83, time=0),
    Message('control_change', channel=2, control=11, value=13, time=3),
    Message('note_off', channel=2, note=67, velocity=64, time=6),
    Message('note_on', channel=2, note=71, velocity=80, time=2),
    Message('control_change', channel=2, control=11, value=11, time=1),
    Message('note_off', channel=2, note=69, velocity=64, time=17),
    Message('note_on', channel=2, note=72, velocity=80, time=2),
    Message('note_off', channel=2, note=71, velocity=64, time=11),
    Message('note_on', channel=2, note=74, velocity=78, time=13),
    Message('note_off', channel=2, note=72, velocity=64, time=5),
    Message('control_change', channel=2, control=11, value=33, time=6),
    Message('control_change', channel=2, control=11, value=58, time=10),
    Message('note_off', channel=2, note=74, velocity=64, time=1),
    Message('control_change', channel=2, control=11, value=103, time=10),
    Message('control_change', channel=2, control=11, value=127, time=11),
    Message('note_on', channel=2, note=82, velocity=92, time=16),
    Message('note_on', channel=2, note=86, velocity=93, time=2),
    Message('note_on', channel=2, note=91, velocity=98, time=2),
    Message('note_on', channel=2, note=88, velocity=95, time=0),
    Message('control_change', channel=2, control=11, value=125, time=41),
    Message('control_change', channel=2, control=11, value=104, time=9),
    Message('control_change', channel=2, control=11, value=80, time=11),
    Message('control_change', channel=2, control=11, value=66, time=11),
    Message('control_change', channel=2, control=11, value=56, time=10),
    Message('control_change', channel=2, control=11, value=54, time=11),
    Message('control_change', channel=2, control=11, value=50, time=55),
    Message('note_off', channel=2, note=91, velocity=64, time=5),
    Message('control_change', channel=2, control=11, value=47, time=2),
    Message('note_off', channel=2, note=88, velocity=64, time=7),
    Message('control_change', channel=2, control=11, value=44, time=3),
    Message('note_off', channel=2, note=86, velocity=64, time=2),
    Message('control_change', channel=2, control=11, value=41, time=15),
    Message('note_off', channel=2, note=82, velocity=64, time=7),
    Message('note_on', channel=2, note=81, velocity=100, time=2),
    Message('control_change', channel=2, control=11, value=40, time=38),
    Message('control_change', channel=2, control=11, value=38, time=21),
    Message('note_on', channel=2, note=79, velocity=57, time=0),
    Message('note_off', channel=2, note=81, velocity=64, time=14),
    Message('note_on', channel=2, note=77, velocity=67, time=19),
    Message('note_off', channel=2, note=79, velocity=64, time=9),
    Message('note_on', channel=2, note=76, velocity=80, time=21),
    Message('note_off', channel=2, note=77, velocity=64, time=7),
    Message('control_change', channel=2, control=11, value=36, time=12),
    Message('note_on', channel=2, note=74, velocity=77, time=8),
    Message('note_off', channel=2, note=76, velocity=64, time=2),
    Message('control_change', channel=2, control=11, value=34, time=13),
    Message('note_off', channel=2, note=74, velocity=64, time=11),
    Message('note_on', channel=2, note=72, velocity=65, time=1),
    Message('control_change', channel=2, control=11, value=32, time=8),
    Message('control_change', channel=2, control=11, value=31, time=11),
    Message('note_off', channel=2, note=72, velocity=64, time=4),
    Message('note_on', channel=2, note=71, velocity=58, time=6),
    Message('note_off', channel=2, note=71, velocity=64, time=22),
    Message('control_change', channel=2, control=11, value=29, time=0),
    Message('note_on', channel=2, note=69, velocity=62, time=2),
    Message('control_change', channel=2, control=11, value=27, time=17),
    Message('note_off', channel=2, note=69, velocity=64, time=11),
    Message('note_on', channel=2, note=67, velocity=64, time=1),
    Message('control_change', channel=2, control=11, value=25, time=1),
    Message('note_off', channel=2, note=67, velocity=64, time=15),
    Message('control_change', channel=2, control=11, value=22, time=4),
    Message('note_on', channel=2, note=65, velocity=61, time=13),
    Message('control_change', channel=2, control=11, value=20, time=0),
    Message('note_off', channel=2, note=65, velocity=64, time=6),
    Message('control_change', channel=2, control=11, value=16, time=1),
    Message('control_change', channel=2, control=11, value=12, time=11),
    Message('control_change', channel=2, control=11, value=5, time=10),
    Message('control_change', channel=2, control=11, value=0, time=10),
    Message('control_change', channel=2, control=11, value=1, time=1318),
    Message('control_change', channel=2, control=11, value=13, time=10),
    Message('control_change', channel=2, control=11, value=18, time=14),
    Message('control_change', channel=2, control=11, value=41, time=7),
    Message('control_change', channel=2, control=11, value=59, time=10),
    Message('control_change', channel=2, control=11, value=76, time=10),
    Message('control_change', channel=2, control=11, value=91, time=12),
    Message('control_change', channel=2, control=11, value=101, time=9),
    Message('control_change', channel=2, control=11, value=88, time=31),
    Message('control_change', channel=2, control=11, value=75, time=10),
    Message('control_change', channel=2, control=11, value=66, time=11),
    Message('control_change', channel=2, control=11, value=58, time=10),
    Message('control_change', channel=2, control=11, value=54, time=16),
    Message('control_change', channel=2, control=11, value=51, time=5),
    Message('control_change', channel=2, control=11, value=65, time=54),
    Message('control_change', channel=2, control=11, value=81, time=8),
    Message('control_change', channel=2, control=11, value=98, time=19),
    Message('control_change', channel=2, control=11, value=109, time=2),
    Message('control_change', channel=2, control=11, value=112, time=12),
    Message('control_change', channel=2, control=11, value=106, time=20),
    Message('control_change', channel=2, control=11, value=94, time=10),
    Message('control_change', channel=2, control=11, value=87, time=12),
    Message('control_change', channel=2, control=11, value=81, time=11),
    Message('control_change', channel=2, control=11, value=74, time=9),
    Message('control_change', channel=2, control=11, value=68, time=10),
    Message('control_change', channel=2, control=11, value=64, time=10),
    Message('control_change', channel=2, control=11, value=59, time=11),
    Message('control_change', channel=2, control=11, value=57, time=10),
    Message('control_change', channel=2, control=11, value=55, time=22),
    Message('control_change', channel=2, control=11, value=53, time=20),
    Message('control_change', channel=2, control=11, value=50, time=10),
    Message('control_change', channel=2, control=11, value=47, time=10),
    Message('control_change', channel=2, control=11, value=44, time=11),
    Message('control_change', channel=2, control=11, value=43, time=10),
    Message('control_change', channel=2, control=11, value=41, time=21),
    Message('control_change', channel=2, control=11, value=37, time=24),
    Message('control_change', channel=2, control=11, value=34, time=7),
    Message('control_change', channel=2, control=11, value=32, time=22),
    Message('control_change', channel=2, control=11, value=31, time=3),
    Message('control_change', channel=2, control=11, value=29, time=6),
    Message('control_change', channel=2, control=11, value=27, time=47),
    Message('control_change', channel=2, control=11, value=25, time=5),
    Message('control_change', channel=2, control=11, value=23, time=31),
    Message('control_change', channel=2, control=11, value=21, time=55),
    Message('control_change', channel=2, control=11, value=19, time=18),
    Message('control_change', channel=2, control=11, value=17, time=46),
    Message('control_change', channel=2, control=11, value=16, time=29),
    Message('control_change', channel=2, control=11, value=25, time=163),
    Message('control_change', channel=2, control=11, value=38, time=11),
    Message('control_change', channel=2, control=11, value=48, time=10),
    Message('control_change', channel=2, control=11, value=58, time=10),
    Message('control_change', channel=2, control=11, value=64, time=11),
    Message('control_change', channel=2, control=11, value=74, time=10),
    Message('control_change', channel=2, control=11, value=76, time=10),
    Message('control_change', channel=2, control=11, value=71, time=42),
    Message('control_change', channel=2, control=11, value=67, time=10),
    Message('control_change', channel=2, control=11, value=64, time=10),
    Message('control_change', channel=2, control=11, value=62, time=52),
    Message('control_change', channel=2, control=11, value=61, time=22),
    Message('control_change', channel=2, control=11, value=58, time=20),
    Message('control_change', channel=2, control=11, value=29, time=229),
    Message('control_change', channel=2, control=11, value=38, time=19),
    Message('control_change', channel=2, control=11, value=51, time=2),
    Message('control_change', channel=2, control=11, value=64, time=9),
    Message('control_change', channel=2, control=11, value=80, time=10),
    Message('control_change', channel=2, control=11, value=94, time=10),
    Message('note_on', channel=2, note=78, velocity=102, time=26),
    Message('note_on', channel=2, note=81, velocity=100, time=7),
    Message('note_on', channel=2, note=73, velocity=92, time=1),
    Message('note_on', channel=2, note=76, velocity=93, time=1),
    Message('note_on', channel=2, note=84, velocity=100, time=0),
    Message('note_on', channel=2, note=67, velocity=87, time=3),
    Message('control_change', channel=2, control=11, value=92, time=4),
    Message('control_change', channel=2, control=11, value=80, time=10),
    Message('control_change', channel=2, control=11, value=65, time=11),
    Message('control_change', channel=2, control=11, value=53, time=10),
    Message('control_change', channel=2, control=11, value=43, time=12),
    Message('control_change', channel=2, control=11, value=35, time=10),
    Message('control_change', channel=2, control=11, value=29, time=10),
    Message('control_change', channel=2, control=11, value=27, time=11),
    Message('control_change', channel=2, control=11, value=24, time=11),
    Message('control_change', channel=2, control=11, value=22, time=20),
    Message('control_change', channel=2, control=11, value=20, time=21),
    Message('control_change', channel=2, control=11, value=19, time=14),
    Message('control_change', channel=2, control=11, value=16, time=17),
    Message('control_change', channel=2, control=11, value=14, time=21),
    Message('control_change', channel=2, control=11, value=11, time=31),
    Message('control_change', channel=2, control=11, value=10, time=31),
    Message('control_change', channel=2, control=11, value=15, time=134),
    Message('note_off', channel=2, note=81, velocity=64, time=1),
    Message('note_off', channel=2, note=67, velocity=64, time=5),
    Message('control_change', channel=2, control=11, value=20, time=7),
    Message('note_off', channel=2, note=78, velocity=64, time=5),
    Message('control_change', channel=2, control=11, value=23, time=5),
    Message('note_off', channel=2, note=76, velocity=64, time=15),
    Message('note_off', channel=2, note=84, velocity=64, time=1),
    Message('control_change', channel=2, control=11, value=29, time=0),
    Message('control_change', channel=2, control=11, value=40, time=4),
    Message('control_change', channel=2, control=11, value=52, time=11),
    Message('control_change', channel=2, control=11, value=63, time=15),
    Message('note_off', channel=2, note=73, velocity=64, time=1),
    Message('control_change', channel=2, control=11, value=75, time=4),
    Message('control_change', channel=2, control=11, value=79, time=10),
    Message('note_on', channel=2, note=78, velocity=79, time=11),
    Message('note_on', channel=2, note=66, velocity=88, time=1),
    Message('note_on', channel=2, note=76, velocity=87, time=0),
    Message('note_on', channel=2, note=72, velocity=83, time=1),
    Message('note_on', channel=2, note=81, velocity=92, time=0),
    Message('control_change', channel=2, control=11, value=74, time=39),
    Message('note_off', channel=2, note=66, velocity=64, time=3),
    Message('note_off', channel=2, note=78, velocity=64, time=4),
    Message('note_off', channel=2, note=72, velocity=64, time=1),
    Message('control_change', channel=2, control=11, value=67, time=2),
    Message('note_off', channel=2, note=81, velocity=64, time=7),
    Message('control_change', channel=2, control=11, value=61, time=6),
    Message('note_off', channel=2, note=76, velocity=64, time=3),
    Message('control_change', channel=2, control=11, value=56, time=5),
    Message('control_change', channel=2, control=11, value=53, time=10),
    Message('control_change', channel=2, control=11, value=84, time=20),
    Message('control_change', channel=2, control=11, value=91, time=176),
    Message('control_change', channel=2, control=11, value=95, time=11),
    Message('control_change', channel=2, control=11, value=100, time=14),
    Message('control_change', channel=2, control=11, value=104, time=6),
    Message('control_change', channel=2, control=11, value=107, time=11),
    Message('control_change', channel=2, control=11, value=114, time=10),
    Message('control_change', channel=2, control=11, value=117, time=11),
    Message('control_change', channel=2, control=11, value=127, time=10),
    Message('control_change', channel=2, control=11, value=3, time=689),
    Message('control_change', channel=2, control=11, value=9, time=18),
    Message('control_change', channel=2, control=11, value=23, time=4),
    Message('control_change', channel=2, control=11, value=25, time=11),
    Message('control_change', channel=2, control=11, value=28, time=10),
    Message('control_change', channel=2, control=11, value=30, time=9),
    Message('control_change', channel=2, control=11, value=33, time=9),
    Message('control_change', channel=2, control=11, value=35, time=13),
    Message('control_change', channel=2, control=11, value=38, time=7),
    Message('note_on', channel=2, note=74, velocity=77, time=9),
    Message('control_change', channel=2, control=11, value=41, time=1),
    Message('control_change', channel=2, control=11, value=43, time=16),
    Message('note_on', channel=2, note=76, velocity=80, time=1),
    Message('control_change', channel=2, control=11, value=33, time=1),
    Message('control_change', channel=2, control=11, value=35, time=9),
    Message('note_on', channel=2, note=78, velocity=83, time=2),
    Message('note_off', channel=2, note=74, velocity=64, time=2),
    Message('control_change', channel=2, control=11, value=38, time=9),
    Message('note_off', channel=2, note=76, velocity=64, time=5),
    Message('control_change', channel=2, control=11, value=47, time=2),
    Message('note_on', channel=2, note=80, velocity=80, time=1),
    Message('control_change', channel=2, control=11, value=56, time=9),
    Message('note_off', channel=2, note=78, velocity=64, time=7),
    Message('control_change', channel=2, control=11, value=64, time=2),
    Message('note_on', channel=2, note=81, velocity=80, time=3),
    Message('control_change', channel=2, control=11, value=73, time=6),
    Message('note_off', channel=2, note=80, velocity=64, time=4),
    Message('control_change', channel=2, control=11, value=82, time=7),
    Message('note_on', channel=2, note=83, velocity=78, time=1),
    Message('control_change', channel=2, control=11, value=91, time=8),
    Message('note_off', channel=2, note=81, velocity=64, time=4),
    Message('control_change', channel=2, control=11, value=100, time=6),
    Message('note_off', channel=2, note=83, velocity=64, time=8),
    Message('control_change', channel=2, control=11, value=112, time=15),
    Message('note_on', channel=2, note=90, velocity=113, time=9),
    Message('note_on', channel=2, note=85, velocity=113, time=1),
    Message('control_change', channel=2, control=11, value=124, time=1),
    Message('note_on', channel=2, note=83, velocity=98, time=1),
    Message('note_on', channel=2, note=78, velocity=99, time=0),
    Message('note_on', channel=2, note=73, velocity=71, time=0),
    Message('note_on', channel=2, note=67, velocity=85, time=1),
    Message('note_on', channel=2, note=89, velocity=98, time=8),
    Message('note_off', channel=2, note=89, velocity=64, time=16),
    Message('control_change', channel=2, control=11, value=110, time=30),
    Message('control_change', channel=2, control=11, value=101, time=11),
    Message('control_change', channel=2, control=11, value=94, time=17),
    Message('control_change', channel=2, control=11, value=90, time=4),
    Message('note_off', channel=2, note=67, velocity=64, time=13),
    Message('note_off', channel=2, note=78, velocity=64, time=15),
    Message('note_off', channel=2, note=73, velocity=64, time=3),
    Message('note_off', channel=2, note=90, velocity=64, time=11),
    Message('note_off', channel=2, note=85, velocity=64, time=2),
    Message('note_off', channel=2, note=83, velocity=64, time=3),
    Message('control_change', channel=2, control=11, value=105, time=13),
    Message('control_change', channel=2, control=11, value=114, time=3),
    Message('note_on', channel=2, note=85, velocity=88, time=6),
    Message('note_on', channel=2, note=78, velocity=82, time=1),
    Message('note_on', channel=2, note=67, velocity=87, time=0),
    Message('note_on', channel=2, note=88, velocity=92, time=1),
    Message('note_on', channel=2, note=83, velocity=92, time=1),
    Message('note_on', channel=2, note=73, velocity=64, time=0),
    Message('control_change', channel=2, control=11, value=109, time=42),
    Message('control_change', channel=2, control=11, value=100, time=10),
    Message('control_change', channel=2, control=11, value=92, time=9),
    Message('control_change', channel=2, control=11, value=83, time=9),
    Message('control_change', channel=2, control=11, value=73, time=12),
    Message('control_change', channel=2, control=11, value=69, time=10),
    Message('control_change', channel=2, control=11, value=64, time=10),
    Message('control_change', channel=2, control=11, value=60, time=9),
    Message('control_change', channel=2, control=11, value=55, time=10),
    Message('control_change', channel=2, control=11, value=51, time=9),
    Message('control_change', channel=2, control=11, value=47, time=10),
    Message('control_change', channel=2, control=11, value=42, time=10),
    Message('control_change', channel=2, control=11, value=38, time=9),
    Message('control_change', channel=2, control=11, value=33, time=11),
    Message('control_change', channel=2, control=11, value=29, time=8),
    Message('control_change', channel=2, control=11, value=24, time=17),
    Message('control_change', channel=2, control=11, value=19, time=4),
    Message('control_change', channel=2, control=11, value=18, time=122),
    Message('note_off', channel=2, note=67, velocity=64, time=14),
    Message('note_off', channel=2, note=85, velocity=64, time=11),
    Message('note_on', channel=2, note=81, velocity=37, time=63),
    Message('note_off', channel=2, note=88, velocity=64, time=5),
    Message('note_off', channel=2, note=83, velocity=64, time=17),
    Message('control_change', channel=2, control=11, value=30, time=0),
    Message('note_off', channel=2, note=78, velocity=64, time=9),
    Message('note_on', channel=2, note=79, velocity=59, time=13),
    Message('note_off', channel=2, note=81, velocity=64, time=10),
    Message('note_off', channel=2, note=79, velocity=64, time=26),
    Message('control_change', channel=2, control=11, value=59, time=9),
    Message('control_change', channel=2, control=11, value=75, time=10),
    Message('control_change', channel=2, control=11, value=97, time=18),
    Message('control_change', channel=2, control=11, value=122, time=3),
    Message('note_on', channel=2, note=71, velocity=78, time=2),
    Message('note_off', channel=2, note=73, velocity=64, time=1),
    Message('note_on', channel=2, note=77, velocity=87, time=4),
    Message('note_on', channel=2, note=81, velocity=92, time=1),
    Message('note_on', channel=2, note=86, velocity=93, time=1),
    Message('control_change', channel=2, control=11, value=127, time=2),
    Message('note_on', channel=2, note=76, velocity=62, time=0),
    Message('control_change', channel=2, control=11, value=125, time=46),
    Message('note_off', channel=2, note=81, velocity=64, time=3),
    Message('note_off', channel=2, note=77, velocity=64, time=2),
    Message('control_change', channel=2, control=11, value=119, time=0),
    Message('note_off', channel=2, note=71, velocity=64, time=3),
    Message('note_off', channel=2, note=86, velocity=64, time=1),
    Message('note_off', channel=2, note=76, velocity=64, time=3),
    Message('control_change', channel=2, control=11, value=102, time=5),
    Message('control_change', channel=2, control=11, value=94, time=17),
    Message('control_change', channel=2, control=11, value=89, time=4),
    Message('control_change', channel=2, control=11, value=86, time=12),
    Message('control_change', channel=2, control=11, value=92, time=129),
    Message('control_change', channel=2, control=11, value=101, time=5),
    Message('control_change', channel=2, control=11, value=110, time=11),
    Message('control_change', channel=2, control=11, value=122, time=17),
    Message('note_on', channel=2, note=80, velocity=107, time=2),
    Message('control_change', channel=2, control=11, value=127, time=3),
    Message('note_on', channel=2, note=86, velocity=102, time=1),
    Message('note_on', channel=2, note=77, velocity=93, time=0),
    Message('note_on', channel=2, note=71, velocity=90, time=1),
    Message('note_on', channel=2, note=76, velocity=92, time=10),
    Message('control_change', channel=2, control=11, value=123, time=19),
    Message('control_change', channel=2, control=11, value=113, time=10),
    Message('control_change', channel=2, control=11, value=104, time=13),
    Message('control_change', channel=2, control=11, value=98, time=8),
    Message('note_off', channel=2, note=80, velocity=64, time=6),
    Message('control_change', channel=2, control=11, value=92, time=5),
    Message('note_on', channel=2, note=81, velocity=85, time=15),
    Message('control_change', channel=2, control=11, value=88, time=0),
    Message('control_change', channel=2, control=11, value=83, time=5),
    Message('control_change', channel=2, control=11, value=80, time=11),
    Message('control_change', channel=2, control=11, value=76, time=10),
    Message('control_change', channel=2, control=11, value=73, time=10),
    Message('control_change', channel=2, control=11, value=70, time=11),
    Message('control_change', channel=2, control=11, value=67, time=10),
    Message('control_change', channel=2, control=11, value=65, time=10),
    Message('control_change', channel=2, control=11, value=63, time=21),
    Message('control_change', channel=2, control=11, value=61, time=31),
    Message('control_change', channel=2, control=11, value=59, time=11),
    Message('control_change', channel=2, control=11, value=58, time=10),
    Message('control_change', channel=2, control=11, value=56, time=10),
    Message('control_change', channel=2, control=11, value=54, time=25),
    Message('note_off', channel=2, note=81, velocity=64, time=119),
    Message('note_off', channel=2, note=76, velocity=64, time=38),
    Message('note_off', channel=2, note=71, velocity=64, time=15),
    Message('note_off', channel=2, note=77, velocity=64, time=21),
    Message('note_off', channel=2, note=86, velocity=64, time=28),
    Message('note_on', channel=2, note=69, velocity=46, time=120),
    Message('control_change', channel=2, control=11, value=59, time=39),
    Message('note_on', channel=2, note=71, velocity=55, time=2),
    Message('control_change', channel=2, control=11, value=70, time=13),
    Message('control_change', channel=2, control=11, value=77, time=5),
    Message('note_off', channel=2, note=69, velocity=64, time=11),
    Message('control_change', channel=2, control=11, value=88, time=0),
    Message('control_change', channel=2, control=11, value=94, time=10),
    Message('control_change', channel=2, control=11, value=102, time=10),
    Message('note_on', channel=2, note=72, velocity=68, time=7),
    Message('control_change', channel=2, control=11, value=105, time=4),
    Message('control_change', channel=2, control=11, value=99, time=32),
    Message('note_off', channel=2, note=71, velocity=64, time=5),
    Message('control_change', channel=2, control=11, value=87, time=5),
    Message('control_change', channel=2, control=11, value=79, time=11),
    Message('note_on', channel=2, note=76, velocity=75, time=6),
    Message('note_on', channel=2, note=85, velocity=96, time=1),
    Message('note_on', channel=2, note=82, velocity=88, time=1),
    Message('note_on', channel=2, note=73, velocity=88, time=1),
    Message('note_on', channel=2, note=80, velocity=75, time=1),
    Message('control_change', channel=2, control=11, value=76, time=2),
    Message('note_off', channel=2, note=72, velocity=64, time=3),
    Message('control_change', channel=2, control=11, value=85, time=35),
    Message('control_change', channel=2, control=11, value=96, time=12),
    Message('control_change', channel=2, control=11, value=106, time=20),
    Message('control_change', channel=2, control=11, value=114, time=1),
    Message('control_change', channel=2, control=11, value=119, time=10),
    Message('note_off', channel=2, note=82, velocity=64, time=4),
    Message('control_change', channel=2, control=11, value=124, time=13),
    Message('note_off', channel=2, note=80, velocity=64, time=1),
    Message('note_off', channel=2, note=76, velocity=64, time=3),
    Message('note_off', channel=2, note=85, velocity=64, time=4),
    Message('control_change', channel=2, control=11, value=118, time=23),
    Message('note_on', channel=2, note=86, velocity=89, time=4),
    Message('control_change', channel=2, control=11, value=101, time=3),
    Message('note_on', channel=2, note=76, velocity=89, time=2),
    Message('note_on', channel=2, note=80, velocity=75, time=3),
    Message('note_off', channel=2, note=73, velocity=64, time=1),
    Message('note_on', channel=2, note=82, velocity=75, time=0),
    Message('control_change', channel=2, control=11, value=92, time=3),
    Message('note_on', channel=2, note=74, velocity=93, time=2),
    Message('control_change', channel=2, control=11, value=101, time=38),
    Message('control_change', channel=2, control=11, value=111, time=10),
    Message('note_off', channel=2, note=86, velocity=64, time=4),
    Message('control_change', channel=2, control=11, value=118, time=7),
    Message('note_off', channel=2, note=80, velocity=64, time=1),
    Message('note_off', channel=2, note=82, velocity=64, time=13),
    Message('control_change', channel=2, control=11, value=120, time=0),
    Message('note_off', channel=2, note=76, velocity=64, time=4),
    Message('control_change', channel=2, control=11, value=116, time=13),
    Message('note_on', channel=2, note=76, velocity=59, time=6),
    Message('control_change', channel=2, control=11, value=100, time=4),
    Message('note_on', channel=2, note=87, velocity=102, time=2),
    Message('note_on', channel=2, note=82, velocity=73, time=0),
    Message('note_on', channel=2, note=80, velocity=82, time=2),
    Message('note_on', channel=2, note=75, velocity=96, time=1),
    Message('note_off', channel=2, note=74, velocity=64, time=1),
    Message('control_change', channel=2, control=11, value=95, time=4),
    Message('control_change', channel=2, control=11, value=107, time=54),
    Message('note_off', channel=2, note=76, velocity=64, time=7),
    Message('control_change', channel=2, control=11, value=115, time=3),
    Message('note_off', channel=2, note=87, velocity=64, time=16),
    Message('note_off', channel=2, note=80, velocity=64, time=1),
    Message('control_change', channel=2, control=11, value=119, time=0),
    Message('note_off', channel=2, note=82, velocity=64, time=1),
    Message('note_off', channel=2, note=75, velocity=64, time=32),
    Message('note_on', channel=2, note=76, velocity=100, time=0),
    Message('note_on', channel=2, note=88, velocity=98, time=1),
    Message('note_on', channel=2, note=82, velocity=73, time=1),
    Message('note_on', channel=2, note=80, velocity=71, time=1),
    Message('control_change', channel=2, control=11, value=125, time=30),
    Message('control_change', channel=2, control=11, value=127, time=10),
    Message('note_off', channel=2, note=80, velocity=64, time=40),
    Message('note_off', channel=2, note=82, velocity=64, time=4),
    Message('note_off', channel=2, note=88, velocity=64, time=5),
    Message('note_off', channel=2, note=76, velocity=64, time=23),
    Message('control_change', channel=2, control=11, value=124, time=12),
    Message('control_change', channel=2, control=11, value=105, time=11),
    Message('control_change', channel=2, control=11, value=97, time=11),
    Message('note_on', channel=2, note=72, velocity=85, time=2),
    Message('control_change', channel=2, control=11, value=91, time=8),
    Message('note_on', channel=2, note=84, velocity=87, time=3),
    Message('note_on', channel=2, note=82, velocity=102, time=3),
    Message('control_change', channel=2, control=11, value=88, time=4),
    Message('note_on', channel=2, note=80, velocity=92, time=1),
    Message('note_on', channel=2, note=83, velocity=104, time=1),
    Message('note_on', channel=2, note=76, velocity=95, time=7),
    Message('note_off', channel=2, note=82, velocity=64, time=14),
    Message('note_on', channel=2, note=71, velocity=75, time=4),
    Message('note_on', channel=2, note=81, velocity=89, time=3),
    Message('control_change', channel=2, control=11, value=100, time=4),
    Message('control_change', channel=2, control=11, value=118, time=9),
    Message('note_off', channel=2, note=84, velocity=64, time=4),
    Message('control_change', channel=2, control=11, value=127, time=6),
    Message('note_off', channel=2, note=72, velocity=64, time=1),
    Message('note_on', channel=2, note=69, velocity=64, time=29),
    Message('note_off', channel=2, note=81, velocity=64, time=19),
    Message('note_off', channel=2, note=71, velocity=64, time=1),
    Message('note_off', channel=2, note=80, velocity=64, time=8),
    Message('note_off', channel=2, note=83, velocity=64, time=2),
    Message('control_change', channel=2, control=11, value=118, time=4),
    Message('control_change', channel=2, control=11, value=108, time=14),
    Message('control_change', channel=2, control=11, value=101, time=5),
    Message('note_off', channel=2, note=76, velocity=64, time=1),
    Message('control_change', channel=2, control=11, value=91, time=9),
    Message('note_on', channel=2, note=80, velocity=90, time=3),
    Message('note_on', channel=2, note=76, velocity=65, time=7),
    Message('note_on', channel=2, note=78, velocity=85, time=1),
    Message('control_change', channel=2, control=11, value=86, time=1),
    Message('note_off', channel=2, note=80, velocity=64, time=3),
    Message('note_on', channel=2, note=81, velocity=102, time=1),
    Message('control_change', channel=2, control=11, value=82, time=8),
    Message('note_on', channel=2, note=79, velocity=96, time=3),
    Message('control_change', channel=2, control=11, value=79, time=7),
    Message('note_off', channel=2, note=78, velocity=64, time=1),
    Message('control_change', channel=2, control=11, value=77, time=9),
    Message('note_on', channel=2, note=82, velocity=28, time=6),
    Message('note_off', channel=2, note=76, velocity=64, time=1),
    Message('control_change', channel=2, control=11, value=75, time=4),
    Message('control_change', channel=2, control=11, value=71, time=10),
    Message('control_change', channel=2, control=11, value=67, time=11),
    Message('note_off', channel=2, note=82, velocity=64, time=1),
    Message('control_change', channel=2, control=11, value=64, time=9),
    Message('control_change', channel=2, control=11, value=59, time=10),
    Message('note_off', channel=2, note=79, velocity=64, time=8),
    Message('control_change', channel=2, control=11, value=56, time=3),
    Message('control_change', channel=2, control=11, value=53, time=10),
    Message('control_change', channel=2, control=11, value=50, time=15),
    Message('control_change', channel=2, control=11, value=47, time=17),
    Message('control_change', channel=2, control=11, value=44, time=10),
    Message('control_change', channel=2, control=11, value=43, time=10),
    Message('control_change', channel=2, control=11, value=41, time=10),
    Message('note_on', channel=2, note=78, velocity=16, time=30),
    Message('control_change', channel=2, control=11, value=39, time=3),
    Message('control_change', channel=2, control=11, value=37, time=42),
    Message('note_on', channel=2, note=74, velocity=15, time=30),
    Message('note_off', channel=2, note=81, velocity=64, time=11),
    Message('control_change', channel=2, control=11, value=34, time=29),
    Message('note_off', channel=2, note=78, velocity=64, time=13),
    Message('note_off', channel=2, note=74, velocity=64, time=98),
    Message('note_off', channel=2, note=69, velocity=64, time=2),
    Message('control_change', channel=2, control=11, value=50, time=44),
    Message('control_change', channel=2, control=11, value=55, time=16),
    Message('control_change', channel=2, control=11, value=57, time=27),
    Message('control_change', channel=2, control=11, value=68, time=154),
    Message('control_change', channel=2, control=11, value=82, time=9),
    Message('control_change', channel=2, control=11, value=100, time=11),
    Message('note_on', channel=2, note=64, velocity=96, time=5),
    Message('control_change', channel=2, control=11, value=117, time=7),
    Message('note_on', channel=2, note=73, velocity=119, time=1),
    Message('note_on', channel=2, note=78, velocity=113, time=3),
    Message('note_on', channel=2, note=75, velocity=113, time=3),
    Message('control_change', channel=2, control=11, value=127, time=3),
    Message('note_on', channel=2, note=69, velocity=85, time=1),
    Message('note_on', channel=2, note=71, velocity=87, time=5),
    Message('note_off', channel=2, note=75, velocity=64, time=4),
    Message('control_change', channel=2, control=11, value=125, time=51),
    Message('note_off', channel=2, note=71, velocity=64, time=5),
    Message('note_on', channel=2, note=66, velocity=58, time=1),
    Message('note_off', channel=2, note=64, velocity=64, time=7),
    Message('note_off', channel=2, note=73, velocity=64, time=1),
    Message('control_change', channel=2, control=11, value=114, time=1),
    Message('control_change', channel=2, control=11, value=94, time=7),
    Message('control_change', channel=2, control=11, value=86, time=10),
    Message('note_off', channel=2, note=69, velocity=64, time=2),
    Message('control_change', channel=2, control=11, value=83, time=13),
    Message('note_off', channel=2, note=78, velocity=64, time=16),
    Message('note_off', channel=2, note=66, velocity=64, time=12),
    Message('control_change', channel=2, control=11, value=88, time=9),
    Message('control_change', channel=2, control=11, value=111, time=10),
    Message('control_change', channel=2, control=11, value=126, time=11),
    Message('control_change', channel=2, control=11, value=127, time=10),
    Message('control_change', channel=2, control=11, value=126, time=79),
    Message('control_change', channel=2, control=11, value=122, time=4),
    Message('control_change', channel=2, control=11, value=116, time=10),
    Message('control_change', channel=2, control=11, value=113, time=11),
    Message('control_change', channel=2, control=11, value=106, time=10),
    Message('control_change', channel=2, control=11, value=101, time=11),
    Message('control_change', channel=2, control=11, value=93, time=17),
    Message('control_change', channel=2, control=11, value=88, time=3),
    Message('control_change', channel=2, control=11, value=83, time=10),
    Message('control_change', channel=2, control=11, value=80, time=18),
    Message('control_change', channel=2, control=11, value=77, time=14),
    Message('control_change', channel=2, control=11, value=74, time=12),
    Message('control_change', channel=2, control=11, value=71, time=8),
    Message('control_change', channel=2, control=11, value=69, time=11),
    Message('control_change', channel=2, control=11, value=67, time=64),
    Message('note_on', channel=2, note=52, velocity=67, time=387),
    Message('note_on', channel=2, note=53, velocity=68, time=13),
    Message('note_off', channel=2, note=52, velocity=64, time=7),
    Message('note_on', channel=2, note=55, velocity=65, time=3),
    Message('note_on', channel=2, note=57, velocity=55, time=21),
    Message('control_change', channel=2, control=11, value=71, time=1),
    Message('note_off', channel=2, note=53, velocity=64, time=1),
    Message('note_on', channel=2, note=59, velocity=42, time=1),
    Message('control_change', channel=2, control=11, value=85, time=1),
    Message('note_off', channel=2, note=55, velocity=64, time=2),
    Message('note_on', channel=2, note=60, velocity=43, time=6),
    Message('control_change', channel=2, control=11, value=100, time=2),
    Message('note_off', channel=2, note=57, velocity=64, time=16),
    Message('note_on', channel=2, note=62, velocity=49, time=1),
    Message('control_change', channel=2, control=11, value=115, time=1),
    Message('note_off', channel=2, note=59, velocity=64, time=1),
    Message('note_on', channel=2, note=64, velocity=59, time=2),
    Message('control_change', channel=2, control=11, value=127, time=1),
    Message('note_on', channel=2, note=85, velocity=79, time=6),
    Message('note_off', channel=2, note=60, velocity=64, time=3),
    Message('note_on', channel=2, note=90, velocity=82, time=1),
    Message('note_on', channel=2, note=81, velocity=82, time=0),
    Message('note_on', channel=2, note=65, velocity=62, time=2),
    Message('note_on', channel=2, note=79, velocity=87, time=1),
    Message('note_on', channel=2, note=88, velocity=92, time=6),
    Message('note_on', channel=2, note=93, velocity=100, time=0),
    Message('note_off', channel=2, note=62, velocity=64, time=2),
    Message('note_on', channel=2, note=67, velocity=58, time=5),
    Message('note_off', channel=2, note=64, velocity=64, time=8),
    Message('note_off', channel=2, note=65, velocity=64, time=13),
    Message('note_on', channel=2, note=69, velocity=71, time=1),
    Message('note_off', channel=2, note=67, velocity=64, time=11),
    Message('note_off', channel=2, note=69, velocity=64, time=8),
    Message('control_change', channel=2, control=91, value=0, time=5),
    Message('control_change', channel=2, control=11, value=124, time=22),
    Message('control_change', channel=2, control=11, value=113, time=10),
    Message('control_change', channel=2, control=11, value=105, time=13),
    Message('control_change', channel=2, control=11, value=95, time=7),
    Message('control_change', channel=2, control=11, value=89, time=11),
    Message('control_change', channel=2, control=11, value=81, time=10),
    Message('control_change', channel=2, control=11, value=76, time=9),
    Message('note_off', channel=2, note=93, velocity=64, time=8),
    Message('control_change', channel=2, control=11, value=71, time=4),
    Message('note_off', channel=2, note=90, velocity=64, time=1),
    Message('note_off', channel=2, note=88, velocity=64, time=3),
    Message('note_off', channel=2, note=85, velocity=64, time=5),
    Message('control_change', channel=2, control=11, value=65, time=1),
    Message('control_change', channel=2, control=11, value=61, time=11),
    Message('control_change', channel=2, control=11, value=58, time=16),
    Message('note_off', channel=2, note=81, velocity=64, time=1),
    Message('control_change', channel=2, control=11, value=55, time=4),
    Message('note_on', channel=2, note=77, velocity=87, time=27),
    Message('control_change', channel=2, control=11, value=52, time=1),
    Message('note_off', channel=2, note=79, velocity=64, time=6),
    Message('note_on', channel=2, note=76, velocity=96, time=9),
    Message('control_change', channel=2, control=11, value=50, time=16),
    Message('note_off', channel=2, note=77, velocity=64, time=1),
    Message('note_on', channel=2, note=74, velocity=95, time=6),
    Message('note_off', channel=2, note=76, velocity=64, time=12),
    Message('note_on', channel=2, note=72, velocity=90, time=13),
    Message('control_change', channel=2, control=11, value=49, time=12),
    Message('note_off', channel=2, note=74, velocity=64, time=3),
    Message('note_on', channel=2, note=71, velocity=92, time=9),
    Message('note_off', channel=2, note=72, velocity=64, time=11),
    Message('control_change', channel=2, control=11, value=46, time=9),
    Message('note_on', channel=2, note=69, velocity=83, time=4),
    Message('note_off', channel=2, note=71, velocity=64, time=8),
    Message('control_change', channel=2, control=11, value=44, time=9),
    Message('note_off', channel=2, note=69, velocity=64, time=19),
    Message('note_on', channel=2, note=67, velocity=58, time=0),
    Message('control_change', channel=2, control=11, value=43, time=2),
    Message('note_off', channel=2, note=67, velocity=64, time=18),
    Message('control_change', channel=2, control=11, value=40, time=3),
    Message('note_on', channel=2, note=65, velocity=71, time=1),
    Message('control_change', channel=2, control=11, value=38, time=12),
    Message('control_change', channel=2, control=11, value=36, time=8),
    Message('note_off', channel=2, note=65, velocity=64, time=1),
    Message('note_on', channel=2, note=64, velocity=75, time=4),
    Message('control_change', channel=2, control=11, value=34, time=17),
    Message('note_off', channel=2, note=64, velocity=64, time=5),
    Message('note_on', channel=2, note=62, velocity=85, time=5),
    Message('control_change', channel=2, control=11, value=31, time=18),
    Message('control_change', channel=2, control=11, value=27, time=3),
    Message('note_off', channel=2, note=62, velocity=64, time=5),
    Message('control_change', channel=2, control=11, value=23, time=5),
    Message('note_on', channel=2, note=60, velocity=70, time=2),
    Message('control_change', channel=2, control=11, value=21, time=11),
    Message('note_off', channel=2, note=60, velocity=64, time=5),
    Message('control_change', channel=2, control=11, value=18, time=3),
    Message('control_change', channel=2, control=11, value=16, time=10),
    Message('control_change', channel=2, control=11, value=14, time=14),
    Message('control_change', channel=2, control=11, value=11, time=7),
    Message('control_change', channel=2, control=11, value=5, time=10),
    Message('control_change', channel=2, control=11, value=0, time=11),
    Message('control_change', channel=2, control=0, value=0, time=937),
    Message('control_change', channel=2, control=32, value=10, time=0),
    Message('program_change', channel=2, program=91, time=0),
    Message('control_change', channel=2, control=0, value=0, time=15360),
    Message('control_change', channel=2, control=32, value=4, time=0),
    Message('program_change', channel=2, program=39, time=0),
    Message('control_change', channel=2, control=11, value=6, time=987),
    Message('note_on', channel=2, note=99, velocity=79, time=148),
    Message('control_change', channel=2, control=11, value=11, time=117),
    Message('control_change', channel=2, control=11, value=13, time=28),
    Message('control_change', channel=2, control=11, value=15, time=30),
    Message('control_change', channel=2, control=11, value=17, time=59),
    Message('control_change', channel=2, control=11, value=19, time=14),
    Message('control_change', channel=2, control=11, value=21, time=31),
    Message('control_change', channel=2, control=11, value=23, time=22),
    Message('control_change', channel=2, control=11, value=25, time=123),
    Message('control_change', channel=2, control=11, value=26, time=31),
    Message('control_change', channel=2, control=11, value=28, time=53),
    Message('control_change', channel=2, control=11, value=30, time=71),
    Message('note_off', channel=2, note=99, velocity=64, time=860),
    Message('control_change', channel=2, control=11, value=15, time=73),
    Message('note_on', channel=2, note=99, velocity=75, time=182),
    Message('note_on', channel=2, note=98, velocity=54, time=1464),
    Message('note_off', channel=2, note=98, velocity=64, time=475),
    Message('control_change', channel=2, control=11, value=18, time=411),
    Message('control_change', channel=2, control=11, value=24, time=871),
    Message('control_change', channel=2, control=11, value=26, time=62),
    Message('note_on', channel=2, note=98, velocity=54, time=80),
    Message('control_change', channel=2, control=11, value=28, time=35),
    Message('control_change', channel=2, control=11, value=29, time=444),
    Message('control_change', channel=2, control=11, value=31, time=31),
    Message('note_off', channel=2, note=98, velocity=64, time=20),
    Message('control_change', channel=2, control=11, value=27, time=146),
    Message('control_change', channel=2, control=11, value=25, time=21),
    Message('control_change', channel=2, control=11, value=23, time=30),
    Message('control_change', channel=2, control=11, value=22, time=22),
    Message('control_change', channel=2, control=11, value=20, time=32),
    Message('control_change', channel=2, control=11, value=18, time=62),
    Message('control_change', channel=2, control=11, value=16, time=56),
    Message('control_change', channel=2, control=11, value=14, time=59),
    Message('control_change', channel=2, control=11, value=13, time=153),
    Message('control_change', channel=2, control=11, value=17, time=626),
    Message('control_change', channel=2, control=11, value=19, time=39),
    Message('control_change', channel=2, control=11, value=20, time=52),
    Message('control_change', channel=2, control=11, value=22, time=52),
    Message('control_change', channel=2, control=11, value=24, time=51),
    Message('note_on', channel=2, note=98, velocity=70, time=21),
    Message('note_off', channel=2, note=98, velocity=64, time=485),
    Message('control_change', channel=2, control=11, value=20, time=241),
    Message('control_change', channel=2, control=11, value=18, time=93),
    Message('control_change', channel=2, control=11, value=16, time=125),
    Message('control_change', channel=2, control=11, value=20, time=881),
    Message('control_change', channel=2, control=11, value=23, time=31),
    Message('control_change', channel=2, control=11, value=25, time=11),
    Message('control_change', channel=2, control=11, value=26, time=10),
    Message('note_on', channel=2, note=105, velocity=75, time=8),
    Message('note_on', channel=2, note=106, velocity=62, time=0),
    Message('control_change', channel=2, control=11, value=28, time=4),
    Message('control_change', channel=2, control=11, value=30, time=19),
    Message('note_off', channel=2, note=99, velocity=64, time=8),
    Message('control_change', channel=2, control=11, value=25, time=99),
    Message('control_change', channel=2, control=11, value=23, time=38),
    Message('control_change', channel=2, control=11, value=22, time=22),
    Message('control_change', channel=2, control=11, value=20, time=20),
    Message('control_change', channel=2, control=11, value=18, time=10),
    Message('control_change', channel=2, control=11, value=16, time=31),
    Message('note_on', channel=2, note=99, velocity=88, time=229),
    Message('control_change', channel=2, control=11, value=22, time=1),
    Message('control_change', channel=2, control=11, value=26, time=10),
    Message('note_off', channel=2, note=106, velocity=64, time=14),
    Message('note_off', channel=2, note=105, velocity=64, time=3),
    Message('control_change', channel=2, control=11, value=22, time=212),
    Message('control_change', channel=2, control=11, value=20, time=20),
    Message('control_change', channel=2, control=11, value=19, time=21),
    Message('control_change', channel=2, control=11, value=17, time=31),
    Message('note_off', channel=2, note=99, velocity=64, time=1007),
    Message('note_on', channel=2, note=99, velocity=77, time=599),
    Message('note_off', channel=2, note=99, velocity=64, time=1446),
    Message('note_on', channel=2, note=106, velocity=73, time=0),
    Message('note_on', channel=2, note=107, velocity=90, time=1),
    Message('control_change', channel=2, control=11, value=21, time=411),
    Message('control_change', channel=2, control=11, value=20, time=146),
    Message('control_change', channel=2, control=11, value=19, time=265),
    Message('control_change', channel=2, control=11, value=18, time=280),
    Message('control_change', channel=2, control=11, value=17, time=278),
    Message('note_on', channel=2, note=105, velocity=73, time=60),
    Message('note_off', channel=2, note=107, velocity=64, time=27),
    Message('control_change', channel=2, control=11, value=16, time=384),
    Message('control_change', channel=2, control=11, value=17, time=15),
    Message('control_change', channel=2, control=11, value=18, time=15),
    Message('control_change', channel=2, control=11, value=19, time=4),
    Message('control_change', channel=2, control=11, value=20, time=21),
    Message('control_change', channel=2, control=11, value=21, time=8),
    Message('note_on', channel=2, note=107, velocity=75, time=12),
    Message('note_off', channel=2, note=105, velocity=64, time=17),
    Message('control_change', channel=2, control=11, value=17, time=315),
    Message('control_change', channel=2, control=11, value=15, time=82),
    Message('control_change', channel=2, control=11, value=13, time=125),
    Message('control_change', channel=2, control=11, value=11, time=93),
    Message('control_change', channel=2, control=11, value=9, time=106),
    Message('note_off', channel=2, note=107, velocity=64, time=712),
    Message('note_on', channel=2, note=105, velocity=74, time=3),
    Message('note_on', channel=2, note=107, velocity=58, time=501),
    Message('note_off', channel=2, note=105, velocity=64, time=8),
    Message('control_change', channel=2, control=11, value=5, time=434),
    Message('control_change', channel=2, control=11, value=2, time=82),
    Message('control_change', channel=2, control=11, value=0, time=42),
    Message('control_change', channel=2, control=1, value=127, time=0),
    Message('control_change', channel=2, control=1, value=0, time=2),
    Message('note_off', channel=2, note=106, velocity=64, time=490),
    Message('note_off', channel=2, note=107, velocity=64, time=9),
    Message('control_change', channel=2, control=0, value=0, time=1421),
    Message('control_change', channel=2, control=32, value=10, time=0),
    Message('program_change', channel=2, program=91, time=0),
    MetaMessage('end_of_track', time=64238)]),
  MidiTrack([
    MetaMessage('track_name', name="Raggin' Bass\x00undlach.de\x00", time=0),
    MetaMessage('channel_prefix', channel=3, time=0),
    Message('control_change', channel=3, control=0, value=0, time=0),
    Message('control_change', channel=3, control=32, value=13, time=0),
    Message('program_change', channel=3, program=3, time=0),
    Message('control_change', channel=3, control=7, value=110, time=0),
    Message('control_change', channel=3, control=10, value=64, time=0),
    Message('control_change', channel=3, control=93, value=0, time=0),
    Message('control_change', channel=3, control=91, value=0, time=0),
    Message('pitchwheel', channel=3, pitch=-8192, time=11708),
    Message('control_change', channel=3, control=11, value=127, time=0),
    Message('note_on', channel=3, note=44, velocity=127, time=1202),
    Message('pitchwheel', channel=3, pitch=-8026, time=225),
    Message('pitchwheel', channel=3, pitch=-7865, time=7),
    Message('pitchwheel', channel=3, pitch=-7704, time=11),
    Message('pitchwheel', channel=3, pitch=-7543, time=8),
    Message('pitchwheel', channel=3, pitch=-7383, time=10),
    Message('pitchwheel', channel=3, pitch=-7222, time=10),
    Message('pitchwheel', channel=3, pitch=-7061, time=10),
    Message('pitchwheel', channel=3, pitch=-6900, time=9),
    Message('pitchwheel', channel=3, pitch=-6739, time=9),
    Message('pitchwheel', channel=3, pitch=-6578, time=10),
    Message('pitchwheel', channel=3, pitch=-6418, time=9),
    Message('pitchwheel', channel=3, pitch=-6257, time=10),
    Message('pitchwheel', channel=3, pitch=-6096, time=14),
    Message('pitchwheel', channel=3, pitch=-5935, time=5),
    Message('pitchwheel', channel=3, pitch=-5774, time=14),
    Message('pitchwheel', channel=3, pitch=-5613, time=5),
    Message('pitchwheel', channel=3, pitch=-5452, time=10),
    Message('pitchwheel', channel=3, pitch=-5292, time=10),
    Message('pitchwheel', channel=3, pitch=-5131, time=9),
    Message('pitchwheel', channel=3, pitch=-4970, time=10),
    Message('pitchwheel', channel=3, pitch=-4809, time=12),
    Message('pitchwheel', channel=3, pitch=-4648, time=18),
    Message('pitchwheel', channel=3, pitch=-4487, time=1),
    Message('pitchwheel', channel=3, pitch=-4327, time=7),
    Message('pitchwheel', channel=3, pitch=-4166, time=19),
    Message('pitchwheel', channel=3, pitch=-4005, time=1),
    Message('pitchwheel', channel=3, pitch=-3844, time=10),
    Message('pitchwheel', channel=3, pitch=-3683, time=9),
    Message('pitchwheel', channel=3, pitch=-3522, time=14),
    Message('pitchwheel', channel=3, pitch=-3361, time=5),
    Message('pitchwheel', channel=3, pitch=-3201, time=9),
    Message('pitchwheel', channel=3, pitch=-3040, time=14),
    Message('pitchwheel', channel=3, pitch=-2879, time=6),
    Message('pitchwheel', channel=3, pitch=-2718, time=9),
    Message('pitchwheel', channel=3, pitch=-2557, time=16),
    Message('pitchwheel', channel=3, pitch=-2396, time=4),
    Message('pitchwheel', channel=3, pitch=-2236, time=10),
    Message('pitchwheel', channel=3, pitch=-2075, time=9),
    Message('pitchwheel', channel=3, pitch=-1914, time=9),
    Message('pitchwheel', channel=3, pitch=-1753, time=11),
    Message('pitchwheel', channel=3, pitch=-1592, time=9),
    Message('pitchwheel', channel=3, pitch=-1431, time=10),
    Message('pitchwheel', channel=3, pitch=-1270, time=11),
    Message('pitchwheel', channel=3, pitch=-1110, time=8),
    Message('pitchwheel', channel=3, pitch=-949, time=10),
    Message('pitchwheel', channel=3, pitch=-788, time=12),
    Message('pitchwheel', channel=3, pitch=-627, time=7),
    Message('pitchwheel', channel=3, pitch=-466, time=12),
    Message('pitchwheel', channel=3, pitch=-305, time=7),
    Message('pitchwheel', channel=3, pitch=-145, time=9),
    Message('pitchwheel', channel=3, pitch=0, time=14),
    Message('note_on', channel=3, note=44, velocity=115, time=13),
    Message('note_off', channel=3, note=44, velocity=64, time=1),
    Message('note_off', channel=3, note=44, velocity=64, time=291),
    Message('note_on', channel=3, note=44, velocity=116, time=1504),
    Message('note_off', channel=3, note=44, velocity=64, time=285),
    Message('note_on', channel=3, note=48, velocity=115, time=74),
    Message('note_off', channel=3, note=48, velocity=64, time=147),
    Message('note_on', channel=3, note=51, velocity=114, time=94),
    Message('note_on', channel=3, note=51, velocity=114, time=1),
    Message('note_off', channel=3, note=51, velocity=64, time=182),
    Message('note_off', channel=3, note=51, velocity=64, time=1),
    Message('note_on', channel=3, note=44, velocity=114, time=1256),
    Message('note_off', channel=3, note=44, velocity=64, time=152),
    Message('note_on', channel=3, note=48, velocity=110, time=89),
    Message('note_on', channel=3, note=51, velocity=110, time=150),
    Message('note_off', channel=3, note=48, velocity=64, time=6),
    Message('note_off', channel=3, note=51, velocity=64, time=118),
    Message('note_on', channel=3, note=53, velocity=114, time=103),
    Message('note_off', channel=3, note=53, velocity=64, time=133),
    Message('note_on', channel=3, note=51, velocity=112, time=103),
    Message('note_off', channel=3, note=51, velocity=64, time=88),
    Message('note_on', channel=3, note=53, velocity=112, time=33),
    Message('note_on', channel=3, note=54, velocity=110, time=54),
    Message('note_off', channel=3, note=53, velocity=64, time=27),
    Message('note_off', channel=3, note=54, velocity=64, time=107),
    Message('note_on', channel=3, note=53, velocity=113, time=59),
    Message('note_off', channel=3, note=53, velocity=64, time=133),
    Message('note_on', channel=3, note=51, velocity=110, time=102),
    Message('note_off', channel=3, note=51, velocity=64, time=224),
    Message('note_on', channel=3, note=49, velocity=106, time=3),
    Message('note_off', channel=3, note=49, velocity=64, time=120),
    Message('note_on', channel=3, note=51, velocity=112, time=31),
    Message('note_off', channel=3, note=51, velocity=64, time=128),
    Message('note_on', channel=3, note=47, velocity=111, time=104),
    Message('note_on', channel=3, note=48, velocity=106, time=48),
    Message('note_off', channel=3, note=47, velocity=64, time=29),
    Message('note_off', channel=3, note=48, velocity=64, time=67),
    Message('note_on', channel=3, note=44, velocity=110, time=107),
    Message('note_off', channel=3, note=44, velocity=64, time=124),
    Message('note_on', channel=3, note=42, velocity=105, time=100),
    Message('note_off', channel=3, note=42, velocity=64, time=110),
    Message('note_on', channel=3, note=44, velocity=113, time=7),
    Message('note_off', channel=3, note=44, velocity=64, time=187),
    Message('note_on', channel=3, note=65, velocity=98, time=175),
    Message('note_on', channel=3, note=64, velocity=95, time=43),
    Message('note_on', channel=3, note=63, velocity=92, time=56),
    Message('note_off', channel=3, note=65, velocity=64, time=17),
    Message('note_off', channel=3, note=64, velocity=64, time=52),
    Message('note_on', channel=3, note=60, velocity=100, time=60),
    Message('note_off', channel=3, note=63, velocity=64, time=68),
    Message('note_on', channel=3, note=59, velocity=93, time=43),
    Message('note_off', channel=3, note=60, velocity=64, time=37),
    Message('note_on', channel=3, note=50, velocity=87, time=84),
    Message('note_off', channel=3, note=59, velocity=64, time=38),
    Message('note_on', channel=3, note=51, velocity=79, time=80),
    Message('note_off', channel=3, note=50, velocity=64, time=17),
    Message('note_on', channel=3, note=54, velocity=102, time=103),
    Message('note_off', channel=3, note=51, velocity=64, time=44),
    Message('note_on', channel=3, note=44, velocity=92, time=77),
    Message('note_off', channel=3, note=54, velocity=64, time=15),
    Message('pitchwheel', channel=3, pitch=-115, time=68),
    Message('pitchwheel', channel=3, pitch=-393, time=10),
    Message('pitchwheel', channel=3, pitch=-671, time=9),
    Message('pitchwheel', channel=3, pitch=-949, time=10),
    Message('pitchwheel', channel=3, pitch=-1227, time=9),
    Message('pitchwheel', channel=3, pitch=-1504, time=9),
    Message('pitchwheel', channel=3, pitch=-1782, time=11),
    Message('pitchwheel', channel=3, pitch=-2060, time=9),
    Message('pitchwheel', channel=3, pitch=-2338, time=12),
    Message('pitchwheel', channel=3, pitch=-2616, time=7),
    Message('pitchwheel', channel=3, pitch=-2893, time=11),
    Message('pitchwheel', channel=3, pitch=-3171, time=14),
    Message('pitchwheel', channel=3, pitch=-3449, time=5),
    Message('pitchwheel', channel=3, pitch=-3727, time=9),
    Message('pitchwheel', channel=3, pitch=-4005, time=13),
    Message('pitchwheel', channel=3, pitch=-4282, time=7),
    Message('pitchwheel', channel=3, pitch=-4560, time=9),
    Message('pitchwheel', channel=3, pitch=-4838, time=11),
    Message('pitchwheel', channel=3, pitch=-5116, time=8),
    Message('pitchwheel', channel=3, pitch=-5394, time=9),
    Message('pitchwheel', channel=3, pitch=-5672, time=11),
    Message('pitchwheel', channel=3, pitch=-5949, time=9),
    Message('pitchwheel', channel=3, pitch=-6227, time=10),
    Message('pitchwheel', channel=3, pitch=-6505, time=14),
    Message('pitchwheel', channel=3, pitch=-6783, time=4),
    Message('pitchwheel', channel=3, pitch=-7061, time=11),
    Message('pitchwheel', channel=3, pitch=-7338, time=9),
    Message('pitchwheel', channel=3, pitch=-7616, time=13),
    Message('pitchwheel', channel=3, pitch=0, time=10),
    Message('note_off', channel=3, note=44, velocity=64, time=5),
    Message('note_on', channel=3, note=44, velocity=112, time=1),
    Message('pitchwheel', channel=3, pitch=-115, time=378),
    Message('pitchwheel', channel=3, pitch=-290, time=10),
    Message('pitchwheel', channel=3, pitch=-465, time=16),
    Message('pitchwheel', channel=3, pitch=-640, time=4),
    Message('pitchwheel', channel=3, pitch=-814, time=9),
    Message('pitchwheel', channel=3, pitch=-989, time=14),
    Message('pitchwheel', channel=3, pitch=-1164, time=5),
    Message('pitchwheel', channel=3, pitch=-1338, time=9),
    Message('pitchwheel', channel=3, pitch=-1513, time=13),
    Message('pitchwheel', channel=3, pitch=-1688, time=7),
    Message('pitchwheel', channel=3, pitch=-1863, time=9),
    Message('pitchwheel', channel=3, pitch=-2037, time=10),
    Message('pitchwheel', channel=3, pitch=-2212, time=9),
    Message('pitchwheel', channel=3, pitch=-2387, time=10),
    Message('pitchwheel', channel=3, pitch=-2561, time=10),
    Message('pitchwheel', channel=3, pitch=-2736, time=8),
    Message('pitchwheel', channel=3, pitch=-2911, time=11),
    Message('pitchwheel', channel=3, pitch=-3085, time=9),
    Message('pitchwheel', channel=3, pitch=-3260, time=10),
    Message('pitchwheel', channel=3, pitch=-3435, time=10),
    Message('pitchwheel', channel=3, pitch=-3610, time=10),
    Message('pitchwheel', channel=3, pitch=-3784, time=9),
    Message('pitchwheel', channel=3, pitch=-3959, time=9),
    Message('pitchwheel', channel=3, pitch=-4134, time=10),
    Message('pitchwheel', channel=3, pitch=-4308, time=11),
    Message('pitchwheel', channel=3, pitch=-4483, time=8),
    Message('pitchwheel', channel=3, pitch=-4658, time=10),
    Message('pitchwheel', channel=3, pitch=-4833, time=13),
    Message('pitchwheel', channel=3, pitch=-5007, time=7),
    Message('pitchwheel', channel=3, pitch=-5182, time=8),
    Message('pitchwheel', channel=3, pitch=-5357, time=17),
    Message('pitchwheel', channel=3, pitch=-5531, time=3),
    Message('pitchwheel', channel=3, pitch=-5706, time=10),
    Message('pitchwheel', channel=3, pitch=-5881, time=15),
    Message('pitchwheel', channel=3, pitch=-6056, time=4),
    Message('pitchwheel', channel=3, pitch=-6230, time=10),
    Message('pitchwheel', channel=3, pitch=-6405, time=10),
    Message('pitchwheel', channel=3, pitch=-6580, time=9),
    Message('pitchwheel', channel=3, pitch=-6754, time=9),
    Message('pitchwheel', channel=3, pitch=-6929, time=10),
    Message('pitchwheel', channel=3, pitch=-7104, time=10),
    Message('pitchwheel', channel=3, pitch=-7279, time=9),
    Message('note_off', channel=3, note=44, velocity=64, time=5),
    Message('pitchwheel', channel=3, pitch=-7453, time=4),
    Message('pitchwheel', channel=3, pitch=-7628, time=10),
    Message('pitchwheel', channel=3, pitch=-7803, time=10),
    Message('pitchwheel', channel=3, pitch=-7977, time=9),
    Message('pitchwheel', channel=3, pitch=-8152, time=13),
    Message('pitchwheel', channel=3, pitch=0, time=15),
    Message('note_on', channel=3, note=44, velocity=115, time=603),
    Message('note_off', channel=3, note=44, velocity=64, time=244),
    Message('note_on', channel=3, note=48, velocity=116, time=114),
    Message('note_off', channel=3, note=48, velocity=64, time=132),
    Message('note_on', channel=3, note=51, velocity=116, time=108),
    Message('note_off', channel=3, note=51, velocity=64, time=160),
    Message('note_on', channel=3, note=44, velocity=111, time=1280),
    Message('note_off', channel=3, note=44, velocity=64, time=171),
    Message('note_on', channel=3, note=48, velocity=112, time=69),
    Message('note_off', channel=3, note=48, velocity=64, time=151),
    Message('note_on', channel=3, note=51, velocity=112, time=8),
    Message('note_off', channel=3, note=51, velocity=64, time=115),
    Message('note_on', channel=3, note=53, velocity=115, time=113),
    Message('note_off', channel=3, note=53, velocity=64, time=119),
    Message('note_on', channel=3, note=51, velocity=115, time=109),
    Message('note_off', channel=3, note=51, velocity=64, time=87),
    Message('note_on', channel=3, note=53, velocity=112, time=22),
    Message('note_on', channel=3, note=54, velocity=110, time=53),
    Message('note_off', channel=3, note=53, velocity=64, time=18),
    Message('note_off', channel=3, note=54, velocity=64, time=84),
    Message('note_on', channel=3, note=53, velocity=113, time=88),
    Message('note_off', channel=3, note=53, velocity=64, time=128),
    Message('note_on', channel=3, note=51, velocity=110, time=104),
    Message('note_off', channel=3, note=51, velocity=64, time=234),
    Message('note_on', channel=3, note=49, velocity=107, time=7),
    Message('note_off', channel=3, note=49, velocity=64, time=146),
    Message('note_on', channel=3, note=51, velocity=114, time=3),
    Message('note_off', channel=3, note=51, velocity=64, time=119),
    Message('note_on', channel=3, note=47, velocity=109, time=102),
    Message('note_on', channel=3, note=48, velocity=110, time=52),
    Message('note_off', channel=3, note=47, velocity=64, time=17),
    Message('note_off', channel=3, note=48, velocity=64, time=66),
    Message('note_on', channel=3, note=44, velocity=108, time=100),
    Message('note_off', channel=3, note=44, velocity=64, time=124),
    Message('note_on', channel=3, note=42, velocity=104, time=110),
    Message('note_off', channel=3, note=42, velocity=64, time=118),
    Message('note_on', channel=3, note=44, velocity=112, time=2),
    Message('note_off', channel=3, note=44, velocity=64, time=184),
    Message('note_on', channel=3, note=53, velocity=116, time=1027),
    Message('note_on', channel=3, note=45, velocity=104, time=590),
    Message('note_off', channel=3, note=53, velocity=64, time=29),
    Message('note_on', channel=3, note=41, velocity=93, time=102),
    Message('note_off', channel=3, note=45, velocity=64, time=29),
    Message('note_off', channel=3, note=41, velocity=64, time=67),
    Message('note_on', channel=3, note=40, velocity=112, time=17),
    Message('note_off', channel=3, note=40, velocity=64, time=703),
    Message('note_on', channel=3, note=43, velocity=99, time=11),
    Message('note_on', channel=3, note=44, velocity=110, time=120),
    Message('note_off', channel=3, note=43, velocity=64, time=28),
    Message('note_off', channel=3, note=44, velocity=64, time=75),
    Message('note_on', channel=3, note=45, velocity=112, time=17),
    Message('control_change', channel=3, control=11, value=127, time=1103),
    Message('control_change', channel=3, control=11, value=126, time=86),
    Message('control_change', channel=3, control=11, value=123, time=12),
    Message('control_change', channel=3, control=11, value=125, time=7),
    Message('control_change', channel=3, control=11, value=124, time=28),
    Message('control_change', channel=3, control=11, value=118, time=85),
    Message('control_change', channel=3, control=11, value=113, time=119),
    Message('control_change', channel=3, control=11, value=108, time=120),
    Message('control_change', channel=3, control=11, value=103, time=119),
    Message('control_change', channel=3, control=11, value=98, time=121),
    Message('control_change', channel=3, control=11, value=93, time=120),
    Message('note_off', channel=3, note=45, velocity=64, time=106),
    Message('control_change', channel=3, control=11, value=87, time=15),
    Message('control_change', channel=3, control=1, value=11, time=71),
    Message('control_change', channel=3, control=1, value=19, time=11),
    Message('control_change', channel=3, control=1, value=23, time=28),
    Message('control_change', channel=3, control=11, value=82, time=9),
    Message('control_change', channel=3, control=1, value=27, time=19),
    Message('control_change', channel=3, control=1, value=32, time=78),
    Message('control_change', channel=3, control=1, value=36, time=21),
    Message('control_change', channel=3, control=11, value=77, time=5),
    Message('control_change', channel=3, control=1, value=44, time=16),
    Message('control_change', channel=3, control=1, value=52, time=20),
    Message('control_change', channel=3, control=1, value=56, time=12),
    Message('control_change', channel=3, control=1, value=60, time=9),
    Message('control_change', channel=3, control=1, value=65, time=11),
    Message('control_change', channel=3, control=1, value=71, time=10),
    Message('control_change', channel=3, control=1, value=77, time=10),
    Message('control_change', channel=3, control=1, value=81, time=11),
    Message('control_change', channel=3, control=1, value=85, time=10),
    Message('control_change', channel=3, control=11, value=72, time=8),
    Message('control_change', channel=3, control=1, value=89, time=3),
    Message('control_change', channel=3, control=1, value=93, time=19),
    Message('control_change', channel=3, control=1, value=96, time=3),
    Message('control_change', channel=3, control=1, value=100, time=9),
    Message('control_change', channel=3, control=1, value=104, time=20),
    Message('control_change', channel=3, control=1, value=108, time=24),
    Message('control_change', channel=3, control=1, value=112, time=18),
    Message('control_change', channel=3, control=1, value=116, time=16),
    Message('control_change', channel=3, control=11, value=67, time=11),
    Message('control_change', channel=3, control=1, value=120, time=4),
    Message('control_change', channel=3, control=1, value=124, time=31),
    Message('control_change', channel=3, control=11, value=62, time=82),
    Message('control_change', channel=3, control=1, value=127, time=32),
    Message('control_change', channel=3, control=1, value=127, time=1),
    Message('control_change', channel=3, control=11, value=57, time=88),
    Message('control_change', channel=3, control=11, value=52, time=120),
    Message('control_change', channel=3, control=11, value=47, time=120),
    Message('control_change', channel=3, control=11, value=42, time=120),
    Message('control_change', channel=3, control=11, value=36, time=120),
    Message('control_change', channel=3, control=11, value=31, time=119),
    Message('control_change', channel=3, control=11, value=26, time=120),
    Message('control_change', channel=3, control=11, value=21, time=120),
    Message('control_change', channel=3, control=1, value=126, time=98),
    Message('control_change', channel=3, control=1, value=122, time=14),
    Message('control_change', channel=3, control=1, value=116, time=7),
    Message('control_change', channel=3, control=11, value=16, time=2),
    Message('control_change', channel=3, control=1, value=110, time=8),
    Message('control_change', channel=3, control=1, value=104, time=17),
    Message('control_change', channel=3, control=1, value=98, time=4),
    Message('control_change', channel=3, control=1, value=93, time=10),
    Message('control_change', channel=3, control=1, value=87, time=13),
    Message('control_change', channel=3, control=1, value=81, time=8),
    Message('control_change', channel=3, control=1, value=75, time=10),
    Message('control_change', channel=3, control=1, value=69, time=13),
    Message('control_change', channel=3, control=1, value=62, time=8),
    Message('control_change', channel=3, control=1, value=56, time=10),
    Message('control_change', channel=3, control=1, value=50, time=11),
    Message('control_change', channel=3, control=11, value=11, time=7),
    Message('control_change', channel=3, control=1, value=40, time=3),
    Message('control_change', channel=3, control=1, value=34, time=10),
    Message('control_change', channel=3, control=1, value=25, time=13),
    Message('control_change', channel=3, control=1, value=15, time=9),
    Message('control_change', channel=3, control=1, value=9, time=17),
    Message('control_change', channel=3, control=1, value=0, time=5),
    Message('control_change', channel=3, control=11, value=6, time=64),
    Message('control_change', channel=3, control=11, value=4, time=98),
    Message('control_change', channel=3, control=11, value=3, time=18),
    Message('control_change', channel=3, control=11, value=5, time=3),
    Message('control_change', channel=3, control=11, value=2, time=27),
    Message('control_change', channel=3, control=11, value=1, time=18),
    Message('control_change', channel=3, control=11, value=127, time=1162),
    Message('note_on', channel=3, note=44, velocity=114, time=481),
    Message('note_off', channel=3, note=44, velocity=64, time=365),
    Message('note_on', channel=3, note=44, velocity=116, time=1557),
    Message('note_off', channel=3, note=44, velocity=64, time=277),
    Message('note_on', channel=3, note=48, velocity=116, time=89),
    Message('note_off', channel=3, note=48, velocity=64, time=133),
    Message('note_on', channel=3, note=51, velocity=116, time=105),
    Message('note_off', channel=3, note=51, velocity=64, time=172),
    Message('note_on', channel=3, note=44, velocity=116, time=1278),
    Message('note_off', channel=3, note=44, velocity=64, time=131),
    Message('note_on', channel=3, note=48, velocity=113, time=102),
    Message('note_on', channel=3, note=51, velocity=111, time=135),
    Message('note_off', channel=3, note=48, velocity=64, time=18),
    Message('note_off', channel=3, note=51, velocity=64, time=115),
    Message('note_on', channel=3, note=53, velocity=114, time=97),
    Message('note_off', channel=3, note=53, velocity=64, time=113),
    Message('note_on', channel=3, note=51, velocity=113, time=121),
    Message('note_off', channel=3, note=51, velocity=64, time=44),
    Message('note_on', channel=3, note=53, velocity=114, time=56),
    Message('note_on', channel=3, note=54, velocity=111, time=48),
    Message('note_off', channel=3, note=53, velocity=64, time=18),
    Message('note_off', channel=3, note=54, velocity=64, time=103),
    Message('note_on', channel=3, note=53, velocity=113, time=86),
    Message('note_off', channel=3, note=53, velocity=64, time=116),
    Message('note_on', channel=3, note=51, velocity=112, time=129),
    Message('note_on', channel=3, note=49, velocity=105, time=222),
    Message('note_off', channel=3, note=51, velocity=64, time=4),
    Message('note_on', channel=3, note=48, velocity=112, time=149),
    Message('note_off', channel=3, note=49, velocity=64, time=12),
    Message('note_off', channel=3, note=48, velocity=64, time=104),
    Message('note_on', channel=3, note=50, velocity=111, time=95),
    Message('note_on', channel=3, note=51, velocity=111, time=64),
    Message('note_off', channel=3, note=50, velocity=64, time=12),
    Message('note_off', channel=3, note=51, velocity=64, time=72),
    Message('note_on', channel=3, note=53, velocity=112, time=111),
    Message('note_off', channel=3, note=53, velocity=64, time=111),
    Message('note_on', channel=3, note=51, velocity=106, time=127),
    Message('note_off', channel=3, note=51, velocity=64, time=99),
    Message('note_on', channel=3, note=47, velocity=119, time=405),
    Message('note_off', channel=3, note=47, velocity=64, time=146),
    Message('note_on', channel=3, note=48, velocity=119, time=324),
    Message('note_off', channel=3, note=48, velocity=64, time=120),
    Message('note_on', channel=3, note=49, velocity=124, time=340),
    Message('note_off', channel=3, note=49, velocity=64, time=117),
    Message('note_on', channel=3, note=51, velocity=119, time=382),
    Message('pitchwheel', channel=3, pitch=-35, time=99),
    Message('pitchwheel', channel=3, pitch=-169, time=9),
    Message('pitchwheel', channel=3, pitch=-303, time=10),
    Message('pitchwheel', channel=3, pitch=-437, time=9),
    Message('pitchwheel', channel=3, pitch=-571, time=14),
    Message('pitchwheel', channel=3, pitch=-704, time=6),
    Message('pitchwheel', channel=3, pitch=-838, time=9),
    Message('pitchwheel', channel=3, pitch=-972, time=10),
    Message('pitchwheel', channel=3, pitch=-1106, time=9),
    Message('pitchwheel', channel=3, pitch=-1240, time=9),
    Message('pitchwheel', channel=3, pitch=-1374, time=11),
    Message('pitchwheel', channel=3, pitch=-1507, time=9),
    Message('pitchwheel', channel=3, pitch=-1641, time=10),
    Message('pitchwheel', channel=3, pitch=-1775, time=9),
    Message('pitchwheel', channel=3, pitch=-1909, time=9),
    Message('pitchwheel', channel=3, pitch=-2043, time=11),
    Message('pitchwheel', channel=3, pitch=-2176, time=9),
    Message('pitchwheel', channel=3, pitch=-2310, time=15),
    Message('pitchwheel', channel=3, pitch=-2444, time=4),
    Message('pitchwheel', channel=3, pitch=-2578, time=10),
    Message('pitchwheel', channel=3, pitch=-2712, time=16),
    Message('pitchwheel', channel=3, pitch=-2845, time=4),
    Message('pitchwheel', channel=3, pitch=-2979, time=10),
    Message('pitchwheel', channel=3, pitch=-3113, time=13),
    Message('pitchwheel', channel=3, pitch=-3247, time=5),
    Message('pitchwheel', channel=3, pitch=-3381, time=10),
    Message('pitchwheel', channel=3, pitch=-3514, time=9),
    Message('pitchwheel', channel=3, pitch=-3648, time=11),
    Message('pitchwheel', channel=3, pitch=-3782, time=8),
    Message('pitchwheel', channel=3, pitch=-3916, time=11),
    Message('pitchwheel', channel=3, pitch=-4050, time=9),
    Message('pitchwheel', channel=3, pitch=-4183, time=9),
    Message('pitchwheel', channel=3, pitch=-4317, time=14),
    Message('pitchwheel', channel=3, pitch=-4451, time=5),
    Message('pitchwheel', channel=3, pitch=-4585, time=11),
    Message('pitchwheel', channel=3, pitch=-4719, time=9),
    Message('pitchwheel', channel=3, pitch=-4853, time=9),
    Message('pitchwheel', channel=3, pitch=-4986, time=10),
    Message('pitchwheel', channel=3, pitch=-5120, time=10),
    Message('pitchwheel', channel=3, pitch=-5254, time=9),
    Message('pitchwheel', channel=3, pitch=-5388, time=10),
    Message('pitchwheel', channel=3, pitch=-5522, time=9),
    Message('pitchwheel', channel=3, pitch=-5655, time=10),
    Message('pitchwheel', channel=3, pitch=-5789, time=8),
    Message('pitchwheel', channel=3, pitch=-5923, time=11),
    Message('pitchwheel', channel=3, pitch=-6057, time=14),
    Message('pitchwheel', channel=3, pitch=-6191, time=5),
    Message('pitchwheel', channel=3, pitch=-6324, time=10),
    Message('pitchwheel', channel=3, pitch=-6458, time=15),
    Message('pitchwheel', channel=3, pitch=-6592, time=6),
    Message('pitchwheel', channel=3, pitch=-6726, time=7),
    Message('pitchwheel', channel=3, pitch=-6860, time=18),
    Message('pitchwheel', channel=3, pitch=-6993, time=2),
    Message('pitchwheel', channel=3, pitch=-7127, time=8),
    Message('pitchwheel', channel=3, pitch=-7261, time=16),
    Message('pitchwheel', channel=3, pitch=-7395, time=4),
    Message('pitchwheel', channel=3, pitch=-7529, time=10),
    Message('pitchwheel', channel=3, pitch=-7662, time=9),
    Message('pitchwheel', channel=3, pitch=-7796, time=10),
    Message('pitchwheel', channel=3, pitch=-7930, time=9),
    Message('pitchwheel', channel=3, pitch=-8064, time=10),
    Message('pitchwheel', channel=3, pitch=-8192, time=10),
    Message('pitchwheel', channel=3, pitch=-8192, time=89),
    Message('pitchwheel', channel=3, pitch=-8114, time=18),
    Message('pitchwheel', channel=3, pitch=-8004, time=15),
    Message('pitchwheel', channel=3, pitch=-7895, time=5),
    Message('pitchwheel', channel=3, pitch=-7785, time=11),
    Message('pitchwheel', channel=3, pitch=-7675, time=14),
    Message('pitchwheel', channel=3, pitch=-7565, time=5),
    Message('pitchwheel', channel=3, pitch=-7456, time=10),
    Message('pitchwheel', channel=3, pitch=-7346, time=15),
    Message('pitchwheel', channel=3, pitch=-7236, time=3),
    Message('pitchwheel', channel=3, pitch=-7127, time=10),
    Message('pitchwheel', channel=3, pitch=-7017, time=10),
    Message('pitchwheel', channel=3, pitch=-6907, time=9),
    Message('pitchwheel', channel=3, pitch=-6798, time=9),
    Message('pitchwheel', channel=3, pitch=-6688, time=10),
    Message('pitchwheel', channel=3, pitch=-6578, time=10),
    Message('pitchwheel', channel=3, pitch=-6469, time=10),
    Message('pitchwheel', channel=3, pitch=-6359, time=9),
    Message('pitchwheel', channel=3, pitch=-6249, time=11),
    Message('pitchwheel', channel=3, pitch=-6139, time=8),
    Message('pitchwheel', channel=3, pitch=-6030, time=9),
    Message('pitchwheel', channel=3, pitch=-5920, time=11),
    Message('pitchwheel', channel=3, pitch=-5810, time=9),
    Message('pitchwheel', channel=3, pitch=-5701, time=9),
    Message('pitchwheel', channel=3, pitch=-5591, time=10),
    Message('pitchwheel', channel=3, pitch=-5481, time=11),
    Message('pitchwheel', channel=3, pitch=-5372, time=9),
    Message('pitchwheel', channel=3, pitch=-5262, time=12),
    Message('pitchwheel', channel=3, pitch=-5152, time=7),
    Message('pitchwheel', channel=3, pitch=-5042, time=9),
    Message('pitchwheel', channel=3, pitch=-4933, time=15),
    Message('pitchwheel', channel=3, pitch=-4823, time=4),
    Message('pitchwheel', channel=3, pitch=-4713, time=10),
    Message('pitchwheel', channel=3, pitch=-4604, time=17),
    Message('pitchwheel', channel=3, pitch=-4494, time=3),
    Message('pitchwheel', channel=3, pitch=-4384, time=8),
    Message('pitchwheel', channel=3, pitch=-4275, time=18),
    Message('pitchwheel', channel=3, pitch=-4165, time=4),
    Message('pitchwheel', channel=3, pitch=-4055, time=8),
    Message('pitchwheel', channel=3, pitch=-3945, time=9),
    Message('pitchwheel', channel=3, pitch=-3836, time=9),
    Message('pitchwheel', channel=3, pitch=-3726, time=11),
    Message('pitchwheel', channel=3, pitch=-3616, time=9),
    Message('pitchwheel', channel=3, pitch=-3507, time=13),
    Message('pitchwheel', channel=3, pitch=-3397, time=6),
    Message('pitchwheel', channel=3, pitch=-3287, time=9),
    Message('pitchwheel', channel=3, pitch=-3178, time=13),
    Message('pitchwheel', channel=3, pitch=-3068, time=7),
    Message('pitchwheel', channel=3, pitch=-2958, time=11),
    Message('pitchwheel', channel=3, pitch=-2849, time=8),
    Message('pitchwheel', channel=3, pitch=-2739, time=9),
    Message('pitchwheel', channel=3, pitch=-2629, time=12),
    Message('pitchwheel', channel=3, pitch=-2519, time=7),
    Message('pitchwheel', channel=3, pitch=-2410, time=11),
    Message('pitchwheel', channel=3, pitch=-2300, time=9),
    Message('pitchwheel', channel=3, pitch=-2190, time=9),
    Message('pitchwheel', channel=3, pitch=-2081, time=11),
    Message('pitchwheel', channel=3, pitch=-1971, time=10),
    Message('pitchwheel', channel=3, pitch=-1861, time=16),
    Message('pitchwheel', channel=3, pitch=-1752, time=4),
    Message('pitchwheel', channel=3, pitch=-1642, time=8),
    Message('pitchwheel', channel=3, pitch=-1532, time=19),
    Message('pitchwheel', channel=3, pitch=-1422, time=1),
    Message('pitchwheel', channel=3, pitch=-1313, time=9),
    Message('pitchwheel', channel=3, pitch=-1203, time=11),
    Message('pitchwheel', channel=3, pitch=-1093, time=8),
    Message('pitchwheel', channel=3, pitch=-984, time=9),
    Message('pitchwheel', channel=3, pitch=-874, time=10),
    Message('pitchwheel', channel=3, pitch=-764, time=10),
    Message('pitchwheel', channel=3, pitch=-655, time=10),
    Message('pitchwheel', channel=3, pitch=-545, time=9),
    Message('pitchwheel', channel=3, pitch=-435, time=10),
    Message('pitchwheel', channel=3, pitch=-326, time=9),
    Message('pitchwheel', channel=3, pitch=-216, time=10),
    Message('pitchwheel', channel=3, pitch=-106, time=10),
    Message('pitchwheel', channel=3, pitch=-35, time=12),
    Message('pitchwheel', channel=3, pitch=63, time=10),
    Message('pitchwheel', channel=3, pitch=163, time=13),
    Message('pitchwheel', channel=3, pitch=262, time=6),
    Message('pitchwheel', channel=3, pitch=362, time=9),
    Message('pitchwheel', channel=3, pitch=461, time=10),
    Message('pitchwheel', channel=3, pitch=561, time=10),
    Message('pitchwheel', channel=3, pitch=661, time=9),
    Message('pitchwheel', channel=3, pitch=760, time=10),
    Message('pitchwheel', channel=3, pitch=860, time=9),
    Message('pitchwheel', channel=3, pitch=959, time=9),
    Message('pitchwheel', channel=3, pitch=1059, time=19),
    Message('pitchwheel', channel=3, pitch=1159, time=1),
    Message('pitchwheel', channel=3, pitch=1258, time=11),
    Message('pitchwheel', channel=3, pitch=1358, time=19),
    Message('pitchwheel', channel=3, pitch=1457, time=1),
    Message('pitchwheel', channel=3, pitch=1557, time=8),
    Message('pitchwheel', channel=3, pitch=1656, time=17),
    Message('pitchwheel', channel=3, pitch=1756, time=6),
    Message('pitchwheel', channel=3, pitch=1856, time=6),
    Message('pitchwheel', channel=3, pitch=1955, time=8),
    Message('pitchwheel', channel=3, pitch=2055, time=11),
    Message('pitchwheel', channel=3, pitch=2154, time=9),
    Message('pitchwheel', channel=3, pitch=2254, time=11),
    Message('pitchwheel', channel=3, pitch=2354, time=9),
    Message('pitchwheel', channel=3, pitch=2588, time=15),
    Message('pitchwheel', channel=3, pitch=2624, time=13),
    Message('pitchwheel', channel=3, pitch=2660, time=9),
    Message('pitchwheel', channel=3, pitch=2697, time=7),
    Message('pitchwheel', channel=3, pitch=2733, time=10),
    Message('pitchwheel', channel=3, pitch=2769, time=9),
    Message('pitchwheel', channel=3, pitch=2805, time=9),
    Message('pitchwheel', channel=3, pitch=2842, time=11),
    Message('pitchwheel', channel=3, pitch=2878, time=8),
    Message('pitchwheel', channel=3, pitch=2914, time=10),
    Message('pitchwheel', channel=3, pitch=2951, time=11),
    Message('pitchwheel', channel=3, pitch=2987, time=8),
    Message('pitchwheel', channel=3, pitch=3023, time=10),
    Message('pitchwheel', channel=3, pitch=3059, time=9),
    Message('pitchwheel', channel=3, pitch=3096, time=12),
    Message('pitchwheel', channel=3, pitch=3132, time=8),
    Message('note_off', channel=3, note=51, velocity=64, time=7),
    Message('pitchwheel', channel=3, pitch=0, time=19),
    Message('note_on', channel=3, note=62, velocity=127, time=3),
    Message('note_on', channel=3, note=63, velocity=90, time=85),
    Message('note_off', channel=3, note=62, velocity=64, time=20),
    Message('note_on', channel=3, note=51, velocity=88, time=128),
    Message('note_off', channel=3, note=63, velocity=64, time=19),
    Message('note_off', channel=3, note=51, velocity=64, time=71),
    Message('note_on', channel=3, note=61, velocity=107, time=7),
    Message('note_on', channel=3, note=60, velocity=92, time=241),
    Message('note_off', channel=3, note=61, velocity=64, time=8),
    Message('note_on', channel=3, note=59, velocity=95, time=230),
    Message('note_off', channel=3, note=60, velocity=64, time=13),
    Message('note_off', channel=3, note=59, velocity=64, time=221),
    Message('note_on', channel=3, note=58, velocity=82, time=2),
    Message('note_off', channel=3, note=58, velocity=64, time=73),
    Message('note_on', channel=3, note=63, velocity=82, time=4),
    Message('note_off', channel=3, note=63, velocity=64, time=83),
    Message('note_on', channel=3, note=58, velocity=113, time=6),
    Message('note_on', channel=3, note=56, velocity=99, time=76),
    Message('note_off', channel=3, note=58, velocity=64, time=38),
    Message('note_on', channel=3, note=55, velocity=110, time=200),
    Message('note_off', channel=3, note=56, velocity=64, time=17),
    Message('note_on', channel=3, note=53, velocity=98, time=226),
    Message('note_off', channel=3, note=55, velocity=64, time=5),
    Message('note_on', channel=3, note=51, velocity=92, time=232),
    Message('note_off', channel=3, note=53, velocity=64, time=16),
    Message('note_on', channel=3, note=46, velocity=39, time=141),
    Message('note_off', channel=3, note=51, velocity=64, time=16),
    Message('note_off', channel=3, note=46, velocity=64, time=22),
    Message('note_on', channel=3, note=49, velocity=102, time=56),
    Message('note_off', channel=3, note=49, velocity=64, time=220),
    Message('note_on', channel=3, note=48, velocity=83, time=19),
    Message('note_on', channel=3, note=47, velocity=102, time=232),
    Message('note_off', channel=3, note=48, velocity=64, time=11),
    Message('note_off', channel=3, note=47, velocity=64, time=229),
    Message('note_on', channel=3, note=46, velocity=71, time=0),
    Message('note_off', channel=3, note=46, velocity=64, time=40),
    Message('note_on', channel=3, note=49, velocity=85, time=28),
    Message('note_off', channel=3, note=49, velocity=64, time=34),
    Message('note_on', channel=3, note=53, velocity=104, time=44),
    Message('note_off', channel=3, note=53, velocity=64, time=64),
    Message('note_on', channel=3, note=56, velocity=119, time=27),
    Message('note_off', channel=3, note=56, velocity=64, time=233),
    Message('note_on', channel=3, note=60, velocity=104, time=6),
    Message('note_on', channel=3, note=51, velocity=71, time=150),
    Message('note_off', channel=3, note=51, velocity=64, time=23),
    Message('note_off', channel=3, note=60, velocity=64, time=4),
    Message('note_on', channel=3, note=59, velocity=104, time=66),
    Message('note_on', channel=3, note=58, velocity=88, time=237),
    Message('note_off', channel=3, note=59, velocity=64, time=6),
    Message('note_off', channel=3, note=58, velocity=64, time=142),
    Message('note_on', channel=3, note=51, velocity=62, time=2),
    Message('note_off', channel=3, note=51, velocity=64, time=59),
    Message('note_on', channel=3, note=56, velocity=119, time=31),
    Message('note_on', channel=3, note=55, velocity=70, time=241),
    Message('note_off', channel=3, note=56, velocity=64, time=4),
    Message('note_on', channel=3, note=53, velocity=95, time=242),
    Message('note_off', channel=3, note=55, velocity=64, time=13),
    Message('note_on', channel=3, note=51, velocity=68, time=220),
    Message('note_off', channel=3, note=53, velocity=64, time=50),
    Message('note_on', channel=3, note=46, velocity=102, time=191),
    Message('note_off', channel=3, note=51, velocity=64, time=15),
    Message('pitchwheel', channel=3, pitch=-35, time=20),
    Message('pitchwheel', channel=3, pitch=-150, time=9),
    Message('pitchwheel', channel=3, pitch=-264, time=14),
    Message('pitchwheel', channel=3, pitch=-379, time=5),
    Message('pitchwheel', channel=3, pitch=-493, time=13),
    Message('pitchwheel', channel=3, pitch=-608, time=7),
    Message('pitchwheel', channel=3, pitch=-722, time=9),
    Message('pitchwheel', channel=3, pitch=-836, time=14),
    Message('pitchwheel', channel=3, pitch=-951, time=6),
    Message('pitchwheel', channel=3, pitch=-1065, time=9),
    Message('pitchwheel', channel=3, pitch=-1180, time=16),
    Message('pitchwheel', channel=3, pitch=-1294, time=4),
    Message('pitchwheel', channel=3, pitch=-1408, time=9),
    Message('pitchwheel', channel=3, pitch=-1523, time=10),
    Message('pitchwheel', channel=3, pitch=-1637, time=9),
    Message('pitchwheel', channel=3, pitch=-1752, time=10),
    Message('pitchwheel', channel=3, pitch=-1866, time=10),
    Message('pitchwheel', channel=3, pitch=-1981, time=9),
    Message('pitchwheel', channel=3, pitch=-2095, time=10),
    Message('pitchwheel', channel=3, pitch=-2209, time=10),
    Message('pitchwheel', channel=3, pitch=-2324, time=9),
    Message('pitchwheel', channel=3, pitch=-2438, time=9),
    Message('pitchwheel', channel=3, pitch=-2553, time=11),
    Message('pitchwheel', channel=3, pitch=-2667, time=10),
    Message('pitchwheel', channel=3, pitch=-2782, time=9),
    Message('pitchwheel', channel=3, pitch=-2896, time=10),
    Message('pitchwheel', channel=3, pitch=-3010, time=8),
    Message('pitchwheel', channel=3, pitch=-3125, time=10),
    Message('pitchwheel', channel=3, pitch=-3239, time=9),
    Message('pitchwheel', channel=3, pitch=-3354, time=11),
    Message('pitchwheel', channel=3, pitch=-3468, time=9),
    Message('pitchwheel', channel=3, pitch=-3582, time=9),
    Message('pitchwheel', channel=3, pitch=-3697, time=18),
    Message('pitchwheel', channel=3, pitch=-3811, time=2),
    Message('pitchwheel', channel=3, pitch=-3926, time=10),
    Message('pitchwheel', channel=3, pitch=-4040, time=15),
    Message('pitchwheel', channel=3, pitch=-4155, time=4),
    Message('pitchwheel', channel=3, pitch=-4269, time=10),
    Message('pitchwheel', channel=3, pitch=-4383, time=22),
    Message('pitchwheel', channel=3, pitch=-4498, time=1),
    Message('pitchwheel', channel=3, pitch=-4612, time=6),
    Message('pitchwheel', channel=3, pitch=-4727, time=9),
    Message('pitchwheel', channel=3, pitch=-4841, time=9),
    Message('pitchwheel', channel=3, pitch=-4955, time=10),
    Message('pitchwheel', channel=3, pitch=-5070, time=9),
    Message('pitchwheel', channel=3, pitch=-5184, time=10),
    Message('pitchwheel', channel=3, pitch=-5299, time=9),
    Message('pitchwheel', channel=3, pitch=-5413, time=12),
    Message('pitchwheel', channel=3, pitch=-5528, time=10),
    Message('pitchwheel', channel=3, pitch=-5642, time=6),
    Message('pitchwheel', channel=3, pitch=-5756, time=10),
    Message('pitchwheel', channel=3, pitch=-5871, time=10),
    Message('pitchwheel', channel=3, pitch=-5985, time=9),
    Message('pitchwheel', channel=3, pitch=-6100, time=10),
    Message('pitchwheel', channel=3, pitch=-6214, time=11),
    Message('pitchwheel', channel=3, pitch=-6328, time=10),
    Message('pitchwheel', channel=3, pitch=-6443, time=8),
    Message('pitchwheel', channel=3, pitch=-6557, time=12),
    Message('pitchwheel', channel=3, pitch=-6672, time=7),
    Message('pitchwheel', channel=3, pitch=-6786, time=10),
    Message('pitchwheel', channel=3, pitch=-6901, time=20),
    Message('pitchwheel', channel=3, pitch=-7015, time=5),
    Message('pitchwheel', channel=3, pitch=-7129, time=4),
    Message('pitchwheel', channel=3, pitch=-7244, time=21),
    Message('pitchwheel', channel=3, pitch=-7358, time=3),
    Message('pitchwheel', channel=3, pitch=-7473, time=4),
    Message('pitchwheel', channel=3, pitch=-7587, time=9),
    Message('pitchwheel', channel=3, pitch=-7701, time=13),
    Message('pitchwheel', channel=3, pitch=-7816, time=7),
    Message('pitchwheel', channel=3, pitch=-7930, time=9),
    Message('note_off', channel=3, note=46, velocity=64, time=11),
    Message('pitchwheel', channel=3, pitch=-8045, time=0),
    Message('note_on', channel=3, note=48, velocity=68, time=14),
    Message('pitchwheel', channel=3, pitch=0, time=6),
    Message('note_off', channel=3, note=48, velocity=64, time=245),
    Message('note_on', channel=3, note=37, velocity=114, time=1575),
    Message('note_off', channel=3, note=37, velocity=64, time=30),
    Message('note_on', channel=3, note=38, velocity=84, time=62),
    Message('note_off', channel=3, note=38, velocity=64, time=75),
    Message('note_on', channel=3, note=38, velocity=109, time=167),
    Message('note_off', channel=3, note=38, velocity=64, time=93),
    Message('note_on', channel=3, note=38, velocity=90, time=1588),
    Message('note_off', channel=3, note=38, velocity=64, time=133),
    Message('note_on', channel=3, note=42, velocity=81, time=351),
    Message('note_off', channel=3, note=42, velocity=64, time=139),
    Message('note_on', channel=3, note=45, velocity=87, time=340),
    Message('note_off', channel=3, note=45, velocity=64, time=157),
    Message('note_on', channel=3, note=42, velocity=58, time=702),
    Message('note_off', channel=3, note=42, velocity=64, time=105),
    Message('note_on', channel=3, note=43, velocity=83, time=2),
    Message('note_off', channel=3, note=43, velocity=64, time=59),
    Message('note_on', channel=3, note=43, velocity=70, time=175),
    Message('note_off', channel=3, note=43, velocity=64, time=224),
    Message('note_on', channel=3, note=42, velocity=25, time=252),
    Message('note_off', channel=3, note=42, velocity=64, time=688),
    Message('note_on', channel=3, note=42, velocity=105, time=992),
    Message('note_off', channel=3, note=42, velocity=64, time=137),
    Message('note_on', channel=3, note=45, velocity=109, time=345),
    Message('note_off', channel=3, note=45, velocity=64, time=162),
    Message('note_on', channel=3, note=42, velocity=96, time=1277),
    Message('note_off', channel=3, note=42, velocity=64, time=94),
    Message('note_on', channel=3, note=42, velocity=80, time=144),
    Message('note_off', channel=3, note=42, velocity=64, time=97),
    Message('note_on', channel=3, note=45, velocity=89, time=143),
    Message('note_off', channel=3, note=45, velocity=64, time=145),
    Message('note_on', channel=3, note=42, velocity=100, time=694),
    Message('note_off', channel=3, note=42, velocity=64, time=53),
    Message('note_on', channel=3, note=38, velocity=92, time=68),
    Message('note_off', channel=3, note=38, velocity=64, time=105),
    Message('note_on', channel=3, note=38, velocity=87, time=135),
    Message('note_off', channel=3, note=38, velocity=64, time=89),
    Message('note_on', channel=3, note=42, velocity=80, time=152),
    Message('note_off', channel=3, note=42, velocity=64, time=92),
    Message('note_on', channel=3, note=42, velocity=83, time=147),
    Message('note_off', channel=3, note=42, velocity=64, time=87),
    Message('note_on', channel=3, note=45, velocity=80, time=154),
    Message('note_off', channel=3, note=45, velocity=64, time=133),
    Message('note_on', channel=3, note=30, velocity=62, time=706),
    Message('note_off', channel=3, note=30, velocity=64, time=42),
    Message('note_on', channel=3, note=31, velocity=78, time=80),
    Message('note_off', channel=3, note=31, velocity=64, time=71),
    Message('note_on', channel=3, note=31, velocity=83, time=169),
    Message('note_off', channel=3, note=31, velocity=64, time=260),
    Message('note_on', channel=3, note=30, velocity=35, time=223),
    Message('control_change', channel=3, control=1, value=17, time=30),
    Message('control_change', channel=3, control=1, value=32, time=3),
    Message('control_change', channel=3, control=1, value=50, time=9),
    Message('control_change', channel=3, control=1, value=62, time=18),
    Message('control_change', channel=3, control=1, value=77, time=3),
    Message('control_change', channel=3, control=1, value=91, time=10),
    Message('control_change', channel=3, control=1, value=95, time=13),
    Message('control_change', channel=3, control=1, value=108, time=7),
    Message('control_change', channel=3, control=1, value=112, time=11),
    Message('control_change', channel=3, control=1, value=118, time=10),
    Message('control_change', channel=3, control=1, value=122, time=11),
    Message('control_change', channel=3, control=1, value=127, time=20),
    Message('control_change', channel=3, control=11, value=127, time=314),
    Message('pitchwheel', channel=3, pitch=-56, time=8),
    Message('pitchwheel', channel=3, pitch=-396, time=10),
    Message('pitchwheel', channel=3, pitch=-623, time=11),
    Message('control_change', channel=3, control=11, value=126, time=8),
    Message('pitchwheel', channel=3, pitch=-1077, time=2),
    Message('control_change', channel=3, control=11, value=125, time=9),
    Message('pitchwheel', channel=3, pitch=-1303, time=1),
    Message('control_change', channel=3, control=11, value=124, time=9),
    Message('pitchwheel', channel=3, pitch=-1530, time=1),
    Message('control_change', channel=3, control=11, value=123, time=9),
    Message('pitchwheel', channel=3, pitch=-1643, time=2),
    Message('control_change', channel=3, control=11, value=122, time=6),
    Message('pitchwheel', channel=3, pitch=-1757, time=4),
    Message('control_change', channel=3, control=11, value=121, time=6),
    Message('pitchwheel', channel=3, pitch=-1983, time=4),
    Message('control_change', channel=3, control=11, value=120, time=6),
    Message('pitchwheel', channel=3, pitch=-2210, time=14),
    Message('control_change', channel=3, control=11, value=119, time=1),
    Message('pitchwheel', channel=3, pitch=-2324, time=2),
    Message('control_change', channel=3, control=11, value=118, time=3),
    Message('pitchwheel', channel=3, pitch=-2664, time=6),
    Message('control_change', channel=3, control=11, value=117, time=2),
    Message('pitchwheel', channel=3, pitch=-2777, time=18),
    Message('control_change', channel=3, control=11, value=116, time=1),
    Message('control_change', channel=3, control=11, value=115, time=3),
    Message('control_change', channel=3, control=11, value=114, time=7),
    Message('pitchwheel', channel=3, pitch=-2890, time=0),
    Message('control_change', channel=3, control=11, value=113, time=17),
    Message('control_change', channel=3, control=11, value=112, time=3),
    Message('control_change', channel=3, control=11, value=111, time=8),
    Message('pitchwheel', channel=3, pitch=-3004, time=2),
    Message('control_change', channel=3, control=11, value=110, time=7),
    Message('pitchwheel', channel=3, pitch=-3117, time=8),
    Message('control_change', channel=3, control=11, value=109, time=3),
    Message('pitchwheel', channel=3, pitch=-3344, time=4),
    Message('control_change', channel=3, control=11, value=108, time=5),
    Message('pitchwheel', channel=3, pitch=-3684, time=4),
    Message('control_change', channel=3, control=1, value=122, time=1),
    Message('control_change', channel=3, control=11, value=107, time=5),
    Message('pitchwheel', channel=3, pitch=-3911, time=5),
    Message('control_change', channel=3, control=1, value=118, time=1),
    Message('control_change', channel=3, control=11, value=106, time=3),
    Message('pitchwheel', channel=3, pitch=-4138, time=7),
    Message('control_change', channel=3, control=1, value=112, time=0),
    Message('control_change', channel=3, control=11, value=105, time=2),
    Message('pitchwheel', channel=3, pitch=-4251, time=7),
    Message('control_change', channel=3, control=11, value=104, time=4),
    Message('pitchwheel', channel=3, pitch=-4478, time=11),
    Message('control_change', channel=3, control=1, value=108, time=1),
    Message('control_change', channel=3, control=11, value=103, time=1),
    Message('pitchwheel', channel=3, pitch=-4704, time=5),
    Message('control_change', channel=3, control=11, value=102, time=1),
    Message('pitchwheel', channel=3, pitch=-4818, time=10),
    Message('control_change', channel=3, control=11, value=101, time=0),
    Message('control_change', channel=3, control=1, value=102, time=1),
    Message('control_change', channel=3, control=11, value=100, time=11),
    Message('pitchwheel', channel=3, pitch=-4931, time=0),
    Message('control_change', channel=3, control=1, value=98, time=2),
    Message('control_change', channel=3, control=11, value=99, time=5),
    Message('pitchwheel', channel=3, pitch=-5044, time=1),
    Message('control_change', channel=3, control=1, value=95, time=1),
    Message('control_change', channel=3, control=11, value=98, time=7),
    Message('pitchwheel', channel=3, pitch=-5158, time=3),
    Message('control_change', channel=3, control=1, value=91, time=0),
    Message('control_change', channel=3, control=11, value=97, time=11),
    Message('pitchwheel', channel=3, pitch=-5271, time=2),
    Message('control_change', channel=3, control=1, value=85, time=0),
    Message('control_change', channel=3, control=11, value=96, time=3),
    Message('pitchwheel', channel=3, pitch=-5385, time=4),
    Message('control_change', channel=3, control=1, value=81, time=0),
    Message('control_change', channel=3, control=11, value=95, time=5),
    Message('pitchwheel', channel=3, pitch=-5611, time=5),
    Message('control_change', channel=3, control=11, value=94, time=6),
    Message('pitchwheel', channel=3, pitch=-5951, time=5),
    Message('control_change', channel=3, control=11, value=93, time=4),
    Message('pitchwheel', channel=3, pitch=-6178, time=6),
    Message('control_change', channel=3, control=1, value=60, time=1),
    Message('control_change', channel=3, control=11, value=92, time=3),
    Message('pitchwheel', channel=3, pitch=-6292, time=6),
    Message('control_change', channel=3, control=1, value=52, time=1),
    Message('control_change', channel=3, control=11, value=91, time=10),
    Message('pitchwheel', channel=3, pitch=-6518, time=4),
    Message('control_change', channel=3, control=1, value=46, time=1),
    Message('control_change', channel=3, control=11, value=90, time=0),
    Message('pitchwheel', channel=3, pitch=-6632, time=5),
    Message('control_change', channel=3, control=1, value=38, time=1),
    Message('control_change', channel=3, control=11, value=89, time=1),
    Message('pitchwheel', channel=3, pitch=-6858, time=9),
    Message('control_change', channel=3, control=11, value=88, time=0),
    Message('control_change', channel=3, control=1, value=34, time=1),
    Message('control_change', channel=3, control=11, value=87, time=11),
    Message('pitchwheel', channel=3, pitch=-7085, time=1),
    Message('control_change', channel=3, control=11, value=86, time=6),
    Message('pitchwheel', channel=3, pitch=-7425, time=1),
    Message('control_change', channel=3, control=1, value=19, time=2),
    Message('control_change', channel=3, control=11, value=85, time=7),
    Message('pitchwheel', channel=3, pitch=-7765, time=11),
    Message('control_change', channel=3, control=1, value=9, time=0),
    Message('control_change', channel=3, control=11, value=84, time=2),
    Message('pitchwheel', channel=3, pitch=-8192, time=3),
    Message('control_change', channel=3, control=11, value=83, time=2),
    Message('control_change', channel=3, control=11, value=82, time=11),
    Message('control_change', channel=3, control=1, value=0, time=6),
    Message('control_change', channel=3, control=11, value=81, time=3),
    Message('control_change', channel=3, control=11, value=80, time=10),
    Message('control_change', channel=3, control=11, value=79, time=9),
    Message('control_change', channel=3, control=11, value=78, time=9),
    Message('control_change', channel=3, control=11, value=77, time=11),
    Message('control_change', channel=3, control=11, value=76, time=9),
    Message('control_change', channel=3, control=11, value=75, time=12),
    Message('control_change', channel=3, control=11, value=74, time=8),
    Message('control_change', channel=3, control=11, value=73, time=8),
    Message('control_change', channel=3, control=2, value=2, time=2),
    Message('control_change', channel=3, control=11, value=72, time=9),
    Message('control_change', channel=3, control=2, value=10, time=1),
    Message('control_change', channel=3, control=11, value=71, time=8),
    Message('control_change', channel=3, control=2, value=28, time=2),
    Message('control_change', channel=3, control=11, value=70, time=8),
    Message('control_change', channel=3, control=2, value=46, time=3),
    Message('control_change', channel=3, control=11, value=69, time=6),
    Message('control_change', channel=3, control=2, value=76, time=5),
    Message('control_change', channel=3, control=11, value=68, time=4),
    Message('control_change', channel=3, control=2, value=120, time=5),
    Message('control_change', channel=3, control=11, value=67, time=6),
    Message('control_change', channel=3, control=2, value=127, time=5),
    Message('control_change', channel=3, control=11, value=66, time=4),
    Message('control_change', channel=3, control=11, value=65, time=10),
    Message('control_change', channel=3, control=11, value=64, time=9),
    Message('pitchwheel', channel=3, pitch=-7957, time=8),
    Message('control_change', channel=3, control=11, value=63, time=15),
    Message('pitchwheel', channel=3, pitch=-7650, time=2),
    Message('control_change', channel=3, control=11, value=62, time=0),
    Message('pitchwheel', channel=3, pitch=-7342, time=4),
    Message('control_change', channel=3, control=11, value=61, time=1),
    Message('pitchwheel', channel=3, pitch=-7035, time=8),
    Message('control_change', channel=3, control=11, value=60, time=1),
    Message('pitchwheel', channel=3, pitch=-6727, time=10),
    Message('control_change', channel=3, control=11, value=59, time=1),
    Message('pitchwheel', channel=3, pitch=-6420, time=6),
    Message('control_change', channel=3, control=11, value=58, time=3),
    Message('pitchwheel', channel=3, pitch=-6112, time=7),
    Message('control_change', channel=3, control=11, value=57, time=2),
    Message('pitchwheel', channel=3, pitch=-5805, time=15),
    Message('control_change', channel=3, control=11, value=56, time=1),
    Message('pitchwheel', channel=3, pitch=-5497, time=2),
    Message('control_change', channel=3, control=11, value=55, time=2),
    Message('pitchwheel', channel=3, pitch=-5189, time=7),
    Message('control_change', channel=3, control=11, value=54, time=2),
    Message('control_change', channel=3, control=1, value=42, time=4),
    Message('control_change', channel=3, control=2, value=0, time=2),
    Message('pitchwheel', channel=3, pitch=-4882, time=3),
    Message('control_change', channel=3, control=11, value=53, time=6),
    Message('pitchwheel', channel=3, pitch=-4574, time=2),
    Message('control_change', channel=3, control=11, value=52, time=2),
    Message('control_change', channel=3, control=1, value=0, time=6),
    Message('pitchwheel', channel=3, pitch=-4267, time=1),
    Message('control_change', channel=3, control=11, value=51, time=3),
    Message('pitchwheel', channel=3, pitch=-3959, time=7),
    Message('pitchwheel', channel=3, pitch=-3652, time=9),
    Message('control_change', channel=3, control=11, value=50, time=2),
    Message('pitchwheel', channel=3, pitch=-3344, time=7),
    Message('control_change', channel=3, control=11, value=49, time=3),
    Message('pitchwheel', channel=3, pitch=-3037, time=8),
    Message('control_change', channel=3, control=11, value=48, time=1),
    Message('pitchwheel', channel=3, pitch=-2729, time=10),
    Message('control_change', channel=3, control=11, value=47, time=2),
    Message('pitchwheel', channel=3, pitch=-2421, time=5),
    Message('control_change', channel=3, control=11, value=46, time=2),
    Message('pitchwheel', channel=3, pitch=-2114, time=8),
    Message('control_change', channel=3, control=11, value=45, time=2),
    Message('pitchwheel', channel=3, pitch=-1806, time=7),
    Message('control_change', channel=3, control=11, value=44, time=3),
    Message('pitchwheel', channel=3, pitch=-1499, time=6),
    Message('control_change', channel=3, control=11, value=43, time=3),
    Message('pitchwheel', channel=3, pitch=-1191, time=7),
    Message('control_change', channel=3, control=11, value=42, time=3),
    Message('pitchwheel', channel=3, pitch=-884, time=7),
    Message('control_change', channel=3, control=11, value=41, time=5),
    Message('pitchwheel', channel=3, pitch=-576, time=5),
    Message('control_change', channel=3, control=11, value=40, time=2),
    Message('pitchwheel', channel=3, pitch=-268, time=7),
    Message('control_change', channel=3, control=11, value=39, time=2),
    Message('pitchwheel', channel=3, pitch=38, time=7),
    Message('control_change', channel=3, control=11, value=38, time=4),
    Message('pitchwheel', channel=3, pitch=346, time=7),
    Message('control_change', channel=3, control=11, value=37, time=1),
    Message('pitchwheel', channel=3, pitch=653, time=8),
    Message('control_change', channel=3, control=11, value=36, time=2),
    Message('pitchwheel', channel=3, pitch=961, time=15),
    Message('control_change', channel=3, control=11, value=35, time=2),
    Message('pitchwheel', channel=3, pitch=1268, time=2),
    Message('control_change', channel=3, control=11, value=34, time=1),
    Message('pitchwheel', channel=3, pitch=1576, time=6),
    Message('control_change', channel=3, control=11, value=33, time=3),
    Message('pitchwheel', channel=3, pitch=1883, time=16),
    Message('control_change', channel=3, control=11, value=32, time=2),
    Message('pitchwheel', channel=3, pitch=2191, time=2),
    Message('control_change', channel=3, control=11, value=31, time=2),
    Message('pitchwheel', channel=3, pitch=2499, time=6),
    Message('control_change', channel=3, control=11, value=30, time=1),
    Message('pitchwheel', channel=3, pitch=2806, time=19),
    Message('control_change', channel=3, control=11, value=29, time=1),
    Message('pitchwheel', channel=3, pitch=3114, time=1),
    Message('control_change', channel=3, control=11, value=28, time=2),
    Message('pitchwheel', channel=3, pitch=3421, time=4),
    Message('control_change', channel=3, control=11, value=27, time=1),
    Message('pitchwheel', channel=3, pitch=3729, time=8),
    Message('control_change', channel=3, control=11, value=26, time=4),
    Message('pitchwheel', channel=3, pitch=4036, time=6),
    Message('control_change', channel=3, control=11, value=25, time=2),
    Message('pitchwheel', channel=3, pitch=4344, time=8),
    Message('control_change', channel=3, control=11, value=24, time=1),
    Message('pitchwheel', channel=3, pitch=4651, time=8),
    Message('control_change', channel=3, control=11, value=23, time=2),
    Message('pitchwheel', channel=3, pitch=4959, time=10),
    Message('control_change', channel=3, control=11, value=22, time=2),
    Message('pitchwheel', channel=3, pitch=5267, time=5),
    Message('control_change', channel=3, control=11, value=21, time=2),
    Message('pitchwheel', channel=3, pitch=5574, time=8),
    Message('control_change', channel=3, control=11, value=20, time=2),
    Message('pitchwheel', channel=3, pitch=5882, time=8),
    Message('control_change', channel=3, control=11, value=19, time=4),
    Message('pitchwheel', channel=3, pitch=6189, time=5),
    Message('control_change', channel=3, control=11, value=18, time=3),
    Message('pitchwheel', channel=3, pitch=6497, time=7),
    Message('control_change', channel=3, control=11, value=17, time=2),
    Message('pitchwheel', channel=3, pitch=6804, time=7),
    Message('control_change', channel=3, control=11, value=16, time=2),
    Message('pitchwheel', channel=3, pitch=7112, time=8),
    Message('control_change', channel=3, control=11, value=15, time=2),
    Message('pitchwheel', channel=3, pitch=7419, time=7),
    Message('control_change', channel=3, control=11, value=14, time=3),
    Message('pitchwheel', channel=3, pitch=7727, time=8),
    Message('control_change', channel=3, control=11, value=13, time=5),
    Message('pitchwheel', channel=3, pitch=8035, time=3),
    Message('control_change', channel=3, control=11, value=12, time=4),
    Message('pitchwheel', channel=3, pitch=8191, time=7),
    Message('control_change', channel=3, control=11, value=11, time=2),
    Message('control_change', channel=3, control=11, value=10, time=10),
    Message('control_change', channel=3, control=11, value=9, time=9),
    Message('control_change', channel=3, control=11, value=8, time=9),
    Message('control_change', channel=3, control=11, value=7, time=16),
    Message('pitchwheel', channel=3, pitch=0, time=2),
    Message('control_change', channel=3, control=11, value=6, time=2),
    Message('control_change', channel=3, control=11, value=5, time=9),
    Message('note_off', channel=3, note=30, velocity=64, time=15),
    Message('control_change', channel=3, control=11, value=4, time=6),
    Message('control_change', channel=3, control=11, value=3, time=1),
    Message('control_change', channel=3, control=11, value=2, time=7),
    Message('control_change', channel=3, control=11, value=1, time=20),
    Message('control_change', channel=3, control=11, value=0, time=2),
    Message('control_change', channel=3, control=11, value=127, time=72848),
    Message('note_on', channel=3, note=39, velocity=66, time=236),
    Message('note_off', channel=3, note=39, velocity=64, time=237),
    Message('note_on', channel=3, note=39, velocity=43, time=357),
    Message('note_off', channel=3, note=39, velocity=64, time=37),
    Message('note_on', channel=3, note=43, velocity=60, time=84),
    Message('note_off', channel=3, note=43, velocity=64, time=168),
    Message('note_on', channel=3, note=46, velocity=57, time=72),
    Message('note_off', channel=3, note=46, velocity=64, time=219),
    Message('note_on', channel=3, note=50, velocity=66, time=262),
    Message('note_off', channel=3, note=50, velocity=64, time=229),
    Message('note_on', channel=3, note=39, velocity=57, time=250),
    Message('note_off', channel=3, note=39, velocity=64, time=246),
    Message('note_on', channel=3, note=39, velocity=49, time=353),
    Message('note_off', channel=3, note=39, velocity=64, time=37),
    Message('note_on', channel=3, note=43, velocity=60, time=85),
    Message('note_off', channel=3, note=43, velocity=64, time=165),
    Message('note_on', channel=3, note=46, velocity=66, time=74),
    Message('note_off', channel=3, note=46, velocity=64, time=233),
    Message('note_on', channel=3, note=39, velocity=66, time=727),
    Message('note_off', channel=3, note=39, velocity=64, time=222),
    Message('note_on', channel=3, note=39, velocity=47, time=378),
    Message('note_off', channel=3, note=39, velocity=64, time=30),
    Message('note_on', channel=3, note=43, velocity=60, time=90),
    Message('note_off', channel=3, note=43, velocity=64, time=161),
    Message('note_on', channel=3, note=46, velocity=60, time=81),
    Message('note_off', channel=3, note=46, velocity=64, time=238),
    Message('note_on', channel=3, note=50, velocity=66, time=241),
    Message('note_off', channel=3, note=50, velocity=64, time=247),
    Message('note_on', channel=3, note=44, velocity=71, time=236),
    Message('note_on', channel=3, note=44, velocity=47, time=117),
    Message('note_off', channel=3, note=44, velocity=64, time=6),
    Message('note_off', channel=3, note=44, velocity=64, time=109),
    Message('note_on', channel=3, note=44, velocity=66, time=129),
    Message('note_off', channel=3, note=44, velocity=64, time=115),
    Message('note_on', channel=3, note=44, velocity=54, time=123),
    Message('note_off', channel=3, note=44, velocity=64, time=92),
    Message('note_on', channel=3, note=43, velocity=66, time=24),
    Message('note_off', channel=3, note=43, velocity=64, time=280),
    Message('note_on', channel=3, note=39, velocity=60, time=925),
    Message('note_off', channel=3, note=39, velocity=64, time=218),
    Message('note_on', channel=3, note=39, velocity=45, time=390),
    Message('note_off', channel=3, note=39, velocity=64, time=30),
    Message('note_on', channel=3, note=43, velocity=60, time=78),
    Message('note_off', channel=3, note=43, velocity=64, time=163),
    Message('note_on', channel=3, note=46, velocity=57, time=77),
    Message('note_off', channel=3, note=46, velocity=64, time=222),
    Message('note_on', channel=3, note=50, velocity=60, time=259),
    Message('note_off', channel=3, note=50, velocity=64, time=230),
    Message('note_on', channel=3, note=39, velocity=57, time=250),
    Message('note_off', channel=3, note=39, velocity=64, time=245),
    Message('note_on', channel=3, note=39, velocity=45, time=354),
    Message('note_off', channel=3, note=39, velocity=64, time=36),
    Message('note_on', channel=3, note=43, velocity=60, time=83),
    Message('note_off', channel=3, note=43, velocity=64, time=168),
    Message('note_on', channel=3, note=46, velocity=60, time=74),
    Message('note_off', channel=3, note=46, velocity=64, time=239),
    Message('note_on', channel=3, note=39, velocity=57, time=720),
    Message('note_on', channel=3, note=41, velocity=42, time=1),
    Message('note_off', channel=3, note=41, velocity=64, time=20),
    Message('note_off', channel=3, note=39, velocity=64, time=201),
    Message('note_on', channel=3, note=39, velocity=47, time=378),
    Message('note_off', channel=3, note=39, velocity=64, time=48),
    Message('note_on', channel=3, note=43, velocity=66, time=72),
    Message('note_off', channel=3, note=43, velocity=64, time=171),
    Message('note_on', channel=3, note=46, velocity=66, time=69),
    Message('note_off', channel=3, note=46, velocity=64, time=234),
    Message('note_on', channel=3, note=50, velocity=66, time=245),
    Message('note_off', channel=3, note=50, velocity=64, time=236),
    Message('note_on', channel=3, note=44, velocity=71, time=245),
    Message('note_on', channel=3, note=44, velocity=54, time=119),
    Message('note_off', channel=3, note=44, velocity=64, time=13),
    Message('note_off', channel=3, note=44, velocity=64, time=126),
    Message('note_on', channel=3, note=44, velocity=60, time=103),
    Message('note_off', channel=3, note=44, velocity=64, time=114),
    Message('note_on', channel=3, note=44, velocity=47, time=126),
    Message('note_off', channel=3, note=44, velocity=64, time=103),
    Message('note_on', channel=3, note=43, velocity=60, time=18),
    Message('note_off', channel=3, note=43, velocity=64, time=240),
    Message('note_on', channel=3, note=63, velocity=51, time=358),
    Message('pitchwheel', channel=3, pitch=797, time=47),
    Message('pitchwheel', channel=3, pitch=1522, time=10),
    Message('pitchwheel', channel=3, pitch=2682, time=10),
    Message('pitchwheel', channel=3, pitch=3551, time=11),
    Message('pitchwheel', channel=3, pitch=4276, time=12),
    Message('note_off', channel=3, note=63, velocity=64, time=2),
    Message('pitchwheel', channel=3, pitch=4711, time=7),
    Message('pitchwheel', channel=3, pitch=5146, time=10),
    Message('pitchwheel', channel=3, pitch=5001, time=114),
    Message('pitchwheel', channel=3, pitch=4566, time=10),
    Message('note_on', channel=3, note=63, velocity=54, time=8),
    Message('pitchwheel', channel=3, pitch=4131, time=1),
    Message('pitchwheel', channel=3, pitch=3986, time=12),
    Message('pitchwheel', channel=3, pitch=3841, time=10),
    Message('pitchwheel', channel=3, pitch=3696, time=9),
    Message('pitchwheel', channel=3, pitch=3406, time=11),
    Message('pitchwheel', channel=3, pitch=1957, time=12),
    Message('pitchwheel', channel=3, pitch=0, time=10),
    Message('note_on', channel=3, note=61, velocity=22, time=55),
    Message('note_off', channel=3, note=63, velocity=64, time=32),
    Message('note_on', channel=3, note=58, velocity=39, time=91),
    Message('note_off', channel=3, note=61, velocity=64, time=18),
    Message('note_off', channel=3, note=58, velocity=64, time=90),
    Message('note_on', channel=3, note=39, velocity=49, time=8),
    Message('note_on', channel=3, note=37, velocity=42, time=1),
    Message('note_off', channel=3, note=37, velocity=64, time=26),
    Message('note_off', channel=3, note=39, velocity=64, time=212),
    MetaMessage('end_of_track', time=5893)]),
  MidiTrack([
    MetaMessage('track_name', name='Ana Power Brass\x00\x00\x00\x00\x00\x00\x00\x00\x00', time=0),
    MetaMessage('channel_prefix', channel=4, time=0),
    Message('control_change', channel=4, control=0, value=0, time=0),
    Message('control_change', channel=4, control=32, value=2, time=0),
    Message('program_change', channel=4, program=99, time=0),
    Message('control_change', channel=4, control=7, value=127, time=0),
    Message('control_change', channel=4, control=10, value=64, time=0),
    Message('control_change', channel=4, control=93, value=0, time=0),
    Message('control_change', channel=4, control=91, value=0, time=0),
    Message('note_on', channel=4, note=27, velocity=27, time=2105),
    Message('control_change', channel=4, control=11, value=54, time=1),
    Message('pitchwheel', channel=4, pitch=-8192, time=1),
    Message('control_change', channel=4, control=11, value=55, time=150),
    Message('control_change', channel=4, control=11, value=57, time=88),
    Message('pitchwheel', channel=4, pitch=-7927, time=1),
    Message('control_change', channel=4, control=11, value=58, time=150),
    Message('pitchwheel', channel=4, pitch=-7606, time=1),
    Message('control_change', channel=4, control=11, value=60, time=87),
    Message('pitchwheel', channel=4, pitch=-7259, time=1),
    Message('control_change', channel=4, control=11, value=61, time=151),
    Message('pitchwheel', channel=4, pitch=-6938, time=1),
    Message('control_change', channel=4, control=11, value=63, time=91),
    Message('pitchwheel', channel=4, pitch=-6591, time=1),
    Message('control_change', channel=4, control=11, value=64, time=147),
    Message('pitchwheel', channel=4, pitch=-6270, time=1),
    Message('note_off', channel=4, note=27, velocity=64, time=89),
    Message('note_on', channel=4, note=26, velocity=43, time=0),
    Message('control_change', channel=4, control=11, value=66, time=1),
    Message('pitchwheel', channel=4, pitch=-5923, time=0),
    Message('control_change', channel=4, control=11, value=68, time=150),
    Message('pitchwheel', channel=4, pitch=-5603, time=1),
    Message('control_change', channel=4, control=11, value=69, time=87),
    Message('pitchwheel', channel=4, pitch=-5255, time=1),
    Message('control_change', channel=4, control=11, value=71, time=151),
    Message('pitchwheel', channel=4, pitch=-4935, time=1),
    Message('control_change', channel=4, control=11, value=72, time=88),
    Message('pitchwheel', channel=4, pitch=-4587, time=0),
    Message('control_change', channel=4, control=11, value=74, time=150),
    Message('pitchwheel', channel=4, pitch=-4267, time=0),
    Message('control_change', channel=4, control=11, value=75, time=89),
    Message('pitchwheel', channel=4, pitch=-3919, time=1),
    Message('control_change', channel=4, control=11, value=77, time=150),
    Message('pitchwheel', channel=4, pitch=-3599, time=1),
    Message('note_off', channel=4, note=26, velocity=64, time=89),
    Message('note_on', channel=4, note=25, velocity=59, time=0),
    Message('control_change', channel=4, control=11, value=79, time=1),
    Message('pitchwheel', channel=4, pitch=-3251, time=1),
    Message('control_change', channel=4, control=11, value=80, time=148),
    Message('pitchwheel', channel=4, pitch=-2931, time=1),
    Message('control_change', channel=4, control=11, value=82, time=87),
    Message('pitchwheel', channel=4, pitch=-2584, time=0),
    Message('control_change', channel=4, control=11, value=83, time=152),
    Message('pitchwheel', channel=4, pitch=-2263, time=1),
    Message('control_change', channel=4, control=11, value=85, time=88),
    Message('pitchwheel', channel=4, pitch=-1916, time=1),
    Message('control_change', channel=4, control=11, value=86, time=150),
    Message('pitchwheel', channel=4, pitch=-1595, time=1),
    Message('control_change', channel=4, control=11, value=88, time=88),
    Message('pitchwheel', channel=4, pitch=-1248, time=1),
    Message('control_change', channel=4, control=11, value=89, time=149),
    Message('pitchwheel', channel=4, pitch=-927, time=1),
    Message('note_off', channel=4, note=25, velocity=64, time=89),
    Message('note_on', channel=4, note=25, velocity=75, time=1),
    Message('control_change', channel=4, control=11, value=91, time=0),
    Message('pitchwheel', channel=4, pitch=-580, time=2),
    Message('control_change', channel=4, control=11, value=93, time=148),
    Message('pitchwheel', channel=4, pitch=-259, time=2),
    Message('control_change', channel=4, control=11, value=94, time=87),
    Message('pitchwheel', channel=4, pitch=87, time=1),
    Message('control_change', channel=4, control=11, value=96, time=150),
    Message('pitchwheel', channel=4, pitch=408, time=0),
    Message('control_change', channel=4, control=11, value=97, time=89),
    Message('pitchwheel', channel=4, pitch=755, time=0),
    Message('control_change', channel=4, control=11, value=99, time=151),
    Message('pitchwheel', channel=4, pitch=1076, time=1),
    Message('control_change', channel=4, control=11, value=100, time=87),
    Message('pitchwheel', channel=4, pitch=1423, time=1),
    Message('control_change', channel=4, control=11, value=102, time=151),
    Message('pitchwheel', channel=4, pitch=1744, time=0),
    Message('note_off', channel=4, note=25, velocity=64, time=89),
    Message('note_on', channel=4, note=24, velocity=91, time=1),
    Message('control_change', channel=4, control=11, value=103, time=2),
    Message('pitchwheel', channel=4, pitch=2091, time=0),
    Message('control_change', channel=4, control=11, value=105, time=148),
    Message('pitchwheel', channel=4, pitch=2412, time=1),
    Message('control_change', channel=4, control=11, value=107, time=88),
    Message('pitchwheel', channel=4, pitch=2759, time=1),
    Message('control_change', channel=4, control=11, value=108, time=150),
    Message('pitchwheel', channel=4, pitch=3079, time=2),
    Message('control_change', channel=4, control=11, value=110, time=89),
    Message('pitchwheel', channel=4, pitch=3427, time=0),
    Message('control_change', channel=4, control=11, value=111, time=149),
    Message('pitchwheel', channel=4, pitch=3747, time=1),
    Message('control_change', channel=4, control=11, value=113, time=89),
    Message('pitchwheel', channel=4, pitch=4095, time=0),
    Message('control_change', channel=4, control=11, value=114, time=150),
    Message('pitchwheel', channel=4, pitch=4415, time=1),
    Message('note_off', channel=4, note=24, velocity=64, time=87),
    Message('note_on', channel=4, note=24, velocity=99, time=1),
    Message('control_change', channel=4, control=11, value=116, time=1),
    Message('pitchwheel', channel=4, pitch=4763, time=0),
    Message('control_change', channel=4, control=11, value=117, time=150),
    Message('pitchwheel', channel=4, pitch=5083, time=0),
    Message('control_change', channel=4, control=11, value=119, time=89),
    Message('pitchwheel', channel=4, pitch=5431, time=1),
    Message('control_change', channel=4, control=11, value=121, time=150),
    Message('pitchwheel', channel=4, pitch=5751, time=1),
    Message('control_change', channel=4, control=11, value=122, time=88),
    Message('pitchwheel', channel=4, pitch=6098, time=1),
    Message('control_change', channel=4, control=11, value=124, time=152),
    Message('pitchwheel', channel=4, pitch=6419, time=1),
    Message('control_change', channel=4, control=11, value=125, time=86),
    Message('pitchwheel', channel=4, pitch=6766, time=1),
    Message('control_change', channel=4, control=11, value=127, time=152),
    Message('pitchwheel', channel=4, pitch=7087, time=0),
    Message('note_off', channel=4, note=24, velocity=64, time=87),
    Message('note_on', channel=4, note=23, velocity=110, time=1),
    Message('pitchwheel', channel=4, pitch=7434, time=0),
    Message('pitchwheel', channel=4, pitch=7755, time=150),
    Message('pitchwheel', channel=4, pitch=8102, time=93),
    Message('pitchwheel', channel=4, pitch=8191, time=148),
    Message('note_off', channel=4, note=23, velocity=64, time=569),
    Message('note_on', channel=4, note=23, velocity=127, time=0),
    Message('note_off', channel=4, note=23, velocity=64, time=965),
    Message('pitchwheel', channel=4, pitch=0, time=11669),
    Message('note_on', channel=4, note=65, velocity=102, time=208),
    Message('note_on', channel=4, note=62, velocity=100, time=1),
    Message('note_on', channel=4, note=32, velocity=99, time=0),
    Message('note_on', channel=4, note=54, velocity=107, time=1),
    Message('note_on', channel=4, note=44, velocity=102, time=0),
    Message('pitchwheel', channel=4, pitch=-115, time=192),
    Message('pitchwheel', channel=4, pitch=-395, time=10),
    Message('pitchwheel', channel=4, pitch=-674, time=9),
    Message('pitchwheel', channel=4, pitch=-953, time=11),
    Message('pitchwheel', channel=4, pitch=-1233, time=9),
    Message('pitchwheel', channel=4, pitch=-1512, time=9),
    Message('pitchwheel', channel=4, pitch=-1791, time=10),
    Message('pitchwheel', channel=4, pitch=-2071, time=9),
    Message('pitchwheel', channel=4, pitch=-2350, time=10),
    Message('pitchwheel', channel=4, pitch=-2629, time=9),
    Message('pitchwheel', channel=4, pitch=-2909, time=9),
    Message('note_off', channel=4, note=65, velocity=64, time=8),
    Message('note_off', channel=4, note=54, velocity=64, time=1),
    Message('note_off', channel=4, note=62, velocity=64, time=1),
    Message('note_off', channel=4, note=44, velocity=64, time=0),
    Message('note_off', channel=4, note=32, velocity=64, time=1),
    Message('pitchwheel', channel=4, pitch=-3188, time=1),
    Message('pitchwheel', channel=4, pitch=-3467, time=8),
    Message('pitchwheel', channel=4, pitch=-3747, time=10),
    Message('pitchwheel', channel=4, pitch=-4026, time=9),
    Message('pitchwheel', channel=4, pitch=-4305, time=11),
    Message('pitchwheel', channel=4, pitch=-4585, time=9),
    Message('pitchwheel', channel=4, pitch=-4864, time=11),
    Message('pitchwheel', channel=4, pitch=-5143, time=14),
    Message('pitchwheel', channel=4, pitch=-5423, time=4),
    Message('pitchwheel', channel=4, pitch=-5702, time=10),
    Message('pitchwheel', channel=4, pitch=-5981, time=17),
    Message('pitchwheel', channel=4, pitch=-6261, time=1),
    Message('pitchwheel', channel=4, pitch=0, time=10),
    Message('note_on', channel=4, note=65, velocity=123, time=2343),
    Message('note_on', channel=4, note=58, velocity=117, time=0),
    Message('note_on', channel=4, note=62, velocity=120, time=1),
    Message('note_on', channel=4, note=54, velocity=123, time=1),
    Message('note_off', channel=4, note=65, velocity=64, time=117),
    Message('note_off', channel=4, note=58, velocity=64, time=1),
    Message('note_off', channel=4, note=62, velocity=64, time=0),
    Message('note_off', channel=4, note=54, velocity=64, time=0),
    Message('note_on', channel=4, note=58, velocity=123, time=241),
    Message('note_on', channel=4, note=66, velocity=123, time=1),
    Message('note_on', channel=4, note=63, velocity=123, time=0),
    Message('note_on', channel=4, note=55, velocity=120, time=0),
    Message('note_on', channel=4, note=59, velocity=120, time=1),
    Message('note_off', channel=4, note=58, velocity=64, time=105),
    Message('note_off', channel=4, note=66, velocity=64, time=13),
    Message('note_off', channel=4, note=55, velocity=64, time=8),
    Message('note_off', channel=4, note=59, velocity=64, time=0),
    Message('note_off', channel=4, note=63, velocity=64, time=12),
    Message('control_change', channel=4, control=11, value=127, time=11593),
    Message('note_on', channel=4, note=72, velocity=127, time=30),
    Message('note_on', channel=4, note=32, velocity=113, time=0),
    Message('note_on', channel=4, note=63, velocity=125, time=1),
    Message('note_off', channel=4, note=72, velocity=64, time=356),
    Message('note_off', channel=4, note=32, velocity=64, time=1),
    Message('note_off', channel=4, note=63, velocity=64, time=1),
    Message('note_on', channel=4, note=35, velocity=124, time=6629),
    Message('note_on', channel=4, note=62, velocity=113, time=5),
    Message('note_on', channel=4, note=57, velocity=107, time=0),
    Message('note_off', channel=4, note=57, velocity=64, time=106),
    Message('note_off', channel=4, note=62, velocity=64, time=10),
    Message('note_off', channel=4, note=35, velocity=64, time=25),
    Message('note_on', channel=4, note=63, velocity=113, time=307),
    Message('note_on', channel=4, note=58, velocity=113, time=3),
    Message('note_on', channel=4, note=36, velocity=113, time=7),
    Message('note_off', channel=4, note=63, velocity=64, time=111),
    Message('note_off', channel=4, note=58, velocity=64, time=2),
    Message('note_off', channel=4, note=36, velocity=64, time=25),
    Message('note_on', channel=4, note=37, velocity=124, time=333),
    Message('note_on', channel=4, note=59, velocity=113, time=3),
    Message('note_on', channel=4, note=64, velocity=119, time=1),
    Message('note_off', channel=4, note=59, velocity=64, time=126),
    Message('note_off', channel=4, note=64, velocity=64, time=2),
    Message('note_off', channel=4, note=37, velocity=64, time=14),
    Message('note_on', channel=4, note=27, velocity=119, time=352),
    Message('note_on', channel=4, note=68, velocity=107, time=1),
    Message('note_on', channel=4, note=61, velocity=107, time=1),
    Message('note_on', channel=4, note=65, velocity=110, time=1),
    Message('note_off', channel=4, note=27, velocity=64, time=569),
    Message('note_off', channel=4, note=61, velocity=64, time=954),
    Message('note_off', channel=4, note=68, velocity=64, time=11),
    Message('note_off', channel=4, note=65, velocity=64, time=0),
    Message('note_on', channel=4, note=65, velocity=113, time=1342),
    Message('note_on', channel=4, note=72, velocity=113, time=0),
    Message('note_on', channel=4, note=60, velocity=113, time=3),
    Message('note_off', channel=4, note=65, velocity=64, time=68),
    Message('note_off', channel=4, note=72, velocity=64, time=0),
    Message('note_off', channel=4, note=60, velocity=64, time=0),
    Message('note_on', channel=4, note=65, velocity=124, time=170),
    Message('note_on', channel=4, note=72, velocity=124, time=1),
    Message('note_on', channel=4, note=60, velocity=124, time=0),
    Message('note_off', channel=4, note=65, velocity=64, time=94),
    Message('note_off', channel=4, note=72, velocity=64, time=0),
    Message('note_off', channel=4, note=60, velocity=64, time=1),
    Message('note_on', channel=4, note=63, velocity=119, time=3),
    Message('note_on', channel=4, note=70, velocity=119, time=3),
    Message('note_on', channel=4, note=58, velocity=119, time=0),
    Message('note_off', channel=4, note=63, velocity=64, time=88),
    Message('note_off', channel=4, note=70, velocity=64, time=1),
    Message('note_off', channel=4, note=58, velocity=64, time=0),
    Message('pitchwheel', channel=4, pitch=0, time=4466),
    Message('note_on', channel=4, note=24, velocity=110, time=6),
    Message('note_off', channel=4, note=24, velocity=64, time=196),
    Message('note_on', channel=4, note=25, velocity=80, time=1624),
    Message('note_on', channel=4, note=37, velocity=80, time=1),
    Message('note_off', channel=4, note=25, velocity=64, time=29),
    Message('note_off', channel=4, note=37, velocity=64, time=1),
    Message('note_on', channel=4, note=26, velocity=50, time=63),
    Message('note_on', channel=4, note=38, velocity=50, time=0),
    Message('note_off', channel=4, note=26, velocity=64, time=74),
    Message('note_off', channel=4, note=38, velocity=64, time=1),
    Message('note_on', channel=4, note=26, velocity=75, time=165),
    Message('note_on', channel=4, note=38, velocity=75, time=0),
    Message('note_off', channel=4, note=26, velocity=64, time=93),
    Message('note_off', channel=4, note=38, velocity=64, time=2),
    Message('note_on', channel=4, note=26, velocity=90, time=1586),
    Message('note_off', channel=4, note=26, velocity=64, time=133),
    Message('note_on', channel=4, note=30, velocity=81, time=352),
    Message('note_off', channel=4, note=30, velocity=64, time=139),
    Message('note_on', channel=4, note=33, velocity=87, time=339),
    Message('note_off', channel=4, note=33, velocity=64, time=157),
    Message('note_on', channel=4, note=30, velocity=86, time=702),
    Message('note_off', channel=4, note=30, velocity=64, time=105),
    Message('note_on', channel=4, note=53, velocity=82, time=3),
    Message('note_on', channel=4, note=31, velocity=111, time=1),
    Message('note_on', channel=4, note=59, velocity=74, time=0),
    Message('note_off', channel=4, note=59, velocity=64, time=36),
    Message('note_off', channel=4, note=53, velocity=64, time=20),
    Message('note_off', channel=4, note=31, velocity=64, time=2),
    Message('note_on', channel=4, note=53, velocity=79, time=175),
    Message('note_on', channel=4, note=31, velocity=98, time=1),
    Message('note_on', channel=4, note=59, velocity=75, time=1),
    Message('note_off', channel=4, note=59, velocity=64, time=189),
    Message('note_off', channel=4, note=31, velocity=64, time=33),
    Message('note_off', channel=4, note=53, velocity=64, time=4),
    Message('note_on', channel=4, note=30, velocity=53, time=248),
    Message('note_on', channel=4, note=58, velocity=72, time=0),
    Message('note_on', channel=4, note=52, velocity=77, time=1),
    Message('pitchwheel', channel=4, pitch=-56, time=490),
    Message('pitchwheel', channel=4, pitch=-170, time=21),
    Message('pitchwheel', channel=4, pitch=-396, time=11),
    Message('pitchwheel', channel=4, pitch=-963, time=20),
    Message('pitchwheel', channel=4, pitch=-1303, time=12),
    Message('pitchwheel', channel=4, pitch=-1870, time=9),
    Message('pitchwheel', channel=4, pitch=-2777, time=10),
    Message('pitchwheel', channel=4, pitch=-3571, time=10),
    Message('pitchwheel', channel=4, pitch=-4251, time=11),
    Message('pitchwheel', channel=4, pitch=-5611, time=10),
    Message('pitchwheel', channel=4, pitch=-6858, time=10),
    Message('pitchwheel', channel=4, pitch=-8192, time=11),
    Message('note_off', channel=4, note=52, velocity=64, time=49),
    Message('note_off', channel=4, note=58, velocity=64, time=13),
    Message('note_off', channel=4, note=30, velocity=64, time=13),
    Message('pitchwheel', channel=4, pitch=-6745, time=91),
    Message('pitchwheel', channel=4, pitch=-5385, time=10),
    Message('pitchwheel', channel=4, pitch=-3797, time=15),
    Message('pitchwheel', channel=4, pitch=-2890, time=7),
    Message('pitchwheel', channel=4, pitch=-1870, time=9),
    Message('pitchwheel', channel=4, pitch=-850, time=12),
    Message('pitchwheel', channel=4, pitch=0, time=9),
    Message('note_on', channel=4, note=30, velocity=105, time=826),
    Message('note_on', channel=4, note=54, velocity=76, time=1),
    Message('note_off', channel=4, note=54, velocity=64, time=118),
    Message('note_off', channel=4, note=30, velocity=64, time=17),
    Message('note_on', channel=4, note=33, velocity=109, time=346),
    Message('note_on', channel=4, note=57, velocity=78, time=0),
    Message('note_off', channel=4, note=57, velocity=64, time=121),
    Message('note_off', channel=4, note=33, velocity=64, time=41),
    Message('note_on', channel=4, note=30, velocity=96, time=1274),
    Message('note_on', channel=4, note=54, velocity=87, time=0),
    Message('note_off', channel=4, note=54, velocity=64, time=86),
    Message('note_off', channel=4, note=30, velocity=64, time=9),
    Message('note_on', channel=4, note=30, velocity=80, time=146),
    Message('note_on', channel=4, note=54, velocity=69, time=0),
    Message('note_off', channel=4, note=54, velocity=64, time=80),
    Message('note_off', channel=4, note=30, velocity=64, time=17),
    Message('note_on', channel=4, note=33, velocity=89, time=143),
    Message('note_on', channel=4, note=57, velocity=81, time=1),
    Message('note_off', channel=4, note=57, velocity=64, time=115),
    Message('note_off', channel=4, note=33, velocity=64, time=29),
    Message('control_change', channel=4, control=1, value=0, time=542),
    Message('control_change', channel=4, control=11, value=127, time=61),
    Message('note_on', channel=4, note=30, velocity=100, time=117),
    Message('note_off', channel=4, note=30, velocity=64, time=46),
    Message('note_on', channel=4, note=26, velocity=92, time=51),
    Message('note_off', channel=4, note=26, velocity=64, time=102),
    Message('note_on', channel=4, note=26, velocity=87, time=136),
    Message('note_off', channel=4, note=26, velocity=64, time=89),
    Message('note_on', channel=4, note=30, velocity=80, time=152),
    Message('note_off', channel=4, note=30, velocity=64, time=92),
    Message('note_on', channel=4, note=30, velocity=83, time=147),
    Message('note_off', channel=4, note=30, velocity=64, time=87),
    Message('note_on', channel=4, note=33, velocity=80, time=153),
    Message('note_off', channel=4, note=33, velocity=64, time=133),
    Message('note_on', channel=4, note=47, velocity=90, time=106),
    Message('note_on', channel=4, note=35, velocity=90, time=1),
    Message('note_off', channel=4, note=47, velocity=64, time=89),
    Message('note_off', channel=4, note=35, velocity=64, time=1),
    Message('note_on', channel=4, note=48, velocity=91, time=60),
    Message('note_on', channel=4, note=36, velocity=91, time=0),
    Message('note_off', channel=4, note=48, velocity=64, time=76),
    Message('note_off', channel=4, note=36, velocity=64, time=0),
    Message('note_on', channel=4, note=49, velocity=92, time=22),
    Message('note_on', channel=4, note=37, velocity=92, time=0),
    Message('note_off', channel=4, note=49, velocity=64, time=92),
    Message('note_off', channel=4, note=37, velocity=64, time=0),
    Message('note_on', channel=4, note=52, velocity=93, time=54),
    Message('note_on', channel=4, note=40, velocity=93, time=0),
    Message('note_off', channel=4, note=52, velocity=64, time=69),
    Message('note_off', channel=4, note=40, velocity=64, time=0),
    Message('note_on', channel=4, note=54, velocity=93, time=25),
    Message('note_on', channel=4, note=42, velocity=93, time=0),
    Message('note_off', channel=4, note=54, velocity=64, time=133),
    Message('note_off', channel=4, note=42, velocity=64, time=1),
    Message('note_on', channel=4, note=30, velocity=62, time=2),
    Message('note_off', channel=4, note=30, velocity=64, time=41),
    Message('note_on', channel=4, note=31, velocity=109, time=57),
    Message('note_on', channel=4, note=64, velocity=127, time=1),
    Message('note_on', channel=4, note=59, velocity=123, time=0),
    Message('note_on', channel=4, note=57, velocity=113, time=1),
    Message('note_on', channel=4, note=53, velocity=104, time=1),
    Message('note_off', channel=4, note=57, velocity=64, time=35),
    Message('note_off', channel=4, note=59, velocity=64, time=3),
    Message('note_off', channel=4, note=53, velocity=64, time=3),
    Message('note_off', channel=4, note=64, velocity=64, time=8),
    Message('note_off', channel=4, note=31, velocity=64, time=19),
    Message('note_on', channel=4, note=31, velocity=114, time=168),
    Message('note_on', channel=4, note=57, velocity=99, time=1),
    Message('note_on', channel=4, note=59, velocity=100, time=1),
    Message('note_on', channel=4, note=64, velocity=99, time=1),
    Message('note_on', channel=4, note=53, velocity=100, time=1),
    Message('note_off', channel=4, note=64, velocity=64, time=207),
    Message('note_off', channel=4, note=59, velocity=64, time=1),
    Message('note_off', channel=4, note=57, velocity=64, time=12),
    Message('note_off', channel=4, note=53, velocity=64, time=15),
    Message('note_off', channel=4, note=31, velocity=64, time=22),
    Message('note_on', channel=4, note=58, velocity=89, time=223),
    Message('note_on', channel=4, note=63, velocity=80, time=1),
    Message('note_on', channel=4, note=60, velocity=104, time=0),
    Message('note_on', channel=4, note=52, velocity=94, time=1),
    Message('note_on', channel=4, note=56, velocity=71, time=0),
    Message('note_on', channel=4, note=30, velocity=66, time=3),
    Message('control_change', channel=4, control=1, value=17, time=64),
    Message('control_change', channel=4, control=1, value=32, time=15),
    Message('control_change', channel=4, control=1, value=50, time=6),
    Message('control_change', channel=4, control=1, value=62, time=10),
    Message('control_change', channel=4, control=1, value=77, time=11),
    Message('control_change', channel=4, control=1, value=91, time=10),
    Message('control_change', channel=4, control=1, value=95, time=10),
    Message('control_change', channel=4, control=1, value=108, time=11),
    Message('control_change', channel=4, control=1, value=112, time=10),
    Message('control_change', channel=4, control=1, value=118, time=11),
    Message('control_change', channel=4, control=1, value=122, time=10),
    Message('control_change', channel=4, control=1, value=127, time=20),
    Message('control_change', channel=4, control=11, value=127, time=314),
    Message('pitchwheel', channel=4, pitch=-56, time=8),
    Message('pitchwheel', channel=4, pitch=-396, time=11),
    Message('pitchwheel', channel=4, pitch=-623, time=9),
    Message('control_change', channel=4, control=11, value=126, time=10),
    Message('pitchwheel', channel=4, pitch=-1077, time=1),
    Message('control_change', channel=4, control=11, value=125, time=9),
    Message('pitchwheel', channel=4, pitch=-1303, time=1),
    Message('control_change', channel=4, control=11, value=124, time=14),
    Message('pitchwheel', channel=4, pitch=-1530, time=0),
    Message('control_change', channel=4, control=11, value=123, time=4),
    Message('pitchwheel', channel=4, pitch=-1643, time=3),
    Message('control_change', channel=4, control=11, value=122, time=6),
    Message('pitchwheel', channel=4, pitch=-1757, time=4),
    Message('control_change', channel=4, control=11, value=121, time=15),
    Message('pitchwheel', channel=4, pitch=-1983, time=0),
    Message('control_change', channel=4, control=11, value=120, time=2),
    Message('pitchwheel', channel=4, pitch=-2210, time=4),
    Message('control_change', channel=4, control=11, value=119, time=4),
    Message('pitchwheel', channel=4, pitch=-2324, time=6),
    Message('control_change', channel=4, control=11, value=118, time=11),
    Message('pitchwheel', channel=4, pitch=-2664, time=1),
    Message('control_change', channel=4, control=11, value=117, time=2),
    Message('pitchwheel', channel=4, pitch=-2777, time=6),
    Message('control_change', channel=4, control=11, value=116, time=2),
    Message('control_change', channel=4, control=11, value=115, time=15),
    Message('control_change', channel=4, control=11, value=114, time=4),
    Message('pitchwheel', channel=4, pitch=-2890, time=1),
    Message('control_change', channel=4, control=11, value=113, time=9),
    Message('control_change', channel=4, control=11, value=112, time=10),
    Message('control_change', channel=4, control=11, value=111, time=9),
    Message('pitchwheel', channel=4, pitch=-3004, time=2),
    Message('control_change', channel=4, control=11, value=110, time=7),
    Message('pitchwheel', channel=4, pitch=-3117, time=3),
    Message('control_change', channel=4, control=11, value=109, time=7),
    Message('pitchwheel', channel=4, pitch=-3344, time=9),
    Message('control_change', channel=4, control=11, value=108, time=4),
    Message('pitchwheel', channel=4, pitch=-3684, time=1),
    Message('control_change', channel=4, control=1, value=122, time=1),
    Message('control_change', channel=4, control=11, value=107, time=5),
    Message('pitchwheel', channel=4, pitch=-3911, time=5),
    Message('control_change', channel=4, control=1, value=118, time=1),
    Message('control_change', channel=4, control=11, value=106, time=4),
    Message('pitchwheel', channel=4, pitch=-4138, time=8),
    Message('control_change', channel=4, control=1, value=112, time=1),
    Message('control_change', channel=4, control=11, value=105, time=3),
    Message('pitchwheel', channel=4, pitch=-4251, time=3),
    Message('control_change', channel=4, control=11, value=104, time=4),
    Message('control_change', channel=4, control=1, value=108, time=7),
    Message('control_change', channel=4, control=11, value=103, time=2),
    Message('pitchwheel', channel=4, pitch=-4704, time=9),
    Message('control_change', channel=4, control=11, value=102, time=5),
    Message('pitchwheel', channel=4, pitch=-4818, time=5),
    Message('control_change', channel=4, control=11, value=101, time=0),
    Message('control_change', channel=4, control=1, value=102, time=2),
    Message('control_change', channel=4, control=11, value=100, time=8),
    Message('pitchwheel', channel=4, pitch=-4931, time=1),
    Message('control_change', channel=4, control=1, value=98, time=1),
    Message('control_change', channel=4, control=11, value=99, time=7),
    Message('pitchwheel', channel=4, pitch=-5044, time=1),
    Message('control_change', channel=4, control=1, value=95, time=1),
    Message('control_change', channel=4, control=11, value=98, time=8),
    Message('pitchwheel', channel=4, pitch=-5158, time=1),
    Message('control_change', channel=4, control=1, value=91, time=1),
    Message('control_change', channel=4, control=11, value=97, time=9),
    Message('pitchwheel', channel=4, pitch=-5271, time=1),
    Message('control_change', channel=4, control=1, value=85, time=1),
    Message('control_change', channel=4, control=11, value=96, time=14),
    Message('pitchwheel', channel=4, pitch=-5385, time=0),
    Message('control_change', channel=4, control=1, value=81, time=2),
    Message('control_change', channel=4, control=11, value=95, time=3),
    Message('pitchwheel', channel=4, pitch=-5611, time=1),
    Message('control_change', channel=4, control=11, value=94, time=6),
    Message('pitchwheel', channel=4, pitch=-5951, time=4),
    Message('control_change', channel=4, control=11, value=93, time=13),
    Message('pitchwheel', channel=4, pitch=-6178, time=1),
    Message('control_change', channel=4, control=1, value=60, time=1),
    Message('control_change', channel=4, control=11, value=92, time=2),
    Message('pitchwheel', channel=4, pitch=-6292, time=3),
    Message('control_change', channel=4, control=1, value=52, time=2),
    Message('control_change', channel=4, control=11, value=91, time=3),
    Message('pitchwheel', channel=4, pitch=-6518, time=6),
    Message('control_change', channel=4, control=1, value=46, time=1),
    Message('control_change', channel=4, control=11, value=90, time=2),
    Message('pitchwheel', channel=4, pitch=-6632, time=11),
    Message('control_change', channel=4, control=1, value=38, time=2),
    Message('control_change', channel=4, control=11, value=89, time=1),
    Message('pitchwheel', channel=4, pitch=-6858, time=4),
    Message('control_change', channel=4, control=11, value=88, time=2),
    Message('control_change', channel=4, control=1, value=34, time=0),
    Message('control_change', channel=4, control=11, value=87, time=9),
    Message('pitchwheel', channel=4, pitch=-7085, time=0),
    Message('control_change', channel=4, control=11, value=86, time=10),
    Message('pitchwheel', channel=4, pitch=-7425, time=0),
    Message('control_change', channel=4, control=1, value=19, time=2),
    Message('control_change', channel=4, control=11, value=85, time=7),
    Message('pitchwheel', channel=4, pitch=-7765, time=1),
    Message('control_change', channel=4, control=1, value=9, time=1),
    Message('control_change', channel=4, control=11, value=84, time=7),
    Message('pitchwheel', channel=4, pitch=-8192, time=2),
    Message('control_change', channel=4, control=11, value=83, time=8),
    Message('control_change', channel=4, control=11, value=82, time=9),
    Message('control_change', channel=4, control=1, value=0, time=4),
    Message('control_change', channel=4, control=11, value=81, time=6),
    Message('control_change', channel=4, control=11, value=80, time=11),
    Message('control_change', channel=4, control=11, value=79, time=8),
    Message('control_change', channel=4, control=11, value=78, time=11),
    Message('control_change', channel=4, control=11, value=77, time=8),
    Message('control_change', channel=4, control=11, value=76, time=11),
    Message('control_change', channel=4, control=11, value=75, time=9),
    Message('control_change', channel=4, control=11, value=74, time=9),
    Message('control_change', channel=4, control=11, value=73, time=10),
    Message('control_change', channel=4, control=11, value=72, time=10),
    Message('control_change', channel=4, control=11, value=71, time=9),
    Message('control_change', channel=4, control=11, value=70, time=10),
    Message('control_change', channel=4, control=11, value=69, time=9),
    Message('control_change', channel=4, control=11, value=68, time=23),
    Message('control_change', channel=4, control=11, value=67, time=2),
    Message('control_change', channel=4, control=11, value=66, time=5),
    Message('control_change', channel=4, control=11, value=65, time=9),
    Message('control_change', channel=4, control=11, value=64, time=11),
    Message('pitchwheel', channel=4, pitch=-7957, time=6),
    Message('control_change', channel=4, control=11, value=63, time=3),
    Message('pitchwheel', channel=4, pitch=-7650, time=7),
    Message('control_change', channel=4, control=11, value=62, time=2),
    Message('pitchwheel', channel=4, pitch=-7342, time=14),
    Message('control_change', channel=4, control=11, value=61, time=2),
    Message('pitchwheel', channel=4, pitch=-7035, time=2),
    Message('control_change', channel=4, control=11, value=60, time=2),
    Message('pitchwheel', channel=4, pitch=-6727, time=7),
    Message('control_change', channel=4, control=11, value=59, time=2),
    Message('pitchwheel', channel=4, pitch=-6420, time=8),
    Message('control_change', channel=4, control=11, value=58, time=7),
    Message('pitchwheel', channel=4, pitch=-6112, time=2),
    Message('control_change', channel=4, control=11, value=57, time=2),
    Message('pitchwheel', channel=4, pitch=-5805, time=8),
    Message('control_change', channel=4, control=11, value=56, time=2),
    Message('pitchwheel', channel=4, pitch=-5497, time=7),
    Message('control_change', channel=4, control=11, value=55, time=1),
    Message('pitchwheel', channel=4, pitch=-5189, time=8),
    Message('control_change', channel=4, control=11, value=54, time=2),
    Message('pitchwheel', channel=4, pitch=-4882, time=7),
    Message('control_change', channel=4, control=11, value=53, time=2),
    Message('pitchwheel', channel=4, pitch=-4574, time=8),
    Message('control_change', channel=4, control=11, value=52, time=2),
    Message('control_change', channel=4, control=1, value=0, time=8),
    Message('pitchwheel', channel=4, pitch=-4267, time=1),
    Message('control_change', channel=4, control=11, value=51, time=3),
    Message('pitchwheel', channel=4, pitch=-3959, time=5),
    Message('pitchwheel', channel=4, pitch=-3652, time=10),
    Message('control_change', channel=4, control=11, value=50, time=2),
    Message('pitchwheel', channel=4, pitch=-3344, time=7),
    Message('control_change', channel=4, control=11, value=49, time=2),
    Message('pitchwheel', channel=4, pitch=-3037, time=8),
    Message('control_change', channel=4, control=11, value=48, time=1),
    Message('pitchwheel', channel=4, pitch=-2729, time=8),
    Message('control_change', channel=4, control=11, value=47, time=2),
    Message('pitchwheel', channel=4, pitch=-2421, time=12),
    Message('control_change', channel=4, control=11, value=46, time=1),
    Message('pitchwheel', channel=4, pitch=-2114, time=5),
    Message('control_change', channel=4, control=11, value=45, time=2),
    Message('pitchwheel', channel=4, pitch=-1806, time=7),
    Message('control_change', channel=4, control=11, value=44, time=2),
    Message('pitchwheel', channel=4, pitch=-1499, time=8),
    Message('control_change', channel=4, control=11, value=43, time=2),
    Message('pitchwheel', channel=4, pitch=-1191, time=7),
    Message('control_change', channel=4, control=11, value=42, time=2),
    Message('pitchwheel', channel=4, pitch=-884, time=8),
    Message('control_change', channel=4, control=11, value=41, time=2),
    Message('pitchwheel', channel=4, pitch=-576, time=15),
    Message('control_change', channel=4, control=11, value=40, time=2),
    Message('pitchwheel', channel=4, pitch=-268, time=1),
    Message('control_change', channel=4, control=11, value=39, time=2),
    Message('pitchwheel', channel=4, pitch=38, time=7),
    Message('control_change', channel=4, control=11, value=38, time=2),
    Message('pitchwheel', channel=4, pitch=346, time=16),
    Message('control_change', channel=4, control=11, value=37, time=2),
    Message('pitchwheel', channel=4, pitch=653, time=1),
    Message('control_change', channel=4, control=11, value=36, time=2),
    Message('pitchwheel', channel=4, pitch=961, time=6),
    Message('control_change', channel=4, control=11, value=35, time=2),
    Message('pitchwheel', channel=4, pitch=1268, time=18),
    Message('control_change', channel=4, control=11, value=34, time=2),
    Message('pitchwheel', channel=4, pitch=1576, time=2),
    Message('control_change', channel=4, control=11, value=33, time=1),
    Message('pitchwheel', channel=4, pitch=1883, time=3),
    Message('control_change', channel=4, control=11, value=32, time=2),
    Message('pitchwheel', channel=4, pitch=2191, time=10),
    Message('control_change', channel=4, control=11, value=31, time=3),
    Message('pitchwheel', channel=4, pitch=2499, time=5),
    Message('control_change', channel=4, control=11, value=30, time=2),
    Message('pitchwheel', channel=4, pitch=2806, time=7),
    Message('control_change', channel=4, control=11, value=29, time=2),
    Message('pitchwheel', channel=4, pitch=3114, time=8),
    Message('control_change', channel=4, control=11, value=28, time=2),
    Message('pitchwheel', channel=4, pitch=3421, time=9),
    Message('control_change', channel=4, control=11, value=27, time=3),
    Message('pitchwheel', channel=4, pitch=3729, time=5),
    Message('control_change', channel=4, control=11, value=26, time=2),
    Message('pitchwheel', channel=4, pitch=4036, time=7),
    Message('control_change', channel=4, control=11, value=25, time=2),
    Message('pitchwheel', channel=4, pitch=4344, time=11),
    Message('control_change', channel=4, control=11, value=24, time=3),
    Message('pitchwheel', channel=4, pitch=4651, time=4),
    Message('control_change', channel=4, control=11, value=23, time=2),
    Message('pitchwheel', channel=4, pitch=4959, time=8),
    Message('control_change', channel=4, control=11, value=22, time=2),
    Message('pitchwheel', channel=4, pitch=5267, time=7),
    Message('control_change', channel=4, control=11, value=21, time=2),
    Message('pitchwheel', channel=4, pitch=5574, time=8),
    Message('control_change', channel=4, control=11, value=20, time=2),
    Message('pitchwheel', channel=4, pitch=5882, time=7),
    Message('control_change', channel=4, control=11, value=19, time=3),
    Message('pitchwheel', channel=4, pitch=6189, time=7),
    Message('control_change', channel=4, control=11, value=18, time=7),
    Message('pitchwheel', channel=4, pitch=6497, time=3),
    Message('control_change', channel=4, control=11, value=17, time=2),
    Message('pitchwheel', channel=4, pitch=6804, time=7),
    Message('control_change', channel=4, control=11, value=16, time=2),
    Message('pitchwheel', channel=4, pitch=7112, time=8),
    Message('control_change', channel=4, control=11, value=15, time=2),
    Message('pitchwheel', channel=4, pitch=7419, time=7),
    Message('control_change', channel=4, control=11, value=14, time=2),
    Message('pitchwheel', channel=4, pitch=7727, time=7),
    Message('control_change', channel=4, control=11, value=13, time=3),
    Message('pitchwheel', channel=4, pitch=8035, time=14),
    Message('control_change', channel=4, control=11, value=12, time=2),
    Message('pitchwheel', channel=4, pitch=8191, time=1),
    Message('control_change', channel=4, control=11, value=11, time=3),
    Message('control_change', channel=4, control=11, value=10, time=9),
    Message('note_off', channel=4, note=60, velocity=64, time=15),
    Message('note_off', channel=4, note=30, velocity=64, time=0),
    Message('note_off', channel=4, note=63, velocity=64, time=1),
    Message('note_off', channel=4, note=52, velocity=64, time=0),
    Message('note_off', channel=4, note=58, velocity=64, time=2),
    Message('note_off', channel=4, note=56, velocity=64, time=0),
    Message('control_change', channel=4, control=11, value=9, time=2),
    Message('control_change', channel=4, control=11, value=8, time=1),
    Message('control_change', channel=4, control=11, value=7, time=8),
    Message('pitchwheel', channel=4, pitch=0, time=18),
    Message('control_change', channel=4, control=11, value=6, time=2),
    Message('control_change', channel=4, control=11, value=5, time=2),
    Message('control_change', channel=4, control=11, value=4, time=6),
    Message('control_change', channel=4, control=11, value=3, time=10),
    Message('control_change', channel=4, control=11, value=2, time=9),
    Message('control_change', channel=4, control=11, value=1, time=10),
    Message('control_change', channel=4, control=11, value=0, time=9),
    MetaMessage('end_of_track', time=94526)]),
  MidiTrack([
    MetaMessage('track_name', name='G.Duke Old&Funkz Mk I Ep', time=0),
    MetaMessage('channel_prefix', channel=5, time=0),
    Message('control_change', channel=5, control=0, value=0, time=0),
    Message('control_change', channel=5, control=32, value=2, time=0),
    Message('program_change', channel=5, program=13, time=0),
    Message('control_change', channel=5, control=7, value=127, time=0),
    Message('control_change', channel=5, control=10, value=64, time=0),
    Message('control_change', channel=5, control=93, value=0, time=0),
    Message('control_change', channel=5, control=91, value=0, time=0),
    Message('control_change', channel=5, control=11, value=65, time=9600),
    Message('pitchwheel', channel=5, pitch=-7983, time=3788),
    Message('note_on', channel=5, note=32, velocity=119, time=0),
    Message('note_on', channel=5, note=44, velocity=119, time=2),
    Message('pitchwheel', channel=5, pitch=-7652, time=15),
    Message('pitchwheel', channel=5, pitch=-7322, time=1),
    Message('pitchwheel', channel=5, pitch=-6991, time=7),
    Message('pitchwheel', channel=5, pitch=-6661, time=11),
    Message('pitchwheel', channel=5, pitch=-6330, time=11),
    Message('pitchwheel', channel=5, pitch=-6000, time=8),
    Message('pitchwheel', channel=5, pitch=-5669, time=8),
    Message('pitchwheel', channel=5, pitch=-5339, time=15),
    Message('pitchwheel', channel=5, pitch=-5008, time=5),
    Message('pitchwheel', channel=5, pitch=-4678, time=9),
    Message('pitchwheel', channel=5, pitch=-4348, time=10),
    Message('pitchwheel', channel=5, pitch=-4017, time=9),
    Message('pitchwheel', channel=5, pitch=-3687, time=10),
    Message('pitchwheel', channel=5, pitch=-3356, time=10),
    Message('pitchwheel', channel=5, pitch=-3026, time=10),
    Message('pitchwheel', channel=5, pitch=-2695, time=9),
    Message('pitchwheel', channel=5, pitch=-2365, time=11),
    Message('pitchwheel', channel=5, pitch=-2034, time=9),
    Message('pitchwheel', channel=5, pitch=-1704, time=10),
    Message('pitchwheel', channel=5, pitch=-1373, time=9),
    Message('pitchwheel', channel=5, pitch=-1043, time=11),
    Message('pitchwheel', channel=5, pitch=-712, time=9),
    Message('pitchwheel', channel=5, pitch=-382, time=19),
    Message('pitchwheel', channel=5, pitch=0, time=2),
    Message('note_off', channel=5, note=32, velocity=64, time=9),
    Message('note_off', channel=5, note=44, velocity=64, time=1),
    Message('note_on', channel=5, note=32, velocity=119, time=5),
    Message('note_on', channel=5, note=44, velocity=119, time=0),
    Message('note_off', channel=5, note=44, velocity=64, time=168),
    Message('note_off', channel=5, note=32, velocity=64, time=16),
    Message('note_on', channel=5, note=32, velocity=104, time=1609),
    Message('note_on', channel=5, note=44, velocity=113, time=2),
    Message('note_off', channel=5, note=32, velocity=64, time=263),
    Message('note_off', channel=5, note=44, velocity=64, time=2),
    Message('note_on', channel=5, note=48, velocity=104, time=96),
    Message('note_on', channel=5, note=36, velocity=102, time=2),
    Message('note_off', channel=5, note=48, velocity=64, time=140),
    Message('note_off', channel=5, note=36, velocity=64, time=2),
    Message('note_on', channel=5, note=39, velocity=104, time=104),
    Message('note_on', channel=5, note=51, velocity=113, time=1),
    Message('note_off', channel=5, note=51, velocity=64, time=145),
    Message('note_off', channel=5, note=39, velocity=64, time=13),
    Message('control_change', channel=5, control=10, value=38, time=112),
    Message('control_change', channel=5, control=11, value=48, time=78),
    Message('note_on', channel=5, note=47, velocity=124, time=0),
    Message('note_on', channel=5, note=55, velocity=104, time=18),
    Message('note_on', channel=5, note=56, velocity=92, time=1),
    Message('note_on', channel=5, note=53, velocity=92, time=1),
    Message('note_off', channel=5, note=53, velocity=64, time=12),
    Message('note_off', channel=5, note=55, velocity=64, time=3),
    Message('note_off', channel=5, note=56, velocity=64, time=0),
    Message('note_on', channel=5, note=48, velocity=68, time=94),
    Message('note_off', channel=5, note=47, velocity=64, time=33),
    Message('note_off', channel=5, note=48, velocity=64, time=77),
    Message('note_on', channel=5, note=56, velocity=124, time=2),
    Message('note_off', channel=5, note=56, velocity=64, time=149),
    Message('note_on', channel=5, note=32, velocity=75, time=123),
    Message('note_on', channel=5, note=47, velocity=55, time=24),
    Message('note_off', channel=5, note=47, velocity=64, time=23),
    Message('note_off', channel=5, note=32, velocity=64, time=1),
    Message('note_on', channel=5, note=47, velocity=107, time=48),
    Message('note_on', channel=5, note=46, velocity=127, time=20),
    Message('note_on', channel=5, note=49, velocity=107, time=3),
    Message('note_off', channel=5, note=49, velocity=64, time=9),
    Message('note_off', channel=5, note=47, velocity=64, time=26),
    Message('note_off', channel=5, note=46, velocity=64, time=61),
    Message('note_on', channel=5, note=44, velocity=96, time=1),
    Message('note_off', channel=5, note=44, velocity=64, time=106),
    Message('note_on', channel=5, note=41, velocity=95, time=27),
    Message('note_on', channel=5, note=39, velocity=102, time=94),
    Message('note_off', channel=5, note=41, velocity=64, time=17),
    Message('note_off', channel=5, note=39, velocity=64, time=76),
    Message('control_change', channel=5, control=10, value=64, time=28),
    Message('control_change', channel=5, control=11, value=65, time=0),
    Message('note_on', channel=5, note=44, velocity=110, time=19),
    Message('note_on', channel=5, note=32, velocity=110, time=2),
    Message('note_on', channel=5, note=32, velocity=46, time=4),
    Message('note_on', channel=5, note=36, velocity=68, time=0),
    Message('note_off', channel=5, note=32, velocity=64, time=8),
    Message('note_off', channel=5, note=36, velocity=64, time=25),
    Message('note_off', channel=5, note=44, velocity=64, time=140),
    Message('note_off', channel=5, note=32, velocity=64, time=14),
    Message('note_on', channel=5, note=48, velocity=65, time=37),
    Message('note_on', channel=5, note=36, velocity=82, time=1),
    Message('note_off', channel=5, note=48, velocity=64, time=95),
    Message('note_off', channel=5, note=36, velocity=64, time=29),
    Message('note_on', channel=5, note=51, velocity=110, time=24),
    Message('note_on', channel=5, note=39, velocity=107, time=1),
    Message('note_off', channel=5, note=51, velocity=64, time=115),
    Message('note_off', channel=5, note=39, velocity=64, time=17),
    Message('note_on', channel=5, note=53, velocity=119, time=104),
    Message('note_on', channel=5, note=41, velocity=113, time=1),
    Message('note_off', channel=5, note=53, velocity=64, time=117),
    Message('note_off', channel=5, note=41, velocity=64, time=10),
    Message('note_on', channel=5, note=51, velocity=100, time=111),
    Message('note_on', channel=5, note=39, velocity=67, time=1),
    Message('note_off', channel=5, note=51, velocity=64, time=10),
    Message('note_off', channel=5, note=39, velocity=64, time=12),
    Message('note_on', channel=5, note=41, velocity=110, time=76),
    Message('note_on', channel=5, note=53, velocity=113, time=8),
    Message('note_on', channel=5, note=54, velocity=102, time=46),
    Message('note_off', channel=5, note=53, velocity=64, time=18),
    Message('note_on', channel=5, note=42, velocity=104, time=0),
    Message('note_off', channel=5, note=41, velocity=64, time=14),
    Message('note_off', channel=5, note=54, velocity=64, time=62),
    Message('note_off', channel=5, note=42, velocity=64, time=1),
    Message('note_on', channel=5, note=41, velocity=107, time=107),
    Message('note_on', channel=5, note=53, velocity=110, time=0),
    Message('note_off', channel=5, note=53, velocity=64, time=101),
    Message('note_off', channel=5, note=41, velocity=64, time=4),
    Message('note_on', channel=5, note=39, velocity=107, time=124),
    Message('note_on', channel=5, note=51, velocity=113, time=4),
    Message('note_off', channel=5, note=51, velocity=64, time=196),
    Message('note_on', channel=5, note=37, velocity=100, time=28),
    Message('note_on', channel=5, note=49, velocity=100, time=2),
    Message('note_off', channel=5, note=39, velocity=64, time=5),
    Message('note_off', channel=5, note=49, velocity=64, time=73),
    Message('note_off', channel=5, note=37, velocity=64, time=3),
    Message('note_on', channel=5, note=38, velocity=92, time=47),
    Message('note_on', channel=5, note=50, velocity=96, time=2),
    Message('note_on', channel=5, note=39, velocity=98, time=52),
    Message('note_on', channel=5, note=51, velocity=110, time=0),
    Message('note_off', channel=5, note=38, velocity=64, time=3),
    Message('note_off', channel=5, note=50, velocity=64, time=10),
    Message('note_off', channel=5, note=39, velocity=64, time=61),
    Message('note_off', channel=5, note=51, velocity=64, time=5),
    Message('note_on', channel=5, note=48, velocity=113, time=119),
    Message('note_on', channel=5, note=36, velocity=104, time=9),
    Message('note_on', channel=5, note=37, velocity=89, time=6),
    Message('note_off', channel=5, note=37, velocity=64, time=14),
    Message('note_off', channel=5, note=48, velocity=64, time=84),
    Message('note_off', channel=5, note=36, velocity=64, time=16),
    Message('note_on', channel=5, note=44, velocity=102, time=107),
    Message('note_on', channel=5, note=32, velocity=100, time=2),
    Message('note_off', channel=5, note=44, velocity=64, time=103),
    Message('note_off', channel=5, note=32, velocity=64, time=16),
    Message('note_on', channel=5, note=30, velocity=67, time=123),
    Message('note_on', channel=5, note=42, velocity=64, time=1),
    Message('note_off', channel=5, note=30, velocity=64, time=81),
    Message('note_off', channel=5, note=42, velocity=64, time=19),
    Message('note_on', channel=5, note=44, velocity=110, time=14),
    Message('note_on', channel=5, note=32, velocity=102, time=2),
    Message('note_off', channel=5, note=44, velocity=64, time=146),
    Message('note_off', channel=5, note=32, velocity=64, time=30),
    Message('note_on', channel=5, note=44, velocity=119, time=1013),
    Message('note_on', channel=5, note=32, velocity=100, time=3),
    Message('note_off', channel=5, note=44, velocity=64, time=184),
    Message('note_off', channel=5, note=32, velocity=64, time=26),
    Message('note_on', channel=5, note=62, velocity=126, time=864),
    Message('note_on', channel=5, note=68, velocity=109, time=7),
    Message('note_on', channel=5, note=54, velocity=108, time=1),
    Message('note_off', channel=5, note=62, velocity=64, time=73),
    Message('note_on', channel=5, note=63, velocity=75, time=25),
    Message('note_off', channel=5, note=54, velocity=64, time=55),
    Message('note_on', channel=5, note=61, velocity=87, time=74),
    Message('note_off', channel=5, note=63, velocity=64, time=106),
    Message('note_off', channel=5, note=68, velocity=64, time=1),
    Message('note_on', channel=5, note=53, velocity=102, time=12),
    Message('note_off', channel=5, note=61, velocity=64, time=17),
    Message('note_on', channel=5, note=44, velocity=87, time=117),
    Message('note_off', channel=5, note=44, velocity=64, time=20),
    Message('note_off', channel=5, note=53, velocity=64, time=54),
    Message('note_on', channel=5, note=44, velocity=102, time=35),
    Message('note_off', channel=5, note=44, velocity=64, time=16),
    Message('note_on', channel=5, note=32, velocity=96, time=99),
    Message('note_on', channel=5, note=44, velocity=102, time=0),
    Message('note_off', channel=5, note=44, velocity=64, time=271),
    Message('note_off', channel=5, note=32, velocity=64, time=20),
    Message('note_on', channel=5, note=36, velocity=104, time=62),
    Message('note_on', channel=5, note=48, velocity=113, time=9),
    Message('note_off', channel=5, note=48, velocity=64, time=140),
    Message('note_off', channel=5, note=36, velocity=64, time=14),
    Message('note_on', channel=5, note=39, velocity=119, time=105),
    Message('note_on', channel=5, note=51, velocity=113, time=0),
    Message('note_off', channel=5, note=51, velocity=64, time=136),
    Message('note_off', channel=5, note=39, velocity=64, time=16),
    Message('note_on', channel=5, note=37, velocity=80, time=1150),
    Message('note_off', channel=5, note=37, velocity=64, time=62),
    Message('note_on', channel=5, note=32, velocity=83, time=49),
    Message('note_on', channel=5, note=44, velocity=90, time=10),
    Message('note_off', channel=5, note=44, velocity=64, time=145),
    Message('note_off', channel=5, note=32, velocity=64, time=3),
    Message('note_on', channel=5, note=48, velocity=107, time=90),
    Message('note_on', channel=5, note=36, velocity=96, time=1),
    Message('note_off', channel=5, note=48, velocity=64, time=130),
    Message('note_off', channel=5, note=36, velocity=64, time=13),
    Message('note_on', channel=5, note=51, velocity=113, time=9),
    Message('note_on', channel=5, note=39, velocity=104, time=1),
    Message('note_off', channel=5, note=51, velocity=64, time=141),
    Message('note_off', channel=5, note=39, velocity=64, time=20),
    Message('note_on', channel=5, note=53, velocity=110, time=65),
    Message('note_on', channel=5, note=41, velocity=110, time=1),
    Message('note_off', channel=5, note=41, velocity=64, time=105),
    Message('note_off', channel=5, note=53, velocity=64, time=3),
    Message('note_on', channel=5, note=51, velocity=102, time=73),
    Message('note_off', channel=5, note=51, velocity=64, time=17),
    Message('note_on', channel=5, note=41, velocity=102, time=145),
    Message('note_on', channel=5, note=53, velocity=110, time=3),
    Message('note_on', channel=5, note=42, velocity=102, time=38),
    Message('note_on', channel=5, note=54, velocity=104, time=18),
    Message('note_off', channel=5, note=41, velocity=64, time=24),
    Message('note_off', channel=5, note=53, velocity=64, time=1),
    Message('note_off', channel=5, note=42, velocity=64, time=41),
    Message('note_off', channel=5, note=54, velocity=64, time=9),
    Message('note_on', channel=5, note=53, velocity=113, time=114),
    Message('note_on', channel=5, note=41, velocity=104, time=1),
    Message('note_off', channel=5, note=53, velocity=64, time=105),
    Message('note_off', channel=5, note=41, velocity=64, time=1),
    Message('note_on', channel=5, note=51, velocity=119, time=148),
    Message('note_on', channel=5, note=39, velocity=104, time=0),
    Message('note_on', channel=5, note=53, velocity=98, time=4),
    Message('note_on', channel=5, note=38, velocity=56, time=13),
    Message('note_off', channel=5, note=53, velocity=64, time=1),
    Message('note_off', channel=5, note=38, velocity=64, time=16),
    Message('note_off', channel=5, note=51, velocity=64, time=156),
    Message('note_off', channel=5, note=39, velocity=64, time=22),
    Message('note_on', channel=5, note=37, velocity=90, time=3),
    Message('note_on', channel=5, note=49, velocity=83, time=1),
    Message('note_off', channel=5, note=49, velocity=64, time=16),
    Message('note_off', channel=5, note=37, velocity=64, time=15),
    Message('note_on', channel=5, note=51, velocity=110, time=112),
    Message('note_on', channel=5, note=39, velocity=104, time=1),
    Message('note_off', channel=5, note=51, velocity=64, time=119),
    Message('note_off', channel=5, note=39, velocity=64, time=16),
    Message('note_on', channel=5, note=36, velocity=113, time=99),
    Message('note_on', channel=5, note=48, velocity=119, time=1),
    Message('note_off', channel=5, note=36, velocity=64, time=129),
    Message('note_off', channel=5, note=48, velocity=64, time=2),
    Message('note_on', channel=5, note=44, velocity=104, time=97),
    Message('note_on', channel=5, note=32, velocity=104, time=9),
    Message('note_off', channel=5, note=44, velocity=64, time=106),
    Message('note_off', channel=5, note=32, velocity=64, time=23),
    Message('note_on', channel=5, note=30, velocity=87, time=91),
    Message('note_on', channel=5, note=42, velocity=85, time=1),
    Message('note_off', channel=5, note=30, velocity=64, time=64),
    Message('note_off', channel=5, note=42, velocity=64, time=8),
    Message('note_on', channel=5, note=32, velocity=107, time=46),
    Message('note_on', channel=5, note=44, velocity=113, time=2),
    Message('note_off', channel=5, note=44, velocity=64, time=170),
    Message('note_off', channel=5, note=32, velocity=64, time=16),
    Message('note_on', channel=5, note=59, velocity=99, time=536),
    Message('note_off', channel=5, note=59, velocity=64, time=159),
    Message('note_on', channel=5, note=61, velocity=99, time=1),
    Message('note_off', channel=5, note=61, velocity=64, time=160),
    Message('note_on', channel=5, note=63, velocity=104, time=1),
    Message('note_on', channel=5, note=41, velocity=92, time=161),
    Message('note_on', channel=5, note=57, velocity=85, time=1),
    Message('note_on', channel=5, note=65, velocity=102, time=0),
    Message('note_on', channel=5, note=61, velocity=93, time=1),
    Message('note_on', channel=5, note=68, velocity=110, time=1),
    Message('note_on', channel=5, note=51, velocity=87, time=0),
    Message('note_off', channel=5, note=63, velocity=64, time=20),
    Message('note_off', channel=5, note=41, velocity=64, time=682),
    Message('note_off', channel=5, note=61, velocity=64, time=3),
    Message('note_off', channel=5, note=51, velocity=64, time=27),
    Message('note_off', channel=5, note=68, velocity=64, time=18),
    Message('note_off', channel=5, note=57, velocity=64, time=1),
    Message('note_off', channel=5, note=65, velocity=64, time=30),
    Message('note_on', channel=5, note=63, velocity=96, time=57),
    Message('note_on', channel=5, note=59, velocity=85, time=0),
    Message('note_on', channel=5, note=54, velocity=85, time=0),
    Message('note_on', channel=5, note=40, velocity=95, time=0),
    Message('note_off', channel=5, note=63, velocity=64, time=854),
    Message('note_off', channel=5, note=54, velocity=64, time=7),
    Message('note_off', channel=5, note=59, velocity=64, time=5),
    Message('note_off', channel=5, note=40, velocity=64, time=52),
    Message('note_on', channel=5, note=59, velocity=79, time=36),
    Message('note_on', channel=5, note=66, velocity=96, time=0),
    Message('note_on', channel=5, note=45, velocity=97, time=3),
    Message('note_on', channel=5, note=63, velocity=95, time=0),
    Message('note_on', channel=5, note=55, velocity=92, time=0),
    Message('note_on', channel=5, note=61, velocity=78, time=0),
    Message('note_off', channel=5, note=55, velocity=64, time=1985),
    Message('note_off', channel=5, note=59, velocity=64, time=19),
    Message('note_off', channel=5, note=61, velocity=64, time=1),
    Message('note_off', channel=5, note=66, velocity=64, time=19),
    Message('note_off', channel=5, note=63, velocity=64, time=1),
    Message('note_off', channel=5, note=45, velocity=64, time=7),
    Message('note_on', channel=5, note=32, velocity=113, time=3723),
    Message('note_on', channel=5, note=44, velocity=110, time=6),
    Message('note_on', channel=5, note=44, velocity=110, time=1),
    Message('note_off', channel=5, note=32, velocity=64, time=336),
    Message('note_off', channel=5, note=44, velocity=64, time=2),
    Message('note_off', channel=5, note=44, velocity=64, time=2),
    Message('note_on', channel=5, note=32, velocity=98, time=1583),
    Message('note_on', channel=5, note=44, velocity=113, time=1),
    Message('note_off', channel=5, note=44, velocity=64, time=238),
    Message('note_off', channel=5, note=32, velocity=64, time=30),
    Message('note_on', channel=5, note=36, velocity=104, time=68),
    Message('note_on', channel=5, note=48, velocity=119, time=6),
    Message('note_off', channel=5, note=48, velocity=64, time=114),
    Message('note_off', channel=5, note=36, velocity=64, time=23),
    Message('note_on', channel=5, note=39, velocity=119, time=121),
    Message('note_on', channel=5, note=51, velocity=110, time=1),
    Message('note_off', channel=5, note=51, velocity=64, time=130),
    Message('note_off', channel=5, note=39, velocity=64, time=34),
    Message('note_on', channel=5, note=32, velocity=102, time=1275),
    Message('note_on', channel=5, note=44, velocity=110, time=4),
    Message('note_off', channel=5, note=44, velocity=64, time=135),
    Message('note_off', channel=5, note=32, velocity=64, time=12),
    Message('note_on', channel=5, note=36, velocity=87, time=93),
    Message('note_on', channel=5, note=48, velocity=82, time=1),
    Message('note_off', channel=5, note=48, velocity=64, time=128),
    Message('note_on', channel=5, note=51, velocity=95, time=18),
    Message('note_on', channel=5, note=39, velocity=107, time=0),
    Message('note_off', channel=5, note=36, velocity=64, time=16),
    Message('note_off', channel=5, note=51, velocity=64, time=107),
    Message('note_off', channel=5, note=39, velocity=64, time=2),
    Message('note_on', channel=5, note=53, velocity=119, time=83),
    Message('note_on', channel=5, note=41, velocity=119, time=5),
    Message('note_off', channel=5, note=53, velocity=64, time=115),
    Message('note_off', channel=5, note=41, velocity=64, time=6),
    Message('note_on', channel=5, note=39, velocity=92, time=97),
    Message('note_on', channel=5, note=51, velocity=104, time=24),
    Message('note_off', channel=5, note=51, velocity=64, time=7),
    Message('note_off', channel=5, note=39, velocity=64, time=14),
    Message('note_on', channel=5, note=41, velocity=110, time=67),
    Message('note_on', channel=5, note=53, velocity=119, time=16),
    Message('note_on', channel=5, note=54, velocity=100, time=49),
    Message('note_on', channel=5, note=42, velocity=104, time=2),
    Message('note_off', channel=5, note=41, velocity=64, time=16),
    Message('note_off', channel=5, note=53, velocity=64, time=1),
    Message('note_off', channel=5, note=42, velocity=64, time=65),
    Message('note_off', channel=5, note=54, velocity=64, time=4),
    Message('note_on', channel=5, note=41, velocity=104, time=100),
    Message('note_on', channel=5, note=53, velocity=107, time=10),
    Message('note_off', channel=5, note=53, velocity=64, time=96),
    Message('note_off', channel=5, note=41, velocity=64, time=1),
    Message('note_on', channel=5, note=51, velocity=110, time=140),
    Message('note_on', channel=5, note=39, velocity=127, time=10),
    Message('note_off', channel=5, note=51, velocity=64, time=170),
    Message('note_off', channel=5, note=39, velocity=64, time=13),
    Message('note_on', channel=5, note=49, velocity=93, time=39),
    Message('note_off', channel=5, note=49, velocity=64, time=22),
    Message('note_on', channel=5, note=48, velocity=102, time=113),
    Message('note_on', channel=5, note=36, velocity=110, time=8),
    Message('note_off', channel=5, note=48, velocity=64, time=80),
    Message('note_off', channel=5, note=36, velocity=64, time=1),
    Message('note_on', channel=5, note=38, velocity=107, time=161),
    Message('note_on', channel=5, note=50, velocity=119, time=2),
    Message('note_on', channel=5, note=39, velocity=104, time=22),
    Message('note_off', channel=5, note=50, velocity=64, time=12),
    Message('note_on', channel=5, note=51, velocity=100, time=3),
    Message('note_off', channel=5, note=38, velocity=64, time=14),
    Message('note_off', channel=5, note=39, velocity=64, time=54),
    Message('note_off', channel=5, note=51, velocity=64, time=5),
    Message('note_on', channel=5, note=41, velocity=110, time=129),
    Message('note_on', channel=5, note=53, velocity=119, time=2),
    Message('note_off', channel=5, note=53, velocity=64, time=90),
    Message('note_off', channel=5, note=41, velocity=64, time=7),
    Message('note_on', channel=5, note=39, velocity=68, time=142),
    Message('note_on', channel=5, note=51, velocity=61, time=3),
    Message('note_off', channel=5, note=39, velocity=64, time=65),
    Message('note_off', channel=5, note=51, velocity=64, time=11),
    Message('control_change', channel=5, control=11, value=90, time=19),
    Message('control_change', channel=5, control=64, value=0, time=91),
    Message('note_on', channel=5, note=62, velocity=96, time=309),
    Message('note_on', channel=5, note=57, velocity=99, time=8),
    Message('note_on', channel=5, note=35, velocity=98, time=1),
    Message('note_on', channel=5, note=68, velocity=96, time=0),
    Message('note_on', channel=5, note=47, velocity=92, time=1),
    Message('note_off', channel=5, note=57, velocity=64, time=104),
    Message('note_off', channel=5, note=62, velocity=64, time=17),
    Message('note_off', channel=5, note=68, velocity=64, time=0),
    Message('note_off', channel=5, note=35, velocity=64, time=7),
    Message('note_off', channel=5, note=47, velocity=64, time=8),
    Message('note_on', channel=5, note=48, velocity=96, time=319),
    Message('note_on', channel=5, note=36, velocity=92, time=1),
    Message('note_on', channel=5, note=63, velocity=104, time=0),
    Message('note_on', channel=5, note=68, velocity=98, time=2),
    Message('note_on', channel=5, note=58, velocity=96, time=0),
    Message('note_off', channel=5, note=36, velocity=64, time=116),
    Message('note_off', channel=5, note=68, velocity=64, time=13),
    Message('note_off', channel=5, note=48, velocity=64, time=3),
    Message('note_off', channel=5, note=63, velocity=64, time=0),
    Message('note_off', channel=5, note=58, velocity=64, time=1),
    Message('note_on', channel=5, note=37, velocity=98, time=318),
    Message('note_on', channel=5, note=49, velocity=89, time=1),
    Message('note_on', channel=5, note=64, velocity=104, time=1),
    Message('note_on', channel=5, note=68, velocity=104, time=1),
    Message('note_on', channel=5, note=59, velocity=98, time=2),
    Message('note_off', channel=5, note=37, velocity=64, time=128),
    Message('note_off', channel=5, note=64, velocity=64, time=6),
    Message('note_off', channel=5, note=59, velocity=64, time=0),
    Message('note_off', channel=5, note=49, velocity=64, time=1),
    Message('note_off', channel=5, note=68, velocity=64, time=11),
    Message('note_on', channel=5, note=70, velocity=99, time=353),
    Message('note_on', channel=5, note=61, velocity=102, time=1),
    Message('note_on', channel=5, note=60, velocity=95, time=2),
    Message('note_on', channel=5, note=65, velocity=100, time=1),
    Message('control_change', channel=5, control=64, value=127, time=17),
    Message('note_off', channel=5, note=60, velocity=64, time=400),
    Message('note_off', channel=5, note=65, velocity=64, time=9),
    Message('note_off', channel=5, note=61, velocity=64, time=6),
    Message('note_off', channel=5, note=70, velocity=64, time=26),
    Message('note_on', channel=5, note=27, velocity=44, time=3017),
    Message('note_off', channel=5, note=27, velocity=64, time=4087),
    Message('control_change', channel=5, control=64, value=0, time=208),
    Message('control_change', channel=5, control=64, value=0, time=3783),
    Message('note_on', channel=5, note=26, velocity=90, time=61),
    Message('note_off', channel=5, note=26, velocity=64, time=134),
    Message('note_on', channel=5, note=30, velocity=81, time=351),
    Message('note_off', channel=5, note=30, velocity=64, time=139),
    Message('note_on', channel=5, note=33, velocity=87, time=341),
    Message('note_off', channel=5, note=33, velocity=64, time=157),
    Message('control_change', channel=5, control=64, value=0, time=3102),
    Message('control_change', channel=5, control=11, value=56, time=72),
    Message('note_on', channel=5, note=76, velocity=110, time=35),
    Message('note_on', channel=5, note=29, velocity=104, time=5),
    Message('note_on', channel=5, note=78, velocity=89, time=37),
    Message('note_on', channel=5, note=30, velocity=107, time=1),
    Message('note_off', channel=5, note=76, velocity=64, time=18),
    Message('note_off', channel=5, note=29, velocity=64, time=9),
    Message('note_off', channel=5, note=78, velocity=64, time=87),
    Message('note_off', channel=5, note=30, velocity=64, time=18),
    Message('note_on', channel=5, note=33, velocity=102, time=312),
    Message('note_on', channel=5, note=81, velocity=109, time=7),
    Message('note_on', channel=5, note=69, velocity=87, time=6),
    Message('note_off', channel=5, note=69, velocity=64, time=133),
    Message('note_off', channel=5, note=33, velocity=64, time=16),
    Message('note_off', channel=5, note=81, velocity=64, time=0),
    Message('control_change', channel=5, control=11, value=127, time=77),
    Message('note_on', channel=5, note=66, velocity=45, time=63253),
    Message('note_on', channel=5, note=61, velocity=51, time=0),
    Message('note_on', channel=5, note=80, velocity=51, time=1),
    Message('note_on', channel=5, note=76, velocity=60, time=0),
    Message('note_on', channel=5, note=71, velocity=58, time=1),
    Message('note_off', channel=5, note=76, velocity=64, time=35),
    Message('note_off', channel=5, note=61, velocity=64, time=4),
    Message('control_change', channel=5, control=64, value=127, time=1),
    Message('note_off', channel=5, note=71, velocity=64, time=6),
    Message('note_off', channel=5, note=66, velocity=64, time=6),
    Message('note_off', channel=5, note=80, velocity=64, time=3),
    Message('note_on', channel=5, note=64, velocity=50, time=429),
    Message('note_on', channel=5, note=78, velocity=31, time=1),
    Message('note_on', channel=5, note=59, velocity=45, time=1),
    Message('note_on', channel=5, note=74, velocity=43, time=0),
    Message('note_on', channel=5, note=69, velocity=40, time=1),
    Message('control_change', channel=5, control=64, value=99, time=11),
    Message('control_change', channel=5, control=64, value=0, time=12),
    Message('control_change', channel=5, control=64, value=0, time=0),
    Message('control_change', channel=5, control=64, value=127, time=278),
    Message('note_off', channel=5, note=78, velocity=64, time=118),
    Message('note_off', channel=5, note=59, velocity=64, time=3),
    Message('note_off', channel=5, note=74, velocity=64, time=6),
    Message('note_off', channel=5, note=64, velocity=64, time=2),
    Message('note_off', channel=5, note=69, velocity=64, time=10),
    Message('control_change', channel=5, control=64, value=51, time=476),
    Message('control_change', channel=5, control=64, value=0, time=11),
    Message('control_change', channel=5, control=64, value=0, time=2),
    Message('control_change', channel=5, control=64, value=73, time=495),
    Message('note_on', channel=5, note=61, velocity=44, time=7),
    Message('note_on', channel=5, note=66, velocity=43, time=1),
    Message('note_on', channel=5, note=76, velocity=55, time=0),
    Message('note_on', channel=5, note=56, velocity=39, time=1),
    Message('note_on', channel=5, note=71, velocity=50, time=1),
    Message('control_change', channel=5, control=64, value=127, time=5),
    Message('note_off', channel=5, note=71, velocity=64, time=58),
    Message('note_off', channel=5, note=66, velocity=64, time=14),
    Message('note_off', channel=5, note=61, velocity=64, time=3),
    Message('note_off', channel=5, note=76, velocity=64, time=5),
    Message('note_off', channel=5, note=56, velocity=64, time=0),
    Message('note_on', channel=5, note=69, velocity=48, time=392),
    Message('note_on', channel=5, note=59, velocity=39, time=0),
    Message('note_on', channel=5, note=64, velocity=44, time=1),
    Message('note_on', channel=5, note=74, velocity=48, time=0),
    Message('note_on', channel=5, note=54, velocity=25, time=1),
    Message('control_change', channel=5, control=64, value=0, time=1),
    Message('control_change', channel=5, control=64, value=127, time=257),
    Message('note_off', channel=5, note=74, velocity=64, time=167),
    Message('note_off', channel=5, note=69, velocity=64, time=14),
    Message('note_off', channel=5, note=64, velocity=64, time=9),
    Message('note_off', channel=5, note=54, velocity=64, time=13),
    Message('note_off', channel=5, note=59, velocity=64, time=13),
    Message('control_change', channel=5, control=64, value=0, time=437),
    Message('control_change', channel=5, control=64, value=0, time=1),
    Message('control_change', channel=5, control=64, value=127, time=423),
    Message('control_change', channel=5, control=64, value=127, time=0),
    Message('note_on', channel=5, note=73, velocity=55, time=91),
    Message('note_on', channel=5, note=59, velocity=55, time=2),
    Message('note_on', channel=5, note=69, velocity=58, time=1),
    Message('note_on', channel=5, note=54, velocity=41, time=2),
    Message('note_on', channel=5, note=64, velocity=64, time=1),
    Message('note_off', channel=5, note=73, velocity=64, time=69),
    Message('note_off', channel=5, note=69, velocity=64, time=6),
    Message('note_off', channel=5, note=54, velocity=64, time=0),
    Message('note_off', channel=5, note=59, velocity=64, time=19),
    Message('note_off', channel=5, note=64, velocity=64, time=2),
    Message('control_change', channel=5, control=64, value=43, time=378),
    Message('note_on', channel=5, note=67, velocity=70, time=5),
    Message('note_on', channel=5, note=52, velocity=50, time=2),
    Message('note_on', channel=5, note=57, velocity=48, time=2),
    Message('control_change', channel=5, control=64, value=0, time=4),
    Message('note_on', channel=5, note=71, velocity=59, time=1),
    Message('note_on', channel=5, note=62, velocity=58, time=10),
    Message('note_on', channel=5, note=62, velocity=58, time=0),
    Message('note_off', channel=5, note=71, velocity=64, time=200),
    Message('note_off', channel=5, note=67, velocity=64, time=104),
    Message('note_on', channel=5, note=69, velocity=77, time=13),
    Message('note_off', channel=5, note=69, velocity=64, time=119),
    Message('note_on', channel=5, note=67, velocity=59, time=65),
    Message('note_off', channel=5, note=67, velocity=64, time=122),
    Message('note_on', channel=5, note=69, velocity=87, time=62),
    Message('note_on', channel=5, note=71, velocity=82, time=44),
    Message('note_off', channel=5, note=69, velocity=64, time=16),
    Message('note_off', channel=5, note=71, velocity=64, time=85),
    Message('note_on', channel=5, note=69, velocity=64, time=47),
    Message('note_off', channel=5, note=57, velocity=64, time=28),
    Message('note_off', channel=5, note=62, velocity=64, time=34),
    Message('note_off', channel=5, note=62, velocity=64, time=1),
    Message('note_off', channel=5, note=69, velocity=64, time=114),
    Message('note_on', channel=5, note=64, velocity=50, time=33),
    Message('note_off', channel=5, note=64, velocity=64, time=120),
    Message('note_on', channel=5, note=66, velocity=99, time=6),
    Message('note_off', channel=5, note=66, velocity=64, time=86),
    Message('note_on', channel=5, note=64, velocity=87, time=60),
    Message('note_off', channel=5, note=64, velocity=64, time=99),
    Message('note_off', channel=5, note=52, velocity=64, time=22),
    Message('note_on', channel=5, note=59, velocity=55, time=10),
    Message('note_on', channel=5, note=61, velocity=52, time=26),
    Message('note_off', channel=5, note=59, velocity=64, time=51),
    Message('note_off', channel=5, note=61, velocity=64, time=93),
    Message('note_on', channel=5, note=57, velocity=52, time=31),
    Message('note_on', channel=5, note=59, velocity=100, time=149),
    Message('note_off', channel=5, note=57, velocity=64, time=35),
    Message('note_off', channel=5, note=59, velocity=64, time=146),
    Message('note_on', channel=5, note=60, velocity=73, time=25),
    Message('note_on', channel=5, note=59, velocity=65, time=65),
    Message('note_off', channel=5, note=60, velocity=64, time=19),
    Message('note_on', channel=5, note=57, velocity=59, time=48),
    Message('note_off', channel=5, note=59, velocity=64, time=7),
    Message('note_off', channel=5, note=57, velocity=64, time=132),
    Message('note_on', channel=5, note=59, velocity=96, time=1),
    Message('note_off', channel=5, note=59, velocity=64, time=82),
    Message('note_on', channel=5, note=54, velocity=45, time=20),
    Message('note_off', channel=5, note=54, velocity=64, time=127),
    Message('note_on', channel=5, note=57, velocity=74, time=3),
    Message('note_off', channel=5, note=57, velocity=64, time=87),
    Message('note_on', channel=5, note=52, velocity=46, time=15),
    Message('note_off', channel=5, note=52, velocity=64, time=157),
    Message('note_on', channel=5, note=54, velocity=69, time=75),
    Message('note_off', channel=5, note=54, velocity=64, time=105),
    Message('note_on', channel=5, note=54, velocity=75, time=116),
    Message('note_off', channel=5, note=54, velocity=64, time=97),
    Message('note_on', channel=5, note=54, velocity=92, time=34),
    Message('note_off', channel=5, note=54, velocity=64, time=90),
    Message('note_on', channel=5, note=57, velocity=100, time=32),
    Message('note_on', channel=5, note=58, velocity=73, time=54),
    Message('note_off', channel=5, note=57, velocity=64, time=28),
    Message('note_off', channel=5, note=58, velocity=64, time=90),
    Message('note_on', channel=5, note=61, velocity=92, time=70),
    Message('note_off', channel=5, note=61, velocity=64, time=105),
    Message('note_on', channel=5, note=54, velocity=66, time=35),
    Message('note_off', channel=5, note=54, velocity=64, time=63),
    Message('note_on', channel=5, note=63, velocity=75, time=35),
    Message('note_off', channel=5, note=63, velocity=64, time=143),
    Message('note_on', channel=5, note=66, velocity=92, time=15),
    Message('note_on', channel=5, note=54, velocity=85, time=2),
    Message('note_on', channel=5, note=54, velocity=85, time=1),
    Message('note_off', channel=5, note=54, velocity=64, time=95),
    Message('note_off', channel=5, note=66, velocity=64, time=10),
    Message('note_on', channel=5, note=66, velocity=74, time=25),
    Message('note_off', channel=5, note=54, velocity=64, time=119),
    Message('note_off', channel=5, note=66, velocity=64, time=1),
    Message('note_on', channel=5, note=63, velocity=64, time=7),
    Message('note_off', channel=5, note=63, velocity=64, time=144),
    Message('note_on', channel=5, note=54, velocity=42, time=12),
    Message('note_on', channel=5, note=66, velocity=73, time=0),
    Message('note_off', channel=5, note=54, velocity=64, time=127),
    Message('note_off', channel=5, note=66, velocity=64, time=19),
    Message('note_on', channel=5, note=69, velocity=65, time=853),
    Message('note_on', channel=5, note=33, velocity=68, time=10),
    Message('note_on', channel=5, note=34, velocity=69, time=31),
    Message('note_on', channel=5, note=70, velocity=55, time=3),
    Message('note_off', channel=5, note=69, velocity=64, time=5),
    Message('note_off', channel=5, note=33, velocity=64, time=19),
    Message('note_off', channel=5, note=70, velocity=64, time=60),
    Message('note_on', channel=5, note=71, velocity=98, time=14),
    Message('note_off', channel=5, note=34, velocity=64, time=6),
    Message('note_on', channel=5, note=35, velocity=100, time=0),
    Message('note_off', channel=5, note=35, velocity=64, time=72),
    Message('note_off', channel=5, note=71, velocity=64, time=9),
    Message('note_on', channel=5, note=36, velocity=107, time=29),
    Message('note_on', channel=5, note=72, velocity=107, time=5),
    Message('note_off', channel=5, note=72, velocity=64, time=80),
    Message('note_on', channel=5, note=37, velocity=113, time=30),
    Message('note_off', channel=5, note=36, velocity=64, time=3),
    Message('note_on', channel=5, note=73, velocity=107, time=0),
    Message('note_off', channel=5, note=73, velocity=64, time=88),
    Message('note_on', channel=5, note=39, velocity=119, time=30),
    Message('note_on', channel=5, note=75, velocity=107, time=5),
    Message('note_off', channel=5, note=37, velocity=64, time=18),
    Message('note_off', channel=5, note=75, velocity=64, time=47),
    Message('note_off', channel=5, note=39, velocity=64, time=12),
    Message('note_on', channel=5, note=78, velocity=99, time=38),
    Message('note_on', channel=5, note=42, velocity=119, time=1),
    Message('note_off', channel=5, note=78, velocity=64, time=59),
    Message('note_off', channel=5, note=42, velocity=64, time=29),
    Message('note_on', channel=5, note=37, velocity=75, time=58),
    Message('note_off', channel=5, note=37, velocity=64, time=60),
    Message('note_on', channel=5, note=46, velocity=113, time=64),
    Message('note_on', channel=5, note=82, velocity=113, time=1),
    Message('note_on', channel=5, note=83, velocity=100, time=28),
    Message('note_on', channel=5, note=47, velocity=110, time=1),
    Message('note_off', channel=5, note=82, velocity=64, time=29),
    Message('note_off', channel=5, note=46, velocity=64, time=1),
    Message('note_off', channel=5, note=47, velocity=64, time=73),
    Message('note_on', channel=5, note=82, velocity=102, time=11),
    Message('note_off', channel=5, note=83, velocity=64, time=13),
    Message('note_on', channel=5, note=46, velocity=113, time=1),
    Message('note_off', channel=5, note=82, velocity=64, time=74),
    Message('note_on', channel=5, note=42, velocity=102, time=21),
    Message('note_on', channel=5, note=78, velocity=69, time=13),
    Message('note_off', channel=5, note=46, velocity=64, time=1),
    Message('note_off', channel=5, note=78, velocity=64, time=79),
    Message('note_off', channel=5, note=42, velocity=64, time=22),
    Message('note_on', channel=5, note=73, velocity=79, time=35),
    Message('note_on', channel=5, note=37, velocity=73, time=9),
    Message('note_off', channel=5, note=37, velocity=64, time=16),
    Message('note_off', channel=5, note=73, velocity=64, time=9),
    Message('note_on', channel=5, note=85, velocity=90, time=48),
    Message('note_on', channel=5, note=81, velocity=93, time=1),
    Message('note_off', channel=5, note=81, velocity=64, time=92),
    Message('note_on', channel=5, note=82, velocity=54, time=3),
    Message('note_off', channel=5, note=85, velocity=64, time=76),
    Message('note_off', channel=5, note=82, velocity=64, time=11),
    Message('note_on', channel=5, note=85, velocity=71, time=44),
    Message('note_on', channel=5, note=81, velocity=85, time=1),
    Message('note_on', channel=5, note=82, velocity=40, time=66),
    Message('note_off', channel=5, note=81, velocity=64, time=2),
    Message('note_off', channel=5, note=82, velocity=64, time=152),
    Message('note_off', channel=5, note=85, velocity=64, time=263),
    Message('note_on', channel=5, note=78, velocity=96, time=1),
    Message('note_off', channel=5, note=78, velocity=64, time=26),
    Message('note_on', channel=5, note=78, velocity=29, time=132),
    Message('note_off', channel=5, note=78, velocity=64, time=58),
    Message('note_on', channel=5, note=73, velocity=66, time=14),
    Message('note_off', channel=5, note=73, velocity=64, time=106),
    Message('note_on', channel=5, note=71, velocity=75, time=42),
    Message('note_off', channel=5, note=71, velocity=64, time=84),
    Message('note_on', channel=5, note=69, velocity=55, time=56),
    Message('note_off', channel=5, note=69, velocity=64, time=60),
    Message('note_on', channel=5, note=37, velocity=85, time=29),
    Message('note_off', channel=5, note=37, velocity=64, time=30),
    Message('note_on', channel=5, note=69, velocity=95, time=33),
    Message('note_on', channel=5, note=73, velocity=92, time=1),
    Message('note_on', channel=5, note=70, velocity=66, time=4),
    Message('note_off', channel=5, note=70, velocity=64, time=29),
    Message('note_on', channel=5, note=70, velocity=68, time=36),
    Message('note_off', channel=5, note=69, velocity=64, time=3),
    Message('note_off', channel=5, note=73, velocity=64, time=16),
    Message('note_off', channel=5, note=70, velocity=64, time=58),
    Message('note_on', channel=5, note=66, velocity=43, time=25),
    Message('note_off', channel=5, note=66, velocity=64, time=71),
    Message('note_on', channel=5, note=30, velocity=48, time=161),
    Message('note_on', channel=5, note=42, velocity=60, time=13),
    Message('note_on', channel=5, note=62, velocity=58, time=5),
    Message('note_off', channel=5, note=42, velocity=64, time=26),
    Message('note_off', channel=5, note=30, velocity=64, time=6),
    Message('note_off', channel=5, note=62, velocity=64, time=2),
    Message('note_on', channel=5, note=66, velocity=54, time=55),
    Message('note_off', channel=5, note=66, velocity=64, time=545),
    Message('note_on', channel=5, note=66, velocity=92, time=153),
    Message('note_off', channel=5, note=66, velocity=64, time=83),
    Message('note_on', channel=5, note=64, velocity=93, time=53),
    Message('control_change', channel=5, control=64, value=0, time=9),
    Message('note_off', channel=5, note=64, velocity=64, time=69),
    Message('note_on', channel=5, note=62, velocity=87, time=48),
    Message('note_on', channel=5, note=64, velocity=80, time=65),
    Message('note_off', channel=5, note=62, velocity=64, time=4),
    Message('note_on', channel=5, note=62, velocity=79, time=52),
    Message('note_off', channel=5, note=64, velocity=64, time=27),
    Message('note_on', channel=5, note=59, velocity=80, time=55),
    Message('note_off', channel=5, note=62, velocity=64, time=7),
    Message('note_on', channel=5, note=62, velocity=75, time=179),
    Message('note_off', channel=5, note=59, velocity=64, time=17),
    Message('note_off', channel=5, note=62, velocity=64, time=175),
    Message('note_on', channel=5, note=59, velocity=51, time=26),
    Message('note_off', channel=5, note=59, velocity=64, time=81),
    Message('note_on', channel=5, note=62, velocity=55, time=33),
    Message('note_off', channel=5, note=62, velocity=64, time=93),
    Message('control_change', channel=5, control=64, value=0, time=12),
    Message('note_on', channel=5, note=50, velocity=58, time=485),
    Message('note_on', channel=5, note=40, velocity=41, time=2),
    Message('note_on', channel=5, note=59, velocity=107, time=12),
    Message('note_off', channel=5, note=59, velocity=64, time=93),
    Message('note_on', channel=5, note=56, velocity=90, time=35),
    Message('note_off', channel=5, note=56, velocity=64, time=88),
    Message('note_on', channel=5, note=55, velocity=102, time=38),
    Message('note_off', channel=5, note=50, velocity=64, time=75),
    Message('note_off', channel=5, note=55, velocity=64, time=13),
    Message('note_on', channel=5, note=52, velocity=67, time=28),
    Message('note_off', channel=5, note=52, velocity=64, time=117),
    Message('note_on', channel=5, note=48, velocity=56, time=24),
    Message('note_off', channel=5, note=48, velocity=64, time=37),
    Message('note_on', channel=5, note=50, velocity=102, time=57),
    Message('note_off', channel=5, note=50, velocity=64, time=116),
    Message('note_on', channel=5, note=47, velocity=87, time=1),
    Message('note_off', channel=5, note=40, velocity=64, time=33),
    Message('note_off', channel=5, note=47, velocity=64, time=57),
    Message('note_on', channel=5, note=45, velocity=71, time=23),
    Message('note_off', channel=5, note=45, velocity=64, time=94),
    Message('note_on', channel=5, note=35, velocity=49, time=10),
    Message('note_on', channel=5, note=46, velocity=96, time=1),
    Message('note_off', channel=5, note=46, velocity=64, time=70),
    Message('note_off', channel=5, note=35, velocity=64, time=28),
    Message('note_on', channel=5, note=45, velocity=50, time=5),
    Message('note_off', channel=5, note=45, velocity=64, time=114),
    Message('note_on', channel=5, note=43, velocity=85, time=4),
    Message('note_on', channel=5, note=28, velocity=74, time=39),
    Message('note_off', channel=5, note=28, velocity=64, time=33),
    Message('note_off', channel=5, note=43, velocity=64, time=12),
    Message('note_on', channel=5, note=40, velocity=58, time=47),
    Message('note_on', channel=5, note=40, velocity=58, time=0),
    Message('note_off', channel=5, note=40, velocity=64, time=50),
    Message('note_off', channel=5, note=40, velocity=64, time=1),
    MetaMessage('end_of_track', time=21668)]),
  MidiTrack([
    MetaMessage('track_name', name='Mr. Nice :-)\x00\x00\x00\x00\x00\x00\x00\x00\x00\x00\x00\x00', time=0),
    MetaMessage('channel_prefix', channel=6, time=0),
    Message('control_change', channel=6, control=0, value=0, time=0),
    Message('control_change', channel=6, control=32, value=2, time=0),
    Message('program_change', channel=6, program=49, time=0),
    Message('control_change', channel=6, control=7, value=0, time=0),
    Message('control_change', channel=6, control=10, value=64, time=0),
    Message('control_change', channel=6, control=93, value=0, time=0),
    Message('control_change', channel=6, control=91, value=10, time=0),
    Message('control_change', channel=6, control=11, value=0, time=2),
    Message('note_on', channel=6, note=37, velocity=93, time=314),
    Message('control_change', channel=6, control=7, value=127, time=909),
    Message('control_change', channel=6, control=11, value=1, time=40),
    Message('control_change', channel=6, control=11, value=3, time=119),
    Message('control_change', channel=6, control=11, value=5, time=121),
    Message('control_change', channel=6, control=11, value=6, time=119),
    Message('control_change', channel=6, control=11, value=8, time=121),
    Message('control_change', channel=6, control=11, value=9, time=119),
    Message('control_change', channel=6, control=11, value=11, time=120),
    Message('control_change', channel=6, control=10, value=127, time=123),
    Message('control_change', channel=6, control=11, value=13, time=1),
    Message('control_change', channel=6, control=91, value=127, time=11),
    Message('control_change', channel=6, control=11, value=14, time=107),
    Message('control_change', channel=6, control=11, value=16, time=120),
    Message('control_change', channel=6, control=11, value=17, time=119),
    Message('control_change', channel=6, control=10, value=125, time=121),
    Message('control_change', channel=6, control=11, value=19, time=1),
    Message('control_change', channel=6, control=10, value=123, time=118),
    Message('control_change', channel=6, control=11, value=21, time=2),
    Message('control_change', channel=6, control=10, value=121, time=122),
    Message('control_change', channel=6, control=11, value=22, time=1),
    Message('control_change', channel=6, control=10, value=119, time=115),
    Message('control_change', channel=6, control=11, value=24, time=0),
    Message('note_on', channel=6, note=38, velocity=1, time=27),
    Message('control_change', channel=6, control=11, value=25, time=96),
    Message('control_change', channel=6, control=10, value=117, time=0),
    Message('control_change', channel=6, control=10, value=115, time=117),
    Message('control_change', channel=6, control=11, value=27, time=1),
    Message('control_change', channel=6, control=10, value=113, time=121),
    Message('control_change', channel=6, control=11, value=29, time=1),
    Message('note_on', channel=6, note=39, velocity=1, time=48),
    Message('control_change', channel=6, control=10, value=111, time=70),
    Message('control_change', channel=6, control=11, value=30, time=0),
    Message('control_change', channel=6, control=10, value=109, time=121),
    Message('control_change', channel=6, control=11, value=32, time=1),
    Message('control_change', channel=6, control=11, value=33, time=116),
    Message('control_change', channel=6, control=10, value=107, time=0),
    Message('note_off', channel=6, note=38, velocity=64, time=27),
    Message('control_change', channel=6, control=10, value=105, time=96),
    Message('control_change', channel=6, control=11, value=35, time=0),
    Message('note_on', channel=6, note=40, velocity=1, time=2),
    Message('note_off', channel=6, note=39, velocity=64, time=2),
    Message('control_change', channel=6, control=10, value=103, time=114),
    Message('control_change', channel=6, control=11, value=37, time=1),
    Message('note_on', channel=6, note=42, velocity=1, time=26),
    Message('control_change', channel=6, control=10, value=101, time=96),
    Message('control_change', channel=6, control=11, value=38, time=1),
    Message('note_off', channel=6, note=40, velocity=64, time=20),
    Message('control_change', channel=6, control=10, value=99, time=96),
    Message('control_change', channel=6, control=11, value=40, time=1),
    Message('note_on', channel=6, note=43, velocity=1, time=16),
    Message('note_off', channel=6, note=42, velocity=64, time=74),
    Message('note_on', channel=6, note=44, velocity=1, time=26),
    Message('control_change', channel=6, control=11, value=41, time=3),
    Message('control_change', channel=6, control=10, value=97, time=1),
    Message('control_change', channel=6, control=10, value=95, time=119),
    Message('control_change', channel=6, control=11, value=43, time=0),
    Message('note_off', channel=6, note=43, velocity=64, time=33),
    Message('note_on', channel=6, note=46, velocity=1, time=27),
    Message('control_change', channel=6, control=11, value=44, time=61),
    Message('control_change', channel=6, control=10, value=93, time=1),
    Message('note_off', channel=6, note=44, velocity=64, time=18),
    Message('note_on', channel=6, note=51, velocity=1, time=63),
    Message('note_off', channel=6, note=46, velocity=64, time=35),
    Message('control_change', channel=6, control=10, value=91, time=2),
    Message('control_change', channel=6, control=11, value=46, time=1),
    Message('note_on', channel=6, note=47, velocity=1, time=48),
    Message('note_on', channel=6, note=53, velocity=1, time=9),
    Message('control_change', channel=6, control=10, value=89, time=63),
    Message('control_change', channel=6, control=11, value=48, time=2),
    Message('note_off', channel=6, note=51, velocity=64, time=49),
    Message('note_on', channel=6, note=54, velocity=1, time=45),
    Message('control_change', channel=6, control=11, value=49, time=22),
    Message('control_change', channel=6, control=10, value=87, time=1),
    Message('note_off', channel=6, note=47, velocity=64, time=22),
    Message('note_off', channel=6, note=53, velocity=64, time=53),
    Message('note_on', channel=6, note=50, velocity=1, time=8),
    Message('control_change', channel=6, control=10, value=85, time=40),
    Message('control_change', channel=6, control=11, value=51, time=0),
    Message('note_on', channel=6, note=56, velocity=1, time=6),
    Message('note_off', channel=6, note=54, velocity=64, time=61),
    Message('note_on', channel=6, note=58, velocity=1, time=49),
    Message('control_change', channel=6, control=10, value=83, time=0),
    Message('control_change', channel=6, control=11, value=53, time=2),
    Message('note_off', channel=6, note=50, velocity=64, time=54),
    Message('control_change', channel=6, control=10, value=81, time=66),
    Message('control_change', channel=6, control=11, value=54, time=1),
    Message('note_on', channel=6, note=60, velocity=1, time=30),
    Message('control_change', channel=6, control=10, value=79, time=88),
    Message('control_change', channel=6, control=11, value=56, time=1),
    Message('note_off', channel=6, note=56, velocity=64, time=58),
    Message('note_on', channel=6, note=61, velocity=1, time=55),
    Message('control_change', channel=6, control=10, value=77, time=8),
    Message('control_change', channel=6, control=11, value=57, time=0),
    Message('note_off', channel=6, note=58, velocity=64, time=71),
    Message('control_change', channel=6, control=10, value=75, time=47),
    Message('control_change', channel=6, control=11, value=59, time=1),
    Message('note_off', channel=6, note=60, velocity=64, time=56),
    Message('note_on', channel=6, note=63, velocity=1, time=31),
    Message('control_change', channel=6, control=11, value=60, time=33),
    Message('control_change', channel=6, control=10, value=73, time=0),
    Message('note_on', channel=6, note=65, velocity=1, time=102),
    Message('control_change', channel=6, control=10, value=71, time=16),
    Message('control_change', channel=6, control=11, value=62, time=1),
    Message('note_off', channel=6, note=61, velocity=64, time=23),
    Message('note_on', channel=6, note=66, velocity=1, time=65),
    Message('control_change', channel=6, control=10, value=69, time=35),
    Message('control_change', channel=6, control=11, value=64, time=2),
    Message('note_off', channel=6, note=63, velocity=64, time=105),
    Message('control_change', channel=6, control=11, value=65, time=10),
    Message('control_change', channel=6, control=10, value=67, time=1),
    Message('note_on', channel=6, note=68, velocity=1, time=51),
    Message('control_change', channel=6, control=10, value=65, time=69),
    Message('control_change', channel=6, control=11, value=67, time=0),
    Message('note_off', channel=6, note=65, velocity=64, time=43),
    Message('note_on', channel=6, note=70, velocity=1, time=70),
    Message('control_change', channel=6, control=10, value=64, time=6),
    Message('control_change', channel=6, control=11, value=69, time=2),
    Message('note_off', channel=6, note=66, velocity=64, time=57),
    Message('control_change', channel=6, control=10, value=62, time=60),
    Message('control_change', channel=6, control=11, value=70, time=1),
    Message('note_on', channel=6, note=72, velocity=7, time=6),
    Message('control_change', channel=6, control=10, value=60, time=114),
    Message('control_change', channel=6, control=11, value=72, time=1),
    Message('note_off', channel=6, note=68, velocity=64, time=38),
    Message('control_change', channel=6, control=10, value=58, time=82),
    Message('control_change', channel=6, control=11, value=73, time=2),
    Message('note_on', channel=6, note=73, velocity=1, time=55),
    Message('control_change', channel=6, control=10, value=56, time=62),
    Message('control_change', channel=6, control=11, value=75, time=1),
    Message('note_off', channel=6, note=70, velocity=64, time=42),
    Message('control_change', channel=6, control=11, value=76, time=79),
    Message('control_change', channel=6, control=10, value=54, time=0),
    Message('note_off', channel=6, note=72, velocity=64, time=84),
    Message('control_change', channel=6, control=10, value=52, time=34),
    Message('control_change', channel=6, control=11, value=78, time=0),
    Message('note_on', channel=6, note=80, velocity=4, time=62),
    Message('control_change', channel=6, control=10, value=50, time=61),
    Message('control_change', channel=6, control=11, value=80, time=0),
    Message('note_off', channel=6, note=73, velocity=64, time=42),
    Message('control_change', channel=6, control=11, value=81, time=76),
    Message('control_change', channel=6, control=10, value=48, time=1),
    Message('note_on', channel=6, note=83, velocity=3, time=68),
    Message('control_change', channel=6, control=11, value=82, time=52),
    Message('control_change', channel=6, control=10, value=46, time=0),
    Message('control_change', channel=6, control=11, value=84, time=51),
    Message('control_change', channel=6, control=10, value=44, time=66),
    Message('control_change', channel=6, control=10, value=42, time=124),
    Message('control_change', channel=6, control=11, value=94, time=0),
    Message('note_on', channel=6, note=85, velocity=1, time=43),
    Message('control_change', channel=6, control=10, value=40, time=75),
    Message('control_change', channel=6, control=11, value=99, time=2),
    Message('control_change', channel=6, control=10, value=38, time=118),
    Message('control_change', channel=6, control=11, value=104, time=1),
    Message('control_change', channel=6, control=10, value=36, time=118),
    Message('control_change', channel=6, control=11, value=110, time=1),
    Message('control_change', channel=6, control=10, value=34, time=124),
    Message('control_change', channel=6, control=11, value=115, time=1),
    Message('control_change', channel=6, control=10, value=32, time=114),
    Message('control_change', channel=6, control=11, value=120, time=2),
    Message('control_change', channel=6, control=10, value=31, time=122),
    Message('control_change', channel=6, control=11, value=125, time=1),
    Message('control_change', channel=6, control=11, value=127, time=116),
    Message('control_change', channel=6, control=91, value=0, time=125),
    Message('note_off', channel=6, note=80, velocity=64, time=599),
    Message('note_off', channel=6, note=83, velocity=64, time=306),
    Message('note_off', channel=6, note=85, velocity=64, time=32),
    Message('note_off', channel=6, note=37, velocity=64, time=175),
    Message('control_change', channel=6, control=91, value=24, time=52732),
    Message('control_change', channel=6, control=11, value=126, time=123),
    Message('control_change', channel=6, control=11, value=102, time=10),
    Message('control_change', channel=6, control=11, value=79, time=10),
    Message('control_change', channel=6, control=11, value=56, time=11),
    Message('control_change', channel=6, control=11, value=28, time=19),
    Message('control_change', channel=6, control=11, value=15, time=1),
    Message('control_change', channel=6, control=11, value=32, time=31),
    Message('control_change', channel=6, control=11, value=50, time=11),
    Message('control_change', channel=6, control=11, value=72, time=14),
    Message('control_change', channel=6, control=11, value=95, time=6),
    Message('control_change', channel=6, control=11, value=115, time=11),
    Message('control_change', channel=6, control=11, value=127, time=10),
    Message('note_on', channel=6, note=66, velocity=119, time=165),
    Message('note_off', channel=6, note=66, velocity=64, time=57),
    Message('note_on', channel=6, note=66, velocity=119, time=163),
    Message('note_off', channel=6, note=66, velocity=64, time=105),
    Message('note_on', channel=6, note=69, velocity=119, time=140),
    Message('note_off', channel=6, note=69, velocity=64, time=131),
    Message('control_change', channel=6, control=11, value=80, time=746),
    Message('note_on', channel=6, note=69, velocity=110, time=1043),
    Message('control_change', channel=6, control=11, value=126, time=117),
    Message('note_off', channel=6, note=69, velocity=64, time=14),
    Message('control_change', channel=6, control=11, value=127, time=16),
    Message('note_on', channel=6, note=71, velocity=104, time=74),
    Message('note_off', channel=6, note=71, velocity=64, time=121),
    Message('note_on', channel=6, note=72, velocity=107, time=31),
    Message('note_off', channel=6, note=72, velocity=64, time=84),
    Message('note_on', channel=6, note=73, velocity=107, time=17),
    Message('note_off', channel=6, note=73, velocity=64, time=96),
    Message('note_on', channel=6, note=76, velocity=110, time=47),
    Message('note_off', channel=6, note=76, velocity=64, time=63),
    Message('note_on', channel=6, note=78, velocity=119, time=32),
    Message('note_off', channel=6, note=78, velocity=64, time=92),
    Message('note_on', channel=6, note=76, velocity=89, time=80),
    Message('note_on', channel=6, note=77, velocity=75, time=32),
    Message('note_off', channel=6, note=76, velocity=64, time=5),
    Message('note_on', channel=6, note=78, velocity=96, time=11),
    Message('note_on', channel=6, note=79, velocity=104, time=22),
    Message('note_off', channel=6, note=77, velocity=64, time=10),
    Message('note_off', channel=6, note=78, velocity=64, time=22),
    Message('note_off', channel=6, note=79, velocity=64, time=53),
    Message('note_on', channel=6, note=78, velocity=113, time=157),
    Message('note_on', channel=6, note=79, velocity=113, time=4),
    Message('note_off', channel=6, note=78, velocity=64, time=44),
    Message('note_off', channel=6, note=79, velocity=64, time=431),
    Message('note_on', channel=6, note=77, velocity=96, time=25),
    Message('note_on', channel=6, note=78, velocity=113, time=5),
    Message('note_off', channel=6, note=77, velocity=64, time=33),
    Message('control_change', channel=6, control=11, value=126, time=278),
    Message('control_change', channel=6, control=11, value=121, time=11),
    Message('control_change', channel=6, control=11, value=114, time=10),
    Message('control_change', channel=6, control=11, value=98, time=27),
    Message('control_change', channel=6, control=11, value=91, time=81),
    Message('control_change', channel=6, control=11, value=83, time=80),
    Message('control_change', channel=6, control=11, value=76, time=78),
    Message('control_change', channel=6, control=11, value=70, time=85),
    Message('control_change', channel=6, control=11, value=62, time=76),
    Message('control_change', channel=6, control=11, value=55, time=80),
    Message('control_change', channel=6, control=11, value=48, time=79),
    Message('control_change', channel=6, control=11, value=41, time=81),
    Message('control_change', channel=6, control=11, value=34, time=83),
    Message('control_change', channel=6, control=11, value=27, time=77),
    Message('control_change', channel=6, control=11, value=19, time=79),
    Message('control_change', channel=6, control=11, value=13, time=80),
    Message('control_change', channel=6, control=11, value=6, time=91),
    Message('control_change', channel=6, control=11, value=0, time=69),
    Message('control_change', channel=6, control=11, value=0, time=88),
    Message('note_off', channel=6, note=78, velocity=64, time=28),
    Message('control_change', channel=6, control=10, value=127, time=73396),
    Message('control_change', channel=6, control=11, value=71, time=75),
    Message('note_on', channel=6, note=91, velocity=92, time=178),
    Message('note_on', channel=6, note=87, velocity=102, time=2),
    Message('note_on', channel=6, note=79, velocity=107, time=12),
    Message('note_off', channel=6, note=79, velocity=64, time=72),
    Message('note_off', channel=6, note=91, velocity=64, time=19),
    Message('note_off', channel=6, note=87, velocity=64, time=1),
    Message('note_on', channel=6, note=89, velocity=95, time=251),
    Message('note_on', channel=6, note=86, velocity=90, time=2),
    Message('note_on', channel=6, note=77, velocity=87, time=5),
    Message('note_off', channel=6, note=86, velocity=64, time=83),
    Message('note_on', channel=6, note=82, velocity=75, time=32),
    Message('note_on', channel=6, note=74, velocity=90, time=1),
    Message('note_off', channel=6, note=77, velocity=64, time=2),
    Message('note_on', channel=6, note=86, velocity=99, time=4),
    Message('note_off', channel=6, note=89, velocity=64, time=23),
    Message('note_off', channel=6, note=74, velocity=64, time=82),
    Message('note_on', channel=6, note=81, velocity=85, time=2),
    Message('note_on', channel=6, note=84, velocity=83, time=8),
    Message('note_off', channel=6, note=86, velocity=64, time=13),
    Message('note_off', channel=6, note=82, velocity=64, time=2),
    Message('note_off', channel=6, note=84, velocity=64, time=30),
    Message('note_off', channel=6, note=81, velocity=64, time=2),
    Message('note_on', channel=6, note=74, velocity=75, time=53),
    Message('note_on', channel=6, note=86, velocity=88, time=9),
    Message('note_on', channel=6, note=82, velocity=90, time=5),
    Message('note_off', channel=6, note=82, velocity=64, time=229),
    Message('note_off', channel=6, note=74, velocity=64, time=1),
    Message('note_off', channel=6, note=86, velocity=64, time=1),
    Message('note_on', channel=6, note=86, velocity=102, time=855),
    Message('note_off', channel=6, note=86, velocity=64, time=13),
    Message('note_on', channel=6, note=79, velocity=107, time=92),
    Message('note_on', channel=6, note=87, velocity=100, time=1),
    Message('note_on', channel=6, note=91, velocity=96, time=5),
    Message('note_off', channel=6, note=79, velocity=64, time=90),
    Message('note_off', channel=6, note=87, velocity=64, time=1),
    Message('note_off', channel=6, note=91, velocity=64, time=2),
    Message('note_on', channel=6, note=86, velocity=90, time=281),
    Message('note_on', channel=6, note=89, velocity=96, time=4),
    Message('note_on', channel=6, note=77, velocity=82, time=11),
    Message('note_on', channel=6, note=86, velocity=93, time=103),
    Message('note_on', channel=6, note=82, velocity=87, time=1),
    Message('note_on', channel=6, note=73, velocity=68, time=3),
    Message('note_off', channel=6, note=86, velocity=64, time=1),
    Message('note_off', channel=6, note=89, velocity=64, time=23),
    Message('note_off', channel=6, note=77, velocity=64, time=1),
    Message('note_off', channel=6, note=86, velocity=64, time=66),
    Message('note_on', channel=6, note=84, velocity=92, time=26),
    Message('note_on', channel=6, note=81, velocity=80, time=2),
    Message('note_off', channel=6, note=82, velocity=64, time=13),
    Message('note_off', channel=6, note=73, velocity=64, time=7),
    Message('note_off', channel=6, note=84, velocity=64, time=23),
    Message('note_off', channel=6, note=81, velocity=64, time=10),
    Message('note_on', channel=6, note=74, velocity=92, time=64),
    Message('note_on', channel=6, note=86, velocity=99, time=14),
    Message('note_on', channel=6, note=82, velocity=87, time=3),
    Message('note_off', channel=6, note=74, velocity=64, time=243),
    Message('note_off', channel=6, note=82, velocity=64, time=1),
    Message('note_off', channel=6, note=86, velocity=64, time=2),
    Message('note_on', channel=6, note=79, velocity=113, time=944),
    Message('note_on', channel=6, note=87, velocity=100, time=3),
    Message('note_on', channel=6, note=91, velocity=99, time=0),
    Message('note_off', channel=6, note=91, velocity=64, time=100),
    Message('note_off', channel=6, note=87, velocity=64, time=6),
    Message('note_off', channel=6, note=79, velocity=64, time=1),
    Message('note_on', channel=6, note=86, velocity=96, time=259),
    Message('note_on', channel=6, note=89, velocity=98, time=3),
    Message('note_on', channel=6, note=77, velocity=78, time=5),
    Message('note_on', channel=6, note=75, velocity=82, time=6),
    Message('note_off', channel=6, note=75, velocity=64, time=59),
    Message('note_off', channel=6, note=77, velocity=64, time=12),
    Message('note_on', channel=6, note=74, velocity=90, time=26),
    Message('note_on', channel=6, note=82, velocity=85, time=6),
    Message('note_off', channel=6, note=89, velocity=64, time=42),
    Message('note_off', channel=6, note=86, velocity=64, time=30),
    Message('note_off', channel=6, note=74, velocity=64, time=34),
    Message('note_on', channel=6, note=81, velocity=88, time=13),
    Message('note_on', channel=6, note=83, velocity=75, time=1),
    Message('note_on', channel=6, note=71, velocity=37, time=9),
    Message('note_on', channel=6, note=72, velocity=64, time=3),
    Message('note_off', channel=6, note=82, velocity=64, time=13),
    Message('note_off', channel=6, note=81, velocity=64, time=6),
    Message('note_off', channel=6, note=71, velocity=64, time=13),
    Message('note_off', channel=6, note=83, velocity=64, time=3),
    Message('note_off', channel=6, note=72, velocity=64, time=1),
    Message('note_on', channel=6, note=74, velocity=102, time=61),
    Message('note_on', channel=6, note=86, velocity=102, time=1),
    Message('note_on', channel=6, note=82, velocity=92, time=3),
    Message('note_off', channel=6, note=74, velocity=64, time=226),
    Message('note_off', channel=6, note=86, velocity=64, time=6),
    Message('note_off', channel=6, note=82, velocity=64, time=14),
    Message('note_on', channel=6, note=66, velocity=47, time=365),
    Message('note_on', channel=6, note=70, velocity=75, time=22),
    Message('note_off', channel=6, note=66, velocity=64, time=21),
    Message('note_on', channel=6, note=71, velocity=82, time=18),
    Message('note_off', channel=6, note=70, velocity=64, time=14),
    Message('note_on', channel=6, note=80, velocity=95, time=26),
    Message('note_on', channel=6, note=84, velocity=100, time=0),
    Message('note_on', channel=6, note=72, velocity=96, time=5),
    Message('note_off', channel=6, note=71, velocity=64, time=2),
    Message('note_off', channel=6, note=80, velocity=64, time=33),
    Message('note_off', channel=6, note=72, velocity=64, time=3),
    Message('note_off', channel=6, note=84, velocity=64, time=1),
    Message('note_on', channel=6, note=84, velocity=95, time=193),
    Message('note_on', channel=6, note=80, velocity=95, time=2),
    Message('note_on', channel=6, note=72, velocity=95, time=6),
    Message('note_off', channel=6, note=72, velocity=64, time=238),
    Message('note_off', channel=6, note=84, velocity=64, time=10),
    Message('note_off', channel=6, note=80, velocity=64, time=2),
    Message('note_on', channel=6, note=71, velocity=99, time=219),
    Message('note_on', channel=6, note=83, velocity=96, time=2),
    Message('note_on', channel=6, note=79, velocity=90, time=1),
    Message('control_change', channel=6, control=11, value=67, time=62),
    Message('control_change', channel=6, control=11, value=65, time=10),
    Message('control_change', channel=6, control=11, value=64, time=10),
    Message('control_change', channel=6, control=11, value=62, time=8),
    Message('control_change', channel=6, control=11, value=61, time=11),
    Message('control_change', channel=6, control=11, value=60, time=9),
    Message('control_change', channel=6, control=11, value=58, time=11),
    Message('control_change', channel=6, control=11, value=57, time=8),
    Message('control_change', channel=6, control=11, value=56, time=11),
    Message('control_change', channel=6, control=11, value=54, time=13),
    Message('control_change', channel=6, control=11, value=53, time=5),
    Message('control_change', channel=6, control=11, value=52, time=10),
    Message('control_change', channel=6, control=11, value=50, time=16),
    Message('control_change', channel=6, control=11, value=49, time=4),
    Message('control_change', channel=6, control=11, value=48, time=9),
    Message('control_change', channel=6, control=11, value=46, time=15),
    Message('control_change', channel=6, control=11, value=45, time=5),
    Message('control_change', channel=6, control=11, value=43, time=8),
    Message('control_change', channel=6, control=11, value=42, time=11),
    Message('control_change', channel=6, control=11, value=41, time=8),
    Message('control_change', channel=6, control=11, value=39, time=9),
    Message('control_change', channel=6, control=11, value=38, time=11),
    Message('control_change', channel=6, control=11, value=37, time=9),
    Message('control_change', channel=6, control=11, value=35, time=11),
    Message('control_change', channel=6, control=11, value=34, time=9),
    Message('control_change', channel=6, control=11, value=33, time=9),
    Message('control_change', channel=6, control=11, value=31, time=10),
    Message('control_change', channel=6, control=11, value=30, time=9),
    Message('control_change', channel=6, control=11, value=28, time=11),
    Message('control_change', channel=6, control=11, value=27, time=8),
    Message('control_change', channel=6, control=11, value=26, time=10),
    Message('control_change', channel=6, control=11, value=24, time=10),
    Message('control_change', channel=6, control=11, value=23, time=9),
    Message('control_change', channel=6, control=11, value=22, time=10),
    Message('control_change', channel=6, control=11, value=20, time=9),
    Message('control_change', channel=6, control=11, value=19, time=11),
    Message('control_change', channel=6, control=11, value=23, time=240),
    Message('control_change', channel=6, control=11, value=25, time=42),
    Message('note_off', channel=6, note=71, velocity=64, time=76),
    Message('control_change', channel=6, control=11, value=26, time=7),
    Message('control_change', channel=6, control=11, value=29, time=123),
    Message('control_change', channel=6, control=11, value=31, time=11),
    Message('control_change', channel=6, control=11, value=35, time=10),
    Message('control_change', channel=6, control=11, value=41, time=12),
    Message('note_off', channel=6, note=79, velocity=64, time=1),
    Message('control_change', channel=6, control=10, value=106, time=9),
    Message('control_change', channel=6, control=11, value=46, time=1),
    Message('control_change', channel=6, control=10, value=105, time=9),
    Message('control_change', channel=6, control=11, value=52, time=0),
    Message('note_on', channel=6, note=81, velocity=58, time=7),
    Message('control_change', channel=6, control=10, value=104, time=2),
    Message('control_change', channel=6, control=11, value=59, time=2),
    Message('control_change', channel=6, control=10, value=103, time=17),
    Message('control_change', channel=6, control=11, value=62, time=2),
    Message('note_on', channel=6, note=79, velocity=79, time=0),
    Message('control_change', channel=6, control=10, value=101, time=1),
    Message('control_change', channel=6, control=11, value=67, time=2),
    Message('note_off', channel=6, note=83, velocity=64, time=1),
    Message('control_change', channel=6, control=10, value=100, time=4),
    Message('note_on', channel=6, note=76, velocity=54, time=4),
    Message('control_change', channel=6, control=10, value=99, time=13),
    Message('note_off', channel=6, note=81, velocity=64, time=1),
    Message('note_on', channel=6, note=78, velocity=50, time=0),
    Message('note_on', channel=6, note=74, velocity=90, time=2),
    Message('control_change', channel=6, control=10, value=98, time=1),
    Message('note_on', channel=6, note=77, velocity=55, time=2),
    Message('note_off', channel=6, note=78, velocity=64, time=2),
    Message('control_change', channel=6, control=10, value=96, time=4),
    Message('note_on', channel=6, note=70, velocity=87, time=4),
    Message('note_on', channel=6, note=75, velocity=58, time=2),
    Message('note_off', channel=6, note=79, velocity=64, time=2),
    Message('control_change', channel=6, control=10, value=95, time=1),
    Message('note_off', channel=6, note=77, velocity=64, time=8),
    Message('note_on', channel=6, note=71, velocity=92, time=1),
    Message('control_change', channel=6, control=10, value=94, time=3),
    Message('note_on', channel=6, note=68, velocity=89, time=1),
    Message('note_off', channel=6, note=75, velocity=64, time=5),
    Message('note_on', channel=6, note=73, velocity=6, time=1),
    Message('control_change', channel=6, control=10, value=93, time=1),
    Message('note_off', channel=6, note=76, velocity=64, time=2),
    Message('note_on', channel=6, note=69, velocity=90, time=3),
    Message('note_on', channel=6, note=66, velocity=87, time=3),
    Message('control_change', channel=6, control=10, value=91, time=1),
    Message('note_off', channel=6, note=73, velocity=64, time=4),
    Message('control_change', channel=6, control=10, value=90, time=6),
    Message('note_off', channel=6, note=74, velocity=64, time=1),
    Message('note_on', channel=6, note=67, velocity=92, time=3),
    Message('control_change', channel=6, control=10, value=89, time=5),
    Message('note_off', channel=6, note=66, velocity=64, time=5),
    Message('note_off', channel=6, note=71, velocity=64, time=6),
    Message('control_change', channel=6, control=10, value=88, time=0),
    Message('note_off', channel=6, note=70, velocity=64, time=2),
    Message('control_change', channel=6, control=10, value=87, time=8),
    Message('note_on', channel=6, note=64, velocity=82, time=3),
    Message('note_off', channel=6, note=69, velocity=64, time=6),
    Message('note_off', channel=6, note=68, velocity=64, time=0),
    Message('control_change', channel=6, control=10, value=85, time=0),
    Message('control_change', channel=6, control=10, value=84, time=9),
    Message('note_off', channel=6, note=67, velocity=64, time=7),
    Message('control_change', channel=6, control=10, value=83, time=2),
    Message('note_on', channel=6, note=62, velocity=44, time=5),
    Message('control_change', channel=6, control=10, value=82, time=5),
    Message('note_on', channel=6, note=63, velocity=55, time=4),
    Message('control_change', channel=6, control=10, value=80, time=5),
    Message('note_off', channel=6, note=64, velocity=64, time=2),
    Message('note_on', channel=6, note=59, velocity=46, time=2),
    Message('note_on', channel=6, note=61, velocity=55, time=4),
    Message('note_off', channel=6, note=63, velocity=64, time=1),
    Message('control_change', channel=6, control=10, value=79, time=2),
    Message('control_change', channel=6, control=10, value=78, time=7),
    Message('note_on', channel=6, note=60, velocity=58, time=5),
    Message('note_off', channel=6, note=62, velocity=64, time=2),
    Message('control_change', channel=6, control=10, value=77, time=4),
    Message('note_off', channel=6, note=61, velocity=64, time=1),
    Message('note_on', channel=6, note=58, velocity=74, time=6),
    Message('control_change', channel=6, control=10, value=76, time=2),
    Message('note_on', channel=6, note=55, velocity=75, time=5),
    Message('control_change', channel=6, control=10, value=74, time=5),
    Message('note_off', channel=6, note=60, velocity=64, time=1),
    Message('note_off', channel=6, note=59, velocity=64, time=3),
    Message('note_off', channel=6, note=55, velocity=64, time=0),
    Message('control_change', channel=6, control=10, value=73, time=5),
    Message('note_on', channel=6, note=55, velocity=85, time=2),
    Message('note_off', channel=6, note=58, velocity=64, time=8),
    Message('note_off', channel=6, note=55, velocity=64, time=6),
    Message('control_change', channel=6, control=10, value=72, time=0),
    Message('control_change', channel=6, control=10, value=71, time=4),
    Message('control_change', channel=6, control=10, value=69, time=9),
    Message('control_change', channel=6, control=10, value=68, time=18),
    Message('control_change', channel=6, control=10, value=67, time=2),
    Message('control_change', channel=6, control=10, value=66, time=10),
    Message('control_change', channel=6, control=10, value=65, time=9),
    Message('control_change', channel=6, control=10, value=64, time=10),
    Message('control_change', channel=6, control=10, value=63, time=9),
    Message('control_change', channel=6, control=10, value=62, time=9),
    Message('control_change', channel=6, control=10, value=61, time=12),
    Message('control_change', channel=6, control=10, value=59, time=8),
    Message('control_change', channel=6, control=10, value=58, time=9),
    Message('control_change', channel=6, control=10, value=57, time=11),
    Message('control_change', channel=6, control=10, value=56, time=8),
    Message('control_change', channel=6, control=10, value=54, time=10),
    Message('control_change', channel=6, control=10, value=53, time=9),
    Message('control_change', channel=6, control=10, value=52, time=10),
    Message('control_change', channel=6, control=10, value=51, time=10),
    Message('control_change', channel=6, control=10, value=50, time=12),
    Message('control_change', channel=6, control=10, value=48, time=7),
    Message('control_change', channel=6, control=10, value=47, time=9),
    Message('control_change', channel=6, control=10, value=46, time=9),
    Message('control_change', channel=6, control=10, value=45, time=11),
    Message('control_change', channel=6, control=10, value=43, time=11),
    Message('note_on', channel=6, note=37, velocity=54, time=0),
    Message('note_on', channel=6, note=39, velocity=74, time=6),
    Message('control_change', channel=6, control=10, value=42, time=2),
    Message('note_off', channel=6, note=37, velocity=64, time=12),
    Message('note_on', channel=6, note=41, velocity=75, time=0),
    Message('control_change', channel=6, control=10, value=41, time=0),
    Message('control_change', channel=6, control=10, value=40, time=9),
    Message('note_on', channel=6, note=42, velocity=75, time=1),
    Message('note_off', channel=6, note=39, velocity=64, time=2),
    Message('control_change', channel=6, control=10, value=39, time=5),
    Message('note_on', channel=6, note=44, velocity=71, time=4),
    Message('note_off', channel=6, note=41, velocity=64, time=4),
    Message('control_change', channel=6, control=10, value=37, time=2),
    Message('note_on', channel=6, note=46, velocity=65, time=5),
    Message('control_change', channel=6, control=10, value=36, time=4),
    Message('note_off', channel=6, note=42, velocity=64, time=5),
    Message('control_change', channel=6, control=10, value=35, time=6),
    Message('note_on', channel=6, note=48, velocity=54, time=10),
    Message('note_off', channel=6, note=44, velocity=64, time=1),
    Message('control_change', channel=6, control=10, value=34, time=0),
    Message('note_on', channel=6, note=49, velocity=52, time=4),
    Message('control_change', channel=6, control=10, value=32, time=3),
    Message('note_off', channel=6, note=46, velocity=64, time=2),
    Message('control_change', channel=6, control=10, value=31, time=8),
    Message('note_on', channel=6, note=51, velocity=55, time=1),
    Message('note_off', channel=6, note=48, velocity=64, time=10),
    Message('control_change', channel=6, control=10, value=30, time=2),
    Message('note_on', channel=6, note=53, velocity=80, time=1),
    Message('note_off', channel=6, note=49, velocity=64, time=3),
    Message('control_change', channel=6, control=10, value=29, time=3),
    Message('note_on', channel=6, note=54, velocity=92, time=6),
    Message('note_off', channel=6, note=51, velocity=64, time=3),
    Message('control_change', channel=6, control=10, value=27, time=0),
    Message('control_change', channel=6, control=10, value=26, time=12),
    Message('note_on', channel=6, note=56, velocity=90, time=0),
    Message('note_off', channel=6, note=53, velocity=64, time=1),
    Message('control_change', channel=6, control=10, value=25, time=7),
    Message('note_off', channel=6, note=54, velocity=64, time=3),
    Message('note_on', channel=6, note=58, velocity=92, time=1),
    Message('control_change', channel=6, control=10, value=24, time=5),
    Message('note_off', channel=6, note=56, velocity=64, time=6),
    Message('note_on', channel=6, note=60, velocity=93, time=1),
    Message('control_change', channel=6, control=10, value=23, time=3),
    Message('note_off', channel=6, note=58, velocity=64, time=6),
    Message('note_on', channel=6, note=61, velocity=96, time=3),
    Message('control_change', channel=6, control=10, value=0, time=1),
    Message('note_off', channel=6, note=60, velocity=64, time=9),
    Message('note_on', channel=6, note=63, velocity=102, time=0),
    Message('note_on', channel=6, note=65, velocity=98, time=10),
    Message('note_off', channel=6, note=61, velocity=64, time=6),
    Message('note_on', channel=6, note=66, velocity=100, time=6),
    Message('note_off', channel=6, note=63, velocity=64, time=8),
    Message('note_on', channel=6, note=68, velocity=96, time=2),
    Message('note_off', channel=6, note=65, velocity=64, time=12),
    Message('note_on', channel=6, note=70, velocity=87, time=3),
    Message('note_off', channel=6, note=66, velocity=64, time=9),
    Message('note_on', channel=6, note=86, velocity=96, time=1),
    Message('note_on', channel=6, note=72, velocity=73, time=9),
    Message('note_on', channel=6, note=79, velocity=99, time=3),
    Message('note_on', channel=6, note=91, velocity=99, time=3),
    Message('note_off', channel=6, note=68, velocity=64, time=1),
    Message('note_off', channel=6, note=70, velocity=64, time=13),
    Message('note_on', channel=6, note=87, velocity=93, time=1),
    Message('note_off', channel=6, note=72, velocity=64, time=2),
    Message('note_on', channel=6, note=88, velocity=62, time=0),
    Message('note_off', channel=6, note=86, velocity=64, time=22),
    Message('note_off', channel=6, note=88, velocity=64, time=7),
    Message('note_off', channel=6, note=91, velocity=64, time=84),
    Message('note_off', channel=6, note=87, velocity=64, time=3),
    Message('note_off', channel=6, note=79, velocity=64, time=0),
    Message('note_on', channel=6, note=89, velocity=107, time=241),
    Message('note_on', channel=6, note=86, velocity=107, time=1),
    Message('note_on', channel=6, note=77, velocity=96, time=3),
    Message('note_off', channel=6, note=86, velocity=64, time=88),
    Message('note_on', channel=6, note=74, velocity=73, time=18),
    Message('note_on', channel=6, note=82, velocity=87, time=4),
    Message('note_on', channel=6, note=86, velocity=96, time=1),
    Message('note_off', channel=6, note=77, velocity=64, time=4),
    Message('note_off', channel=6, note=89, velocity=64, time=10),
    Message('note_on', channel=6, note=81, velocity=73, time=89),
    Message('note_on', channel=6, note=84, velocity=83, time=9),
    Message('note_off', channel=6, note=74, velocity=64, time=9),
    Message('note_on', channel=6, note=72, velocity=70, time=1),
    Message('note_off', channel=6, note=82, velocity=64, time=3),
    Message('note_off', channel=6, note=86, velocity=64, time=4),
    Message('note_off', channel=6, note=81, velocity=64, time=37),
    Message('note_off', channel=6, note=84, velocity=64, time=14),
    Message('note_off', channel=6, note=72, velocity=64, time=1),
    Message('note_on', channel=6, note=74, velocity=92, time=54),
    Message('note_on', channel=6, note=86, velocity=79, time=1),
    Message('note_on', channel=6, note=82, velocity=90, time=3),
    Message('note_off', channel=6, note=74, velocity=64, time=210),
    Message('note_off', channel=6, note=86, velocity=64, time=2),
    Message('note_off', channel=6, note=82, velocity=64, time=5),
    Message('note_on', channel=6, note=82, velocity=92, time=638),
    Message('note_off', channel=6, note=82, velocity=64, time=15),
    Message('note_on', channel=6, note=70, velocity=90, time=94),
    Message('note_off', channel=6, note=70, velocity=64, time=44),
    Message('note_on', channel=6, note=87, velocity=104, time=79),
    Message('note_on', channel=6, note=91, velocity=96, time=3),
    Message('note_on', channel=6, note=79, velocity=107, time=1),
    Message('note_off', channel=6, note=79, velocity=64, time=80),
    Message('note_off', channel=6, note=91, velocity=64, time=1),
    Message('note_off', channel=6, note=87, velocity=64, time=3),
    Message('note_on', channel=6, note=79, velocity=107, time=151),
    Message('note_on', channel=6, note=87, velocity=104, time=0),
    Message('note_on', channel=6, note=91, velocity=99, time=1),
    Message('note_off', channel=6, note=79, velocity=64, time=80),
    Message('note_off', channel=6, note=91, velocity=64, time=8),
    Message('note_off', channel=6, note=87, velocity=64, time=1),
    Message('note_on', channel=6, note=89, velocity=107, time=147),
    Message('note_on', channel=6, note=77, velocity=98, time=1),
    Message('note_on', channel=6, note=86, velocity=113, time=1),
    Message('note_off', channel=6, note=86, velocity=64, time=82),
    Message('note_on', channel=6, note=74, velocity=88, time=14),
    Message('note_off', channel=6, note=77, velocity=64, time=2),
    Message('note_on', channel=6, note=82, velocity=87, time=2),
    Message('note_on', channel=6, note=86, velocity=96, time=1),
    Message('note_off', channel=6, note=89, velocity=64, time=19),
    Message('note_on', channel=6, note=81, velocity=73, time=93),
    Message('note_on', channel=6, note=84, velocity=85, time=1),
    Message('note_off', channel=6, note=86, velocity=64, time=5),
    Message('note_on', channel=6, note=72, velocity=59, time=5),
    Message('note_off', channel=6, note=82, velocity=64, time=3),
    Message('note_off', channel=6, note=74, velocity=64, time=0),
    Message('note_off', channel=6, note=84, velocity=64, time=18),
    Message('note_off', channel=6, note=81, velocity=64, time=3),
    Message('note_off', channel=6, note=72, velocity=64, time=10),
    Message('note_on', channel=6, note=74, velocity=92, time=76),
    Message('note_on', channel=6, note=86, velocity=102, time=2),
    Message('note_on', channel=6, note=82, velocity=95, time=8),
    Message('note_on', channel=6, note=81, velocity=59, time=15),
    Message('note_off', channel=6, note=81, velocity=64, time=14),
    Message('note_off', channel=6, note=86, velocity=64, time=166),
    Message('note_off', channel=6, note=74, velocity=64, time=15),
    Message('note_on', channel=6, note=80, velocity=58, time=18),
    Message('note_off', channel=6, note=82, velocity=64, time=11),
    Message('note_on', channel=6, note=78, velocity=77, time=24),
    Message('note_off', channel=6, note=80, velocity=64, time=5),
    Message('note_on', channel=6, note=77, velocity=87, time=22),
    Message('note_off', channel=6, note=78, velocity=64, time=1),
    Message('note_on', channel=6, note=75, velocity=85, time=20),
    Message('note_off', channel=6, note=77, velocity=64, time=1),
    Message('note_off', channel=6, note=75, velocity=64, time=19),
    Message('note_on', channel=6, note=73, velocity=74, time=2),
    Message('note_on', channel=6, note=72, velocity=78, time=19),
    Message('note_off', channel=6, note=73, velocity=64, time=1),
    Message('note_on', channel=6, note=70, velocity=85, time=16),
    Message('note_off', channel=6, note=72, velocity=64, time=7),
    Message('note_on', channel=6, note=68, velocity=80, time=15),
    Message('note_off', channel=6, note=70, velocity=64, time=1),
    Message('note_on', channel=6, note=66, velocity=85, time=17),
    Message('note_off', channel=6, note=68, velocity=64, time=2),
    Message('note_on', channel=6, note=65, velocity=82, time=16),
    Message('note_off', channel=6, note=66, velocity=64, time=2),
    Message('note_off', channel=6, note=65, velocity=64, time=18),
    Message('note_on', channel=6, note=63, velocity=80, time=1),
    Message('note_off', channel=6, note=63, velocity=64, time=22),
    Message('note_on', channel=6, note=61, velocity=80, time=0),
    Message('note_off', channel=6, note=61, velocity=64, time=13),
    Message('note_on', channel=6, note=60, velocity=77, time=13),
    Message('note_off', channel=6, note=60, velocity=64, time=4),
    Message('note_on', channel=6, note=58, velocity=85, time=6),
    Message('note_off', channel=6, note=58, velocity=64, time=22),
    Message('note_on', channel=6, note=54, velocity=82, time=19),
    Message('note_off', channel=6, note=54, velocity=64, time=14),
    Message('note_on', channel=6, note=51, velocity=70, time=30),
    Message('note_off', channel=6, note=51, velocity=64, time=19),
    Message('note_on', channel=6, note=82, velocity=87, time=494),
    Message('note_off', channel=6, note=82, velocity=64, time=27),
    Message('note_on', channel=6, note=87, velocity=102, time=78),
    Message('note_on', channel=6, note=91, velocity=99, time=8),
    Message('note_on', channel=6, note=79, velocity=107, time=3),
    Message('note_off', channel=6, note=79, velocity=64, time=88),
    Message('note_off', channel=6, note=87, velocity=64, time=2),
    Message('note_off', channel=6, note=91, velocity=64, time=3),
    Message('note_on', channel=6, note=91, velocity=75, time=15),
    Message('note_on', channel=6, note=87, velocity=89, time=12),
    Message('note_on', channel=6, note=79, velocity=92, time=1),
    Message('note_off', channel=6, note=91, velocity=64, time=48),
    Message('note_off', channel=6, note=87, velocity=64, time=2),
    Message('note_off', channel=6, note=79, velocity=64, time=16),
    Message('note_on', channel=6, note=86, velocity=102, time=176),
    Message('note_on', channel=6, note=89, velocity=98, time=0),
    Message('note_on', channel=6, note=77, velocity=96, time=1),
    Message('note_off', channel=6, note=86, velocity=64, time=86),
    Message('note_on', channel=6, note=82, velocity=77, time=12),
    Message('note_on', channel=6, note=74, velocity=92, time=2),
    Message('note_off', channel=6, note=77, velocity=64, time=19),
    Message('note_on', channel=6, note=86, velocity=96, time=0),
    Message('note_off', channel=6, note=89, velocity=64, time=3),
    Message('note_on', channel=6, note=81, velocity=71, time=89),
    Message('note_on', channel=6, note=84, velocity=83, time=6),
    Message('note_on', channel=6, note=72, velocity=89, time=3),
    Message('note_off', channel=6, note=82, velocity=64, time=8),
    Message('note_off', channel=6, note=74, velocity=64, time=4),
    Message('note_off', channel=6, note=86, velocity=64, time=5),
    Message('note_off', channel=6, note=81, velocity=64, time=12),
    Message('note_off', channel=6, note=84, velocity=64, time=6),
    Message('note_off', channel=6, note=72, velocity=64, time=16),
    Message('note_on', channel=6, note=74, velocity=107, time=61),
    Message('note_on', channel=6, note=86, velocity=102, time=3),
    Message('note_on', channel=6, note=82, velocity=93, time=2),
    Message('note_off', channel=6, note=86, velocity=64, time=208),
    Message('note_off', channel=6, note=74, velocity=64, time=27),
    Message('note_on', channel=6, note=80, velocity=67, time=6),
    Message('note_off', channel=6, note=82, velocity=64, time=10),
    Message('note_on', channel=6, note=78, velocity=75, time=23),
    Message('note_off', channel=6, note=80, velocity=64, time=3),
    Message('note_off', channel=6, note=78, velocity=64, time=21),
    Message('note_on', channel=6, note=77, velocity=77, time=1),
    Message('note_off', channel=6, note=77, velocity=64, time=20),
    Message('note_on', channel=6, note=75, velocity=80, time=1),
    Message('note_off', channel=6, note=75, velocity=64, time=18),
    Message('note_on', channel=6, note=73, velocity=78, time=1),
    Message('note_on', channel=6, note=72, velocity=90, time=17),
    Message('note_off', channel=6, note=73, velocity=64, time=1),
    Message('note_off', channel=6, note=72, velocity=64, time=19),
    Message('note_on', channel=6, note=70, velocity=85, time=0),
    Message('note_on', channel=6, note=68, velocity=92, time=15),
    Message('note_off', channel=6, note=70, velocity=64, time=3),
    Message('note_off', channel=6, note=68, velocity=64, time=15),
    Message('note_on', channel=6, note=66, velocity=70, time=4),
    Message('note_off', channel=6, note=66, velocity=64, time=13),
    Message('note_on', channel=6, note=65, velocity=78, time=5),
    Message('note_off', channel=6, note=65, velocity=64, time=15),
    Message('control_change', channel=6, control=11, value=62, time=114),
    Message('control_change', channel=6, control=11, value=53, time=6),
    Message('control_change', channel=6, control=11, value=43, time=10),
    Message('control_change', channel=6, control=11, value=34, time=15),
    Message('note_on', channel=6, note=37, velocity=71, time=0),
    Message('note_on', channel=6, note=39, velocity=78, time=2),
    Message('control_change', channel=6, control=11, value=26, time=5),
    Message('note_on', channel=6, note=41, velocity=46, time=2),
    Message('note_on', channel=6, note=44, velocity=85, time=3),
    Message('note_on', channel=6, note=42, velocity=49, time=2),
    Message('note_off', channel=6, note=37, velocity=64, time=3),
    Message('control_change', channel=6, control=11, value=17, time=2),
    Message('note_on', channel=6, note=46, velocity=89, time=8),
    Message('control_change', channel=6, control=11, value=9, time=2),
    Message('note_off', channel=6, note=39, velocity=64, time=4),
    Message('control_change', channel=6, control=11, value=3, time=6),
    Message('note_on', channel=6, note=48, velocity=89, time=4),
    Message('note_off', channel=6, note=41, velocity=64, time=5),
    Message('control_change', channel=6, control=11, value=0, time=1),
    Message('note_on', channel=6, note=49, velocity=87, time=9),
    Message('control_change', channel=6, control=11, value=0, time=1),
    Message('note_off', channel=6, note=42, velocity=64, time=2),
    Message('control_change', channel=6, control=11, value=0, time=9),
    Message('note_on', channel=6, note=51, velocity=87, time=2),
    Message('note_off', channel=6, note=44, velocity=64, time=2),
    Message('control_change', channel=6, control=11, value=0, time=6),
    Message('note_off', channel=6, note=46, velocity=64, time=8),
    Message('note_on', channel=6, note=53, velocity=75, time=1),
    Message('control_change', channel=6, control=11, value=0, time=1),
    Message('note_off', channel=6, note=48, velocity=64, time=11),
    Message('note_on', channel=6, note=54, velocity=55, time=11),
    Message('note_off', channel=6, note=49, velocity=64, time=2),
    Message('note_off', channel=6, note=51, velocity=64, time=11),
    Message('note_on', channel=6, note=56, velocity=58, time=0),
    Message('control_change', channel=6, control=11, value=0, time=7),
    Message('note_off', channel=6, note=53, velocity=64, time=9),
    Message('note_on', channel=6, note=58, velocity=62, time=0),
    Message('control_change', channel=6, control=11, value=22, time=3),
    Message('note_off', channel=6, note=54, velocity=64, time=7),
    Message('control_change', channel=6, control=11, value=52, time=2),
    Message('note_on', channel=6, note=60, velocity=73, time=1),
    Message('control_change', channel=6, control=11, value=67, time=9),
    Message('note_off', channel=6, note=56, velocity=64, time=1),
    Message('note_on', channel=6, note=80, velocity=95, time=2),
    Message('note_on', channel=6, note=75, velocity=90, time=2),
    Message('note_on', channel=6, note=61, velocity=92, time=0),
    Message('note_on', channel=6, note=84, velocity=96, time=3),
    Message('note_off', channel=6, note=58, velocity=64, time=11),
    Message('note_off', channel=6, note=60, velocity=64, time=7),
    Message('note_off', channel=6, note=61, velocity=64, time=6),
    Message('note_off', channel=6, note=80, velocity=64, time=16),
    Message('note_off', channel=6, note=75, velocity=64, time=0),
    Message('note_off', channel=6, note=84, velocity=64, time=1),
    Message('control_change', channel=6, control=11, value=61, time=66),
    Message('control_change', channel=6, control=11, value=55, time=11),
    Message('note_on', channel=6, note=80, velocity=96, time=80),
    Message('note_on', channel=6, note=75, velocity=87, time=7),
    Message('note_on', channel=6, note=84, velocity=93, time=6),
    Message('note_off', channel=6, note=80, velocity=64, time=188),
    Message('note_off', channel=6, note=84, velocity=64, time=14),
    Message('note_on', channel=6, note=65, velocity=92, time=14),
    Message('note_on', channel=6, note=66, velocity=92, time=7),
    Message('note_on', channel=6, note=68, velocity=75, time=4),
    Message('note_off', channel=6, note=68, velocity=64, time=11),
    Message('note_off', channel=6, note=75, velocity=64, time=2),
    Message('note_off', channel=6, note=66, velocity=64, time=0),
    Message('note_off', channel=6, note=65, velocity=64, time=1),
    Message('control_change', channel=6, control=11, value=62, time=31),
    Message('control_change', channel=6, control=11, value=64, time=11),
    Message('control_change', channel=6, control=11, value=67, time=9),
    Message('note_on', channel=6, note=79, velocity=71, time=169),
    Message('note_on', channel=6, note=74, velocity=64, time=3),
    Message('note_on', channel=6, note=77, velocity=83, time=2),
    Message('note_on', channel=6, note=83, velocity=90, time=3),
    Message('note_on', channel=6, note=69, velocity=79, time=0),
    Message('note_on', channel=6, note=71, velocity=69, time=6),
    Message('control_change', channel=6, control=11, value=62, time=55),
    Message('control_change', channel=6, control=11, value=57, time=10),
    Message('control_change', channel=6, control=11, value=53, time=13),
    Message('control_change', channel=6, control=11, value=50, time=8),
    Message('control_change', channel=6, control=11, value=48, time=93),
    Message('control_change', channel=6, control=11, value=46, time=22),
    Message('control_change', channel=6, control=11, value=44, time=63),
    Message('control_change', channel=6, control=1, value=5, time=32),
    Message('control_change', channel=6, control=1, value=13, time=9),
    Message('control_change', channel=6, control=1, value=25, time=11),
    Message('control_change', channel=6, control=1, value=36, time=10),
    Message('control_change', channel=6, control=1, value=46, time=10),
    Message('control_change', channel=6, control=1, value=58, time=11),
    Message('control_change', channel=6, control=1, value=73, time=10),
    Message('control_change', channel=6, control=1, value=85, time=10),
    Message('control_change', channel=6, control=1, value=98, time=11),
    Message('control_change', channel=6, control=1, value=118, time=9),
    Message('control_change', channel=6, control=1, value=127, time=10),
    Message('control_change', channel=6, control=11, value=48, time=44),
    Message('control_change', channel=6, control=11, value=50, time=26),
    Message('control_change', channel=6, control=11, value=52, time=4),
    Message('control_change', channel=6, control=11, value=53, time=26),
    Message('control_change', channel=6, control=1, value=116, time=25),
    Message('control_change', channel=6, control=1, value=56, time=10),
    Message('control_change', channel=6, control=1, value=0, time=12),
    Message('control_change', channel=6, control=11, value=56, time=10),
    Message('control_change', channel=6, control=11, value=58, time=93),
    Message('note_off', channel=6, note=77, velocity=64, time=242),
    Message('note_off', channel=6, note=69, velocity=64, time=2),
    Message('note_off', channel=6, note=71, velocity=64, time=1),
    Message('note_on', channel=6, note=25, velocity=59, time=3),
    Message('note_off', channel=6, note=74, velocity=64, time=2),
    Message('note_on', channel=6, note=27, velocity=58, time=6),
    Message('note_on', channel=6, note=29, velocity=49, time=7),
    Message('note_off', channel=6, note=79, velocity=64, time=2),
    Message('note_on', channel=6, note=30, velocity=51, time=5),
    Message('note_on', channel=6, note=32, velocity=89, time=6),
    Message('control_change', channel=6, control=11, value=61, time=4),
    Message('note_off', channel=6, note=25, velocity=64, time=3),
    Message('control_change', channel=6, control=11, value=62, time=8),
    Message('note_on', channel=6, note=34, velocity=100, time=1),
    Message('note_off', channel=6, note=83, velocity=64, time=1),
    Message('note_off', channel=6, note=27, velocity=64, time=8),
    Message('note_on', channel=6, note=36, velocity=100, time=5),
    Message('control_change', channel=6, control=11, value=67, time=5),
    Message('note_off', channel=6, note=29, velocity=64, time=7),
    Message('note_on', channel=6, note=37, velocity=100, time=4),
    Message('note_off', channel=6, note=30, velocity=64, time=14),
    Message('note_on', channel=6, note=39, velocity=100, time=2),
    Message('note_off', channel=6, note=32, velocity=64, time=10),
    Message('note_on', channel=6, note=41, velocity=96, time=15),
    Message('note_off', channel=6, note=34, velocity=64, time=1),
    Message('note_on', channel=6, note=42, velocity=96, time=4),
    Message('note_off', channel=6, note=36, velocity=64, time=9),
    Message('note_on', channel=6, note=44, velocity=96, time=13),
    Message('note_off', channel=6, note=37, velocity=64, time=1),
    Message('note_on', channel=6, note=46, velocity=93, time=8),
    Message('note_off', channel=6, note=39, velocity=64, time=6),
    Message('note_on', channel=6, note=48, velocity=89, time=9),
    Message('note_off', channel=6, note=41, velocity=64, time=4),
    Message('note_on', channel=6, note=49, velocity=87, time=10),
    Message('note_off', channel=6, note=42, velocity=64, time=1),
    Message('note_on', channel=6, note=51, velocity=87, time=11),
    Message('note_off', channel=6, note=44, velocity=64, time=2),
    Message('note_off', channel=6, note=46, velocity=64, time=13),
    Message('note_on', channel=6, note=53, velocity=71, time=2),
    Message('note_off', channel=6, note=48, velocity=64, time=11),
    Message('note_on', channel=6, note=54, velocity=60, time=4),
    Message('note_off', channel=6, note=49, velocity=64, time=8),
    Message('note_on', channel=6, note=56, velocity=64, time=4),
    Message('note_off', channel=6, note=51, velocity=64, time=8),
    Message('note_on', channel=6, note=58, velocity=74, time=4),
    Message('note_off', channel=6, note=53, velocity=64, time=6),
    Message('note_on', channel=6, note=60, velocity=68, time=9),
    Message('note_off', channel=6, note=54, velocity=64, time=3),
    Message('note_on', channel=6, note=61, velocity=67, time=7),
    Message('note_off', channel=6, note=56, velocity=64, time=3),
    Message('note_off', channel=6, note=58, velocity=64, time=9),
    Message('note_on', channel=6, note=63, velocity=70, time=0),
    Message('note_on', channel=6, note=65, velocity=90, time=10),
    Message('note_off', channel=6, note=60, velocity=64, time=1),
    Message('note_on', channel=6, note=86, velocity=102, time=3),
    Message('note_on', channel=6, note=82, velocity=90, time=1),
    Message('note_on', channel=6, note=91, velocity=107, time=1),
    Message('note_on', channel=6, note=94, velocity=104, time=1),
    Message('note_on', channel=6, note=80, velocity=95, time=2),
    Message('note_off', channel=6, note=61, velocity=64, time=1),
    Message('note_on', channel=6, note=92, velocity=107, time=0),
    Message('note_on', channel=6, note=66, velocity=96, time=1),
    Message('note_on', channel=6, note=88, velocity=88, time=1),
    Message('note_on', channel=6, note=84, velocity=95, time=0),
    Message('note_on', channel=6, note=87, velocity=107, time=3),
    Message('note_off', channel=6, note=63, velocity=64, time=4),
    Message('note_off', channel=6, note=88, velocity=64, time=1),
    Message('note_off', channel=6, note=92, velocity=64, time=1),
    Message('note_on', channel=6, note=68, velocity=95, time=1),
    Message('note_on', channel=6, note=89, velocity=89, time=0),
    Message('note_off', channel=6, note=65, velocity=64, time=2),
    Message('note_on', channel=6, note=70, velocity=95, time=7),
    Message('note_off', channel=6, note=66, velocity=64, time=2),
    Message('note_off', channel=6, note=68, velocity=64, time=4),
    Message('note_off', channel=6, note=70, velocity=64, time=7),
    Message('note_off', channel=6, note=89, velocity=64, time=3),
    Message('note_off', channel=6, note=86, velocity=64, time=2),
    Message('note_off', channel=6, note=80, velocity=64, time=98),
    Message('note_off', channel=6, note=84, velocity=64, time=11),
    Message('note_on', channel=6, note=92, velocity=61, time=2),
    Message('control_change', channel=6, control=11, value=65, time=5),
    Message('note_on', channel=6, note=90, velocity=59, time=1),
    Message('note_off', channel=6, note=82, velocity=64, time=3),
    Message('control_change', channel=6, control=11, value=62, time=8),
    Message('note_on', channel=6, note=89, velocity=52, time=0),
    Message('note_on', channel=6, note=88, velocity=62, time=5),
    Message('note_off', channel=6, note=94, velocity=64, time=1),
    Message('note_off', channel=6, note=91, velocity=64, time=23),
    Message('note_off', channel=6, note=92, velocity=64, time=2),
    Message('note_on', channel=6, note=85, velocity=40, time=7),
    Message('note_off', channel=6, note=90, velocity=64, time=13),
    Message('control_change', channel=6, control=11, value=67, time=11),
    Message('note_off', channel=6, note=89, velocity=64, time=2),
    Message('note_off', channel=6, note=88, velocity=64, time=2),
    Message('note_off', channel=6, note=87, velocity=64, time=6),
    Message('note_on', channel=6, note=84, velocity=5, time=11),
    Message('note_off', channel=6, note=85, velocity=64, time=6),
    Message('note_on', channel=6, note=82, velocity=1, time=8),
    Message('note_off', channel=6, note=84, velocity=64, time=11),
    Message('note_on', channel=6, note=80, velocity=1, time=6),
    Message('note_off', channel=6, note=82, velocity=64, time=15),
    Message('note_on', channel=6, note=78, velocity=4, time=7),
    Message('note_off', channel=6, note=80, velocity=64, time=18),
    Message('note_off', channel=6, note=78, velocity=64, time=12),
    MetaMessage('end_of_track', time=5788)]),
  MidiTrack([
    MetaMessage('track_name', name='2Tp Always Fall/Gliss\x00\x00\x00', time=0),
    MetaMessage('channel_prefix', channel=7, time=0),
    Message('control_change', channel=7, control=0, value=0, time=0),
    Message('control_change', channel=7, control=32, value=1, time=0),
    Message('program_change', channel=7, program=4, time=0),
    Message('control_change', channel=7, control=7, value=127, time=0),
    Message('control_change', channel=7, control=10, value=64, time=0),
    Message('control_change', channel=7, control=93, value=0, time=0),
    Message('control_change', channel=7, control=91, value=0, time=0),
    Message('note_on', channel=7, note=68, velocity=107, time=21703),
    Message('note_on', channel=7, note=80, velocity=127, time=0),
    Message('note_off', channel=7, note=80, velocity=64, time=186),
    Message('note_off', channel=7, note=68, velocity=64, time=5),
    Message('control_change', channel=7, control=11, value=103, time=14627),
    Message('note_on', channel=7, note=80, velocity=119, time=30),
    Message('note_on', channel=7, note=68, velocity=113, time=0),
    Message('note_off', channel=7, note=68, velocity=64, time=841),
    Message('note_off', channel=7, note=80, velocity=64, time=24),
    Message('note_on', channel=7, note=57, velocity=119, time=6122),
    Message('note_on', channel=7, note=47, velocity=119, time=3),
    Message('note_on', channel=7, note=62, velocity=119, time=0),
    Message('note_off', channel=7, note=57, velocity=64, time=122),
    Message('note_off', channel=7, note=47, velocity=64, time=1),
    Message('note_off', channel=7, note=62, velocity=64, time=0),
    Message('note_on', channel=7, note=58, velocity=119, time=331),
    Message('note_on', channel=7, note=48, velocity=119, time=1),
    Message('note_on', channel=7, note=63, velocity=119, time=0),
    Message('note_off', channel=7, note=58, velocity=64, time=106),
    Message('note_off', channel=7, note=48, velocity=64, time=0),
    Message('note_off', channel=7, note=63, velocity=64, time=2),
    Message('note_on', channel=7, note=59, velocity=127, time=384),
    Message('note_on', channel=7, note=49, velocity=127, time=1),
    Message('note_on', channel=7, note=64, velocity=127, time=1),
    Message('note_off', channel=7, note=59, velocity=64, time=110),
    Message('note_off', channel=7, note=49, velocity=64, time=1),
    Message('note_off', channel=7, note=64, velocity=64, time=1),
    Message('note_on', channel=7, note=75, velocity=119, time=353),
    Message('note_on', channel=7, note=51, velocity=119, time=1),
    Message('note_off', channel=7, note=75, velocity=64, time=783),
    Message('note_off', channel=7, note=51, velocity=64, time=0),
    Message('note_on', channel=7, note=48, velocity=98, time=17),
    Message('note_off', channel=7, note=48, velocity=64, time=120),
    Message('note_on', channel=7, note=46, velocity=66, time=33),
    Message('note_off', channel=7, note=46, velocity=64, time=63),
    Message('note_on', channel=7, note=48, velocity=98, time=27),
    Message('note_off', channel=7, note=48, velocity=64, time=157),
    Message('note_on', channel=7, note=51, velocity=127, time=10),
    Message('note_off', channel=7, note=51, velocity=64, time=106),
    MetaMessage('end_of_track', time=116928)]),
  MidiTrack([
    MetaMessage('track_name', name='Berlin Piano\x00undlach.de\x00', time=0),
    MetaMessage('channel_prefix', channel=8, time=0),
    Message('control_change', channel=8, control=0, value=0, time=0),
    Message('control_change', channel=8, control=32, value=0, time=0),
    Message('program_change', channel=8, program=16, time=0),
    Message('control_change', channel=8, control=7, value=127, time=0),
    Message('control_change', channel=8, control=10, value=64, time=0),
    Message('control_change', channel=8, control=93, value=0, time=0),
    Message('control_change', channel=8, control=91, value=20, time=0),
    Message('control_change', channel=8, control=21, value=0, time=192),
    Message('control_change', channel=8, control=17, value=55, time=10),
    Message('control_change', channel=8, control=18, value=0, time=19),
    Message('control_change', channel=8, control=11, value=127, time=3),
    Message('control_change', channel=8, control=19, value=0, time=16),
    Message('control_change', channel=8, control=20, value=0, time=16),
    Message('control_change', channel=8, control=91, value=25, time=49),
    Message('control_change', channel=8, control=64, value=33, time=81),
    Message('control_change', channel=8, control=64, value=40, time=19),
    Message('note_on', channel=8, note=80, velocity=61, time=1),
    Message('control_change', channel=8, control=64, value=127, time=2),
    Message('note_on', channel=8, note=85, velocity=75, time=74),
    Message('note_off', channel=8, note=80, velocity=64, time=9),
    Message('note_off', channel=8, note=85, velocity=64, time=63),
    Message('note_on', channel=8, note=87, velocity=92, time=5),
    Message('note_off', channel=8, note=87, velocity=64, time=58),
    Message('note_on', channel=8, note=92, velocity=107, time=9),
    Message('note_on', channel=8, note=87, velocity=104, time=62),
    Message('note_off', channel=8, note=92, velocity=64, time=19),
    Message('note_on', channel=8, note=85, velocity=104, time=42),
    Message('note_off', channel=8, note=87, velocity=64, time=17),
    Message('note_off', channel=8, note=85, velocity=64, time=34),
    Message('note_on', channel=8, note=80, velocity=102, time=2),
    Message('note_off', channel=8, note=80, velocity=64, time=38),
    Message('note_on', channel=8, note=75, velocity=107, time=23),
    Message('note_on', channel=8, note=73, velocity=107, time=64),
    Message('note_off', channel=8, note=75, velocity=64, time=27),
    Message('note_off', channel=8, note=73, velocity=64, time=19),
    Message('note_on', channel=8, note=68, velocity=107, time=13),
    Message('note_off', channel=8, note=68, velocity=64, time=32),
    Message('note_on', channel=8, note=63, velocity=93, time=35),
    Message('note_on', channel=8, note=61, velocity=102, time=50),
    Message('note_off', channel=8, note=63, velocity=64, time=9),
    Message('note_off', channel=8, note=61, velocity=64, time=36),
    Message('note_on', channel=8, note=56, velocity=102, time=16),
    Message('note_off', channel=8, note=56, velocity=64, time=53),
    Message('note_on', channel=8, note=51, velocity=90, time=30),
    Message('note_on', channel=8, note=49, velocity=98, time=44),
    Message('note_off', channel=8, note=51, velocity=64, time=8),
    Message('note_off', channel=8, note=49, velocity=64, time=45),
    Message('note_on', channel=8, note=44, velocity=100, time=16),
    Message('note_off', channel=8, note=44, velocity=64, time=52),
    Message('note_on', channel=8, note=37, velocity=107, time=7),
    Message('note_on', channel=8, note=25, velocity=119, time=78),
    Message('note_off', channel=8, note=37, velocity=64, time=82),
    Message('note_off', channel=8, note=25, velocity=64, time=20),
    Message('control_change', channel=8, control=91, value=24, time=1392),
    Message('control_change', channel=8, control=91, value=25, time=7),
    Message('control_change', channel=8, control=91, value=26, time=9),
    Message('control_change', channel=8, control=91, value=27, time=9),
    Message('control_change', channel=8, control=91, value=28, time=11),
    Message('control_change', channel=8, control=91, value=29, time=9),
    Message('control_change', channel=8, control=91, value=30, time=18),
    Message('control_change', channel=8, control=91, value=31, time=1),
    Message('control_change', channel=8, control=91, value=32, time=14),
    Message('control_change', channel=8, control=91, value=33, time=16),
    Message('control_change', channel=8, control=91, value=34, time=1),
    Message('control_change', channel=8, control=91, value=35, time=8),
    Message('control_change', channel=8, control=91, value=36, time=15),
    Message('control_change', channel=8, control=91, value=38, time=4),
    Message('control_change', channel=8, control=91, value=39, time=10),
    Message('control_change', channel=8, control=91, value=40, time=20),
    Message('control_change', channel=8, control=91, value=41, time=1),
    Message('control_change', channel=8, control=91, value=42, time=7),
    Message('control_change', channel=8, control=91, value=43, time=10),
    Message('control_change', channel=8, control=91, value=44, time=9),
    Message('control_change', channel=8, control=91, value=45, time=9),
    Message('control_change', channel=8, control=91, value=46, time=11),
    Message('control_change', channel=8, control=91, value=47, time=9),
    Message('control_change', channel=8, control=91, value=48, time=10),
    Message('control_change', channel=8, control=91, value=49, time=10),
    Message('control_change', channel=8, control=91, value=50, time=8),
    Message('control_change', channel=8, control=91, value=52, time=11),
    Message('control_change', channel=8, control=91, value=53, time=9),
    Message('control_change', channel=8, control=91, value=54, time=14),
    Message('control_change', channel=8, control=91, value=55, time=6),
    Message('control_change', channel=8, control=91, value=56, time=9),
    Message('control_change', channel=8, control=91, value=57, time=10),
    Message('control_change', channel=8, control=91, value=58, time=9),
    Message('control_change', channel=8, control=91, value=59, time=10),
    Message('control_change', channel=8, control=91, value=60, time=10),
    Message('control_change', channel=8, control=91, value=61, time=9),
    Message('control_change', channel=8, control=91, value=62, time=10),
    Message('control_change', channel=8, control=91, value=63, time=19),
    Message('control_change', channel=8, control=91, value=64, time=1),
    Message('control_change', channel=8, control=91, value=65, time=8),
    Message('control_change', channel=8, control=91, value=67, time=22),
    Message('control_change', channel=8, control=91, value=68, time=1),
    Message('control_change', channel=8, control=91, value=69, time=6),
    Message('control_change', channel=8, control=91, value=70, time=10),
    Message('control_change', channel=8, control=91, value=71, time=11),
    Message('control_change', channel=8, control=91, value=72, time=8),
    Message('control_change', channel=8, control=91, value=73, time=9),
    Message('control_change', channel=8, control=91, value=74, time=15),
    Message('control_change', channel=8, control=91, value=75, time=5),
    Message('control_change', channel=8, control=91, value=76, time=10),
    Message('control_change', channel=8, control=91, value=77, time=9),
    Message('control_change', channel=8, control=91, value=78, time=9),
    Message('control_change', channel=8, control=91, value=79, time=9),
    Message('control_change', channel=8, control=91, value=81, time=11),
    Message('control_change', channel=8, control=91, value=82, time=9),
    Message('control_change', channel=8, control=91, value=83, time=11),
    Message('control_change', channel=8, control=91, value=84, time=8),
    Message('control_change', channel=8, control=91, value=85, time=9),
    Message('control_change', channel=8, control=91, value=86, time=11),
    Message('control_change', channel=8, control=91, value=87, time=14),
    Message('control_change', channel=8, control=91, value=88, time=5),
    Message('control_change', channel=8, control=91, value=89, time=10),
    Message('control_change', channel=8, control=91, value=90, time=8),
    Message('control_change', channel=8, control=91, value=91, time=11),
    Message('control_change', channel=8, control=91, value=92, time=9),
    Message('control_change', channel=8, control=91, value=93, time=9),
    Message('control_change', channel=8, control=91, value=95, time=13),
    Message('control_change', channel=8, control=91, value=96, time=6),
    Message('control_change', channel=8, control=91, value=97, time=10),
    Message('control_change', channel=8, control=91, value=98, time=11),
    Message('control_change', channel=8, control=91, value=99, time=8),
    Message('control_change', channel=8, control=91, value=100, time=10),
    Message('control_change', channel=8, control=91, value=101, time=15),
    Message('control_change', channel=8, control=91, value=102, time=3),
    Message('control_change', channel=8, control=91, value=103, time=11),
    Message('control_change', channel=8, control=91, value=104, time=17),
    Message('control_change', channel=8, control=91, value=105, time=2),
    Message('control_change', channel=8, control=91, value=106, time=9),
    Message('control_change', channel=8, control=91, value=107, time=14),
    Message('control_change', channel=8, control=91, value=109, time=6),
    Message('control_change', channel=8, control=91, value=110, time=9),
    Message('control_change', channel=8, control=91, value=111, time=10),
    Message('control_change', channel=8, control=91, value=112, time=10),
    Message('control_change', channel=8, control=91, value=113, time=13),
    Message('control_change', channel=8, control=91, value=114, time=6),
    Message('control_change', channel=8, control=91, value=115, time=9),
    Message('control_change', channel=8, control=91, value=116, time=10),
    Message('control_change', channel=8, control=91, value=117, time=9),
    Message('control_change', channel=8, control=91, value=118, time=10),
    Message('control_change', channel=8, control=91, value=119, time=10),
    Message('control_change', channel=8, control=91, value=120, time=9),
    Message('control_change', channel=8, control=91, value=121, time=12),
    Message('control_change', channel=8, control=91, value=123, time=7),
    Message('control_change', channel=8, control=91, value=124, time=10),
    Message('control_change', channel=8, control=91, value=125, time=10),
    Message('control_change', channel=8, control=91, value=126, time=10),
    Message('control_change', channel=8, control=91, value=127, time=9),
    Message('control_change', channel=8, control=91, value=8, time=5601),
    Message('control_change', channel=8, control=64, value=0, time=12),
    Message('note_on', channel=8, note=55, velocity=55, time=21798),
    Message('note_off', channel=8, note=55, velocity=64, time=67),
    Message('note_on', channel=8, note=57, velocity=74, time=15),
    Message('note_off', channel=8, note=57, velocity=64, time=74),
    Message('note_on', channel=8, note=59, velocity=93, time=15),
    Message('note_on', channel=8, note=61, velocity=99, time=66),
    Message('note_off', channel=8, note=59, velocity=64, time=2),
    Message('note_off', channel=8, note=61, velocity=64, time=56),
    Message('note_on', channel=8, note=63, velocity=107, time=29),
    Message('note_off', channel=8, note=63, velocity=64, time=65),
    Message('note_on', channel=8, note=64, velocity=104, time=16),
    Message('note_off', channel=8, note=64, velocity=64, time=68),
    Message('note_on', channel=8, note=66, velocity=119, time=15),
    Message('note_on', channel=8, note=68, velocity=96, time=15),
    Message('note_off', channel=8, note=68, velocity=64, time=12),
    Message('note_off', channel=8, note=66, velocity=64, time=48),
    Message('note_on', channel=8, note=67, velocity=113, time=26),
    Message('note_off', channel=8, note=67, velocity=64, time=113),
    Message('note_on', channel=8, note=69, velocity=83, time=13),
    Message('note_on', channel=8, note=67, velocity=73, time=46),
    Message('note_off', channel=8, note=69, velocity=64, time=22),
    Message('note_on', channel=8, note=66, velocity=90, time=50),
    Message('note_off', channel=8, note=67, velocity=64, time=11),
    Message('note_off', channel=8, note=66, velocity=64, time=80),
    Message('note_on', channel=8, note=64, velocity=98, time=31),
    Message('note_on', channel=8, note=62, velocity=83, time=130),
    Message('note_off', channel=8, note=64, velocity=64, time=7),
    Message('note_on', channel=8, note=63, velocity=68, time=47),
    Message('note_off', channel=8, note=62, velocity=64, time=25),
    Message('note_off', channel=8, note=63, velocity=64, time=84),
    Message('note_on', channel=8, note=61, velocity=62, time=30),
    Message('note_off', channel=8, note=61, velocity=64, time=128),
    Message('note_on', channel=8, note=59, velocity=49, time=47),
    Message('note_off', channel=8, note=59, velocity=64, time=226),
    Message('note_on', channel=8, note=24, velocity=113, time=2717),
    Message('note_on', channel=8, note=26, velocity=113, time=2),
    Message('note_on', channel=8, note=27, velocity=107, time=4),
    Message('note_on', channel=8, note=30, velocity=107, time=9),
    Message('note_on', channel=8, note=25, velocity=107, time=1),
    Message('note_on', channel=8, note=28, velocity=104, time=1),
    Message('note_on', channel=8, note=32, velocity=113, time=1),
    Message('note_on', channel=8, note=29, velocity=107, time=0),
    Message('note_on', channel=8, note=31, velocity=96, time=2),
    Message('note_on', channel=8, note=33, velocity=104, time=0),
    Message('note_off', channel=8, note=25, velocity=64, time=2),
    Message('note_on', channel=8, note=35, velocity=98, time=2),
    Message('note_on', channel=8, note=36, velocity=102, time=0),
    Message('note_off', channel=8, note=27, velocity=64, time=2),
    Message('control_change', channel=8, control=64, value=51, time=23),
    Message('note_off', channel=8, note=35, velocity=64, time=2),
    Message('note_off', channel=8, note=36, velocity=64, time=0),
    Message('note_off', channel=8, note=32, velocity=64, time=3),
    Message('control_change', channel=8, control=64, value=66, time=9),
    Message('note_off', channel=8, note=28, velocity=64, time=1),
    Message('note_off', channel=8, note=30, velocity=64, time=14),
    Message('note_on', channel=8, note=32, velocity=71, time=1),
    Message('control_change', channel=8, control=64, value=54, time=15),
    Message('note_off', channel=8, note=29, velocity=64, time=3),
    Message('note_on', channel=8, note=34, velocity=79, time=15),
    Message('note_off', channel=8, note=32, velocity=64, time=1),
    Message('control_change', channel=8, control=64, value=103, time=2),
    Message('control_change', channel=8, control=64, value=80, time=9),
    Message('note_off', channel=8, note=24, velocity=64, time=2),
    Message('note_on', channel=8, note=35, velocity=39, time=0),
    Message('note_off', channel=8, note=31, velocity=64, time=10),
    Message('control_change', channel=8, control=64, value=91, time=1),
    Message('control_change', channel=8, control=64, value=117, time=8),
    Message('note_off', channel=8, note=34, velocity=64, time=4),
    Message('note_off', channel=8, note=26, velocity=64, time=2),
    Message('note_on', channel=8, note=36, velocity=26, time=3),
    Message('note_on', channel=8, note=37, velocity=69, time=1),
    Message('control_change', channel=8, control=64, value=127, time=3),
    Message('note_off', channel=8, note=33, velocity=64, time=9),
    Message('note_off', channel=8, note=35, velocity=64, time=19),
    Message('note_on', channel=8, note=38, velocity=35, time=14),
    Message('note_off', channel=8, note=37, velocity=64, time=1),
    Message('control_change', channel=8, control=64, value=114, time=1),
    Message('note_on', channel=8, note=39, velocity=79, time=1),
    Message('control_change', channel=8, control=64, value=127, time=7),
    Message('note_off', channel=8, note=36, velocity=64, time=5),
    Message('note_on', channel=8, note=40, velocity=43, time=9),
    Message('note_off', channel=8, note=39, velocity=64, time=6),
    Message('note_on', channel=8, note=42, velocity=79, time=8),
    Message('note_off', channel=8, note=38, velocity=64, time=2),
    Message('note_on', channel=8, note=41, velocity=52, time=5),
    Message('note_off', channel=8, note=40, velocity=64, time=23),
    Message('note_on', channel=8, note=43, velocity=55, time=4),
    Message('note_off', channel=8, note=42, velocity=64, time=2),
    Message('note_on', channel=8, note=44, velocity=79, time=15),
    Message('note_off', channel=8, note=41, velocity=64, time=2),
    Message('note_on', channel=8, note=45, velocity=54, time=8),
    Message('note_off', channel=8, note=44, velocity=64, time=1),
    Message('note_off', channel=8, note=43, velocity=64, time=16),
    Message('note_on', channel=8, note=47, velocity=55, time=8),
    Message('note_on', channel=8, note=48, velocity=82, time=14),
    Message('note_off', channel=8, note=45, velocity=64, time=7),
    Message('note_on', channel=8, note=50, velocity=51, time=18),
    Message('note_off', channel=8, note=47, velocity=64, time=1),
    Message('note_on', channel=8, note=52, velocity=52, time=22),
    Message('note_off', channel=8, note=48, velocity=64, time=1),
    Message('note_on', channel=8, note=53, velocity=51, time=22),
    Message('note_off', channel=8, note=50, velocity=64, time=2),
    Message('note_on', channel=8, note=55, velocity=50, time=26),
    Message('note_off', channel=8, note=52, velocity=64, time=1),
    Message('note_off', channel=8, note=53, velocity=64, time=14),
    Message('note_on', channel=8, note=57, velocity=50, time=3),
    Message('note_off', channel=8, note=55, velocity=64, time=18),
    Message('note_on', channel=8, note=59, velocity=50, time=6),
    Message('note_off', channel=8, note=57, velocity=64, time=20),
    Message('note_on', channel=8, note=60, velocity=58, time=0),
    Message('note_off', channel=8, note=59, velocity=64, time=16),
    Message('note_on', channel=8, note=62, velocity=59, time=1),
    Message('note_off', channel=8, note=60, velocity=64, time=19),
    Message('note_on', channel=8, note=64, velocity=59, time=1),
    Message('note_on', channel=8, note=65, velocity=75, time=21),
    Message('note_off', channel=8, note=62, velocity=64, time=1),
    Message('note_off', channel=8, note=64, velocity=64, time=13),
    Message('note_on', channel=8, note=67, velocity=58, time=3),
    Message('note_off', channel=8, note=65, velocity=64, time=17),
    Message('note_on', channel=8, note=69, velocity=55, time=3),
    Message('note_off', channel=8, note=67, velocity=64, time=14),
    Message('note_on', channel=8, note=71, velocity=55, time=12),
    Message('note_off', channel=8, note=69, velocity=64, time=7),
    Message('note_on', channel=8, note=72, velocity=54, time=5),
    Message('note_off', channel=8, note=71, velocity=64, time=13),
    Message('note_on', channel=8, note=74, velocity=55, time=8),
    Message('note_off', channel=8, note=72, velocity=64, time=12),
    Message('note_on', channel=8, note=76, velocity=52, time=8),
    Message('note_off', channel=8, note=74, velocity=64, time=9),
    Message('note_on', channel=8, note=77, velocity=51, time=11),
    Message('note_off', channel=8, note=76, velocity=64, time=16),
    Message('note_on', channel=8, note=79, velocity=51, time=3),
    Message('note_off', channel=8, note=77, velocity=64, time=7),
    Message('note_off', channel=8, note=79, velocity=64, time=19),
    Message('control_change', channel=8, control=64, value=0, time=58),
    Message('note_on', channel=8, note=44, velocity=119, time=33),
    Message('note_on', channel=8, note=32, velocity=107, time=2),
    Message('note_on', channel=8, note=34, velocity=90, time=10),
    Message('note_off', channel=8, note=34, velocity=64, time=20),
    Message('note_off', channel=8, note=44, velocity=64, time=30),
    Message('control_change', channel=8, control=64, value=127, time=19),
    Message('note_off', channel=8, note=32, velocity=64, time=6),
    Message('control_change', channel=8, control=64, value=117, time=4),
    Message('control_change', channel=8, control=64, value=127, time=10),
    Message('control_change', channel=8, control=64, value=103, time=11),
    Message('control_change', channel=8, control=64, value=114, time=10),
    Message('control_change', channel=8, control=64, value=127, time=10),
    Message('control_change', channel=8, control=64, value=107, time=17),
    Message('control_change', channel=8, control=64, value=117, time=15),
    Message('control_change', channel=8, control=64, value=107, time=20),
    Message('control_change', channel=8, control=64, value=117, time=10),
    Message('control_change', channel=8, control=64, value=103, time=21),
    Message('control_change', channel=8, control=64, value=114, time=11),
    Message('control_change', channel=8, control=64, value=127, time=17),
    Message('note_on', channel=8, note=56, velocity=113, time=1),
    Message('note_on', channel=8, note=51, velocity=119, time=3),
    Message('note_on', channel=8, note=36, velocity=124, time=2),
    Message('note_on', channel=8, note=54, velocity=113, time=5),
    Message('control_change', channel=8, control=64, value=0, time=2),
    Message('note_off', channel=8, note=54, velocity=64, time=4),
    Message('note_on', channel=8, note=52, velocity=100, time=12),
    Message('note_on', channel=8, note=54, velocity=88, time=4),
    Message('note_off', channel=8, note=54, velocity=64, time=15),
    Message('note_off', channel=8, note=51, velocity=64, time=9),
    Message('note_off', channel=8, note=52, velocity=64, time=6),
    Message('note_off', channel=8, note=36, velocity=64, time=26),
    Message('note_off', channel=8, note=56, velocity=64, time=11),
    Message('note_on', channel=8, note=24, velocity=119, time=7),
    Message('note_on', channel=8, note=27, velocity=73, time=20),
    Message('note_off', channel=8, note=27, velocity=64, time=5),
    Message('note_on', channel=8, note=36, velocity=96, time=99),
    Message('note_on', channel=8, note=48, velocity=77, time=8),
    Message('note_on', channel=8, note=30, velocity=50, time=8),
    Message('note_off', channel=8, note=30, velocity=64, time=22),
    Message('note_off', channel=8, note=24, velocity=64, time=12),
    Message('note_off', channel=8, note=48, velocity=64, time=32),
    Message('note_on', channel=8, note=25, velocity=113, time=44),
    Message('note_off', channel=8, note=36, velocity=64, time=24),
    Message('note_on', channel=8, note=37, velocity=107, time=103),
    Message('note_on', channel=8, note=48, velocity=73, time=1),
    Message('note_off', channel=8, note=25, velocity=64, time=84),
    Message('note_on', channel=8, note=26, velocity=102, time=34),
    Message('note_off', channel=8, note=48, velocity=64, time=6),
    Message('note_off', channel=8, note=37, velocity=64, time=1),
    Message('note_on', channel=8, note=56, velocity=85, time=117),
    Message('note_on', channel=8, note=49, velocity=92, time=4),
    Message('note_on', channel=8, note=38, velocity=104, time=6),
    Message('note_on', channel=8, note=30, velocity=44, time=17),
    Message('note_off', channel=8, note=30, velocity=64, time=8),
    Message('note_on', channel=8, note=27, velocity=90, time=77),
    Message('note_on', channel=8, note=50, velocity=80, time=8),
    Message('note_off', channel=8, note=49, velocity=64, time=23),
    Message('note_off', channel=8, note=56, velocity=64, time=1),
    Message('note_off', channel=8, note=38, velocity=64, time=0),
    Message('note_off', channel=8, note=26, velocity=64, time=8),
    Message('note_on', channel=8, note=39, velocity=107, time=86),
    Message('note_on', channel=8, note=51, velocity=119, time=10),
    Message('note_on', channel=8, note=56, velocity=107, time=3),
    Message('note_off', channel=8, note=50, velocity=64, time=18),
    Message('note_off', channel=8, note=51, velocity=64, time=95),
    Message('note_off', channel=8, note=39, velocity=64, time=9),
    Message('note_on', channel=8, note=54, velocity=48, time=14),
    Message('note_on', channel=8, note=51, velocity=73, time=1),
    Message('note_off', channel=8, note=27, velocity=64, time=10),
    Message('note_off', channel=8, note=56, velocity=64, time=16),
    Message('note_off', channel=8, note=51, velocity=64, time=17),
    Message('note_off', channel=8, note=54, velocity=64, time=17),
    Message('note_on', channel=8, note=48, velocity=83, time=42),
    Message('note_on', channel=8, note=31, velocity=95, time=85),
    Message('note_off', channel=8, note=48, velocity=64, time=4),
    Message('note_off', channel=8, note=31, velocity=64, time=21),
    Message('note_on', channel=8, note=49, velocity=90, time=124),
    Message('note_off', channel=8, note=49, velocity=64, time=22),
    Message('note_on', channel=8, note=29, velocity=87, time=106),
    Message('note_off', channel=8, note=29, velocity=64, time=29),
    Message('note_on', channel=8, note=39, velocity=99, time=1969),
    Message('note_off', channel=8, note=39, velocity=64, time=92),
    Message('note_on', channel=8, note=44, velocity=113, time=37),
    Message('note_on', channel=8, note=32, velocity=107, time=9),
    Message('note_off', channel=8, note=44, velocity=64, time=183),
    Message('note_on', channel=8, note=48, velocity=82, time=57),
    Message('note_on', channel=8, note=36, velocity=90, time=17),
    Message('note_off', channel=8, note=32, velocity=64, time=5),
    Message('note_off', channel=8, note=48, velocity=64, time=143),
    Message('note_on', channel=8, note=51, velocity=107, time=3),
    Message('note_on', channel=8, note=39, velocity=113, time=2),
    Message('note_off', channel=8, note=36, velocity=64, time=26),
    Message('note_off', channel=8, note=51, velocity=64, time=88),
    Message('note_off', channel=8, note=39, velocity=64, time=4),
    Message('note_on', channel=8, note=53, velocity=107, time=105),
    Message('note_on', channel=8, note=41, velocity=110, time=1),
    Message('note_off', channel=8, note=53, velocity=64, time=99),
    Message('note_off', channel=8, note=41, velocity=64, time=15),
    Message('note_on', channel=8, note=51, velocity=88, time=117),
    Message('note_on', channel=8, note=39, velocity=24, time=7),
    Message('note_off', channel=8, note=51, velocity=64, time=15),
    Message('note_off', channel=8, note=39, velocity=64, time=13),
    Message('note_on', channel=8, note=53, velocity=102, time=57),
    Message('note_on', channel=8, note=41, velocity=82, time=14),
    Message('note_on', channel=8, note=42, velocity=107, time=6),
    Message('note_on', channel=8, note=54, velocity=42, time=20),
    Message('note_off', channel=8, note=41, velocity=64, time=4),
    Message('note_off', channel=8, note=53, velocity=64, time=18),
    Message('note_off', channel=8, note=54, velocity=64, time=82),
    Message('note_off', channel=8, note=42, velocity=64, time=14),
    Message('note_on', channel=8, note=42, velocity=88, time=74),
    Message('note_on', channel=8, note=53, velocity=110, time=9),
    Message('note_on', channel=8, note=41, velocity=102, time=1),
    Message('note_off', channel=8, note=42, velocity=64, time=29),
    Message('note_off', channel=8, note=53, velocity=64, time=98),
    Message('note_off', channel=8, note=41, velocity=64, time=14),
    Message('note_on', channel=8, note=51, velocity=119, time=119),
    Message('note_on', channel=8, note=39, velocity=119, time=1),
    Message('note_off', channel=8, note=39, velocity=64, time=214),
    Message('note_off', channel=8, note=51, velocity=64, time=2),
    Message('note_on', channel=8, note=49, velocity=73, time=13),
    Message('note_on', channel=8, note=37, velocity=60, time=13),
    Message('note_off', channel=8, note=49, velocity=64, time=76),
    Message('note_off', channel=8, note=37, velocity=64, time=20),
    Message('note_on', channel=8, note=35, velocity=82, time=24),
    Message('note_on', channel=8, note=47, velocity=92, time=6),
    Message('note_on', channel=8, note=36, velocity=98, time=20),
    Message('note_on', channel=8, note=48, velocity=90, time=21),
    Message('note_off', channel=8, note=35, velocity=64, time=23),
    Message('note_off', channel=8, note=47, velocity=64, time=11),
    Message('note_off', channel=8, note=48, velocity=64, time=55),
    Message('note_off', channel=8, note=36, velocity=64, time=17),
    Message('note_on', channel=8, note=39, velocity=113, time=95),
    Message('note_on', channel=8, note=51, velocity=113, time=2),
    Message('note_off', channel=8, note=51, velocity=64, time=92),
    Message('note_off', channel=8, note=39, velocity=64, time=3),
    Message('note_on', channel=8, note=41, velocity=113, time=135),
    Message('note_on', channel=8, note=53, velocity=113, time=2),
    Message('note_on', channel=8, note=56, velocity=73, time=20),
    Message('note_off', channel=8, note=56, velocity=64, time=14),
    Message('note_off', channel=8, note=53, velocity=64, time=77),
    Message('note_off', channel=8, note=41, velocity=64, time=9),
    Message('note_on', channel=8, note=39, velocity=46, time=121),
    Message('note_on', channel=8, note=51, velocity=52, time=2),
    Message('note_off', channel=8, note=51, velocity=64, time=40),
    Message('note_off', channel=8, note=39, velocity=64, time=3),
    Message('note_on', channel=8, note=44, velocity=119, time=74),
    Message('note_on', channel=8, note=56, velocity=113, time=3),
    Message('control_change', channel=8, control=64, value=40, time=40),
    Message('control_change', channel=8, control=64, value=70, time=10),
    Message('control_change', channel=8, control=64, value=107, time=10),
    Message('control_change', channel=8, control=64, value=117, time=11),
    Message('note_off', channel=8, note=44, velocity=64, time=18),
    Message('control_change', channel=8, control=64, value=103, time=2),
    Message('control_change', channel=8, control=64, value=85, time=11),
    Message('control_change', channel=8, control=64, value=103, time=12),
    Message('note_off', channel=8, note=56, velocity=64, time=5),
    Message('control_change', channel=8, control=64, value=122, time=14),
    Message('control_change', channel=8, control=64, value=107, time=20),
    Message('control_change', channel=8, control=64, value=127, time=12),
    Message('control_change', channel=8, control=64, value=0, time=770),
    Message('control_change', channel=8, control=91, value=28, time=901),
    Message('control_change', channel=8, control=17, value=33, time=133),
    Message('note_on', channel=8, note=61, velocity=92, time=321),
    Message('note_on', channel=8, note=68, velocity=96, time=2),
    Message('note_on', channel=8, note=72, velocity=90, time=2),
    Message('note_on', channel=8, note=96, velocity=127, time=8),
    Message('note_off', channel=8, note=96, velocity=64, time=86),
    Message('note_on', channel=8, note=92, velocity=127, time=145),
    Message('note_on', channel=8, note=94, velocity=90, time=6),
    Message('note_off', channel=8, note=94, velocity=64, time=15),
    Message('note_off', channel=8, note=92, velocity=64, time=60),
    Message('note_off', channel=8, note=72, velocity=64, time=135),
    Message('note_on', channel=8, note=88, velocity=98, time=54),
    Message('note_off', channel=8, note=88, velocity=64, time=21),
    Message('note_off', channel=8, note=61, velocity=64, time=60),
    Message('note_on', channel=8, note=94, velocity=119, time=18),
    Message('note_off', channel=8, note=68, velocity=64, time=13),
    Message('note_off', channel=8, note=94, velocity=64, time=92),
    Message('note_on', channel=8, note=63, velocity=66, time=63),
    Message('note_on', channel=8, note=60, velocity=83, time=3),
    Message('note_on', channel=8, note=91, velocity=119, time=3),
    Message('note_on', channel=8, note=70, velocity=85, time=2),
    Message('note_off', channel=8, note=70, velocity=64, time=48),
    Message('note_off', channel=8, note=60, velocity=64, time=8),
    Message('note_off', channel=8, note=63, velocity=64, time=20),
    Message('note_off', channel=8, note=91, velocity=64, time=1),
    Message('note_on', channel=8, note=92, velocity=119, time=141),
    Message('note_off', channel=8, note=92, velocity=64, time=77),
    Message('note_on', channel=8, note=89, velocity=119, time=149),
    Message('note_on', channel=8, note=58, velocity=92, time=8),
    Message('note_on', channel=8, note=61, velocity=79, time=3),
    Message('note_on', channel=8, note=68, velocity=96, time=3),
    Message('note_off', channel=8, note=61, velocity=64, time=42),
    Message('note_off', channel=8, note=68, velocity=64, time=3),
    Message('note_off', channel=8, note=58, velocity=64, time=1),
    Message('note_off', channel=8, note=89, velocity=64, time=15),
    Message('note_on', channel=8, note=85, velocity=102, time=23),
    Message('note_off', channel=8, note=85, velocity=64, time=125),
    Message('note_on', channel=8, note=82, velocity=90, time=47),
    Message('note_off', channel=8, note=82, velocity=64, time=8),
    Message('note_on', channel=8, note=87, velocity=119, time=86),
    Message('note_on', channel=8, note=90, velocity=96, time=11),
    Message('note_off', channel=8, note=90, velocity=64, time=7),
    Message('note_off', channel=8, note=87, velocity=64, time=82),
    Message('note_on', channel=8, note=91, velocity=119, time=48),
    Message('note_off', channel=8, note=91, velocity=64, time=75),
    Message('note_on', channel=8, note=63, velocity=73, time=131),
    Message('note_on', channel=8, note=70, velocity=85, time=1),
    Message('note_on', channel=8, note=60, velocity=71, time=4),
    Message('note_off', channel=8, note=70, velocity=64, time=24),
    Message('note_off', channel=8, note=60, velocity=64, time=0),
    Message('note_off', channel=8, note=63, velocity=64, time=7),
    Message('note_on', channel=8, note=89, velocity=127, time=62),
    Message('note_off', channel=8, note=89, velocity=64, time=86),
    Message('note_on', channel=8, note=85, velocity=113, time=50),
    Message('note_off', channel=8, note=85, velocity=64, time=83),
    Message('note_on', channel=8, note=84, velocity=80, time=16),
    Message('note_off', channel=8, note=84, velocity=64, time=87),
    Message('note_on', channel=8, note=63, velocity=85, time=46),
    Message('note_on', channel=8, note=82, velocity=88, time=9),
    Message('note_on', channel=8, note=68, velocity=73, time=1),
    Message('note_off', channel=8, note=82, velocity=64, time=7),
    Message('note_off', channel=8, note=68, velocity=64, time=21),
    Message('note_off', channel=8, note=63, velocity=64, time=4),
    Message('note_on', channel=8, note=84, velocity=95, time=80),
    Message('note_off', channel=8, note=84, velocity=64, time=44),
    Message('note_on', channel=8, note=85, velocity=113, time=26),
    Message('note_off', channel=8, note=85, velocity=64, time=35),
    Message('note_on', channel=8, note=86, velocity=104, time=34),
    Message('note_off', channel=8, note=86, velocity=64, time=41),
    Message('note_on', channel=8, note=87, velocity=107, time=54),
    Message('note_off', channel=8, note=87, velocity=64, time=65),
    Message('note_on', channel=8, note=85, velocity=119, time=62),
    Message('note_off', channel=8, note=85, velocity=64, time=79),
    Message('note_on', channel=8, note=84, velocity=90, time=33),
    Message('note_off', channel=8, note=84, velocity=64, time=38),
    Message('note_on', channel=8, note=85, velocity=96, time=2),
    Message('note_off', channel=8, note=85, velocity=64, time=30),
    Message('note_on', channel=8, note=84, velocity=87, time=11),
    Message('note_on', channel=8, note=82, velocity=96, time=44),
    Message('note_off', channel=8, note=84, velocity=64, time=15),
    Message('note_off', channel=8, note=82, velocity=64, time=34),
    Message('note_on', channel=8, note=80, velocity=92, time=49),
    Message('note_off', channel=8, note=80, velocity=64, time=114),
    Message('note_on', channel=8, note=79, velocity=113, time=108),
    Message('note_off', channel=8, note=79, velocity=64, time=111),
    Message('note_on', channel=8, note=82, velocity=113, time=41),
    Message('note_off', channel=8, note=82, velocity=64, time=93),
    Message('note_on', channel=8, note=80, velocity=59, time=0),
    Message('note_off', channel=8, note=80, velocity=64, time=133),
    Message('note_on', channel=8, note=77, velocity=107, time=23),
    Message('note_on', channel=8, note=61, velocity=92, time=253),
    Message('note_on', channel=8, note=65, velocity=89, time=1),
    Message('note_off', channel=8, note=61, velocity=64, time=18),
    Message('note_off', channel=8, note=65, velocity=64, time=19),
    Message('note_on', channel=8, note=55, velocity=74, time=300),
    Message('note_on', channel=8, note=60, velocity=57, time=3),
    Message('note_off', channel=8, note=60, velocity=64, time=25),
    Message('note_off', channel=8, note=55, velocity=64, time=10),
    Message('note_on', channel=8, note=61, velocity=107, time=325),
    Message('note_on', channel=8, note=56, velocity=102, time=1),
    Message('note_on', channel=8, note=58, velocity=92, time=7),
    Message('note_off', channel=8, note=77, velocity=64, time=7),
    Message('note_off', channel=8, note=58, velocity=64, time=6),
    Message('note_off', channel=8, note=56, velocity=64, time=8),
    Message('note_off', channel=8, note=61, velocity=64, time=1),
    Message('note_on', channel=8, note=61, velocity=102, time=292),
    Message('note_on', channel=8, note=56, velocity=96, time=0),
    Message('note_on', channel=8, note=67, velocity=100, time=0),
    Message('note_off', channel=8, note=61, velocity=64, time=29),
    Message('note_off', channel=8, note=56, velocity=64, time=4),
    Message('note_off', channel=8, note=67, velocity=64, time=1),
    Message('note_on', channel=8, note=72, velocity=73, time=227),
    Message('note_off', channel=8, note=72, velocity=64, time=12),
    Message('note_on', channel=8, note=56, velocity=96, time=132),
    Message('note_on', channel=8, note=61, velocity=107, time=2),
    Message('note_on', channel=8, note=67, velocity=102, time=2),
    Message('note_off', channel=8, note=61, velocity=64, time=26),
    Message('note_off', channel=8, note=67, velocity=64, time=3),
    Message('note_off', channel=8, note=56, velocity=64, time=4),
    Message('note_on', channel=8, note=72, velocity=89, time=62),
    Message('note_off', channel=8, note=72, velocity=64, time=25),
    Message('note_on', channel=8, note=82, velocity=107, time=24),
    Message('note_off', channel=8, note=82, velocity=64, time=53),
    Message('note_on', channel=8, note=84, velocity=119, time=30),
    Message('note_off', channel=8, note=84, velocity=64, time=64),
    Message('note_on', channel=8, note=79, velocity=104, time=14),
    Message('note_on', channel=8, note=56, velocity=66, time=4),
    Message('note_on', channel=8, note=61, velocity=92, time=9),
    Message('note_off', channel=8, note=56, velocity=64, time=36),
    Message('note_off', channel=8, note=61, velocity=64, time=0),
    Message('note_off', channel=8, note=79, velocity=64, time=5),
    Message('note_on', channel=8, note=82, velocity=113, time=25),
    Message('note_off', channel=8, note=82, velocity=64, time=68),
    Message('note_on', channel=8, note=77, velocity=100, time=12),
    Message('note_off', channel=8, note=77, velocity=64, time=58),
    Message('note_on', channel=8, note=79, velocity=110, time=28),
    Message('note_off', channel=8, note=79, velocity=64, time=67),
    Message('note_on', channel=8, note=75, velocity=92, time=7),
    Message('note_off', channel=8, note=75, velocity=64, time=62),
    Message('note_on', channel=8, note=77, velocity=102, time=18),
    Message('note_on', channel=8, note=56, velocity=66, time=5),
    Message('note_on', channel=8, note=61, velocity=90, time=0),
    Message('note_on', channel=8, note=67, velocity=78, time=5),
    Message('note_off', channel=8, note=61, velocity=64, time=29),
    Message('note_off', channel=8, note=56, velocity=64, time=9),
    Message('note_off', channel=8, note=67, velocity=64, time=2),
    Message('note_off', channel=8, note=77, velocity=64, time=16),
    Message('note_on', channel=8, note=72, velocity=89, time=22),
    Message('note_off', channel=8, note=72, velocity=64, time=71),
    Message('note_on', channel=8, note=75, velocity=113, time=12),
    Message('note_off', channel=8, note=75, velocity=64, time=58),
    Message('note_on', channel=8, note=70, velocity=102, time=17),
    Message('note_off', channel=8, note=70, velocity=64, time=56),
    Message('note_on', channel=8, note=72, velocity=87, time=21),
    Message('note_off', channel=8, note=72, velocity=64, time=61),
    Message('note_on', channel=8, note=65, velocity=59, time=50),
    Message('note_off', channel=8, note=65, velocity=64, time=25),
    Message('note_on', channel=8, note=70, velocity=113, time=22),
    Message('note_on', channel=8, note=61, velocity=69, time=23),
    Message('note_off', channel=8, note=61, velocity=64, time=26),
    Message('note_off', channel=8, note=70, velocity=64, time=23),
    Message('note_on', channel=8, note=68, velocity=85, time=10),
    Message('note_off', channel=8, note=68, velocity=64, time=46),
    Message('note_on', channel=8, note=65, velocity=92, time=34),
    Message('note_off', channel=8, note=65, velocity=64, time=60),
    Message('note_on', channel=8, note=67, velocity=96, time=31),
    Message('note_off', channel=8, note=67, velocity=64, time=48),
    Message('note_on', channel=8, note=65, velocity=97, time=22),
    Message('note_off', channel=8, note=65, velocity=64, time=62),
    Message('note_on', channel=8, note=63, velocity=88, time=22),
    Message('note_off', channel=8, note=63, velocity=64, time=84),
    Message('note_on', channel=8, note=62, velocity=94, time=4),
    Message('note_off', channel=8, note=62, velocity=64, time=71),
    Message('note_on', channel=8, note=48, velocity=93, time=3),
    Message('note_on', channel=8, note=66, velocity=119, time=0),
    Message('note_on', channel=8, note=58, velocity=105, time=0),
    Message('note_on', channel=8, note=52, velocity=93, time=0),
    Message('note_on', channel=8, note=60, velocity=95, time=14),
    Message('note_on', channel=8, note=63, velocity=96, time=7),
    Message('note_off', channel=8, note=63, velocity=64, time=13),
    Message('note_off', channel=8, note=48, velocity=64, time=170),
    Message('note_off', channel=8, note=66, velocity=64, time=15),
    Message('note_off', channel=8, note=60, velocity=64, time=1),
    Message('note_off', channel=8, note=52, velocity=64, time=6),
    Message('note_off', channel=8, note=58, velocity=64, time=2),
    Message('control_change', channel=8, control=64, value=0, time=33),
    Message('control_change', channel=8, control=91, value=11, time=1195),
    Message('note_on', channel=8, note=66, velocity=127, time=230),
    Message('note_off', channel=8, note=66, velocity=64, time=98),
    Message('note_on', channel=8, note=69, velocity=102, time=68),
    Message('note_off', channel=8, note=69, velocity=64, time=89),
    Message('note_on', channel=8, note=78, velocity=88, time=43),
    Message('note_on', channel=8, note=72, velocity=77, time=14),
    Message('note_off', channel=8, note=78, velocity=64, time=88),
    Message('note_off', channel=8, note=72, velocity=64, time=29),
    Message('note_on', channel=8, note=78, velocity=79, time=91),
    Message('note_on', channel=8, note=72, velocity=74, time=2),
    Message('note_off', channel=8, note=78, velocity=64, time=92),
    Message('note_off', channel=8, note=72, velocity=64, time=8),
    Message('note_on', channel=8, note=78, velocity=56, time=52),
    Message('note_on', channel=8, note=72, velocity=64, time=0),
    Message('note_off', channel=8, note=78, velocity=64, time=58),
    Message('note_off', channel=8, note=72, velocity=64, time=28),
    Message('note_on', channel=8, note=69, velocity=52, time=61),
    Message('note_off', channel=8, note=69, velocity=64, time=152),
    Message('note_on', channel=8, note=66, velocity=85, time=41),
    Message('note_off', channel=8, note=66, velocity=64, time=172),
    Message('note_on', channel=8, note=69, velocity=52, time=104),
    Message('note_off', channel=8, note=69, velocity=64, time=138),
    Message('note_on', channel=8, note=66, velocity=13, time=57),
    Message('note_off', channel=8, note=66, velocity=64, time=173),
    Message('note_on', channel=8, note=49, velocity=49, time=21),
    Message('note_off', channel=8, note=49, velocity=64, time=32),
    Message('note_on', channel=8, note=67, velocity=119, time=704),
    Message('note_off', channel=8, note=67, velocity=64, time=68),
    Message('note_on', channel=8, note=66, velocity=90, time=14),
    Message('note_off', channel=8, note=66, velocity=64, time=55),
    Message('note_on', channel=8, note=65, velocity=90, time=19),
    Message('note_off', channel=8, note=65, velocity=64, time=62),
    Message('note_on', channel=8, note=64, velocity=85, time=43),
    Message('note_off', channel=8, note=64, velocity=64, time=89),
    Message('note_on', channel=8, note=62, velocity=100, time=33),
    Message('note_off', channel=8, note=62, velocity=64, time=74),
    Message('note_on', channel=8, note=60, velocity=87, time=27),
    Message('note_on', channel=8, note=61, velocity=64, time=54),
    Message('note_off', channel=8, note=60, velocity=64, time=17),
    Message('note_off', channel=8, note=61, velocity=64, time=55),
    Message('note_on', channel=8, note=64, velocity=107, time=23),
    Message('note_off', channel=8, note=64, velocity=64, time=93),
    Message('note_on', channel=8, note=59, velocity=90, time=2),
    Message('note_off', channel=8, note=59, velocity=64, time=38),
    Message('note_on', channel=8, note=60, velocity=77, time=5),
    Message('note_on', channel=8, note=59, velocity=54, time=49),
    Message('note_off', channel=8, note=60, velocity=64, time=6),
    Message('note_off', channel=8, note=59, velocity=64, time=83),
    Message('note_on', channel=8, note=57, velocity=49, time=20),
    Message('note_off', channel=8, note=57, velocity=64, time=129),
    Message('control_change', channel=8, control=91, value=38, time=3953),
    Message('note_on', channel=8, note=66, velocity=102, time=173),
    Message('note_on', channel=8, note=61, velocity=92, time=2),
    Message('note_on', channel=8, note=81, velocity=114, time=1),
    Message('note_on', channel=8, note=55, velocity=102, time=0),
    Message('note_on', channel=8, note=76, velocity=107, time=2),
    Message('note_on', channel=8, note=71, velocity=107, time=0),
    Message('note_off', channel=8, note=76, velocity=64, time=278),
    Message('note_off', channel=8, note=55, velocity=64, time=24),
    Message('note_off', channel=8, note=61, velocity=64, time=16),
    Message('note_off', channel=8, note=66, velocity=64, time=4),
    Message('note_off', channel=8, note=71, velocity=64, time=27),
    Message('note_on', channel=8, note=84, velocity=84, time=1),
    Message('note_on', channel=8, note=76, velocity=60, time=3),
    Message('note_on', channel=8, note=54, velocity=49, time=7),
    Message('note_on', channel=8, note=60, velocity=63, time=0),
    Message('control_change', channel=8, control=91, value=18, time=4),
    Message('note_on', channel=8, note=64, velocity=55, time=6),
    Message('note_off', channel=8, note=76, velocity=64, time=464),
    Message('note_off', channel=8, note=84, velocity=64, time=6),
    Message('note_off', channel=8, note=81, velocity=64, time=23),
    Message('note_on', channel=8, note=81, velocity=124, time=189),
    Message('note_off', channel=8, note=81, velocity=64, time=96),
    Message('note_on', channel=8, note=79, velocity=98, time=42),
    Message('note_off', channel=8, note=79, velocity=64, time=76),
    Message('note_off', channel=8, note=60, velocity=64, time=40),
    Message('note_on', channel=8, note=75, velocity=71, time=68),
    Message('note_off', channel=8, note=54, velocity=64, time=18),
    Message('note_off', channel=8, note=75, velocity=64, time=14),
    Message('note_on', channel=8, note=74, velocity=85, time=5),
    Message('note_off', channel=8, note=74, velocity=64, time=38),
    Message('note_on', channel=8, note=72, velocity=87, time=16),
    Message('note_off', channel=8, note=72, velocity=64, time=48),
    Message('note_on', channel=8, note=69, velocity=55, time=47),
    Message('note_off', channel=8, note=69, velocity=64, time=112),
    Message('note_on', channel=8, note=67, velocity=95, time=9),
    Message('note_off', channel=8, note=67, velocity=64, time=67),
    Message('note_on', channel=8, note=61, velocity=30, time=39),
    Message('note_on', channel=8, note=55, velocity=52, time=11),
    Message('note_off', channel=8, note=61, velocity=64, time=118),
    Message('note_off', channel=8, note=64, velocity=64, time=60),
    Message('note_on', channel=8, note=62, velocity=90, time=29),
    Message('note_on', channel=8, note=57, velocity=58, time=0),
    Message('note_off', channel=8, note=55, velocity=64, time=5),
    Message('note_on', channel=8, note=55, velocity=52, time=24),
    Message('note_off', channel=8, note=57, velocity=64, time=2),
    Message('note_off', channel=8, note=55, velocity=64, time=30),
    Message('note_off', channel=8, note=62, velocity=64, time=60),
    Message('note_on', channel=8, note=62, velocity=108, time=118),
    Message('note_off', channel=8, note=62, velocity=64, time=96),
    Message('note_on', channel=8, note=64, velocity=113, time=33),
    Message('note_off', channel=8, note=64, velocity=64, time=91),
    Message('note_on', channel=8, note=60, velocity=74, time=36),
    Message('note_off', channel=8, note=60, velocity=64, time=132),
    Message('note_on', channel=8, note=50, velocity=73, time=6),
    Message('note_off', channel=8, note=50, velocity=64, time=25),
    Message('note_on', channel=8, note=63, velocity=113, time=95),
    Message('note_off', channel=8, note=63, velocity=64, time=31),
    Message('note_on', channel=8, note=62, velocity=113, time=0),
    Message('note_on', channel=8, note=60, velocity=55, time=98),
    Message('note_off', channel=8, note=62, velocity=64, time=4),
    Message('note_off', channel=8, note=60, velocity=64, time=82),
    Message('note_on', channel=8, note=62, velocity=85, time=5),
    Message('note_off', channel=8, note=62, velocity=64, time=133),
    Message('note_on', channel=8, note=64, velocity=110, time=87),
    Message('note_off', channel=8, note=64, velocity=64, time=99),
    Message('note_on', channel=8, note=60, velocity=83, time=15),
    Message('note_on', channel=8, note=64, velocity=59, time=4),
    Message('note_on', channel=8, note=61, velocity=62, time=42),
    Message('note_off', channel=8, note=60, velocity=64, time=24),
    Message('note_off', channel=8, note=64, velocity=64, time=8),
    Message('note_off', channel=8, note=61, velocity=64, time=44),
    Message('note_on', channel=8, note=57, velocity=41, time=9),
    Message('note_on', channel=8, note=49, velocity=52, time=277),
    Message('note_off', channel=8, note=49, velocity=64, time=7),
    Message('note_off', channel=8, note=57, velocity=64, time=286),
    Message('control_change', channel=8, control=91, value=56, time=1576),
    Message('control_change', channel=8, control=64, value=38, time=322),
    Message('control_change', channel=8, control=11, value=127, time=72),
    Message('control_change', channel=8, control=64, value=74, time=2),
    Message('control_change', channel=8, control=64, value=127, time=57),
    Message('note_on', channel=8, note=61, velocity=45, time=18),
    Message('note_on', channel=8, note=64, velocity=25, time=151),
    Message('note_on', channel=8, note=69, velocity=34, time=131),
    Message('note_off', channel=8, note=61, velocity=64, time=54),
    Message('note_on', channel=8, note=73, velocity=48, time=47),
    Message('note_off', channel=8, note=69, velocity=64, time=17),
    Message('note_off', channel=8, note=64, velocity=64, time=5),
    Message('note_off', channel=8, note=73, velocity=64, time=58),
    Message('note_on', channel=8, note=76, velocity=43, time=4),
    Message('note_on', channel=8, note=78, velocity=58, time=83),
    Message('note_off', channel=8, note=76, velocity=64, time=8),
    Message('note_on', channel=8, note=80, velocity=80, time=78),
    Message('note_off', channel=8, note=78, velocity=64, time=41),
    Message('control_change', channel=8, control=64, value=74, time=11),
    Message('control_change', channel=8, control=64, value=38, time=15),
    Message('control_change', channel=8, control=64, value=0, time=16),
    Message('note_on', channel=8, note=75, velocity=61, time=10),
    Message('control_change', channel=8, control=64, value=38, time=79),
    Message('note_on', channel=8, note=71, velocity=55, time=14),
    Message('control_change', channel=8, control=64, value=74, time=14),
    Message('control_change', channel=8, control=64, value=127, time=33),
    Message('note_on', channel=8, note=68, velocity=47, time=25),
    Message('note_on', channel=8, note=63, velocity=54, time=77),
    Message('note_off', channel=8, note=68, velocity=64, time=17),
    Message('note_off', channel=8, note=80, velocity=64, time=28),
    Message('note_off', channel=8, note=71, velocity=64, time=19),
    Message('note_off', channel=8, note=63, velocity=64, time=6),
    Message('note_on', channel=8, note=59, velocity=52, time=21),
    Message('note_off', channel=8, note=75, velocity=64, time=12),
    Message('note_off', channel=8, note=59, velocity=64, time=66),
    Message('control_change', channel=8, control=64, value=74, time=8),
    Message('note_on', channel=8, note=57, velocity=63, time=6),
    Message('control_change', channel=8, control=64, value=38, time=7),
    Message('control_change', channel=8, control=64, value=0, time=13),
    Message('note_on', channel=8, note=61, velocity=62, time=55),
    Message('control_change', channel=8, control=64, value=38, time=29),
    Message('control_change', channel=8, control=64, value=74, time=23),
    Message('note_on', channel=8, note=66, velocity=68, time=29),
    Message('control_change', channel=8, control=64, value=127, time=1),
    Message('note_off', channel=8, note=57, velocity=64, time=63),
    Message('note_on', channel=8, note=69, velocity=57, time=15),
    Message('note_off', channel=8, note=66, velocity=64, time=19),
    Message('note_off', channel=8, note=69, velocity=64, time=22),
    Message('note_off', channel=8, note=61, velocity=64, time=27),
    Message('note_on', channel=8, note=73, velocity=58, time=11),
    Message('note_on', channel=8, note=75, velocity=65, time=77),
    Message('note_off', channel=8, note=73, velocity=64, time=56),
    Message('note_on', channel=8, note=76, velocity=85, time=21),
    Message('note_off', channel=8, note=75, velocity=64, time=10),
    Message('control_change', channel=8, control=64, value=74, time=42),
    Message('control_change', channel=8, control=64, value=38, time=16),
    Message('control_change', channel=8, control=64, value=0, time=14),
    Message('note_on', channel=8, note=71, velocity=76, time=19),
    Message('control_change', channel=8, control=64, value=38, time=58),
    Message('control_change', channel=8, control=64, value=74, time=34),
    Message('note_on', channel=8, note=68, velocity=52, time=0),
    Message('control_change', channel=8, control=64, value=127, time=10),
    Message('note_on', channel=8, note=64, velocity=41, time=76),
    Message('note_off', channel=8, note=64, velocity=64, time=57),
    Message('note_on', channel=8, note=59, velocity=38, time=60),
    Message('note_off', channel=8, note=76, velocity=64, time=13),
    Message('note_off', channel=8, note=71, velocity=64, time=2),
    Message('note_off', channel=8, note=68, velocity=64, time=25),
    Message('note_off', channel=8, note=59, velocity=64, time=5),
    Message('note_on', channel=8, note=56, velocity=45, time=49),
    Message('note_off', channel=8, note=56, velocity=64, time=87),
    Message('control_change', channel=8, control=64, value=74, time=28),
    Message('control_change', channel=8, control=64, value=38, time=16),
    Message('note_on', channel=8, note=54, velocity=62, time=3),
    Message('control_change', channel=8, control=64, value=0, time=14),
    Message('control_change', channel=8, control=64, value=38, time=109),
    Message('control_change', channel=8, control=64, value=74, time=24),
    Message('note_on', channel=8, note=57, velocity=45, time=25),
    Message('control_change', channel=8, control=64, value=127, time=10),
    Message('note_on', channel=8, note=61, velocity=46, time=92),
    Message('note_off', channel=8, note=57, velocity=64, time=107),
    Message('note_on', channel=8, note=73, velocity=62, time=1),
    Message('note_off', channel=8, note=54, velocity=64, time=1),
    Message('note_on', channel=8, note=66, velocity=62, time=61),
    Message('note_off', channel=8, note=61, velocity=64, time=45),
    Message('note_on', channel=8, note=69, velocity=60, time=63),
    Message('control_change', channel=8, control=64, value=74, time=62),
    Message('control_change', channel=8, control=64, value=38, time=13),
    Message('note_on', channel=8, note=78, velocity=80, time=4),
    Message('note_on', channel=8, note=52, velocity=62, time=5),
    Message('note_off', channel=8, note=66, velocity=64, time=12),
    Message('control_change', channel=8, control=64, value=0, time=1),
    Message('control_change', channel=8, control=64, value=38, time=42),
    Message('note_off', channel=8, note=69, velocity=64, time=25),
    Message('control_change', channel=8, control=64, value=74, time=4),
    Message('note_on', channel=8, note=57, velocity=63, time=22),
    Message('control_change', channel=8, control=64, value=127, time=1),
    Message('note_off', channel=8, note=78, velocity=64, time=28),
    Message('note_off', channel=8, note=73, velocity=64, time=2),
    Message('note_on', channel=8, note=61, velocity=62, time=31),
    Message('note_off', channel=8, note=52, velocity=64, time=25),
    Message('note_off', channel=8, note=57, velocity=64, time=35),
    Message('note_on', channel=8, note=73, velocity=59, time=37),
    Message('note_off', channel=8, note=61, velocity=64, time=52),
    Message('note_on', channel=8, note=66, velocity=62, time=35),
    Message('note_on', channel=8, note=69, velocity=60, time=94),
    Message('control_change', channel=8, control=64, value=74, time=49),
    Message('note_on', channel=8, note=51, velocity=68, time=14),
    Message('control_change', channel=8, control=64, value=38, time=1),
    Message('control_change', channel=8, control=64, value=0, time=16),
    Message('note_off', channel=8, note=73, velocity=64, time=13),
    Message('note_off', channel=8, note=66, velocity=64, time=19),
    Message('control_change', channel=8, control=64, value=38, time=30),
    Message('note_off', channel=8, note=69, velocity=64, time=7),
    Message('note_on', channel=8, note=57, velocity=74, time=1),
    Message('control_change', channel=8, control=64, value=74, time=20),
    Message('control_change', channel=8, control=64, value=127, time=15),
    Message('note_on', channel=8, note=61, velocity=72, time=46),
    Message('note_off', channel=8, note=51, velocity=64, time=37),
    Message('note_off', channel=8, note=57, velocity=64, time=9),
    Message('note_off', channel=8, note=61, velocity=64, time=30),
    Message('note_on', channel=8, note=73, velocity=73, time=7),
    Message('note_on', channel=8, note=66, velocity=73, time=81),
    Message('note_on', channel=8, note=69, velocity=79, time=87),
    Message('control_change', channel=8, control=64, value=74, time=19),
    Message('control_change', channel=8, control=64, value=38, time=18),
    Message('note_off', channel=8, note=66, velocity=64, time=11),
    Message('control_change', channel=8, control=64, value=0, time=7),
    Message('note_on', channel=8, note=49, velocity=83, time=28),
    Message('note_on', channel=8, note=78, velocity=90, time=13),
    Message('control_change', channel=8, control=64, value=38, time=7),
    Message('note_off', channel=8, note=69, velocity=64, time=16),
    Message('control_change', channel=8, control=64, value=74, time=15),
    Message('control_change', channel=8, control=64, value=127, time=15),
    Message('note_off', channel=8, note=73, velocity=64, time=3),
    Message('note_on', channel=8, note=57, velocity=78, time=32),
    Message('note_off', channel=8, note=78, velocity=64, time=14),
    Message('note_off', channel=8, note=49, velocity=64, time=52),
    Message('note_on', channel=8, note=64, velocity=70, time=31),
    Message('note_off', channel=8, note=57, velocity=64, time=53),
    Message('note_off', channel=8, note=64, velocity=64, time=3),
    Message('note_on', channel=8, note=81, velocity=92, time=35),
    Message('note_on', channel=8, note=69, velocity=57, time=104),
    Message('note_on', channel=8, note=73, velocity=46, time=118),
    Message('control_change', channel=8, control=64, value=74, time=72),
    Message('control_change', channel=8, control=64, value=38, time=15),
    Message('control_change', channel=8, control=64, value=0, time=20),
    Message('note_on', channel=8, note=47, velocity=67, time=11),
    Message('control_change', channel=8, control=64, value=38, time=73),
    Message('note_off', channel=8, note=81, velocity=64, time=21),
    Message('control_change', channel=8, control=64, value=74, time=2),
    Message('control_change', channel=8, control=64, value=127, time=18),
    Message('note_on', channel=8, note=54, velocity=74, time=1),
    Message('note_off', channel=8, note=54, velocity=64, time=75),
    Message('note_on', channel=8, note=57, velocity=68, time=33),
    Message('note_off', channel=8, note=57, velocity=64, time=31),
    Message('note_off', channel=8, note=69, velocity=64, time=54),
    Message('note_on', channel=8, note=81, velocity=93, time=24),
    Message('note_on', channel=8, note=61, velocity=60, time=4),
    Message('note_off', channel=8, note=73, velocity=64, time=26),
    Message('note_on', channel=8, note=63, velocity=68, time=74),
    Message('note_on', channel=8, note=66, velocity=83, time=104),
    Message('note_on', channel=8, note=69, velocity=89, time=99),
    Message('note_off', channel=8, note=81, velocity=64, time=95),
    Message('note_on', channel=8, note=71, velocity=79, time=21),
    Message('note_on', channel=8, note=75, velocity=87, time=112),
    Message('note_on', channel=8, note=78, velocity=91, time=121),
    Message('note_off', channel=8, note=71, velocity=64, time=116),
    Message('note_off', channel=8, note=78, velocity=64, time=6),
    Message('note_on', channel=8, note=71, velocity=79, time=7),
    Message('note_off', channel=8, note=71, velocity=64, time=97),
    Message('note_on', channel=8, note=83, velocity=85, time=45),
    Message('note_off', channel=8, note=66, velocity=64, time=213),
    Message('note_off', channel=8, note=63, velocity=64, time=1),
    Message('note_off', channel=8, note=61, velocity=64, time=1),
    Message('note_off', channel=8, note=47, velocity=64, time=0),
    Message('note_off', channel=8, note=69, velocity=64, time=1),
    Message('control_change', channel=8, control=64, value=74, time=7),
    Message('note_off', channel=8, note=75, velocity=64, time=5),
    Message('note_off', channel=8, note=83, velocity=64, time=4),
    Message('note_on', channel=8, note=39, velocity=46, time=1),
    Message('control_change', channel=8, control=64, value=38, time=11),
    Message('note_on', channel=8, note=77, velocity=60, time=4),
    Message('note_on', channel=8, note=80, velocity=67, time=1),
    Message('note_on', channel=8, note=72, velocity=49, time=4),
    Message('note_on', channel=8, note=84, velocity=80, time=0),
    Message('control_change', channel=8, control=64, value=0, time=5),
    Message('control_change', channel=8, control=64, value=38, time=106),
    Message('control_change', channel=8, control=64, value=74, time=23),
    Message('note_on', channel=8, note=49, velocity=55, time=25),
    Message('control_change', channel=8, control=64, value=127, time=2),
    Message('note_off', channel=8, note=39, velocity=64, time=57),
    Message('note_off', channel=8, note=72, velocity=64, time=45),
    Message('note_off', channel=8, note=49, velocity=64, time=1),
    Message('note_on', channel=8, note=53, velocity=66, time=24),
    Message('note_off', channel=8, note=53, velocity=64, time=57),
    Message('note_on', channel=8, note=56, velocity=76, time=40),
    Message('note_off', channel=8, note=84, velocity=64, time=89),
    Message('note_on', channel=8, note=82, velocity=94, time=19),
    Message('note_on', channel=8, note=70, velocity=89, time=9),
    Message('note_on', channel=8, note=58, velocity=89, time=1),
    Message('note_off', channel=8, note=77, velocity=64, time=6),
    Message('note_off', channel=8, note=70, velocity=64, time=25),
    Message('note_off', channel=8, note=56, velocity=64, time=1),
    Message('note_off', channel=8, note=80, velocity=64, time=0),
    Message('note_off', channel=8, note=82, velocity=64, time=17),
    Message('note_on', channel=8, note=61, velocity=75, time=42),
    Message('note_off', channel=8, note=58, velocity=64, time=14),
    Message('note_off', channel=8, note=61, velocity=64, time=70),
    Message('note_on', channel=8, note=87, velocity=100, time=13),
    Message('note_on', channel=8, note=65, velocity=87, time=1),
    Message('note_on', channel=8, note=82, velocity=98, time=4),
    Message('note_on', channel=8, note=75, velocity=95, time=0),
    Message('note_on', channel=8, note=80, velocity=93, time=2),
    Message('note_off', channel=8, note=65, velocity=64, time=78),
    Message('note_on', channel=8, note=61, velocity=70, time=16),
    Message('note_off', channel=8, note=75, velocity=64, time=53),
    Message('note_off', channel=8, note=61, velocity=64, time=29),
    Message('note_on', channel=8, note=58, velocity=72, time=23),
    Message('note_on', channel=8, note=56, velocity=68, time=102),
    Message('note_off', channel=8, note=58, velocity=64, time=18),
    Message('note_off', channel=8, note=56, velocity=64, time=60),
    Message('note_on', channel=8, note=73, velocity=70, time=36),
    Message('note_on', channel=8, note=85, velocity=75, time=2),
    Message('note_off', channel=8, note=82, velocity=64, time=3),
    Message('note_off', channel=8, note=80, velocity=64, time=4),
    Message('note_off', channel=8, note=73, velocity=64, time=22),
    Message('note_off', channel=8, note=87, velocity=64, time=1),
    Message('note_off', channel=8, note=85, velocity=64, time=0),
    Message('note_on', channel=8, note=53, velocity=50, time=1),
    Message('note_off', channel=8, note=53, velocity=64, time=31),
    Message('note_on', channel=8, note=49, velocity=67, time=63),
    Message('note_off', channel=8, note=49, velocity=64, time=107),
    Message('note_on', channel=8, note=39, velocity=81, time=27),
    Message('note_on', channel=8, note=87, velocity=72, time=17),
    Message('note_on', channel=8, note=84, velocity=83, time=4),
    Message('note_on', channel=8, note=79, velocity=79, time=1),
    Message('control_change', channel=8, control=64, value=74, time=2),
    Message('note_on', channel=8, note=91, velocity=77, time=6),
    Message('control_change', channel=8, control=64, value=38, time=7),
    Message('control_change', channel=8, control=64, value=0, time=17),
    Message('control_change', channel=8, control=64, value=38, time=73),
    Message('control_change', channel=8, control=64, value=74, time=15),
    Message('note_on', channel=8, note=49, velocity=80, time=3),
    Message('control_change', channel=8, control=64, value=127, time=17),
    Message('note_off', channel=8, note=39, velocity=64, time=33),
    Message('note_off', channel=8, note=49, velocity=64, time=35),
    Message('note_off', channel=8, note=79, velocity=64, time=10),
    Message('note_off', channel=8, note=91, velocity=64, time=6),
    Message('note_on', channel=8, note=53, velocity=68, time=9),
    Message('note_on', channel=8, note=56, velocity=84, time=99),
    Message('note_off', channel=8, note=53, velocity=64, time=14),
    Message('note_on', channel=8, note=89, velocity=92, time=66),
    Message('note_on', channel=8, note=77, velocity=94, time=2),
    Message('note_off', channel=8, note=84, velocity=64, time=20),
    Message('note_on', channel=8, note=58, velocity=89, time=0),
    Message('note_off', channel=8, note=77, velocity=64, time=8),
    Message('note_off', channel=8, note=87, velocity=64, time=1),
    Message('note_off', channel=8, note=56, velocity=64, time=19),
    Message('note_off', channel=8, note=89, velocity=64, time=7),
    Message('note_on', channel=8, note=61, velocity=84, time=34),
    Message('note_off', channel=8, note=58, velocity=64, time=8),
    Message('note_off', channel=8, note=61, velocity=64, time=68),
    Message('note_on', channel=8, note=89, velocity=104, time=33),
    Message('note_on', channel=8, note=96, velocity=110, time=1),
    Message('note_on', channel=8, note=84, velocity=106, time=0),
    Message('note_on', channel=8, note=68, velocity=98, time=5),
    Message('note_off', channel=8, note=68, velocity=64, time=92),
    Message('note_on', channel=8, note=65, velocity=81, time=8),
    Message('note_off', channel=8, note=84, velocity=64, time=46),
    Message('note_off', channel=8, note=65, velocity=64, time=48),
    Message('note_on', channel=8, note=61, velocity=69, time=13),
    Message('note_off', channel=8, note=61, velocity=64, time=33),
    Message('note_on', channel=8, note=56, velocity=90, time=69),
    Message('note_off', channel=8, note=96, velocity=64, time=58),
    Message('note_on', channel=8, note=82, velocity=102, time=52),
    Message('note_on', channel=8, note=94, velocity=98, time=1),
    Message('note_off', channel=8, note=56, velocity=64, time=9),
    Message('note_on', channel=8, note=53, velocity=81, time=6),
    Message('note_off', channel=8, note=89, velocity=64, time=2),
    Message('note_off', channel=8, note=82, velocity=64, time=5),
    Message('note_off', channel=8, note=94, velocity=64, time=17),
    Message('note_off', channel=8, note=53, velocity=64, time=52),
    Message('note_on', channel=8, note=49, velocity=93, time=3),
    Message('note_off', channel=8, note=49, velocity=64, time=29),
    Message('note_on', channel=8, note=49, velocity=51, time=85),
    Message('note_off', channel=8, note=49, velocity=64, time=27),
    Message('note_on', channel=8, note=94, velocity=102, time=40),
    Message('control_change', channel=8, control=64, value=74, time=2),
    Message('note_on', channel=8, note=97, velocity=102, time=0),
    Message('note_on', channel=8, note=91, velocity=94, time=4),
    Message('note_on', channel=8, note=101, velocity=94, time=1),
    Message('note_on', channel=8, note=39, velocity=102, time=2),
    Message('note_on', channel=8, note=89, velocity=101, time=0),
    Message('control_change', channel=8, control=64, value=38, time=5),
    Message('control_change', channel=8, control=64, value=0, time=17),
    Message('control_change', channel=8, control=64, value=38, time=98),
    Message('control_change', channel=8, control=64, value=74, time=17),
    Message('note_on', channel=8, note=46, velocity=86, time=14),
    Message('control_change', channel=8, control=64, value=127, time=11),
    Message('note_on', channel=8, note=49, velocity=88, time=95),
    Message('control_change', channel=8, control=11, value=127, time=14),
    Message('note_on', channel=8, note=55, velocity=89, time=61),
    Message('note_on', channel=8, note=58, velocity=94, time=98),
    Message('control_change', channel=8, control=11, value=126, time=52),
    Message('control_change', channel=8, control=11, value=125, time=30),
    Message('note_on', channel=8, note=61, velocity=98, time=10),
    Message('control_change', channel=8, control=11, value=124, time=9),
    Message('control_change', channel=8, control=11, value=123, time=29),
    Message('control_change', channel=8, control=11, value=122, time=29),
    Message('note_on', channel=8, note=67, velocity=96, time=16),
    Message('control_change', channel=8, control=11, value=121, time=12),
    Message('control_change', channel=8, control=11, value=120, time=28),
    Message('note_off', channel=8, note=67, velocity=64, time=15),
    Message('note_off', channel=8, note=89, velocity=64, time=4),
    Message('control_change', channel=8, control=11, value=119, time=10),
    Message('note_on', channel=8, note=70, velocity=95, time=15),
    Message('note_off', channel=8, note=91, velocity=64, time=8),
    Message('control_change', channel=8, control=11, value=118, time=6),
    Message('control_change', channel=8, control=11, value=117, time=29),
    Message('note_off', channel=8, note=46, velocity=64, time=11),
    Message('control_change', channel=8, control=11, value=116, time=21),
    Message('note_off', channel=8, note=94, velocity=64, time=2),
    Message('note_on', channel=8, note=73, velocity=98, time=10),
    Message('note_off', channel=8, note=49, velocity=64, time=18),
    Message('note_off', channel=8, note=97, velocity=64, time=6),
    Message('control_change', channel=8, control=11, value=115, time=0),
    Message('note_off', channel=8, note=70, velocity=64, time=2),
    Message('control_change', channel=8, control=11, value=114, time=25),
    Message('note_off', channel=8, note=55, velocity=64, time=7),
    Message('control_change', channel=8, control=11, value=113, time=15),
    Message('note_on', channel=8, note=79, velocity=100, time=22),
    Message('control_change', channel=8, control=11, value=112, time=5),
    Message('control_change', channel=8, control=11, value=111, time=29),
    Message('control_change', channel=8, control=11, value=110, time=28),
    Message('control_change', channel=8, control=11, value=109, time=19),
    Message('note_on', channel=8, note=82, velocity=96, time=1),
    Message('control_change', channel=8, control=11, value=108, time=28),
    Message('control_change', channel=8, control=11, value=107, time=28),
    Message('control_change', channel=8, control=11, value=106, time=31),
    Message('note_on', channel=8, note=85, velocity=104, time=2),
    Message('control_change', channel=8, control=11, value=105, time=26),
    Message('control_change', channel=8, control=11, value=104, time=31),
    Message('control_change', channel=8, control=11, value=103, time=26),
    Message('control_change', channel=8, control=11, value=102, time=29),
    Message('note_on', channel=8, note=91, velocity=102, time=2),
    Message('note_on', channel=8, note=100, velocity=113, time=2),
    Message('control_change', channel=8, control=11, value=101, time=26),
    Message('note_off', channel=8, note=101, velocity=64, time=1),
    Message('control_change', channel=8, control=11, value=100, time=27),
    Message('control_change', channel=8, control=11, value=99, time=31),
    Message('control_change', channel=8, control=11, value=98, time=34),
    Message('note_on', channel=8, note=96, velocity=80, time=17),
    Message('note_on', channel=8, note=94, velocity=86, time=0),
    Message('control_change', channel=8, control=11, value=97, time=11),
    Message('note_off', channel=8, note=100, velocity=64, time=31),
    Message('control_change', channel=8, control=11, value=96, time=1),
    Message('control_change', channel=8, control=11, value=95, time=18),
    Message('note_off', channel=8, note=94, velocity=64, time=15),
    Message('note_off', channel=8, note=96, velocity=64, time=1),
    Message('control_change', channel=8, control=11, value=94, time=13),
    Message('note_on', channel=8, note=99, velocity=92, time=14),
    Message('control_change', channel=8, control=11, value=93, time=6),
    Message('control_change', channel=8, control=11, value=92, time=28),
    Message('control_change', channel=8, control=11, value=91, time=28),
    Message('note_off', channel=8, note=79, velocity=64, time=7),
    Message('note_off', channel=8, note=82, velocity=64, time=4),
    Message('note_off', channel=8, note=99, velocity=64, time=1),
    Message('note_off', channel=8, note=91, velocity=64, time=4),
    Message('note_off', channel=8, note=73, velocity=64, time=4),
    Message('note_off', channel=8, note=85, velocity=64, time=4),
    Message('control_change', channel=8, control=11, value=90, time=7),
    Message('note_on', channel=8, note=93, velocity=82, time=0),
    Message('note_on', channel=8, note=95, velocity=84, time=3),
    Message('control_change', channel=8, control=11, value=89, time=24),
    Message('note_off', channel=8, note=95, velocity=64, time=6),
    Message('note_off', channel=8, note=93, velocity=64, time=16),
    Message('control_change', channel=8, control=11, value=88, time=13),
    Message('note_on', channel=8, note=89, velocity=78, time=9),
    Message('note_on', channel=8, note=98, velocity=76, time=1),
    Message('note_off', channel=8, note=89, velocity=64, time=27),
    Message('note_off', channel=8, note=98, velocity=64, time=29),
    Message('control_change', channel=8, control=11, value=87, time=1),
    Message('note_on', channel=8, note=94, velocity=88, time=16),
    Message('note_on', channel=8, note=92, velocity=74, time=1),
    Message('note_off', channel=8, note=94, velocity=64, time=53),
    Message('note_on', channel=8, note=88, velocity=76, time=18),
    Message('note_on', channel=8, note=97, velocity=93, time=3),
    Message('note_off', channel=8, note=92, velocity=64, time=6),
    Message('control_change', channel=8, control=11, value=86, time=10),
    Message('note_off', channel=8, note=97, velocity=64, time=18),
    Message('note_off', channel=8, note=88, velocity=64, time=14),
    Message('note_on', channel=8, note=91, velocity=87, time=13),
    Message('note_on', channel=8, note=93, velocity=86, time=2),
    Message('control_change', channel=8, control=91, value=115, time=20),
    Message('note_off', channel=8, note=93, velocity=64, time=15),
    Message('control_change', channel=8, control=11, value=85, time=13),
    Message('note_off', channel=8, note=91, velocity=64, time=3),
    Message('note_on', channel=8, note=96, velocity=90, time=9),
    Message('note_on', channel=8, note=87, velocity=85, time=2),
    Message('note_off', channel=8, note=58, velocity=64, time=21),
    Message('note_off', channel=8, note=39, velocity=64, time=1),
    Message('note_off', channel=8, note=87, velocity=64, time=30),
    Message('note_off', channel=8, note=96, velocity=64, time=6),
    Message('note_on', channel=8, note=90, velocity=88, time=2),
    Message('note_on', channel=8, note=92, velocity=78, time=1),
    Message('note_off', channel=8, note=61, velocity=64, time=18),
    Message('control_change', channel=8, control=11, value=84, time=3),
    Message('note_off', channel=8, note=92, velocity=64, time=16),
    Message('note_off', channel=8, note=90, velocity=64, time=23),
    Message('note_on', channel=8, note=95, velocity=85, time=10),
    Message('note_on', channel=8, note=86, velocity=67, time=4),
    Message('note_off', channel=8, note=95, velocity=64, time=24),
    Message('note_off', channel=8, note=86, velocity=64, time=3),
    Message('control_change', channel=8, control=11, value=83, time=17),
    Message('note_on', channel=8, note=91, velocity=93, time=15),
    Message('note_on', channel=8, note=89, velocity=80, time=1),
    Message('note_off', channel=8, note=89, velocity=64, time=29),
    Message('note_off', channel=8, note=91, velocity=64, time=5),
    Message('note_on', channel=8, note=94, velocity=97, time=27),
    Message('note_on', channel=8, note=85, velocity=92, time=1),
    Message('control_change', channel=8, control=11, value=82, time=28),
    Message('note_off', channel=8, note=85, velocity=64, time=27),
    Message('note_off', channel=8, note=94, velocity=64, time=4),
    Message('note_on', channel=8, note=90, velocity=89, time=2),
    Message('note_on', channel=8, note=88, velocity=96, time=3),
    Message('note_off', channel=8, note=88, velocity=64, time=38),
    Message('note_off', channel=8, note=90, velocity=64, time=8),
    Message('note_on', channel=8, note=84, velocity=92, time=12),
    Message('control_change', channel=8, control=11, value=81, time=4),
    Message('note_on', channel=8, note=93, velocity=86, time=0),
    Message('note_off', channel=8, note=84, velocity=64, time=25),
    Message('note_off', channel=8, note=93, velocity=64, time=19),
    Message('note_on', channel=8, note=87, velocity=90, time=10),
    Message('note_on', channel=8, note=89, velocity=80, time=2),
    Message('note_off', channel=8, note=89, velocity=64, time=29),
    Message('control_change', channel=8, control=11, value=80, time=8),
    Message('note_on', channel=8, note=92, velocity=91, time=21),
    Message('note_on', channel=8, note=83, velocity=80, time=1),
    Message('note_off', channel=8, note=87, velocity=64, time=2),
    Message('note_off', channel=8, note=83, velocity=64, time=29),
    Message('note_off', channel=8, note=92, velocity=64, time=1),
    Message('note_on', channel=8, note=88, velocity=93, time=27),
    Message('note_on', channel=8, note=86, velocity=92, time=1),
    Message('note_off', channel=8, note=88, velocity=64, time=24),
    Message('control_change', channel=8, control=11, value=79, time=1),
    Message('note_off', channel=8, note=86, velocity=64, time=17),
    Message('note_on', channel=8, note=91, velocity=88, time=16),
    Message('note_on', channel=8, note=82, velocity=95, time=3),
    Message('note_off', channel=8, note=91, velocity=64, time=45),
    Message('note_off', channel=8, note=82, velocity=64, time=6),
    Message('note_on', channel=8, note=87, velocity=91, time=3),
    Message('note_on', channel=8, note=85, velocity=89, time=2),
    Message('control_change', channel=8, control=11, value=78, time=2),
    Message('note_off', channel=8, note=87, velocity=64, time=46),
    Message('note_off', channel=8, note=85, velocity=64, time=1),
    Message('note_on', channel=8, note=90, velocity=95, time=8),
    Message('note_on', channel=8, note=81, velocity=70, time=2),
    Message('note_off', channel=8, note=81, velocity=64, time=29),
    Message('control_change', channel=8, control=11, value=77, time=10),
    Message('note_on', channel=8, note=84, velocity=102, time=11),
    Message('note_on', channel=8, note=86, velocity=102, time=0),
    Message('note_on', channel=8, note=84, velocity=102, time=1),
    Message('note_off', channel=8, note=90, velocity=64, time=2),
    Message('note_on', channel=8, note=80, velocity=95, time=50),
    Message('note_on', channel=8, note=89, velocity=95, time=2),
    Message('note_off', channel=8, note=84, velocity=64, time=3),
    Message('note_off', channel=8, note=86, velocity=64, time=1),
    Message('note_off', channel=8, note=84, velocity=64, time=1),
    Message('control_change', channel=8, control=11, value=76, time=44),
    Message('note_on', channel=8, note=83, velocity=98, time=3),
    Message('note_on', channel=8, note=85, velocity=98, time=0),
    Message('note_off', channel=8, note=80, velocity=64, time=23),
    Message('note_off', channel=8, note=89, velocity=64, time=0),
    Message('note_off', channel=8, note=83, velocity=64, time=36),
    Message('note_off', channel=8, note=85, velocity=64, time=1),
    Message('note_on', channel=8, note=79, velocity=100, time=8),
    Message('note_on', channel=8, note=88, velocity=100, time=1),
    Message('control_change', channel=8, control=11, value=75, time=17),
    Message('note_on', channel=8, note=82, velocity=96, time=32),
    Message('note_on', channel=8, note=84, velocity=96, time=2),
    Message('note_off', channel=8, note=79, velocity=64, time=5),
    Message('note_off', channel=8, note=88, velocity=64, time=1),
    Message('note_off', channel=8, note=82, velocity=64, time=45),
    Message('note_off', channel=8, note=84, velocity=64, time=1),
    Message('note_on', channel=8, note=78, velocity=97, time=6),
    Message('note_on', channel=8, note=87, velocity=97, time=0),
    Message('control_change', channel=8, control=11, value=74, time=6),
    Message('note_off', channel=8, note=78, velocity=64, time=41),
    Message('note_off', channel=8, note=87, velocity=64, time=0),
    Message('note_on', channel=8, note=81, velocity=97, time=10),
    Message('note_on', channel=8, note=83, velocity=97, time=1),
    Message('note_off', channel=8, note=81, velocity=64, time=32),
    Message('note_off', channel=8, note=83, velocity=64, time=1),
    Message('control_change', channel=8, control=11, value=73, time=8),
    Message('note_on', channel=8, note=77, velocity=90, time=12),
    Message('note_on', channel=8, note=86, velocity=90, time=2),
    Message('note_on', channel=8, note=80, velocity=94, time=61),
    Message('note_on', channel=8, note=82, velocity=94, time=1),
    Message('note_off', channel=8, note=77, velocity=64, time=2),
    Message('note_off', channel=8, note=86, velocity=64, time=0),
    Message('control_change', channel=8, control=11, value=72, time=30),
    Message('note_off', channel=8, note=80, velocity=64, time=12),
    Message('note_off', channel=8, note=82, velocity=64, time=1),
    Message('note_on', channel=8, note=76, velocity=90, time=12),
    Message('note_on', channel=8, note=85, velocity=90, time=1),
    Message('note_on', channel=8, note=79, velocity=94, time=51),
    Message('note_on', channel=8, note=81, velocity=94, time=2),
    Message('note_off', channel=8, note=76, velocity=64, time=10),
    Message('note_off', channel=8, note=85, velocity=64, time=0),
    Message('control_change', channel=8, control=11, value=71, time=3),
    Message('note_on', channel=8, note=75, velocity=89, time=35),
    Message('note_on', channel=8, note=84, velocity=89, time=2),
    Message('note_off', channel=8, note=79, velocity=64, time=2),
    Message('note_off', channel=8, note=81, velocity=64, time=2),
    Message('note_on', channel=8, note=78, velocity=84, time=53),
    Message('note_on', channel=8, note=80, velocity=84, time=0),
    Message('control_change', channel=8, control=11, value=70, time=4),
    Message('note_off', channel=8, note=75, velocity=64, time=3),
    Message('note_off', channel=8, note=84, velocity=64, time=0),
    Message('note_off', channel=8, note=78, velocity=64, time=44),
    Message('note_off', channel=8, note=80, velocity=64, time=1),
    Message('note_on', channel=8, note=74, velocity=85, time=18),
    Message('note_on', channel=8, note=83, velocity=85, time=0),
    Message('control_change', channel=8, control=11, value=69, time=39),
    Message('note_off', channel=8, note=74, velocity=64, time=12),
    Message('note_off', channel=8, note=83, velocity=64, time=1),
    Message('note_on', channel=8, note=77, velocity=85, time=2),
    Message('note_on', channel=8, note=79, velocity=85, time=0),
    Message('note_off', channel=8, note=77, velocity=64, time=59),
    Message('note_off', channel=8, note=79, velocity=64, time=0),
    Message('note_on', channel=8, note=73, velocity=95, time=2),
    Message('note_on', channel=8, note=82, velocity=95, time=1),
    Message('control_change', channel=8, control=11, value=68, time=20),
    Message('note_off', channel=8, note=73, velocity=64, time=35),
    Message('note_off', channel=8, note=82, velocity=64, time=1),
    Message('note_on', channel=8, note=76, velocity=82, time=14),
    Message('note_on', channel=8, note=78, velocity=82, time=0),
    Message('control_change', channel=8, control=11, value=67, time=44),
    Message('note_off', channel=8, note=76, velocity=64, time=8),
    Message('note_off', channel=8, note=78, velocity=64, time=1),
    Message('note_on', channel=8, note=72, velocity=60, time=13),
    Message('note_on', channel=8, note=81, velocity=60, time=1),
    Message('note_off', channel=8, note=72, velocity=64, time=54),
    Message('note_off', channel=8, note=81, velocity=64, time=1),
    Message('note_on', channel=8, note=75, velocity=76, time=0),
    Message('note_on', channel=8, note=77, velocity=76, time=1),
    Message('control_change', channel=8, control=11, value=66, time=19),
    Message('note_off', channel=8, note=75, velocity=64, time=22),
    Message('note_off', channel=8, note=77, velocity=64, time=0),
    Message('note_on', channel=8, note=71, velocity=73, time=28),
    Message('note_on', channel=8, note=80, velocity=73, time=1),
    Message('control_change', channel=8, control=11, value=65, time=55),
    Message('note_off', channel=8, note=71, velocity=64, time=2),
    Message('note_off', channel=8, note=80, velocity=64, time=1),
    Message('note_on', channel=8, note=74, velocity=71, time=15),
    Message('note_on', channel=8, note=76, velocity=71, time=1),
    Message('note_off', channel=8, note=74, velocity=64, time=44),
    Message('note_off', channel=8, note=76, velocity=64, time=1),
    Message('note_on', channel=8, note=70, velocity=66, time=28),
    Message('note_on', channel=8, note=79, velocity=66, time=0),
    Message('control_change', channel=8, control=11, value=64, time=3),
    Message('note_off', channel=8, note=70, velocity=64, time=69),
    Message('note_off', channel=8, note=79, velocity=64, time=0),
    Message('note_on', channel=8, note=73, velocity=52, time=4),
    Message('note_on', channel=8, note=75, velocity=52, time=0),
    Message('control_change', channel=8, control=11, value=63, time=22),
    Message('note_off', channel=8, note=73, velocity=64, time=52),
    Message('note_off', channel=8, note=75, velocity=64, time=1),
    Message('note_on', channel=8, note=69, velocity=65, time=3),
    Message('note_on', channel=8, note=78, velocity=65, time=1),
    Message('control_change', channel=8, control=11, value=62, time=49),
    Message('note_off', channel=8, note=69, velocity=64, time=9),
    Message('note_off', channel=8, note=78, velocity=64, time=1),
    Message('note_on', channel=8, note=72, velocity=57, time=16),
    Message('note_on', channel=8, note=74, velocity=57, time=1),
    Message('note_off', channel=8, note=72, velocity=64, time=68),
    Message('note_off', channel=8, note=74, velocity=64, time=1),
    Message('control_change', channel=8, control=11, value=61, time=0),
    Message('note_on', channel=8, note=68, velocity=60, time=30),
    Message('note_on', channel=8, note=77, velocity=60, time=2),
    Message('control_change', channel=8, control=11, value=60, time=64),
    Message('note_off', channel=8, note=68, velocity=64, time=2),
    Message('note_off', channel=8, note=77, velocity=64, time=1),
    Message('note_on', channel=8, note=71, velocity=40, time=31),
    Message('note_on', channel=8, note=73, velocity=53, time=2),
    Message('note_off', channel=8, note=71, velocity=64, time=36),
    Message('note_off', channel=8, note=73, velocity=64, time=1),
    Message('control_change', channel=8, control=11, value=59, time=33),
    Message('note_on', channel=8, note=67, velocity=39, time=10),
    Message('control_change', channel=8, control=64, value=74, time=17),
    Message('control_change', channel=8, control=64, value=38, time=24),
    Message('note_on', channel=8, note=70, velocity=47, time=21),
    Message('control_change', channel=8, control=64, value=0, time=7),
    Message('control_change', channel=8, control=11, value=58, time=21),
    Message('note_on', channel=8, note=73, velocity=40, time=33),
    Message('control_change', channel=8, control=64, value=38, time=26),
    Message('control_change', channel=8, control=64, value=74, time=18),
    Message('control_change', channel=8, control=11, value=57, time=14),
    Message('note_on', channel=8, note=77, velocity=67, time=7),
    Message('note_off', channel=8, note=73, velocity=64, time=4),
    Message('control_change', channel=8, control=64, value=127, time=4),
    Message('note_off', channel=8, note=70, velocity=64, time=18),
    Message('note_off', channel=8, note=67, velocity=64, time=29),
    Message('control_change', channel=8, control=11, value=56, time=36),
    Message('note_off', channel=8, note=77, velocity=64, time=1),
    Message('note_on', channel=8, note=75, velocity=65, time=14),
    Message('note_off', channel=8, note=75, velocity=64, time=71),
    Message('note_on', channel=8, note=73, velocity=56, time=5),
    Message('control_change', channel=8, control=11, value=55, time=13),
    Message('note_off', channel=8, note=73, velocity=64, time=54),
    Message('note_on', channel=8, note=70, velocity=69, time=2),
    Message('control_change', channel=8, control=11, value=54, time=40),
    Message('note_off', channel=8, note=70, velocity=64, time=14),
    Message('note_on', channel=8, note=67, velocity=75, time=19),
    Message('note_off', channel=8, note=67, velocity=64, time=26),
    Message('control_change', channel=8, control=11, value=53, time=38),
    Message('note_on', channel=8, note=62, velocity=55, time=4),
    Message('note_off', channel=8, note=62, velocity=64, time=31),
    Message('note_on', channel=8, note=63, velocity=76, time=54),
    Message('control_change', channel=8, control=11, value=58, time=1),
    Message('note_off', channel=8, note=63, velocity=64, time=28),
    Message('control_change', channel=8, control=11, value=51, time=31),
    Message('note_on', channel=8, note=67, velocity=82, time=1),
    Message('note_off', channel=8, note=67, velocity=64, time=30),
    Message('note_on', channel=8, note=70, velocity=87, time=31),
    Message('note_off', channel=8, note=70, velocity=64, time=30),
    Message('note_on', channel=8, note=73, velocity=90, time=45),
    Message('note_on', channel=8, note=74, velocity=90, time=55),
    Message('note_off', channel=8, note=73, velocity=64, time=3),
    Message('note_off', channel=8, note=74, velocity=64, time=56),
    Message('note_on', channel=8, note=77, velocity=84, time=6),
    Message('note_off', channel=8, note=77, velocity=64, time=29),
    Message('note_on', channel=8, note=75, velocity=89, time=27),
    Message('note_off', channel=8, note=75, velocity=64, time=30),
    Message('control_change', channel=8, control=11, value=50, time=26),
    Message('note_on', channel=8, note=79, velocity=76, time=19),
    Message('note_off', channel=8, note=79, velocity=64, time=30),
    Message('note_on', channel=8, note=82, velocity=97, time=18),
    Message('note_off', channel=8, note=82, velocity=64, time=46),
    Message('note_on', channel=8, note=85, velocity=93, time=25),
    Message('control_change', channel=8, control=64, value=74, time=5),
    Message('note_on', channel=8, note=86, velocity=102, time=41),
    Message('note_off', channel=8, note=85, velocity=64, time=1),
    Message('control_change', channel=8, control=64, value=38, time=15),
    Message('note_off', channel=8, note=86, velocity=64, time=34),
    Message('note_on', channel=8, note=89, velocity=101, time=10),
    Message('control_change', channel=8, control=64, value=0, time=27),
    Message('control_change', channel=8, control=91, value=127, time=13),
    Message('note_off', channel=8, note=89, velocity=64, time=10),
    Message('control_change', channel=8, control=64, value=38, time=6),
    Message('note_on', channel=8, note=87, velocity=94, time=7),
    Message('control_change', channel=8, control=64, value=74, time=20),
    Message('control_change', channel=8, control=64, value=127, time=19),
    Message('note_off', channel=8, note=87, velocity=64, time=10),
    Message('note_on', channel=8, note=91, velocity=93, time=16),
    Message('note_off', channel=8, note=91, velocity=64, time=41),
    Message('note_on', channel=8, note=94, velocity=99, time=13),
    Message('control_change', channel=8, control=11, value=49, time=25),
    Message('note_on', channel=8, note=97, velocity=100, time=35),
    Message('note_off', channel=8, note=94, velocity=64, time=6),
    Message('note_off', channel=8, note=97, velocity=64, time=55),
    Message('note_on', channel=8, note=100, velocity=105, time=2),
    Message('control_change', channel=8, control=64, value=74, time=11),
    Message('control_change', channel=8, control=64, value=38, time=26),
    Message('note_on', channel=8, note=101, velocity=115, time=29),
    Message('control_change', channel=8, control=64, value=0, time=1),
    Message('note_off', channel=8, note=100, velocity=64, time=16),
    Message('control_change', channel=8, control=64, value=38, time=24),
    Message('note_on', channel=8, note=96, velocity=100, time=6),
    Message('note_off', channel=8, note=101, velocity=64, time=19),
    Message('control_change', channel=8, control=64, value=74, time=0),
    Message('control_change', channel=8, control=64, value=127, time=19),
    Message('note_on', channel=8, note=97, velocity=100, time=19),
    Message('note_off', channel=8, note=96, velocity=64, time=40),
    Message('note_on', channel=8, note=93, velocity=100, time=20),
    Message('note_off', channel=8, note=97, velocity=64, time=4),
    Message('control_change', channel=8, control=64, value=74, time=1),
    Message('control_change', channel=8, control=64, value=38, time=17),
    Message('control_change', channel=8, control=64, value=0, time=22),
    Message('note_on', channel=8, note=94, velocity=98, time=15),
    Message('control_change', channel=8, control=64, value=38, time=1),
    Message('note_off', channel=8, note=93, velocity=64, time=7),
    Message('control_change', channel=8, control=64, value=74, time=26),
    Message('note_off', channel=8, note=94, velocity=64, time=26),
    Message('note_on', channel=8, note=90, velocity=78, time=6),
    Message('control_change', channel=8, control=11, value=48, time=8),
    Message('control_change', channel=8, control=64, value=127, time=4),
    Message('control_change', channel=8, control=64, value=74, time=35),
    Message('note_on', channel=8, note=91, velocity=89, time=5),
    Message('note_off', channel=8, note=90, velocity=64, time=5),
    Message('note_on', channel=8, note=88, velocity=95, time=54),
    Message('note_off', channel=8, note=91, velocity=64, time=3),
    Message('note_off', channel=8, note=88, velocity=64, time=50),
    Message('note_on', channel=8, note=89, velocity=75, time=8),
    Message('control_change', channel=8, control=64, value=38, time=44),
    Message('note_on', channel=8, note=84, velocity=90, time=8),
    Message('note_off', channel=8, note=89, velocity=64, time=14),
    Message('control_change', channel=8, control=64, value=74, time=11),
    Message('note_off', channel=8, note=84, velocity=64, time=40),
    Message('note_on', channel=8, note=85, velocity=80, time=1),
    Message('control_change', channel=8, control=64, value=127, time=42),
    Message('note_off', channel=8, note=85, velocity=64, time=21),
    Message('note_on', channel=8, note=81, velocity=87, time=3),
    Message('control_change', channel=8, control=64, value=74, time=26),
    Message('note_off', channel=8, note=81, velocity=64, time=38),
    Message('control_change', channel=8, control=64, value=38, time=0),
    Message('note_on', channel=8, note=82, velocity=81, time=2),
    Message('control_change', channel=8, control=11, value=47, time=38),
    Message('note_off', channel=8, note=82, velocity=64, time=17),
    Message('note_on', channel=8, note=78, velocity=75, time=13),
    Message('control_change', channel=8, control=64, value=74, time=13),
    Message('control_change', channel=8, control=64, value=127, time=40),
    Message('note_on', channel=8, note=79, velocity=79, time=17),
    Message('note_off', channel=8, note=78, velocity=64, time=6),
    Message('note_off', channel=8, note=79, velocity=64, time=28),
    Message('control_change', channel=8, control=64, value=74, time=25),
    Message('note_on', channel=8, note=76, velocity=84, time=2),
    Message('note_off', channel=8, note=76, velocity=64, time=39),
    Message('control_change', channel=8, control=64, value=38, time=3),
    Message('note_on', channel=8, note=77, velocity=84, time=20),
    Message('control_change', channel=8, control=64, value=74, time=26),
    Message('control_change', channel=8, control=64, value=127, time=39),
    Message('note_on', channel=8, note=72, velocity=70, time=12),
    Message('note_off', channel=8, note=77, velocity=64, time=11),
    Message('note_off', channel=8, note=72, velocity=64, time=47),
    Message('note_on', channel=8, note=73, velocity=70, time=7),
    Message('control_change', channel=8, control=64, value=74, time=13),
    Message('control_change', channel=8, control=64, value=38, time=31),
    Message('note_off', channel=8, note=73, velocity=64, time=25),
    Message('note_on', channel=8, note=69, velocity=76, time=12),
    Message('control_change', channel=8, control=11, value=46, time=14),
    Message('note_on', channel=8, note=70, velocity=60, time=62),
    Message('note_off', channel=8, note=69, velocity=64, time=3),
    Message('control_change', channel=8, control=64, value=74, time=45),
    Message('control_change', channel=8, control=64, value=127, time=26),
    Message('note_on', channel=8, note=66, velocity=63, time=5),
    Message('note_off', channel=8, note=70, velocity=64, time=1),
    Message('control_change', channel=8, control=64, value=74, time=22),
    Message('control_change', channel=8, control=64, value=38, time=17),
    Message('control_change', channel=8, control=64, value=0, time=31),
    Message('note_off', channel=8, note=66, velocity=64, time=33),
    Message('note_on', channel=8, note=67, velocity=51, time=4),
    Message('note_on', channel=8, note=64, velocity=44, time=68),
    Message('control_change', channel=8, control=64, value=38, time=0),
    Message('note_off', channel=8, note=67, velocity=64, time=8),
    Message('control_change', channel=8, control=64, value=74, time=32),
    Message('note_on', channel=8, note=65, velocity=50, time=64),
    Message('note_off', channel=8, note=64, velocity=64, time=1),
    Message('control_change', channel=8, control=11, value=45, time=39),
    Message('control_change', channel=8, control=64, value=38, time=21),
    Message('control_change', channel=8, control=64, value=0, time=17),
    Message('note_on', channel=8, note=62, velocity=69, time=33),
    Message('note_off', channel=8, note=65, velocity=64, time=9),
    Message('control_change', channel=8, control=64, value=38, time=113),
    Message('note_on', channel=8, note=63, velocity=52, time=7),
    Message('note_off', channel=8, note=62, velocity=64, time=12),
    Message('control_change', channel=8, control=64, value=74, time=3),
    Message('control_change', channel=8, control=64, value=127, time=32),
    Message('pitchwheel', channel=8, pitch=-337, time=16),
    Message('note_off', channel=8, note=63, velocity=64, time=6),
    Message('pitchwheel', channel=8, pitch=-347, time=4),
    Message('pitchwheel', channel=8, pitch=-356, time=18),
    Message('pitchwheel', channel=8, pitch=-366, time=1),
    Message('note_on', channel=8, note=64, velocity=49, time=3),
    Message('pitchwheel', channel=8, pitch=-376, time=6),
    Message('pitchwheel', channel=8, pitch=-386, time=10),
    Message('pitchwheel', channel=8, pitch=-396, time=12),
    Message('note_off', channel=8, note=64, velocity=64, time=2),
    Message('pitchwheel', channel=8, pitch=-406, time=5),
    Message('pitchwheel', channel=8, pitch=-416, time=10),
    Message('pitchwheel', channel=8, pitch=-426, time=11),
    Message('note_on', channel=8, note=63, velocity=56, time=4),
    Message('pitchwheel', channel=8, pitch=-436, time=4),
    Message('pitchwheel', channel=8, pitch=-446, time=9),
    Message('pitchwheel', channel=8, pitch=-455, time=11),
    Message('pitchwheel', channel=8, pitch=-465, time=9),
    Message('control_change', channel=8, control=11, value=45, time=6),
    Message('pitchwheel', channel=8, pitch=-475, time=4),
    Message('pitchwheel', channel=8, pitch=-485, time=9),
    Message('pitchwheel', channel=8, pitch=-495, time=9),
    Message('pitchwheel', channel=8, pitch=-505, time=10),
    Message('pitchwheel', channel=8, pitch=-515, time=9),
    Message('note_off', channel=8, note=63, velocity=64, time=9),
    Message('pitchwheel', channel=8, pitch=-525, time=2),
    Message('note_on', channel=8, note=61, velocity=60, time=5),
    Message('pitchwheel', channel=8, pitch=-535, time=4),
    Message('pitchwheel', channel=8, pitch=-545, time=9),
    Message('pitchwheel', channel=8, pitch=-554, time=10),
    Message('pitchwheel', channel=8, pitch=-564, time=10),
    Message('pitchwheel', channel=8, pitch=-574, time=10),
    Message('note_off', channel=8, note=61, velocity=64, time=1),
    Message('pitchwheel', channel=8, pitch=-584, time=10),
    Message('pitchwheel', channel=8, pitch=-594, time=8),
    Message('note_on', channel=8, note=63, velocity=64, time=9),
    Message('pitchwheel', channel=8, pitch=-604, time=2),
    Message('pitchwheel', channel=8, pitch=-614, time=8),
    Message('pitchwheel', channel=8, pitch=-624, time=10),
    Message('pitchwheel', channel=8, pitch=-634, time=9),
    Message('pitchwheel', channel=8, pitch=-644, time=12),
    Message('note_off', channel=8, note=63, velocity=64, time=1),
    Message('pitchwheel', channel=8, pitch=-653, time=5),
    Message('pitchwheel', channel=8, pitch=-663, time=10),
    Message('pitchwheel', channel=8, pitch=-673, time=13),
    Message('note_on', channel=8, note=60, velocity=87, time=0),
    Message('pitchwheel', channel=8, pitch=-683, time=8),
    Message('pitchwheel', channel=8, pitch=-693, time=8),
    Message('pitchwheel', channel=8, pitch=-703, time=17),
    Message('pitchwheel', channel=8, pitch=-713, time=6),
    Message('pitchwheel', channel=8, pitch=-723, time=6),
    Message('control_change', channel=8, control=64, value=74, time=2),
    Message('pitchwheel', channel=8, pitch=-733, time=8),
    Message('note_off', channel=8, note=60, velocity=64, time=8),
    Message('pitchwheel', channel=8, pitch=-743, time=1),
    Message('note_on', channel=8, note=63, velocity=94, time=2),
    Message('pitchwheel', channel=8, pitch=-752, time=7),
    Message('pitchwheel', channel=8, pitch=-762, time=10),
    Message('pitchwheel', channel=8, pitch=-772, time=10),
    Message('pitchwheel', channel=8, pitch=-782, time=9),
    Message('pitchwheel', channel=8, pitch=-792, time=10),
    Message('pitchwheel', channel=8, pitch=-802, time=10),
    Message('pitchwheel', channel=8, pitch=-812, time=9),
    Message('note_off', channel=8, note=63, velocity=64, time=1),
    Message('pitchwheel', channel=8, pitch=-822, time=8),
    Message('note_on', channel=8, note=59, velocity=95, time=5),
    Message('pitchwheel', channel=8, pitch=-832, time=9),
    Message('pitchwheel', channel=8, pitch=-842, time=6),
    Message('pitchwheel', channel=8, pitch=-851, time=11),
    Message('pitchwheel', channel=8, pitch=-861, time=8),
    Message('control_change', channel=8, control=64, value=38, time=9),
    Message('pitchwheel', channel=8, pitch=-871, time=0),
    Message('pitchwheel', channel=8, pitch=-881, time=10),
    Message('pitchwheel', channel=8, pitch=-891, time=11),
    Message('pitchwheel', channel=8, pitch=-901, time=9),
    Message('note_on', channel=8, note=63, velocity=97, time=1),
    Message('note_off', channel=8, note=59, velocity=64, time=2),
    Message('pitchwheel', channel=8, pitch=-911, time=6),
    Message('pitchwheel', channel=8, pitch=-921, time=17),
    Message('pitchwheel', channel=8, pitch=-931, time=2),
    Message('pitchwheel', channel=8, pitch=-941, time=9),
    Message('pitchwheel', channel=8, pitch=-950, time=16),
    Message('pitchwheel', channel=8, pitch=-960, time=4),
    Message('pitchwheel', channel=8, pitch=-970, time=11),
    Message('pitchwheel', channel=8, pitch=-980, time=18),
    Message('note_off', channel=8, note=63, velocity=64, time=2),
    Message('pitchwheel', channel=8, pitch=-990, time=0),
    Message('pitchwheel', channel=8, pitch=-1000, time=8),
    Message('note_on', channel=8, note=58, velocity=99, time=3),
    Message('pitchwheel', channel=8, pitch=-1010, time=8),
    Message('pitchwheel', channel=8, pitch=-1020, time=9),
    Message('pitchwheel', channel=8, pitch=-1030, time=9),
    Message('pitchwheel', channel=8, pitch=-1040, time=10),
    Message('pitchwheel', channel=8, pitch=-1049, time=11),
    Message('pitchwheel', channel=8, pitch=-1059, time=8),
    Message('pitchwheel', channel=8, pitch=-1069, time=9),
    Message('pitchwheel', channel=8, pitch=-1079, time=9),
    Message('pitchwheel', channel=8, pitch=-1089, time=11),
    Message('pitchwheel', channel=8, pitch=-1099, time=9),
    Message('note_on', channel=8, note=63, velocity=100, time=1),
    Message('note_off', channel=8, note=58, velocity=64, time=2),
    Message('pitchwheel', channel=8, pitch=-1109, time=7),
    Message('pitchwheel', channel=8, pitch=-1119, time=10),
    Message('pitchwheel', channel=8, pitch=-1129, time=8),
    Message('pitchwheel', channel=8, pitch=-1139, time=11),
    Message('pitchwheel', channel=8, pitch=-1148, time=9),
    Message('pitchwheel', channel=8, pitch=-1158, time=10),
    Message('pitchwheel', channel=8, pitch=-1168, time=9),
    Message('control_change', channel=8, control=64, value=0, time=6),
    Message('pitchwheel', channel=8, pitch=-1178, time=4),
    Message('pitchwheel', channel=8, pitch=-1188, time=10),
    Message('note_off', channel=8, note=63, velocity=64, time=5),
    Message('pitchwheel', channel=8, pitch=-1198, time=10),
    Message('pitchwheel', channel=8, pitch=-1208, time=4),
    Message('note_on', channel=8, note=56, velocity=102, time=7),
    Message('pitchwheel', channel=8, pitch=-1218, time=2),
    Message('pitchwheel', channel=8, pitch=-1228, time=19),
    Message('pitchwheel', channel=8, pitch=-1238, time=2),
    Message('pitchwheel', channel=8, pitch=-1247, time=8),
    Message('pitchwheel', channel=8, pitch=-1257, time=21),
    Message('pitchwheel', channel=8, pitch=-1267, time=2),
    Message('pitchwheel', channel=8, pitch=-1277, time=6),
    Message('pitchwheel', channel=8, pitch=-1287, time=10),
    Message('pitchwheel', channel=8, pitch=-1297, time=8),
    Message('pitchwheel', channel=8, pitch=-1307, time=11),
    Message('pitchwheel', channel=8, pitch=-1317, time=9),
    Message('pitchwheel', channel=8, pitch=-1327, time=14),
    Message('note_on', channel=8, note=63, velocity=105, time=4),
    Message('pitchwheel', channel=8, pitch=-1337, time=2),
    Message('pitchwheel', channel=8, pitch=-1346, time=8),
    Message('pitchwheel', channel=8, pitch=-1356, time=11),
    Message('note_off', channel=8, note=56, velocity=64, time=5),
    Message('pitchwheel', channel=8, pitch=-1366, time=4),
    Message('pitchwheel', channel=8, pitch=-1376, time=11),
    Message('pitchwheel', channel=8, pitch=-1386, time=9),
    Message('pitchwheel', channel=8, pitch=-1396, time=9),
    Message('pitchwheel', channel=8, pitch=-1406, time=10),
    Message('pitchwheel', channel=8, pitch=-1416, time=9),
    Message('pitchwheel', channel=8, pitch=-1426, time=11),
    Message('pitchwheel', channel=8, pitch=-1436, time=8),
    Message('pitchwheel', channel=8, pitch=-1446, time=9),
    Message('pitchwheel', channel=8, pitch=-1455, time=12),
    Message('pitchwheel', channel=8, pitch=-1465, time=8),
    Message('note_on', channel=8, note=53, velocity=107, time=21),
    Message('pitchwheel', channel=8, pitch=-1475, time=0),
    Message('pitchwheel', channel=8, pitch=-1485, time=2),
    Message('note_off', channel=8, note=63, velocity=64, time=1),
    Message('pitchwheel', channel=8, pitch=-1495, time=6),
    Message('pitchwheel', channel=8, pitch=-1505, time=18),
    Message('pitchwheel', channel=8, pitch=-1515, time=2),
    Message('pitchwheel', channel=8, pitch=-1525, time=8),
    Message('pitchwheel', channel=8, pitch=-1535, time=9),
    Message('pitchwheel', channel=8, pitch=-1545, time=10),
    Message('pitchwheel', channel=8, pitch=-1554, time=10),
    Message('pitchwheel', channel=8, pitch=-1564, time=9),
    Message('pitchwheel', channel=8, pitch=-1574, time=11),
    Message('pitchwheel', channel=8, pitch=-1584, time=8),
    Message('pitchwheel', channel=8, pitch=-1594, time=11),
    Message('pitchwheel', channel=8, pitch=-1604, time=10),
    Message('pitchwheel', channel=8, pitch=-1614, time=8),
    Message('pitchwheel', channel=8, pitch=-1624, time=10),
    Message('pitchwheel', channel=8, pitch=-1634, time=9),
    Message('pitchwheel', channel=8, pitch=-1644, time=10),
    Message('pitchwheel', channel=8, pitch=-1653, time=9),
    Message('pitchwheel', channel=8, pitch=-1663, time=10),
    Message('note_on', channel=8, note=63, velocity=111, time=3),
    Message('pitchwheel', channel=8, pitch=-1673, time=7),
    Message('note_off', channel=8, note=53, velocity=64, time=1),
    Message('pitchwheel', channel=8, pitch=-1683, time=8),
    Message('pitchwheel', channel=8, pitch=-1693, time=11),
    Message('pitchwheel', channel=8, pitch=-1703, time=8),
    Message('pitchwheel', channel=8, pitch=-1713, time=9),
    Message('pitchwheel', channel=8, pitch=-1723, time=11),
    Message('pitchwheel', channel=8, pitch=-1733, time=9),
    Message('pitchwheel', channel=8, pitch=-1743, time=10),
    Message('pitchwheel', channel=8, pitch=-1752, time=9),
    Message('pitchwheel', channel=8, pitch=-1762, time=14),
    Message('pitchwheel', channel=8, pitch=-1772, time=6),
    Message('pitchwheel', channel=8, pitch=-1782, time=9),
    Message('pitchwheel', channel=8, pitch=-1792, time=15),
    Message('pitchwheel', channel=8, pitch=-1802, time=4),
    Message('pitchwheel', channel=8, pitch=-1812, time=11),
    Message('pitchwheel', channel=8, pitch=-1822, time=11),
    Message('pitchwheel', channel=8, pitch=-1832, time=7),
    Message('pitchwheel', channel=8, pitch=-1842, time=10),
    Message('pitchwheel', channel=8, pitch=-1851, time=10),
    Message('pitchwheel', channel=8, pitch=-1861, time=10),
    Message('pitchwheel', channel=8, pitch=-1871, time=10),
    Message('pitchwheel', channel=8, pitch=-1881, time=8),
    Message('control_change', channel=8, control=11, value=46, time=7),
    Message('pitchwheel', channel=8, pitch=-1891, time=3),
    Message('pitchwheel', channel=8, pitch=-1901, time=9),
    Message('pitchwheel', channel=8, pitch=-1911, time=11),
    Message('pitchwheel', channel=8, pitch=-1921, time=10),
    Message('pitchwheel', channel=8, pitch=-1931, time=9),
    Message('pitchwheel', channel=8, pitch=-1941, time=10),
    Message('pitchwheel', channel=8, pitch=-1950, time=10),
    Message('control_change', channel=8, control=11, value=46, time=3),
    Message('pitchwheel', channel=8, pitch=-1960, time=6),
    Message('pitchwheel', channel=8, pitch=-1970, time=10),
    Message('control_change', channel=8, control=11, value=47, time=3),
    Message('pitchwheel', channel=8, pitch=-1980, time=6),
    Message('note_on', channel=8, note=50, velocity=116, time=4),
    Message('pitchwheel', channel=8, pitch=-1990, time=5),
    Message('pitchwheel', channel=8, pitch=-2000, time=11),
    Message('pitchwheel', channel=8, pitch=-2010, time=10),
    Message('pitchwheel', channel=8, pitch=-2020, time=9),
    Message('control_change', channel=8, control=11, value=48, time=2),
    Message('pitchwheel', channel=8, pitch=-2030, time=7),
    Message('pitchwheel', channel=8, pitch=-2040, time=12),
    Message('note_off', channel=8, note=63, velocity=64, time=7),
    Message('pitchwheel', channel=8, pitch=-2049, time=1),
    Message('pitchwheel', channel=8, pitch=-2059, time=8),
    Message('pitchwheel', channel=8, pitch=-2069, time=15),
    Message('pitchwheel', channel=8, pitch=-2079, time=5),
    Message('control_change', channel=8, control=11, value=49, time=2),
    Message('pitchwheel', channel=8, pitch=-2089, time=7),
    Message('pitchwheel', channel=8, pitch=-2099, time=16),
    Message('pitchwheel', channel=8, pitch=-2109, time=4),
    Message('pitchwheel', channel=8, pitch=-2119, time=10),
    Message('pitchwheel', channel=8, pitch=-2129, time=9),
    Message('pitchwheel', channel=8, pitch=-2139, time=10),
    Message('control_change', channel=8, control=11, value=50, time=3),
    Message('pitchwheel', channel=8, pitch=-2148, time=6),
    Message('pitchwheel', channel=8, pitch=-2158, time=10),
    Message('pitchwheel', channel=8, pitch=-2168, time=10),
    Message('pitchwheel', channel=8, pitch=-2178, time=9),
    Message('pitchwheel', channel=8, pitch=-2188, time=9),
    Message('pitchwheel', channel=8, pitch=-2198, time=9),
    Message('control_change', channel=8, control=11, value=51, time=4),
    Message('pitchwheel', channel=8, pitch=-2208, time=6),
    Message('pitchwheel', channel=8, pitch=-2218, time=9),
    Message('pitchwheel', channel=8, pitch=-2228, time=11),
    Message('pitchwheel', channel=8, pitch=-2238, time=9),
    Message('pitchwheel', channel=8, pitch=-2247, time=9),
    Message('control_change', channel=8, control=11, value=52, time=4),
    Message('pitchwheel', channel=8, pitch=-2257, time=6),
    Message('pitchwheel', channel=8, pitch=-2267, time=9),
    Message('pitchwheel', channel=8, pitch=-2277, time=11),
    Message('pitchwheel', channel=8, pitch=-2287, time=13),
    Message('pitchwheel', channel=8, pitch=-2297, time=6),
    Message('pitchwheel', channel=8, pitch=-2307, time=9),
    Message('control_change', channel=8, control=11, value=53, time=3),
    Message('pitchwheel', channel=8, pitch=-2317, time=11),
    Message('pitchwheel', channel=8, pitch=-2327, time=6),
    Message('pitchwheel', channel=8, pitch=-2337, time=10),
    Message('pitchwheel', channel=8, pitch=-2346, time=16),
    Message('pitchwheel', channel=8, pitch=-2356, time=5),
    Message('pitchwheel', channel=8, pitch=-2366, time=8),
    Message('control_change', channel=8, control=11, value=54, time=3),
    Message('pitchwheel', channel=8, pitch=-2376, time=13),
    Message('pitchwheel', channel=8, pitch=-2386, time=5),
    Message('pitchwheel', channel=8, pitch=-2396, time=7),
    Message('pitchwheel', channel=8, pitch=-2406, time=13),
    Message('pitchwheel', channel=8, pitch=-2416, time=6),
    Message('control_change', channel=8, control=11, value=55, time=3),
    Message('pitchwheel', channel=8, pitch=-2426, time=7),
    Message('pitchwheel', channel=8, pitch=-2436, time=10),
    Message('pitchwheel', channel=8, pitch=-2445, time=9),
    Message('pitchwheel', channel=8, pitch=-2455, time=10),
    Message('pitchwheel', channel=8, pitch=-2465, time=9),
    Message('pitchwheel', channel=8, pitch=-2475, time=15),
    Message('control_change', channel=8, control=11, value=56, time=1),
    Message('pitchwheel', channel=8, pitch=-2485, time=3),
    Message('pitchwheel', channel=8, pitch=-2495, time=10),
    Message('pitchwheel', channel=8, pitch=-2505, time=9),
    Message('pitchwheel', channel=8, pitch=-2515, time=9),
    Message('pitchwheel', channel=8, pitch=-2525, time=10),
    Message('pitchwheel', channel=8, pitch=-2535, time=10),
    Message('control_change', channel=8, control=11, value=57, time=4),
    Message('pitchwheel', channel=8, pitch=-2544, time=6),
    Message('pitchwheel', channel=8, pitch=-2554, time=9),
    Message('pitchwheel', channel=8, pitch=-2564, time=12),
    Message('pitchwheel', channel=8, pitch=-2574, time=7),
    Message('pitchwheel', channel=8, pitch=-2584, time=9),
    Message('pitchwheel', channel=8, pitch=-2594, time=20),
    Message('control_change', channel=8, control=11, value=58, time=1),
    Message('pitchwheel', channel=8, pitch=-2604, time=1),
    Message('pitchwheel', channel=8, pitch=-2614, time=8),
    Message('pitchwheel', channel=8, pitch=-2624, time=20),
    Message('pitchwheel', channel=8, pitch=-2634, time=1),
    Message('pitchwheel', channel=8, pitch=-2643, time=8),
    Message('control_change', channel=8, control=11, value=59, time=2),
    Message('pitchwheel', channel=8, pitch=-2653, time=7),
    Message('pitchwheel', channel=8, pitch=-2663, time=11),
    Message('pitchwheel', channel=8, pitch=-2673, time=9),
    Message('pitchwheel', channel=8, pitch=-2683, time=9),
    Message('pitchwheel', channel=8, pitch=-2693, time=10),
    Message('pitchwheel', channel=8, pitch=-2703, time=9),
    Message('control_change', channel=8, control=11, value=60, time=2),
    Message('pitchwheel', channel=8, pitch=-2713, time=9),
    Message('pitchwheel', channel=8, pitch=-2723, time=11),
    Message('pitchwheel', channel=8, pitch=-2733, time=8),
    Message('pitchwheel', channel=8, pitch=-2742, time=9),
    Message('pitchwheel', channel=8, pitch=-2752, time=9),
    Message('pitchwheel', channel=8, pitch=-2762, time=11),
    Message('control_change', channel=8, control=11, value=61, time=2),
    Message('pitchwheel', channel=8, pitch=-2772, time=7),
    Message('pitchwheel', channel=8, pitch=-2782, time=11),
    Message('pitchwheel', channel=8, pitch=-2792, time=8),
    Message('pitchwheel', channel=8, pitch=-2581, time=18),
    Message('control_change', channel=8, control=11, value=62, time=5),
    Message('pitchwheel', channel=8, pitch=-2599, time=4),
    Message('pitchwheel', channel=8, pitch=-2618, time=10),
    Message('pitchwheel', channel=8, pitch=-2636, time=10),
    Message('pitchwheel', channel=8, pitch=-2655, time=9),
    Message('pitchwheel', channel=8, pitch=-2673, time=10),
    Message('pitchwheel', channel=8, pitch=-2692, time=9),
    Message('control_change', channel=8, control=11, value=63, time=13),
    Message('pitchwheel', channel=8, pitch=-2710, time=2),
    Message('pitchwheel', channel=8, pitch=-2728, time=4),
    Message('pitchwheel', channel=8, pitch=-2747, time=9),
    Message('pitchwheel', channel=8, pitch=-2765, time=12),
    Message('pitchwheel', channel=8, pitch=-2784, time=8),
    Message('pitchwheel', channel=8, pitch=-2802, time=10),
    Message('control_change', channel=8, control=11, value=64, time=13),
    Message('pitchwheel', channel=8, pitch=-2821, time=3),
    Message('control_change', channel=8, control=91, value=0, time=0),
    Message('pitchwheel', channel=8, pitch=-2839, time=4),
    Message('pitchwheel', channel=8, pitch=-2858, time=9),
    Message('pitchwheel', channel=8, pitch=-2876, time=16),
    Message('pitchwheel', channel=8, pitch=-2894, time=4),
    Message('pitchwheel', channel=8, pitch=-2913, time=9),
    Message('control_change', channel=8, control=11, value=65, time=4),
    Message('pitchwheel', channel=8, pitch=-2931, time=6),
    Message('pitchwheel', channel=8, pitch=-2950, time=9),
    Message('pitchwheel', channel=8, pitch=-2968, time=9),
    Message('pitchwheel', channel=8, pitch=-2987, time=10),
    Message('pitchwheel', channel=8, pitch=-3005, time=9),
    Message('control_change', channel=8, control=11, value=66, time=4),
    Message('pitchwheel', channel=8, pitch=-3024, time=7),
    Message('pitchwheel', channel=8, pitch=-3042, time=9),
    Message('pitchwheel', channel=8, pitch=-3060, time=9),
    Message('pitchwheel', channel=8, pitch=-3079, time=10),
    Message('pitchwheel', channel=8, pitch=-3097, time=10),
    Message('pitchwheel', channel=8, pitch=-3116, time=10),
    Message('control_change', channel=8, control=11, value=67, time=3),
    Message('pitchwheel', channel=8, pitch=-3134, time=6),
    Message('pitchwheel', channel=8, pitch=-3153, time=9),
    Message('pitchwheel', channel=8, pitch=-3171, time=10),
    Message('pitchwheel', channel=8, pitch=-3190, time=9),
    Message('pitchwheel', channel=8, pitch=-3208, time=11),
    Message('control_change', channel=8, control=19, value=127, time=1),
    Message('pitchwheel', channel=8, pitch=-3226, time=9),
    Message('control_change', channel=8, control=11, value=68, time=2),
    Message('pitchwheel', channel=8, pitch=-3245, time=6),
    Message('pitchwheel', channel=8, pitch=-3263, time=10),
    Message('pitchwheel', channel=8, pitch=-3282, time=20),
    Message('pitchwheel', channel=8, pitch=-3300, time=0),
    Message('pitchwheel', channel=8, pitch=-3319, time=8),
    Message('pitchwheel', channel=8, pitch=-3337, time=16),
    Message('control_change', channel=8, control=11, value=69, time=1),
    Message('pitchwheel', channel=8, pitch=-3356, time=3),
    Message('pitchwheel', channel=8, pitch=-3374, time=9),
    Message('pitchwheel', channel=8, pitch=-3392, time=17),
    Message('pitchwheel', channel=8, pitch=-3411, time=2),
    Message('pitchwheel', channel=8, pitch=-3429, time=11),
    Message('control_change', channel=8, control=11, value=70, time=4),
    Message('pitchwheel', channel=8, pitch=-3448, time=13),
    Message('pitchwheel', channel=8, pitch=-3466, time=1),
    Message('pitchwheel', channel=8, pitch=-3485, time=11),
    Message('pitchwheel', channel=8, pitch=-3503, time=17),
    Message('pitchwheel', channel=8, pitch=-3522, time=6),
    Message('pitchwheel', channel=8, pitch=-3540, time=5),
    Message('control_change', channel=8, control=11, value=71, time=5),
    Message('pitchwheel', channel=8, pitch=-3558, time=4),
    Message('pitchwheel', channel=8, pitch=-3577, time=10),
    Message('pitchwheel', channel=8, pitch=-3595, time=10),
    Message('pitchwheel', channel=8, pitch=-3614, time=10),
    Message('pitchwheel', channel=8, pitch=-3632, time=10),
    Message('pitchwheel', channel=8, pitch=-3651, time=8),
    Message('control_change', channel=8, control=11, value=72, time=5),
    Message('pitchwheel', channel=8, pitch=-3669, time=5),
    Message('pitchwheel', channel=8, pitch=-3688, time=9),
    Message('pitchwheel', channel=8, pitch=-3706, time=9),
    Message('pitchwheel', channel=8, pitch=-3724, time=11),
    Message('pitchwheel', channel=8, pitch=-3743, time=9),
    Message('control_change', channel=8, control=11, value=73, time=4),
    Message('pitchwheel', channel=8, pitch=-3761, time=5),
    Message('pitchwheel', channel=8, pitch=-3780, time=11),
    Message('pitchwheel', channel=8, pitch=-3798, time=8),
    Message('pitchwheel', channel=8, pitch=-3817, time=11),
    Message('pitchwheel', channel=8, pitch=-3835, time=9),
    Message('pitchwheel', channel=8, pitch=-3854, time=10),
    Message('control_change', channel=8, control=11, value=74, time=4),
    Message('pitchwheel', channel=8, pitch=-3872, time=6),
    Message('pitchwheel', channel=8, pitch=-3891, time=8),
    Message('pitchwheel', channel=8, pitch=-3909, time=22),
    Message('pitchwheel', channel=8, pitch=-3927, time=1),
    Message('pitchwheel', channel=8, pitch=-3946, time=6),
    Message('pitchwheel', channel=8, pitch=-3964, time=9),
    Message('control_change', channel=8, control=11, value=75, time=16),
    Message('pitchwheel', channel=8, pitch=-3983, time=1),
    Message('pitchwheel', channel=8, pitch=-4001, time=3),
    Message('pitchwheel', channel=8, pitch=-4020, time=10),
    Message('pitchwheel', channel=8, pitch=-4038, time=10),
    Message('pitchwheel', channel=8, pitch=-4057, time=8),
    Message('pitchwheel', channel=8, pitch=-4075, time=11),
    Message('control_change', channel=8, control=11, value=76, time=6),
    Message('pitchwheel', channel=8, pitch=-4093, time=3),
    Message('pitchwheel', channel=8, pitch=-4112, time=10),
    Message('pitchwheel', channel=8, pitch=-4130, time=9),
    Message('pitchwheel', channel=8, pitch=-4149, time=9),
    Message('pitchwheel', channel=8, pitch=-4167, time=11),
    Message('control_change', channel=8, control=11, value=77, time=3),
    Message('pitchwheel', channel=8, pitch=-4186, time=6),
    Message('pitchwheel', channel=8, pitch=-4204, time=10),
    Message('pitchwheel', channel=8, pitch=-4223, time=10),
    Message('pitchwheel', channel=8, pitch=-4241, time=9),
    Message('pitchwheel', channel=8, pitch=-4259, time=9),
    Message('pitchwheel', channel=8, pitch=-4278, time=13),
    Message('control_change', channel=8, control=11, value=78, time=2),
    Message('pitchwheel', channel=8, pitch=-4296, time=5),
    Message('pitchwheel', channel=8, pitch=-4315, time=11),
    Message('pitchwheel', channel=8, pitch=-4333, time=8),
    Message('pitchwheel', channel=8, pitch=-4352, time=9),
    Message('pitchwheel', channel=8, pitch=-4370, time=11),
    Message('pitchwheel', channel=8, pitch=-4389, time=8),
    Message('control_change', channel=8, control=11, value=79, time=5),
    Message('pitchwheel', channel=8, pitch=-4407, time=6),
    Message('pitchwheel', channel=8, pitch=-4425, time=9),
    Message('pitchwheel', channel=8, pitch=-4444, time=10),
    Message('pitchwheel', channel=8, pitch=-4462, time=9),
    Message('pitchwheel', channel=8, pitch=-4481, time=10),
    Message('control_change', channel=8, control=11, value=80, time=12),
    Message('pitchwheel', channel=8, pitch=-4499, time=1),
    Message('pitchwheel', channel=8, pitch=-4518, time=6),
    Message('pitchwheel', channel=8, pitch=-4536, time=9),
    Message('pitchwheel', channel=8, pitch=-4555, time=14),
    Message('pitchwheel', channel=8, pitch=-4573, time=6),
    Message('pitchwheel', channel=8, pitch=-4591, time=10),
    Message('control_change', channel=8, control=11, value=81, time=4),
    Message('pitchwheel', channel=8, pitch=-4610, time=9),
    Message('pitchwheel', channel=8, pitch=-4628, time=6),
    Message('pitchwheel', channel=8, pitch=-4647, time=10),
    Message('pitchwheel', channel=8, pitch=-4665, time=14),
    Message('pitchwheel', channel=8, pitch=-4684, time=5),
    Message('pitchwheel', channel=8, pitch=-4702, time=9),
    Message('control_change', channel=8, control=11, value=82, time=4),
    Message('pitchwheel', channel=8, pitch=-4721, time=7),
    Message('pitchwheel', channel=8, pitch=-4739, time=8),
    Message('pitchwheel', channel=8, pitch=-4757, time=9),
    Message('pitchwheel', channel=8, pitch=-4776, time=11),
    Message('pitchwheel', channel=8, pitch=-4794, time=10),
    Message('pitchwheel', channel=8, pitch=-4813, time=9),
    Message('control_change', channel=8, control=11, value=83, time=4),
    Message('pitchwheel', channel=8, pitch=-4831, time=5),
    Message('pitchwheel', channel=8, pitch=-4850, time=10),
    Message('pitchwheel', channel=8, pitch=-4868, time=10),
    Message('pitchwheel', channel=8, pitch=-4887, time=9),
    Message('pitchwheel', channel=8, pitch=-4905, time=13),
    Message('control_change', channel=8, control=11, value=84, time=1),
    Message('pitchwheel', channel=8, pitch=-4923, time=5),
    Message('pitchwheel', channel=8, pitch=-4942, time=10),
    Message('note_off', channel=8, note=50, velocity=64, time=6),
    Message('pitchwheel', channel=8, pitch=-4960, time=4),
    Message('pitchwheel', channel=8, pitch=-4979, time=9),
    Message('pitchwheel', channel=8, pitch=-4997, time=10),
    Message('pitchwheel', channel=8, pitch=-8192, time=14),
    Message('control_change', channel=8, control=11, value=85, time=1),
    Message('control_change', channel=8, control=11, value=86, time=61),
    Message('control_change', channel=8, control=11, value=87, time=44),
    Message('control_change', channel=8, control=11, value=88, time=57),
    Message('control_change', channel=8, control=11, value=89, time=58),
    Message('control_change', channel=8, control=11, value=90, time=57),
    Message('control_change', channel=8, control=11, value=91, time=52),
    Message('control_change', channel=8, control=11, value=92, time=54),
    Message('control_change', channel=8, control=11, value=93, time=58),
    Message('control_change', channel=8, control=11, value=94, time=47),
    Message('control_change', channel=8, control=11, value=95, time=57),
    Message('control_change', channel=8, control=11, value=96, time=60),
    Message('control_change', channel=8, control=11, value=97, time=57),
    Message('control_change', channel=8, control=11, value=98, time=47),
    Message('control_change', channel=8, control=11, value=99, time=58),
    Message('control_change', channel=8, control=11, value=100, time=57),
    Message('control_change', channel=8, control=11, value=101, time=58),
    Message('control_change', channel=8, control=11, value=102, time=48),
    Message('control_change', channel=8, control=11, value=103, time=57),
    Message('control_change', channel=8, control=11, value=104, time=58),
    Message('control_change', channel=8, control=11, value=105, time=48),
    Message('control_change', channel=8, control=11, value=106, time=57),
    Message('control_change', channel=8, control=11, value=107, time=59),
    Message('control_change', channel=8, control=11, value=108, time=57),
    Message('control_change', channel=8, control=11, value=109, time=49),
    Message('control_change', channel=8, control=11, value=110, time=56),
    Message('control_change', channel=8, control=11, value=111, time=58),
    Message('control_change', channel=8, control=11, value=112, time=48),
    Message('control_change', channel=8, control=11, value=113, time=59),
    Message('control_change', channel=8, control=11, value=114, time=56),
    Message('control_change', channel=8, control=11, value=115, time=63),
    Message('control_change', channel=8, control=11, value=116, time=44),
    Message('control_change', channel=8, control=11, value=117, time=57),
    Message('control_change', channel=8, control=11, value=118, time=58),
    Message('control_change', channel=8, control=11, value=119, time=48),
    Message('control_change', channel=8, control=11, value=120, time=63),
    Message('control_change', channel=8, control=11, value=121, time=52),
    Message('control_change', channel=8, control=11, value=122, time=57),
    Message('control_change', channel=8, control=11, value=123, time=48),
    Message('control_change', channel=8, control=11, value=124, time=59),
    Message('control_change', channel=8, control=11, value=125, time=57),
    Message('control_change', channel=8, control=11, value=126, time=47),
    Message('control_change', channel=8, control=11, value=127, time=58),
    Message('control_change', channel=8, control=11, value=123, time=210),
    Message('control_change', channel=8, control=11, value=124, time=48),
    Message('control_change', channel=8, control=11, value=125, time=39),
    Message('control_change', channel=8, control=18, value=0, time=18),
    Message('control_change', channel=8, control=11, value=126, time=20),
    Message('control_change', channel=8, control=11, value=127, time=49),
    Message('control_change', channel=8, control=20, value=0, time=412),
    Message('control_change', channel=8, control=17, value=33, time=302),
    Message('control_change', channel=8, control=21, value=85, time=487),
    Message('note_on', channel=8, note=82, velocity=75, time=97),
    Message('note_on', channel=8, note=89, velocity=93, time=2),
    Message('note_on', channel=8, note=78, velocity=73, time=1),
    Message('note_on', channel=8, note=86, velocity=90, time=8),
    Message('pitchwheel', channel=8, pitch=-8105, time=1708),
    Message('pitchwheel', channel=8, pitch=-7992, time=14),
    Message('pitchwheel', channel=8, pitch=-7879, time=6),
    Message('pitchwheel', channel=8, pitch=-7765, time=43),
    Message('pitchwheel', channel=8, pitch=-7652, time=30),
    Message('pitchwheel', channel=8, pitch=-7539, time=20),
    Message('pitchwheel', channel=8, pitch=-7425, time=32),
    Message('pitchwheel', channel=8, pitch=-7312, time=18),
    Message('pitchwheel', channel=8, pitch=-7199, time=2),
    Message('pitchwheel', channel=8, pitch=-7085, time=72),
    Message('pitchwheel', channel=8, pitch=-6972, time=63),
    Message('pitchwheel', channel=8, pitch=-6858, time=135),
    Message('pitchwheel', channel=8, pitch=-6745, time=52),
    Message('pitchwheel', channel=8, pitch=-6632, time=42),
    Message('pitchwheel', channel=8, pitch=-6518, time=72),
    Message('pitchwheel', channel=8, pitch=-6405, time=61),
    Message('pitchwheel', channel=8, pitch=-6292, time=104),
    Message('pitchwheel', channel=8, pitch=-6405, time=125),
    Message('pitchwheel', channel=8, pitch=-6292, time=31),
    Message('pitchwheel', channel=8, pitch=-6178, time=54),
    Message('pitchwheel', channel=8, pitch=-6065, time=9),
    Message('pitchwheel', channel=8, pitch=-5951, time=61),
    Message('pitchwheel', channel=8, pitch=-6065, time=47),
    Message('pitchwheel', channel=8, pitch=-6178, time=5),
    Message('pitchwheel', channel=8, pitch=-6065, time=156),
    Message('pitchwheel', channel=8, pitch=-5951, time=22),
    Message('pitchwheel', channel=8, pitch=-5611, time=19),
    Message('pitchwheel', channel=8, pitch=-5498, time=13),
    Message('pitchwheel', channel=8, pitch=-5385, time=225),
    Message('pitchwheel', channel=8, pitch=-5271, time=22),
    Message('pitchwheel', channel=8, pitch=-5158, time=22),
    Message('pitchwheel', channel=8, pitch=-5044, time=19),
    Message('pitchwheel', channel=8, pitch=-4818, time=15),
    Message('pitchwheel', channel=8, pitch=-4591, time=5),
    Message('pitchwheel', channel=8, pitch=-4478, time=11),
    Message('pitchwheel', channel=8, pitch=-4364, time=10),
    Message('pitchwheel', channel=8, pitch=-4138, time=10),
    Message('pitchwheel', channel=8, pitch=-4024, time=11),
    Message('pitchwheel', channel=8, pitch=-3797, time=14),
    Message('pitchwheel', channel=8, pitch=-3684, time=18),
    Message('pitchwheel', channel=8, pitch=-3457, time=9),
    Message('pitchwheel', channel=8, pitch=-3344, time=21),
    Message('pitchwheel', channel=8, pitch=-3117, time=11),
    Message('pitchwheel', channel=8, pitch=-3004, time=43),
    Message('pitchwheel', channel=8, pitch=-2890, time=19),
    Message('pitchwheel', channel=8, pitch=-2664, time=11),
    Message('pitchwheel', channel=8, pitch=-2437, time=14),
    Message('pitchwheel', channel=8, pitch=-2097, time=6),
    Message('pitchwheel', channel=8, pitch=-1530, time=11),
    Message('pitchwheel', channel=8, pitch=-510, time=16),
    Message('pitchwheel', channel=8, pitch=0, time=5),
    Message('control_change', channel=8, control=91, value=0, time=433),
    Message('control_change', channel=8, control=21, value=0, time=315),
    Message('note_off', channel=8, note=82, velocity=64, time=105),
    Message('note_off', channel=8, note=89, velocity=64, time=1),
    Message('note_off', channel=8, note=78, velocity=64, time=1),
    Message('note_off', channel=8, note=86, velocity=64, time=0),
    Message('control_change', channel=8, control=17, value=0, time=369),
    Message('control_change', channel=8, control=64, value=38, time=22),
    Message('control_change', channel=8, control=64, value=74, time=23),
    Message('control_change', channel=8, control=18, value=23, time=24),
    Message('control_change', channel=8, control=64, value=127, time=5),
    Message('control_change', channel=8, control=19, value=127, time=773),
    Message('note_on', channel=8, note=81, velocity=62, time=71),
    Message('note_on', channel=8, note=90, velocity=70, time=438),
    Message('note_off', channel=8, note=90, velocity=64, time=228),
    Message('note_on', channel=8, note=74, velocity=18, time=166),
    Message('note_on', channel=8, note=90, velocity=77, time=18),
    Message('note_off', channel=8, note=90, velocity=64, time=299),
    Message('note_on', channel=8, note=88, velocity=63, time=241),
    Message('note_off', channel=8, note=81, velocity=64, time=79),
    Message('note_off', channel=8, note=74, velocity=64, time=176),
    Message('note_on', channel=8, note=81, velocity=33, time=152),
    Message('note_on', channel=8, note=80, velocity=43, time=366),
    Message('control_change', channel=8, control=64, value=74, time=206),
    Message('note_on', channel=8, note=68, velocity=20, time=2),
    Message('control_change', channel=8, control=64, value=38, time=18),
    Message('control_change', channel=8, control=64, value=0, time=39),
    Message('control_change', channel=8, control=64, value=38, time=35),
    Message('control_change', channel=8, control=64, value=74, time=33),
    Message('control_change', channel=8, control=64, value=127, time=20),
    Message('note_on', channel=8, note=69, velocity=20, time=222),
    Message('note_off', channel=8, note=81, velocity=64, time=47),
    Message('note_off', channel=8, note=80, velocity=64, time=0),
    Message('note_off', channel=8, note=88, velocity=64, time=49),
    Message('note_on', channel=8, note=81, velocity=76, time=286),
    Message('note_on', channel=8, note=73, velocity=23, time=26),
    Message('note_on', channel=8, note=90, velocity=87, time=371),
    Message('note_on', channel=8, note=76, velocity=57, time=16),
    Message('note_off', channel=8, note=68, velocity=64, time=12),
    Message('note_off', channel=8, note=90, velocity=64, time=186),
    Message('note_off', channel=8, note=76, velocity=64, time=32),
    Message('note_on', channel=8, note=66, velocity=48, time=149),
    Message('note_on', channel=8, note=90, velocity=80, time=4),
    Message('control_change', channel=8, control=64, value=74, time=15),
    Message('control_change', channel=8, control=64, value=38, time=31),
    Message('control_change', channel=8, control=64, value=0, time=28),
    Message('control_change', channel=8, control=64, value=38, time=19),
    Message('control_change', channel=8, control=64, value=74, time=45),
    Message('control_change', channel=8, control=64, value=127, time=24),
    Message('note_off', channel=8, note=90, velocity=64, time=287),
    Message('note_on', channel=8, note=88, velocity=60, time=370),
    Message('note_off', channel=8, note=81, velocity=64, time=10),
    Message('note_off', channel=8, note=69, velocity=64, time=159),
    Message('note_off', channel=8, note=73, velocity=64, time=48),
    Message('note_off', channel=8, note=66, velocity=64, time=22),
    Message('note_on', channel=8, note=81, velocity=32, time=191),
    Message('control_change', channel=8, control=64, value=74, time=399),
    Message('note_on', channel=8, note=80, velocity=17, time=24),
    Message('note_on', channel=8, note=64, velocity=29, time=10),
    Message('control_change', channel=8, control=64, value=38, time=6),
    Message('note_off', channel=8, note=81, velocity=64, time=14),
    Message('note_on', channel=8, note=73, velocity=14, time=46),
    Message('control_change', channel=8, control=64, value=74, time=52),
    Message('control_change', channel=8, control=64, value=127, time=39),
    Message('note_off', channel=8, note=80, velocity=64, time=270),
    Message('note_off', channel=8, note=88, velocity=64, time=53),
    Message('note_on', channel=8, note=71, velocity=52, time=348),
    Message('note_on', channel=8, note=81, velocity=92, time=259),
    Message('note_on', channel=8, note=69, velocity=60, time=3),
    Message('note_off', channel=8, note=64, velocity=64, time=138),
    Message('note_on', channel=8, note=90, velocity=100, time=115),
    Message('note_off', channel=8, note=73, velocity=64, time=108),
    Message('note_on', channel=8, note=66, velocity=65, time=24),
    Message('note_off', channel=8, note=90, velocity=64, time=74),
    Message('control_change', channel=8, control=64, value=74, time=10),
    Message('control_change', channel=8, control=64, value=38, time=30),
    Message('control_change', channel=8, control=64, value=0, time=29),
    Message('note_on', channel=8, note=88, velocity=87, time=4),
    Message('note_on', channel=8, note=90, velocity=79, time=64),
    Message('note_off', channel=8, note=88, velocity=64, time=2),
    Message('control_change', channel=8, control=64, value=38, time=52),
    Message('control_change', channel=8, control=64, value=74, time=24),
    Message('control_change', channel=8, control=64, value=127, time=31),
    Message('note_off', channel=8, note=71, velocity=64, time=52),
    Message('note_on', channel=8, note=74, velocity=35, time=38),
    Message('note_off', channel=8, note=69, velocity=64, time=63),
    Message('note_off', channel=8, note=74, velocity=64, time=55),
    Message('note_on', channel=8, note=76, velocity=77, time=120),
    Message('note_off', channel=8, note=90, velocity=64, time=75),
    Message('note_off', channel=8, note=81, velocity=64, time=61),
    Message('note_on', channel=8, note=88, velocity=76, time=112),
    Message('note_off', channel=8, note=76, velocity=64, time=404),
    Message('note_on', channel=8, note=81, velocity=53, time=1),
    Message('note_off', channel=8, note=66, velocity=64, time=49),
    Message('note_off', channel=8, note=81, velocity=64, time=321),
    Message('control_change', channel=8, control=64, value=74, time=4),
    Message('control_change', channel=8, control=64, value=38, time=22),
    Message('note_on', channel=8, note=80, velocity=49, time=1),
    Message('note_on', channel=8, note=68, velocity=35, time=5),
    Message('control_change', channel=8, control=64, value=0, time=6),
    Message('note_on', channel=8, note=76, velocity=19, time=22),
    Message('control_change', channel=8, control=64, value=38, time=100),
    Message('control_change', channel=8, control=64, value=74, time=29),
    Message('control_change', channel=8, control=64, value=127, time=31),
    Message('note_off', channel=8, note=80, velocity=64, time=325),
    Message('note_off', channel=8, note=76, velocity=64, time=195),
    Message('note_on', channel=8, note=69, velocity=33, time=148),
    Message('note_on', channel=8, note=81, velocity=46, time=12),
    Message('note_off', channel=8, note=88, velocity=64, time=66),
    Message('note_off', channel=8, note=68, velocity=64, time=90),
    Message('note_off', channel=8, note=69, velocity=64, time=240),
    Message('note_on', channel=8, note=85, velocity=61, time=212),
    Message('control_change', channel=8, control=64, value=74, time=205),
    Message('control_change', channel=8, control=64, value=38, time=21),
    Message('note_on', channel=8, note=78, velocity=48, time=11),
    Message('note_on', channel=8, note=73, velocity=16, time=6),
    Message('note_on', channel=8, note=66, velocity=19, time=5),
    Message('note_on', channel=8, note=74, velocity=14, time=29),
    Message('control_change', channel=8, control=64, value=74, time=44),
    Message('control_change', channel=8, control=64, value=127, time=34),
    Message('note_off', channel=8, note=78, velocity=64, time=366),
    Message('note_off', channel=8, note=81, velocity=64, time=89),
    Message('note_off', channel=8, note=85, velocity=64, time=156),
    Message('note_off', channel=8, note=73, velocity=64, time=184),
    Message('note_off', channel=8, note=74, velocity=64, time=11),
    Message('note_off', channel=8, note=66, velocity=64, time=266),
    Message('note_on', channel=8, note=66, velocity=36, time=1016),
    Message('note_on', channel=8, note=74, velocity=59, time=215),
    Message('note_on', channel=8, note=81, velocity=86, time=20),
    Message('control_change', channel=8, control=20, value=1, time=27),
    Message('control_change', channel=8, control=20, value=3, time=9),
    Message('control_change', channel=8, control=20, value=4, time=25),
    Message('control_change', channel=8, control=20, value=6, time=7),
    Message('control_change', channel=8, control=20, value=7, time=22),
    Message('control_change', channel=8, control=20, value=9, time=11),
    Message('control_change', channel=8, control=20, value=11, time=17),
    Message('control_change', channel=8, control=20, value=12, time=15),
    Message('control_change', channel=8, control=20, value=14, time=17),
    Message('control_change', channel=8, control=20, value=15, time=16),
    Message('control_change', channel=8, control=20, value=17, time=17),
    Message('control_change', channel=8, control=20, value=18, time=15),
    Message('control_change', channel=8, control=20, value=20, time=17),
    Message('control_change', channel=8, control=20, value=22, time=16),
    Message('control_change', channel=8, control=20, value=23, time=16),
    Message('control_change', channel=8, control=20, value=25, time=21),
    Message('control_change', channel=8, control=20, value=26, time=12),
    Message('note_on', channel=8, note=73, velocity=46, time=5),
    Message('note_off', channel=8, note=74, velocity=64, time=15),
    Message('control_change', channel=8, control=20, value=28, time=0),
    Message('control_change', channel=8, control=20, value=29, time=12),
    Message('control_change', channel=8, control=20, value=31, time=16),
    Message('control_change', channel=8, control=20, value=33, time=15),
    Message('control_change', channel=8, control=20, value=34, time=18),
    Message('control_change', channel=8, control=20, value=36, time=15),
    Message('control_change', channel=8, control=20, value=37, time=16),
    Message('control_change', channel=8, control=20, value=39, time=16),
    Message('note_on', channel=8, note=90, velocity=85, time=4),
    Message('note_off', channel=8, note=66, velocity=64, time=6),
    Message('control_change', channel=8, control=20, value=40, time=7),
    Message('control_change', channel=8, control=20, value=42, time=15),
    Message('control_change', channel=8, control=20, value=44, time=17),
    Message('control_change', channel=8, control=20, value=45, time=16),
    Message('control_change', channel=8, control=20, value=47, time=17),
    Message('control_change', channel=8, control=20, value=48, time=16),
    Message('control_change', channel=8, control=20, value=50, time=16),
    Message('control_change', channel=8, control=20, value=52, time=20),
    Message('control_change', channel=8, control=20, value=53, time=12),
    Message('control_change', channel=8, control=20, value=55, time=17),
    Message('control_change', channel=8, control=20, value=56, time=16),
    Message('note_off', channel=8, note=90, velocity=64, time=1),
    Message('note_on', channel=8, note=69, velocity=39, time=11),
    Message('control_change', channel=8, control=20, value=58, time=5),
    Message('control_change', channel=8, control=20, value=59, time=15),
    Message('control_change', channel=8, control=20, value=61, time=17),
    Message('control_change', channel=8, control=20, value=63, time=26),
    Message('control_change', channel=8, control=20, value=64, time=6),
    Message('control_change', channel=8, control=20, value=66, time=18),
    Message('control_change', channel=8, control=20, value=67, time=15),
    Message('control_change', channel=8, control=20, value=69, time=15),
    Message('control_change', channel=8, control=20, value=70, time=17),
    Message('control_change', channel=8, control=20, value=72, time=16),
    Message('control_change', channel=8, control=20, value=74, time=17),
    Message('control_change', channel=8, control=20, value=75, time=16),
    Message('control_change', channel=8, control=20, value=77, time=16),
    Message('note_on', channel=8, note=90, velocity=77, time=10),
    Message('control_change', channel=8, control=20, value=78, time=6),
    Message('note_on', channel=8, note=66, velocity=40, time=5),
    Message('control_change', channel=8, control=20, value=80, time=12),
    Message('control_change', channel=8, control=20, value=81, time=15),
    Message('control_change', channel=8, control=20, value=83, time=27),
    Message('control_change', channel=8, control=20, value=85, time=6),
    Message('control_change', channel=8, control=20, value=86, time=24),
    Message('control_change', channel=8, control=20, value=88, time=8),
    Message('control_change', channel=8, control=20, value=89, time=18),
    Message('control_change', channel=8, control=20, value=91, time=15),
    Message('control_change', channel=8, control=20, value=92, time=16),
    Message('control_change', channel=8, control=20, value=94, time=16),
    Message('control_change', channel=8, control=20, value=96, time=16),
    Message('control_change', channel=8, control=20, value=97, time=16),
    Message('control_change', channel=8, control=20, value=99, time=17),
    Message('control_change', channel=8, control=20, value=100, time=15),
    Message('control_change', channel=8, control=20, value=102, time=18),
    Message('control_change', channel=8, control=20, value=103, time=15),
    Message('control_change', channel=8, control=20, value=105, time=17),
    Message('control_change', channel=8, control=20, value=107, time=15),
    Message('control_change', channel=8, control=20, value=108, time=17),
    Message('control_change', channel=8, control=20, value=110, time=17),
    Message('note_off', channel=8, note=90, velocity=64, time=1),
    Message('control_change', channel=8, control=20, value=111, time=14),
    Message('control_change', channel=8, control=20, value=113, time=19),
    Message('control_change', channel=8, control=20, value=114, time=14),
    Message('control_change', channel=8, control=20, value=116, time=17),
    Message('control_change', channel=8, control=20, value=118, time=15),
    Message('control_change', channel=8, control=20, value=119, time=17),
    Message('control_change', channel=8, control=20, value=121, time=16),
    Message('control_change', channel=8, control=20, value=122, time=16),
    Message('control_change', channel=8, control=20, value=124, time=20),
    Message('control_change', channel=8, control=20, value=125, time=13),
    Message('control_change', channel=8, control=20, value=127, time=15),
    Message('note_on', channel=8, note=88, velocity=83, time=270),
    Message('note_on', channel=8, note=74, velocity=16, time=35),
    Message('note_off', channel=8, note=81, velocity=64, time=73),
    Message('note_off', channel=8, note=69, velocity=64, time=256),
    Message('note_off', channel=8, note=66, velocity=64, time=27),
    Message('note_on', channel=8, note=81, velocity=60, time=11),
    Message('note_off', channel=8, note=74, velocity=64, time=35),
    Message('note_off', channel=8, note=73, velocity=64, time=30),
    Message('note_off', channel=8, note=81, velocity=64, time=203),
    Message('control_change', channel=8, control=64, value=74, time=126),
    Message('note_on', channel=8, note=80, velocity=40, time=42),
    Message('control_change', channel=8, control=64, value=38, time=4),
    Message('note_on', channel=8, note=71, velocity=28, time=13),
    Message('control_change', channel=8, control=64, value=0, time=10),
    Message('note_on', channel=8, note=64, velocity=23, time=2),
    Message('note_on', channel=8, note=73, velocity=14, time=14),
    Message('control_change', channel=8, control=64, value=38, time=100),
    Message('control_change', channel=8, control=64, value=74, time=31),
    Message('control_change', channel=8, control=64, value=127, time=41),
    Message('note_off', channel=8, note=80, velocity=64, time=166),
    Message('note_off', channel=8, note=88, velocity=64, time=143),
    Message('note_on', channel=8, note=76, velocity=52, time=31),
    Message('note_on', channel=8, note=81, velocity=67, time=237),
    Message('note_off', channel=8, note=76, velocity=64, time=61),
    Message('note_off', channel=8, note=64, velocity=64, time=123),
    Message('note_on', channel=8, note=90, velocity=62, time=95),
    Message('note_off', channel=8, note=73, velocity=64, time=11),
    Message('note_off', channel=8, note=90, velocity=64, time=78),
    Message('note_on', channel=8, note=90, velocity=78, time=202),
    Message('note_off', channel=8, note=71, velocity=64, time=42),
    Message('control_change', channel=8, control=20, value=127, time=68),
    Message('control_change', channel=8, control=20, value=126, time=33),
    Message('control_change', channel=8, control=20, value=125, time=17),
    Message('control_change', channel=8, control=20, value=123, time=24),
    Message('control_change', channel=8, control=64, value=74, time=0),
    Message('control_change', channel=8, control=20, value=122, time=8),
    Message('control_change', channel=8, control=20, value=121, time=16),
    Message('note_on', channel=8, note=62, velocity=38, time=0),
    Message('control_change', channel=8, control=64, value=38, time=1),
    Message('control_change', channel=8, control=20, value=120, time=16),
    Message('control_change', channel=8, control=64, value=0, time=2),
    Message('control_change', channel=8, control=20, value=119, time=16),
    Message('control_change', channel=8, control=20, value=118, time=14),
    Message('control_change', channel=8, control=20, value=116, time=17),
    Message('control_change', channel=8, control=20, value=115, time=16),
    Message('control_change', channel=8, control=20, value=114, time=15),
    Message('control_change', channel=8, control=64, value=38, time=7),
    Message('control_change', channel=8, control=20, value=113, time=10),
    Message('control_change', channel=8, control=20, value=112, time=15),
    Message('control_change', channel=8, control=64, value=74, time=2),
    Message('control_change', channel=8, control=20, value=111, time=15),
    Message('control_change', channel=8, control=20, value=109, time=16),
    Message('control_change', channel=8, control=64, value=127, time=2),
    Message('control_change', channel=8, control=20, value=108, time=22),
    Message('control_change', channel=8, control=20, value=107, time=8),
    Message('control_change', channel=8, control=20, value=106, time=24),
    Message('control_change', channel=8, control=20, value=105, time=8),
    Message('control_change', channel=8, control=20, value=103, time=22),
    Message('control_change', channel=8, control=20, value=102, time=11),
    Message('control_change', channel=8, control=20, value=101, time=17),
    Message('control_change', channel=8, control=20, value=100, time=15),
    Message('control_change', channel=8, control=20, value=99, time=17),
    Message('control_change', channel=8, control=20, value=98, time=16),
    Message('control_change', channel=8, control=20, value=96, time=16),
    Message('control_change', channel=8, control=20, value=95, time=16),
    Message('note_off', channel=8, note=90, velocity=64, time=14),
    Message('control_change', channel=8, control=20, value=94, time=1),
    Message('control_change', channel=8, control=20, value=93, time=17),
    Message('control_change', channel=8, control=20, value=92, time=16),
    Message('control_change', channel=8, control=20, value=91, time=17),
    Message('control_change', channel=8, control=20, value=89, time=16),
    Message('control_change', channel=8, control=20, value=88, time=20),
    Message('control_change', channel=8, control=20, value=87, time=12),
    Message('control_change', channel=8, control=20, value=86, time=21),
    Message('control_change', channel=8, control=20, value=85, time=11),
    Message('control_change', channel=8, control=20, value=84, time=17),
    Message('control_change', channel=8, control=20, value=82, time=15),
    Message('note_on', channel=8, note=69, velocity=35, time=7),
    Message('control_change', channel=8, control=20, value=81, time=10),
    Message('control_change', channel=8, control=20, value=80, time=16),
    Message('control_change', channel=8, control=20, value=79, time=17),
    Message('control_change', channel=8, control=20, value=78, time=15),
    Message('control_change', channel=8, control=20, value=76, time=17),
    Message('control_change', channel=8, control=20, value=75, time=17),
    Message('control_change', channel=8, control=20, value=74, time=16),
    Message('control_change', channel=8, control=20, value=73, time=16),
    Message('control_change', channel=8, control=20, value=72, time=16),
    Message('control_change', channel=8, control=20, value=71, time=17),
    Message('control_change', channel=8, control=20, value=69, time=15),
    Message('note_off', channel=8, note=69, velocity=64, time=5),
    Message('control_change', channel=8, control=20, value=68, time=13),
    Message('note_off', channel=8, note=62, velocity=64, time=3),
    Message('control_change', channel=8, control=20, value=67, time=12),
    Message('control_change', channel=8, control=20, value=66, time=17),
    Message('note_on', channel=8, note=71, velocity=54, time=6),
    Message('control_change', channel=8, control=20, value=65, time=9),
    Message('control_change', channel=8, control=20, value=64, time=17),
    Message('control_change', channel=8, control=20, value=62, time=16),
    Message('control_change', channel=8, control=20, value=61, time=17),
    Message('control_change', channel=8, control=20, value=60, time=15),
    Message('control_change', channel=8, control=20, value=59, time=17),
    Message('control_change', channel=8, control=20, value=58, time=15),
    Message('control_change', channel=8, control=20, value=56, time=17),
    Message('control_change', channel=8, control=20, value=55, time=16),
    Message('control_change', channel=8, control=20, value=54, time=17),
    Message('control_change', channel=8, control=20, value=53, time=16),
    Message('control_change', channel=8, control=20, value=52, time=16),
    Message('control_change', channel=8, control=20, value=51, time=16),
    Message('control_change', channel=8, control=20, value=49, time=16),
    Message('control_change', channel=8, control=20, value=48, time=17),
    Message('control_change', channel=8, control=20, value=47, time=23),
    Message('control_change', channel=8, control=20, value=46, time=8),
    Message('note_on', channel=8, note=93, velocity=103, time=11),
    Message('control_change', channel=8, control=20, value=45, time=12),
    Message('control_change', channel=8, control=20, value=44, time=10),
    Message('control_change', channel=8, control=20, value=42, time=17),
    Message('control_change', channel=8, control=20, value=41, time=15),
    Message('control_change', channel=8, control=20, value=40, time=20),
    Message('control_change', channel=8, control=20, value=39, time=13),
    Message('control_change', channel=8, control=20, value=38, time=16),
    Message('control_change', channel=8, control=20, value=37, time=16),
    Message('control_change', channel=8, control=20, value=35, time=17),
    Message('control_change', channel=8, control=20, value=34, time=15),
    Message('control_change', channel=8, control=20, value=33, time=18),
    Message('control_change', channel=8, control=20, value=32, time=15),
    Message('control_change', channel=8, control=20, value=31, time=17),
    Message('control_change', channel=8, control=20, value=29, time=21),
    Message('control_change', channel=8, control=20, value=28, time=11),
    Message('control_change', channel=8, control=20, value=27, time=23),
    Message('control_change', channel=8, control=20, value=26, time=10),
    Message('control_change', channel=8, control=20, value=25, time=21),
    Message('control_change', channel=8, control=20, value=24, time=11),
    Message('control_change', channel=8, control=20, value=22, time=15),
    Message('control_change', channel=8, control=20, value=21, time=17),
    Message('control_change', channel=8, control=20, value=20, time=16),
    Message('note_on', channel=8, note=92, velocity=77, time=1),
    Message('note_off', channel=8, note=93, velocity=64, time=1),
    Message('control_change', channel=8, control=20, value=19, time=15),
    Message('control_change', channel=8, control=20, value=18, time=15),
    Message('control_change', channel=8, control=20, value=17, time=17),
    Message('control_change', channel=8, control=20, value=15, time=16),
    Message('control_change', channel=8, control=20, value=14, time=16),
    Message('control_change', channel=8, control=20, value=13, time=16),
    Message('control_change', channel=8, control=20, value=12, time=17),
    Message('control_change', channel=8, control=20, value=11, time=15),
    Message('control_change', channel=8, control=20, value=9, time=22),
    Message('note_on', channel=8, note=61, velocity=33, time=2),
    Message('control_change', channel=8, control=20, value=8, time=9),
    Message('control_change', channel=8, control=20, value=7, time=19),
    Message('control_change', channel=8, control=20, value=6, time=14),
    Message('control_change', channel=8, control=20, value=5, time=16),
    Message('control_change', channel=8, control=20, value=4, time=16),
    Message('control_change', channel=8, control=20, value=2, time=16),
    Message('control_change', channel=8, control=64, value=74, time=1),
    Message('control_change', channel=8, control=20, value=1, time=15),
    Message('control_change', channel=8, control=64, value=38, time=3),
    Message('note_off', channel=8, note=92, velocity=64, time=10),
    Message('control_change', channel=8, control=20, value=0, time=4),
    Message('note_on', channel=8, note=88, velocity=74, time=5),
    Message('control_change', channel=8, control=64, value=74, time=73),
    Message('control_change', channel=8, control=64, value=127, time=25),
    Message('note_off', channel=8, note=88, velocity=64, time=138),
    Message('note_on', channel=8, note=66, velocity=57, time=28),
    Message('note_off', channel=8, note=81, velocity=64, time=126),
    Message('note_off', channel=8, note=71, velocity=64, time=51),
    Message('note_on', channel=8, note=69, velocity=39, time=126),
    Message('note_off', channel=8, note=69, velocity=64, time=145),
    Message('note_on', channel=8, note=68, velocity=61, time=10),
    Message('note_on', channel=8, note=81, velocity=88, time=164),
    Message('note_on', channel=8, note=71, velocity=69, time=204),
    Message('note_off', channel=8, note=61, velocity=64, time=81),
    Message('note_off', channel=8, note=66, velocity=64, time=28),
    Message('note_off', channel=8, note=68, velocity=64, time=12),
    Message('note_on', channel=8, note=76, velocity=81, time=24),
    Message('note_on', channel=8, note=88, velocity=91, time=134),
    Message('note_off', channel=8, note=88, velocity=64, time=75),
    Message('control_change', channel=8, control=64, value=74, time=161),
    Message('note_on', channel=8, note=66, velocity=60, time=11),
    Message('note_on', channel=8, note=88, velocity=85, time=3),
    Message('control_change', channel=8, control=64, value=38, time=8),
    Message('control_change', channel=8, control=64, value=0, time=27),
    Message('note_off', channel=8, note=71, velocity=64, time=64),
    Message('control_change', channel=8, control=64, value=38, time=8),
    Message('control_change', channel=8, control=64, value=74, time=25),
    Message('control_change', channel=8, control=64, value=127, time=30),
    Message('note_off', channel=8, note=88, velocity=64, time=23),
    Message('note_on', channel=8, note=73, velocity=32, time=55),
    Message('note_off', channel=8, note=76, velocity=64, time=39),
    Message('note_on', channel=8, note=90, velocity=69, time=124),
    Message('note_off', channel=8, note=81, velocity=64, time=104),
    Message('note_on', channel=8, note=74, velocity=22, time=92),
    Message('note_on', channel=8, note=88, velocity=70, time=146),
    Message('note_off', channel=8, note=90, velocity=64, time=8),
    Message('note_off', channel=8, note=73, velocity=64, time=158),
    Message('note_off', channel=8, note=88, velocity=64, time=224),
    Message('note_on', channel=8, note=81, velocity=61, time=39),
    Message('note_off', channel=8, note=66, velocity=64, time=43),
    Message('note_off', channel=8, note=74, velocity=64, time=21),
    Message('control_change', channel=8, control=64, value=74, time=303),
    Message('note_on', channel=8, note=73, velocity=16, time=14),
    Message('note_on', channel=8, note=80, velocity=42, time=2),
    Message('control_change', channel=8, control=64, value=38, time=13),
    Message('note_off', channel=8, note=81, velocity=64, time=1),
    Message('note_on', channel=8, note=64, velocity=34, time=4),
    Message('control_change', channel=8, control=64, value=0, time=20),
    Message('control_change', channel=8, control=64, value=38, time=86),
    Message('control_change', channel=8, control=64, value=74, time=34),
    Message('control_change', channel=8, control=64, value=127, time=48),
    Message('note_off', channel=8, note=80, velocity=64, time=175),
    Message('note_off', channel=8, note=73, velocity=64, time=256),
    Message('note_on', channel=8, note=69, velocity=17, time=112),
    Message('note_on', channel=8, note=81, velocity=57, time=46),
    Message('note_off', channel=8, note=64, velocity=64, time=210),
    Message('note_off', channel=8, note=81, velocity=64, time=169),
    Message('control_change', channel=8, control=64, value=74, time=412),
    Message('control_change', channel=8, control=64, value=38, time=23),
    Message('note_on', channel=8, note=71, velocity=66, time=20),
    Message('note_on', channel=8, note=76, velocity=64, time=0),
    Message('note_on', channel=8, note=62, velocity=37, time=9),
    Message('control_change', channel=8, control=64, value=0, time=9),
    Message('note_off', channel=8, note=71, velocity=64, time=46),
    Message('note_off', channel=8, note=76, velocity=64, time=2),
    Message('note_on', channel=8, note=78, velocity=61, time=5),
    Message('note_on', channel=8, note=73, velocity=35, time=17),
    Message('control_change', channel=8, control=64, value=38, time=132),
    Message('control_change', channel=8, control=64, value=74, time=35),
    Message('control_change', channel=8, control=64, value=127, time=38),
    Message('note_on', channel=8, note=66, velocity=37, time=110),
    Message('note_off', channel=8, note=69, velocity=64, time=181),
    Message('note_off', channel=8, note=66, velocity=64, time=194),
    Message('note_on', channel=8, note=64, velocity=15, time=58),
    Message('note_off', channel=8, note=78, velocity=64, time=9),
    Message('note_off', channel=8, note=64, velocity=64, time=120),
    Message('note_off', channel=8, note=62, velocity=64, time=27),
    Message('note_off', channel=8, note=73, velocity=64, time=155),
    Message('control_change', channel=8, control=91, value=9, time=1235),
    Message('control_change', channel=8, control=64, value=0, time=2512),
    Message('control_change', channel=8, control=18, value=18, time=10741),
    Message('control_change', channel=8, control=17, value=72, time=318),
    Message('control_change', channel=8, control=19, value=0, time=82),
    Message('control_change', channel=8, control=11, value=76, time=49),
    Message('control_change', channel=8, control=11, value=77, time=28),
    Message('note_on', channel=8, note=31, velocity=99, time=22),
    Message('control_change', channel=8, control=11, value=78, time=20),
    Message('note_on', channel=8, note=47, velocity=99, time=9),
    Message('note_on', channel=8, note=74, velocity=99, time=21),
    Message('control_change', channel=8, control=11, value=79, time=6),
    Message('note_on', channel=8, note=79, velocity=99, time=12),
    Message('note_on', channel=8, note=86, velocity=127, time=24),
    Message('control_change', channel=8, control=11, value=80, time=4),
    Message('control_change', channel=8, control=11, value=81, time=36),
    Message('control_change', channel=8, control=11, value=82, time=41),
    Message('control_change', channel=8, control=64, value=127, time=35),
    Message('control_change', channel=8, control=11, value=83, time=2),
    Message('control_change', channel=8, control=11, value=84, time=37),
    Message('control_change', channel=8, control=64, value=127, time=16),
    Message('control_change', channel=8, control=11, value=85, time=13),
    Message('note_on', channel=8, note=38, velocity=62, time=16),
    Message('control_change', channel=8, control=11, value=86, time=22),
    Message('control_change', channel=8, control=11, value=87, time=39),
    Message('note_off', channel=8, note=38, velocity=64, time=8),
    Message('control_change', channel=8, control=64, value=127, time=20),
    Message('control_change', channel=8, control=11, value=88, time=10),
    Message('control_change', channel=8, control=11, value=89, time=38),
    Message('note_off', channel=8, note=47, velocity=64, time=11),
    Message('note_off', channel=8, note=31, velocity=64, time=1),
    Message('control_change', channel=8, control=64, value=127, time=36),
    Message('control_change', channel=8, control=11, value=90, time=1),
    Message('note_off', channel=8, note=74, velocity=64, time=14),
    Message('note_off', channel=8, note=79, velocity=64, time=1),
    Message('control_change', channel=8, control=11, value=91, time=13),
    Message('note_off', channel=8, note=86, velocity=64, time=3),
    Message('note_on', channel=8, note=47, velocity=96, time=26),
    Message('control_change', channel=8, control=11, value=92, time=10),
    Message('note_off', channel=8, note=47, velocity=64, time=31),
    Message('control_change', channel=8, control=11, value=93, time=8),
    Message('control_change', channel=8, control=11, value=94, time=28),
    Message('control_change', channel=8, control=11, value=95, time=41),
    Message('control_change', channel=8, control=11, value=96, time=36),
    Message('control_change', channel=8, control=11, value=97, time=39),
    Message('control_change', channel=8, control=11, value=98, time=37),
    Message('note_on', channel=8, note=50, velocity=96, time=14),
    Message('control_change', channel=8, control=11, value=99, time=28),
    Message('note_off', channel=8, note=50, velocity=64, time=17),
    Message('control_change', channel=8, control=11, value=100, time=19),
    Message('control_change', channel=8, control=11, value=101, time=38),
    Message('control_change', channel=8, control=11, value=102, time=28),
    Message('control_change', channel=8, control=11, value=103, time=40),
    Message('control_change', channel=8, control=11, value=104, time=38),
    Message('note_on', channel=8, note=55, velocity=99, time=32),
    Message('control_change', channel=8, control=11, value=105, time=6),
    Message('control_change', channel=8, control=11, value=106, time=39),
    Message('note_off', channel=8, note=55, velocity=64, time=14),
    Message('control_change', channel=8, control=11, value=107, time=24),
    Message('control_change', channel=8, control=11, value=108, time=38),
    Message('control_change', channel=8, control=11, value=109, time=39),
    Message('control_change', channel=8, control=11, value=110, time=39),
    Message('control_change', channel=8, control=11, value=111, time=28),
    Message('note_on', channel=8, note=59, velocity=96, time=6),
    Message('control_change', channel=8, control=11, value=112, time=36),
    Message('note_off', channel=8, note=59, velocity=64, time=35),
    Message('control_change', channel=8, control=11, value=113, time=0),
    Message('control_change', channel=8, control=11, value=114, time=39),
    Message('control_change', channel=8, control=11, value=115, time=37),
    Message('control_change', channel=8, control=11, value=116, time=40),
    Message('control_change', channel=8, control=11, value=117, time=38),
    Message('note_on', channel=8, note=62, velocity=107, time=16),
    Message('control_change', channel=8, control=11, value=118, time=22),
    Message('note_off', channel=8, note=62, velocity=64, time=45),
    Message('control_change', channel=8, control=11, value=119, time=2),
    Message('control_change', channel=8, control=11, value=120, time=25),
    Message('control_change', channel=8, control=11, value=121, time=34),
    Message('control_change', channel=8, control=11, value=122, time=38),
    Message('control_change', channel=8, control=11, value=123, time=37),
    Message('note_on', channel=8, note=67, velocity=107, time=38),
    Message('control_change', channel=8, control=11, value=124, time=2),
    Message('control_change', channel=8, control=11, value=125, time=38),
    Message('note_off', channel=8, note=67, velocity=64, time=20),
    Message('control_change', channel=8, control=11, value=126, time=17),
    Message('control_change', channel=8, control=11, value=127, time=49),
    Message('note_on', channel=8, note=70, velocity=118, time=118),
    Message('note_on', channel=8, note=66, velocity=112, time=0),
    Message('note_on', channel=8, note=56, velocity=112, time=1),
    Message('note_on', channel=8, note=62, velocity=118, time=0),
    Message('note_on', channel=8, note=28, velocity=112, time=1),
    Message('note_on', channel=8, note=40, velocity=106, time=2),
    Message('control_change', channel=8, control=64, value=0, time=41),
    Message('control_change', channel=8, control=64, value=127, time=51),
    Message('control_change', channel=8, control=21, value=5, time=485),
    Message('control_change', channel=8, control=21, value=12, time=51),
    Message('control_change', channel=8, control=21, value=13, time=2),
    Message('control_change', channel=8, control=21, value=15, time=20),
    Message('control_change', channel=8, control=21, value=16, time=11),
    Message('control_change', channel=8, control=21, value=18, time=9),
    Message('control_change', channel=8, control=21, value=19, time=11),
    Message('control_change', channel=8, control=21, value=20, time=10),
    Message('control_change', channel=8, control=21, value=21, time=11),
    Message('control_change', channel=8, control=21, value=23, time=18),
    Message('control_change', channel=8, control=21, value=25, time=14),
    Message('control_change', channel=8, control=21, value=26, time=21),
    Message('control_change', channel=8, control=21, value=28, time=7),
    Message('control_change', channel=8, control=21, value=30, time=8),
    Message('control_change', channel=8, control=21, value=32, time=12),
    Message('control_change', channel=8, control=21, value=34, time=12),
    Message('control_change', channel=8, control=21, value=35, time=12),
    Message('control_change', channel=8, control=21, value=36, time=11),
    Message('control_change', channel=8, control=21, value=38, time=12),
    Message('control_change', channel=8, control=21, value=39, time=11),
    Message('control_change', channel=8, control=21, value=41, time=12),
    Message('control_change', channel=8, control=21, value=42, time=12),
    Message('control_change', channel=8, control=21, value=43, time=12),
    Message('control_change', channel=8, control=21, value=44, time=11),
    Message('control_change', channel=8, control=21, value=46, time=22),
    Message('control_change', channel=8, control=21, value=47, time=22),
    Message('control_change', channel=8, control=21, value=48, time=12),
    Message('control_change', channel=8, control=21, value=50, time=15),
    Message('control_change', channel=8, control=21, value=52, time=18),
    Message('control_change', channel=8, control=21, value=53, time=14),
    Message('control_change', channel=8, control=21, value=55, time=10),
    Message('control_change', channel=8, control=21, value=56, time=20),
    Message('control_change', channel=8, control=21, value=57, time=13),
    Message('control_change', channel=8, control=21, value=58, time=18),
    Message('control_change', channel=8, control=21, value=60, time=5),
    Message('control_change', channel=8, control=21, value=61, time=11),
    Message('control_change', channel=8, control=21, value=62, time=34),
    Message('control_change', channel=8, control=21, value=63, time=22),
    Message('control_change', channel=8, control=21, value=64, time=62),
    Message('control_change', channel=8, control=21, value=66, time=16),
    Message('control_change', channel=8, control=21, value=70, time=7),
    Message('control_change', channel=8, control=21, value=71, time=12),
    Message('control_change', channel=8, control=21, value=74, time=12),
    Message('control_change', channel=8, control=21, value=78, time=11),
    Message('control_change', channel=8, control=21, value=81, time=18),
    Message('control_change', channel=8, control=21, value=83, time=6),
    Message('control_change', channel=8, control=21, value=85, time=11),
    Message('control_change', channel=8, control=21, value=87, time=22),
    Message('control_change', channel=8, control=21, value=88, time=21),
    Message('control_change', channel=8, control=21, value=89, time=3),
    Message('control_change', channel=8, control=21, value=90, time=11),
    Message('control_change', channel=8, control=21, value=91, time=12),
    Message('control_change', channel=8, control=21, value=92, time=12),
    Message('control_change', channel=8, control=21, value=95, time=11),
    Message('control_change', channel=8, control=21, value=96, time=13),
    Message('control_change', channel=8, control=21, value=100, time=11),
    Message('control_change', channel=8, control=21, value=102, time=12),
    Message('control_change', channel=8, control=21, value=104, time=11),
    Message('control_change', channel=8, control=21, value=106, time=12),
    Message('control_change', channel=8, control=21, value=107, time=15),
    Message('control_change', channel=8, control=21, value=108, time=8),
    Message('control_change', channel=8, control=21, value=109, time=13),
    Message('control_change', channel=8, control=21, value=110, time=10),
    Message('control_change', channel=8, control=21, value=111, time=12),
    Message('control_change', channel=8, control=21, value=113, time=12),
    Message('control_change', channel=8, control=21, value=115, time=22),
    Message('control_change', channel=8, control=21, value=116, time=13),
    Message('control_change', channel=8, control=21, value=117, time=30),
    Message('control_change', channel=8, control=21, value=118, time=14),
    Message('control_change', channel=8, control=21, value=119, time=22),
    Message('control_change', channel=8, control=21, value=120, time=22),
    Message('control_change', channel=8, control=21, value=123, time=11),
    Message('control_change', channel=8, control=21, value=15, time=52),
    Message('control_change', channel=8, control=20, value=11, time=54),
    Message('control_change', channel=8, control=20, value=12, time=8),
    Message('control_change', channel=8, control=20, value=15, time=11),
    Message('control_change', channel=8, control=20, value=16, time=10),
    Message('control_change', channel=8, control=20, value=18, time=12),
    Message('control_change', channel=8, control=20, value=37, time=105),
    Message('note_off', channel=8, note=28, velocity=64, time=25),
    Message('note_off', channel=8, note=40, velocity=64, time=0),
    Message('note_off', channel=8, note=56, velocity=64, time=1),
    Message('note_off', channel=8, note=66, velocity=64, time=1),
    Message('note_off', channel=8, note=62, velocity=64, time=0),
    Message('note_off', channel=8, note=70, velocity=64, time=1),
    Message('control_change', channel=8, control=64, value=0, time=0),
    Message('note_on', channel=8, note=55, velocity=120, time=3),
    Message('note_on', channel=8, note=27, velocity=107, time=0),
    Message('note_on', channel=8, note=49, velocity=107, time=0),
    Message('note_on', channel=8, note=39, velocity=107, time=1),
    Message('control_change', channel=8, control=64, value=96, time=8),
    Message('control_change', channel=8, control=64, value=40, time=4),
    Message('control_change', channel=8, control=64, value=0, time=10),
    Message('note_off', channel=8, note=49, velocity=64, time=165),
    Message('note_off', channel=8, note=39, velocity=64, time=15),
    Message('note_off', channel=8, note=55, velocity=64, time=14),
    Message('note_off', channel=8, note=27, velocity=64, time=21),
    Message('note_on', channel=8, note=33, velocity=46, time=25),
    Message('note_off', channel=8, note=33, velocity=64, time=29),
    Message('note_on', channel=8, note=36, velocity=42, time=23),
    Message('note_on', channel=8, note=38, velocity=61, time=5),
    Message('note_off', channel=8, note=36, velocity=64, time=7),
    Message('note_on', channel=8, note=40, velocity=62, time=8),
    Message('note_off', channel=8, note=38, velocity=64, time=7),
    Message('note_on', channel=8, note=41, velocity=60, time=5),
    Message('note_off', channel=8, note=40, velocity=64, time=13),
    Message('note_on', channel=8, note=43, velocity=58, time=4),
    Message('note_on', channel=8, note=45, velocity=52, time=10),
    Message('note_off', channel=8, note=41, velocity=64, time=2),
    Message('note_off', channel=8, note=43, velocity=64, time=16),
    Message('note_on', channel=8, note=47, velocity=54, time=0),
    Message('note_off', channel=8, note=45, velocity=64, time=15),
    Message('note_on', channel=8, note=48, velocity=54, time=2),
    Message('note_off', channel=8, note=47, velocity=64, time=15),
    Message('note_on', channel=8, note=50, velocity=61, time=1),
    Message('note_off', channel=8, note=48, velocity=64, time=16),
    Message('note_on', channel=8, note=52, velocity=67, time=2),
    Message('note_off', channel=8, note=50, velocity=64, time=19),
    Message('note_on', channel=8, note=53, velocity=74, time=0),
    Message('note_off', channel=8, note=52, velocity=64, time=27),
    Message('note_on', channel=8, note=55, velocity=60, time=0),
    Message('note_off', channel=8, note=53, velocity=64, time=14),
    Message('note_off', channel=8, note=55, velocity=64, time=26),
    Message('note_on', channel=8, note=34, velocity=97, time=458),
    Message('note_off', channel=8, note=34, velocity=64, time=17),
    Message('note_on', channel=8, note=43, velocity=53, time=130),
    Message('note_on', channel=8, note=45, velocity=94, time=5),
    Message('note_off', channel=8, note=43, velocity=64, time=16),
    Message('note_on', channel=8, note=47, velocity=75, time=4),
    Message('note_off', channel=8, note=45, velocity=64, time=19),
    Message('note_on', channel=8, note=48, velocity=65, time=4),
    Message('note_off', channel=8, note=47, velocity=64, time=23),
    Message('note_on', channel=8, note=50, velocity=79, time=3),
    Message('note_off', channel=8, note=48, velocity=64, time=24),
    Message('note_on', channel=8, note=52, velocity=87, time=3),
    Message('note_off', channel=8, note=50, velocity=64, time=30),
    Message('note_off', channel=8, note=52, velocity=64, time=5),
    Message('note_on', channel=8, note=54, velocity=60, time=1),
    Message('note_off', channel=8, note=54, velocity=64, time=38),
    Message('note_on', channel=8, note=70, velocity=112, time=33),
    Message('note_on', channel=8, note=58, velocity=112, time=2),
    Message('note_off', channel=8, note=70, velocity=64, time=126),
    Message('note_off', channel=8, note=58, velocity=64, time=5),
    Message('note_on', channel=8, note=70, velocity=124, time=110),
    Message('note_on', channel=8, note=58, velocity=118, time=3),
    Message('note_on', channel=8, note=67, velocity=83, time=104),
    Message('note_off', channel=8, note=70, velocity=64, time=45),
    Message('control_change', channel=8, control=21, value=2, time=64),
    Message('note_on', channel=8, note=65, velocity=92, time=19),
    Message('control_change', channel=8, control=21, value=7, time=32),
    Message('note_off', channel=8, note=67, velocity=64, time=1),
    Message('note_off', channel=8, note=58, velocity=64, time=2),
    Message('control_change', channel=8, control=21, value=8, time=0),
    Message('control_change', channel=8, control=21, value=10, time=9),
    Message('control_change', channel=8, control=21, value=11, time=10),
    Message('control_change', channel=8, control=21, value=13, time=10),
    Message('control_change', channel=8, control=21, value=14, time=18),
    Message('control_change', channel=8, control=21, value=16, time=3),
    Message('control_change', channel=8, control=21, value=17, time=10),
    Message('note_off', channel=8, note=65, velocity=64, time=3),
    Message('control_change', channel=8, control=21, value=20, time=18),
    Message('note_on', channel=8, note=70, velocity=118, time=1),
    Message('note_on', channel=8, note=58, velocity=103, time=0),
    Message('control_change', channel=8, control=21, value=21, time=2),
    Message('control_change', channel=8, control=21, value=22, time=8),
    Message('control_change', channel=8, control=21, value=24, time=15),
    Message('control_change', channel=8, control=21, value=28, time=25),
    Message('control_change', channel=8, control=21, value=30, time=8),
    Message('control_change', channel=8, control=21, value=31, time=9),
    Message('control_change', channel=8, control=21, value=32, time=11),
    Message('note_off', channel=8, note=58, velocity=64, time=16),
    Message('control_change', channel=8, control=21, value=33, time=17),
    Message('note_off', channel=8, note=70, velocity=64, time=9),
    Message('control_change', channel=8, control=21, value=34, time=13),
    Message('note_on', channel=8, note=73, velocity=112, time=5),
    Message('note_on', channel=8, note=61, velocity=115, time=9),
    Message('control_change', channel=8, control=21, value=35, time=8),
    Message('control_change', channel=8, control=21, value=38, time=22),
    Message('control_change', channel=8, control=21, value=40, time=13),
    Message('control_change', channel=8, control=21, value=43, time=11),
    Message('control_change', channel=8, control=21, value=47, time=12),
    Message('control_change', channel=8, control=21, value=48, time=13),
    Message('control_change', channel=8, control=21, value=54, time=12),
    Message('control_change', channel=8, control=21, value=61, time=11),
    Message('control_change', channel=8, control=21, value=64, time=17),
    Message('control_change', channel=8, control=21, value=71, time=7),
    Message('control_change', channel=8, control=21, value=73, time=12),
    Message('control_change', channel=8, control=21, value=76, time=14),
    Message('control_change', channel=8, control=21, value=77, time=14),
    Message('control_change', channel=8, control=21, value=74, time=18),
    Message('control_change', channel=8, control=21, value=69, time=12),
    Message('control_change', channel=8, control=21, value=66, time=12),
    Message('control_change', channel=8, control=21, value=56, time=12),
    Message('control_change', channel=8, control=21, value=44, time=11),
    Message('control_change', channel=8, control=21, value=29, time=13),
    Message('control_change', channel=8, control=21, value=21, time=13),
    Message('control_change', channel=8, control=21, value=8, time=11),
    Message('control_change', channel=8, control=21, value=0, time=13),
    Message('control_change', channel=8, control=20, value=88, time=83),
    Message('control_change', channel=8, control=20, value=87, time=29),
    Message('note_off', channel=8, note=73, velocity=64, time=27),
    Message('note_off', channel=8, note=61, velocity=64, time=11),
    Message('note_on', channel=8, note=50, velocity=63, time=107),
    Message('note_off', channel=8, note=50, velocity=64, time=19),
    Message('note_on', channel=8, note=34, velocity=75, time=243),
    Message('note_off', channel=8, note=34, velocity=64, time=63),
    Message('note_on', channel=8, note=66, velocity=90, time=74),
    Message('note_off', channel=8, note=66, velocity=64, time=8),
    Message('note_on', channel=8, note=43, velocity=49, time=53),
    Message('note_on', channel=8, note=45, velocity=73, time=9),
    Message('note_off', channel=8, note=43, velocity=64, time=20),
    Message('note_on', channel=8, note=49, velocity=45, time=4),
    Message('note_on', channel=8, note=48, velocity=51, time=1),
    Message('note_on', channel=8, note=47, velocity=43, time=1),
    Message('note_on', channel=8, note=51, velocity=37, time=9),
    Message('note_off', channel=8, note=49, velocity=64, time=13),
    Message('note_off', channel=8, note=45, velocity=64, time=2),
    Message('note_off', channel=8, note=51, velocity=64, time=5),
    Message('note_on', channel=8, note=53, velocity=49, time=9),
    Message('note_on', channel=8, note=52, velocity=16, time=17),
    Message('note_off', channel=8, note=47, velocity=64, time=1),
    Message('note_on', channel=8, note=50, velocity=6, time=1),
    Message('note_off', channel=8, note=48, velocity=64, time=25),
    Message('note_off', channel=8, note=53, velocity=64, time=21),
    Message('note_off', channel=8, note=50, velocity=64, time=7),
    Message('note_on', channel=8, note=53, velocity=59, time=19),
    Message('note_off', channel=8, note=52, velocity=64, time=2),
    Message('note_on', channel=8, note=82, velocity=127, time=8),
    Message('note_on', channel=8, note=68, velocity=91, time=2),
    Message('note_on', channel=8, note=77, velocity=100, time=3),
    Message('note_off', channel=8, note=53, velocity=64, time=4),
    Message('note_on', channel=8, note=80, velocity=79, time=5),
    Message('note_off', channel=8, note=80, velocity=64, time=8),
    Message('note_off', channel=8, note=77, velocity=64, time=88),
    Message('note_off', channel=8, note=68, velocity=64, time=1),
    Message('note_off', channel=8, note=82, velocity=64, time=15),
    Message('note_on', channel=8, note=82, velocity=127, time=120),
    Message('note_on', channel=8, note=77, velocity=113, time=0),
    Message('note_on', channel=8, note=68, velocity=97, time=1),
    Message('note_on', channel=8, note=80, velocity=92, time=4),
    Message('note_off', channel=8, note=80, velocity=64, time=13),
    Message('note_on', channel=8, note=80, velocity=62, time=82),
    Message('note_off', channel=8, note=80, velocity=64, time=19),
    Message('note_on', channel=8, note=79, velocity=102, time=1),
    Message('note_off', channel=8, note=82, velocity=64, time=26),
    Message('note_off', channel=8, note=77, velocity=64, time=8),
    Message('control_change', channel=8, control=21, value=2, time=23),
    Message('note_off', channel=8, note=68, velocity=64, time=1),
    Message('control_change', channel=8, control=21, value=4, time=5),
    Message('note_off', channel=8, note=79, velocity=64, time=86),
    Message('note_on', channel=8, note=77, velocity=47, time=3),
    Message('note_off', channel=8, note=77, velocity=64, time=40),
    Message('note_on', channel=8, note=67, velocity=104, time=36),
    Message('note_on', channel=8, note=82, velocity=127, time=3),
    Message('note_on', channel=8, note=77, velocity=87, time=2),
    Message('note_on', channel=8, note=73, velocity=92, time=0),
    Message('note_on', channel=8, note=69, velocity=104, time=4),
    Message('control_change', channel=8, control=21, value=27, time=9),
    Message('note_off', channel=8, note=69, velocity=64, time=4),
    Message('control_change', channel=8, control=21, value=34, time=64),
    Message('note_off', channel=8, note=67, velocity=64, time=1),
    Message('control_change', channel=8, control=21, value=35, time=15),
    Message('note_off', channel=8, note=73, velocity=64, time=1),
    Message('control_change', channel=8, control=21, value=36, time=3),
    Message('note_off', channel=8, note=82, velocity=64, time=1),
    Message('note_off', channel=8, note=77, velocity=64, time=9),
    Message('control_change', channel=8, control=21, value=38, time=13),
    Message('control_change', channel=8, control=21, value=39, time=8),
    Message('note_on', channel=8, note=77, velocity=89, time=1),
    Message('note_on', channel=8, note=78, velocity=85, time=1),
    Message('note_on', channel=8, note=67, velocity=100, time=2),
    Message('note_on', channel=8, note=73, velocity=75, time=3),
    Message('note_on', channel=8, note=79, velocity=102, time=1),
    Message('control_change', channel=8, control=21, value=41, time=4),
    Message('note_off', channel=8, note=78, velocity=64, time=8),
    Message('control_change', channel=8, control=21, value=42, time=1),
    Message('note_on', channel=8, note=82, velocity=127, time=1),
    Message('control_change', channel=8, control=21, value=43, time=9),
    Message('note_off', channel=8, note=82, velocity=64, time=10),
    Message('control_change', channel=8, control=21, value=45, time=2),
    Message('control_change', channel=8, control=21, value=46, time=9),
    Message('note_off', channel=8, note=73, velocity=64, time=6),
    Message('control_change', channel=8, control=21, value=50, time=22),
    Message('control_change', channel=8, control=21, value=53, time=8),
    Message('control_change', channel=8, control=21, value=55, time=14),
    Message('control_change', channel=8, control=21, value=57, time=11),
    Message('note_on', channel=8, note=73, velocity=4, time=7),
    Message('control_change', channel=8, control=21, value=60, time=5),
    Message('control_change', channel=8, control=21, value=64, time=15),
    Message('control_change', channel=8, control=21, value=68, time=8),
    Message('control_change', channel=8, control=21, value=77, time=13),
    Message('note_off', channel=8, note=73, velocity=64, time=9),
    Message('note_off', channel=8, note=79, velocity=64, time=0),
    Message('control_change', channel=8, control=21, value=80, time=2),
    Message('control_change', channel=8, control=21, value=84, time=12),
    Message('note_off', channel=8, note=77, velocity=64, time=6),
    Message('control_change', channel=8, control=21, value=91, time=16),
    Message('control_change', channel=8, control=21, value=95, time=3),
    Message('control_change', channel=8, control=21, value=104, time=12),
    Message('control_change', channel=8, control=21, value=110, time=15),
    Message('control_change', channel=8, control=21, value=119, time=9),
    Message('control_change', channel=8, control=21, value=125, time=21),
    Message('control_change', channel=8, control=21, value=127, time=4),
    Message('note_on', channel=8, note=65, velocity=59, time=21),
    Message('note_off', channel=8, note=67, velocity=64, time=14),
    Message('note_on', channel=8, note=64, velocity=80, time=16),
    Message('note_off', channel=8, note=65, velocity=64, time=4),
    Message('note_on', channel=8, note=62, velocity=89, time=12),
    Message('note_off', channel=8, note=64, velocity=64, time=3),
    Message('note_off', channel=8, note=62, velocity=64, time=15),
    Message('note_on', channel=8, note=60, velocity=74, time=3),
    Message('note_off', channel=8, note=60, velocity=64, time=11),
    Message('control_change', channel=8, control=21, value=124, time=87),
    Message('control_change', channel=8, control=21, value=119, time=19),
    Message('control_change', channel=8, control=21, value=115, time=6),
    Message('control_change', channel=8, control=21, value=112, time=11),
    Message('control_change', channel=8, control=21, value=106, time=13),
    Message('control_change', channel=8, control=21, value=100, time=12),
    Message('control_change', channel=8, control=21, value=83, time=16),
    Message('control_change', channel=8, control=21, value=59, time=9),
    Message('control_change', channel=8, control=21, value=37, time=11),
    Message('control_change', channel=8, control=21, value=29, time=14),
    Message('control_change', channel=8, control=21, value=11, time=10),
    Message('control_change', channel=8, control=21, value=0, time=11),
    Message('note_on', channel=8, note=67, velocity=113, time=346),
    Message('note_on', channel=8, note=65, velocity=110, time=3),
    Message('note_on', channel=8, note=61, velocity=119, time=0),
    Message('note_off', channel=8, note=65, velocity=64, time=109),
    Message('note_on', channel=8, note=62, velocity=77, time=7),
    Message('note_off', channel=8, note=67, velocity=64, time=4),
    Message('note_off', channel=8, note=61, velocity=64, time=22),
    Message('note_off', channel=8, note=62, velocity=64, time=74),
    Message('note_on', channel=8, note=34, velocity=107, time=15),
    Message('note_on', channel=8, note=46, velocity=113, time=6),
    Message('note_on', channel=8, note=62, velocity=93, time=13),
    Message('note_on', channel=8, note=60, velocity=90, time=3),
    Message('note_off', channel=8, note=60, velocity=64, time=16),
    Message('note_off', channel=8, note=62, velocity=64, time=53),
    Message('note_off', channel=8, note=34, velocity=64, time=4),
    Message('note_on', channel=8, note=70, velocity=119, time=31),
    Message('note_off', channel=8, note=46, velocity=64, time=2),
    Message('note_on', channel=8, note=66, velocity=119, time=0),
    Message('note_on', channel=8, note=72, velocity=90, time=23),
    Message('note_off', channel=8, note=72, velocity=64, time=4),
    Message('note_on', channel=8, note=67, velocity=96, time=0),
    Message('note_off', channel=8, note=66, velocity=64, time=26),
    Message('note_off', channel=8, note=67, velocity=64, time=19),
    Message('note_on', channel=8, note=67, velocity=75, time=39),
    Message('note_off', channel=8, note=70, velocity=64, time=22),
    Message('note_on', channel=8, note=65, velocity=82, time=104),
    Message('note_off', channel=8, note=67, velocity=64, time=9),
    Message('note_on', channel=8, note=62, velocity=89, time=122),
    Message('note_off', channel=8, note=65, velocity=64, time=3),
    Message('control_change', channel=8, control=21, value=2, time=2),
    Message('control_change', channel=8, control=21, value=4, time=12),
    Message('control_change', channel=8, control=21, value=5, time=13),
    Message('control_change', channel=8, control=21, value=7, time=13),
    Message('control_change', channel=8, control=21, value=9, time=10),
    Message('control_change', channel=8, control=21, value=10, time=13),
    Message('note_off', channel=8, note=62, velocity=64, time=9),
    Message('control_change', channel=8, control=21, value=13, time=2),
    Message('control_change', channel=8, control=21, value=14, time=11),
    Message('control_change', channel=8, control=21, value=19, time=17),
    Message('note_on', channel=8, note=72, velocity=110, time=8),
    Message('control_change', channel=8, control=21, value=21, time=1),
    Message('note_on', channel=8, note=66, velocity=102, time=5),
    Message('note_on', channel=8, note=65, velocity=102, time=1),
    Message('control_change', channel=8, control=21, value=25, time=4),
    Message('control_change', channel=8, control=21, value=27, time=13),
    Message('note_off', channel=8, note=66, velocity=64, time=3),
    Message('control_change', channel=8, control=21, value=29, time=8),
    Message('note_off', channel=8, note=65, velocity=64, time=18),
    Message('note_off', channel=8, note=72, velocity=64, time=1),
    Message('control_change', channel=8, control=21, value=30, time=64),
    Message('control_change', channel=8, control=21, value=31, time=45),
    Message('note_on', channel=8, note=72, velocity=119, time=85),
    Message('note_on', channel=8, note=65, velocity=113, time=3),
    Message('note_on', channel=8, note=66, velocity=127, time=1),
    Message('control_change', channel=8, control=21, value=34, time=6),
    Message('control_change', channel=8, control=21, value=35, time=21),
    Message('control_change', channel=8, control=21, value=36, time=13),
    Message('control_change', channel=8, control=21, value=37, time=11),
    Message('control_change', channel=8, control=21, value=39, time=18),
    Message('control_change', channel=8, control=21, value=40, time=14),
    Message('control_change', channel=8, control=21, value=42, time=19),
    Message('control_change', channel=8, control=21, value=43, time=4),
    Message('control_change', channel=8, control=21, value=44, time=12),
    Message('control_change', channel=8, control=21, value=45, time=13),
    Message('control_change', channel=8, control=64, value=43, time=6),
    Message('control_change', channel=8, control=21, value=47, time=3),
    Message('control_change', channel=8, control=64, value=127, time=9),
    Message('control_change', channel=8, control=21, value=51, time=13),
    Message('control_change', channel=8, control=21, value=54, time=12),
    Message('control_change', channel=8, control=21, value=59, time=21),
    Message('control_change', channel=8, control=21, value=60, time=11),
    Message('control_change', channel=8, control=21, value=63, time=13),
    Message('control_change', channel=8, control=21, value=68, time=21),
    Message('control_change', channel=8, control=21, value=72, time=14),
    Message('control_change', channel=8, control=21, value=74, time=8),
    Message('control_change', channel=8, control=21, value=79, time=12),
    Message('control_change', channel=8, control=21, value=81, time=11),
    Message('control_change', channel=8, control=21, value=86, time=10),
    Message('control_change', channel=8, control=21, value=89, time=12),
    Message('control_change', channel=8, control=21, value=91, time=12),
    Message('control_change', channel=8, control=21, value=95, time=11),
    Message('control_change', channel=8, control=21, value=88, time=42),
    Message('note_off', channel=8, note=72, velocity=64, time=9),
    Message('control_change', channel=8, control=21, value=80, time=1),
    Message('control_change', channel=8, control=21, value=76, time=18),
    Message('control_change', channel=8, control=21, value=62, time=6),
    Message('control_change', channel=8, control=21, value=46, time=10),
    Message('note_off', channel=8, note=65, velocity=64, time=11),
    Message('control_change', channel=8, control=21, value=35, time=1),
    Message('control_change', channel=8, control=21, value=22, time=13),
    Message('note_off', channel=8, note=66, velocity=64, time=7),
    Message('control_change', channel=8, control=21, value=2, time=5),
    Message('control_change', channel=8, control=21, value=0, time=9),
    Message('note_on', channel=8, note=70, velocity=113, time=15),
    Message('note_on', channel=8, note=64, velocity=110, time=1),
    Message('note_on', channel=8, note=71, velocity=107, time=2),
    Message('note_on', channel=8, note=65, velocity=119, time=1),
    Message('note_on', channel=8, note=72, velocity=110, time=1),
    Message('control_change', channel=8, control=64, value=48, time=1),
    Message('note_on', channel=8, note=68, velocity=102, time=6),
    Message('control_change', channel=8, control=64, value=0, time=3),
    Message('note_off', channel=8, note=68, velocity=64, time=6),
    Message('control_change', channel=8, control=21, value=4, time=59),
    Message('note_off', channel=8, note=72, velocity=64, time=7),
    Message('control_change', channel=8, control=21, value=7, time=5),
    Message('control_change', channel=8, control=64, value=54, time=10),
    Message('control_change', channel=8, control=21, value=11, time=2),
    Message('control_change', channel=8, control=64, value=127, time=9),
    Message('control_change', channel=8, control=21, value=14, time=2),
    Message('control_change', channel=8, control=21, value=17, time=19),
    Message('control_change', channel=8, control=21, value=18, time=5),
    Message('control_change', channel=8, control=21, value=20, time=12),
    Message('control_change', channel=8, control=21, value=24, time=15),
    Message('control_change', channel=8, control=21, value=27, time=7),
    Message('control_change', channel=8, control=21, value=30, time=12),
    Message('control_change', channel=8, control=21, value=36, time=12),
    Message('control_change', channel=8, control=21, value=40, time=12),
    Message('control_change', channel=8, control=21, value=42, time=13),
    Message('control_change', channel=8, control=21, value=46, time=11),
    Message('control_change', channel=8, control=21, value=50, time=12),
    Message('control_change', channel=8, control=21, value=52, time=11),
    Message('control_change', channel=8, control=21, value=57, time=13),
    Message('control_change', channel=8, control=21, value=61, time=12),
    Message('control_change', channel=8, control=21, value=65, time=12),
    Message('control_change', channel=8, control=21, value=69, time=13),
    Message('control_change', channel=8, control=21, value=71, time=10),
    Message('note_off', channel=8, note=65, velocity=64, time=12),
    Message('control_change', channel=8, control=21, value=74, time=1),
    Message('control_change', channel=8, control=21, value=77, time=10),
    Message('note_off', channel=8, note=70, velocity=64, time=7),
    Message('note_off', channel=8, note=64, velocity=64, time=1),
    Message('note_off', channel=8, note=71, velocity=64, time=3),
    Message('control_change', channel=8, control=21, value=79, time=2),
    Message('control_change', channel=8, control=21, value=82, time=12),
    Message('control_change', channel=8, control=20, value=89, time=12),
    Message('control_change', channel=8, control=21, value=87, time=182),
    Message('control_change', channel=8, control=20, value=80, time=162),
    Message('control_change', channel=8, control=20, value=81, time=20),
    Message('control_change', channel=8, control=20, value=82, time=0),
    Message('control_change', channel=8, control=20, value=83, time=9),
    Message('control_change', channel=8, control=20, value=84, time=9),
    Message('control_change', channel=8, control=20, value=85, time=9),
    Message('control_change', channel=8, control=20, value=86, time=10),
    Message('control_change', channel=8, control=20, value=87, time=10),
    Message('control_change', channel=8, control=20, value=88, time=10),
    Message('control_change', channel=8, control=20, value=89, time=9),
    Message('control_change', channel=8, control=20, value=90, time=9),
    Message('control_change', channel=8, control=20, value=91, time=11),
    Message('control_change', channel=8, control=20, value=92, time=9),
    Message('note_on', channel=8, note=78, velocity=107, time=1),
    Message('control_change', channel=8, control=20, value=93, time=9),
    Message('note_on', channel=8, note=82, velocity=64, time=5),
    Message('control_change', channel=8, control=20, value=94, time=4),
    Message('control_change', channel=8, control=20, value=95, time=9),
    Message('note_off', channel=8, note=82, velocity=64, time=10),
    Message('control_change', channel=8, control=20, value=96, time=2),
    Message('control_change', channel=8, control=20, value=97, time=8),
    Message('control_change', channel=8, control=20, value=98, time=10),
    Message('control_change', channel=8, control=64, value=51, time=2),
    Message('control_change', channel=8, control=20, value=99, time=7),
    Message('control_change', channel=8, control=64, value=0, time=2),
    Message('control_change', channel=8, control=20, value=100, time=10),
    Message('control_change', channel=8, control=20, value=101, time=7),
    Message('control_change', channel=8, control=20, value=102, time=10),
    Message('control_change', channel=8, control=20, value=103, time=20),
    Message('control_change', channel=8, control=20, value=104, time=3),
    Message('note_off', channel=8, note=78, velocity=64, time=2),
    Message('control_change', channel=8, control=20, value=105, time=5),
    Message('control_change', channel=8, control=20, value=106, time=16),
    Message('control_change', channel=8, control=20, value=107, time=4),
    Message('note_on', channel=8, note=79, velocity=20, time=1),
    Message('control_change', channel=8, control=20, value=108, time=8),
    Message('control_change', channel=8, control=20, value=109, time=9),
    Message('control_change', channel=8, control=20, value=110, time=13),
    Message('control_change', channel=8, control=20, value=111, time=6),
    Message('control_change', channel=8, control=20, value=112, time=9),
    Message('control_change', channel=8, control=20, value=113, time=10),
    Message('control_change', channel=8, control=20, value=114, time=9),
    Message('control_change', channel=8, control=20, value=115, time=11),
    Message('control_change', channel=8, control=20, value=116, time=11),
    Message('note_off', channel=8, note=79, velocity=64, time=5),
    Message('control_change', channel=8, control=20, value=117, time=1),
    Message('note_on', channel=8, note=82, velocity=113, time=4),
    Message('note_on', channel=8, note=70, velocity=107, time=3),
    Message('control_change', channel=8, control=20, value=118, time=6),
    Message('control_change', channel=8, control=20, value=119, time=7),
    Message('control_change', channel=8, control=20, value=120, time=11),
    Message('control_change', channel=8, control=20, value=121, time=9),
    Message('control_change', channel=8, control=20, value=122, time=9),
    Message('control_change', channel=8, control=20, value=123, time=9),
    Message('control_change', channel=8, control=20, value=124, time=10),
    Message('control_change', channel=8, control=20, value=125, time=10),
    Message('control_change', channel=8, control=20, value=126, time=10),
    Message('control_change', channel=8, control=20, value=127, time=9),
    Message('note_on', channel=8, note=79, velocity=85, time=35),
    Message('control_change', channel=8, control=20, value=127, time=14),
    Message('note_off', channel=8, note=70, velocity=64, time=3),
    Message('note_off', channel=8, note=82, velocity=64, time=28),
    Message('note_off', channel=8, note=79, velocity=64, time=55),
    Message('control_change', channel=8, control=20, value=126, time=10),
    Message('note_on', channel=8, note=73, velocity=107, time=16),
    Message('control_change', channel=8, control=20, value=125, time=4),
    Message('control_change', channel=8, control=20, value=124, time=8),
    Message('control_change', channel=8, control=20, value=123, time=21),
    Message('control_change', channel=8, control=20, value=122, time=8),
    Message('control_change', channel=8, control=20, value=121, time=19),
    Message('note_off', channel=8, note=73, velocity=64, time=18),
    Message('control_change', channel=8, control=20, value=120, time=3),
    Message('control_change', channel=8, control=20, value=119, time=9),
    Message('note_on', channel=8, note=70, velocity=90, time=18),
    Message('control_change', channel=8, control=20, value=118, time=1),
    Message('control_change', channel=8, control=20, value=117, time=19),
    Message('control_change', channel=8, control=20, value=116, time=10),
    Message('control_change', channel=8, control=20, value=115, time=21),
    Message('control_change', channel=8, control=20, value=114, time=17),
    Message('note_off', channel=8, note=70, velocity=64, time=11),
    Message('control_change', channel=8, control=20, value=113, time=1),
    Message('note_on', channel=8, note=69, velocity=65, time=1),
    Message('control_change', channel=8, control=20, value=112, time=16),
    Message('control_change', channel=8, control=20, value=111, time=12),
    Message('note_off', channel=8, note=69, velocity=64, time=7),
    Message('control_change', channel=8, control=20, value=110, time=10),
    Message('note_on', channel=8, note=49, velocity=85, time=7),
    Message('control_change', channel=8, control=20, value=109, time=12),
    Message('note_on', channel=8, note=39, velocity=48, time=1),
    Message('control_change', channel=8, control=20, value=108, time=9),
    Message('note_off', channel=8, note=49, velocity=64, time=16),
    Message('note_off', channel=8, note=39, velocity=64, time=2),
    Message('control_change', channel=8, control=20, value=107, time=1),
    Message('control_change', channel=8, control=20, value=106, time=23),
    Message('control_change', channel=8, control=20, value=105, time=5),
    Message('control_change', channel=8, control=20, value=104, time=20),
    Message('control_change', channel=8, control=20, value=103, time=19),
    Message('control_change', channel=8, control=20, value=102, time=9),
    Message('control_change', channel=8, control=20, value=101, time=19),
    Message('control_change', channel=8, control=20, value=100, time=21),
    Message('control_change', channel=8, control=20, value=99, time=8),
    Message('control_change', channel=8, control=20, value=98, time=21),
    Message('control_change', channel=8, control=20, value=97, time=7),
    Message('control_change', channel=8, control=20, value=96, time=28),
    Message('control_change', channel=8, control=20, value=95, time=11),
    Message('control_change', channel=8, control=20, value=94, time=13),
    Message('control_change', channel=8, control=20, value=93, time=16),
    Message('control_change', channel=8, control=20, value=92, time=19),
    Message('control_change', channel=8, control=20, value=91, time=9),
    Message('control_change', channel=8, control=20, value=90, time=20),
    Message('control_change', channel=8, control=20, value=89, time=21),
    Message('control_change', channel=8, control=20, value=88, time=8),
    Message('control_change', channel=8, control=20, value=87, time=19),
    Message('control_change', channel=8, control=20, value=86, time=11),
    Message('control_change', channel=8, control=20, value=85, time=18),
    Message('control_change', channel=8, control=20, value=84, time=19),
    Message('control_change', channel=8, control=20, value=83, time=10),
    Message('control_change', channel=8, control=20, value=82, time=19),
    Message('control_change', channel=8, control=20, value=81, time=24),
    Message('control_change', channel=8, control=20, value=80, time=5),
    Message('control_change', channel=8, control=20, value=79, time=25),
    Message('control_change', channel=8, control=21, value=84, time=4),
    Message('control_change', channel=8, control=20, value=78, time=8),
    Message('control_change', channel=8, control=20, value=77, time=17),
    Message('control_change', channel=8, control=20, value=76, time=13),
    Message('control_change', channel=8, control=20, value=75, time=9),
    Message('control_change', channel=8, control=20, value=74, time=21),
    Message('control_change', channel=8, control=20, value=73, time=19),
    Message('control_change', channel=8, control=20, value=72, time=8),
    Message('control_change', channel=8, control=21, value=5, time=61),
    Message('control_change', channel=8, control=20, value=30, time=1),
    Message('control_change', channel=8, control=20, value=28, time=6),
    Message('control_change', channel=8, control=21, value=2, time=1),
    Message('control_change', channel=8, control=20, value=25, time=9),
    Message('control_change', channel=8, control=21, value=0, time=1),
    Message('control_change', channel=8, control=20, value=22, time=10),
    Message('control_change', channel=8, control=20, value=21, time=10),
    Message('control_change', channel=8, control=20, value=18, time=10),
    Message('control_change', channel=8, control=20, value=16, time=11),
    Message('control_change', channel=8, control=20, value=13, time=11),
    Message('control_change', channel=8, control=20, value=11, time=10),
    Message('control_change', channel=8, control=20, value=9, time=10),
    Message('control_change', channel=8, control=20, value=6, time=23),
    Message('control_change', channel=8, control=20, value=4, time=4),
    Message('control_change', channel=8, control=20, value=3, time=5),
    Message('control_change', channel=8, control=20, value=0, time=19),
    Message('note_on', channel=8, note=76, velocity=82, time=109),
    Message('note_on', channel=8, note=82, velocity=127, time=37),
    Message('note_on', channel=8, note=70, velocity=110, time=1),
    Message('note_on', channel=8, note=77, velocity=110, time=2),
    Message('note_off', channel=8, note=76, velocity=64, time=48),
    Message('note_off', channel=8, note=82, velocity=64, time=43),
    Message('note_off', channel=8, note=70, velocity=64, time=1),
    Message('note_off', channel=8, note=77, velocity=64, time=1),
    Message('note_on', channel=8, note=82, velocity=119, time=149),
    Message('note_on', channel=8, note=77, velocity=110, time=0),
    Message('note_on', channel=8, note=70, velocity=110, time=3),
    Message('note_on', channel=8, note=68, velocity=99, time=11),
    Message('note_off', channel=8, note=68, velocity=64, time=13),
    Message('note_on', channel=8, note=67, velocity=82, time=95),
    Message('note_off', channel=8, note=82, velocity=64, time=31),
    Message('note_off', channel=8, note=77, velocity=64, time=1),
    Message('note_off', channel=8, note=70, velocity=64, time=0),
    Message('note_on', channel=8, note=41, velocity=68, time=69),
    Message('note_on', channel=8, note=40, velocity=63, time=1),
    Message('note_on', channel=8, note=45, velocity=54, time=3),
    Message('note_on', channel=8, note=47, velocity=55, time=15),
    Message('note_on', channel=8, note=65, velocity=60, time=5),
    Message('note_on', channel=8, note=43, velocity=30, time=3),
    Message('note_off', channel=8, note=67, velocity=64, time=2),
    Message('note_off', channel=8, note=40, velocity=64, time=2),
    Message('note_off', channel=8, note=45, velocity=64, time=3),
    Message('note_off', channel=8, note=47, velocity=64, time=10),
    Message('note_off', channel=8, note=41, velocity=64, time=35),
    Message('note_off', channel=8, note=65, velocity=64, time=9),
    Message('note_on', channel=8, note=45, velocity=22, time=14),
    Message('note_off', channel=8, note=43, velocity=64, time=13),
    Message('note_on', channel=8, note=47, velocity=49, time=13),
    Message('note_on', channel=8, note=70, velocity=119, time=0),
    Message('note_off', channel=8, note=45, velocity=64, time=14),
    Message('note_on', channel=8, note=48, velocity=45, time=16),
    Message('note_off', channel=8, note=47, velocity=64, time=13),
    Message('note_on', channel=8, note=50, velocity=57, time=2),
    Message('note_off', channel=8, note=48, velocity=64, time=28),
    Message('note_on', channel=8, note=52, velocity=32, time=5),
    Message('note_off', channel=8, note=50, velocity=64, time=9),
    Message('note_off', channel=8, note=70, velocity=64, time=4),
    Message('note_on', channel=8, note=53, velocity=12, time=19),
    Message('note_off', channel=8, note=52, velocity=64, time=4),
    Message('note_on', channel=8, note=73, velocity=102, time=4),
    Message('note_on', channel=8, note=61, velocity=119, time=10),
    Message('note_on', channel=8, note=67, velocity=96, time=10),
    Message('note_off', channel=8, note=53, velocity=64, time=3),
    Message('note_on', channel=8, note=55, velocity=52, time=5),
    Message('note_on', channel=8, note=57, velocity=83, time=7),
    Message('note_off', channel=8, note=55, velocity=64, time=31),
    Message('note_off', channel=8, note=57, velocity=64, time=5),
    Message('note_on', channel=8, note=57, velocity=70, time=27),
    Message('note_on', channel=8, note=59, velocity=63, time=12),
    Message('note_on', channel=8, note=55, velocity=68, time=8),
    Message('note_off', channel=8, note=59, velocity=64, time=4),
    Message('note_off', channel=8, note=67, velocity=64, time=5),
    Message('note_off', channel=8, note=57, velocity=64, time=8),
    Message('note_on', channel=8, note=53, velocity=92, time=2),
    Message('note_off', channel=8, note=55, velocity=64, time=16),
    Message('note_off', channel=8, note=61, velocity=64, time=13),
    Message('note_off', channel=8, note=73, velocity=64, time=1),
    Message('note_off', channel=8, note=53, velocity=64, time=0),
    Message('note_on', channel=8, note=52, velocity=93, time=0),
    Message('note_on', channel=8, note=50, velocity=87, time=4),
    Message('note_off', channel=8, note=50, velocity=64, time=21),
    Message('note_off', channel=8, note=52, velocity=64, time=2),
    Message('note_on', channel=8, note=50, velocity=78, time=7),
    Message('note_off', channel=8, note=50, velocity=64, time=11),
    Message('note_on', channel=8, note=48, velocity=87, time=15),
    Message('note_off', channel=8, note=48, velocity=64, time=5),
    Message('control_change', channel=8, control=21, value=2, time=395),
    Message('control_change', channel=8, control=21, value=9, time=42),
    Message('control_change', channel=8, control=21, value=10, time=10),
    Message('control_change', channel=8, control=21, value=12, time=10),
    Message('control_change', channel=8, control=21, value=13, time=13),
    Message('control_change', channel=8, control=21, value=14, time=8),
    Message('control_change', channel=8, control=21, value=17, time=10),
    Message('control_change', channel=8, control=21, value=18, time=17),
    Message('note_on', channel=8, note=76, velocity=89, time=2),
    Message('note_on', channel=8, note=70, velocity=102, time=1),
    Message('note_on', channel=8, note=74, velocity=85, time=2),
    Message('control_change', channel=8, control=21, value=19, time=0),
    Message('note_on', channel=8, note=65, velocity=61, time=7),
    Message('control_change', channel=8, control=21, value=21, time=2),
    Message('note_off', channel=8, note=74, velocity=64, time=13),
    Message('control_change', channel=8, control=21, value=22, time=0),
    Message('note_off', channel=8, note=65, velocity=64, time=3),
    Message('note_off', channel=8, note=70, velocity=64, time=3),
    Message('note_off', channel=8, note=76, velocity=64, time=9),
    Message('control_change', channel=8, control=21, value=23, time=6),
    Message('control_change', channel=8, control=21, value=24, time=22),
    Message('control_change', channel=8, control=21, value=25, time=24),
    Message('control_change', channel=8, control=21, value=26, time=22),
    Message('control_change', channel=8, control=21, value=27, time=11),
    Message('control_change', channel=8, control=21, value=29, time=12),
    Message('control_change', channel=8, control=21, value=30, time=11),
    Message('control_change', channel=8, control=21, value=33, time=13),
    Message('control_change', channel=8, control=21, value=34, time=12),
    Message('control_change', channel=8, control=21, value=36, time=12),
    Message('control_change', channel=8, control=21, value=37, time=13),
    Message('note_on', channel=8, note=82, velocity=107, time=33),
    Message('note_on', channel=8, note=68, velocity=102, time=6),
    Message('note_on', channel=8, note=70, velocity=102, time=4),
    Message('note_on', channel=8, note=76, velocity=87, time=1),
    Message('note_off', channel=8, note=76, velocity=64, time=27),
    Message('note_off', channel=8, note=68, velocity=64, time=8),
    Message('note_off', channel=8, note=70, velocity=64, time=2),
    Message('note_on', channel=8, note=70, velocity=28, time=50),
    Message('note_off', channel=8, note=82, velocity=64, time=11),
    Message('control_change', channel=8, control=21, value=39, time=45),
    Message('note_off', channel=8, note=70, velocity=64, time=6),
    Message('control_change', channel=8, control=21, value=40, time=5),
    Message('control_change', channel=8, control=21, value=43, time=10),
    Message('control_change', channel=8, control=21, value=48, time=12),
    Message('control_change', channel=8, control=21, value=52, time=12),
    Message('control_change', channel=8, control=21, value=55, time=12),
    Message('control_change', channel=8, control=21, value=57, time=10),
    Message('control_change', channel=8, control=21, value=58, time=11),
    Message('note_on', channel=8, note=70, velocity=102, time=13),
    Message('note_on', channel=8, note=82, velocity=119, time=8),
    Message('note_on', channel=8, note=80, velocity=96, time=12),
    Message('note_off', channel=8, note=80, velocity=64, time=11),
    Message('control_change', channel=8, control=21, value=54, time=9),
    Message('control_change', channel=8, control=21, value=52, time=11),
    Message('note_off', channel=8, note=82, velocity=64, time=14),
    Message('control_change', channel=8, control=21, value=47, time=0),
    Message('control_change', channel=8, control=21, value=44, time=11),
    Message('control_change', channel=8, control=21, value=37, time=16),
    Message('note_off', channel=8, note=70, velocity=64, time=9),
    Message('control_change', channel=8, control=21, value=31, time=0),
    Message('control_change', channel=8, control=21, value=29, time=11),
    Message('control_change', channel=8, control=21, value=22, time=14),
    Message('control_change', channel=8, control=21, value=18, time=9),
    Message('control_change', channel=8, control=21, value=15, time=12),
    Message('control_change', channel=8, control=21, value=18, time=33),
    Message('control_change', channel=8, control=21, value=24, time=11),
    Message('control_change', channel=8, control=21, value=29, time=10),
    Message('control_change', channel=8, control=21, value=40, time=12),
    Message('control_change', channel=8, control=21, value=50, time=12),
    Message('control_change', channel=8, control=21, value=53, time=11),
    Message('control_change', channel=8, control=21, value=60, time=11),
    Message('note_on', channel=8, note=82, velocity=113, time=5),
    Message('note_on', channel=8, note=70, velocity=107, time=2),
    Message('control_change', channel=8, control=21, value=67, time=6),
    Message('control_change', channel=8, control=21, value=69, time=11),
    Message('control_change', channel=8, control=21, value=61, time=44),
    Message('control_change', channel=8, control=21, value=57, time=20),
    Message('control_change', channel=8, control=21, value=47, time=1),
    Message('control_change', channel=8, control=21, value=44, time=12),
    Message('control_change', channel=8, control=21, value=36, time=15),
    Message('control_change', channel=8, control=21, value=29, time=7),
    Message('note_on', channel=8, note=79, velocity=80, time=7),
    Message('control_change', channel=8, control=21, value=27, time=4),
    Message('note_off', channel=8, note=82, velocity=64, time=20),
    Message('control_change', channel=8, control=21, value=29, time=2),
    Message('control_change', channel=8, control=21, value=37, time=12),
    Message('note_off', channel=8, note=70, velocity=64, time=6),
    Message('control_change', channel=8, control=21, value=46, time=7),
    Message('control_change', channel=8, control=21, value=54, time=11),
    Message('note_off', channel=8, note=79, velocity=64, time=11),
    Message('control_change', channel=8, control=21, value=57, time=1),
    Message('control_change', channel=8, control=21, value=61, time=10),
    Message('control_change', channel=8, control=21, value=62, time=12),
    Message('control_change', channel=8, control=21, value=60, time=20),
    Message('note_on', channel=8, note=77, velocity=68, time=1),
    Message('control_change', channel=8, control=21, value=49, time=14),
    Message('control_change', channel=8, control=21, value=43, time=7),
    Message('control_change', channel=8, control=21, value=25, time=12),
    Message('control_change', channel=8, control=21, value=18, time=11),
    Message('control_change', channel=8, control=21, value=12, time=11),
    Message('note_off', channel=8, note=77, velocity=64, time=6),
    Message('control_change', channel=8, control=21, value=6, time=5),
    Message('control_change', channel=8, control=21, value=4, time=12),
    Message('note_on', channel=8, note=70, velocity=99, time=31),
    Message('note_on', channel=8, note=82, velocity=113, time=2),
    Message('control_change', channel=8, control=21, value=8, time=1),
    Message('control_change', channel=8, control=21, value=9, time=9),
    Message('control_change', channel=8, control=21, value=14, time=18),
    Message('control_change', channel=8, control=21, value=18, time=5),
    Message('control_change', channel=8, control=21, value=20, time=12),
    Message('control_change', channel=8, control=21, value=21, time=17),
    Message('control_change', channel=8, control=21, value=14, time=27),
    Message('control_change', channel=8, control=21, value=11, time=10),
    Message('control_change', channel=8, control=21, value=3, time=12),
    Message('control_change', channel=8, control=21, value=0, time=10),
    Message('note_off', channel=8, note=82, velocity=64, time=5),
    Message('note_on', channel=8, note=79, velocity=74, time=16),
    Message('note_off', channel=8, note=70, velocity=64, time=10),
    Message('control_change', channel=8, control=21, value=10, time=126),
    Message('control_change', channel=8, control=21, value=15, time=23),
    Message('note_off', channel=8, note=79, velocity=64, time=1),
    Message('control_change', channel=8, control=21, value=29, time=1),
    Message('control_change', channel=8, control=21, value=31, time=10),
    Message('control_change', channel=8, control=21, value=33, time=16),
    Message('note_on', channel=8, note=78, velocity=39, time=10),
    Message('control_change', channel=8, control=21, value=27, time=5),
    Message('control_change', channel=8, control=21, value=14, time=14),
    Message('note_on', channel=8, note=75, velocity=22, time=5),
    Message('control_change', channel=8, control=21, value=8, time=7),
    Message('note_on', channel=8, note=73, velocity=75, time=4),
    Message('note_off', channel=8, note=78, velocity=64, time=3),
    Message('control_change', channel=8, control=21, value=0, time=3),
    Message('note_off', channel=8, note=75, velocity=64, time=29),
    Message('note_on', channel=8, note=70, velocity=73, time=21),
    Message('note_off', channel=8, note=73, velocity=64, time=5),
    Message('note_off', channel=8, note=70, velocity=64, time=29),
    Message('note_on', channel=8, note=68, velocity=36, time=14),
    Message('note_on', channel=8, note=66, velocity=48, time=10),
    Message('note_off', channel=8, note=68, velocity=64, time=3),
    Message('note_on', channel=8, note=63, velocity=79, time=14),
    Message('note_off', channel=8, note=66, velocity=64, time=9),
    Message('note_off', channel=8, note=63, velocity=64, time=56),
    Message('note_on', channel=8, note=46, velocity=64, time=491),
    Message('note_off', channel=8, note=46, velocity=64, time=22),
    Message('note_on', channel=8, note=34, velocity=107, time=100),
    Message('note_on', channel=8, note=38, velocity=6, time=83),
    Message('note_on', channel=8, note=40, velocity=52, time=14),
    Message('note_on', channel=8, note=46, velocity=85, time=17),
    Message('note_on', channel=8, note=45, velocity=73, time=3),
    Message('note_on', channel=8, note=41, velocity=60, time=1),
    Message('note_on', channel=8, note=43, velocity=55, time=0),
    Message('note_off', channel=8, note=34, velocity=64, time=12),
    Message('note_on', channel=8, note=82, velocity=113, time=3),
    Message('note_on', channel=8, note=70, velocity=107, time=7),
    Message('note_on', channel=8, note=47, velocity=64, time=2),
    Message('note_off', channel=8, note=38, velocity=64, time=1),
    Message('note_off', channel=8, note=46, velocity=64, time=0),
    Message('note_on', channel=8, note=37, velocity=22, time=3),
    Message('note_on', channel=8, note=80, velocity=90, time=3),
    Message('note_off', channel=8, note=80, velocity=64, time=9),
    Message('note_off', channel=8, note=37, velocity=64, time=13),
    Message('note_off', channel=8, note=40, velocity=64, time=3),
    Message('note_on', channel=8, note=48, velocity=58, time=7),
    Message('note_off', channel=8, note=41, velocity=64, time=24),
    Message('note_off', channel=8, note=70, velocity=64, time=11),
    Message('note_on', channel=8, note=50, velocity=46, time=6),
    Message('note_off', channel=8, note=82, velocity=64, time=3),
    Message('note_off', channel=8, note=43, velocity=64, time=10),
    Message('note_off', channel=8, note=45, velocity=64, time=26),
    Message('note_off', channel=8, note=47, velocity=64, time=32),
    Message('note_on', channel=8, note=52, velocity=12, time=0),
    Message('note_on', channel=8, note=53, velocity=52, time=2),
    Message('note_off', channel=8, note=48, velocity=64, time=24),
    Message('note_on', channel=8, note=55, velocity=17, time=35),
    Message('note_on', channel=8, note=82, velocity=113, time=22),
    Message('note_on', channel=8, note=70, velocity=107, time=0),
    Message('note_on', channel=8, note=78, velocity=88, time=10),
    Message('note_off', channel=8, note=78, velocity=64, time=13),
    Message('note_off', channel=8, note=50, velocity=64, time=8),
    Message('note_off', channel=8, note=52, velocity=64, time=41),
    Message('note_on', channel=8, note=61, velocity=64, time=9),
    Message('note_off', channel=8, note=53, velocity=64, time=34),
    Message('note_off', channel=8, note=55, velocity=64, time=1),
    Message('note_off', channel=8, note=61, velocity=64, time=12),
    Message('note_off', channel=8, note=82, velocity=64, time=1),
    Message('note_off', channel=8, note=70, velocity=64, time=34),
    Message('note_on', channel=8, note=60, velocity=48, time=62),
    Message('note_off', channel=8, note=60, velocity=64, time=110),
    Message('note_on', channel=8, note=58, velocity=92, time=9),
    Message('note_on', channel=8, note=54, velocity=107, time=3),
    Message('note_on', channel=8, note=60, velocity=74, time=0),
    Message('note_on', channel=8, note=82, velocity=96, time=2),
    Message('note_on', channel=8, note=73, velocity=92, time=0),
    Message('note_on', channel=8, note=75, velocity=102, time=6),
    Message('note_on', channel=8, note=56, velocity=85, time=0),
    Message('note_off', channel=8, note=56, velocity=64, time=12),
    Message('note_off', channel=8, note=75, velocity=64, time=11),
    Message('note_off', channel=8, note=58, velocity=64, time=7),
    Message('note_off', channel=8, note=60, velocity=64, time=0),
    Message('note_off', channel=8, note=73, velocity=64, time=0),
    Message('note_off', channel=8, note=82, velocity=64, time=12),
    Message('note_off', channel=8, note=54, velocity=64, time=2),
    Message('note_on', channel=8, note=60, velocity=110, time=185),
    Message('note_on', channel=8, note=58, velocity=113, time=2),
    Message('note_on', channel=8, note=54, velocity=107, time=4),
    Message('note_on', channel=8, note=84, velocity=110, time=0),
    Message('note_on', channel=8, note=80, velocity=113, time=0),
    Message('note_on', channel=8, note=75, velocity=113, time=8),
    Message('note_on', channel=8, note=56, velocity=96, time=0),
    Message('note_off', channel=8, note=56, velocity=64, time=4),
    Message('control_change', channel=8, control=64, value=85, time=3),
    Message('control_change', channel=8, control=64, value=127, time=9),
    Message('note_off', channel=8, note=60, velocity=64, time=29),
    Message('note_off', channel=8, note=75, velocity=64, time=7),
    Message('note_off', channel=8, note=54, velocity=64, time=2),
    Message('note_off', channel=8, note=58, velocity=64, time=7),
    Message('note_off', channel=8, note=80, velocity=64, time=6),
    Message('note_off', channel=8, note=84, velocity=64, time=5),
    Message('control_change', channel=8, control=64, value=85, time=267),
    Message('control_change', channel=8, control=64, value=0, time=10),
    Message('control_change', channel=8, control=64, value=33, time=94),
    Message('control_change', channel=8, control=64, value=127, time=12),
    Message('note_on', channel=8, note=61, velocity=90, time=1),
    Message('note_on', channel=8, note=53, velocity=92, time=1),
    Message('note_on', channel=8, note=59, velocity=92, time=2),
    Message('note_on', channel=8, note=91, velocity=119, time=0),
    Message('note_on', channel=8, note=81, velocity=119, time=2),
    Message('note_on', channel=8, note=64, velocity=102, time=1),
    Message('note_on', channel=8, note=85, velocity=127, time=5),
    Message('note_on', channel=8, note=89, velocity=100, time=3),
    Message('note_off', channel=8, note=89, velocity=64, time=12),
    Message('note_off', channel=8, note=64, velocity=64, time=23),
    Message('note_off', channel=8, note=91, velocity=64, time=10),
    Message('note_off', channel=8, note=61, velocity=64, time=3),
    Message('note_off', channel=8, note=59, velocity=64, time=1),
    Message('note_off', channel=8, note=85, velocity=64, time=9),
    Message('note_off', channel=8, note=81, velocity=64, time=1),
    Message('note_off', channel=8, note=53, velocity=64, time=10),
    Message('control_change', channel=8, control=20, value=2, time=352),
    Message('control_change', channel=8, control=20, value=10, time=61),
    Message('control_change', channel=8, control=21, value=3, time=20),
    Message('control_change', channel=8, control=21, value=8, time=2),
    Message('control_change', channel=8, control=21, value=18, time=10),
    Message('control_change', channel=8, control=21, value=25, time=11),
    Message('control_change', channel=8, control=21, value=28, time=11),
    Message('control_change', channel=8, control=21, value=33, time=10),
    Message('control_change', channel=8, control=21, value=41, time=10),
    Message('control_change', channel=8, control=20, value=11, time=10),
    Message('control_change', channel=8, control=21, value=46, time=3),
    Message('control_change', channel=8, control=21, value=53, time=7),
    Message('control_change', channel=8, control=21, value=73, time=11),
    Message('control_change', channel=8, control=21, value=80, time=11),
    Message('control_change', channel=8, control=21, value=89, time=19),
    Message('control_change', channel=8, control=21, value=90, time=7),
    Message('control_change', channel=8, control=21, value=92, time=7),
    Message('control_change', channel=8, control=21, value=94, time=10),
    Message('control_change', channel=8, control=20, value=13, time=71),
    Message('control_change', channel=8, control=20, value=14, time=3),
    Message('control_change', channel=8, control=20, value=15, time=12),
    Message('control_change', channel=8, control=21, value=97, time=15),
    Message('control_change', channel=8, control=20, value=117, time=227),
    Message('control_change', channel=8, control=21, value=127, time=1),
    Message('control_change', channel=8, control=21, value=124, time=19),
    Message('control_change', channel=8, control=21, value=121, time=10),
    Message('control_change', channel=8, control=21, value=119, time=14),
    Message('control_change', channel=8, control=20, value=119, time=90),
    Message('control_change', channel=8, control=20, value=121, time=10),
    Message('control_change', channel=8, control=20, value=123, time=10),
    Message('control_change', channel=8, control=20, value=124, time=12),
    Message('control_change', channel=8, control=20, value=125, time=22),
    Message('control_change', channel=8, control=64, value=88, time=95),
    Message('control_change', channel=8, control=64, value=43, time=5),
    Message('control_change', channel=8, control=64, value=0, time=10),
    Message('control_change', channel=8, control=20, value=103, time=116),
    Message('control_change', channel=8, control=21, value=3, time=1),
    Message('control_change', channel=8, control=20, value=100, time=3),
    Message('control_change', channel=8, control=20, value=96, time=6),
    Message('control_change', channel=8, control=20, value=95, time=15),
    Message('control_change', channel=8, control=20, value=91, time=6),
    Message('control_change', channel=8, control=20, value=89, time=10),
    Message('control_change', channel=8, control=21, value=1, time=4),
    Message('control_change', channel=8, control=20, value=83, time=6),
    Message('control_change', channel=8, control=21, value=0, time=3),
    Message('control_change', channel=8, control=20, value=80, time=8),
    Message('control_change', channel=8, control=20, value=76, time=9),
    Message('control_change', channel=8, control=20, value=70, time=10),
    Message('control_change', channel=8, control=20, value=69, time=11),
    Message('control_change', channel=8, control=20, value=65, time=10),
    Message('control_change', channel=8, control=21, value=2, time=24),
    Message('control_change', channel=8, control=20, value=63, time=1),
    Message('control_change', channel=8, control=20, value=55, time=13),
    Message('control_change', channel=8, control=20, value=46, time=2),
    Message('control_change', channel=8, control=21, value=0, time=1),
    Message('control_change', channel=8, control=20, value=33, time=7),
    Message('control_change', channel=8, control=20, value=24, time=24),
    Message('control_change', channel=8, control=20, value=21, time=0),
    Message('control_change', channel=8, control=20, value=14, time=10),
    Message('control_change', channel=8, control=20, value=13, time=18),
    Message('control_change', channel=8, control=20, value=12, time=57),
    Message('control_change', channel=8, control=20, value=11, time=36),
    Message('control_change', channel=8, control=20, value=7, time=9),
    Message('control_change', channel=8, control=20, value=5, time=13),
    Message('control_change', channel=8, control=20, value=2, time=10),
    Message('control_change', channel=8, control=20, value=0, time=12),
    MetaMessage('end_of_track', time=5602)]),
  MidiTrack([
    MetaMessage('track_name', name='CelloG Legato\x00ndlach.de\x00', time=0),
    MetaMessage('channel_prefix', channel=9, time=0),
    Message('control_change', channel=9, control=0, value=0, time=0),
    Message('control_change', channel=9, control=32, value=1, time=0),
    Message('program_change', channel=9, program=7, time=0),
    Message('control_change', channel=9, control=7, value=127, time=0),
    Message('control_change', channel=9, control=10, value=64, time=0),
    Message('control_change', channel=9, control=93, value=0, time=0),
    Message('control_change', channel=9, control=91, value=0, time=0),
    Message('control_change', channel=9, control=11, value=116, time=124421),
    Message('note_on', channel=9, note=33, velocity=127, time=15),
    Message('note_off', channel=9, note=33, velocity=64, time=77),
    Message('note_on', channel=9, note=40, velocity=107, time=156),
    Message('note_off', channel=9, note=40, velocity=64, time=52),
    Message('note_on', channel=9, note=57, velocity=119, time=170),
    Message('note_on', channel=9, note=64, velocity=122, time=2),
    Message('note_on', channel=9, note=59, velocity=117, time=0),
    Message('note_on', channel=9, note=45, velocity=117, time=7),
    Message('note_off', channel=9, note=57, velocity=64, time=48),
    Message('note_off', channel=9, note=59, velocity=64, time=6),
    Message('note_off', channel=9, note=64, velocity=64, time=9),
    Message('note_off', channel=9, note=45, velocity=64, time=9),
    Message('note_on', channel=9, note=49, velocity=91, time=146),
    Message('note_on', channel=9, note=52, velocity=96, time=15),
    Message('note_off', channel=9, note=49, velocity=64, time=38),
    Message('note_off', channel=9, note=52, velocity=64, time=9),
    Message('note_on', channel=9, note=47, velocity=110, time=186),
    Message('note_on', channel=9, note=62, velocity=117, time=1),
    Message('note_on', channel=9, note=57, velocity=114, time=2),
    Message('note_on', channel=9, note=55, velocity=114, time=1),
    Message('note_off', channel=9, note=57, velocity=64, time=59),
    Message('note_off', channel=9, note=62, velocity=64, time=9),
    Message('note_off', channel=9, note=55, velocity=64, time=17),
    Message('note_off', channel=9, note=47, velocity=64, time=4),
    Message('note_on', channel=9, note=55, velocity=76, time=140),
    Message('note_on', channel=9, note=49, velocity=67, time=4),
    Message('note_off', channel=9, note=55, velocity=64, time=69),
    Message('note_off', channel=9, note=49, velocity=64, time=9),
    Message('note_on', channel=9, note=66, velocity=115, time=158),
    Message('note_on', channel=9, note=57, velocity=114, time=2),
    Message('note_on', channel=9, note=50, velocity=99, time=0),
    Message('note_on', channel=9, note=55, velocity=112, time=4),
    Message('note_off', channel=9, note=57, velocity=64, time=51),
    Message('note_off', channel=9, note=55, velocity=64, time=0),
    Message('note_off', channel=9, note=66, velocity=64, time=31),
    Message('note_off', channel=9, note=50, velocity=64, time=11),
    Message('note_on', channel=9, note=47, velocity=77, time=151),
    Message('note_on', channel=9, note=55, velocity=65, time=12),
    Message('note_off', channel=9, note=55, velocity=64, time=40),
    Message('note_off', channel=9, note=47, velocity=64, time=36),
    Message('note_on', channel=9, note=57, velocity=96, time=146),
    Message('note_on', channel=9, note=52, velocity=101, time=3),
    Message('note_on', channel=9, note=59, velocity=103, time=1),
    Message('note_on', channel=9, note=64, velocity=97, time=2),
    Message('note_off', channel=9, note=57, velocity=64, time=55),
    Message('note_off', channel=9, note=59, velocity=64, time=8),
    Message('note_off', channel=9, note=64, velocity=64, time=11),
    Message('note_off', channel=9, note=52, velocity=64, time=33),
    Message('note_on', channel=9, note=49, velocity=76, time=122),
    Message('note_off', channel=9, note=49, velocity=64, time=70),
    Message('note_on', channel=9, note=61, velocity=91, time=172),
    Message('note_on', channel=9, note=45, velocity=103, time=1),
    Message('note_on', channel=9, note=57, velocity=93, time=3),
    Message('note_on', channel=9, note=59, velocity=101, time=2),
    Message('note_on', channel=9, note=52, velocity=99, time=0),
    Message('note_off', channel=9, note=57, velocity=64, time=48),
    Message('note_off', channel=9, note=59, velocity=64, time=8),
    Message('note_off', channel=9, note=61, velocity=64, time=2),
    Message('note_off', channel=9, note=52, velocity=64, time=7),
    Message('note_off', channel=9, note=45, velocity=64, time=49),
    Message('note_on', channel=9, note=47, velocity=99, time=117),
    Message('note_on', channel=9, note=52, velocity=84, time=6),
    Message('note_off', channel=9, note=52, velocity=64, time=64),
    Message('note_off', channel=9, note=47, velocity=64, time=14),
    Message('note_on', channel=9, note=50, velocity=107, time=156),
    Message('note_on', channel=9, note=59, velocity=107, time=2),
    Message('note_on', channel=9, note=55, velocity=101, time=1),
    Message('note_on', channel=9, note=52, velocity=117, time=2),
    Message('note_on', channel=9, note=57, velocity=112, time=1),
    Message('note_off', channel=9, note=55, velocity=64, time=48),
    Message('note_off', channel=9, note=57, velocity=64, time=3),
    Message('note_off', channel=9, note=52, velocity=64, time=2),
    Message('note_off', channel=9, note=59, velocity=64, time=3),
    Message('note_off', channel=9, note=50, velocity=64, time=28),
    Message('note_on', channel=9, note=49, velocity=90, time=140),
    Message('note_off', channel=9, note=49, velocity=64, time=73),
    Message('note_on', channel=9, note=47, velocity=112, time=158),
    Message('note_off', channel=9, note=47, velocity=64, time=67),
    Message('note_on', channel=9, note=45, velocity=103, time=39),
    Message('note_off', channel=9, note=45, velocity=64, time=83),
    Message('note_on', channel=9, note=43, velocity=96, time=49),
    Message('note_off', channel=9, note=43, velocity=64, time=56),
    Message('note_on', channel=9, note=33, velocity=127, time=187),
    Message('note_off', channel=9, note=33, velocity=64, time=58),
    Message('note_on', channel=9, note=52, velocity=90, time=178),
    Message('note_on', channel=9, note=40, velocity=80, time=9),
    Message('note_off', channel=9, note=52, velocity=64, time=51),
    Message('note_off', channel=9, note=40, velocity=64, time=8),
    Message('note_on', channel=9, note=47, velocity=96, time=65),
    Message('note_off', channel=9, note=47, velocity=64, time=43),
    Message('note_on', channel=9, note=49, velocity=126, time=62),
    Message('note_on', channel=9, note=59, velocity=107, time=3),
    Message('note_on', channel=9, note=57, velocity=105, time=1),
    Message('note_on', channel=9, note=64, velocity=117, time=0),
    Message('note_off', channel=9, note=49, velocity=64, time=44),
    Message('note_off', channel=9, note=57, velocity=64, time=18),
    Message('note_off', channel=9, note=59, velocity=64, time=7),
    Message('note_off', channel=9, note=64, velocity=64, time=16),
    Message('note_on', channel=9, note=45, velocity=105, time=155),
    Message('note_on', channel=9, note=52, velocity=81, time=6),
    Message('note_off', channel=9, note=52, velocity=64, time=52),
    Message('note_off', channel=9, note=45, velocity=64, time=34),
    Message('note_on', channel=9, note=62, velocity=119, time=150),
    Message('note_on', channel=9, note=57, velocity=114, time=1),
    Message('note_on', channel=9, note=55, velocity=114, time=1),
    Message('note_on', channel=9, note=47, velocity=107, time=3),
    Message('note_off', channel=9, note=57, velocity=64, time=56),
    Message('note_off', channel=9, note=62, velocity=64, time=15),
    Message('note_off', channel=9, note=55, velocity=64, time=18),
    Message('note_off', channel=9, note=47, velocity=64, time=58),
    Message('note_on', channel=9, note=49, velocity=66, time=96),
    Message('note_on', channel=9, note=55, velocity=65, time=2),
    Message('note_off', channel=9, note=49, velocity=64, time=69),
    Message('note_off', channel=9, note=55, velocity=64, time=17),
    Message('note_on', channel=9, note=50, velocity=99, time=153),
    Message('note_on', channel=9, note=66, velocity=104, time=0),
    Message('note_on', channel=9, note=57, velocity=107, time=1),
    Message('note_on', channel=9, note=55, velocity=110, time=0),
    Message('note_off', channel=9, note=55, velocity=64, time=69),
    Message('note_off', channel=9, note=57, velocity=64, time=1),
    Message('note_off', channel=9, note=50, velocity=64, time=12),
    Message('note_off', channel=9, note=66, velocity=64, time=1),
    Message('note_on', channel=9, note=54, velocity=77, time=153),
    Message('note_on', channel=9, note=55, velocity=79, time=4),
    Message('note_off', channel=9, note=55, velocity=64, time=51),
    Message('note_off', channel=9, note=54, velocity=64, time=25),
    Message('note_on', channel=9, note=52, velocity=119, time=167),
    Message('note_on', channel=9, note=64, velocity=112, time=3),
    Message('note_on', channel=9, note=59, velocity=114, time=2),
    Message('note_on', channel=9, note=57, velocity=114, time=2),
    Message('note_off', channel=9, note=57, velocity=64, time=49),
    Message('note_off', channel=9, note=59, velocity=64, time=9),
    Message('note_off', channel=9, note=52, velocity=64, time=13),
    Message('note_off', channel=9, note=64, velocity=64, time=4),
    Message('note_on', channel=9, note=49, velocity=81, time=143),
    Message('note_off', channel=9, note=49, velocity=64, time=72),
    Message('note_on', channel=9, note=45, velocity=84, time=179),
    Message('note_on', channel=9, note=61, velocity=96, time=4),
    Message('note_on', channel=9, note=52, velocity=112, time=4),
    Message('note_on', channel=9, note=59, velocity=105, time=14),
    Message('note_off', channel=9, note=59, velocity=64, time=55),
    Message('note_off', channel=9, note=61, velocity=64, time=1),
    Message('note_off', channel=9, note=52, velocity=64, time=10),
    Message('note_off', channel=9, note=45, velocity=64, time=58),
    Message('note_on', channel=9, note=49, velocity=81, time=117),
    Message('note_off', channel=9, note=49, velocity=64, time=39),
    Message('note_on', channel=9, note=57, velocity=101, time=201),
    Message('note_on', channel=9, note=59, velocity=105, time=1),
    Message('note_on', channel=9, note=55, velocity=112, time=1),
    Message('note_on', channel=9, note=47, velocity=121, time=0),
    Message('note_off', channel=9, note=57, velocity=64, time=55),
    Message('note_off', channel=9, note=59, velocity=64, time=5),
    Message('note_off', channel=9, note=55, velocity=64, time=5),
    Message('note_off', channel=9, note=47, velocity=64, time=18),
    Message('note_on', channel=9, note=49, velocity=81, time=145),
    Message('note_off', channel=9, note=49, velocity=64, time=71),
    Message('note_on', channel=9, note=55, velocity=103, time=47),
    Message('note_off', channel=9, note=55, velocity=64, time=54),
    Message('note_on', channel=9, note=50, velocity=127, time=59),
    Message('note_off', channel=9, note=50, velocity=64, time=68),
    Message('note_on', channel=9, note=52, velocity=121, time=51),
    Message('note_off', channel=9, note=52, velocity=64, time=55),
    Message('note_on', channel=9, note=54, velocity=127, time=61),
    Message('note_off', channel=9, note=54, velocity=64, time=58),
    Message('note_on', channel=9, note=42, velocity=127, time=184),
    Message('note_on', channel=9, note=49, velocity=95, time=15),
    Message('note_on', channel=9, note=58, velocity=95, time=0),
    Message('note_on', channel=9, note=61, velocity=106, time=1),
    Message('note_on', channel=9, note=66, velocity=100, time=0),
    Message('note_off', channel=9, note=61, velocity=64, time=49),
    Message('note_off', channel=9, note=58, velocity=64, time=6),
    Message('note_off', channel=9, note=66, velocity=64, time=0),
    Message('note_off', channel=9, note=49, velocity=64, time=11),
    Message('note_off', channel=9, note=42, velocity=64, time=6),
    Message('note_on', channel=9, note=49, velocity=114, time=158),
    Message('control_change', channel=9, control=11, value=116, time=80),
    Message('note_off', channel=9, note=49, velocity=64, time=1),
    Message('control_change', channel=9, control=11, value=115, time=7),
    Message('control_change', channel=9, control=11, value=114, time=113),
    Message('note_on', channel=9, note=61, velocity=123, time=41),
    Message('note_on', channel=9, note=66, velocity=127, time=1),
    Message('note_on', channel=9, note=58, velocity=117, time=0),
    Message('note_on', channel=9, note=54, velocity=117, time=1),
    Message('note_on', channel=9, note=63, velocity=109, time=0),
    Message('note_off', channel=9, note=63, velocity=64, time=13),
    Message('note_off', channel=9, note=58, velocity=64, time=36),
    Message('note_off', channel=9, note=61, velocity=64, time=9),
    Message('note_off', channel=9, note=54, velocity=64, time=12),
    Message('note_off', channel=9, note=66, velocity=64, time=2),
    Message('control_change', channel=9, control=11, value=113, time=12),
    Message('control_change', channel=9, control=11, value=112, time=123),
    Message('note_on', channel=9, note=54, velocity=72, time=30),
    Message('note_off', channel=9, note=54, velocity=64, time=78),
    Message('control_change', channel=9, control=11, value=111, time=18),
    Message('control_change', channel=9, control=11, value=110, time=124),
    Message('note_on', channel=9, note=52, velocity=106, time=21),
    Message('note_on', channel=9, note=63, velocity=102, time=1),
    Message('note_on', channel=9, note=64, velocity=112, time=1),
    Message('note_on', channel=9, note=59, velocity=114, time=0),
    Message('note_off', channel=9, note=59, velocity=64, time=75),
    Message('note_off', channel=9, note=63, velocity=64, time=10),
    Message('note_off', channel=9, note=64, velocity=64, time=2),
    Message('note_off', channel=9, note=52, velocity=64, time=8),
    Message('control_change', channel=9, control=11, value=109, time=7),
    Message('control_change', channel=9, control=11, value=108, time=125),
    Message('note_on', channel=9, note=51, velocity=81, time=10),
    Message('note_off', channel=9, note=51, velocity=64, time=83),
    Message('control_change', channel=9, control=11, value=107, time=31),
    Message('control_change', channel=9, control=11, value=106, time=126),
    Message('note_on', channel=9, note=63, velocity=106, time=1),
    Message('note_on', channel=9, note=64, velocity=112, time=0),
    Message('note_on', channel=9, note=59, velocity=117, time=1),
    Message('note_on', channel=9, note=68, velocity=117, time=0),
    Message('note_on', channel=9, note=49, velocity=106, time=2),
    Message('note_on', channel=9, note=66, velocity=112, time=0),
    Message('note_off', channel=9, note=66, velocity=64, time=13),
    Message('note_off', channel=9, note=59, velocity=64, time=65),
    Message('note_off', channel=9, note=49, velocity=64, time=0),
    Message('note_off', channel=9, note=64, velocity=64, time=4),
    Message('note_off', channel=9, note=68, velocity=64, time=0),
    Message('note_off', channel=9, note=63, velocity=64, time=11),
    Message('control_change', channel=9, control=11, value=105, time=27),
    Message('note_on', channel=9, note=56, velocity=83, time=117),
    Message('control_change', channel=9, control=11, value=104, time=9),
    Message('note_off', channel=9, note=56, velocity=64, time=66),
    Message('control_change', channel=9, control=11, value=103, time=65),
    Message('note_on', channel=9, note=61, velocity=117, time=100),
    Message('note_on', channel=9, note=66, velocity=117, time=0),
    Message('note_on', channel=9, note=58, velocity=112, time=1),
    Message('note_on', channel=9, note=42, velocity=127, time=1),
    Message('control_change', channel=9, control=11, value=102, time=15),
    Message('note_off', channel=9, note=58, velocity=64, time=61),
    Message('note_off', channel=9, note=66, velocity=64, time=9),
    Message('note_off', channel=9, note=42, velocity=64, time=2),
    Message('note_off', channel=9, note=61, velocity=64, time=1),
    Message('control_change', channel=9, control=11, value=101, time=52),
    Message('note_on', channel=9, note=46, velocity=81, time=97),
    Message('control_change', channel=9, control=11, value=100, time=28),
    Message('note_off', channel=9, note=46, velocity=64, time=39),
    Message('control_change', channel=9, control=11, value=99, time=86),
    Message('note_on', channel=9, note=58, velocity=106, time=88),
    Message('note_on', channel=9, note=61, velocity=106, time=1),
    Message('note_on', channel=9, note=56, velocity=102, time=0),
    Message('note_on', channel=9, note=49, velocity=95, time=2),
    Message('control_change', channel=9, control=11, value=98, time=34),
    Message('note_off', channel=9, note=56, velocity=64, time=6),
    Message('note_off', channel=9, note=58, velocity=64, time=18),
    Message('note_off', channel=9, note=61, velocity=64, time=4),
    Message('note_off', channel=9, note=49, velocity=64, time=15),
    Message('control_change', channel=9, control=11, value=97, time=82),
    Message('note_on', channel=9, note=54, velocity=100, time=78),
    Message('control_change', channel=9, control=11, value=96, time=51),
    Message('note_off', channel=9, note=54, velocity=64, time=16),
    Message('control_change', channel=9, control=11, value=95, time=107),
    Message('note_on', channel=9, note=64, velocity=117, time=66),
    Message('note_on', channel=9, note=63, velocity=89, time=0),
    Message('note_on', channel=9, note=59, velocity=117, time=1),
    Message('note_on', channel=9, note=56, velocity=117, time=1),
    Message('control_change', channel=9, control=11, value=94, time=55),
    Message('note_off', channel=9, note=59, velocity=64, time=31),
    Message('note_off', channel=9, note=63, velocity=64, time=4),
    Message('note_off', channel=9, note=56, velocity=64, time=1),
    Message('note_off', channel=9, note=64, velocity=64, time=2),
    Message('control_change', channel=9, control=11, value=93, time=86),
    Message('note_on', channel=9, note=54, velocity=85, time=59),
    Message('control_change', channel=9, control=11, value=92, time=66),
    Message('note_off', channel=9, note=54, velocity=64, time=23),
    Message('note_on', channel=9, note=52, velocity=102, time=31),
    Message('control_change', channel=9, control=11, value=91, time=61),
    Message('note_off', channel=9, note=52, velocity=64, time=22),
    Message('note_on', channel=9, note=51, velocity=85, time=37),
    Message('note_on', channel=9, note=59, velocity=102, time=0),
    Message('note_off', channel=9, note=51, velocity=64, time=34),
    Message('note_off', channel=9, note=59, velocity=64, time=28),
    Message('control_change', channel=9, control=11, value=90, time=4),
    Message('control_change', channel=9, control=11, value=89, time=124),
    Message('note_on', channel=9, note=49, velocity=123, time=49),
    Message('note_off', channel=9, note=49, velocity=64, time=61),
    Message('control_change', channel=9, control=11, value=88, time=16),
    Message('control_change', channel=9, control=11, value=87, time=129),
    Message('note_on', channel=9, note=42, velocity=127, time=35),
    Message('note_off', channel=9, note=42, velocity=64, time=69),
    Message('control_change', channel=9, control=11, value=86, time=20),
    Message('control_change', channel=9, control=11, value=85, time=119),
    Message('note_on', channel=9, note=49, velocity=102, time=30),
    Message('note_off', channel=9, note=49, velocity=64, time=67),
    Message('control_change', channel=9, control=11, value=84, time=29),
    Message('control_change', channel=9, control=11, value=83, time=124),
    Message('note_on', channel=9, note=66, velocity=127, time=21),
    Message('note_on', channel=9, note=58, velocity=127, time=1),
    Message('note_on', channel=9, note=61, velocity=123, time=1),
    Message('note_on', channel=9, note=54, velocity=123, time=0),
    Message('note_on', channel=9, note=63, velocity=106, time=2),
    Message('note_off', channel=9, note=63, velocity=64, time=5),
    Message('note_off', channel=9, note=58, velocity=64, time=55),
    Message('note_off', channel=9, note=61, velocity=64, time=18),
    Message('note_off', channel=9, note=66, velocity=64, time=4),
    Message('control_change', channel=9, control=11, value=82, time=19),
    Message('note_off', channel=9, note=54, velocity=64, time=4),
    Message('note_on', channel=9, note=49, velocity=98, time=12),
    Message('note_off', channel=9, note=49, velocity=64, time=93),
    Message('control_change', channel=9, control=11, value=81, time=15),
    Message('control_change', channel=9, control=11, value=80, time=126),
    Message('control_change', channel=9, control=11, value=79, time=125),
    Message('note_on', channel=9, note=64, velocity=120, time=1),
    Message('note_on', channel=9, note=63, velocity=123, time=1),
    Message('note_on', channel=9, note=59, velocity=120, time=0),
    Message('note_on', channel=9, note=52, velocity=117, time=1),
    Message('note_off', channel=9, note=59, velocity=64, time=91),
    Message('note_off', channel=9, note=63, velocity=64, time=8),
    Message('note_off', channel=9, note=64, velocity=64, time=1),
    Message('note_off', channel=9, note=52, velocity=64, time=3),
    Message('control_change', channel=9, control=11, value=78, time=19),
    Message('note_on', channel=9, note=54, velocity=92, time=116),
    Message('control_change', channel=9, control=11, value=77, time=8),
    Message('note_off', channel=9, note=54, velocity=64, time=71),
    Message('control_change', channel=9, control=11, value=76, time=54),
    Message('note_on', channel=9, note=63, velocity=109, time=106),
    Message('note_on', channel=9, note=64, velocity=117, time=1),
    Message('note_on', channel=9, note=68, velocity=117, time=1),
    Message('note_on', channel=9, note=59, velocity=120, time=2),
    Message('note_on', channel=9, note=56, velocity=123, time=0),
    Message('control_change', channel=9, control=11, value=75, time=15),
    Message('note_off', channel=9, note=59, velocity=64, time=58),
    Message('note_off', channel=9, note=64, velocity=64, time=16),
    Message('note_off', channel=9, note=68, velocity=64, time=0),
    Message('note_off', channel=9, note=63, velocity=64, time=9),
    Message('note_off', channel=9, note=56, velocity=64, time=22),
    Message('control_change', channel=9, control=11, value=74, time=31),
    Message('note_on', channel=9, note=49, velocity=83, time=86),
    Message('control_change', channel=9, control=11, value=73, time=30),
    Message('note_off', channel=9, note=49, velocity=64, time=27),
    Message('control_change', channel=9, control=11, value=72, time=97),
    Message('note_on', channel=9, note=62, velocity=123, time=86),
    Message('note_on', channel=9, note=66, velocity=123, time=1),
    Message('note_on', channel=9, note=57, velocity=123, time=0),
    Message('note_on', channel=9, note=50, velocity=117, time=3),
    Message('note_on', channel=9, note=38, velocity=123, time=0),
    Message('control_change', channel=9, control=11, value=71, time=33),
    Message('note_off', channel=9, note=57, velocity=64, time=40),
    Message('note_off', channel=9, note=50, velocity=64, time=1),
    Message('note_off', channel=9, note=66, velocity=64, time=11),
    Message('note_off', channel=9, note=62, velocity=64, time=1),
    Message('note_off', channel=9, note=38, velocity=64, time=2),
    Message('control_change', channel=9, control=11, value=70, time=69),
    Message('control_change', channel=9, control=11, value=69, time=126),
    Message('control_change', channel=9, control=11, value=68, time=125),
    Message('control_change', channel=9, control=11, value=67, time=115),
    Message('control_change', channel=9, control=11, value=66, time=124),
    Message('control_change', channel=9, control=11, value=65, time=134),
    Message('control_change', channel=9, control=11, value=64, time=117),
    Message('control_change', channel=9, control=11, value=63, time=125),
    Message('control_change', channel=9, control=11, value=62, time=123),
    Message('control_change', channel=9, control=11, value=61, time=126),
    Message('control_change', channel=9, control=11, value=60, time=124),
    MetaMessage('end_of_track', time=23963)]),
  MidiTrack([
    MetaMessage('track_name', name='Slow Pop Strings\x00\x00\x00\x00\x00\x00\x00\x00', time=0),
    MetaMessage('channel_prefix', channel=10, time=0),
    Message('control_change', channel=10, control=0, value=0, time=0),
    Message('control_change', channel=10, control=32, value=1, time=0),
    Message('program_change', channel=10, program=9, time=0),
    Message('control_change', channel=10, control=7, value=127, time=0),
    Message('control_change', channel=10, control=10, value=64, time=0),
    Message('control_change', channel=10, control=93, value=0, time=0),
    Message('control_change', channel=10, control=91, value=0, time=0),
    Message('control_change', channel=10, control=21, value=127, time=2108),
    Message('control_change', channel=10, control=10, value=0, time=0),
    Message('control_change', channel=10, control=11, value=17, time=1),
    Message('note_on', channel=10, note=37, velocity=127, time=1),
    Message('note_on', channel=10, note=49, velocity=121, time=1),
    Message('note_on', channel=10, note=61, velocity=105, time=0),
    Message('note_on', channel=10, note=56, velocity=113, time=0),
    Message('control_change', channel=10, control=91, value=127, time=142),
    Message('control_change', channel=10, control=10, value=2, time=93),
    Message('control_change', channel=10, control=10, value=3, time=152),
    Message('control_change', channel=10, control=10, value=5, time=89),
    Message('control_change', channel=10, control=10, value=6, time=151),
    Message('control_change', channel=10, control=10, value=8, time=93),
    Message('control_change', channel=10, control=10, value=9, time=146),
    Message('control_change', channel=10, control=10, value=11, time=93),
    Message('control_change', channel=10, control=10, value=12, time=148),
    Message('control_change', channel=10, control=10, value=14, time=90),
    Message('control_change', channel=10, control=10, value=16, time=150),
    Message('control_change', channel=10, control=10, value=17, time=90),
    Message('control_change', channel=10, control=11, value=18, time=117),
    Message('control_change', channel=10, control=10, value=19, time=31),
    Message('control_change', channel=10, control=11, value=19, time=92),
    Message('control_change', channel=10, control=10, value=20, time=0),
    Message('control_change', channel=10, control=11, value=21, time=119),
    Message('control_change', channel=10, control=10, value=22, time=30),
    Message('control_change', channel=10, control=10, value=23, time=92),
    Message('control_change', channel=10, control=11, value=23, time=1),
    Message('control_change', channel=10, control=11, value=24, time=117),
    Message('control_change', channel=10, control=10, value=25, time=30),
    Message('control_change', channel=10, control=10, value=26, time=90),
    Message('control_change', channel=10, control=11, value=26, time=0),
    Message('control_change', channel=10, control=11, value=27, time=119),
    Message('control_change', channel=10, control=10, value=28, time=31),
    Message('control_change', channel=10, control=10, value=29, time=91),
    Message('control_change', channel=10, control=11, value=29, time=0),
    Message('control_change', channel=10, control=11, value=30, time=118),
    Message('control_change', channel=10, control=10, value=31, time=31),
    Message('control_change', channel=10, control=10, value=32, time=91),
    Message('control_change', channel=10, control=11, value=32, time=0),
    Message('control_change', channel=10, control=11, value=33, time=117),
    Message('control_change', channel=10, control=10, value=34, time=31),
    Message('control_change', channel=10, control=10, value=35, time=93),
    Message('control_change', channel=10, control=11, value=35, time=0),
    Message('control_change', channel=10, control=11, value=36, time=117),
    Message('control_change', channel=10, control=10, value=37, time=32),
    Message('control_change', channel=10, control=10, value=38, time=89),
    Message('control_change', channel=10, control=11, value=38, time=1),
    Message('control_change', channel=10, control=11, value=39, time=119),
    Message('control_change', channel=10, control=10, value=40, time=30),
    Message('control_change', channel=10, control=10, value=41, time=90),
    Message('control_change', channel=10, control=11, value=41, time=0),
    Message('control_change', channel=10, control=11, value=42, time=119),
    Message('control_change', channel=10, control=10, value=43, time=32),
    Message('control_change', channel=10, control=10, value=44, time=88),
    Message('control_change', channel=10, control=11, value=44, time=1),
    Message('control_change', channel=10, control=11, value=45, time=119),
    Message('control_change', channel=10, control=10, value=46, time=31),
    Message('note_off', channel=10, note=49, velocity=64, time=70),
    Message('note_on', channel=10, note=68, velocity=97, time=23),
    Message('control_change', channel=10, control=10, value=48, time=0),
    Message('control_change', channel=10, control=11, value=47, time=4),
    Message('control_change', channel=10, control=11, value=48, time=112),
    Message('control_change', channel=10, control=10, value=49, time=31),
    Message('control_change', channel=10, control=10, value=51, time=91),
    Message('control_change', channel=10, control=11, value=50, time=0),
    Message('control_change', channel=10, control=11, value=51, time=119),
    Message('control_change', channel=10, control=10, value=52, time=31),
    Message('control_change', channel=10, control=10, value=54, time=90),
    Message('control_change', channel=10, control=11, value=53, time=0),
    Message('control_change', channel=10, control=11, value=54, time=119),
    Message('control_change', channel=10, control=10, value=55, time=31),
    Message('control_change', channel=10, control=10, value=57, time=90),
    Message('control_change', channel=10, control=11, value=56, time=1),
    Message('control_change', channel=10, control=11, value=57, time=118),
    Message('control_change', channel=10, control=10, value=58, time=31),
    Message('note_off', channel=10, note=61, velocity=64, time=57),
    Message('control_change', channel=10, control=10, value=59, time=33),
    Message('note_on', channel=10, note=73, velocity=90, time=1),
    Message('control_change', channel=10, control=11, value=59, time=1),
    Message('control_change', channel=10, control=11, value=60, time=116),
    Message('control_change', channel=10, control=11, value=62, time=122),
    Message('control_change', channel=10, control=11, value=63, time=119),
    Message('control_change', channel=10, control=11, value=65, time=121),
    Message('control_change', channel=10, control=11, value=67, time=117),
    Message('control_change', channel=10, control=11, value=68, time=123),
    Message('control_change', channel=10, control=11, value=70, time=120),
    Message('note_off', channel=10, note=68, velocity=64, time=112),
    Message('note_off', channel=10, note=73, velocity=64, time=0),
    Message('note_on', channel=10, note=85, velocity=82, time=9),
    Message('note_on', channel=10, note=80, velocity=82, time=0),
    Message('control_change', channel=10, control=11, value=71, time=0),
    Message('control_change', channel=10, control=11, value=73, time=118),
    Message('control_change', channel=10, control=11, value=74, time=124),
    Message('control_change', channel=10, control=11, value=76, time=116),
    Message('control_change', channel=10, control=11, value=77, time=239),
    Message('control_change', channel=10, control=11, value=79, time=126),
    Message('control_change', channel=10, control=11, value=82, time=116),
    Message('note_off', channel=10, note=85, velocity=64, time=117),
    Message('note_on', channel=10, note=97, velocity=93, time=3),
    Message('control_change', channel=10, control=11, value=84, time=0),
    Message('control_change', channel=10, control=11, value=86, time=116),
    Message('control_change', channel=10, control=11, value=89, time=121),
    Message('control_change', channel=10, control=11, value=98, time=124),
    Message('control_change', channel=10, control=11, value=107, time=116),
    Message('control_change', channel=10, control=91, value=0, time=48),
    Message('control_change', channel=10, control=11, value=116, time=76),
    Message('control_change', channel=10, control=11, value=125, time=117),
    Message('control_change', channel=10, control=11, value=127, time=129),
    Message('note_off', channel=10, note=56, velocity=64, time=73),
    Message('control_change', channel=10, control=21, value=0, time=10),
    Message('note_off', channel=10, note=37, velocity=64, time=27),
    Message('note_off', channel=10, note=97, velocity=64, time=6),
    Message('note_off', channel=10, note=80, velocity=64, time=0),
    Message('control_change', channel=10, control=21, value=127, time=58359),
    Message('control_change', channel=10, control=11, value=0, time=1756),
    Message('note_on', channel=10, note=54, velocity=90, time=492),
    Message('control_change', channel=10, control=11, value=5, time=288),
    Message('control_change', channel=10, control=11, value=11, time=59),
    Message('control_change', channel=10, control=11, value=14, time=60),
    Message('control_change', channel=10, control=11, value=22, time=61),
    Message('control_change', channel=10, control=11, value=27, time=60),
    Message('note_on', channel=10, note=52, velocity=67, time=48),
    Message('control_change', channel=10, control=11, value=31, time=12),
    Message('note_off', channel=10, note=54, velocity=64, time=22),
    Message('control_change', channel=10, control=11, value=35, time=38),
    Message('control_change', channel=10, control=11, value=38, time=60),
    Message('control_change', channel=10, control=11, value=42, time=119),
    Message('control_change', channel=10, control=11, value=46, time=61),
    Message('control_change', channel=10, control=11, value=47, time=59),
    Message('control_change', channel=10, control=11, value=49, time=60),
    Message('control_change', channel=10, control=11, value=51, time=61),
    Message('note_on', channel=10, note=51, velocity=79, time=26),
    Message('control_change', channel=10, control=11, value=53, time=34),
    Message('note_off', channel=10, note=52, velocity=64, time=13),
    Message('control_change', channel=10, control=11, value=55, time=47),
    Message('control_change', channel=10, control=11, value=56, time=61),
    Message('control_change', channel=10, control=11, value=61, time=59),
    Message('control_change', channel=10, control=11, value=62, time=59),
    Message('control_change', channel=10, control=11, value=64, time=121),
    Message('control_change', channel=10, control=11, value=66, time=60),
    Message('note_on', channel=10, note=49, velocity=99, time=40),
    Message('note_off', channel=10, note=51, velocity=64, time=32),
    Message('control_change', channel=10, control=11, value=68, time=48),
    Message('control_change', channel=10, control=11, value=70, time=181),
    Message('control_change', channel=10, control=11, value=71, time=119),
    Message('control_change', channel=10, control=11, value=73, time=180),
    Message('note_on', channel=10, note=47, velocity=75, time=1),
    Message('note_on', channel=10, note=59, velocity=57, time=1),
    Message('note_off', channel=10, note=49, velocity=64, time=50),
    Message('control_change', channel=10, control=11, value=75, time=7),
    Message('control_change', channel=10, control=11, value=77, time=121),
    Message('control_change', channel=10, control=11, value=79, time=119),
    Message('control_change', channel=10, control=11, value=80, time=61),
    Message('control_change', channel=10, control=11, value=82, time=240),
    Message('note_on', channel=10, note=35, velocity=87, time=150),
    Message('control_change', channel=10, control=11, value=84, time=90),
    Message('note_off', channel=10, note=47, velocity=64, time=112),
    Message('control_change', channel=10, control=11, value=86, time=8),
    Message('control_change', channel=10, control=11, value=88, time=120),
    Message('control_change', channel=10, control=11, value=91, time=60),
    Message('control_change', channel=10, control=11, value=95, time=60),
    Message('control_change', channel=10, control=11, value=100, time=61),
    Message('control_change', channel=10, control=11, value=102, time=60),
    Message('control_change', channel=10, control=11, value=106, time=59),
    Message('control_change', channel=10, control=11, value=108, time=61),
    Message('note_off', channel=10, note=35, velocity=64, time=30),
    Message('note_on', channel=10, note=39, velocity=88, time=10),
    Message('note_off', channel=10, note=59, velocity=64, time=6),
    Message('note_on', channel=10, note=56, velocity=31, time=3),
    Message('note_on', channel=10, note=61, velocity=40, time=4),
    Message('note_on', channel=10, note=27, velocity=107, time=5),
    Message('control_change', channel=10, control=11, value=110, time=420),
    Message('control_change', channel=10, control=11, value=112, time=121),
    Message('control_change', channel=10, control=11, value=113, time=61),
    Message('control_change', channel=10, control=11, value=115, time=60),
    Message('control_change', channel=10, control=11, value=117, time=119),
    Message('note_off', channel=10, note=39, velocity=64, time=38),
    Message('note_on', channel=10, note=63, velocity=64, time=7),
    Message('control_change', channel=10, control=11, value=121, time=16),
    Message('control_change', channel=10, control=11, value=122, time=60),
    Message('note_on', channel=10, note=58, velocity=50, time=541),
    Message('note_off', channel=10, note=56, velocity=64, time=86),
    Message('control_change', channel=10, control=11, value=118, time=398),
    Message('control_change', channel=10, control=1, value=1, time=362),
    Message('control_change', channel=10, control=1, value=11, time=11),
    Message('control_change', channel=10, control=1, value=17, time=10),
    Message('control_change', channel=10, control=1, value=21, time=10),
    Message('control_change', channel=10, control=1, value=25, time=11),
    Message('control_change', channel=10, control=1, value=31, time=10),
    Message('control_change', channel=10, control=1, value=40, time=32),
    Message('control_change', channel=10, control=1, value=48, time=9),
    Message('control_change', channel=10, control=1, value=56, time=11),
    Message('control_change', channel=10, control=1, value=62, time=10),
    Message('control_change', channel=10, control=1, value=67, time=12),
    Message('control_change', channel=10, control=1, value=73, time=9),
    Message('control_change', channel=10, control=1, value=77, time=21),
    Message('control_change', channel=10, control=1, value=81, time=19),
    Message('control_change', channel=10, control=1, value=85, time=1),
    Message('control_change', channel=10, control=1, value=104, time=43),
    Message('control_change', channel=10, control=11, value=116, time=22),
    Message('control_change', channel=10, control=1, value=108, time=11),
    Message('control_change', channel=10, control=11, value=115, time=41),
    Message('control_change', channel=10, control=1, value=112, time=40),
    Message('control_change', channel=10, control=11, value=112, time=22),
    Message('control_change', channel=10, control=1, value=116, time=1),
    Message('control_change', channel=10, control=1, value=120, time=7),
    Message('control_change', channel=10, control=11, value=110, time=49),
    Message('pitchwheel', channel=10, pitch=72, time=63),
    Message('control_change', channel=10, control=11, value=108, time=1),
    Message('pitchwheel', channel=10, pitch=217, time=12),
    Message('pitchwheel', channel=10, pitch=362, time=18),
    Message('control_change', channel=10, control=1, value=124, time=0),
    Message('pitchwheel', channel=10, pitch=507, time=3),
    Message('pitchwheel', channel=10, pitch=652, time=10),
    Message('control_change', channel=10, control=11, value=104, time=13),
    Message('pitchwheel', channel=10, pitch=797, time=7),
    Message('pitchwheel', channel=10, pitch=942, time=21),
    Message('control_change', channel=10, control=11, value=102, time=37),
    Message('control_change', channel=10, control=1, value=127, time=5),
    Message('control_change', channel=10, control=11, value=100, time=49),
    Message('pitchwheel', channel=10, pitch=1087, time=23),
    Message('pitchwheel', channel=10, pitch=1232, time=22),
    Message('control_change', channel=10, control=11, value=98, time=23),
    Message('pitchwheel', channel=10, pitch=1377, time=7),
    Message('control_change', channel=10, control=11, value=97, time=51),
    Message('pitchwheel', channel=10, pitch=1522, time=1),
    Message('pitchwheel', channel=10, pitch=1667, time=28),
    Message('pitchwheel', channel=10, pitch=1812, time=25),
    Message('control_change', channel=10, control=11, value=95, time=2),
    Message('pitchwheel', channel=10, pitch=1957, time=17),
    Message('control_change', channel=10, control=11, value=93, time=43),
    Message('pitchwheel', channel=10, pitch=2102, time=11),
    Message('pitchwheel', channel=10, pitch=2247, time=10),
    Message('control_change', channel=10, control=11, value=91, time=38),
    Message('control_change', channel=10, control=11, value=90, time=66),
    Message('control_change', channel=10, control=1, value=124, time=9),
    Message('control_change', channel=10, control=1, value=120, time=24),
    Message('pitchwheel', channel=10, pitch=2537, time=7),
    Message('pitchwheel', channel=10, pitch=2826, time=19),
    Message('control_change', channel=10, control=11, value=88, time=1),
    Message('control_change', channel=10, control=1, value=116, time=1),
    Message('control_change', channel=10, control=1, value=112, time=20),
    Message('control_change', channel=10, control=1, value=108, time=21),
    Message('control_change', channel=10, control=11, value=87, time=15),
    Message('control_change', channel=10, control=1, value=104, time=16),
    Message('pitchwheel', channel=10, pitch=2971, time=31),
    Message('control_change', channel=10, control=1, value=100, time=2),
    Message('control_change', channel=10, control=11, value=85, time=10),
    Message('pitchwheel', channel=10, pitch=3116, time=0),
    Message('pitchwheel', channel=10, pitch=3261, time=9),
    Message('pitchwheel', channel=10, pitch=3406, time=12),
    Message('pitchwheel', channel=10, pitch=3696, time=9),
    Message('pitchwheel', channel=10, pitch=3841, time=10),
    Message('control_change', channel=10, control=11, value=83, time=19),
    Message('pitchwheel', channel=10, pitch=3986, time=2),
    Message('pitchwheel', channel=10, pitch=4276, time=10),
    Message('pitchwheel', channel=10, pitch=4421, time=25),
    Message('pitchwheel', channel=10, pitch=4566, time=17),
    Message('control_change', channel=10, control=11, value=81, time=11),
    Message('pitchwheel', channel=10, pitch=4711, time=10),
    Message('pitchwheel', channel=10, pitch=4856, time=10),
    Message('pitchwheel', channel=10, pitch=5001, time=21),
    Message('control_change', channel=10, control=11, value=80, time=14),
    Message('pitchwheel', channel=10, pitch=5146, time=7),
    Message('pitchwheel', channel=10, pitch=5291, time=32),
    Message('control_change', channel=10, control=1, value=96, time=0),
    Message('control_change', channel=10, control=11, value=78, time=19),
    Message('control_change', channel=10, control=11, value=76, time=63),
    Message('control_change', channel=10, control=11, value=75, time=68),
    Message('pitchwheel', channel=10, pitch=5436, time=0),
    Message('control_change', channel=10, control=11, value=73, time=56),
    Message('control_change', channel=10, control=11, value=71, time=53),
    Message('control_change', channel=10, control=11, value=70, time=61),
    Message('pitchwheel', channel=10, pitch=5581, time=10),
    Message('pitchwheel', channel=10, pitch=5726, time=24),
    Message('pitchwheel', channel=10, pitch=5871, time=18),
    Message('control_change', channel=10, control=11, value=68, time=14),
    Message('control_change', channel=10, control=11, value=66, time=63),
    Message('pitchwheel', channel=10, pitch=6016, time=37),
    Message('control_change', channel=10, control=1, value=93, time=11),
    Message('control_change', channel=10, control=11, value=64, time=3),
    Message('pitchwheel', channel=10, pitch=6161, time=39),
    Message('control_change', channel=10, control=11, value=63, time=20),
    Message('pitchwheel', channel=10, pitch=6306, time=21),
    Message('control_change', channel=10, control=11, value=61, time=40),
    Message('pitchwheel', channel=10, pitch=6451, time=1),
    Message('pitchwheel', channel=10, pitch=6596, time=31),
    Message('control_change', channel=10, control=11, value=60, time=27),
    Message('pitchwheel', channel=10, pitch=6741, time=13),
    Message('control_change', channel=10, control=11, value=58, time=46),
    Message('control_change', channel=10, control=11, value=56, time=61),
    Message('pitchwheel', channel=10, pitch=6886, time=39),
    Message('control_change', channel=10, control=11, value=54, time=22),
    Message('control_change', channel=10, control=1, value=89, time=41),
    Message('control_change', channel=10, control=11, value=53, time=20),
    Message('control_change', channel=10, control=11, value=51, time=58),
    Message('pitchwheel', channel=10, pitch=7031, time=15),
    Message('control_change', channel=10, control=1, value=85, time=42),
    Message('control_change', channel=10, control=11, value=49, time=4),
    Message('pitchwheel', channel=10, pitch=7176, time=47),
    Message('control_change', channel=10, control=11, value=48, time=13),
    Message('control_change', channel=10, control=1, value=81, time=8),
    Message('control_change', channel=10, control=11, value=46, time=52),
    Message('pitchwheel', channel=10, pitch=7321, time=10),
    Message('pitchwheel', channel=10, pitch=7466, time=32),
    Message('pitchwheel', channel=10, pitch=7611, time=9),
    Message('control_change', channel=10, control=11, value=44, time=8),
    Message('pitchwheel', channel=10, pitch=7756, time=24),
    Message('control_change', channel=10, control=11, value=43, time=37),
    Message('control_change', channel=10, control=11, value=41, time=60),
    Message('control_change', channel=10, control=1, value=77, time=6),
    Message('control_change', channel=10, control=11, value=39, time=54),
    Message('control_change', channel=10, control=1, value=73, time=39),
    Message('pitchwheel', channel=10, pitch=7901, time=12),
    Message('control_change', channel=10, control=11, value=37, time=8),
    Message('pitchwheel', channel=10, pitch=8046, time=22),
    Message('control_change', channel=10, control=1, value=69, time=2),
    Message('control_change', channel=10, control=11, value=36, time=37),
    Message('control_change', channel=10, control=11, value=34, time=61),
    Message('control_change', channel=10, control=1, value=65, time=14),
    Message('pitchwheel', channel=10, pitch=8191, time=21),
    Message('control_change', channel=10, control=1, value=62, time=1),
    Message('control_change', channel=10, control=1, value=56, time=20),
    Message('control_change', channel=10, control=11, value=33, time=2),
    Message('control_change', channel=10, control=1, value=50, time=19),
    Message('control_change', channel=10, control=1, value=44, time=10),
    Message('control_change', channel=10, control=1, value=36, time=20),
    Message('control_change', channel=10, control=1, value=32, time=12),
    Message('control_change', channel=10, control=11, value=31, time=0),
    Message('control_change', channel=10, control=1, value=29, time=9),
    Message('control_change', channel=10, control=1, value=21, time=10),
    Message('control_change', channel=10, control=1, value=15, time=10),
    Message('control_change', channel=10, control=1, value=9, time=11),
    Message('control_change', channel=10, control=1, value=5, time=10),
    Message('control_change', channel=10, control=11, value=29, time=9),
    Message('pitchwheel', channel=10, pitch=8046, time=1),
    Message('control_change', channel=10, control=1, value=0, time=1),
    Message('pitchwheel', channel=10, pitch=7901, time=21),
    Message('pitchwheel', channel=10, pitch=7756, time=10),
    Message('pitchwheel', channel=10, pitch=7611, time=12),
    Message('control_change', channel=10, control=11, value=28, time=17),
    Message('pitchwheel', channel=10, pitch=7466, time=54),
    Message('control_change', channel=10, control=11, value=26, time=7),
    Message('pitchwheel', channel=10, pitch=6886, time=11),
    Message('pitchwheel', channel=10, pitch=6596, time=3),
    Message('pitchwheel', channel=10, pitch=6451, time=10),
    Message('pitchwheel', channel=10, pitch=5871, time=11),
    Message('pitchwheel', channel=10, pitch=5146, time=9),
    Message('pitchwheel', channel=10, pitch=4566, time=11),
    Message('control_change', channel=10, control=11, value=24, time=2),
    Message('pitchwheel', channel=10, pitch=3841, time=9),
    Message('pitchwheel', channel=10, pitch=2971, time=12),
    Message('pitchwheel', channel=10, pitch=2102, time=9),
    Message('pitchwheel', channel=10, pitch=1522, time=11),
    Message('pitchwheel', channel=10, pitch=1087, time=10),
    Message('control_change', channel=10, control=11, value=25, time=13),
    Message('pitchwheel', channel=10, pitch=507, time=0),
    Message('pitchwheel', channel=10, pitch=0, time=9),
    Message('control_change', channel=10, control=11, value=27, time=48),
    Message('note_off', channel=10, note=63, velocity=64, time=26),
    Message('note_off', channel=10, note=61, velocity=64, time=20),
    Message('note_off', channel=10, note=58, velocity=64, time=0),
    Message('control_change', channel=10, control=11, value=29, time=15),
    Message('control_change', channel=10, control=11, value=30, time=58),
    Message('pitchwheel', channel=10, pitch=-56, time=38),
    Message('pitchwheel', channel=10, pitch=-170, time=10),
    Message('pitchwheel', channel=10, pitch=-283, time=11),
    Message('control_change', channel=10, control=11, value=32, time=3),
    Message('pitchwheel', channel=10, pitch=-510, time=7),
    Message('pitchwheel', channel=10, pitch=-963, time=11),
    Message('pitchwheel', channel=10, pitch=-1303, time=10),
    Message('pitchwheel', channel=10, pitch=-1643, time=11),
    Message('pitchwheel', channel=10, pitch=-2097, time=10),
    Message('note_on', channel=10, note=61, velocity=66, time=0),
    Message('control_change', channel=10, control=11, value=34, time=9),
    Message('pitchwheel', channel=10, pitch=-2437, time=2),
    Message('pitchwheel', channel=10, pitch=-2777, time=14),
    Message('note_on', channel=10, note=65, velocity=59, time=3),
    Message('pitchwheel', channel=10, pitch=-3344, time=3),
    Message('pitchwheel', channel=10, pitch=-3571, time=10),
    Message('pitchwheel', channel=10, pitch=-3797, time=14),
    Message('pitchwheel', channel=10, pitch=-3911, time=8),
    Message('control_change', channel=10, control=11, value=35, time=10),
    Message('pitchwheel', channel=10, pitch=-4024, time=0),
    Message('note_on', channel=10, note=72, velocity=29, time=10),
    Message('note_on', channel=10, note=68, velocity=6, time=2),
    Message('pitchwheel', channel=10, pitch=-4138, time=0),
    Message('control_change', channel=10, control=2, value=4, time=0),
    Message('pitchwheel', channel=10, pitch=-4364, time=9),
    Message('pitchwheel', channel=10, pitch=-4478, time=11),
    Message('pitchwheel', channel=10, pitch=-4591, time=12),
    Message('pitchwheel', channel=10, pitch=-4704, time=9),
    Message('control_change', channel=10, control=2, value=8, time=4),
    Message('control_change', channel=10, control=11, value=37, time=1),
    Message('pitchwheel', channel=10, pitch=-4818, time=4),
    Message('pitchwheel', channel=10, pitch=-4931, time=12),
    Message('pitchwheel', channel=10, pitch=-5044, time=9),
    Message('pitchwheel', channel=10, pitch=-5271, time=11),
    Message('control_change', channel=10, control=2, value=12, time=1),
    Message('control_change', channel=10, control=11, value=38, time=27),
    Message('pitchwheel', channel=10, pitch=-5385, time=3),
    Message('pitchwheel', channel=10, pitch=-5498, time=10),
    Message('pitchwheel', channel=10, pitch=-5611, time=10),
    Message('pitchwheel', channel=10, pitch=-5725, time=11),
    Message('pitchwheel', channel=10, pitch=-5951, time=10),
    Message('pitchwheel', channel=10, pitch=-6065, time=11),
    Message('control_change', channel=10, control=11, value=40, time=1),
    Message('pitchwheel', channel=10, pitch=-6178, time=31),
    Message('pitchwheel', channel=10, pitch=-6292, time=16),
    Message('control_change', channel=10, control=11, value=42, time=14),
    Message('pitchwheel', channel=10, pitch=-6405, time=13),
    Message('pitchwheel', channel=10, pitch=-6518, time=8),
    Message('pitchwheel', channel=10, pitch=-6632, time=10),
    Message('pitchwheel', channel=10, pitch=-6745, time=20),
    Message('control_change', channel=10, control=11, value=43, time=7),
    Message('pitchwheel', channel=10, pitch=-6858, time=24),
    Message('pitchwheel', channel=10, pitch=-6972, time=11),
    Message('pitchwheel', channel=10, pitch=-7085, time=10),
    Message('pitchwheel', channel=10, pitch=-7199, time=11),
    Message('control_change', channel=10, control=11, value=45, time=6),
    Message('pitchwheel', channel=10, pitch=-7312, time=25),
    Message('pitchwheel', channel=10, pitch=-7425, time=31),
    Message('control_change', channel=10, control=11, value=46, time=2),
    Message('pitchwheel', channel=10, pitch=-7539, time=19),
    Message('pitchwheel', channel=10, pitch=-7652, time=11),
    Message('pitchwheel', channel=10, pitch=-7765, time=21),
    Message('pitchwheel', channel=10, pitch=-7879, time=11),
    Message('control_change', channel=10, control=11, value=48, time=0),
    Message('control_change', channel=10, control=2, value=8, time=16),
    Message('pitchwheel', channel=10, pitch=-7992, time=3),
    Message('control_change', channel=10, control=11, value=50, time=40),
    Message('pitchwheel', channel=10, pitch=-8105, time=22),
    Message('pitchwheel', channel=10, pitch=-8192, time=22),
    Message('control_change', channel=10, control=2, value=4, time=0),
    Message('control_change', channel=10, control=11, value=51, time=17),
    Message('control_change', channel=10, control=2, value=0, time=33),
    Message('control_change', channel=10, control=11, value=53, time=26),
    Message('control_change', channel=10, control=11, value=54, time=63),
    Message('control_change', channel=10, control=11, value=56, time=55),
    Message('note_off', channel=10, note=27, velocity=64, time=28),
    Message('control_change', channel=10, control=11, value=57, time=32),
    Message('control_change', channel=10, control=11, value=59, time=61),
    Message('control_change', channel=10, control=11, value=61, time=65),
    Message('control_change', channel=10, control=11, value=62, time=55),
    Message('control_change', channel=10, control=11, value=64, time=63),
    Message('control_change', channel=10, control=11, value=66, time=58),
    Message('control_change', channel=10, control=11, value=67, time=64),
    Message('control_change', channel=10, control=11, value=69, time=55),
    Message('control_change', channel=10, control=11, value=70, time=61),
    Message('control_change', channel=10, control=11, value=72, time=60),
    Message('control_change', channel=10, control=11, value=70, time=61),
    Message('control_change', channel=10, control=11, value=65, time=58),
    Message('control_change', channel=10, control=11, value=63, time=63),
    Message('control_change', channel=10, control=11, value=59, time=57),
    Message('control_change', channel=10, control=11, value=56, time=64),
    Message('control_change', channel=10, control=11, value=54, time=56),
    Message('control_change', channel=10, control=11, value=52, time=61),
    Message('control_change', channel=10, control=11, value=50, time=59),
    Message('control_change', channel=10, control=11, value=49, time=61),
    Message('control_change', channel=10, control=11, value=47, time=59),
    Message('control_change', channel=10, control=11, value=45, time=62),
    Message('control_change', channel=10, control=11, value=43, time=59),
    Message('control_change', channel=10, control=11, value=41, time=62),
    Message('control_change', channel=10, control=11, value=40, time=57),
    Message('control_change', channel=10, control=11, value=38, time=65),
    Message('control_change', channel=10, control=11, value=34, time=57),
    Message('control_change', channel=10, control=11, value=32, time=117),
    Message('control_change', channel=10, control=11, value=31, time=64),
    Message('control_change', channel=10, control=11, value=29, time=57),
    Message('control_change', channel=10, control=11, value=27, time=62),
    Message('control_change', channel=10, control=1, value=1, time=26),
    Message('control_change', channel=10, control=1, value=5, time=31),
    Message('control_change', channel=10, control=1, value=9, time=61),
    Message('control_change', channel=10, control=1, value=13, time=126),
    Message('control_change', channel=10, control=1, value=17, time=83),
    Message('control_change', channel=10, control=1, value=21, time=93),
    Message('control_change', channel=10, control=1, value=25, time=52),
    Message('control_change', channel=10, control=11, value=25, time=67),
    Message('control_change', channel=10, control=1, value=29, time=5),
    Message('control_change', channel=10, control=1, value=32, time=51),
    Message('control_change', channel=10, control=11, value=23, time=6),
    Message('control_change', channel=10, control=1, value=36, time=23),
    Message('control_change', channel=10, control=1, value=40, time=33),
    Message('control_change', channel=10, control=11, value=22, time=1),
    Message('control_change', channel=10, control=1, value=44, time=41),
    Message('control_change', channel=10, control=1, value=50, time=115),
    Message('control_change', channel=10, control=11, value=18, time=25),
    Message('control_change', channel=10, control=1, value=54, time=38),
    Message('control_change', channel=10, control=1, value=58, time=20),
    Message('control_change', channel=10, control=11, value=16, time=1),
    Message('control_change', channel=10, control=1, value=62, time=22),
    Message('control_change', channel=10, control=1, value=65, time=19),
    Message('control_change', channel=10, control=11, value=14, time=22),
    Message('control_change', channel=10, control=1, value=69, time=12),
    Message('control_change', channel=10, control=1, value=75, time=28),
    Message('control_change', channel=10, control=11, value=13, time=18),
    Message('control_change', channel=10, control=11, value=11, time=60),
    Message('control_change', channel=10, control=1, value=79, time=14),
    Message('control_change', channel=10, control=11, value=9, time=48),
    Message('control_change', channel=10, control=1, value=83, time=45),
    Message('control_change', channel=10, control=1, value=87, time=22),
    Message('control_change', channel=10, control=1, value=91, time=9),
    Message('control_change', channel=10, control=11, value=3, time=41),
    Message('control_change', channel=10, control=1, value=95, time=23),
    Message('control_change', channel=10, control=11, value=0, time=39),
    Message('control_change', channel=10, control=1, value=98, time=33),
    Message('control_change', channel=10, control=1, value=102, time=31),
    Message('pitchwheel', channel=10, pitch=-7765, time=83),
    Message('pitchwheel', channel=10, pitch=-7539, time=11),
    Message('pitchwheel', channel=10, pitch=-7085, time=10),
    Message('note_off', channel=10, note=68, velocity=64, time=9),
    Message('pitchwheel', channel=10, pitch=-6745, time=2),
    Message('pitchwheel', channel=10, pitch=-6405, time=10),
    Message('control_change', channel=10, control=1, value=108, time=0),
    Message('pitchwheel', channel=10, pitch=-5951, time=11),
    Message('pitchwheel', channel=10, pitch=-5498, time=9),
    Message('pitchwheel', channel=10, pitch=-5044, time=12),
    Message('pitchwheel', channel=10, pitch=-4818, time=9),
    Message('note_off', channel=10, note=65, velocity=64, time=1),
    Message('pitchwheel', channel=10, pitch=-4364, time=9),
    Message('note_off', channel=10, note=72, velocity=64, time=9),
    Message('pitchwheel', channel=10, pitch=-3911, time=2),
    Message('pitchwheel', channel=10, pitch=-3797, time=14),
    Message('pitchwheel', channel=10, pitch=-3457, time=5),
    Message('pitchwheel', channel=10, pitch=-3344, time=12),
    Message('pitchwheel', channel=10, pitch=-3117, time=9),
    Message('pitchwheel', channel=10, pitch=-3004, time=11),
    Message('pitchwheel', channel=10, pitch=-2664, time=10),
    Message('pitchwheel', channel=10, pitch=-2097, time=13),
    Message('pitchwheel', channel=10, pitch=-1530, time=8),
    Message('pitchwheel', channel=10, pitch=-850, time=10),
    Message('pitchwheel', channel=10, pitch=-170, time=16),
    Message('note_off', channel=10, note=61, velocity=64, time=1),
    Message('pitchwheel', channel=10, pitch=0, time=7),
    Message('control_change', channel=10, control=1, value=98, time=9),
    Message('control_change', channel=10, control=1, value=95, time=31),
    Message('control_change', channel=10, control=1, value=91, time=21),
    Message('control_change', channel=10, control=1, value=87, time=20),
    Message('control_change', channel=10, control=1, value=83, time=11),
    Message('control_change', channel=10, control=1, value=79, time=12),
    Message('control_change', channel=10, control=1, value=75, time=8),
    Message('control_change', channel=10, control=1, value=69, time=10),
    Message('control_change', channel=10, control=1, value=62, time=14),
    Message('control_change', channel=10, control=1, value=54, time=7),
    Message('control_change', channel=10, control=1, value=44, time=11),
    Message('control_change', channel=10, control=1, value=34, time=10),
    Message('control_change', channel=10, control=1, value=21, time=11),
    Message('control_change', channel=10, control=1, value=7, time=9),
    Message('control_change', channel=10, control=1, value=0, time=14),
    Message('control_change', channel=10, control=91, value=57, time=8338),
    Message('note_on', channel=10, note=54, velocity=107, time=1070),
    Message('note_on', channel=10, note=38, velocity=96, time=1),
    Message('note_on', channel=10, note=45, velocity=98, time=2),
    Message('control_change', channel=10, control=11, value=0, time=82),
    Message('control_change', channel=10, control=11, value=1, time=48),
    Message('control_change', channel=10, control=11, value=2, time=48),
    Message('control_change', channel=10, control=11, value=3, time=48),
    Message('control_change', channel=10, control=11, value=4, time=38),
    Message('control_change', channel=10, control=11, value=5, time=49),
    Message('control_change', channel=10, control=11, value=6, time=47),
    Message('control_change', channel=10, control=11, value=7, time=48),
    Message('control_change', channel=10, control=11, value=8, time=38),
    Message('control_change', channel=10, control=11, value=9, time=49),
    Message('control_change', channel=10, control=11, value=10, time=49),
    Message('control_change', channel=10, control=11, value=11, time=37),
    Message('control_change', channel=10, control=11, value=12, time=48),
    Message('control_change', channel=10, control=11, value=13, time=49),
    Message('control_change', channel=10, control=11, value=14, time=48),
    Message('control_change', channel=10, control=11, value=15, time=37),
    Message('control_change', channel=10, control=11, value=16, time=77),
    Message('control_change', channel=10, control=11, value=17, time=57),
    Message('control_change', channel=10, control=11, value=18, time=192),
    Message('control_change', channel=10, control=11, value=19, time=193),
    Message('control_change', channel=10, control=11, value=20, time=192),
    Message('control_change', channel=10, control=11, value=21, time=191),
    Message('control_change', channel=10, control=11, value=22, time=192),
    Message('control_change', channel=10, control=11, value=23, time=198),
    Message('control_change', channel=10, control=11, value=24, time=186),
    Message('control_change', channel=10, control=11, value=25, time=192),
    Message('control_change', channel=10, control=21, value=127, time=89),
    Message('control_change', channel=10, control=11, value=26, time=105),
    Message('control_change', channel=10, control=11, value=27, time=191),
    Message('control_change', channel=10, control=11, value=28, time=192),
    Message('control_change', channel=10, control=11, value=29, time=200),
    Message('control_change', channel=10, control=11, value=30, time=235),
    Message('control_change', channel=10, control=11, value=31, time=325),
    Message('control_change', channel=10, control=11, value=32, time=323),
    Message('control_change', channel=10, control=11, value=33, time=324),
    Message('control_change', channel=10, control=11, value=34, time=324),
    Message('control_change', channel=10, control=11, value=35, time=327),
    Message('control_change', channel=10, control=11, value=36, time=328),
    Message('control_change', channel=10, control=11, value=37, time=317),
    Message('control_change', channel=10, control=11, value=38, time=325),
    Message('control_change', channel=10, control=11, value=42, time=235),
    Message('note_on', channel=10, note=40, velocity=74, time=151),
    Message('note_on', channel=10, note=56, velocity=89, time=0),
    Message('control_change', channel=10, control=11, value=43, time=141),
    Message('note_off', channel=10, note=54, velocity=64, time=18),
    Message('note_off', channel=10, note=38, velocity=64, time=0),
    Message('control_change', channel=10, control=11, value=44, time=273),
    Message('control_change', channel=10, control=11, value=45, time=292),
    Message('control_change', channel=10, control=11, value=46, time=297),
    Message('control_change', channel=10, control=11, value=47, time=287),
    Message('control_change', channel=10, control=11, value=48, time=306),
    Message('note_on', channel=10, note=42, velocity=75, time=95),
    Message('note_on', channel=10, note=52, velocity=82, time=0),
    Message('note_on', channel=10, note=57, velocity=86, time=5),
    Message('note_off', channel=10, note=40, velocity=64, time=40),
    Message('note_off', channel=10, note=56, velocity=64, time=20),
    Message('control_change', channel=10, control=11, value=50, time=3),
    Message('note_off', channel=10, note=45, velocity=64, time=87),
    Message('control_change', channel=10, control=11, value=47, time=118),
    Message('control_change', channel=10, control=11, value=49, time=403),
    Message('note_on', channel=10, note=50, velocity=96, time=124),
    Message('note_off', channel=10, note=52, velocity=64, time=31),
    Message('control_change', channel=10, control=11, value=55, time=672),
    Message('control_change', channel=10, control=11, value=50, time=33),
    Message('control_change', channel=10, control=11, value=51, time=16),
    Message('control_change', channel=10, control=11, value=52, time=32),
    Message('control_change', channel=10, control=11, value=53, time=17),
    Message('control_change', channel=10, control=11, value=54, time=16),
    Message('note_off', channel=10, note=42, velocity=64, time=2),
    Message('note_on', channel=10, note=52, velocity=100, time=15),
    Message('control_change', channel=10, control=11, value=55, time=15),
    Message('control_change', channel=10, control=11, value=55, time=18),
    Message('note_off', channel=10, note=50, velocity=64, time=22),
    Message('control_change', channel=10, control=11, value=56, time=9),
    Message('control_change', channel=10, control=11, value=57, time=18),
    Message('control_change', channel=10, control=11, value=58, time=31),
    Message('control_change', channel=10, control=11, value=59, time=16),
    Message('control_change', channel=10, control=11, value=60, time=16),
    Message('note_on', channel=10, note=44, velocity=104, time=30),
    Message('control_change', channel=10, control=11, value=61, time=3),
    Message('control_change', channel=10, control=11, value=62, time=16),
    Message('control_change', channel=10, control=11, value=63, time=33),
    Message('control_change', channel=10, control=11, value=64, time=15),
    Message('control_change', channel=10, control=11, value=64, time=33),
    Message('control_change', channel=10, control=11, value=65, time=21),
    Message('control_change', channel=10, control=11, value=64, time=87),
    Message('control_change', channel=10, control=11, value=64, time=123),
    Message('control_change', channel=10, control=11, value=63, time=149),
    Message('control_change', channel=10, control=11, value=62, time=126),
    Message('note_on', channel=10, note=45, velocity=82, time=43),
    Message('note_off', channel=10, note=44, velocity=64, time=30),
    Message('control_change', channel=10, control=11, value=61, time=57),
    Message('control_change', channel=10, control=11, value=60, time=146),
    Message('control_change', channel=10, control=11, value=59, time=139),
    Message('control_change', channel=10, control=11, value=58, time=120),
    Message('control_change', channel=10, control=11, value=57, time=153),
    Message('note_on', channel=10, note=50, velocity=102, time=171),
    Message('note_off', channel=10, note=52, velocity=64, time=12),
    Message('note_off', channel=10, note=45, velocity=64, time=32),
    Message('control_change', channel=10, control=11, value=61, time=183),
    Message('control_change', channel=10, control=11, value=61, time=417),
    Message('control_change', channel=10, control=11, value=63, time=209),
    Message('control_change', channel=10, control=11, value=66, time=195),
    Message('control_change', channel=10, control=11, value=68, time=104),
    Message('control_change', channel=10, control=11, value=71, time=200),
    Message('note_on', channel=10, note=40, velocity=84, time=179),
    Message('note_on', channel=10, note=56, velocity=58, time=12),
    Message('note_off', channel=10, note=57, velocity=64, time=92),
    Message('control_change', channel=10, control=11, value=64, time=729),
    Message('control_change', channel=10, control=11, value=61, time=102),
    Message('control_change', channel=10, control=11, value=60, time=101),
    Message('control_change', channel=10, control=11, value=55, time=101),
    Message('control_change', channel=10, control=11, value=50, time=107),
    Message('control_change', channel=10, control=11, value=50, time=95),
    Message('control_change', channel=10, control=11, value=47, time=101),
    Message('note_off', channel=10, note=40, velocity=64, time=3),
    Message('note_on', channel=10, note=42, velocity=73, time=279),
    Message('note_on', channel=10, note=54, velocity=96, time=18),
    Message('note_off', channel=10, note=56, velocity=64, time=37),
    Message('control_change', channel=10, control=11, value=55, time=582),
    Message('control_change', channel=10, control=11, value=58, time=95),
    Message('note_on', channel=10, note=52, velocity=98, time=148),
    Message('note_off', channel=10, note=50, velocity=64, time=46),
    Message('control_change', channel=10, control=11, value=60, time=13),
    Message('control_change', channel=10, control=11, value=63, time=512),
    Message('note_off', channel=10, note=42, velocity=64, time=116),
    Message('note_on', channel=10, note=44, velocity=66, time=122),
    Message('note_off', channel=10, note=54, velocity=64, time=164),
    Message('note_on', channel=10, note=45, velocity=71, time=634),
    Message('note_off', channel=10, note=44, velocity=64, time=48),
    Message('note_on', channel=10, note=38, velocity=110, time=728),
    Message('note_on', channel=10, note=59, velocity=50, time=821),
    Message('control_change', channel=10, control=11, value=69, time=595),
    Message('control_change', channel=10, control=11, value=71, time=113),
    Message('note_on', channel=10, note=56, velocity=50, time=81),
    Message('note_on', channel=10, note=40, velocity=95, time=9),
    Message('note_off', channel=10, note=38, velocity=64, time=2),
    Message('control_change', channel=10, control=11, value=76, time=0),
    Message('control_change', channel=10, control=11, value=77, time=99),
    Message('note_off', channel=10, note=45, velocity=64, time=48),
    Message('control_change', channel=10, control=11, value=79, time=155),
    Message('control_change', channel=10, control=11, value=82, time=304),
    Message('note_on', channel=10, note=61, velocity=66, time=191),
    Message('note_on', channel=10, note=57, velocity=57, time=7),
    Message('control_change', channel=10, control=11, value=83, time=4),
    Message('note_off', channel=10, note=56, velocity=64, time=41),
    Message('note_off', channel=10, note=59, velocity=64, time=9),
    Message('control_change', channel=10, control=11, value=85, time=460),
    Message('control_change', channel=10, control=11, value=87, time=200),
    Message('note_off', channel=10, note=40, velocity=64, time=99),
    Message('note_on', channel=10, note=42, velocity=78, time=0),
    Message('control_change', channel=10, control=11, value=90, time=6),
    Message('note_on', channel=10, note=50, velocity=80, time=1),
    Message('note_on', channel=10, note=54, velocity=62, time=6),
    Message('note_off', channel=10, note=52, velocity=64, time=20),
    Message('note_off', channel=10, note=57, velocity=64, time=14),
    Message('control_change', channel=10, control=11, value=91, time=664),
    Message('note_on', channel=10, note=52, velocity=62, time=15),
    Message('note_on', channel=10, note=62, velocity=80, time=2),
    Message('note_off', channel=10, note=61, velocity=64, time=29),
    Message('note_off', channel=10, note=50, velocity=64, time=13),
    Message('control_change', channel=10, control=11, value=94, time=41),
    Message('note_on', channel=10, note=44, velocity=82, time=734),
    Message('note_on', channel=10, note=64, velocity=80, time=26),
    Message('note_on', channel=10, note=59, velocity=64, time=1),
    Message('note_off', channel=10, note=62, velocity=64, time=29),
    Message('note_off', channel=10, note=54, velocity=64, time=12),
    Message('note_off', channel=10, note=42, velocity=64, time=6),
    Message('note_on', channel=10, note=45, velocity=78, time=812),
    Message('note_on', channel=10, note=61, velocity=73, time=14),
    Message('note_off', channel=10, note=44, velocity=64, time=33),
    Message('note_off', channel=10, note=59, velocity=64, time=7),
    Message('control_change', channel=10, control=11, value=88, time=149),
    Message('control_change', channel=10, control=11, value=85, time=105),
    Message('control_change', channel=10, control=11, value=79, time=98),
    Message('control_change', channel=10, control=11, value=76, time=102),
    Message('note_off', channel=10, note=52, velocity=64, time=62),
    Message('control_change', channel=10, control=11, value=71, time=39),
    Message('control_change', channel=10, control=11, value=63, time=101),
    Message('control_change', channel=10, control=11, value=60, time=100),
    Message('note_on', channel=10, note=38, velocity=55, time=18),
    Message('note_on', channel=10, note=54, velocity=54, time=1),
    Message('control_change', channel=10, control=11, value=58, time=82),
    Message('control_change', channel=10, control=11, value=55, time=102),
    Message('control_change', channel=10, control=11, value=53, time=415),
    Message('control_change', channel=10, control=11, value=50, time=92),
    Message('note_on', channel=10, note=59, velocity=55, time=48),
    Message('note_off', channel=10, note=61, velocity=64, time=36),
    Message('control_change', channel=10, control=11, value=50, time=219),
    Message('note_on', channel=10, note=57, velocity=55, time=546),
    Message('note_off', channel=10, note=59, velocity=64, time=41),
    Message('note_off', channel=10, note=38, velocity=64, time=97),
    Message('note_on', channel=10, note=40, velocity=65, time=37),
    Message('note_off', channel=10, note=45, velocity=64, time=343),
    Message('note_on', channel=10, note=56, velocity=46, time=270),
    Message('note_off', channel=10, note=54, velocity=64, time=42),
    Message('note_off', channel=10, note=57, velocity=64, time=35),
    Message('control_change', channel=10, control=11, value=42, time=421),
    Message('control_change', channel=10, control=11, value=41, time=91),
    Message('note_on', channel=10, note=57, velocity=55, time=232),
    Message('note_on', channel=10, note=50, velocity=85, time=4),
    Message('note_on', channel=10, note=42, velocity=62, time=1),
    Message('note_off', channel=10, note=40, velocity=64, time=56),
    Message('note_off', channel=10, note=56, velocity=64, time=293),
    Message('control_change', channel=10, control=11, value=38, time=648),
    Message('control_change', channel=10, control=11, value=36, time=61),
    Message('control_change', channel=10, control=11, value=34, time=119),
    Message('control_change', channel=10, control=11, value=31, time=60),
    Message('control_change', channel=10, control=11, value=30, time=61),
    Message('control_change', channel=10, control=11, value=26, time=119),
    Message('control_change', channel=10, control=11, value=26, time=241),
    Message('control_change', channel=10, control=11, value=23, time=119),
    Message('control_change', channel=10, control=11, value=22, time=123),
    Message('control_change', channel=10, control=11, value=19, time=57),
    Message('control_change', channel=10, control=11, value=17, time=122),
    Message('control_change', channel=10, control=11, value=15, time=60),
    Message('control_change', channel=10, control=11, value=14, time=59),
    Message('control_change', channel=10, control=11, value=11, time=120),
    Message('control_change', channel=10, control=11, value=9, time=121),
    Message('control_change', channel=10, control=11, value=7, time=239),
    Message('control_change', channel=10, control=11, value=6, time=62),
    Message('control_change', channel=10, control=11, value=0, time=62),
    Message('control_change', channel=10, control=11, value=0, time=58),
    Message('note_off', channel=10, note=57, velocity=64, time=59),
    Message('control_change', channel=10, control=11, value=0, time=1),
    Message('note_off', channel=10, note=64, velocity=64, time=5),
    Message('note_off', channel=10, note=50, velocity=64, time=9),
    Message('note_off', channel=10, note=42, velocity=64, time=0),
    Message('control_change', channel=10, control=11, value=36, time=120),
    Message('control_change', channel=10, control=91, value=57, time=2235),
    Message('control_change', channel=10, control=91, value=57, time=4801),
    Message('note_on', channel=10, note=61, velocity=127, time=359),
    Message('control_change', channel=10, control=11, value=36, time=2183),
    Message('control_change', channel=10, control=11, value=36, time=57),
    Message('control_change', channel=10, control=11, value=37, time=29),
    Message('control_change', channel=10, control=11, value=38, time=29),
    Message('control_change', channel=10, control=11, value=38, time=30),
    Message('control_change', channel=10, control=11, value=39, time=28),
    Message('control_change', channel=10, control=11, value=39, time=29),
    Message('control_change', channel=10, control=11, value=40, time=28),
    Message('control_change', channel=10, control=11, value=40, time=29),
    Message('control_change', channel=10, control=11, value=41, time=30),
    Message('control_change', channel=10, control=11, value=42, time=28),
    Message('control_change', channel=10, control=11, value=42, time=29),
    Message('control_change', channel=10, control=11, value=42, time=28),
    Message('control_change', channel=10, control=11, value=43, time=30),
    Message('control_change', channel=10, control=11, value=44, time=29),
    Message('control_change', channel=10, control=11, value=44, time=28),
    Message('control_change', channel=10, control=11, value=44, time=30),
    Message('control_change', channel=10, control=11, value=45, time=37),
    Message('control_change', channel=10, control=11, value=46, time=29),
    Message('control_change', channel=10, control=11, value=46, time=28),
    Message('control_change', channel=10, control=11, value=47, time=30),
    Message('control_change', channel=10, control=11, value=47, time=29),
    Message('control_change', channel=10, control=11, value=48, time=28),
    Message('control_change', channel=10, control=11, value=48, time=30),
    Message('control_change', channel=10, control=11, value=49, time=29),
    Message('note_on', channel=10, note=51, velocity=127, time=5),
    Message('note_on', channel=10, note=63, velocity=127, time=0),
    Message('note_off', channel=10, note=61, velocity=64, time=23),
    Message('control_change', channel=10, control=11, value=50, time=0),
    Message('control_change', channel=10, control=11, value=50, time=31),
    Message('control_change', channel=10, control=11, value=50, time=32),
    Message('control_change', channel=10, control=11, value=51, time=25),
    Message('control_change', channel=10, control=11, value=52, time=27),
    Message('control_change', channel=10, control=11, value=52, time=32),
    Message('control_change', channel=10, control=11, value=53, time=26),
    Message('control_change', channel=10, control=11, value=53, time=28),
    Message('control_change', channel=10, control=11, value=54, time=28),
    Message('control_change', channel=10, control=11, value=54, time=30),
    Message('control_change', channel=10, control=11, value=55, time=29),
    Message('control_change', channel=10, control=11, value=56, time=28),
    Message('control_change', channel=10, control=11, value=56, time=29),
    Message('control_change', channel=10, control=11, value=56, time=30),
    Message('control_change', channel=10, control=11, value=57, time=28),
    Message('control_change', channel=10, control=11, value=57, time=29),
    Message('control_change', channel=10, control=11, value=58, time=29),
    Message('control_change', channel=10, control=11, value=58, time=41),
    Message('control_change', channel=10, control=11, value=58, time=28),
    Message('control_change', channel=10, control=11, value=57, time=57),
    Message('control_change', channel=10, control=11, value=57, time=49),
    Message('control_change', channel=10, control=11, value=56, time=47),
    Message('control_change', channel=10, control=11, value=56, time=48),
    Message('control_change', channel=10, control=11, value=56, time=50),
    Message('control_change', channel=10, control=11, value=55, time=47),
    Message('control_change', channel=10, control=11, value=54, time=57),
    Message('note_on', channel=10, note=54, velocity=127, time=35),
    Message('note_on', channel=10, note=66, velocity=127, time=1),
    Message('note_off', channel=10, note=51, velocity=64, time=4),
    Message('note_off', channel=10, note=63, velocity=64, time=0),
    Message('control_change', channel=10, control=11, value=54, time=10),
    Message('control_change', channel=10, control=11, value=53, time=48),
    Message('control_change', channel=10, control=11, value=53, time=47),
    Message('control_change', channel=10, control=11, value=52, time=54),
    Message('control_change', channel=10, control=11, value=52, time=78),
    Message('control_change', channel=10, control=11, value=51, time=19),
    Message('control_change', channel=10, control=11, value=50, time=87),
    Message('control_change', channel=10, control=11, value=50, time=86),
    Message('control_change', channel=10, control=11, value=50, time=69),
    Message('control_change', channel=10, control=11, value=49, time=87),
    Message('control_change', channel=10, control=11, value=48, time=76),
    Message('control_change', channel=10, control=11, value=48, time=76),
    Message('control_change', channel=10, control=11, value=47, time=87),
    Message('control_change', channel=10, control=11, value=47, time=77),
    Message('control_change', channel=10, control=11, value=46, time=76),
    Message('control_change', channel=10, control=11, value=46, time=88),
    Message('control_change', channel=10, control=11, value=45, time=75),
    Message('control_change', channel=10, control=11, value=44, time=78),
    Message('control_change', channel=10, control=11, value=44, time=85),
    Message('control_change', channel=10, control=11, value=44, time=77),
    Message('control_change', channel=10, control=11, value=43, time=78),
    Message('control_change', channel=10, control=11, value=42, time=84),
    Message('control_change', channel=10, control=11, value=42, time=79),
    Message('control_change', channel=10, control=11, value=42, time=77),
    Message('control_change', channel=10, control=11, value=41, time=77),
    Message('control_change', channel=10, control=11, value=40, time=86),
    Message('control_change', channel=10, control=11, value=40, time=77),
    Message('control_change', channel=10, control=11, value=39, time=77),
    Message('control_change', channel=10, control=11, value=39, time=85),
    Message('control_change', channel=10, control=11, value=38, time=79),
    Message('control_change', channel=10, control=11, value=38, time=76),
    Message('control_change', channel=10, control=11, value=37, time=85),
    Message('control_change', channel=10, control=11, value=36, time=77),
    Message('control_change', channel=10, control=11, value=36, time=78),
    Message('control_change', channel=10, control=11, value=36, time=85),
    Message('control_change', channel=10, control=11, value=36, time=80),
    Message('control_change', channel=10, control=11, value=35, time=74),
    Message('control_change', channel=10, control=11, value=34, time=87),
    Message('control_change', channel=10, control=11, value=34, time=80),
    Message('control_change', channel=10, control=11, value=33, time=73),
    Message('control_change', channel=10, control=11, value=32, time=87),
    Message('control_change', channel=10, control=11, value=32, time=78),
    Message('control_change', channel=10, control=11, value=31, time=75),
    Message('control_change', channel=10, control=11, value=30, time=87),
    Message('note_off', channel=10, note=54, velocity=64, time=8),
    Message('note_off', channel=10, note=66, velocity=64, time=1),
    Message('control_change', channel=10, control=11, value=30, time=68),
    Message('control_change', channel=10, control=11, value=29, time=76),
    Message('control_change', channel=10, control=11, value=29, time=87),
    Message('control_change', channel=10, control=11, value=28, time=77),
    Message('control_change', channel=10, control=11, value=27, time=76),
    Message('control_change', channel=10, control=11, value=27, time=87),
    Message('control_change', channel=10, control=11, value=26, time=82),
    Message('control_change', channel=10, control=11, value=25, time=70),
    Message('control_change', channel=10, control=91, value=0, time=73),
    Message('control_change', channel=10, control=11, value=25, time=14),
    Message('control_change', channel=10, control=11, value=24, time=84),
    Message('control_change', channel=10, control=11, value=23, time=71),
    Message('control_change', channel=10, control=11, value=23, time=86),
    Message('control_change', channel=10, control=11, value=22, time=85),
    Message('control_change', channel=10, control=11, value=21, time=70),
    Message('control_change', channel=10, control=11, value=21, time=85),
    MetaMessage('end_of_track', time=22764)]),
  MidiTrack([
    MetaMessage('track_name', name='Dark & Perc\x00gundlach.de\x00', time=0),
    MetaMessage('channel_prefix', channel=11, time=0),
    Message('control_change', channel=11, control=0, value=0, time=0),
    Message('control_change', channel=11, control=32, value=10, time=0),
    Message('program_change', channel=11, program=82, time=0),
    Message('control_change', channel=11, control=7, value=127, time=0),
    Message('control_change', channel=11, control=10, value=64, time=0),
    Message('control_change', channel=11, control=93, value=0, time=0),
    Message('control_change', channel=11, control=91, value=13, time=0),
    Message('control_change', channel=11, control=91, value=11, time=9493),
    Message('control_change', channel=11, control=11, value=27, time=121),
    Message('control_change', channel=11, control=11, value=77, time=11),
    Message('control_change', channel=11, control=11, value=123, time=10),
    Message('control_change', channel=11, control=11, value=127, time=11),
    Message('control_change', channel=11, control=0, value=0, time=70994),
    Message('control_change', channel=11, control=32, value=4, time=0),
    Message('program_change', channel=11, program=2, time=0),
    Message('control_change', channel=11, control=11, value=72, time=696),
    Message('note_on', channel=11, note=26, velocity=89, time=213),
    Message('note_on', channel=11, note=29, velocity=98, time=241),
    Message('note_off', channel=11, note=26, velocity=64, time=17),
    Message('note_off', channel=11, note=29, velocity=64, time=152),
    Message('note_on', channel=11, note=26, velocity=68, time=8),
    Message('note_off', channel=11, note=26, velocity=64, time=64),
    Message('note_on', channel=11, note=31, velocity=87, time=0),
    Message('note_on', channel=11, note=33, velocity=93, time=117),
    Message('note_off', channel=11, note=31, velocity=64, time=10),
    Message('note_off', channel=11, note=33, velocity=64, time=47),
    Message('note_on', channel=11, note=26, velocity=77, time=1261),
    Message('note_off', channel=11, note=26, velocity=64, time=245),
    Message('note_on', channel=11, note=29, velocity=75, time=0),
    Message('note_on', channel=11, note=26, velocity=46, time=178),
    Message('note_off', channel=11, note=29, velocity=64, time=35),
    Message('note_on', channel=11, note=31, velocity=62, time=22),
    Message('note_off', channel=11, note=26, velocity=64, time=4),
    Message('note_on', channel=11, note=33, velocity=75, time=118),
    Message('note_off', channel=11, note=31, velocity=64, time=23),
    Message('note_off', channel=11, note=33, velocity=64, time=34),
    Message('note_on', channel=11, note=36, velocity=113, time=1023),
    Message('note_off', channel=11, note=36, velocity=64, time=59),
    Message('note_on', channel=11, note=42, velocity=99, time=1),
    Message('note_on', channel=11, note=41, velocity=99, time=63),
    Message('note_off', channel=11, note=42, velocity=64, time=3),
    Message('note_on', channel=11, note=36, velocity=99, time=53),
    Message('note_off', channel=11, note=41, velocity=64, time=1),
    Message('note_on', channel=11, note=26, velocity=90, time=61),
    Message('note_off', channel=11, note=36, velocity=64, time=2),
    Message('note_on', channel=11, note=29, velocity=83, time=239),
    Message('note_off', channel=11, note=26, velocity=64, time=20),
    Message('note_on', channel=11, note=26, velocity=64, time=162),
    Message('note_off', channel=11, note=29, velocity=64, time=1),
    Message('note_on', channel=11, note=31, velocity=89, time=57),
    Message('note_off', channel=11, note=26, velocity=64, time=6),
    Message('note_on', channel=11, note=33, velocity=95, time=111),
    Message('note_off', channel=11, note=31, velocity=64, time=9),
    Message('note_off', channel=11, note=33, velocity=64, time=63),
    Message('note_on', channel=11, note=26, velocity=93, time=1248),
    Message('note_off', channel=11, note=26, velocity=64, time=232),
    Message('note_on', channel=11, note=29, velocity=75, time=10),
    Message('note_on', channel=11, note=26, velocity=55, time=184),
    Message('note_off', channel=11, note=29, velocity=64, time=15),
    Message('note_on', channel=11, note=31, velocity=74, time=48),
    Message('note_off', channel=11, note=26, velocity=64, time=3),
    Message('note_on', channel=11, note=33, velocity=80, time=108),
    Message('note_off', channel=11, note=31, velocity=64, time=20),
    Message('note_off', channel=11, note=33, velocity=64, time=43),
    Message('note_on', channel=11, note=38, velocity=102, time=420),
    Message('note_on', channel=11, note=37, velocity=99, time=55),
    Message('note_off', channel=11, note=38, velocity=64, time=2),
    Message('note_off', channel=11, note=37, velocity=64, time=58),
    Message('note_on', channel=11, note=36, velocity=92, time=2),
    Message('note_off', channel=11, note=36, velocity=64, time=51),
    Message('note_on', channel=11, note=24, velocity=73, time=8),
    Message('note_on', channel=11, note=35, velocity=96, time=60),
    Message('note_off', channel=11, note=24, velocity=64, time=24),
    Message('note_off', channel=11, note=35, velocity=64, time=30),
    Message('note_on', channel=11, note=34, velocity=92, time=6),
    Message('note_on', channel=11, note=33, velocity=89, time=63),
    Message('note_off', channel=11, note=34, velocity=64, time=4),
    Message('note_off', channel=11, note=33, velocity=64, time=48),
    Message('note_on', channel=11, note=25, velocity=54, time=5),
    Message('note_off', channel=11, note=25, velocity=64, time=58),
    Message('note_on', channel=11, note=34, velocity=107, time=3),
    Message('note_on', channel=11, note=32, velocity=92, time=59),
    Message('note_off', channel=11, note=34, velocity=64, time=12),
    Message('note_off', channel=11, note=32, velocity=64, time=35),
    Message('note_on', channel=11, note=31, velocity=83, time=14),
    Message('note_off', channel=11, note=31, velocity=64, time=54),
    Message('note_on', channel=11, note=27, velocity=62, time=5),
    Message('note_off', channel=11, note=27, velocity=64, time=58),
    Message('note_on', channel=11, note=29, velocity=93, time=3),
    Message('note_off', channel=11, note=29, velocity=64, time=53),
    Message('note_on', channel=11, note=28, velocity=75, time=6),
    Message('note_off', channel=11, note=28, velocity=64, time=63),
    Message('note_on', channel=11, note=26, velocity=100, time=1),
    Message('note_off', channel=11, note=26, velocity=64, time=234),
    Message('note_on', channel=11, note=29, velocity=96, time=4),
    Message('note_off', channel=11, note=29, velocity=64, time=173),
    Message('note_on', channel=11, note=26, velocity=71, time=5),
    Message('note_on', channel=11, note=31, velocity=98, time=62),
    Message('note_off', channel=11, note=26, velocity=64, time=13),
    Message('note_on', channel=11, note=33, velocity=102, time=106),
    Message('note_off', channel=11, note=31, velocity=64, time=3),
    Message('note_off', channel=11, note=33, velocity=64, time=61),
    Message('note_on', channel=11, note=40, velocity=113, time=1017),
    Message('note_off', channel=11, note=40, velocity=64, time=43),
    Message('note_on', channel=11, note=43, velocity=96, time=15),
    Message('note_on', channel=11, note=45, velocity=100, time=60),
    Message('note_off', channel=11, note=43, velocity=64, time=21),
    Message('note_off', channel=11, note=45, velocity=64, time=44),
    Message('note_on', channel=11, note=26, velocity=90, time=57),
    Message('note_on', channel=11, note=29, velocity=87, time=239),
    Message('note_off', channel=11, note=26, velocity=64, time=3),
    Message('note_on', channel=11, note=26, velocity=70, time=176),
    Message('note_off', channel=11, note=29, velocity=64, time=22),
    Message('note_off', channel=11, note=26, velocity=64, time=43),
    Message('note_on', channel=11, note=31, velocity=95, time=0),
    Message('note_on', channel=11, note=33, velocity=100, time=116),
    Message('note_off', channel=11, note=31, velocity=64, time=5),
    Message('note_off', channel=11, note=33, velocity=64, time=38),
    Message('note_on', channel=11, note=26, velocity=83, time=1278),
    Message('note_on', channel=11, note=29, velocity=75, time=239),
    Message('note_off', channel=11, note=26, velocity=64, time=29),
    Message('note_on', channel=11, note=26, velocity=57, time=150),
    Message('note_off', channel=11, note=29, velocity=64, time=10),
    Message('note_on', channel=11, note=31, velocity=75, time=51),
    Message('note_off', channel=11, note=26, velocity=64, time=6),
    Message('note_on', channel=11, note=33, velocity=80, time=115),
    Message('note_off', channel=11, note=31, velocity=64, time=26),
    Message('note_off', channel=11, note=33, velocity=64, time=45),
    Message('note_on', channel=11, note=50, velocity=80, time=169),
    Message('note_off', channel=11, note=50, velocity=64, time=71),
    Message('note_on', channel=11, note=35, velocity=96, time=772),
    Message('note_on', channel=11, note=36, velocity=87, time=56),
    Message('note_off', channel=11, note=35, velocity=64, time=4),
    Message('note_on', channel=11, note=37, velocity=66, time=58),
    Message('note_off', channel=11, note=36, velocity=64, time=29),
    Message('note_on', channel=11, note=38, velocity=83, time=29),
    Message('note_off', channel=11, note=37, velocity=64, time=10),
    Message('note_on', channel=11, note=26, velocity=102, time=51),
    Message('note_off', channel=11, note=38, velocity=64, time=3),
    Message('note_on', channel=11, note=29, velocity=82, time=238),
    Message('note_off', channel=11, note=26, velocity=64, time=5),
    Message('note_on', channel=11, note=26, velocity=55, time=174),
    Message('note_off', channel=11, note=29, velocity=64, time=41),
    Message('note_off', channel=11, note=26, velocity=64, time=15),
    Message('note_on', channel=11, note=31, velocity=87, time=4),
    Message('note_on', channel=11, note=33, velocity=96, time=120),
    Message('note_off', channel=11, note=31, velocity=64, time=30),
    Message('note_off', channel=11, note=33, velocity=64, time=23),
    Message('control_change', channel=11, control=0, value=0, time=359),
    Message('control_change', channel=11, control=32, value=10, time=0),
    Message('program_change', channel=11, program=82, time=0),
    MetaMessage('end_of_track', time=67200)]),
  MidiTrack([
    MetaMessage('track_name', name='Male/Female Conversation', time=0),
    MetaMessage('channel_prefix', channel=12, time=0),
    Message('control_change', channel=12, control=0, value=0, time=0),
    Message('control_change', channel=12, control=32, value=1, time=0),
    Message('program_change', channel=12, program=14, time=0),
    Message('control_change', channel=12, control=7, value=75, time=0),
    Message('control_change', channel=12, control=10, value=64, time=0),
    Message('control_change', channel=12, control=93, value=0, time=0),
    Message('control_change', channel=12, control=91, value=127, time=0),
    Message('control_change', channel=12, control=11, value=96, time=98850),
    Message('note_on', channel=12, note=62, velocity=110, time=6639),
    Message('note_on', channel=12, note=66, velocity=112, time=0),
    Message('note_off', channel=12, note=66, velocity=64, time=715),
    Message('note_off', channel=12, note=62, velocity=64, time=15),
    Message('note_on', channel=12, note=69, velocity=114, time=86),
    Message('note_on', channel=12, note=66, velocity=112, time=1),
    Message('note_off', channel=12, note=66, velocity=64, time=708),
    Message('note_off', channel=12, note=69, velocity=64, time=8),
    Message('note_on', channel=12, note=64, velocity=116, time=92),
    Message('note_on', channel=12, note=68, velocity=112, time=0),
    Message('note_off', channel=12, note=64, velocity=64, time=711),
    Message('note_off', channel=12, note=68, velocity=64, time=0),
    Message('note_on', channel=12, note=68, velocity=117, time=93),
    Message('note_on', channel=12, note=71, velocity=112, time=1),
    Message('note_off', channel=12, note=68, velocity=64, time=709),
    Message('note_off', channel=12, note=71, velocity=64, time=22),
    Message('note_on', channel=12, note=66, velocity=112, time=77),
    Message('note_on', channel=12, note=69, velocity=117, time=0),
    Message('note_off', channel=12, note=66, velocity=64, time=744),
    Message('note_off', channel=12, note=69, velocity=64, time=15),
    Message('note_on', channel=12, note=73, velocity=116, time=51),
    Message('note_on', channel=12, note=69, velocity=114, time=0),
    Message('note_off', channel=12, note=69, velocity=64, time=780),
    Message('note_off', channel=12, note=73, velocity=64, time=21),
    Message('note_on', channel=12, note=62, velocity=120, time=1629),
    Message('note_on', channel=12, note=66, velocity=120, time=2),
    Message('note_off', channel=12, note=66, velocity=64, time=714),
    Message('note_off', channel=12, note=62, velocity=64, time=16),
    Message('note_on', channel=12, note=69, velocity=120, time=78),
    Message('note_on', channel=12, note=66, velocity=120, time=1),
    Message('note_off', channel=12, note=66, velocity=64, time=719),
    Message('note_off', channel=12, note=69, velocity=64, time=1),
    Message('note_on', channel=12, note=64, velocity=120, time=90),
    Message('note_on', channel=12, note=68, velocity=120, time=0),
    Message('note_off', channel=12, note=64, velocity=64, time=721),
    Message('note_off', channel=12, note=68, velocity=64, time=0),
    Message('note_on', channel=12, note=68, velocity=120, time=88),
    Message('note_on', channel=12, note=71, velocity=120, time=1),
    Message('note_off', channel=12, note=68, velocity=64, time=710),
    Message('note_off', channel=12, note=71, velocity=64, time=22),
    Message('note_on', channel=12, note=66, velocity=120, time=82),
    Message('note_on', channel=12, note=69, velocity=120, time=0),
    Message('note_off', channel=12, note=66, velocity=64, time=740),
    Message('note_off', channel=12, note=69, velocity=64, time=15),
    Message('note_on', channel=12, note=73, velocity=120, time=50),
    Message('note_on', channel=12, note=69, velocity=120, time=2),
    Message('note_off', channel=12, note=69, velocity=64, time=783),
    Message('note_off', channel=12, note=73, velocity=64, time=17),
    Message('note_on', channel=12, note=66, velocity=101, time=1628),
    Message('note_on', channel=12, note=62, velocity=101, time=1),
    Message('note_off', channel=12, note=66, velocity=64, time=714),
    Message('note_off', channel=12, note=62, velocity=64, time=20),
    Message('note_on', channel=12, note=68, velocity=101, time=886),
    Message('note_on', channel=12, note=64, velocity=101, time=0),
    Message('note_off', channel=12, note=68, velocity=64, time=717),
    Message('note_off', channel=12, note=64, velocity=64, time=0),
    Message('note_on', channel=12, note=69, velocity=101, time=902),
    Message('note_on', channel=12, note=66, velocity=101, time=2),
    Message('note_off', channel=12, note=66, velocity=64, time=743),
    Message('note_off', channel=12, note=69, velocity=64, time=16),
    MetaMessage('end_of_track', time=40752)]),
  MidiTrack([
    MetaMessage('track_name', name='Bay Area Funk Brass\x00.de\x00', time=0),
    MetaMessage('channel_prefix', channel=13, time=0),
    Message('control_change', channel=13, control=0, value=0, time=0),
    Message('control_change', channel=13, control=32, value=1, time=0),
    Message('program_change', channel=13, program=1, time=0),
    Message('control_change', channel=13, control=7, value=127, time=0),
    Message('control_change', channel=13, control=10, value=64, time=0),
    Message('control_change', channel=13, control=93, value=0, time=0),
    Message('control_change', channel=13, control=91, value=0, time=0),
    Message('pitchwheel', channel=13, pitch=0, time=52750),
    Message('note_on', channel=13, note=48, velocity=87, time=3),
    Message('note_off', channel=13, note=48, velocity=64, time=119),
    Message('control_change', channel=13, control=11, value=81, time=9854),
    Message('note_on', channel=13, note=54, velocity=109, time=103),
    Message('note_off', channel=13, note=54, velocity=64, time=83),
    Message('note_on', channel=13, note=54, velocity=91, time=156),
    Message('note_off', channel=13, note=54, velocity=64, time=80),
    Message('note_on', channel=13, note=57, velocity=103, time=161),
    Message('note_off', channel=13, note=57, velocity=64, time=115),
    Message('control_change', channel=13, control=11, value=80, time=717),
    Message('note_on', channel=13, note=50, velocity=73, time=128),
    Message('note_off', channel=13, note=50, velocity=64, time=103),
    Message('note_on', channel=13, note=50, velocity=68, time=135),
    Message('note_off', channel=13, note=50, velocity=64, time=90),
    Message('note_on', channel=13, note=54, velocity=61, time=151),
    Message('note_off', channel=13, note=54, velocity=64, time=92),
    Message('note_on', channel=13, note=54, velocity=64, time=148),
    Message('note_off', channel=13, note=54, velocity=64, time=86),
    Message('note_on', channel=13, note=57, velocity=64, time=153),
    Message('note_off', channel=13, note=57, velocity=64, time=86),
    Message('note_on', channel=13, note=54, velocity=62, time=779),
    Message('note_off', channel=13, note=54, velocity=64, time=41),
    Message('note_on', channel=13, note=55, velocity=78, time=59),
    Message('note_off', channel=13, note=55, velocity=64, time=68),
    Message('note_on', channel=13, note=55, velocity=83, time=172),
    Message('note_off', channel=13, note=55, velocity=64, time=258),
    Message('note_on', channel=13, note=54, velocity=53, time=227),
    Message('control_change', channel=13, control=1, value=17, time=65),
    Message('control_change', channel=13, control=1, value=32, time=15),
    Message('control_change', channel=13, control=1, value=50, time=6),
    Message('control_change', channel=13, control=1, value=62, time=10),
    Message('control_change', channel=13, control=1, value=77, time=11),
    Message('control_change', channel=13, control=1, value=91, time=10),
    Message('control_change', channel=13, control=1, value=95, time=10),
    Message('control_change', channel=13, control=1, value=108, time=10),
    Message('control_change', channel=13, control=1, value=112, time=10),
    Message('control_change', channel=13, control=1, value=118, time=11),
    Message('control_change', channel=13, control=1, value=122, time=10),
    Message('control_change', channel=13, control=1, value=127, time=21),
    Message('pitchwheel', channel=13, pitch=-56, time=322),
    Message('pitchwheel', channel=13, pitch=-396, time=11),
    Message('pitchwheel', channel=13, pitch=-623, time=9),
    Message('pitchwheel', channel=13, pitch=-1077, time=10),
    Message('pitchwheel', channel=13, pitch=-1303, time=11),
    Message('pitchwheel', channel=13, pitch=-1530, time=14),
    Message('pitchwheel', channel=13, pitch=-1643, time=7),
    Message('pitchwheel', channel=13, pitch=-1757, time=10),
    Message('pitchwheel', channel=13, pitch=-1983, time=15),
    Message('pitchwheel', channel=13, pitch=-2210, time=6),
    Message('pitchwheel', channel=13, pitch=-2324, time=10),
    Message('pitchwheel', channel=13, pitch=-2664, time=12),
    Message('pitchwheel', channel=13, pitch=-2777, time=8),
    Message('pitchwheel', channel=13, pitch=-2890, time=22),
    Message('pitchwheel', channel=13, pitch=-3004, time=30),
    Message('pitchwheel', channel=13, pitch=-3117, time=10),
    Message('pitchwheel', channel=13, pitch=-3344, time=16),
    Message('pitchwheel', channel=13, pitch=-3684, time=5),
    Message('control_change', channel=13, control=1, value=122, time=1),
    Message('pitchwheel', channel=13, pitch=-3911, time=9),
    Message('control_change', channel=13, control=1, value=118, time=2),
    Message('pitchwheel', channel=13, pitch=-4138, time=13),
    Message('control_change', channel=13, control=1, value=112, time=0),
    Message('pitchwheel', channel=13, pitch=-4251, time=6),
    Message('pitchwheel', channel=13, pitch=-4478, time=9),
    Message('control_change', channel=13, control=1, value=108, time=2),
    Message('pitchwheel', channel=13, pitch=-4704, time=10),
    Message('pitchwheel', channel=13, pitch=-4818, time=11),
    Message('control_change', channel=13, control=1, value=102, time=1),
    Message('pitchwheel', channel=13, pitch=-4931, time=10),
    Message('control_change', channel=13, control=1, value=98, time=0),
    Message('pitchwheel', channel=13, pitch=-5044, time=9),
    Message('control_change', channel=13, control=1, value=95, time=1),
    Message('pitchwheel', channel=13, pitch=-5158, time=9),
    Message('control_change', channel=13, control=1, value=91, time=1),
    Message('pitchwheel', channel=13, pitch=-5271, time=9),
    Message('control_change', channel=13, control=1, value=85, time=2),
    Message('pitchwheel', channel=13, pitch=-5385, time=14),
    Message('control_change', channel=13, control=1, value=81, time=2),
    Message('pitchwheel', channel=13, pitch=-5611, time=3),
    Message('pitchwheel', channel=13, pitch=-5951, time=10),
    Message('pitchwheel', channel=13, pitch=-6178, time=15),
    Message('control_change', channel=13, control=1, value=60, time=1),
    Message('pitchwheel', channel=13, pitch=-6292, time=5),
    Message('control_change', channel=13, control=1, value=52, time=2),
    Message('pitchwheel', channel=13, pitch=-6518, time=9),
    Message('control_change', channel=13, control=1, value=46, time=1),
    Message('pitchwheel', channel=13, pitch=-6632, time=12),
    Message('control_change', channel=13, control=1, value=38, time=2),
    Message('pitchwheel', channel=13, pitch=-6858, time=6),
    Message('control_change', channel=13, control=1, value=34, time=2),
    Message('pitchwheel', channel=13, pitch=-7085, time=9),
    Message('pitchwheel', channel=13, pitch=-7425, time=10),
    Message('control_change', channel=13, control=1, value=19, time=1),
    Message('pitchwheel', channel=13, pitch=-7765, time=8),
    Message('control_change', channel=13, control=1, value=9, time=2),
    Message('pitchwheel', channel=13, pitch=-8192, time=9),
    Message('control_change', channel=13, control=1, value=0, time=21),
    Message('control_change', channel=13, control=2, value=2, time=83),
    Message('control_change', channel=13, control=2, value=10, time=9),
    Message('control_change', channel=13, control=2, value=28, time=11),
    Message('control_change', channel=13, control=2, value=46, time=10),
    Message('control_change', channel=13, control=2, value=76, time=11),
    Message('control_change', channel=13, control=2, value=120, time=19),
    Message('control_change', channel=13, control=2, value=127, time=4),
    Message('pitchwheel', channel=13, pitch=-7957, time=30),
    Message('pitchwheel', channel=13, pitch=-7650, time=10),
    Message('pitchwheel', channel=13, pitch=-7342, time=16),
    Message('pitchwheel', channel=13, pitch=-7035, time=3),
    Message('pitchwheel', channel=13, pitch=-6727, time=9),
    Message('pitchwheel', channel=13, pitch=-6420, time=11),
    Message('pitchwheel', channel=13, pitch=-6112, time=9),
    Message('pitchwheel', channel=13, pitch=-5805, time=9),
    Message('pitchwheel', channel=13, pitch=-5497, time=10),
    Message('pitchwheel', channel=13, pitch=-5189, time=8),
    Message('control_change', channel=13, control=1, value=42, time=7),
    Message('control_change', channel=13, control=2, value=0, time=1),
    Message('pitchwheel', channel=13, pitch=-4882, time=2),
    Message('pitchwheel', channel=13, pitch=-4574, time=10),
    Message('control_change', channel=13, control=1, value=0, time=10),
    Message('pitchwheel', channel=13, pitch=-4267, time=1),
    Message('pitchwheel', channel=13, pitch=-3959, time=8),
    Message('pitchwheel', channel=13, pitch=-3652, time=10),
    Message('pitchwheel', channel=13, pitch=-3344, time=9),
    Message('pitchwheel', channel=13, pitch=-3037, time=9),
    Message('pitchwheel', channel=13, pitch=-2729, time=10),
    Message('pitchwheel', channel=13, pitch=-2421, time=13),
    Message('pitchwheel', channel=13, pitch=-2114, time=7),
    Message('pitchwheel', channel=13, pitch=-1806, time=9),
    Message('pitchwheel', channel=13, pitch=-1499, time=10),
    Message('pitchwheel', channel=13, pitch=-1191, time=9),
    Message('pitchwheel', channel=13, pitch=-884, time=10),
    Message('pitchwheel', channel=13, pitch=-576, time=16),
    Message('pitchwheel', channel=13, pitch=-268, time=3),
    Message('pitchwheel', channel=13, pitch=38, time=9),
    Message('pitchwheel', channel=13, pitch=346, time=19),
    Message('pitchwheel', channel=13, pitch=653, time=3),
    Message('pitchwheel', channel=13, pitch=961, time=7),
    Message('pitchwheel', channel=13, pitch=1268, time=21),
    Message('pitchwheel', channel=13, pitch=1576, time=3),
    Message('pitchwheel', channel=13, pitch=1883, time=5),
    Message('pitchwheel', channel=13, pitch=2191, time=12),
    Message('pitchwheel', channel=13, pitch=2499, time=7),
    Message('pitchwheel', channel=13, pitch=2806, time=9),
    Message('pitchwheel', channel=13, pitch=3114, time=10),
    Message('pitchwheel', channel=13, pitch=3421, time=12),
    Message('pitchwheel', channel=13, pitch=3729, time=7),
    Message('pitchwheel', channel=13, pitch=4036, time=10),
    Message('pitchwheel', channel=13, pitch=4344, time=12),
    Message('pitchwheel', channel=13, pitch=4651, time=8),
    Message('pitchwheel', channel=13, pitch=4959, time=9),
    Message('pitchwheel', channel=13, pitch=5267, time=10),
    Message('pitchwheel', channel=13, pitch=5574, time=9),
    Message('pitchwheel', channel=13, pitch=5882, time=10),
    Message('pitchwheel', channel=13, pitch=6189, time=11),
    Message('pitchwheel', channel=13, pitch=6497, time=8),
    Message('pitchwheel', channel=13, pitch=6804, time=10),
    Message('pitchwheel', channel=13, pitch=7112, time=10),
    Message('pitchwheel', channel=13, pitch=7419, time=9),
    Message('pitchwheel', channel=13, pitch=7727, time=9),
    Message('pitchwheel', channel=13, pitch=8035, time=16),
    Message('pitchwheel', channel=13, pitch=8191, time=4),
    Message('note_off', channel=13, note=54, velocity=64, time=29),
    Message('pitchwheel', channel=13, pitch=0, time=29),
    MetaMessage('end_of_track', time=94574)]),
  MidiTrack([
    MetaMessage('track_name', name='Trumpets Velo Shake\x00.de\x00', time=0),
    MetaMessage('channel_prefix', channel=14, time=0),
    Message('control_change', channel=14, control=0, value=0, time=0),
    Message('control_change', channel=14, control=32, value=1, time=0),
    Message('program_change', channel=14, program=2, time=0),
    Message('control_change', channel=14, control=7, value=127, time=0),
    Message('control_change', channel=14, control=10, value=64, time=0),
    Message('control_change', channel=14, control=93, value=0, time=0),
    Message('control_change', channel=14, control=91, value=0, time=0),
    Message('control_change', channel=14, control=91, value=0, time=1434),
    Message('note_on', channel=14, note=78, velocity=124, time=36075),
    Message('note_on', channel=14, note=75, velocity=124, time=0),
    Message('note_on', channel=14, note=77, velocity=124, time=371),
    Message('note_off', channel=14, note=75, velocity=64, time=5),
    Message('note_on', channel=14, note=73, velocity=110, time=2),
    Message('note_off', channel=14, note=78, velocity=64, time=14),
    Message('note_off', channel=14, note=77, velocity=64, time=97),
    Message('note_on', channel=14, note=72, velocity=100, time=0),
    Message('note_on', channel=14, note=75, velocity=110, time=3),
    Message('note_off', channel=14, note=73, velocity=64, time=15),
    Message('note_off', channel=14, note=72, velocity=64, time=42),
    Message('note_off', channel=14, note=75, velocity=64, time=9),
    Message('control_change', channel=14, control=10, value=64, time=5080),
    Message('control_change', channel=14, control=11, value=127, time=1),
    Message('control_change', channel=14, control=21, value=0, time=2),
    Message('note_on', channel=14, note=74, velocity=124, time=382),
    Message('note_off', channel=14, note=74, velocity=64, time=105),
    Message('note_on', channel=14, note=75, velocity=127, time=375),
    Message('note_off', channel=14, note=75, velocity=64, time=96),
    Message('note_on', channel=14, note=76, velocity=124, time=385),
    Message('note_off', channel=14, note=76, velocity=64, time=101),
    Message('note_on', channel=14, note=77, velocity=127, time=383),
    Message('note_on', channel=14, note=75, velocity=119, time=810),
    Message('note_off', channel=14, note=77, velocity=64, time=9),
    Message('note_off', channel=14, note=75, velocity=64, time=115),
    Message('note_on', channel=14, note=72, velocity=80, time=17),
    Message('note_off', channel=14, note=72, velocity=64, time=55),
    Message('note_on', channel=14, note=75, velocity=127, time=45),
    Message('note_off', channel=14, note=75, velocity=64, time=118),
    Message('note_on', channel=14, note=77, velocity=107, time=23),
    Message('note_off', channel=14, note=77, velocity=64, time=104),
    Message('note_on', channel=14, note=72, velocity=113, time=1580),
    Message('note_off', channel=14, note=72, velocity=64, time=69),
    Message('note_on', channel=14, note=72, velocity=124, time=171),
    Message('note_off', channel=14, note=72, velocity=64, time=93),
    Message('note_on', channel=14, note=70, velocity=119, time=6),
    Message('note_off', channel=14, note=70, velocity=64, time=90),
    Message('note_on', channel=14, note=56, velocity=92, time=3982),
    Message('note_off', channel=14, note=56, velocity=64, time=180),
    Message('note_on', channel=14, note=60, velocity=96, time=0),
    Message('note_off', channel=14, note=60, velocity=64, time=61),
    Message('note_on', channel=14, note=63, velocity=125, time=1),
    Message('note_off', channel=14, note=63, velocity=64, time=108),
    Message('note_on', channel=14, note=75, velocity=113, time=136),
    Message('note_on', channel=14, note=64, velocity=110, time=0),
    Message('note_on', channel=14, note=70, velocity=119, time=0),
    Message('note_off', channel=14, note=75, velocity=64, time=165),
    Message('note_off', channel=14, note=70, velocity=64, time=0),
    Message('note_off', channel=14, note=64, velocity=64, time=9),
    Message('control_change', channel=14, control=91, value=8, time=7872),
    Message('control_change', channel=14, control=64, value=0, time=16),
    Message('control_change', channel=14, control=11, value=127, time=73),
    Message('note_on', channel=14, note=78, velocity=89, time=25),
    Message('note_on', channel=14, note=72, velocity=107, time=0),
    Message('note_off', channel=14, note=78, velocity=64, time=136),
    Message('note_off', channel=14, note=72, velocity=64, time=0),
    Message('note_on', channel=14, note=81, velocity=109, time=341),
    Message('note_on', channel=14, note=73, velocity=87, time=1),
    Message('control_change', channel=14, control=91, value=0, time=24),
    Message('note_off', channel=14, note=73, velocity=64, time=109),
    Message('note_off', channel=14, note=81, velocity=64, time=19),
    Message('control_change', channel=14, control=91, value=20, time=3847),
    Message('note_on', channel=14, note=71, velocity=104, time=100),
    Message('note_off', channel=14, note=71, velocity=64, time=99),
    Message('note_on', channel=14, note=72, velocity=96, time=19),
    Message('note_off', channel=14, note=72, velocity=64, time=95),
    Message('note_on', channel=14, note=73, velocity=96, time=16),
    Message('note_off', channel=14, note=73, velocity=64, time=104),
    Message('note_on', channel=14, note=76, velocity=95, time=39),
    Message('note_off', channel=14, note=76, velocity=64, time=67),
    Message('note_on', channel=14, note=78, velocity=113, time=30),
    Message('note_off', channel=14, note=78, velocity=64, time=77),
    Message('note_on', channel=14, note=79, velocity=107, time=179),
    Message('note_off', channel=14, note=79, velocity=64, time=73),
    Message('note_on', channel=14, note=79, velocity=119, time=156),
    Message('note_on', channel=14, note=78, velocity=107, time=483),
    Message('note_off', channel=14, note=79, velocity=64, time=18),
    Message('note_off', channel=14, note=78, velocity=64, time=443),
    Message('control_change', channel=14, control=91, value=0, time=169),
    Message('control_change', channel=14, control=11, value=97, time=74464),
    Message('control_change', channel=14, control=10, value=12, time=105),
    Message('note_on', channel=14, note=67, velocity=107, time=81),
    Message('note_on', channel=14, note=79, velocity=100, time=2),
    Message('note_off', channel=14, note=79, velocity=64, time=92),
    Message('note_off', channel=14, note=67, velocity=64, time=16),
    Message('note_on', channel=14, note=77, velocity=104, time=267),
    Message('note_on', channel=14, note=65, velocity=110, time=3),
    Message('note_on', channel=14, note=62, velocity=83, time=101),
    Message('note_off', channel=14, note=77, velocity=64, time=1),
    Message('note_off', channel=14, note=65, velocity=64, time=2),
    Message('note_on', channel=14, note=74, velocity=78, time=0),
    Message('note_on', channel=14, note=72, velocity=78, time=105),
    Message('note_off', channel=14, note=74, velocity=64, time=10),
    Message('note_on', channel=14, note=60, velocity=89, time=4),
    Message('note_off', channel=14, note=62, velocity=64, time=9),
    Message('note_off', channel=14, note=72, velocity=64, time=28),
    Message('note_off', channel=14, note=60, velocity=64, time=24),
    Message('note_on', channel=14, note=74, velocity=93, time=52),
    Message('note_on', channel=14, note=62, velocity=96, time=2),
    Message('note_off', channel=14, note=62, velocity=64, time=275),
    Message('note_off', channel=14, note=74, velocity=64, time=24),
    Message('note_on', channel=14, note=72, velocity=43, time=12),
    Message('note_off', channel=14, note=72, velocity=64, time=19),
    Message('note_on', channel=14, note=67, velocity=100, time=878),
    Message('note_on', channel=14, note=79, velocity=100, time=2),
    Message('note_off', channel=14, note=79, velocity=64, time=99),
    Message('note_off', channel=14, note=67, velocity=64, time=23),
    Message('note_on', channel=14, note=77, velocity=96, time=236),
    Message('note_on', channel=14, note=65, velocity=96, time=2),
    Message('note_off', channel=14, note=77, velocity=64, time=96),
    Message('note_on', channel=14, note=62, velocity=89, time=6),
    Message('note_off', channel=14, note=65, velocity=64, time=9),
    Message('note_on', channel=14, note=74, velocity=87, time=0),
    Message('note_off', channel=14, note=74, velocity=64, time=101),
    Message('note_off', channel=14, note=62, velocity=64, time=12),
    Message('note_on', channel=14, note=60, velocity=89, time=4),
    Message('note_on', channel=14, note=72, velocity=52, time=10),
    Message('note_off', channel=14, note=72, velocity=64, time=39),
    Message('note_off', channel=14, note=60, velocity=64, time=25),
    Message('note_on', channel=14, note=62, velocity=102, time=39),
    Message('note_on', channel=14, note=74, velocity=90, time=2),
    Message('note_off', channel=14, note=62, velocity=64, time=271),
    Message('note_off', channel=14, note=74, velocity=64, time=17),
    Message('note_on', channel=14, note=72, velocity=14, time=9),
    Message('note_off', channel=14, note=72, velocity=64, time=35),
    Message('note_on', channel=14, note=71, velocity=70, time=12),
    Message('note_off', channel=14, note=71, velocity=64, time=23),
    Message('note_on', channel=14, note=69, velocity=43, time=15),
    Message('note_off', channel=14, note=69, velocity=64, time=18),
    Message('note_on', channel=14, note=67, velocity=50, time=11),
    Message('note_off', channel=14, note=67, velocity=64, time=18),
    Message('note_on', channel=14, note=65, velocity=50, time=16),
    Message('note_off', channel=14, note=65, velocity=64, time=25),
    Message('note_on', channel=14, note=67, velocity=107, time=736),
    Message('note_on', channel=14, note=79, velocity=104, time=3),
    Message('note_off', channel=14, note=79, velocity=64, time=101),
    Message('note_off', channel=14, note=67, velocity=64, time=30),
    Message('note_on', channel=14, note=77, velocity=102, time=230),
    Message('note_on', channel=14, note=65, velocity=104, time=2),
    Message('note_on', channel=14, note=62, velocity=89, time=102),
    Message('note_off', channel=14, note=77, velocity=64, time=4),
    Message('note_on', channel=14, note=74, velocity=92, time=0),
    Message('note_off', channel=14, note=65, velocity=64, time=10),
    Message('note_on', channel=14, note=60, velocity=87, time=106),
    Message('note_off', channel=14, note=74, velocity=64, time=3),
    Message('note_on', channel=14, note=72, velocity=83, time=2),
    Message('note_off', channel=14, note=62, velocity=64, time=1),
    Message('note_off', channel=14, note=72, velocity=64, time=50),
    Message('note_off', channel=14, note=60, velocity=64, time=9),
    Message('note_on', channel=14, note=74, velocity=93, time=60),
    Message('note_on', channel=14, note=62, velocity=104, time=2),
    Message('note_off', channel=14, note=74, velocity=64, time=293),
    Message('note_on', channel=14, note=72, velocity=16, time=2),
    Message('note_off', channel=14, note=62, velocity=64, time=2),
    Message('note_off', channel=14, note=72, velocity=64, time=19),
    Message('note_on', channel=14, note=72, velocity=113, time=411),
    Message('note_on', channel=14, note=65, velocity=80, time=18),
    Message('note_off', channel=14, note=72, velocity=64, time=29),
    Message('note_off', channel=14, note=65, velocity=64, time=0),
    Message('note_on', channel=14, note=72, velocity=113, time=201),
    Message('note_off', channel=14, note=72, velocity=64, time=436),
    Message('note_on', channel=14, note=71, velocity=124, time=28),
    Message('note_on', channel=14, note=65, velocity=92, time=21),
    Message('note_off', channel=14, note=65, velocity=64, time=202),
    Message('note_on', channel=14, note=72, velocity=74, time=386),
    Message('note_on', channel=14, note=67, velocity=46, time=3),
    Message('note_on', channel=14, note=65, velocity=41, time=2),
    Message('note_off', channel=14, note=71, velocity=64, time=7),
    Message('note_on', channel=14, note=73, velocity=82, time=32),
    Message('note_off', channel=14, note=65, velocity=64, time=3),
    Message('note_off', channel=14, note=72, velocity=64, time=18),
    Message('note_off', channel=14, note=67, velocity=64, time=1),
    Message('note_off', channel=14, note=73, velocity=64, time=29),
    Message('note_on', channel=14, note=74, velocity=110, time=14),
    Message('note_off', channel=14, note=74, velocity=64, time=118),
    Message('note_on', channel=14, note=79, velocity=124, time=5),
    Message('note_on', channel=14, note=78, velocity=99, time=2),
    Message('note_off', channel=14, note=78, velocity=64, time=10),
    Message('note_off', channel=14, note=79, velocity=64, time=48),
    Message('control_change', channel=14, control=10, value=127, time=674),
    Message('note_on', channel=14, note=79, velocity=113, time=109),
    Message('note_on', channel=14, note=67, velocity=104, time=2),
    Message('note_off', channel=14, note=79, velocity=64, time=103),
    Message('note_off', channel=14, note=67, velocity=64, time=18),
    Message('note_on', channel=14, note=77, velocity=110, time=266),
    Message('note_on', channel=14, note=65, velocity=102, time=1),
    Message('note_on', channel=14, note=76, velocity=85, time=4),
    Message('note_off', channel=14, note=76, velocity=64, time=13),
    Message('note_off', channel=14, note=77, velocity=64, time=58),
    Message('note_on', channel=14, note=62, velocity=78, time=16),
    Message('note_off', channel=14, note=65, velocity=64, time=1),
    Message('note_on', channel=14, note=74, velocity=80, time=9),
    Message('note_off', channel=14, note=74, velocity=64, time=88),
    Message('note_on', channel=14, note=72, velocity=80, time=13),
    Message('note_on', channel=14, note=60, velocity=82, time=9),
    Message('note_off', channel=14, note=62, velocity=64, time=11),
    Message('note_off', channel=14, note=60, velocity=64, time=34),
    Message('note_off', channel=14, note=72, velocity=64, time=18),
    Message('note_on', channel=14, note=74, velocity=96, time=56),
    Message('note_on', channel=14, note=62, velocity=93, time=1),
    Message('note_off', channel=14, note=62, velocity=64, time=255),
    Message('note_off', channel=14, note=74, velocity=64, time=40),
    Message('note_on', channel=14, note=72, velocity=58, time=18),
    Message('note_off', channel=14, note=72, velocity=64, time=19),
    Message('note_on', channel=14, note=79, velocity=104, time=751),
    Message('note_on', channel=14, note=75, velocity=119, time=1),
    Message('note_off', channel=14, note=75, velocity=64, time=105),
    Message('note_off', channel=14, note=79, velocity=64, time=9),
    Message('note_on', channel=14, note=75, velocity=119, time=130),
    Message('note_on', channel=14, note=79, velocity=104, time=1),
    Message('note_off', channel=14, note=79, velocity=64, time=97),
    Message('note_off', channel=14, note=75, velocity=64, time=12),
    Message('note_on', channel=14, note=77, velocity=96, time=129),
    Message('note_on', channel=14, note=74, velocity=104, time=1),
    Message('note_off', channel=14, note=74, velocity=64, time=86),
    Message('note_off', channel=14, note=77, velocity=64, time=3),
    Message('note_on', channel=14, note=70, velocity=82, time=7),
    Message('note_on', channel=14, note=74, velocity=95, time=16),
    Message('note_off', channel=14, note=74, velocity=64, time=92),
    Message('note_on', channel=14, note=69, velocity=93, time=16),
    Message('note_on', channel=14, note=72, velocity=87, time=5),
    Message('note_off', channel=14, note=70, velocity=64, time=12),
    Message('note_off', channel=14, note=69, velocity=64, time=33),
    Message('note_off', channel=14, note=72, velocity=64, time=1),
    Message('note_on', channel=14, note=70, velocity=102, time=73),
    Message('note_on', channel=14, note=74, velocity=100, time=3),
    Message('note_off', channel=14, note=70, velocity=64, time=262),
    Message('note_off', channel=14, note=74, velocity=64, time=48),
    Message('note_on', channel=14, note=72, velocity=32, time=11),
    Message('note_off', channel=14, note=72, velocity=64, time=27),
    Message('note_on', channel=14, note=71, velocity=38, time=17),
    Message('note_off', channel=14, note=71, velocity=64, time=15),
    Message('note_on', channel=14, note=69, velocity=52, time=9),
    Message('note_off', channel=14, note=69, velocity=64, time=14),
    Message('note_on', channel=14, note=75, velocity=113, time=799),
    Message('note_on', channel=14, note=79, velocity=107, time=9),
    Message('note_off', channel=14, note=79, velocity=64, time=123),
    Message('note_off', channel=14, note=75, velocity=64, time=1),
    Message('note_on', channel=14, note=74, velocity=107, time=244),
    Message('note_on', channel=14, note=77, velocity=113, time=3),
    Message('note_off', channel=14, note=74, velocity=64, time=88),
    Message('note_off', channel=14, note=77, velocity=64, time=11),
    Message('note_on', channel=14, note=70, velocity=82, time=4),
    Message('note_on', channel=14, note=74, velocity=85, time=14),
    Message('note_off', channel=14, note=74, velocity=64, time=91),
    Message('note_off', channel=14, note=70, velocity=64, time=1),
    Message('note_on', channel=14, note=69, velocity=68, time=4),
    Message('note_on', channel=14, note=72, velocity=71, time=13),
    Message('note_off', channel=14, note=69, velocity=64, time=11),
    Message('note_off', channel=14, note=72, velocity=64, time=28),
    Message('note_on', channel=14, note=70, velocity=99, time=79),
    Message('note_on', channel=14, note=74, velocity=110, time=10),
    Message('note_off', channel=14, note=70, velocity=64, time=311),
    Message('note_off', channel=14, note=74, velocity=64, time=48),
    Message('control_change', channel=14, control=10, value=1, time=262),
    Message('note_on', channel=14, note=72, velocity=110, time=96),
    Message('note_on', channel=14, note=68, velocity=92, time=3),
    Message('note_off', channel=14, note=68, velocity=64, time=33),
    Message('note_off', channel=14, note=72, velocity=64, time=1),
    Message('note_on', channel=14, note=68, velocity=85, time=184),
    Message('note_on', channel=14, note=72, velocity=104, time=9),
    Message('control_change', channel=14, control=11, value=93, time=20),
    Message('control_change', channel=14, control=11, value=92, time=19),
    Message('control_change', channel=14, control=11, value=91, time=11),
    Message('control_change', channel=14, control=11, value=90, time=9),
    Message('control_change', channel=14, control=11, value=89, time=20),
    Message('control_change', channel=14, control=11, value=88, time=8),
    Message('control_change', channel=14, control=11, value=87, time=19),
    Message('control_change', channel=14, control=11, value=86, time=11),
    Message('control_change', channel=14, control=11, value=85, time=10),
    Message('control_change', channel=14, control=11, value=84, time=12),
    Message('control_change', channel=14, control=11, value=83, time=17),
    Message('control_change', channel=14, control=11, value=82, time=12),
    Message('control_change', channel=14, control=11, value=81, time=6),
    Message('control_change', channel=14, control=11, value=80, time=11),
    Message('control_change', channel=14, control=11, value=79, time=19),
    Message('control_change', channel=14, control=11, value=78, time=9),
    Message('control_change', channel=14, control=11, value=77, time=11),
    Message('control_change', channel=14, control=11, value=76, time=18),
    Message('control_change', channel=14, control=11, value=75, time=14),
    Message('control_change', channel=14, control=11, value=74, time=5),
    Message('control_change', channel=14, control=11, value=73, time=20),
    Message('control_change', channel=14, control=11, value=72, time=9),
    Message('control_change', channel=14, control=11, value=71, time=10),
    Message('control_change', channel=14, control=11, value=70, time=19),
    Message('control_change', channel=14, control=11, value=69, time=10),
    Message('control_change', channel=14, control=11, value=68, time=9),
    Message('control_change', channel=14, control=11, value=67, time=21),
    Message('control_change', channel=14, control=11, value=66, time=17),
    Message('control_change', channel=14, control=11, value=65, time=2),
    Message('control_change', channel=14, control=11, value=57, time=6),
    Message('control_change', channel=14, control=11, value=64, time=10),
    Message('control_change', channel=14, control=11, value=71, time=15),
    Message('control_change', channel=14, control=11, value=78, time=4),
    Message('control_change', channel=14, control=11, value=85, time=9),
    Message('control_change', channel=14, control=11, value=92, time=15),
    Message('control_change', channel=14, control=11, value=100, time=4),
    Message('control_change', channel=14, control=11, value=99, time=11),
    Message('note_off', channel=14, note=68, velocity=64, time=7),
    Message('note_off', channel=14, note=72, velocity=64, time=4),
    Message('note_on', channel=14, note=71, velocity=124, time=15),
    Message('note_on', channel=14, note=67, velocity=90, time=3),
    Message('control_change', channel=14, control=11, value=98, time=8),
    Message('control_change', channel=14, control=11, value=97, time=29),
    Message('control_change', channel=14, control=11, value=96, time=39),
    Message('control_change', channel=14, control=11, value=95, time=39),
    Message('control_change', channel=14, control=11, value=94, time=28),
    Message('control_change', channel=14, control=11, value=93, time=39),
    Message('control_change', channel=14, control=11, value=92, time=29),
    Message('control_change', channel=14, control=11, value=91, time=39),
    Message('control_change', channel=14, control=11, value=90, time=38),
    Message('control_change', channel=14, control=11, value=89, time=29),
    Message('control_change', channel=14, control=11, value=88, time=38),
    Message('control_change', channel=14, control=11, value=87, time=28),
    Message('control_change', channel=14, control=11, value=86, time=39),
    Message('control_change', channel=14, control=11, value=85, time=28),
    Message('control_change', channel=14, control=11, value=84, time=47),
    Message('control_change', channel=14, control=10, value=4, time=6),
    Message('control_change', channel=14, control=10, value=6, time=11),
    Message('control_change', channel=14, control=10, value=9, time=9),
    Message('control_change', channel=14, control=11, value=83, time=4),
    Message('control_change', channel=14, control=10, value=12, time=6),
    Message('control_change', channel=14, control=10, value=14, time=9),
    Message('control_change', channel=14, control=10, value=17, time=9),
    Message('control_change', channel=14, control=11, value=82, time=8),
    Message('control_change', channel=14, control=10, value=20, time=3),
    Message('control_change', channel=14, control=10, value=22, time=9),
    Message('control_change', channel=14, control=10, value=25, time=10),
    Message('control_change', channel=14, control=10, value=28, time=9),
    Message('control_change', channel=14, control=11, value=81, time=4),
    Message('control_change', channel=14, control=10, value=30, time=6),
    Message('control_change', channel=14, control=10, value=33, time=10),
    Message('control_change', channel=14, control=10, value=36, time=10),
    Message('control_change', channel=14, control=11, value=80, time=4),
    Message('control_change', channel=14, control=10, value=38, time=5),
    Message('control_change', channel=14, control=11, value=112, time=1),
    Message('control_change', channel=14, control=10, value=41, time=9),
    Message('note_on', channel=14, note=63, velocity=90, time=9),
    Message('control_change', channel=14, control=10, value=44, time=1),
    Message('control_change', channel=14, control=10, value=46, time=9),
    Message('note_off', channel=14, note=63, velocity=64, time=4),
    Message('note_off', channel=14, note=67, velocity=64, time=3),
    Message('control_change', channel=14, control=10, value=49, time=3),
    Message('note_on', channel=14, note=64, velocity=74, time=10),
    Message('note_on', channel=14, note=62, velocity=85, time=0),
    Message('control_change', channel=14, control=10, value=51, time=3),
    Message('note_on', channel=14, note=74, velocity=104, time=0),
    Message('control_change', channel=14, control=10, value=54, time=5),
    Message('note_on', channel=14, note=75, velocity=102, time=9),
    Message('control_change', channel=14, control=10, value=57, time=1),
    Message('control_change', channel=14, control=10, value=59, time=13),
    Message('note_off', channel=14, note=71, velocity=64, time=6),
    Message('control_change', channel=14, control=10, value=62, time=1),
    Message('note_on', channel=14, note=65, velocity=102, time=4),
    Message('control_change', channel=14, control=10, value=64, time=6),
    Message('note_off', channel=14, note=74, velocity=64, time=12),
    Message('note_on', channel=14, note=76, velocity=113, time=2),
    Message('note_off', channel=14, note=75, velocity=64, time=1),
    Message('control_change', channel=14, control=10, value=66, time=0),
    Message('note_off', channel=14, note=62, velocity=64, time=2),
    Message('note_off', channel=14, note=64, velocity=64, time=2),
    Message('control_change', channel=14, control=10, value=69, time=0),
    Message('control_change', channel=14, control=10, value=72, time=9),
    Message('control_change', channel=14, control=10, value=74, time=17),
    Message('control_change', channel=14, control=10, value=77, time=2),
    Message('control_change', channel=14, control=10, value=80, time=9),
    Message('control_change', channel=14, control=10, value=82, time=11),
    Message('control_change', channel=14, control=10, value=85, time=9),
    Message('control_change', channel=14, control=10, value=88, time=9),
    Message('control_change', channel=14, control=10, value=90, time=10),
    Message('note_off', channel=14, note=65, velocity=64, time=2),
    Message('control_change', channel=14, control=10, value=93, time=7),
    Message('note_off', channel=14, note=76, velocity=64, time=3),
    Message('note_on', channel=14, note=79, velocity=127, time=2),
    Message('note_on', channel=14, note=67, velocity=119, time=2),
    Message('control_change', channel=14, control=10, value=96, time=3),
    Message('control_change', channel=14, control=10, value=98, time=10),
    Message('control_change', channel=14, control=10, value=101, time=9),
    Message('control_change', channel=14, control=10, value=104, time=10),
    Message('control_change', channel=14, control=10, value=106, time=9),
    Message('control_change', channel=14, control=10, value=109, time=11),
    Message('control_change', channel=14, control=10, value=111, time=9),
    Message('control_change', channel=14, control=10, value=114, time=9),
    Message('control_change', channel=14, control=10, value=117, time=10),
    Message('note_off', channel=14, note=79, velocity=64, time=9),
    Message('control_change', channel=14, control=10, value=119, time=1),
    Message('control_change', channel=14, control=10, value=122, time=9),
    Message('control_change', channel=14, control=10, value=125, time=9),
    Message('note_off', channel=14, note=67, velocity=64, time=2),
    Message('control_change', channel=14, control=10, value=127, time=7),
    MetaMessage('end_of_track', time=6367)]),
  MidiTrack([
    MetaMessage('track_name', name='SFX Catalog 4\x00ndlach.de\x00', time=0),
    MetaMessage('channel_prefix', channel=15, time=0),
    Message('control_change', channel=15, control=0, value=0, time=0),
    Message('control_change', channel=15, control=32, value=16, time=0),
    Message('program_change', channel=15, program=85, time=0),
    Message('control_change', channel=15, control=7, value=127, time=0),
    Message('control_change', channel=15, control=10, value=64, time=0),
    Message('control_change', channel=15, control=93, value=0, time=0),
    Message('control_change', channel=15, control=91, value=0, time=0),
    Message('sysex', data=(66, 48, 104, 67, 24, 0, 0, 12, 0, 0, 0, 108), time=0),
    Message('note_on', channel=15, note=52, velocity=110, time=20465),
    Message('note_on', channel=15, note=47, velocity=107, time=250),
    Message('note_off', channel=15, note=52, velocity=64, time=30),
    Message('note_on', channel=15, note=52, velocity=107, time=82),
    Message('note_off', channel=15, note=52, velocity=64, time=48),
    Message('note_on', channel=15, note=52, velocity=96, time=72),
    Message('note_on', channel=15, note=59, velocity=100, time=119),
    Message('note_off', channel=15, note=52, velocity=64, time=5),
    Message('note_off', channel=15, note=47, velocity=64, time=5),
    Message('note_off', channel=15, note=59, velocity=64, time=522),
    Message('control_change', channel=15, control=10, value=17, time=59713),
    Message('control_change', channel=15, control=11, value=52, time=962),
    Message('control_change', channel=15, control=11, value=53, time=13),
    Message('control_change', channel=15, control=11, value=54, time=6),
    Message('control_change', channel=15, control=11, value=55, time=11),
    Message('control_change', channel=15, control=11, value=56, time=13),
    Message('control_change', channel=15, control=11, value=57, time=4),
    Message('control_change', channel=15, control=11, value=58, time=11),
    Message('control_change', channel=15, control=11, value=59, time=9),
    Message('control_change', channel=15, control=11, value=61, time=10),
    Message('control_change', channel=15, control=11, value=62, time=9),
    Message('control_change', channel=15, control=11, value=63, time=9),
    Message('control_change', channel=15, control=11, value=64, time=11),
    Message('control_change', channel=15, control=11, value=65, time=12),
    Message('control_change', channel=15, control=11, value=66, time=7),
    Message('control_change', channel=15, control=11, value=67, time=10),
    Message('control_change', channel=15, control=11, value=68, time=11),
    Message('control_change', channel=15, control=11, value=69, time=8),
    Message('control_change', channel=15, control=11, value=70, time=11),
    Message('control_change', channel=15, control=11, value=71, time=11),
    Message('control_change', channel=15, control=11, value=72, time=6),
    Message('control_change', channel=15, control=11, value=73, time=9),
    Message('control_change', channel=15, control=11, value=74, time=11),
    Message('control_change', channel=15, control=11, value=76, time=9),
    Message('control_change', channel=15, control=11, value=77, time=13),
    Message('note_on', channel=15, note=65, velocity=58, time=1),
    Message('control_change', channel=15, control=11, value=78, time=6),
    Message('control_change', channel=15, control=11, value=79, time=10),
    Message('control_change', channel=15, control=11, value=80, time=13),
    Message('control_change', channel=15, control=11, value=81, time=5),
    Message('control_change', channel=15, control=11, value=82, time=11),
    Message('control_change', channel=15, control=11, value=83, time=14),
    Message('control_change', channel=15, control=11, value=84, time=5),
    Message('control_change', channel=15, control=11, value=85, time=9),
    Message('control_change', channel=15, control=11, value=86, time=9),
    Message('control_change', channel=15, control=11, value=87, time=10),
    Message('control_change', channel=15, control=11, value=88, time=9),
    Message('control_change', channel=15, control=11, value=89, time=10),
    Message('control_change', channel=15, control=11, value=91, time=13),
    Message('control_change', channel=15, control=11, value=92, time=7),
    Message('control_change', channel=15, control=11, value=93, time=9),
    Message('control_change', channel=15, control=11, value=94, time=9),
    Message('control_change', channel=15, control=11, value=95, time=10),
    Message('control_change', channel=15, control=11, value=96, time=10),
    Message('control_change', channel=15, control=11, value=97, time=13),
    Message('control_change', channel=15, control=11, value=98, time=6),
    Message('control_change', channel=15, control=11, value=99, time=9),
    Message('control_change', channel=15, control=11, value=100, time=10),
    Message('control_change', channel=15, control=11, value=101, time=10),
    Message('control_change', channel=15, control=11, value=102, time=9),
    Message('control_change', channel=15, control=11, value=103, time=9),
    Message('control_change', channel=15, control=11, value=104, time=11),
    Message('control_change', channel=15, control=11, value=106, time=9),
    Message('control_change', channel=15, control=11, value=107, time=18),
    Message('control_change', channel=15, control=11, value=108, time=2),
    Message('control_change', channel=15, control=11, value=109, time=9),
    Message('control_change', channel=15, control=11, value=42, time=874),
    Message('control_change', channel=15, control=11, value=30, time=73),
    Message('control_change', channel=15, control=11, value=29, time=70),
    Message('control_change', channel=15, control=11, value=42, time=68),
    Message('control_change', channel=15, control=11, value=58, time=66),
    Message('control_change', channel=15, control=11, value=57, time=71),
    Message('control_change', channel=15, control=11, value=56, time=74),
    Message('control_change', channel=15, control=11, value=59, time=77),
    Message('control_change', channel=15, control=11, value=58, time=2),
    Message('control_change', channel=15, control=11, value=57, time=25),
    Message('control_change', channel=15, control=11, value=56, time=4),
    Message('control_change', channel=15, control=11, value=55, time=9),
    Message('control_change', channel=15, control=11, value=54, time=10),
    Message('control_change', channel=15, control=11, value=53, time=9),
    Message('control_change', channel=15, control=11, value=52, time=20),
    Message('control_change', channel=15, control=11, value=51, time=8),
    Message('control_change', channel=15, control=11, value=50, time=11),
    Message('control_change', channel=15, control=11, value=49, time=9),
    Message('control_change', channel=15, control=11, value=48, time=10),
    Message('control_change', channel=15, control=11, value=47, time=19),
    Message('control_change', channel=15, control=11, value=46, time=10),
    Message('control_change', channel=15, control=11, value=45, time=9),
    Message('control_change', channel=15, control=11, value=44, time=10),
    Message('control_change', channel=15, control=11, value=43, time=14),
    Message('control_change', channel=15, control=11, value=42, time=15),
    Message('control_change', channel=15, control=11, value=41, time=10),
    Message('control_change', channel=15, control=11, value=40, time=10),
    Message('control_change', channel=15, control=11, value=39, time=8),
    Message('control_change', channel=15, control=11, value=38, time=15),
    Message('control_change', channel=15, control=11, value=37, time=14),
    Message('control_change', channel=15, control=11, value=36, time=20),
    Message('control_change', channel=15, control=11, value=35, time=3),
    Message('control_change', channel=15, control=11, value=34, time=6),
    Message('control_change', channel=15, control=11, value=33, time=19),
    Message('control_change', channel=15, control=11, value=32, time=10),
    Message('control_change', channel=15, control=11, value=49, time=9),
    Message('note_on', channel=15, note=59, velocity=61, time=197),
    Message('control_change', channel=15, control=10, value=0, time=63),
    Message('control_change', channel=15, control=10, value=3, time=19),
    Message('control_change', channel=15, control=10, value=7, time=9),
    Message('control_change', channel=15, control=10, value=12, time=10),
    Message('control_change', channel=15, control=10, value=16, time=9),
    Message('note_on', channel=15, note=59, velocity=61, time=6),
    Message('control_change', channel=15, control=10, value=21, time=3),
    Message('control_change', channel=15, control=10, value=26, time=11),
    Message('control_change', channel=15, control=10, value=30, time=9),
    Message('control_change', channel=15, control=10, value=35, time=10),
    Message('control_change', channel=15, control=10, value=40, time=10),
    Message('control_change', channel=15, control=10, value=44, time=9),
    Message('control_change', channel=15, control=10, value=49, time=10),
    Message('control_change', channel=15, control=10, value=53, time=9),
    Message('control_change', channel=15, control=10, value=58, time=10),
    Message('control_change', channel=15, control=10, value=63, time=10),
    Message('control_change', channel=15, control=10, value=66, time=10),
    Message('control_change', channel=15, control=10, value=71, time=9),
    Message('control_change', channel=15, control=10, value=76, time=9),
    Message('note_on', channel=15, note=59, velocity=61, time=4),
    Message('control_change', channel=15, control=10, value=80, time=6),
    Message('control_change', channel=15, control=10, value=85, time=9),
    Message('control_change', channel=15, control=10, value=90, time=10),
    Message('control_change', channel=15, control=10, value=94, time=10),
    Message('control_change', channel=15, control=10, value=99, time=9),
    Message('control_change', channel=15, control=10, value=103, time=12),
    Message('control_change', channel=15, control=10, value=108, time=7),
    Message('control_change', channel=15, control=10, value=113, time=11),
    Message('control_change', channel=15, control=10, value=117, time=11),
    Message('control_change', channel=15, control=10, value=122, time=7),
    Message('control_change', channel=15, control=10, value=127, time=90),
    Message('control_change', channel=15, control=10, value=126, time=10),
    Message('control_change', channel=15, control=10, value=125, time=8),
    Message('control_change', channel=15, control=11, value=48, time=13),
    Message('control_change', channel=15, control=10, value=124, time=7),
    Message('control_change', channel=15, control=10, value=123, time=9),
    Message('control_change', channel=15, control=10, value=122, time=20),
    Message('control_change', channel=15, control=11, value=97, time=2),
    Message('control_change', channel=15, control=10, value=121, time=17),
    Message('note_on', channel=15, note=66, velocity=107, time=94),
    Message('note_off', channel=15, note=59, velocity=64, time=328),
    Message('note_off', channel=15, note=59, velocity=64, time=123),
    Message('note_off', channel=15, note=59, velocity=64, time=116),
    Message('control_change', channel=15, control=11, value=88, time=603),
    Message('control_change', channel=15, control=11, value=87, time=19),
    Message('control_change', channel=15, control=11, value=86, time=19),
    Message('control_change', channel=15, control=11, value=85, time=29),
    Message('control_change', channel=15, control=11, value=84, time=22),
    Message('control_change', channel=15, control=11, value=83, time=17),
    Message('control_change', channel=15, control=11, value=82, time=19),
    Message('control_change', channel=15, control=11, value=81, time=29),
    Message('control_change', channel=15, control=11, value=80, time=25),
    Message('control_change', channel=15, control=11, value=79, time=12),
    Message('control_change', channel=15, control=11, value=78, time=30),
    Message('control_change', channel=15, control=11, value=77, time=19),
    Message('control_change', channel=15, control=11, value=76, time=19),
    Message('control_change', channel=15, control=11, value=75, time=19),
    Message('control_change', channel=15, control=11, value=74, time=29),
    Message('control_change', channel=15, control=11, value=73, time=19),
    Message('control_change', channel=15, control=11, value=72, time=18),
    Message('control_change', channel=15, control=11, value=71, time=20),
    Message('control_change', channel=15, control=11, value=70, time=31),
    Message('control_change', channel=15, control=11, value=69, time=25),
    Message('control_change', channel=15, control=11, value=68, time=11),
    Message('control_change', channel=15, control=11, value=67, time=21),
    Message('control_change', channel=15, control=11, value=66, time=27),
    Message('control_change', channel=15, control=11, value=65, time=19),
    Message('control_change', channel=15, control=11, value=64, time=20),
    Message('control_change', channel=15, control=11, value=63, time=25),
    Message('control_change', channel=15, control=11, value=62, time=23),
    Message('control_change', channel=15, control=11, value=61, time=20),
    Message('control_change', channel=15, control=11, value=60, time=18),
    Message('control_change', channel=15, control=11, value=59, time=19),
    Message('control_change', channel=15, control=11, value=58, time=40),
    Message('control_change', channel=15, control=11, value=57, time=8),
    Message('control_change', channel=15, control=11, value=56, time=23),
    Message('control_change', channel=15, control=11, value=55, time=26),
    Message('control_change', channel=15, control=11, value=54, time=19),
    Message('control_change', channel=15, control=11, value=53, time=19),
    Message('control_change', channel=15, control=11, value=52, time=22),
    Message('control_change', channel=15, control=11, value=51, time=25),
    Message('control_change', channel=15, control=11, value=50, time=20),
    Message('control_change', channel=15, control=11, value=49, time=20),
    Message('control_change', channel=15, control=11, value=55, time=208),
    Message('note_on', channel=15, note=60, velocity=38, time=55),
    Message('control_change', channel=15, control=10, value=105, time=54),
    Message('control_change', channel=15, control=10, value=104, time=10),
    Message('control_change', channel=15, control=10, value=102, time=9),
    Message('control_change', channel=15, control=10, value=101, time=10),
    Message('control_change', channel=15, control=10, value=100, time=11),
    Message('control_change', channel=15, control=10, value=99, time=8),
    Message('control_change', channel=15, control=10, value=97, time=10),
    Message('control_change', channel=15, control=10, value=96, time=19),
    Message('control_change', channel=15, control=10, value=95, time=1),
    Message('control_change', channel=15, control=10, value=94, time=8),
    Message('control_change', channel=15, control=10, value=92, time=16),
    Message('control_change', channel=15, control=10, value=91, time=4),
    Message('control_change', channel=15, control=10, value=90, time=9),
    Message('control_change', channel=15, control=10, value=89, time=17),
    Message('control_change', channel=15, control=10, value=88, time=3),
    Message('control_change', channel=15, control=10, value=86, time=10),
    Message('control_change', channel=15, control=10, value=85, time=16),
    Message('control_change', channel=15, control=10, value=84, time=2),
    Message('control_change', channel=15, control=10, value=83, time=10),
    Message('control_change', channel=15, control=10, value=81, time=17),
    Message('control_change', channel=15, control=10, value=80, time=6),
    Message('control_change', channel=15, control=10, value=79, time=6),
    Message('control_change', channel=15, control=10, value=78, time=10),
    Message('control_change', channel=15, control=10, value=77, time=9),
    Message('control_change', channel=15, control=10, value=75, time=10),
    Message('control_change', channel=15, control=10, value=74, time=10),
    Message('control_change', channel=15, control=10, value=73, time=9),
    Message('control_change', channel=15, control=10, value=72, time=10),
    Message('control_change', channel=15, control=10, value=70, time=9),
    Message('control_change', channel=15, control=10, value=69, time=9),
    Message('control_change', channel=15, control=10, value=68, time=9),
    Message('control_change', channel=15, control=10, value=67, time=11),
    Message('control_change', channel=15, control=10, value=66, time=9),
    Message('control_change', channel=15, control=10, value=64, time=10),
    Message('control_change', channel=15, control=10, value=63, time=18),
    Message('control_change', channel=15, control=10, value=62, time=11),
    Message('control_change', channel=15, control=10, value=60, time=9),
    Message('control_change', channel=15, control=10, value=59, time=9),
    Message('control_change', channel=15, control=10, value=58, time=11),
    Message('control_change', channel=15, control=10, value=57, time=8),
    Message('control_change', channel=15, control=10, value=56, time=22),
    Message('control_change', channel=15, control=10, value=54, time=1),
    Message('control_change', channel=15, control=10, value=53, time=6),
    Message('control_change', channel=15, control=10, value=52, time=9),
    Message('control_change', channel=15, control=10, value=51, time=17),
    Message('control_change', channel=15, control=10, value=49, time=2),
    Message('control_change', channel=15, control=10, value=48, time=10),
    Message('control_change', channel=15, control=10, value=47, time=11),
    Message('control_change', channel=15, control=10, value=46, time=8),
    Message('control_change', channel=15, control=10, value=45, time=10),
    Message('control_change', channel=15, control=10, value=43, time=9),
    Message('control_change', channel=15, control=10, value=42, time=10),
    Message('control_change', channel=15, control=10, value=41, time=9),
    Message('control_change', channel=15, control=10, value=40, time=10),
    Message('control_change', channel=15, control=10, value=38, time=10),
    Message('control_change', channel=15, control=10, value=37, time=9),
    Message('control_change', channel=15, control=10, value=36, time=10),
    Message('control_change', channel=15, control=10, value=35, time=11),
    Message('control_change', channel=15, control=10, value=34, time=9),
    Message('control_change', channel=15, control=10, value=32, time=9),
    Message('control_change', channel=15, control=10, value=31, time=12),
    Message('control_change', channel=15, control=10, value=30, time=7),
    Message('control_change', channel=15, control=10, value=29, time=11),
    Message('note_on', channel=15, note=62, velocity=87, time=6),
    Message('note_on', channel=15, note=61, velocity=85, time=1),
    Message('control_change', channel=15, control=10, value=27, time=2),
    Message('control_change', channel=15, control=10, value=26, time=10),
    Message('note_off', channel=15, note=60, velocity=64, time=10),
    Message('control_change', channel=15, control=10, value=25, time=0),
    Message('control_change', channel=15, control=10, value=24, time=8),
    Message('control_change', channel=15, control=10, value=23, time=11),
    Message('control_change', channel=15, control=10, value=21, time=9),
    Message('control_change', channel=15, control=10, value=20, time=10),
    Message('control_change', channel=15, control=10, value=19, time=9),
    Message('control_change', channel=15, control=10, value=18, time=9),
    Message('control_change', channel=15, control=10, value=16, time=14),
    Message('control_change', channel=15, control=10, value=15, time=6),
    Message('control_change', channel=15, control=10, value=14, time=10),
    Message('control_change', channel=15, control=10, value=13, time=12),
    Message('control_change', channel=15, control=10, value=11, time=6),
    Message('control_change', channel=15, control=10, value=10, time=11),
    Message('control_change', channel=15, control=10, value=9, time=13),
    Message('control_change', channel=15, control=10, value=8, time=6),
    Message('control_change', channel=15, control=10, value=7, time=9),
    Message('control_change', channel=15, control=10, value=5, time=14),
    Message('control_change', channel=15, control=10, value=4, time=6),
    Message('note_on', channel=15, note=69, velocity=33, time=239),
    Message('control_change', channel=15, control=11, value=53, time=127),
    Message('control_change', channel=15, control=11, value=52, time=83),
    Message('control_change', channel=15, control=11, value=51, time=98),
    Message('control_change', channel=15, control=11, value=50, time=107),
    Message('note_off', channel=15, note=65, velocity=64, time=49),
    Message('control_change', channel=15, control=11, value=49, time=56),
    Message('control_change', channel=15, control=11, value=48, time=105),
    Message('control_change', channel=15, control=11, value=47, time=98),
    Message('control_change', channel=15, control=10, value=4, time=30),
    Message('control_change', channel=15, control=10, value=5, time=6),
    Message('control_change', channel=15, control=10, value=6, time=24),
    Message('control_change', channel=15, control=10, value=7, time=15),
    Message('control_change', channel=15, control=10, value=8, time=18),
    Message('control_change', channel=15, control=11, value=46, time=13),
    Message('control_change', channel=15, control=10, value=9, time=7),
    Message('control_change', channel=15, control=10, value=10, time=29),
    Message('control_change', channel=15, control=10, value=11, time=19),
    Message('note_off', channel=15, note=61, velocity=64, time=17),
    Message('control_change', channel=15, control=10, value=12, time=2),
    Message('control_change', channel=15, control=10, value=13, time=20),
    Message('control_change', channel=15, control=11, value=45, time=12),
    Message('control_change', channel=15, control=10, value=14, time=7),
    Message('control_change', channel=15, control=10, value=15, time=19),
    Message('control_change', channel=15, control=10, value=16, time=19),
    Message('note_off', channel=15, note=62, velocity=64, time=2),
    Message('control_change', channel=15, control=10, value=17, time=17),
    Message('control_change', channel=15, control=10, value=18, time=20),
    Message('control_change', channel=15, control=10, value=19, time=19),
    Message('control_change', channel=15, control=11, value=44, time=1),
    Message('control_change', channel=15, control=10, value=20, time=18),
    Message('control_change', channel=15, control=10, value=21, time=26),
    Message('control_change', channel=15, control=10, value=22, time=12),
    Message('control_change', channel=15, control=10, value=23, time=19),
    Message('note_off', channel=15, note=66, velocity=64, time=11),
    Message('control_change', channel=15, control=10, value=24, time=9),
    Message('control_change', channel=15, control=11, value=43, time=10),
    Message('control_change', channel=15, control=10, value=25, time=9),
    Message('control_change', channel=15, control=10, value=26, time=20),
    Message('control_change', channel=15, control=10, value=27, time=28),
    Message('control_change', channel=15, control=10, value=28, time=20),
    Message('control_change', channel=15, control=10, value=29, time=18),
    Message('control_change', channel=15, control=11, value=42, time=10),
    Message('control_change', channel=15, control=10, value=30, time=9),
    Message('control_change', channel=15, control=10, value=31, time=20),
    Message('control_change', channel=15, control=10, value=32, time=19),
    Message('control_change', channel=15, control=10, value=33, time=27),
    Message('control_change', channel=15, control=10, value=34, time=11),
    Message('control_change', channel=15, control=10, value=35, time=20),
    Message('control_change', channel=15, control=11, value=41, time=0),
    Message('control_change', channel=15, control=10, value=36, time=19),
    Message('control_change', channel=15, control=10, value=37, time=19),
    Message('control_change', channel=15, control=10, value=38, time=21),
    Message('control_change', channel=15, control=10, value=39, time=18),
    Message('control_change', channel=15, control=11, value=41, time=13),
    Message('control_change', channel=15, control=10, value=40, time=6),
    Message('control_change', channel=15, control=10, value=41, time=23),
    Message('control_change', channel=15, control=10, value=42, time=16),
    Message('control_change', channel=15, control=10, value=43, time=18),
    Message('control_change', channel=15, control=10, value=44, time=20),
    Message('control_change', channel=15, control=10, value=45, time=33),
    Message('control_change', channel=15, control=10, value=46, time=14),
    Message('control_change', channel=15, control=10, value=47, time=20),
    Message('control_change', channel=15, control=10, value=48, time=27),
    Message('control_change', channel=15, control=10, value=49, time=12),
    Message('control_change', channel=15, control=10, value=50, time=18),
    Message('control_change', channel=15, control=10, value=51, time=20),
    Message('control_change', channel=15, control=10, value=52, time=19),
    Message('control_change', channel=15, control=10, value=53, time=23),
    Message('control_change', channel=15, control=10, value=54, time=16),
    Message('control_change', channel=15, control=10, value=55, time=19),
    Message('control_change', channel=15, control=10, value=56, time=19),
    Message('control_change', channel=15, control=10, value=57, time=25),
    Message('control_change', channel=15, control=10, value=58, time=13),
    Message('control_change', channel=15, control=10, value=59, time=30),
    Message('control_change', channel=15, control=10, value=60, time=9),
    Message('control_change', channel=15, control=11, value=42, time=4),
    Message('control_change', channel=15, control=10, value=61, time=14),
    Message('control_change', channel=15, control=10, value=62, time=19),
    Message('control_change', channel=15, control=10, value=63, time=30),
    Message('control_change', channel=15, control=10, value=64, time=19),
    Message('control_change', channel=15, control=10, value=65, time=39),
    Message('control_change', channel=15, control=10, value=66, time=19),
    Message('control_change', channel=15, control=10, value=67, time=21),
    Message('control_change', channel=15, control=10, value=68, time=17),
    Message('control_change', channel=15, control=10, value=69, time=19),
    Message('control_change', channel=15, control=10, value=70, time=20),
    Message('control_change', channel=15, control=10, value=71, time=19),
    Message('control_change', channel=15, control=10, value=72, time=20),
    Message('control_change', channel=15, control=10, value=73, time=18),
    Message('control_change', channel=15, control=10, value=74, time=19),
    Message('control_change', channel=15, control=10, value=75, time=21),
    Message('control_change', channel=15, control=10, value=76, time=17),
    Message('control_change', channel=15, control=10, value=77, time=20),
    Message('control_change', channel=15, control=10, value=78, time=18),
    Message('control_change', channel=15, control=10, value=79, time=34),
    Message('control_change', channel=15, control=10, value=80, time=17),
    Message('control_change', channel=15, control=10, value=81, time=16),
    Message('control_change', channel=15, control=10, value=82, time=20),
    Message('control_change', channel=15, control=10, value=83, time=19),
    Message('control_change', channel=15, control=10, value=84, time=19),
    Message('control_change', channel=15, control=10, value=85, time=20),
    Message('control_change', channel=15, control=10, value=86, time=18),
    Message('control_change', channel=15, control=10, value=87, time=26),
    Message('control_change', channel=15, control=10, value=88, time=13),
    Message('control_change', channel=15, control=10, value=89, time=19),
    Message('control_change', channel=15, control=10, value=90, time=28),
    Message('control_change', channel=15, control=10, value=91, time=10),
    Message('control_change', channel=15, control=10, value=92, time=19),
    Message('control_change', channel=15, control=10, value=93, time=31),
    Message('control_change', channel=15, control=10, value=94, time=8),
    Message('control_change', channel=15, control=10, value=95, time=21),
    Message('control_change', channel=15, control=10, value=96, time=19),
    Message('control_change', channel=15, control=10, value=97, time=28),
    Message('control_change', channel=15, control=10, value=98, time=19),
    Message('control_change', channel=15, control=10, value=99, time=18),
    Message('control_change', channel=15, control=10, value=100, time=20),
    Message('control_change', channel=15, control=10, value=101, time=20),
    Message('control_change', channel=15, control=10, value=102, time=19),
    Message('control_change', channel=15, control=10, value=103, time=19),
    Message('control_change', channel=15, control=10, value=104, time=19),
    Message('control_change', channel=15, control=10, value=105, time=19),
    Message('control_change', channel=15, control=10, value=106, time=19),
    Message('control_change', channel=15, control=10, value=107, time=25),
    Message('control_change', channel=15, control=10, value=108, time=14),
    Message('control_change', channel=15, control=10, value=109, time=19),
    Message('control_change', channel=15, control=10, value=110, time=21),
    Message('control_change', channel=15, control=10, value=111, time=18),
    Message('control_change', channel=15, control=10, value=112, time=18),
    Message('control_change', channel=15, control=10, value=113, time=20),
    Message('control_change', channel=15, control=10, value=114, time=19),
    Message('control_change', channel=15, control=10, value=115, time=29),
    Message('control_change', channel=15, control=10, value=116, time=20),
    Message('control_change', channel=15, control=10, value=117, time=19),
    Message('control_change', channel=15, control=10, value=118, time=19),
    Message('control_change', channel=15, control=10, value=119, time=22),
    Message('control_change', channel=15, control=10, value=120, time=16),
    Message('control_change', channel=15, control=10, value=121, time=19),
    Message('control_change', channel=15, control=10, value=122, time=22),
    Message('control_change', channel=15, control=10, value=123, time=17),
    Message('control_change', channel=15, control=10, value=124, time=19),
    Message('control_change', channel=15, control=10, value=125, time=19),
    Message('control_change', channel=15, control=10, value=126, time=19),
    Message('control_change', channel=15, control=11, value=45, time=95),
    Message('control_change', channel=15, control=10, value=127, time=73),
    Message('control_change', channel=15, control=10, value=126, time=215),
    Message('control_change', channel=15, control=10, value=125, time=29),
    Message('control_change', channel=15, control=10, value=124, time=28),
    Message('control_change', channel=15, control=10, value=123, time=30),
    Message('control_change', channel=15, control=10, value=122, time=36),
    Message('control_change', channel=15, control=10, value=121, time=30),
    Message('control_change', channel=15, control=10, value=120, time=28),
    Message('control_change', channel=15, control=10, value=119, time=29),
    Message('control_change', channel=15, control=10, value=118, time=29),
    Message('control_change', channel=15, control=10, value=117, time=27),
    Message('control_change', channel=15, control=10, value=116, time=34),
    Message('note_on', channel=15, note=70, velocity=64, time=15),
    Message('control_change', channel=15, control=10, value=115, time=15),
    Message('control_change', channel=15, control=10, value=114, time=27),
    Message('control_change', channel=15, control=10, value=113, time=35),
    Message('note_off', channel=15, note=69, velocity=64, time=11),
    Message('control_change', channel=15, control=10, value=112, time=18),
    Message('control_change', channel=15, control=10, value=111, time=28),
    Message('control_change', channel=15, control=10, value=110, time=29),
    Message('control_change', channel=15, control=10, value=109, time=29),
    Message('control_change', channel=15, control=10, value=108, time=29),
    Message('control_change', channel=15, control=10, value=107, time=34),
    Message('control_change', channel=15, control=10, value=106, time=31),
    Message('control_change', channel=15, control=10, value=105, time=28),
    Message('control_change', channel=15, control=10, value=104, time=32),
    Message('control_change', channel=15, control=10, value=103, time=28),
    Message('control_change', channel=15, control=10, value=102, time=30),
    Message('control_change', channel=15, control=10, value=101, time=29),
    Message('control_change', channel=15, control=10, value=100, time=28),
    Message('control_change', channel=15, control=10, value=99, time=29),
    Message('control_change', channel=15, control=10, value=98, time=33),
    Message('control_change', channel=15, control=10, value=97, time=34),
    Message('control_change', channel=15, control=10, value=96, time=26),
    Message('control_change', channel=15, control=10, value=95, time=31),
    Message('control_change', channel=15, control=10, value=94, time=32),
    Message('control_change', channel=15, control=10, value=93, time=27),
    Message('control_change', channel=15, control=10, value=92, time=28),
    Message('control_change', channel=15, control=10, value=91, time=28),
    Message('control_change', channel=15, control=10, value=90, time=29),
    Message('control_change', channel=15, control=10, value=89, time=39),
    Message('control_change', channel=15, control=10, value=88, time=33),
    Message('control_change', channel=15, control=10, value=87, time=15),
    Message('control_change', channel=15, control=10, value=86, time=37),
    Message('control_change', channel=15, control=10, value=85, time=30),
    Message('control_change', channel=15, control=10, value=84, time=29),
    Message('control_change', channel=15, control=10, value=83, time=29),
    Message('control_change', channel=15, control=10, value=82, time=30),
    Message('control_change', channel=15, control=10, value=81, time=30),
    Message('control_change', channel=15, control=10, value=80, time=26),
    Message('control_change', channel=15, control=10, value=79, time=30),
    Message('control_change', channel=15, control=10, value=78, time=28),
    Message('control_change', channel=15, control=10, value=77, time=41),
    Message('control_change', channel=15, control=10, value=76, time=27),
    Message('control_change', channel=15, control=10, value=75, time=30),
    Message('control_change', channel=15, control=10, value=74, time=27),
    Message('control_change', channel=15, control=10, value=73, time=28),
    Message('control_change', channel=15, control=10, value=72, time=30),
    Message('control_change', channel=15, control=10, value=71, time=28),
    Message('control_change', channel=15, control=10, value=70, time=29),
    Message('control_change', channel=15, control=10, value=69, time=28),
    Message('control_change', channel=15, control=10, value=68, time=43),
    Message('control_change', channel=15, control=10, value=67, time=25),
    Message('control_change', channel=15, control=10, value=66, time=28),
    Message('control_change', channel=15, control=10, value=65, time=29),
    Message('control_change', channel=15, control=10, value=64, time=32),
    Message('control_change', channel=15, control=10, value=64, time=79),
    Message('control_change', channel=15, control=11, value=45, time=132),
    Message('control_change', channel=15, control=11, value=46, time=106),
    Message('control_change', channel=15, control=11, value=47, time=143),
    Message('control_change', channel=15, control=11, value=48, time=145),
    Message('control_change', channel=15, control=11, value=49, time=144),
    Message('control_change', channel=15, control=11, value=50, time=144),
    Message('control_change', channel=15, control=11, value=51, time=143),
    Message('control_change', channel=15, control=11, value=52, time=146),
    Message('control_change', channel=15, control=11, value=53, time=148),
    Message('control_change', channel=15, control=11, value=54, time=153),
    Message('control_change', channel=15, control=11, value=55, time=139),
    Message('control_change', channel=15, control=11, value=56, time=144),
    Message('note_on', channel=15, note=71, velocity=51, time=4),
    Message('control_change', channel=15, control=11, value=57, time=140),
    Message('control_change', channel=15, control=11, value=58, time=145),
    Message('control_change', channel=15, control=11, value=59, time=143),
    Message('control_change', channel=15, control=11, value=60, time=144),
    Message('control_change', channel=15, control=11, value=61, time=144),
    Message('note_off', channel=15, note=70, velocity=64, time=3),
    Message('control_change', channel=15, control=11, value=62, time=141),
    Message('control_change', channel=15, control=11, value=63, time=153),
    Message('control_change', channel=15, control=11, value=64, time=145),
    Message('control_change', channel=15, control=11, value=65, time=144),
    Message('control_change', channel=15, control=11, value=66, time=266),
    Message('control_change', channel=15, control=11, value=65, time=47),
    Message('control_change', channel=15, control=11, value=64, time=54),
    Message('control_change', channel=15, control=11, value=63, time=29),
    Message('control_change', channel=15, control=11, value=62, time=46),
    Message('control_change', channel=15, control=11, value=61, time=48),
    Message('control_change', channel=15, control=11, value=60, time=32),
    Message('control_change', channel=15, control=11, value=59, time=49),
    Message('control_change', channel=15, control=11, value=58, time=49),
    Message('control_change', channel=15, control=11, value=57, time=32),
    Message('control_change', channel=15, control=11, value=56, time=49),
    Message('control_change', channel=15, control=11, value=55, time=48),
    Message('control_change', channel=15, control=11, value=54, time=36),
    Message('control_change', channel=15, control=11, value=53, time=46),
    Message('control_change', channel=15, control=11, value=52, time=48),
    Message('control_change', channel=15, control=11, value=51, time=32),
    Message('control_change', channel=15, control=11, value=50, time=49),
    Message('control_change', channel=15, control=11, value=49, time=49),
    Message('control_change', channel=15, control=11, value=48, time=49),
    Message('control_change', channel=15, control=11, value=47, time=32),
    Message('control_change', channel=15, control=11, value=46, time=48),
    Message('control_change', channel=15, control=11, value=45, time=49),
    Message('control_change', channel=15, control=11, value=44, time=33),
    Message('control_change', channel=15, control=11, value=43, time=48),
    Message('control_change', channel=15, control=11, value=42, time=49),
    Message('control_change', channel=15, control=11, value=41, time=32),
    Message('control_change', channel=15, control=11, value=40, time=48),
    Message('control_change', channel=15, control=11, value=39, time=52),
    Message('control_change', channel=15, control=11, value=38, time=33),
    Message('control_change', channel=15, control=11, value=37, time=45),
    Message('control_change', channel=15, control=11, value=36, time=49),
    Message('control_change', channel=15, control=11, value=35, time=33),
    Message('control_change', channel=15, control=11, value=34, time=48),
    Message('control_change', channel=15, control=11, value=33, time=49),
    Message('control_change', channel=15, control=11, value=32, time=32),
    Message('control_change', channel=15, control=11, value=31, time=48),
    Message('control_change', channel=15, control=11, value=30, time=49),
    Message('control_change', channel=15, control=11, value=29, time=49),
    Message('control_change', channel=15, control=11, value=28, time=32),
    Message('control_change', channel=15, control=11, value=27, time=49),
    Message('control_change', channel=15, control=11, value=26, time=57),
    Message('control_change', channel=15, control=11, value=25, time=30),
    Message('control_change', channel=15, control=11, value=24, time=43),
    Message('control_change', channel=15, control=11, value=23, time=48),
    Message('control_change', channel=15, control=11, value=22, time=32),
    Message('control_change', channel=15, control=11, value=21, time=49),
    Message('control_change', channel=15, control=11, value=20, time=48),
    Message('control_change', channel=15, control=11, value=19, time=33),
    Message('control_change', channel=15, control=11, value=18, time=49),
    Message('control_change', channel=15, control=11, value=17, time=48),
    Message('control_change', channel=15, control=11, value=16, time=32),
    Message('control_change', channel=15, control=11, value=15, time=49),
    Message('control_change', channel=15, control=11, value=14, time=50),
    Message('control_change', channel=15, control=11, value=13, time=32),
    Message('control_change', channel=15, control=11, value=12, time=48),
    Message('control_change', channel=15, control=11, value=11, time=48),
    Message('control_change', channel=15, control=11, value=10, time=49),
    Message('control_change', channel=15, control=11, value=9, time=39),
    Message('control_change', channel=15, control=11, value=8, time=42),
    Message('control_change', channel=15, control=11, value=7, time=49),
    Message('control_change', channel=15, control=11, value=6, time=33),
    Message('control_change', channel=15, control=11, value=5, time=55),
    Message('control_change', channel=15, control=11, value=4, time=41),
    Message('control_change', channel=15, control=11, value=3, time=33),
    Message('control_change', channel=15, control=11, value=2, time=49),
    Message('control_change', channel=15, control=11, value=1, time=58),
    Message('note_off', channel=15, note=71, velocity=64, time=1),
    Message('sysex', data=(66, 48, 104, 67, 24, 0, 0, 12, 0, 0, 0, 125), time=51159),
    Message('sysex', data=(66, 48, 104, 67, 24, 0, 0, 12, 0, 0, 0, 124), time=60),
    Message('sysex', data=(66, 48, 104, 67, 24, 0, 0, 12, 0, 0, 0, 121), time=16),
    Message('sysex', data=(66, 48, 104, 67, 24, 0, 0, 12, 0, 0, 0, 120), time=58),
    Message('sysex', data=(66, 48, 104, 67, 24, 0, 0, 12, 0, 0, 0, 118), time=20),
    Message('sysex', data=(66, 48, 104, 67, 24, 0, 0, 12, 0, 0, 0, 117), time=71),
    Message('sysex', data=(66, 48, 104, 67, 24, 0, 0, 12, 0, 0, 0, 115), time=73),
    Message('sysex', data=(66, 48, 104, 67, 24, 0, 0, 12, 0, 0, 0, 113), time=54),
    Message('sysex', data=(66, 48, 104, 67, 24, 0, 0, 12, 0, 0, 0, 113), time=48),
    Message('sysex', data=(66, 48, 104, 67, 24, 0, 0, 12, 0, 0, 0, 112), time=16),
    Message('sysex', data=(66, 48, 104, 67, 24, 0, 0, 12, 0, 0, 0, 111), time=12),
    Message('sysex', data=(66, 48, 104, 67, 24, 0, 0, 12, 0, 0, 0, 110), time=42),
    Message('sysex', data=(66, 48, 104, 67, 24, 0, 0, 12, 0, 0, 0, 109), time=15),
    Message('sysex', data=(66, 48, 104, 67, 24, 0, 0, 12, 0, 0, 0, 108), time=12),
    Message('sysex', data=(66, 48, 104, 67, 24, 0, 0, 12, 0, 0, 0, 107), time=42),
    Message('sysex', data=(66, 48, 104, 67, 24, 0, 0, 12, 0, 0, 0, 107), time=16),
    Message('sysex', data=(66, 48, 104, 67, 24, 0, 0, 12, 0, 0, 0, 106), time=23),
    Message('sysex', data=(66, 48, 104, 67, 24, 0, 0, 12, 0, 0, 0, 106), time=41),
    Message('sysex', data=(66, 48, 104, 67, 24, 0, 0, 12, 0, 0, 0, 105), time=13),
    Message('sysex', data=(66, 48, 104, 67, 24, 0, 0, 12, 0, 0, 0, 105), time=41),
    Message('sysex', data=(66, 48, 104, 67, 24, 0, 0, 12, 0, 0, 0, 104), time=15),
    Message('sysex', data=(66, 48, 104, 67, 24, 0, 0, 12, 0, 0, 0, 103), time=146),
    Message('sysex', data=(66, 48, 104, 67, 24, 0, 0, 12, 0, 0, 0, 102), time=54),
    Message('sysex', data=(66, 48, 104, 67, 24, 0, 0, 12, 0, 0, 0, 102), time=13),
    Message('sysex', data=(66, 48, 104, 67, 24, 0, 0, 12, 0, 0, 0, 101), time=80),
    Message('sysex', data=(66, 48, 104, 67, 24, 0, 0, 12, 0, 0, 0, 100), time=51),
    Message('sysex', data=(66, 48, 104, 67, 24, 0, 0, 12, 0, 0, 0, 100), time=71),
    Message('sysex', data=(66, 48, 104, 67, 24, 0, 0, 12, 0, 0, 0, 99), time=208),
    Message('sysex', data=(66, 48, 104, 67, 24, 0, 0, 12, 0, 0, 0, 98), time=15),
    Message('sysex', data=(66, 48, 104, 67, 24, 0, 0, 12, 0, 0, 0, 98), time=49),
    Message('sysex', data=(66, 48, 104, 67, 24, 0, 0, 12, 0, 0, 0, 97), time=26),
    Message('sysex', data=(66, 48, 104, 67, 24, 0, 0, 12, 0, 0, 0, 97), time=41),
    Message('sysex', data=(66, 48, 104, 67, 24, 0, 0, 12, 0, 0, 0, 96), time=55),
    Message('sysex', data=(66, 48, 104, 67, 24, 0, 0, 12, 0, 0, 0, 96), time=15),
    Message('sysex', data=(66, 48, 104, 67, 24, 0, 0, 12, 0, 0, 0, 95), time=26),
    Message('sysex', data=(66, 48, 104, 67, 24, 0, 0, 12, 0, 0, 0, 94), time=43),
    Message('sysex', data=(66, 48, 104, 67, 24, 0, 0, 12, 0, 0, 0, 94), time=26),
    Message('sysex', data=(66, 48, 104, 67, 24, 0, 0, 12, 0, 0, 0, 93), time=41),
    Message('sysex', data=(66, 48, 104, 67, 24, 0, 0, 12, 0, 0, 0, 92), time=55),
    Message('sysex', data=(66, 48, 104, 67, 24, 0, 0, 12, 0, 0, 0, 92), time=14),
    Message('sysex', data=(66, 48, 104, 67, 24, 0, 0, 12, 0, 0, 0, 90), time=150),
    Message('sysex', data=(66, 48, 104, 67, 24, 0, 0, 12, 0, 0, 0, 90), time=14),
    Message('sysex', data=(66, 48, 104, 67, 24, 0, 0, 12, 0, 0, 0, 89), time=53),
    Message('sysex', data=(66, 48, 104, 67, 24, 0, 0, 12, 0, 0, 0, 89), time=46),
    Message('sysex', data=(66, 48, 104, 67, 24, 0, 0, 12, 0, 0, 0, 88), time=14),
    Message('sysex', data=(66, 48, 104, 67, 24, 0, 0, 12, 0, 0, 0, 87), time=14),
    Message('sysex', data=(66, 48, 104, 67, 24, 0, 0, 12, 0, 0, 0, 87), time=44),
    Message('sysex', data=(66, 48, 104, 67, 24, 0, 0, 12, 0, 0, 0, 86), time=14),
    Message('sysex', data=(66, 48, 104, 67, 24, 0, 0, 12, 0, 0, 0, 84), time=68),
    Message('sysex', data=(66, 48, 104, 67, 24, 0, 0, 12, 0, 0, 0, 83), time=26),
    Message('sysex', data=(66, 48, 104, 67, 24, 0, 0, 12, 0, 0, 0, 83), time=47),
    Message('sysex', data=(66, 48, 104, 67, 24, 0, 0, 12, 0, 0, 0, 82), time=155),
    Message('sysex', data=(66, 48, 104, 67, 24, 0, 0, 12, 0, 0, 0, 81), time=136),
    Message('sysex', data=(66, 48, 104, 67, 24, 0, 0, 12, 0, 0, 0, 80), time=163),
    Message('sysex', data=(66, 48, 104, 67, 24, 0, 0, 12, 0, 0, 0, 79), time=44),
    Message('sysex', data=(66, 48, 104, 67, 24, 0, 0, 12, 0, 0, 0, 78), time=157),
    Message('sysex', data=(66, 48, 104, 67, 24, 0, 0, 12, 0, 0, 0, 77), time=47),
    Message('sysex', data=(66, 48, 104, 67, 24, 0, 0, 12, 0, 0, 0, 77), time=13),
    Message('sysex', data=(66, 48, 104, 67, 24, 0, 0, 12, 0, 0, 0, 76), time=14),
    Message('sysex', data=(66, 48, 104, 67, 24, 0, 0, 12, 0, 0, 0, 76), time=43),
    Message('sysex', data=(66, 48, 104, 67, 24, 0, 0, 12, 0, 0, 0, 75), time=15),
    Message('sysex', data=(66, 48, 104, 67, 24, 0, 0, 12, 0, 0, 0, 75), time=65),
    Message('sysex', data=(66, 48, 104, 67, 24, 0, 0, 12, 0, 0, 0, 74), time=153),
    Message('sysex', data=(66, 48, 104, 67, 24, 0, 0, 12, 0, 0, 0, 73), time=125),
    Message('sysex', data=(66, 48, 104, 67, 24, 0, 0, 12, 0, 0, 0, 71), time=155),
    Message('sysex', data=(66, 48, 104, 67, 24, 0, 0, 12, 0, 0, 0, 71), time=54),
    Message('sysex', data=(66, 48, 104, 67, 24, 0, 0, 12, 0, 0, 0, 70), time=15),
    Message('sysex', data=(66, 48, 104, 67, 24, 0, 0, 12, 0, 0, 0, 70), time=46),
    Message('sysex', data=(66, 48, 104, 67, 24, 0, 0, 12, 0, 0, 0, 69), time=16),
    Message('sysex', data=(66, 48, 104, 67, 24, 0, 0, 12, 0, 0, 0, 69), time=11),
    Message('sysex', data=(66, 48, 104, 67, 24, 0, 0, 12, 0, 0, 0, 68), time=64),
    Message('sysex', data=(66, 48, 104, 67, 24, 0, 0, 12, 0, 0, 0, 67), time=70),
    Message('sysex', data=(66, 48, 104, 67, 24, 0, 0, 12, 0, 0, 0, 66), time=81),
    Message('sysex', data=(66, 48, 104, 67, 24, 0, 0, 12, 0, 0, 0, 66), time=55),
    Message('sysex', data=(66, 48, 104, 67, 24, 0, 0, 12, 0, 0, 0, 65), time=14),
    Message('sysex', data=(66, 48, 104, 67, 24, 0, 0, 12, 0, 0, 0, 65), time=38),
    Message('sysex', data=(66, 48, 104, 67, 24, 0, 0, 12, 0, 0, 0, 65), time=14),
    Message('sysex', data=(66, 48, 104, 67, 24, 0, 0, 12, 0, 0, 0, 64), time=25),
    Message('sysex', data=(66, 48, 104, 67, 24, 0, 0, 12, 0, 0, 0, 63), time=50),
    Message('sysex', data=(66, 48, 104, 67, 24, 0, 0, 12, 0, 0, 0, 63), time=28),
    Message('sysex', data=(66, 48, 104, 67, 24, 0, 0, 12, 0, 0, 0, 62), time=55),
    Message('sysex', data=(66, 48, 104, 67, 24, 0, 0, 12, 0, 0, 0, 61), time=131),
    Message('sysex', data=(66, 48, 104, 67, 24, 0, 0, 12, 0, 0, 0, 60), time=67),
    Message('sysex', data=(66, 48, 104, 67, 24, 0, 0, 12, 0, 0, 0, 59), time=71),
    Message('sysex', data=(66, 48, 104, 67, 24, 0, 0, 12, 0, 0, 0, 59), time=25),
    Message('sysex', data=(66, 48, 104, 67, 24, 0, 0, 12, 0, 0, 0, 58), time=43),
    Message('sysex', data=(66, 48, 104, 67, 24, 0, 0, 12, 0, 0, 0, 57), time=67),
    Message('sysex', data=(66, 48, 104, 67, 24, 0, 0, 12, 0, 0, 0, 57), time=16),
    Message('sysex', data=(66, 48, 104, 67, 24, 0, 0, 12, 0, 0, 0, 56), time=59),
    Message('sysex', data=(66, 48, 104, 67, 24, 0, 0, 12, 0, 0, 0, 56), time=14),
    Message('sysex', data=(66, 48, 104, 67, 24, 0, 0, 12, 0, 0, 0, 55), time=52),
    Message('sysex', data=(66, 48, 104, 67, 24, 0, 0, 12, 0, 0, 0, 54), time=28),
    Message('sysex', data=(66, 48, 104, 67, 24, 0, 0, 12, 0, 0, 0, 53), time=122),
    Message('sysex', data=(66, 48, 104, 67, 24, 0, 0, 12, 0, 0, 0, 53), time=58),
    Message('sysex', data=(66, 48, 104, 67, 24, 0, 0, 12, 0, 0, 0, 52), time=132),
    Message('sysex', data=(66, 48, 104, 67, 24, 0, 0, 12, 0, 0, 0, 51), time=13),
    Message('sysex', data=(66, 48, 104, 67, 24, 0, 0, 12, 0, 0, 0, 51), time=41),
    Message('sysex', data=(66, 48, 104, 67, 24, 0, 0, 12, 0, 0, 0, 50), time=40),
    Message('sysex', data=(66, 48, 104, 67, 24, 0, 0, 12, 0, 0, 0, 49), time=309),
    Message('sysex', data=(66, 48, 104, 67, 24, 0, 0, 12, 0, 0, 0, 49), time=82),
    Message('sysex', data=(66, 48, 104, 67, 24, 0, 0, 12, 0, 0, 0, 48), time=64),
    Message('sysex', data=(66, 48, 104, 67, 24, 0, 0, 12, 0, 0, 0, 47), time=67),
    Message('sysex', data=(66, 48, 104, 67, 24, 0, 0, 12, 0, 0, 0, 46), time=25),
    Message('sysex', data=(66, 48, 104, 67, 24, 0, 0, 12, 0, 0, 0, 46), time=41),
    Message('sysex', data=(66, 48, 104, 67, 24, 0, 0, 12, 0, 0, 0, 45), time=13),
    Message('sysex', data=(66, 48, 104, 67, 24, 0, 0, 12, 0, 0, 0, 45), time=41),
    Message('sysex', data=(66, 48, 104, 67, 24, 0, 0, 12, 0, 0, 0, 44), time=12),
    Message('sysex', data=(66, 48, 104, 67, 24, 0, 0, 12, 0, 0, 0, 44), time=25),
    Message('sysex', data=(66, 48, 104, 67, 24, 0, 0, 12, 0, 0, 0, 43), time=53),
    Message('sysex', data=(66, 48, 104, 67, 24, 0, 0, 12, 0, 0, 0, 42), time=39),
    Message('sysex', data=(66, 48, 104, 67, 24, 0, 0, 12, 0, 0, 0, 41), time=14),
    Message('sysex', data=(66, 48, 104, 67, 24, 0, 0, 12, 0, 0, 0, 40), time=24),
    Message('sysex', data=(66, 48, 104, 67, 24, 0, 0, 12, 0, 0, 0, 39), time=41),
    Message('sysex', data=(66, 48, 104, 67, 24, 0, 0, 12, 0, 0, 0, 38), time=63),
    Message('sysex', data=(66, 48, 104, 67, 24, 0, 0, 12, 0, 0, 0, 37), time=96),
    Message('sysex', data=(66, 48, 104, 67, 24, 0, 0, 12, 0, 0, 0, 36), time=325),
    Message('sysex', data=(66, 48, 104, 67, 24, 0, 0, 12, 0, 0, 0, 36), time=14),
    Message('sysex', data=(66, 48, 104, 67, 24, 0, 0, 12, 0, 0, 0, 35), time=67),
    Message('sysex', data=(66, 48, 104, 67, 24, 0, 0, 12, 0, 0, 0, 34), time=27),
    Message('sysex', data=(66, 48, 104, 67, 24, 0, 0, 12, 0, 0, 0, 34), time=40),
    Message('sysex', data=(66, 48, 104, 67, 24, 0, 0, 12, 0, 0, 0, 33), time=14),
    Message('sysex', data=(66, 48, 104, 67, 24, 0, 0, 12, 0, 0, 0, 32), time=36),
    Message('sysex', data=(66, 48, 104, 67, 24, 0, 0, 12, 0, 0, 0, 31), time=14),
    Message('sysex', data=(66, 48, 104, 67, 24, 0, 0, 12, 0, 0, 0, 31), time=25),
    Message('sysex', data=(66, 48, 104, 67, 24, 0, 0, 12, 0, 0, 0, 30), time=42),
    Message('sysex', data=(66, 48, 104, 67, 24, 0, 0, 12, 0, 0, 0, 30), time=13),
    Message('sysex', data=(66, 48, 104, 67, 24, 0, 0, 12, 0, 0, 0, 29), time=26),
    Message('sysex', data=(66, 48, 104, 67, 24, 0, 0, 12, 0, 0, 0, 28), time=122),
    Message('sysex', data=(66, 48, 104, 67, 24, 0, 0, 12, 0, 0, 0, 28), time=26),
    Message('sysex', data=(66, 48, 104, 67, 24, 0, 0, 12, 0, 0, 0, 27), time=88),
    Message('sysex', data=(66, 48, 104, 67, 24, 0, 0, 12, 0, 0, 0, 26), time=72),
    Message('sysex', data=(66, 48, 104, 67, 24, 0, 0, 12, 0, 0, 0, 25), time=26),
    Message('sysex', data=(66, 48, 104, 67, 24, 0, 0, 12, 0, 0, 0, 25), time=76),
    Message('sysex', data=(66, 48, 104, 67, 24, 0, 0, 12, 0, 0, 0, 24), time=73),
    Message('sysex', data=(66, 48, 104, 67, 24, 0, 0, 12, 0, 0, 0, 23), time=64),
    Message('sysex', data=(66, 48, 104, 67, 24, 0, 0, 12, 0, 0, 0, 22), time=98),
    Message('sysex', data=(66, 48, 104, 67, 24, 0, 0, 12, 0, 0, 0, 22), time=38),
    Message('sysex', data=(66, 48, 104, 67, 24, 0, 0, 12, 0, 0, 0, 21), time=14),
    Message('sysex', data=(66, 48, 104, 67, 24, 0, 0, 12, 0, 0, 0, 20), time=26),
    Message('sysex', data=(66, 48, 104, 67, 24, 0, 0, 12, 0, 0, 0, 20), time=13),
    Message('sysex', data=(66, 48, 104, 67, 24, 0, 0, 12, 0, 0, 0, 19), time=97),
    Message('sysex', data=(66, 48, 104, 67, 24, 0, 0, 12, 0, 0, 0, 18), time=40),
    Message('sysex', data=(66, 48, 104, 67, 24, 0, 0, 12, 0, 0, 0, 18), time=33),
    Message('sysex', data=(66, 48, 104, 67, 24, 0, 0, 12, 0, 0, 0, 17), time=39),
    Message('sysex', data=(66, 48, 104, 67, 24, 0, 0, 12, 0, 0, 0, 16), time=39),
    Message('sysex', data=(66, 48, 104, 67, 24, 0, 0, 12, 0, 0, 0, 16), time=13),
    Message('sysex', data=(66, 48, 104, 67, 24, 0, 0, 12, 0, 0, 0, 16), time=26),
    Message('sysex', data=(66, 48, 104, 67, 24, 0, 0, 12, 0, 0, 0, 15), time=36),
    Message('sysex', data=(66, 48, 104, 67, 24, 0, 0, 12, 0, 0, 0, 15), time=14),
    Message('sysex', data=(66, 48, 104, 67, 24, 0, 0, 12, 0, 0, 0, 14), time=25),
    Message('sysex', data=(66, 48, 104, 67, 24, 0, 0, 12, 0, 0, 0, 14), time=33),
    Message('sysex', data=(66, 48, 104, 67, 24, 0, 0, 12, 0, 0, 0, 13), time=26),
    Message('sysex', data=(66, 48, 104, 67, 24, 0, 0, 12, 0, 0, 0, 12), time=13),
    Message('sysex', data=(66, 48, 104, 67, 24, 0, 0, 12, 0, 0, 0, 12), time=39),
    Message('sysex', data=(66, 48, 104, 67, 24, 0, 0, 12, 0, 0, 0, 11), time=39),
    Message('sysex', data=(66, 48, 104, 67, 24, 0, 0, 12, 0, 0, 0, 10), time=59),
    Message('sysex', data=(66, 48, 104, 67, 24, 0, 0, 12, 0, 0, 0, 9), time=51),
    Message('sysex', data=(66, 48, 104, 67, 24, 0, 0, 12, 0, 0, 0, 9), time=27),
    Message('sysex', data=(66, 48, 104, 67, 24, 0, 0, 12, 0, 0, 0, 8), time=33),
    Message('sysex', data=(66, 48, 104, 67, 24, 0, 0, 12, 0, 0, 0, 8), time=14),
    Message('sysex', data=(66, 48, 104, 67, 24, 0, 0, 12, 0, 0, 0, 7), time=25),
    Message('sysex', data=(66, 48, 104, 67, 24, 0, 0, 12, 0, 0, 0, 6), time=39),
    Message('sysex', data=(66, 48, 104, 67, 24, 0, 0, 12, 0, 0, 0, 6), time=13),
    Message('sysex', data=(66, 48, 104, 67, 24, 0, 0, 12, 0, 0, 0, 5), time=25),
    Message('sysex', data=(66, 48, 104, 67, 24, 0, 0, 12, 0, 0, 0, 4), time=35),
    Message('sysex', data=(66, 48, 104, 67, 24, 0, 0, 12, 0, 0, 0, 4), time=13),
    Message('sysex', data=(66, 48, 104, 67, 24, 0, 0, 12, 0, 0, 0, 3), time=25),
    Message('sysex', data=(66, 48, 104, 67, 24, 0, 0, 12, 0, 0, 0, 2), time=38),
    Message('sysex', data=(66, 48, 104, 67, 24, 0, 0, 12, 0, 0, 0, 1), time=14),
    Message('sysex', data=(66, 48, 104, 67, 24, 0, 0, 12, 0, 0, 0, 0), time=26),
    Message('sysex', data=(66, 48, 104, 67, 24, 0, 0, 12, 0, 0, 0, 0), time=59),
    MetaMessage('end_of_track', time=3311)])
])